<?xml version="1.0" encoding="utf-8"?>
<!-- Generator: Adobe Illustrator 25.2.3, SVG Export Plug-In . SVG Version: 6.00 Build 0)  -->
<svg version="1.1" id="Слой_1" xmlns="http://www.w3.org/2000/svg" xmlns:xlink="http://www.w3.org/1999/xlink" x="0px" y="0px"
	 viewBox="0 0 864 864" style="enable-background:new 0 0 864 864;" xml:space="preserve">
<style type="text/css">
	.st0{fill:none;}
	.st1{fill:#FBAAA0;}
	.st2{fill:#7D695F;}
	.st3{fill:#806F61;}
	.st4{fill:#A99083;}
	.st5{fill:#CD5B19;}
	.st6{fill:#FFFFFF;}
	.st7{fill:#FFBD66;}
	.st8{fill:#E97214;}
	.st9{fill:#32485C;}
	.st10{fill:#AEA077;}
	.st11{fill:#CDAF93;}
	.st12{fill:#8E9A61;}
	.st13{fill:#826459;}
</style>
<path class="st0" d="M398,773.6c0,0.2,0.1,0.5,0.4,0.3C398.3,773.8,398.2,773.7,398,773.6z"/>
<path class="st1" d="M586.2,196.5c-0.2-1.3-0.1-3.6-0.8-4c-3.7-1.7-7.5-3.2-11.4-4.5c0,0.6,0.2,1.1,0.5,1.6c2.7,2.1,5.4,4.5,8.3,6.4
	C583.6,196.6,585.1,196.5,586.2,196.5z"/>
<path class="st2" d="M640.8,154.5c6,1.6,3.8-2.6,3.3-6.3c-2.5,0.7-4.9,3-7.3,4.3c-11.4,8.6-24.6-1.8-37.2,2
	c-13.6,2.6-8.3,11.7-1.5,19.6c11,10.6,32.2,8.4,40.3-7.1C623.5,175.6,633.1,155.2,640.8,154.5z M595.1,165.6
	c-0.8-4.7,1.3-5.7,5.1-6.2c6.8-0.6,13.7,3.8,15.2,9.9C616.5,182.2,595.4,173.2,595.1,165.6z"/>
<path class="st3" d="M628.8,108.3c-0.4,2.1,0.2,3.3,2.7,2.9c2.5-1.2,9.9,0.7,8.8-3.6c-3.1-6.4-5-13.3-8.9-19.3
	C626.4,93.7,629.6,100.9,628.8,108.3z M603.8,113.5c-14.1,6.9-16.1,23.6-14.2,37.4c0.1,4.6,0,4.6,4.5,2c15.4-6.7,32.9,5.1,47.5-5.8
	c5.9-0.9-6.8-20.8-7.9-24.8C627.9,111.8,614.3,108.9,603.8,113.5z M580.7,110.8h0.6C575,95.6,564,80.3,544.9,88.3
	c-15.7,7-24.4,23.7-32.7,37.4C534.9,120.6,557.5,114.3,580.7,110.8L580.7,110.8z"/>
<path class="st4" d="M612.3,188.7c6.2,0.7,10.5,2.5,13.8-5.4c-17.7,1.1-33.1-1.4-38.2-21.1c-1.2-7.6-4-15.1-1.7-23.2
	c0.2-0.6-0.8-1.7-1.3-2.5c-2.5,2-2.6,4.7-4.3,7.8c-5.5,12-13.2,22-27,23.9C572.3,185.6,586.6,191.5,612.3,188.7z M552.7,171.6
	c-2.8-2.8-5.7-2.6-9.3-1.9c-3.2,0.6-1.8,1-1.3,2.8c4.3,18.5,7.7,47,33.2,44.9c11.3-3.8,20.8-14.2,25.9-24.6c-3-0.6-4.6,0.5-6,3.2
	C583.7,213,562.4,178.7,552.7,171.6z"/>
<path class="st5" d="M639,113.6c-0.7,1.6-5.4,6.2-1.5,6.2C638.3,117.9,641,116.7,639,113.6z M549.9,121c-1.1,0.7-2.2,1.5-3.2,2.5
	c-10,10.8-12.7,8-24.8,4.2C528.5,138.2,548.8,133.3,549.9,121z"/>
<path class="st6" d="M639.8,127.3c1.9,0,3.8-0.3,5.5-1c-0.2-3.2-0.4-6.3-0.8-9.4c-0.2-0.8-1.5-1.6-2.3-2.4
	C640,118.4,639.1,122.9,639.8,127.3z M511.4,129.6c5.9,4.5,10.8,9.9,19.2,11.8c20.5,5.9,42.1-6.6,48.4-26.7
	c-6.2-0.7-12.1,2.1-18.1,3c-4.6,0.9-9,1.9-9.5,7.8c-6.2,11.5-22,15.5-31.9,4.7C516.9,127.4,514.3,128.1,511.4,129.6z"/>
<path class="st7" d="M462.5,422.1c-8.4-8.5-18.3,1.5-14.2,11.3C456.2,444.1,470.7,431.4,462.5,422.1z M452.9,424.9
	c4-5.7,11.3,2.7,6,8.1C452.7,436.8,450.4,429.2,452.9,424.9L452.9,424.9z"/>
<path class="st8" d="M493,569.2c-9.1,8.4-28,14.7-36.8,21.3c-6.2,2.8-4.3,5.9-0.4,9.6c7.9,1.2,16.1-9.3,23.3-12.8
	C486.8,584.5,490.6,577.1,493,569.2z M460,344.7c-2.1-2.7-4.4-5.3-6.9-7.6c-3.8,6.6,2,6.2,6.9,8.6
	C460.1,345.2,460.2,344.9,460,344.7z M460.5,366.8c-4.1-4.8-12.3-5.7-17.9-9.4c-0.2,0-0.5-0.1-0.7-0.1c2.9,2.8,1.2,9.1,6.9,8.8
	c2.5,0.6,8.3,2.1,11.2,4.6C460.1,369.5,460.3,368.1,460.5,366.8z M445,399.7c-6.2,2.4-7,6.9-7.3,13.2c2.6,3.6,21.9-11.7,26.8-13.5
	c3.1-0.9,0-9.5-1.4-10.9C457.2,392.5,451.3,396.7,445,399.7z M440.1,447.2c-4.8,1.6-6.2,5.1-6.5,9.4c0,2.1-0.1,4.3-0.3,6.4
	c9.4-9.5,26.4-14.9,37.5-21.9c6.4-2.3,3.5-7.9,2-13C465.4,443.5,453.1,437.5,440.1,447.2z M431.4,553.8c-6.2,3.3-0.9,16.4,5.7,9
	c17.5-12,35.9-22.8,53.6-34.4c3.8-2.3,1.8-6.7,0.4-10.9C474.1,531,448.5,542.1,431.4,553.8z M434.6,498.9c-3.8,1.2-5.2,8.4-5.7,16.6
	c5.8-5.9,17.3-9.5,23.1-14.2c8.9-5.5,17.4-10.8,25.9-16.1c0.7-1,3.5-2.1,5.9-2.8c-0.8-4-1.5-8.1-2.3-12.1
	C468.3,481.3,449.7,490.2,434.6,498.9z"/>
<path class="st9" d="M511.1,516c-2.1-2.7-9.4,0.3-12.8,0.3c-1.1,0.3-2.7,2.5-2.5,2.8c3.2,4.5-0.7,10.8,4.3,15.1
	C516,530.9,511.1,532.2,511.1,516z M460.9,606.8c7.4,7.2,8.6,17.9,14.4,2.1c2.9-6.2,5.9-12.5,8.9-18.8c0.3-0.5-0.1-1.2-0.1-1.8
	c-7.9,3.9-14.7,10-22.4,14.5C459.4,604.2,459.8,605.4,460.9,606.8z M456.6,431.3c0.5-1,1-2,1.4-3c0.2-0.4,0-1.1-0.4-1.9
	c-1-0.1-1.9-0.1-2.9-0.2c-0.1,1.3-0.1,2.5,0.1,3.8C455,430.5,455.9,430.9,456.6,431.3z M491.1,531.7c-16,10.1-31.2,20.2-47.2,31.1
	c-2.1,1.2-4,3-6.2,3.5c-8,0.9,7.8,16.8,9.1,20.5c3.2,5.7,4,3,8.1,0.4c11.3-6.2,26.4-16.3,39-21.4c0.9-3.8,1.6-7.6,2.3-11
	C496.6,552.8,495.7,521.8,491.1,531.7z M448.3,374.1c1.6,2.6,9.6,3.7,10.5,1.3c0.2-0.7,0.4-1.3,0.6-2c-4.2-0.2-10.1-4.2-13.4-5.5
	C446.7,370,447.5,372.1,448.3,374.1z M463,350.9c-12.7-7.1-14.2-10.3-21.2,4.5c0.2,0.2,0.4,0.3,0.6,0.5c7.4-1.2,13,4.4,19.3,7.4
	C462.3,358.8,465.4,355.4,463,350.9z M467.8,403.8c-0.4-1.8-0.9-3-3.5-1.3c-6.1,4.1-12.3,8.3-18.9,11.4c-5.2,2.5-8.3,5.2-8.4,11.1
	c0.2,7.1-2.4,14.7-1.1,21.8c22.4-12.1,3-8,9.1-23.4c4.2-10.7,17.4-10.8,22.3-1c0.9,2,2.7,3.3,4.9,3.5c-0.1-0.3-0.1-0.7-0.1-1
	C470.5,418,469.2,410.8,467.8,403.8z M472.4,443.2c-12.6,7.9-25.7,15-39.2,21.2c-0.9,11.1-2.5,22.3-1.3,33.4
	c6.2-5.4,13.6-9.3,20.5-13.7c8.9-4.3,19.3-12.8,29.2-14.6c-1.6-8.1-3.1-16.4-4.7-24.5C476.4,443.3,476,440.5,472.4,443.2z
	 M442.5,397.4c3.5-3.4,22.8-10.8,19-15.4c-1.4-2.9-2.5-2.3-4.8-1.6c-2.6,0.4-8.5-1.6-10.5,0.4c-1.9,5.9-6,12.2-5.8,18.5
	C441,398.8,441.6,398.3,442.5,397.4z M484.3,484.2c-1.3,1.2-2.6,2.3-4,3.3c-15.6,9.2-34.6,22.7-51.4,30.5
	c-0.4,8.6-0.1,17.8-0.9,22.3c0.2,2.7,0.6,5.5,0.8,8.2c0.1,0.9,0.3,1.8,0.4,2.7c14-8.9,27.9-17.8,42.1-26.5c4.5-2,12.5-8.1,19-10.5
	c-0.1-0.7-0.2-1.4-0.2-2C487.9,502.9,486.1,493.6,484.3,484.2z M423.2,518c-14.9-1.5-30-2.4-44.8-5c-7.4-0.5-4.5,12-6.2,17.6
	c-0.1,0.4-0.3,0.8-0.5,1.1c16.4,4,33.8,3.2,50.7,4.9c0.6,0,2-0.8,2-1.3C423.9,530.6,426.4,521,423.2,518z M349.4,508.8
	c-16.4-1.2-32.3-5.7-48.4-9c-5.7-0.1-20-9.2-22.6-1.9c2.5,4-7.1,12.8-0.5,14.2c22.2,5.5,44.5,11,66.6,16.3c1.9,0.4,5.1,1.9,5.1-3
	C348.2,521.3,355.8,508.5,349.4,508.8z M254.6,503.4c0.4-4.4,6.9-13.8,0.8-15.9c-9.9-3.2-20.6-5-29.7-9.7c0-0.3,0-0.5,0.1-0.8
	c-0.1,0.4-0.5,0.7-0.9,0.8c-0.6,4.2-9.8,14.9-3.1,16.4c10.3,2.2,20.1,6.3,30,9.8C252.8,504.3,254.5,503.9,254.6,503.4z"/>
<path class="st10" d="M502.2,537.5c-4.9,0.2-3,6.4-2.4,9.8c3.3,17.8-14.9,45.2-21,63c-3,8-5.7,10.9-8.3,10.9
	c-3.8,0-7.6-6.4-12.9-12.6l-1.1-1.3c-10.3-14.6-20.6-29.2-30.2-44.2c-2-5.6-0.4-12.2-1-18.1c-0.1-2.8-1.1-4.3-4.5-4.4
	c-10.3-0.3-20.6-0.7-30.8-1.6c-48.9-4.7-97.1-17-143.7-32.4c-8.9-2.4-2.6,28-29.3,42.3c-1.9,1.1-2.8,2.4-2,4.9
	c4.9,14.5,9,29.2,14.6,43.3c3.3,10.5,12.7,19.5,15.1,29.9c-0.4-0.1-0.8-0.4-1.3-0.6c-1.1-0.2-2.1-0.3-3.2-0.6
	c6.4,14.4,19.4,32.1,16.6,47.9c-0.8-0.6-1.8-1.1-2-1.8c-0.5-2-1-3.9-1.5-5.8c-0.6,6,1.1,11.6,2.1,17c1.8,13.7,10.3,31.4,1.1,43.6
	c-1.7-2-0.6-4.4-0.2-6.6c1.1-5,1.1-10.1,0.2-15.1c-0.8,7.9-3.5,16.6-4.3,22.4c-0.6,15-4,30.2-12.2,42.8c-1,5.6-1.7,11.2-2.6,16.7
	c32.1,8.9,67,2.2,98.6-5.2c16.7-2.3,35.8-8.9,51.8-3.1c-12,1.2-24.1,0.3-36.2,3.7c-32.4,5.7-84.1,22.8-114.4,5.3
	c-1.2,6.7-2.8,13.2-5.9,19.3l0.5-0.7c5.7-1.7,12.1,3.8,18.4,4c1.6,0.4,3.2,0.6,4.9,0.7c2,0.3,4,0.5,6,0.4c3.2-0.2,6.6,0.2,9.6-0.9
	c0.8,0,1.6-0.1,2.3-0.3c28.1-2.1,54.7-11.5,82.1-17.6c7.9-3.3,24.4,0.8,28.9-6.2c1.6-2.2,3.3-4.5,5-6.9v-0.1
	c22.1-31.7,43.7-80,16.9-113.1c-22.3-25.8-55.6-37.6-81.4-58.3c8.6,0.6,15.4,7.6,23,11.3c18.9,10.9,37,22.9,53.6,37.1
	c1.9,1.4,3.6,2.9,5.2,4.5c2.7,2.7,5.1,5.6,7.1,8.8c15.1,24,7.2,58.1-4.3,83c-1.2,2.8-2.3,4.5,2.5,4.7c9.2,0.5,18.4,2.7,27.6,3
	c23,1.4,44.3-9.8,67.1-9.8c1.5,0.1,3.5-1.2,4.6-2.5c6.7-8.4,13.7-16.6,19.8-25.6c19.4-31.2,52.4-73.6,26-109.5
	c-4.4-7.8-16.9-19.7-20.2-29c-0.8,1.6-2.1,3-1.8,4.8c0,0-0.8,0.3-1.1,0.2c-2.8-4.7,0.4-11.5-0.1-17c-0.8-8.8,4.7-20.8-4.7-26.1
	C520.3,539.6,513,534.6,502.2,537.5z M360.3,741.8c15.4-13.6,29-29.4,43.7-43.4c-8.7,19-58,64.2-78,70.9
	C336.4,759.2,349.6,751.8,360.3,741.8z M310.4,574c-13.2-10.5-28-18.2-40.1-29.6c23.4,9.6,43.2,28.6,63.4,44
	c13.5,13.4,32.2,23.9,41.6,40.5C353.5,610.9,333.1,591.4,310.4,574z M421.8,659.2c0.1-2-0.3-4.2,0.4-5.9c4.6-10.5,6-21.8,8-32.9
	c2.6-10.2,1.6-21.8,6.2-31.4c2.6,3.9,0.4,9.3,0.4,13.7c-1.6,14.9-5,29.5-8.5,44.2c16.5-3.8,18.3-22.9,25.8-35.1
	c0.6,0.7,1.2,1.5,1.6,2.4C446.2,653.1,436.5,638.5,421.8,659.2L421.8,659.2z M428.8,670.3c8.2-7.6,17.8-12.7,26.6-19.5
	c9.6-7.6,17.8-16.1,25.7-24.9s15.6-17.8,24-26.3C498,619.3,449.9,666.3,428.8,670.3L428.8,670.3z M523.6,600.6c0.6-0.4,1.3-0.8,2-1
	c-2.6,11.3-19.6,20.1-27.4,28.9c-1.1,1.6-3,1.4-4.8,1.8c4.8-9.3,15.2-14.4,22.4-22.1C518.6,605.6,521.1,603,523.6,600.6L523.6,600.6
	z M466.7,773.3c13.5-4.2,29.3-6.4,41.8-12.5c-0.1-5.2-1.1-9.6-7.6-7.6c-27.7,6.2-56.7,15.5-85.2,8.1c-12.7-6.2-11,2-16.8,10.5
	c1.9,0.6,2.8,1.3,4.8,1.7C424.6,777,446,778.2,466.7,773.3z M353.5,526.9c-1.1,4.2,2.8,4,5.5,4c9.3,1.4,9.3,1.4,9.3-8.6
	c1.9-10.4,3.7-11.7-8.2-12.5C353,511.5,355.7,521.5,353.5,526.9z M273.3,491.6c-12.1-3.7-9.7-3.5-13.2,6.6c-4,9.4-0.7,10.3,7.9,12.4
	c5.5,3,4.5-11.1,6.7-14.7C275.7,493.9,277.2,492.7,273.3,491.6z M212.7,536.7c-0.5,0.7-2.6-2.3-2,0.6c1.1,3.2,1.1,8.6,3.8,10.5
	c9.8-4.5,29.5-34.4,22.7-43.8c-20.2-5.5-22.2-15.1-20.8,11.3c0.6,7.4-6.8-0.2-4.8,4.5c2.9,5.7,6,11.5,8.7,17.1
	C219.9,541.9,214.8,540,212.7,536.7z"/>
<path class="st11" d="M812.7,208.4c0.8,3.8-1,9-0.8,12.2c-0.6,15.1,0.7,31.4,6.1,45.6c5.7-9,9.1-18.9,11.8-29.1
	C836.5,216.4,828.2,221.3,812.7,208.4z M793.6,187.1c0.8,0.3,1.5,0.5,2.3,0.6c0.1-0.9,0.1-1.8,0.1-2.7c-0.1-1.2-0.2-2.3-0.3-3.6
	c11.2,22.1,34,33.8,53,48.1c-2.9-19.7-12.4-39.3-23.6-55.9c-8.4-11.4-23.8-7.7-34.4-0.4C786.2,178,787.3,184.1,793.6,187.1z
	 M847.5,111.3c-41,8.5-80.8,33.5-100.2,71.3c15.3,1.6,34.3-5,40.7-20c14.7-22.3,43.3-44.5,69.7-51.4
	C854.2,109,850.7,110.6,847.5,111.3z M746.5,222.9c6.9-2.8,13.5-6.2,20.3-9.3c9.9-5.1,21.3-7.6,30.2-14.3c-4.2-3.7-11.3-2-16.7-3.2
	c-17.4-3.1-46-5.5-44.5,20C738,222.1,740,226.1,746.5,222.9z M644.7,131.6c-1.8,5,1.5,10.3,2.7,15.3c2.2-4.2-0.1-10,0.1-14.7
	C647.4,131.7,645.9,131.5,644.7,131.6z M616.1,60.5c-13.7-18.1-14.8,3.7-19.2,14.7c-3.3,16.2-31.3-24.8-51.3-15.8
	c-41,11-56.6,67.8-83.6,97.4c-2.8,3.2-3,11.5-1.1,16c7.9-20.9,43-43.2,55.2-62c9.4-13.2,22.7-30,40.4-28.7c14.9,3,33,16.4,31.2,33.2
	c-0.2,2-0.6,4-1.1,5.9c0,0.1,0,0.1-0.1,0.1c-4,13.2-16.6,22.3-28.7,28.1c-27.2,13.7-59.1,20.2-79.7,44.3c-7.2,7.9-0.8,18.9,1.5,27.7
	c0.8-3,1-6.1,2.2-8.9c4.8,6.7,9,24.2,18.4,25.9c-1.6-6.9-9.7-12.4-8.6-19.9c2.6,1.5,3.5,4.2,5,6.6c5.1,8.9,13.4,14.5,22,19.5
	c3.8,1.6,8.1,5.7,12.2,3.9c-2-3.3-6.8-3.3-8.1-7c10.3,3.2,22.2,8.6,32.6,3.3c-3.8-2.4-8.6,0.1-12.1-2.4c22.7-0.1,36.8-8.4,54.4-22
	c19.5-14.8,47-31.6,47.8-58.6c-4.1,5.7-6.4,12.5-12.4,16.9c-4.5,5.2-7.3,16-15.5,14.2c-4.7-0.4-11.3-2.6-14.2,2.3
	c-11.3,23.9-40.1,39.3-55.3,10c-5.5-9.6-6.9-20.7-9.1-31.4c-0.1-4.2-4.5-1.4-7.4-1.9c5.6-6.5,15.4-5.1,23.1-7.6
	c14.7-1.5,18.6-17,26.6-27c3.6-4.5,7.4-8.9,9.1-14.6c0-0.1,0-0.1,0.1-0.1c3.4-11.2,17.7-16.5,27.6-14.2c3.1,0.7,3.4,0.1,3.5-2.7
	c0.3-5.9,1.3-11.7,4.7-16.8c7.5-10.8-4.8-19-14.6-20.1C613.2,65.1,621.2,64.8,616.1,60.5z M521.9,87.6c-3.7,4.2-7.2,8.2-10.8,12
	c-1.4,1.5-3,2.8-4.5,4.1c3.8-20,37.6-51.5,57.6-37.4C547.7,68.3,533.9,76.2,521.9,87.6z M498.1,783.3c-9.4,1.1-17.2,8-27.1,5.7
	c-3.7,0.7-24.3,17.1-20.8,5.7c-4.7,1.1-7.4,5.8-11.7,7.9c16.3,5.2,33.8,6.5,50.8,9.2c6.1,0.2,12.7,3,18.4,0.5
	c-7.6-7.1-17.4-11.8-25.1-18.9c8.6-0.4,21.3,10.7,27.4,17c4.7,4.3,11.8,1.3,17.4,1.6c14.6-1-7.4-19-9.3-23.9
	c4.7,0.3,7.2,5.5,11.3,8.4c2,4,4,7.9,6.1,11.7c0.6,0.9,1.4,1.6,2.3,2.2c2.9-2.4,2.3-6.6,2.5-10C539.5,777.9,513.2,785,498.1,783.3z
	 M370.5,816.7c-1.6-2.6-3.1-1.6-4.8-0.8c-11,4.7-21.1,11.2-30,19.1c-3.7,3.7-4.7-0.8-6.2-3.6c-0.5,0.8-1,1.5-1.5,2.3
	c-1.3,2-3.1,3.7-5.2,4.9c29.4,4.9,61.3,8.6,90.4,2.8c-16.6-8.5-36.7-8.5-53.9-15.1c5-2.9,11.9,0.6,17.5,1.2
	c11.4,2.8,22.9,5.6,33.9,9.6c8.6,4.4,15.3,3.1,23.7-1.1c-10.3-10.8-25.8-15.4-36.8-25.4c14.5,2.5,27.2,12.7,38.3,22.2
	c1.5,1.3,1.8,1.1,2.6-0.6c4.2-15.8-18.1-23.7-29-29.8c-1.4-0.8-3.8,0.1-5.7,0.5C392.8,803.5,375.9,819.2,370.5,816.7z M216.8,786.8
	c-2.7,0.8-37.8,8.6-30,0.6c2.4-1.4,0.3-2.1-0.5-2.5c-3.3-0.8-7.4-3.8-10.6-2.8c-1.7,18.6-8.6,36-12.9,54c2.6-0.5,3.3-1.5,5.9-3
	c6-5.7,11.3-12.2,15.6-19.3c3.7-5.5,3.1-13.4,8.9-17.5c0.1,12-6.4,23.4-9.5,34.9c-4.6,18-19.3,13.2-33.4,15.4
	c4.3,9.8,16.5,9.8,24.9,8.2c28.6-5,36-36.8,43.8-60.1c4.2,11.2-7.6,25.4-9.5,36.7c14-14.7,23.8-35.8,26.3-56.1
	C229.3,778.7,223.5,785.6,216.8,786.8z"/>
<path class="st12" d="M618.1,362.6c2.3-6.1-25.5-21.2-30.4-28.6c-9-9-17.5-18.5-25.9-28c-0.7-0.9-1.4-1.6-2.1-2.5
	c-7.7-8.8-15.3-17.6-23.2-26.3c-1.3,2.1-3.7,3.6-4.1,6.1c-10.3,31.9-28.6,60.8-49.1,87c-9,10.5-9.9-11.8-15.9-14.9
	c-2.4,6.7-5.2,16.7-3.8,23.3c11,27.8,14.5,57.7,20.7,87c3.4,10.5,4.9,41.4,11.8,47c17.8-0.1,33.9-10.6,41.2-26.8
	c8.1-15.1-30.1-18.9-27-31.5c-4-2.5-10.1-1.4-14.7-2.7c-6.7-0.2-4.3-7.5-4-12.1c1-11.9,1.4-23.9,3.4-35.8c1.8-8.1,13.2-2.5,19-2.7
	c9.3,2.6,5.3-26.3,11.3-30.2c1.3,11.2-2.1,21.7-4.2,33.1c-0.1,1.1-0.1,2.2,0,3.3c0.1,1,0.3,1.9,0.6,2.8c18.5-27.5,30.7-59.5,31.2-93
	c0.2-3.2-0.8-6.6,1.8-9.1c3.4,26.3-3.9,54.5-14.9,78.6c-4,8.1-7.4,16.8-14.7,22.8c-2.7,2.1-4.6,5-5.5,8.3c0.6,7.5-4.7,19.3-1.1,25.3
	c10.4,9.8,21.5,18.9,32.4,28.3c1,0.7,2.3,0.9,3.5,0.6C592,448,608.6,404.4,618.1,362.6z M547.3,397.2c-4.1,4.1-7.9,8.1-12,11.9
	c-0.3,0.4-1.7,0-2.6-0.1c7.2-7.6,13.2-17.2,21.6-23.3C554.2,390.3,549.5,393.2,547.3,397.2z M516.8,405.3
	c-4.7,0.2-15.6-3.5-18.5-0.4c-1.4,12.9-2.7,25.9-4.2,38.7c-1.5,8.1,11.1,4.2,16.7,5.7c2.7-14,5.3-28,6.9-42.1
	C517.7,406.5,517.1,405.3,516.8,405.3z M324.8,257.6c28.9,39.9,58.7,79.2,86.1,120.2c2.1,9.4,37.2-39.5,40.4-43.8
	c1.1-1.6,2.2-2.5,3.2-2.5s2,0.8,3,2.4c7,11.3,15.7,21.7,20.6,34.3c0.6,1.6,1.3,2.8,2.8,0.7c17.8-26.1,38.2-54,47.2-83.8
	c-20.6,19.3-44.5,38.9-73.7,41.2c-61-15.3-120.5-59.5-137.3-122.1c-1.9,2.3-3.3,4-5.5,6.6c-3.1,3.8-14.9,8.4-12.3,13.7
	C307.7,235.6,316.4,246.4,324.8,257.6z M183.3,327c37,25.4,59.8,69,68.3,112.3c13.6-12,28.3-22.9,42.3-34.5c4.1-2.6,7.8-6.9,12.5-8
	l1.1-0.2c0.3-0.1,0.7-0.1,1.1-0.1c-8.3,11-23.1,15.9-31.8,26.3c14.6-0.4,29.5-8.8,44.1-8.9c-13.9,9.1-31.6,9.1-47.4,12.6
	c-16.9,12.2-33.3,26.6-45.1,44c-1.1,1.6-1.7,4,1.9,5c17.5,4.7,34.8,10.4,52.4,15.4c41.4,10,83.1,17.6,125.5,21.3
	c10.7,0.2,19.8,6.9,18.8-9.4c3.2-34.3,4.1-68.8,9-102.8c2.5-23.5,15.5-16.5,2.1-42.9c-7.6,7.9-14.3,16.7-21.7,24.7
	c-2.9,3.2-4.9,2.9-7.3-0.6c-36.7-51.6-73.8-103-111.5-154c-1.3-1.7-2.8-2.7-5-0.9c-6.2,5-12.5,10-18.9,14.9
	c-24.1,18.7-48.9,36.7-73.6,54.6c-9.8,7.1-19.8,13.8-30,20.3c-7.1,4.2-12,11.1-8.5,19.3C169.7,329.9,172.1,318.2,183.3,327z
	 M299,268.5c20,34.1,23.8,80.6,5.7,116c11.8-45.5,12.2-97.5-23-133.2C287,253,295.1,263.8,299,268.5z M289.1,350.5
	c1.5,3.2-0.1,6.9-1,10.1c-7.6,17.6-11.9,37.1-23.4,52.8C273,392.6,279,370.1,289.1,350.5L289.1,350.5z M264.2,413.4
	c0.1,0.2-0.1,0.5-0.2,0.7C264,413.8,264.1,413.6,264.2,413.4L264.2,413.4z"/>
<path class="st13" d="M784.4,174.9c-8.1,5.8-17.3,10-27.1,12.1c-2,0.6-4.3,0.1-6.5,0.1c-3.8,0.1-10.5,3.8-9.8,8
	c7.1-4.5,15.1-5.5,23.3-4c7.2,1.7,34.7-0.4,35.3,8.4c0.7,7.3-35.4,18.5-42.8,23.3c-16.8,8.1-25.7,6.9-24.5-14.3
	c-8,12.5-12.4,27.8-19.4,41c-3.1,6.4-4,14.1-9.4,19.5c-1.6,1.8-1.1,4.8-0.8,7.1c7-6.4,14.7-15.6,24.8-15.1
	c-3.3,6.4-9.1,11.7-12,18.1c2.5,1.4,4.2-2.2,6.4-2.3c3.7,0.1,7.7-0.4,11.6-0.6c0.3-0.2,0.6-0.3,0.7-0.1c3-0.2,6.1,0.2,9,1
	c-2.7,2.1-6.2,3.1-9.6,2.5h-0.1c-0.5,1.8-1,3.9-0.7,3.8c10.4-3.9,18.4,4.3,28.5,4.6c10.4,0.7,25.6,2.2,30.5-10.3
	c4.1,4-0.8,9.9-0.8,14.7c9.6-2.1,9.3-49.6,15.9-61.2c-0.1-6.9,1.9-20.6,4.3-24.1c-3.9-3.5-7.5-7.5-10.8-11.7c-1.8-2.1-3.2-4-6.4-4.4
	C787.7,190.4,781.9,181.2,784.4,174.9z M767.6,254.9c-2.7,5.2-5.4,9.9-8.3,14.6c-0.5,0.8-1.6,1.2-2.5,1.8c2.3-8.8,8.2-16.5,8.8-26.1
	c2.5-6.9-0.6-14.7,1.2-21.3C772.5,232.6,770.2,244.8,767.6,254.9L767.6,254.9z M782.5,296.3c1.7-3.6,5.9-5.5,7-9.3
	c-0.7,0-1.7-0.3-2.1,0.1c-15.1,11.5-33.6,0.1-50.1,4.1c1.3-3.1,5.8-2.7,8.1-5c-6.9-2.4-17.6,2.4-25.2,3.1c1.7-3.5,4.6-6.1,8.2-7.5
	c1-0.9,1.8-1.9,2.5-3c-8.2-1.6-13.3,5.4-20.4,7.7c0.6-7.4,6.9-13.2,9.2-20.2c-7.9,3.4-12,12.7-19.3,17.1c-1.8-2.7,0.2-6.2-1.3-9
	c-7.2,22.9-14.2,46.7-27.4,67.4c-10,14.8-18.8,33.1-35.5,41c0.4-1,0.5-2.2,1.1-3c1.6-2.3,3.5-4.5,5.2-6.9c-6.2-2.3-11.6-6-17.3-9.2
	c-1.8-0.9-3.2-2.7-4.2,1.7c-5.6,27.3-14.9,54.7-31.7,77.5c-7.4,9.1-14.9,18.4-24,25.9c-1.3,1.1-1.3,1.5,0.4,2.6
	c15.4,10.8,31.5,20.6,48.3,29.3c26.4,13.2,52.3,28,80.2,38.1c13.5,5.8,28.8,3.3,43,1.4c-2.3-2.5-6.8-1.1-9.8-2.6
	c3.2-6.7,11.9-8.9,15.4-15.3c-1,0.1-1.9,0.3-2.8,0.5c-1.6,0.4-3.3,1.1-5.1,1.6c-0.4-8.5,4.6-15.2,7.4-22.7
	c4.5-13,9.3-26.1,13.6-39.3c15.2-54.9,29.3-111.1,36.5-167.5C789.2,295.5,785.8,298.5,782.5,296.3z M640.8,484.6
	c-0.9-4.8-3.8-9.1-2.3-14.2c0.4-0.8,0.8-1.6,1.3-2.3C641.2,469.8,644.3,484.7,640.8,484.6z M652.6,479c0.8,0.7,2,1.2,2.3,2
	c1.2,4,2.3,8,3.3,12.2C655,489.4,650.6,484.3,652.6,479z M658.2,493.6c0.2,0.1,0.3,0.3,0.2,0.6C658.2,494.2,658.2,493.8,658.2,493.6
	L658.2,493.6z M664.3,489.3c4.7,4.8,8.1,10.3,12.5,15.6c1,1.6,1.8,3,2.5,4.5C671.7,506,665.3,497.5,664.3,489.3L664.3,489.3z
	 M465.9,776.8c-14.9,3-29.8,5.5-44.9,3c-8.2-0.1-16.9-5.2-24.8-3.5c-1.3,1.8-4.8,5-2.6,7.2c12.3,7.7,26.1,12.6,39.7,17.6
	c5.1,1.8,3.9-0.1,7-3.5c4.3-5.7,11.7-6.2,17.1-10.1c1.1-0.8,2.7-0.9,4-1.3c-1.4,2.6-3.8,4.4-5.3,6.9c8.3-4.4,16.3-9,25.7-11
	c1.1,3.7,2.9,1.1,4.5,0.6c14.5-6.2,29-2.5,43.8-2c-6-5.2-13.1-9.3-19.5-13.8c-1-0.7-2.2-1-3.4-0.8
	C493,769.6,480.4,773.5,465.9,776.8z M454.2,322.5c47.1-5,78.3-47.8,110-78.8c-1.3,0.3-2.9,0-3.5,0.8c-6,6.6-13.9,5.9-21.4,5.4
	c-3.4-0.3-6.2-1.2-8.4,2.1c-0.3,0.6-1.9,0.7-2.5,0.5c-9.1-2.9-17.3-6.9-24.1-13.8c-0.2-0.2-1.6,0.3-1.9,0.8
	c-5.9,8.5-12.8-8-17.2-11.3c-3.2-4.3-9.4-4.7-10.2-10.7c-9.3-22.8,0.4-26.7,16.6-40.6c22.5-21.2,98.6-27.9,91.4-66.3
	c-2.7,35.6-52.5,49-73.6,20.5c-5.2-0.9,1.7-3.8,1.8-6.2c-2.1-0.7-3.1,0.3-4.2,1.8c-14.8,14.2-31.2,32.9-45.3,47.9
	c0,0.8-0.6,2.1-0.8,3.1c-5.2-1.6-2.8-9.1-5-13.2c-12.2,10.7-27.8,26.1-45.1,24.9c21.2-8.6,42-21.8,54.5-42.2
	c28.6-41.2,63.4-127.9,123.1-74.3c5,3.5,5,3.5,6.3-2.6c2.7-11.9,10.5-30.7,21.8-13.1c-3.7-20.3-15.4-22.8-33.8-21
	c0.4-1,0.9-1.9,1.4-2.8c0.9-1.7,2-3.4,2.8-5.1c-4.6,3-9.6,7.2-11-0.9c-0.6,0.7-1.2,1.4-1.7,2.2c-0.6,1.1-1.1,2.3-1.7,3.5
	c-1.7-5-1.8-7.5-6.2-11.3c-0.1,1.7-0.1,3.5-0.2,5.2c0.1,0.7-0.1,1.4-0.4,2c-3.8-2.1-7.5-4.4-11.3-6.4c-0.8-0.4-1.8,0-2.7,0
	c1.3,2.8,5,3.7,6.3,6.5c-10.8,2.8-22.9-0.4-33.4,4.9c-18.6,7.8-32,23.9-47.2,36.8c-24.3,22.4-52.9,41.8-85.3,49.8
	c-6.4,1.4-6.2,1.5-9.6,5c-7.6,2.8-16.6,2.7-24.6,3.5c1.1,2.7,6.6,0.7,6.5,3.7c-9.1,5.9-22,10-27.8,19.3c5.8-1.6,11.5-9.7,18-5.9
	c-6.4,4.7-15.3,4.8-16,15.2C278.8,222.8,396,313,454.2,322.5z M595.1,57c1.6-5.4,5-8.9,9.3-11.7c0.8-0.5,2-0.1,3-0.1
	c-4.5,4.2-7.3,10.8-12.8,13.4C594.7,58.1,594.8,57.5,595.1,57z M590.1,60.4c-4.5-3.3-8-7.7-10.3-12.8
	C582.4,47.5,590.8,57.8,590.1,60.4L590.1,60.4z M579.8,47.2c-0.2,0.1-0.5-0.1-0.7-0.2C579.3,47,579.6,47.1,579.8,47.2z M586.9,65.2
	c-4.8-3.6-9.3-7.5-14.1-11.2c-2.5-2-6.3-1.8-7.7-5C572.4,47.2,585.3,57.6,586.9,65.2L586.9,65.2z M484.4,86.8
	C500,66,520.7,45.6,547.9,44.5c-6.1,5.2-15.3,5.6-22.3,9.4c-28.9,11.6-39.9,43.6-60.1,64.3C469.2,106.7,478.5,97.5,484.4,86.8z
	 M453.1,142.5c7.4-8.1,14.3-16.8,21.2-25.3c4-4.2,5.7-10.6,11-13.3c-8.7,20.4-35.1,48.2-54.1,60.4
	C436.9,155.5,446.3,150.2,453.1,142.5z M367.6,257.2c0.6,1.5,0,3.3,0,5c-10.6-18.1-9-41.6-3.5-61.2c1-1.9,0.7-6.9,3.8-4.3
	C364.2,216.9,359.6,237.5,367.6,257.2z M384.3,197.7c-4.2,13.5-5.2,27.8-3,41.7c0.2,2.7,0.4,5,0.4,7.3c0,0.5-0.7,1-1.1,1.5
	c-7.3-19-3.9-52.1,8.3-67.6C389.3,186.4,385.8,192,384.3,197.7L384.3,197.7z M389.6,237.3c0.5-3.5-1.4-17.9,2.9-17.5
	c0.9,10.5,1.1,21,2,31.6c0.2,10,6,18.9,7,28.7C393.8,267.8,390.6,251.8,389.6,237.3L389.6,237.3z M376.2,146.9
	c6.8-5.4,11.3-14.6,19.5-16.9c-2.2,5-7.6,7.4-10.9,11.5c-6.8,7.6-13.7,15.2-17.6,24.8c-0.5,1.1-1.9,1.8-2.8,2.7
	C364.2,160.4,371.1,153.6,376.2,146.9L376.2,146.9z M348.7,157.3c-5.5,11.8-14,21.9-19.5,33.9C327.3,183.9,341.6,159.4,348.7,157.3z
	 M336.1,199.1c5.2-17.4,12-36.8,26.1-48.7c-10,16.7-18.3,34.8-25.6,52.4C335.9,201.5,335.1,200.7,336.1,199.1z M350.4,220.5
	c2.5-16.4,9.1-30.7,17.8-44.8c2.7-3.4,5.3-6.4,8.1-9.3c0.4-0.5,1.3-0.5,2-0.7c-18.1,29.1-23.9,36.8-26.1,72
	C348.4,234.8,350.3,225.1,350.4,220.5z M231.1,808.4c27.2,15.4,57.5,24.4,88.4,29.7c4-4.8,17.6-17.3,21.6-16.2
	c-1.8,3-4.8,5.2-6.2,8.5c7.2-3.3,12.9-9.6,19.8-13.5c7.7-4.3,16.6-6.2,23.8-11.5c-0.2,2.5-1.8,4-2.8,6.2c8.2-3.8,15.9-8.8,24.2-12.5
	C348,778.4,294.5,832.2,231.1,808.4z M197.1,784.2c2.6,4.9,5.7,0.7,8.4,0.3c3-0.4,5.7-2.3,8.6-2.7c36.9-6.5,34.8-53.4,35.5-81.4
	c0.4,0.2,2.8-4.2,4.1-6.6c-1.1-4.1-2.4-8.3-3.2-12.6c-2-10.1-4.7-20-8.1-29.7c-0.6-1.5-1.6-3-0.5-4.5c2.3,2.3,5.2,4.8,7.9,7.4
	c-0.7-2-1.4-4-2.3-5.9c-3.3-8.3-9.1-15.4-11.1-24.5c-0.4-2-2.5-3.5-3.9-5.5c2.4-0.1,2.7-1.2,1.6-3c-8.4-14.2-13.3-30-18.4-45.4
	c-4-15.6-11.3-31.9-10.3-48c4,3.7,3.9,11.7,9.6,12.9c-0.1-0.8-0.1-2-0.6-2.7c-5.4-6.6-6.4-14.9-8.1-22.9c-0.2-3-2.1-6.7,0.9-9.1
	c2.5,4.2,1.2,10.2,5,13.6c-1.8-26.5,14.1-50.6,32.5-68.3c2.5-2.4,3.7-4.4,2.5-8.1c-2.7-8.5-4-17.4-7.2-25.6
	c-10-25.1-22.7-49.9-42.6-68.8c-5.7-4.7-17-17.4-24.8-13.7c-11.6,13.7-24.9,25.5-38.2,37.3C110.3,388.2,86.2,410,62,431.6
	c-14.6,11.8-27,26.8-45.6,31.8c4,1.4,8.6,0,12.8,0.9c-5.1,4-9.2,9-12.3,14.7c2,5.4,1.6,17.2,4.5,21.6c0.7-1,1.2-2,1.7-3.1
	c0.7-1.6,1.2-3.3,1.8-4.9c5.9,7,6.4,6.6,8.9,15.5c12.1,24.6,29.8,46,45.6,68.4c22.1,31.9,59.7,65.8,57.7,107.2
	c-0.1,1-0.2,2.1-0.1,3.1c1.1-3.4,2.9-6.8,4-7.2c4,3.2-1.1,12.1,4.8,13.7c2.1-0.8,0.6-8,3.8-5.8c16.9,22,19,61.5,26.8,88.4
	C182.1,781.1,189.5,784,197.1,784.2z M216.1,780.2c0,0.3-0.2,0.3-0.5,0.3C215.7,780.4,215.9,780.2,216.1,780.2L216.1,780.2z
	 M59,446.9c3.4-5,34-8.4,14.2-1.1C68.2,446.3,63.4,449.4,59,446.9z M65.2,458.9c-0.4,0.2-1.5-1.3-2.3-2.1c5.1-2.5,9.9-5,14.8-7.3
	c0.9-0.5,2.2-0.2,3.2-0.4C78,454.6,70.2,455.8,65.2,458.9L65.2,458.9z M73.4,430.8c3.3-2.5,7.9-1.7,12-3c3-0.6,5.9-1,8.8-1.3
	c0.6-0.1,1.1,0,1.7,0.1C94,430.8,76.8,433.7,73.4,430.8L73.4,430.8z"/>
<path d="M765.7,245.2c-0.6,9.6-6.5,17.3-8.8,26c0.8-0.6,2-1,2.5-1.8c2.9-4.7,5.6-9.4,8.3-14.6c2.5-10.1,4.9-22.2-0.8-31
	C765,230.5,768.1,238.2,765.7,245.2z M664.2,489.3c1.1,8.2,7.4,16.7,15,20.2c-0.8-1.5-1.6-2.9-2.5-4.5
	C672.3,499.7,668.9,494.1,664.2,489.3z M658.4,494.2c0.1-0.4,0-0.6-0.2-0.6C658.2,493.8,658.2,494.2,658.4,494.2z M654.8,481
	c-0.3-0.8-1.5-1.3-2.3-2c-2,5.3,2.4,10.4,5.6,14.2C657.1,489,656,485,654.8,481z M638.5,470.4c-1.5,5,1.3,9.4,2.3,14.2
	c3.5,0.1,0.3-14.8-1-16.5C639.3,468.8,638.9,469.6,638.5,470.4z M600.2,159.4c-3.8,0.6-5.9,1.6-5.1,6.2c0.3,7.6,21.5,16.6,20.3,3.7
	C613.8,163.2,607,158.7,600.2,159.4z M607.5,45.3c-1.1,0-2.3-0.4-3,0.1c-4.3,2.8-7.8,6.3-9.3,11.7c-0.2,0.5-0.4,1.1-0.4,1.6
	C600.2,56,603,49.5,607.5,45.3z M590,60.4c0.8-2.6-7.7-13-10.3-12.8C582.1,52.7,585.6,57.1,590,60.4z M579.1,47
	c0.2,0.2,0.5,0.4,0.7,0.2C579.6,47.1,579.3,47,579.1,47z M572.8,54c4.7,3.7,9.3,7.6,14.1,11.2c-1.6-7.6-14.4-18-21.8-16.2
	C566.5,52.2,570.3,52,572.8,54z M532.6,409c0.9,0.1,2.3,0.5,2.6,0.1c4.1-3.8,7.9-7.8,12-11.9c2.3-4,6.9-6.9,6.9-11.5
	C545.9,391.8,539.8,401.5,532.6,409z M506.6,103.8c1.5-1.3,3.2-2.6,4.5-4.1c3.6-3.8,7.1-7.9,10.8-12c12-11.4,25.8-19.3,42.3-21.2
	C544.2,52.2,510.5,83.7,506.6,103.8z M493.4,630.4c1.7-0.4,3.7-0.2,4.8-1.8c7.8-8.8,24.8-17.6,27.4-28.9c-0.7,0.2-1.4,0.6-2,1
	c-2.5,2.4-5,5-7.7,7.6C508.5,616,498.2,621.1,493.4,630.4z M525.6,53.9c7-3.8,16.2-4.2,22.3-9.4C520.7,45.6,500,66,484.4,86.8
	c-6,10.7-15.1,19.8-18.9,31.4C485.7,97.5,496.7,65.5,525.6,53.9z M458.9,433c5.3-5.4-2-13.8-6-8.1
	C450.4,429.2,452.7,436.8,458.9,433z M454.8,426.3c1,0.1,1.9,0.1,2.9,0.2c0.4,0.9,0.6,1.5,0.4,1.9c-0.4,1-0.9,2-1.4,3
	c-0.7-0.4-1.6-0.8-1.8-1.3C454.7,428.8,454.7,427.5,454.8,426.3L454.8,426.3z M485.4,103.8c-5.3,2.7-7.1,9.1-11,13.3
	c-6.9,8.6-13.8,17.2-21.2,25.3c-6.8,7.7-16.2,13-21.8,21.7C450.3,152.1,476.7,124.2,485.4,103.8z M481.1,625.8
	c-7.9,8.8-16.1,17.3-25.7,24.9c-8.8,6.8-18.4,12-26.6,19.5c21.2-4,69.2-51,76.3-70.7C496.6,608.1,489,617.1,481.1,625.8z
	 M455.6,614.2c-0.4-0.9-0.9-1.7-1.6-2.4c-7.6,12.2-9.3,31.3-25.8,35.1c3.5-14.7,6.9-29.3,8.5-44.2c0-4.5,2.3-9.8-0.4-13.7
	c-4.5,9.6-3.5,21.2-6.2,31.4c-2,11.1-3.4,22.4-8,32.9c-0.7,1.7-0.3,3.9-0.4,5.9C436.5,638.5,446.2,653.1,455.6,614.2z M392.5,219.8
	c-4.2-0.4-2.4,13.9-2.9,17.5c1.1,14.5,4.2,30.5,11.9,42.8c-1-9.8-6.8-18.6-7-28.7C393.5,240.9,393.3,230.3,392.5,219.8z
	 M380.7,248.1c0.4-0.5,1.1-1,1.1-1.5c0-2.3-0.2-4.6-0.4-7.3c-2.2-14-1.2-28.2,3-41.7c1.5-5.7,5-11.2,4.7-17.1
	C376.8,196,373.4,229.2,380.7,248.1z M367.3,166.4c3.9-9.6,10.8-17.2,17.6-24.8c3.3-4.1,8.7-6.5,10.9-11.5
	c-8.2,2.3-12.8,11.4-19.5,16.9c-5.1,6.7-12,13.5-11.7,22.2C365.4,168.2,366.8,167.4,367.3,166.4z M404,698.3
	c-14.7,14-28.2,29.8-43.7,43.4c-10.6,10-23.9,17.5-34.3,27.5C346,762.6,395.2,717.4,404,698.3z M364.2,201
	c-5.5,19.6-7.1,43.2,3.5,61.2c0-1.7,0.6-3.5,0-5c-8.1-19.8-3.5-40.3,0.4-60.5C364.9,194.1,365.2,199.1,364.2,201z M376.4,166.4
	c-2.8,2.9-5.4,5.9-8.1,9.3c-8.7,14.2-15.4,28.4-17.8,44.8c-0.1,4.5-2,14.2,1.8,17.2c2.2-35.3,8-42.9,26.1-72
	C377.6,165.9,376.8,165.9,376.4,166.4z M336.1,199.1c-1.1,1.6-0.2,2.3,0.5,3.7c7.3-17.6,15.6-35.7,25.6-52.4
	C348.1,162.3,341.3,181.8,336.1,199.1z M333.7,588.4c-20.2-15.4-40.1-34.4-63.4-44c12.2,11.4,26.9,19.1,40.1,29.6
	c22.7,17.3,43.1,36.9,64.9,54.9C365.9,612.3,347.2,601.8,333.7,588.4z M329.2,191.2c5.6-12,14.1-22.2,19.5-33.9
	C341.6,159.4,327.3,183.9,329.2,191.2z M304.7,384.5c18.1-35.4,14.3-81.9-5.7-116c-3.9-4.7-12-15.5-17.3-17.2
	C316.9,287,316.4,339,304.7,384.5z M289.1,350.5c-10.1,19.7-16.1,42.1-24.4,62.9c11.5-15.6,15.9-35.1,23.4-52.8
	C289,357.4,290.6,353.7,289.1,350.5z M264,414c0.1-0.2,0.4-0.5,0.2-0.7C264.1,413.6,264.1,413.8,264,414z M216.1,780.2
	c-0.2,0-0.4,0.1-0.5,0.3C215.9,780.5,216.1,780.5,216.1,780.2z M94.2,426.5c-2.8,0.4-5.7,0.8-8.8,1.3c-4.1,1.4-8.8,0.5-12,3
	c3.4,2.8,20.6-0.1,22.5-4.3C95.4,426.4,94.8,426.4,94.2,426.5z M63,456.8c0.7,0.9,1.8,2.3,2.3,2.1c5-3.2,12.8-4.4,15.8-9.9
	c-1.1,0.2-2.3-0.1-3.2,0.4C72.9,451.8,68.1,454.3,63,456.8z M59,446.9c4.3,2.5,9.1-0.6,14.2-1.1C93,438.5,62.5,442,59,446.9z
	 M859.3,107.9c-38.7,0.7-76.4,22.4-101,51.5c-6.9,7.4-11.2,16.4-14.5,25.8c-21.1,23.2-30.4,54.5-42.2,82.7c-2.6-2.3-1.3-6.1-4-8.1
	c-5.6,39-24.1,76.9-48.4,108.3c-2.9,7.2-28.8-13.4-34.1-16.2c-29.2-20.4-50.1-49.2-74.5-74.6c-1.8-1.8-2.1-3-0.1-4.8
	c10.4-9.8,19.7-20.7,30.7-29.7c49.5-33.3,94-57.4,76.5-126.1c0-1.4,1.5-3.7,3.2-3.8c-10.9-6-12.7-19.3-18.3-29.7
	c-1.7-3.9-2.3-8.3-4.2-12.2c-2.2-4-6.1-6.7-7-11.8c-3-14.4-11-30.2-28-26.6c-2.5,0.3-5.1-0.7-5.3-3.7c-0.1-0.3,0.8-1.1,1-1.1
	c5,0.6,9.8-2.1,14.7,0.5c1.6,0.9,3.6,0.5,5.5,0.7c-6.3-8.6-18.9-7.9-27.2-2.2c-2.3,1.8-3.8,1.1-3.8-1.6c-0.2-5.3-2.5-11.1-7.1-13.7
	c-1.5,4.4,3.8,8.6,1,12.2c-3.9-1.8-3.7-6.9-6.3-9.8c-3.7-4.8-9.1-10.7-15.9-9c4.4,5.8,11,11.3,12.7,18.5c-9.4-4.6-20.8-10-30.9-5.7
	c6,3.6,14.7,2.3,19.5,7.9c-37.1-1.5-54,22.7-79.9,44.8c-29.8,24.6-66.1,52.5-107.1,46.7c2.2,3.6,6.6,3.6,9,6.9
	c-9.7,2.4-20.2-1.6-30.2-0.4c2.9,5.7,11,4.2,14.6,9.1c-15.3,6.1-30.3,17.8-35.7,33.7c5.6-2.1,8.7-13.2,15.6-10.5
	c-10.8,11.5-19.8,24.1-19.8,40.6c-0.3,3.2-1.2,5.3-3.5,7.2c-47.6,40.4-98.8,76.3-149.8,112.3c-6.7,4.7-7.7,8-6.2,16
	c2.1,5.9-1.8,10.1-6.8,13.4c-11.3,10.5-22.7,21.1-34.1,31.6c-18.1,16.9-37,32.8-55.6,49.1c-18,15.4-35.3,38.6-61.7,33.9
	c2.7,4.7,14,7.6,19.5,7.4c-5.3,8.1-10.5,16.1-11.3,25.9c-0.1,4.2-1,10.6,2.4,13.7c2.6-6.4,1.6-14.2,2.5-20.5
	c0.3-0.6,0.5-1.2,0.8-1.8c1.1,5,4.4,10.4,3.2,15.3c-0.6,5.8,4.5,18.1,9.3,21c2-7.4-4.5-16.1-0.4-22.5
	c22.2,52.5,66.1,94.2,95.9,143.2c8.8,15.2,13.5,31.2,11.1,48.8c-0.2,3.2-0.6,6.7,1.6,9.3c1.7-1.6,2.6-3.7,2.6-6c3,0,4.8,0.3,4.7,1.4
	c0.1,5.6-3,11.5-0.4,16.8c4.9-3.3,6.4-10.2,6.3-16.1c-0.1-0.8,1.1-1.7,1.6-2.6c4.2,2.6,3.7,8.4,5.5,12.6
	c5.9,17.2,10.4,34.8,13.4,52.8c1.5,9.1,5.9,17.8,3.1,27.7c-4.2,16.3-7.6,33.1-11.3,49.6c1.8,5.5,9.3-0.4,12.3-2.3
	c4.2-3.1,6.2-8.8,10.8-11.3c0.6,5.7-5.1,9.6-7.1,14.7c-4.8,8-14.5,5.4-22.2,5c-21,3.1,6.9,26,30.4,13.7
	c17.4-9.5,30.7-24.9,41.3-41.3c1.6-2.1,3.2-3.3,6.2-1.6c19.5,11,40.4,19.1,62.2,24.1c32.4,7.4,65.9,11.8,99.3,10.8
	c15.9-1.6,63.6-5.7,45.8-30c-12.7-14.9-33.2-18.5-50.4-26.1c-1.1-0.4-1.6-1.9-2.5-3c2.3-1.5,4.5-3.1,7.1-1.2
	c23.9,11.6,48.4,22.9,75.3,25.1c14.7,0.8,70,10.5,75.3-6c2.5-18.6-13.6-33.6-29-41.3c-5.8-2.8-6-10.3-3-14.2
	c27.3-33.9,70-82.4,54.2-129.1c-7-13.2-18.4-29.9-29.1-40.4c0-0.5-0.2-1-0.4-1.5c-0.6-1.3-0.1-3.2-0.1-4.8
	c7.6-49.2-16.2-23.1-19.6-47.9c1.6-6.4-3.8-14.3,3.3-17.7c10-6.2,26.8-22.3,19.6-33.9c-5.5-5.9-12.2-10.6-19.7-13.6
	c-2.5-1.1-5.7-3.4-6.2-5.5c-0.2-1.9,0-13,3.6-11.2c7.4,7.7,27,31.4,37.5,29.5c5.5-4.8,9.2,0.1,13.5,2.9
	c37.8,23.7,76.7,46,118.5,61.9c20.2,9.2,56.6,11.2,71.1-8c-8.2-0.1-16.1,6-24.1,4.1c9.1-7.9,18.6-16,19.4-29.2
	c-6.2,3.5-8.1,13.5-15.9,13.5c24.5-47.3,34.1-101.4,45.8-153.2c6.3-27.5,10.3-55.5,16-83.1c1.3-13.7,8.2-31.5,9.3-46.5
	c0.9,2.3,1.4,4.7,1.6,7.1c1.7,8-0.8,19.1,7,24.1c10.6-2,16.5-31.9,18.1-41.8c0.1-7.9,14.1,15,16.3,2.4c-0.9-16.7-18.1-63-36.1-66.6
	c-10.5-1.7-18.8,4.4-28,8.1c3.8-10.5,14.1-17.8,21-26.4c12.7-13.7,35-23.1,51.5-32.4C864.2,111.8,866.6,108.9,859.3,107.9z
	 M780.3,196.1c5.4,1.3,12.5-0.4,16.7,3.2c-8.9,6.7-20.3,9.2-30.2,14.3c-6.7,3-13.3,6.5-20.3,9.3c-6.6,3.1-8.5-0.9-10.8-6.8
	C734.3,190.6,762.9,193.1,780.3,196.1L780.3,196.1z M647.5,132.2c-0.1,4.7,2.1,10.5-0.1,14.7c-1.2-5-4.5-10.3-2.7-15.3
	C645.9,131.5,647.4,131.7,647.5,132.2z M638.5,167c-8.1,15.4-29.2,17.7-40.3,7.1c-6.8-7.9-12.1-17,1.5-19.6
	c12.5-3.8,25.8,6.7,37.2-2c2.4-1.4,4.8-3.6,7.3-4.3c0.4,3.8,2.7,7.9-3.3,6.3C633.1,155.2,623.5,175.6,638.5,167L638.5,167z
	 M595.3,195.9c1.3-2.7,2.9-3.8,6-3.2c-5.2,10.4-14.6,20.9-25.9,24.6c-25.5,2.1-28.9-26.4-33.2-44.9c-0.5-1.8-1.9-2.1,1.3-2.8
	c3.6-0.7,6.5-0.9,9.3,1.9C562.4,178.7,583.7,213,595.3,195.9L595.3,195.9z M574,188c3.9,1.3,7.7,2.9,11.5,4.6c0.7,0.4,0.6,2.6,0.8,4
	c-1.1-0.1-2.6,0.1-3.5-0.5c-2.9-2-5.6-4.3-8.3-6.4C574.2,189.2,574,188.6,574,188z M553.7,168.2c13.8-1.9,21.5-12,27-23.9
	c1.7-3,1.8-5.7,4.3-7.8c0.5,0.9,1.4,1.9,1.3,2.5c-2.3,8,0.5,15.5,1.7,23.2c5.2,19.8,20.5,22.2,38.2,21.1c-3.3,7.9-7.6,6.1-13.8,5.4
	C586.6,191.5,572.3,185.6,553.7,168.2L553.7,168.2z M641.5,147c-14.5,10.9-32-0.9-47.5,5.8c-4.5,2.6-4.4,2.6-4.5-2
	c-1.8-13.7,0.1-30.4,14.2-37.4c10.5-4.5,24.1-1.7,29.8,8.8C634.7,126.3,647.5,146.2,641.5,147z M639,113.6c2,3-0.6,4.3-1.5,6.2
	C633.6,119.8,638.3,115.2,639,113.6z M645.1,116.9c0.4,3.1,0.6,6.2,0.8,9.4c-1.8,0.7-3.6,1-5.5,1c-0.7-4.4,0.2-8.9,2.4-12.8
	C643.6,115.2,644.8,116,645.1,116.9L645.1,116.9z M631.3,88.3c3.9,5.9,5.8,12.9,8.9,19.3c1.1,4.3-6.2,2.4-8.8,3.6
	c-2.5,0.3-3.1-0.8-2.7-2.9C629.6,100.9,626.4,93.7,631.3,88.3z M626.2,88.8c-3.4,5.1-4.5,10.9-4.7,16.8c-0.1,2.8-0.4,3.4-3.5,2.7
	c-9.9-2.3-24.2,3-27.6,14.2c-0.1,0.1-0.1,0.1-0.1,0.1c-1.6,5.7-5.5,10-9.1,14.6c-8,10-12,25.5-26.6,27c-7.7,2.6-17.5,1.1-23.1,7.6
	c2.8,0.5,7.2-2.3,7.4,1.9c2.1,10.7,3.6,21.7,9.1,31.4c15.2,29.3,44,14,55.2-9.9c2.8-5,9.5-2.8,14.2-2.3c8.2,1.8,11-9,15.5-14.2
	c6-4.4,8.3-11.2,12.4-16.9c-0.8,26.9-28.2,43.8-47.8,58.6c-17.6,13.5-31.7,21.8-54.4,22c3.5,2.6,8.4,0,12.1,2.4
	c-10.3,5.3-22.3-0.1-32.6-3.3c1.3,3.7,6.2,3.7,8.1,7c-4.2,1.8-8.5-2.3-12.2-3.9c-8.6-5-16.9-10.6-22-19.5c-1.4-2.4-2.3-5.1-5-6.6
	c-1.1,7.5,7,13,8.6,19.9c-9.4-1.7-13.6-19.2-18.4-25.9c-1.2,2.8-1.4,5.9-2.2,8.9c-2.3-8.8-8.7-19.8-1.5-27.7
	c20.5-24,52.5-30.6,79.7-44.3c12-5.8,24.7-14.9,28.7-28.1c0.1-0.1,0.1-0.1,0.1-0.1c0.6-1.9,0.9-3.9,1.1-5.9
	c1.8-16.8-16.3-30.3-31.2-33.3c-17.8-1.3-31.1,15.5-40.4,28.7c-12.2,18.8-47.3,41.1-55.2,62c-1.8-4.5-1.6-12.8,1.1-16
	c27-29.5,42.6-86.4,83.6-97.4c20-9,48,32,51.3,15.8c4.4-10.9,5.5-32.8,19.2-14.7c5.1,4.3-2.9,4.6-4.5,8.1
	C621.4,69.8,633.7,78,626.2,88.8L626.2,88.8z M552,125.4c0.5-5.9,4.9-6.9,9.5-7.8c6-0.8,12-3.7,18.1-3c-6.3,20.1-28,32.6-48.4,26.7
	c-8.4-1.9-13.3-7.4-19.2-11.8c2.9-1.5,5.5-2.2,8.1,0.6C530.1,141,545.9,136.9,552,125.4z M521.9,127.6c12.1,3.8,14.8,6.6,24.8-4.2
	c1-0.9,2.1-1.8,3.2-2.5C548.8,133.3,528.5,138.2,521.9,127.6L521.9,127.6z M512.1,125.6c8.3-13.7,17.1-30.4,32.7-37.4
	c19.1-8,30.1,7.3,36.5,22.6h-0.7C557.5,114.3,534.9,120.7,512.1,125.6L512.1,125.6z M338.4,160.9c0.7-10.4,9.6-10.6,16-15.2
	c-6.5-3.8-12.2,4.2-18,5.9c5.8-9.3,18.6-13.3,27.8-19.3c0.1-3-5.3-1-6.5-3.7c8.1-0.8,17.1-0.7,24.6-3.5c3.4-3.5,3.2-3.6,9.6-5
	c32.4-8,61-27.4,85.2-49.7c15.1-12.8,28.5-29,47.2-36.8c10.5-5.2,22.6-2,33.4-4.9c-1.3-2.8-5-3.7-6.3-6.5c0.8,0,1.9-0.4,2.7,0
	c3.8,2,7.6,4.2,11.3,6.4c0.3-0.6,0.5-1.3,0.4-2c0.1-1.7,0.1-3.5,0.2-5.2c4.4,3.8,4.5,6.3,6.2,11.3c0.6-1.1,1.1-2.3,1.7-3.5
	c0.5-0.8,1.1-1.5,1.7-2.2c1.4,8.1,6.5,4,11,0.9c-0.8,1.7-1.9,3.4-2.8,5.1c-0.5,0.9-1,1.8-1.4,2.8c18.4-1.8,30.1,0.6,33.8,21
	c-11.2-17.6-19,1.1-21.7,13c-1.3,6.1-1.3,6.2-6.3,2.6c-59.6-53.7-94.5,33.1-123.1,74.3c-12.5,20.4-33.3,33.6-54.5,42.2
	c17.3,1.2,32.9-14.2,45.1-24.9c2.3,4.1-0.2,11.6,5,13.2c0.1-1,0.8-2.3,0.8-3.1c14.2-15,30.5-33.8,45.3-47.9c1.1-1.5,2.2-2.6,4.2-1.8
	c-0.1,2.5-7.1,5.4-1.8,6.2c21,28.5,70.9,15.1,73.6-20.5c7.2,38.5-69,45.1-91.4,66.3c-16.3,14-26,17.9-16.6,40.6
	c0.8,6,7,6.4,10.2,10.7c4.4,3.3,11.3,19.8,17.2,11.3c0.3-0.5,1.7-1,1.9-0.8c6.8,6.9,14.9,10.9,24.1,13.8c0.6,0.2,2.2,0.1,2.5-0.5
	c2.3-3.2,5-2.3,8.4-2.1c7.5,0.5,15.4,1.3,21.4-5.4c0.6-0.8,2.3-0.5,3.5-0.8c-31.7,31-62.8,73.9-110,78.8
	C396,313,278.8,222.8,338.4,160.9z M311.5,210.8c2.2-2.6,3.5-4.3,5.5-6.6c16.8,62.5,76.3,106.8,137.3,122.1
	c29.2-2.3,53.1-22,73.7-41.2c-9,29.9-29.3,57.8-47.2,83.9c-1.5,2.1-2.2,0.9-2.8-0.7c-4.9-12.5-13.6-22.9-20.6-34.3
	c-1-1.6-2-2.4-3-2.4s-2,0.9-3.2,2.5c-3.1,4.3-38.3,53.2-40.4,43.8c-27.4-41-57.2-80.3-86.1-120.2c-8.4-11.2-17.1-22-25.6-33.1
	C296.6,219.2,308.4,214.6,311.5,210.8L311.5,210.8z M496.2,555c-0.7,3.4-1.4,7.2-2.3,11c-12.5,5-27.6,15.2-39,21.4
	c-4.1,2.6-5,5.2-8.1-0.4c-1.3-3.8-17.1-19.6-9.1-20.5c2.2-0.6,4.2-2.3,6.2-3.5c16.1-10.9,31.2-21,47.2-31.1
	C495.7,521.8,496.6,552.8,496.2,555z M495.8,519.2c-0.1-0.3,1.5-2.5,2.5-2.8c3.3,0,10.6-3,12.8-0.3c0,16.3,4.9,14.9-11,18.3
	C495.1,529.9,499,523.7,495.8,519.2L495.8,519.2z M479.1,587.4c-7.2,3.4-15.4,14-23.3,12.8c-4-3.7-5.8-6.8,0.4-9.6
	c8.9-6.6,27.7-12.9,36.8-21.3C490.6,577.1,486.8,584.5,479.1,587.4L479.1,587.4z M484.1,590.2c-2.9,6.3-6,12.5-8.9,18.8
	c-5.7,15.8-6.9,5.1-14.4-2.1c-1.1-1.4-1.5-2.6,0.7-4c7.6-4.5,14.5-10.6,22.4-14.5C484,589,484.4,589.7,484.1,590.2L484.1,590.2z
	 M490.7,528.5c-17.7,11.6-36.1,22.5-53.6,34.4c-6.6,7.4-12-5.7-5.7-9c17.1-11.8,42.7-22.8,59.7-36.3
	C492.6,521.7,494.5,526.1,490.7,528.5L490.7,528.5z M471.1,524.8c-14.1,8.7-28.1,17.5-42.1,26.4c-0.1-0.9-0.3-1.8-0.4-2.7
	c-0.2-2.8-0.6-5.5-0.8-8.2c0.9-4.5,0.6-13.7,0.9-22.3c16.8-7.9,35.8-21.3,51.4-30.5c1.4-1,2.7-2.1,4-3.3c1.8,9.3,3.7,18.7,5.7,28
	c0,0.7,0.1,1.4,0.2,2C483.5,516.7,475.6,522.8,471.1,524.8L471.1,524.8z M478,485.2c-8.6,5.3-17.1,10.6-25.9,16.1
	c-5.9,4.8-17.4,8.4-23.1,14.2c0.5-8.2,1.8-15.4,5.7-16.6c15.1-8.6,33.6-17.6,47-28.6c0.8,4,1.5,8.1,2.3,12.1
	C481.6,483.1,478.7,484.2,478,485.2z M452.3,484.2c-6.9,4.4-14.2,8.3-20.5,13.7c-1.3-11,0.4-22.2,1.3-33.4
	c13.5-6.3,26.6-13.4,39.2-21.2c3.7-2.7,4,0.1,4.5,1.8c1.6,8.1,3.1,16.4,4.7,24.5C471.6,471.4,461.2,479.8,452.3,484.2L452.3,484.2z
	 M470.7,441.2c-11,6.9-28,12.3-37.5,21.9c0.1-2.1,0.3-4.3,0.3-6.4c0.4-4.3,1.7-7.8,6.5-9.4c13-9.7,25.3-3.7,32.6-19
	C474.3,433.2,477.1,438.8,470.7,441.2L470.7,441.2z M462.4,422c8.3,9.3-6.2,22.1-14.2,11.3C444.2,423.6,454,413.6,462.4,422
	L462.4,422z M467.2,422.5c-5-9.8-18.1-9.7-22.3,1c-6.1,15.4,13.3,11.3-9.1,23.4c-1.3-7.1,1.3-14.7,1.1-21.8c0.1-6,3.3-8.6,8.4-11.1
	c6.6-3.1,12.8-7.3,18.9-11.4c2.5-1.8,3-0.5,3.5,1.3c1.4,7,2.8,14.2,4.2,21.2c0,0.3,0.1,0.7,0.1,1C470,425.8,468.1,424.4,467.2,422.5
	L467.2,422.5z M464.4,399.4c-4.9,1.8-24.1,17.1-26.8,13.5c0.3-6.3,1.1-10.8,7.3-13.2c6.3-3,12.2-7.2,18.1-11.2
	C464.4,389.9,467.5,398.5,464.4,399.4L464.4,399.4z M448.7,366.1c-5.7,0.3-4-6-6.9-8.8c0.2,0,0.5,0.1,0.7,0.1
	c5.6,3.7,13.8,4.6,17.9,9.4c-0.2,1.3-0.4,2.6-0.6,3.9C457,368.2,451.2,366.8,448.7,366.1L448.7,366.1z M459.3,373.3
	c-0.1,0.7-0.4,1.4-0.6,2c-0.9,2.4-8.9,1.4-10.5-1.3c-0.8-2-1.6-4.1-2.3-6.2C449.3,369.1,455.1,373.1,459.3,373.3L459.3,373.3z
	 M446.2,380.9c2-2,7.9,0,10.5-0.4c2.3-0.7,3.5-1.3,4.8,1.6c3.8,4.6-15.4,12-19,15.4c-1,0.9-1.5,1.4-2.1,2
	C440.3,393.1,444.3,386.9,446.2,380.9L446.2,380.9z M461.6,363.3c-6.2-3-11.8-8.6-19.3-7.4c-0.2-0.1-0.4-0.3-0.6-0.5
	c7.1-14.9,8.6-11.7,21.2-4.5C465.4,355.4,462.3,358.8,461.6,363.3L461.6,363.3z M453.2,337c2.5,2.3,4.8,4.9,6.9,7.6
	c0.1,0.2,0.1,0.6,0.1,0.9C455.2,343.2,449.4,343.7,453.2,337z M170.2,316c10.2-6.5,20.2-13.2,30-20.3c24.7-17.9,49.4-35.9,73.6-54.6
	c6.4-4.9,12.7-9.8,18.9-14.9c2.3-1.8,3.8-0.9,5,0.9c37.6,51.2,74.8,102.5,111.6,154.1c2.4,3.5,4.4,3.8,7.3,0.6
	c7.4-8,14.1-16.9,21.7-24.7c13.4,26.4,0.4,19.4-2.1,42.9c-4.9,34.1-5.8,68.5-9,102.8c1,16.3-8.1,9.6-18.8,9.4
	c-42.4-3.8-84.2-11.3-125.5-21.3c-17.6-5-34.9-10.6-52.4-15.4c-3.6-1-3.1-3.4-1.9-5c11.8-17.4,28.2-31.8,45.1-44
	c15.8-3.5,33.6-3.5,47.4-12.6c-14.6,0.1-29.5,8.6-44.1,8.9c8.7-10.3,23.5-15.3,31.8-26.3c-0.4,0-0.7,0-1.1,0.1l-1.1,0.2
	c-4.7,1.1-8.4,5.4-12.5,8c-14,11.5-28.7,22.5-42.3,34.5c-8.5-43.3-31.4-86.9-68.3-112.3c-11.2-8.7-13.7,3-21.6,8.4
	C158.2,327.2,163.1,320.2,170.2,316L170.2,316z M424.5,535.3c0,0.5-1.4,1.3-2,1.3c-16.9-1.7-34.3-0.8-50.7-4.9
	c0.2-0.4,0.4-0.7,0.5-1.1c1.6-5.5-1.3-18,6.2-17.6c14.8,2.6,29.8,3.5,44.8,5C426.4,521,423.9,530.6,424.5,535.3z M368.3,522.4
	c0,10,0,10-9.3,8.6c-2.7-0.1-6.6,0.2-5.5-4c2.3-5.4-0.4-15.4,6.6-17.1C372,510.7,370.2,512,368.3,522.4z M349.6,525.4
	c0,4.9-3.2,3.4-5.1,3c-22.2-5.2-44.4-10.8-66.6-16.3c-6.6-1.4,3-10.1,0.5-14.2c2.5-7.3,16.9,1.8,22.6,1.9c16.1,3.3,32.1,7.8,48.4,9
	C355.8,508.5,348.2,521.3,349.6,525.4L349.6,525.4z M274.7,495.9c-2.1,3.6-1.2,17.8-6.7,14.7c-8.6-2.1-11.9-3-7.9-12.4
	c3.5-10.1,1.1-10.3,13.2-6.6C277.2,492.7,275.7,493.9,274.7,495.9L274.7,495.9z M211.6,519.9c-2-4.7,5.4,2.9,4.8-4.5
	c-1.4-26.5,0.6-16.9,20.8-11.3c6.7,9.4-13,39.2-22.7,43.8c-2.8-1.9-2.7-7.3-3.8-10.5c-0.6-3,1.5,0.1,2-0.6c2.1,3.2,7.1,5.2,7.6,0.3
	C217.7,531.4,214.6,525.6,211.6,519.9L211.6,519.9z M221.9,494.2c-6.7-1.5,2.4-12.2,3.1-16.4c0.4-0.1,0.7-0.4,0.9-0.8
	c-0.1,0.3-0.1,0.5-0.1,0.8c9.1,4.8,19.8,6.5,29.7,9.7c6.2,2.1-0.4,11.5-0.8,15.9c-0.1,0.5-1.8,0.8-2.7,0.6
	C242,500.5,232.2,496.4,221.9,494.2L221.9,494.2z M149.6,687.5c-3.1-2.2-1.7,5-3.8,5.8c-5.9-1.6-0.8-10.5-4.8-13.7
	c-1.1,0.4-2.8,3.8-4,7.2c0-1,0-2.1,0.1-3.1c2-41.4-35.6-75.3-57.7-107.2c-15.8-22.4-33.5-43.8-45.6-68.4c-2.5-8.9-3-8.5-8.9-15.5
	c-0.6,1.6-1.1,3.3-1.8,4.9c-0.5,1.1-1,2.1-1.7,3.1c-2.9-4.4-2.5-16.2-4.5-21.6c3-5.7,7.2-10.7,12.2-14.7c-4.2-0.9-8.8,0.6-12.8-0.9
	c18.6-5,31.1-20,45.7-31.8c24.2-21.6,48.3-43.4,72.6-65.1c13.4-11.8,26.6-23.6,38.2-37.3c7.8-3.6,19.1,9,24.8,13.7
	c19.9,18.9,32.6,43.7,42.6,68.8c3.2,8.2,4.5,17.1,7.2,25.6c1.2,3.8,0,5.7-2.5,8.1c-18.4,17.7-34.3,41.8-32.5,68.3
	c-3.8-3.4-2.6-9.4-5-13.6c-3,2.3-1.1,6.1-0.9,9.1c1.7,8,2.6,16.3,8.1,22.9c0.5,0.6,0.4,1.8,0.6,2.7c-5.7-1.2-5.5-9.2-9.6-12.9
	c-1.1,16.1,6.3,32.4,10.3,48c5.1,15.5,10,31.2,18.4,45.5c1.1,1.8,0.8,2.9-1.6,3c1.4,2,3.5,3.5,3.9,5.5c2,9.1,7.7,16.2,11.1,24.5
	c0.9,1.9,1.6,3.9,2.3,5.9c-2.6-2.6-5.6-5.1-7.9-7.4c-1.1,1.6-0.1,3,0.5,4.5c3.5,9.7,6.2,19.6,8.1,29.7c0.8,4.3,2.1,8.5,3.2,12.6
	c-1.4,2.4-3.8,6.8-4.1,6.6c-0.7,28,1.4,74.9-35.5,81.4c-3,0.4-5.7,2.3-8.6,2.7c-2.7,0.4-5.9,4.6-8.4-0.3c-7.7-0.2-15-3.1-20.8-8.2
	C168.5,749,166.5,709.5,149.6,687.5z M209.4,831.4c1.9-11.3,13.7-25.5,9.5-36.7c-7.7,23.4-15.1,55.2-43.8,60.1
	c-8.4,1.7-20.6,1.7-24.9-8.2c14.1-2.2,28.8,2.6,33.4-15.4c3.1-11.5,9.6-22.9,9.5-34.9c-5.7,4.1-5.2,12-8.9,17.5
	c-4.4,7-9.7,13.5-15.6,19.3c-2.5,1.5-3.2,2.5-5.9,3c4.3-18,11.2-35.4,12.9-54c3.2-1,7.4,2,10.6,2.8c0.8,0.4,2.9,1.1,0.5,2.5
	c-7.8,8,27.3,0.1,30-0.6c6.7-1.2,12.5-8.1,19-11.5C233.2,795.6,223.4,816.7,209.4,831.4z M409.6,802.4c11,6.1,33.3,14,29,29.8
	c-0.9,1.7-1.1,1.8-2.6,0.6c-11.1-9.5-23.8-19.6-38.3-22.2c10.9,10.1,26.5,14.7,36.8,25.4c-8.4,4.2-15.1,5.5-23.7,1.1
	c-11-4-22.5-6.8-33.9-9.6c-5.6-0.6-12.5-4.1-17.5-1.2c17.2,6.6,37.2,6.6,53.9,15.1c-29,5.9-61,2.1-90.4-2.8c2.1-1.2,3.9-2.8,5.2-4.9
	c0.5-0.8,1-1.5,1.5-2.3c1.6,2.8,2.5,7.3,6.2,3.6c8.9-7.9,19-14.4,30-19.1c1.7-0.8,3.2-1.8,4.8,0.8c5.4,2.5,22.2-13.2,33.4-13.9
	C405.7,802.4,408.1,801.6,409.6,802.4L409.6,802.4z M400,799.2c-8.3,3.7-16,8.7-24.2,12.5c1-2.2,2.5-3.8,2.8-6.2
	c-7.1,5.3-16.1,7.2-23.8,11.5c-6.9,3.9-12.6,10.2-19.8,13.5c1.4-3.3,4.3-5.5,6.2-8.5c-4-1.1-17.6,11.4-21.6,16.2
	c-30.9-5.3-61.2-14.2-88.4-29.7C294.5,832.2,348,778.4,400,799.2z M540.5,800.2c-0.2,3.4,0.4,7.6-2.5,10c-0.9-0.6-1.6-1.3-2.3-2.2
	c-2.1-3.8-4.1-7.7-6.1-11.7c-4.2-2.9-6.6-8.1-11.3-8.4c1.9,4.9,23.9,23,9.3,23.9c-5.7-0.3-12.7,2.8-17.4-1.6
	c-6.1-6.3-18.8-17.3-27.4-17c7.6,7.1,17.5,11.8,25.1,18.9c-5.7,2.5-12.3-0.3-18.4-0.5c-17-2.7-34.6-4-50.8-9.2c4.2-2,7-6.8,11.7-7.9
	c-3.5,11.5,17.1-5,20.8-5.7c9.9,2.3,17.8-4.7,27.1-5.7C513.2,785,539.5,777.9,540.5,800.2z M510.4,766.7c6.4,4.5,13.6,8.6,19.5,13.8
	c-14.8-0.4-29.3-4.1-43.8,2c-1.6,0.4-3.5,3-4.5-0.6c-9.4,2.1-17.4,6.7-25.7,11c1.5-2.5,3.9-4.2,5.3-6.9c-1.3,0.4-2.9,0.6-4,1.3
	c-5.4,4-12.7,4.4-17.1,10.1c-3.1,3.4-1.9,5.4-7,3.5c-13.6-5-27.3-9.8-39.7-17.6c-2.2-2.2,1.4-5.3,2.6-7.2c7.9-1.7,16.6,3.3,24.8,3.5
	c15.1,2.5,30,0,44.9-3c14.5-3.3,27.1-7.2,41.1-11C508.2,765.6,509.4,765.9,510.4,766.7L510.4,766.7z M398,773.6
	c0.2,0.1,0.3,0.2,0.4,0.3C398.1,774.1,398,773.8,398,773.6z M398.9,771.8c5.8-8.6,4.1-16.8,16.8-10.5c28.5,7.4,57.5-1.9,85.2-8.1
	c6.4-1.9,7.4,2.5,7.6,7.6c-12.5,6.2-28.2,8.3-41.8,12.5c-20.8,4.9-42.1,3.6-63,0.1C401.8,773,400.9,772.3,398.9,771.8L398.9,771.8z
	 M528.7,545.8c9.4,5.4,3.9,17.3,4.7,26.1c0.6,5.5-2.6,12.2,0.1,17c0.2,0.1,1.1-0.2,1.1-0.2c-0.3-1.8,1.1-3.2,1.8-4.8
	c3.2,9.3,15.8,21.2,20.2,29c26.4,35.8-6.6,78.3-26,109.5c-6.1,9-13.1,17.3-19.8,25.6c-1.1,1.3-3.1,2.6-4.6,2.5
	c-22.8,0-44.1,11.2-67.1,9.8c-9.2-0.3-18.4-2.5-27.6-3c-4.9-0.2-3.8-1.8-2.5-4.7c11.5-24.9,19.4-59,4.3-83c-2-3.2-4.4-6.2-7.1-8.8
	c-1.6-1.6-3.4-3.2-5.2-4.5c-16.6-14.2-34.7-26.2-53.6-37.1c-7.6-3.8-14.4-10.8-23-11.3c25.9,20.7,59.1,32.5,81.4,58.3
	c26.9,33,5.2,81.3-16.8,113v0.1c-1.6,2.4-3.3,4.7-5,6.9c-4.5,7.1-21,2.9-28.9,6.2c-27.3,6.2-54,15.6-82.1,17.6
	c-0.8,0.2-1.6,0.3-2.3,0.3c-3,1.1-6.4,0.7-9.6,0.9c-2,0.1-4-0.1-5.9-0.4c-1.6-0.1-3.3-0.3-4.9-0.7c-6.3-0.1-12.8-5.7-18.4-4
	l-0.5,0.7c3.1-6.2,4.8-12.7,5.9-19.3c30.2,17.5,82,0.4,114.4-5.3c12-3.3,24.1-2.5,36.2-3.7c-16.1-5.8-35.1,0.8-51.8,3.1
	c-31.6,7.4-66.5,14.2-98.6,5.2c0.9-5.5,1.6-11.1,2.6-16.7c8.1-12.5,11.6-27.8,12.2-42.8c0.9-5.7,3.5-14.4,4.3-22.4
	c0.9,5,0.8,10.1-0.2,15.1c-0.4,2.2-1.5,4.6,0.2,6.6c9.2-12.2,0.6-30-1.1-43.6c-0.9-5.4-2.7-11-2.1-17c0.5,1.9,1,3.8,1.5,5.8
	c0.2,0.7,1.2,1.2,2,1.8c2.8-15.9-10.3-33.6-16.6-47.9c1.1,0.3,2.1,0.4,3.2,0.6c0.5,0.1,0.9,0.4,1.3,0.6
	c-2.4-10.3-11.8-19.3-15.1-29.9c-5.6-14.1-9.7-28.9-14.6-43.3c-0.9-2.5,0.1-3.8,2-4.9c26.7-14.3,20.4-44.8,29.3-42.4
	c46.6,15.4,94.8,27.7,143.7,32.4c10.2,0.9,20.5,1.3,30.8,1.6c3.4,0.1,4.4,1.6,4.5,4.4c0.6,5.9-1,12.5,1,18.1
	c9.6,14.9,20,29.6,30.2,44.2l1.1,1.3c5.2,6.2,9.1,12.6,12.9,12.6c2.6,0,5.2-2.9,8.3-10.9c6-17.7,24.3-45.1,21-63
	c-0.6-3.3-2.5-9.6,2.4-9.8C513,534.6,520.3,539.6,528.7,545.8L528.7,545.8z M510.7,449.3c-5.6-1.6-18.2,2.4-16.7-5.7
	c1.5-12.8,2.8-25.8,4.2-38.7c2.9-3.2,13.9,0.6,18.6,0.4c0.3,0,0.9,1.3,0.8,2C516,421.4,513.4,435.3,510.7,449.3L510.7,449.3z
	 M554.3,471.8c-1.2,0.4-2.5,0.2-3.5-0.6c-10.9-9.4-22-18.5-32.4-28.3c-3.5-6,1.8-17.8,1.1-25.3c0.9-3.3,2.9-6.2,5.5-8.3
	c7.2-6,10.7-14.7,14.7-22.8c11-24.1,18.3-52.3,14.9-78.6c-2.6,2.5-1.6,6-1.8,9.1c-0.5,33.5-12.6,65.5-31.2,93
	c-0.3-0.9-0.5-1.9-0.6-2.8c-0.1-1.1-0.1-2.2,0-3.3c2.2-11.4,5.6-21.9,4.2-33.1c-6,4-2,32.9-11.3,30.2c-5.8,0.2-17.2-5.5-19,2.7
	c-2,11.8-2.4,23.9-3.4,35.8c-0.4,4.6-2.8,11.9,4,12.1c4.6,1.3,10.8,0.2,14.7,2.7c-3,12.6,35.1,16.4,27,31.5
	c-7.3,16.3-23.4,26.8-41.2,26.8c-6.9-5.7-8.4-36.5-11.8-47c-6.2-29.2-9.7-59.1-20.7-87c-1.3-6.6,1.4-16.6,3.8-23.3
	c6,3.2,6.9,25.5,15.9,14.9c20.5-26.2,38.8-55.2,49.1-87c0.4-2.5,2.8-4,4.1-6.1c7.9,8.7,15.4,17.5,23.2,26.3c0.7,0.9,1.4,1.6,2.1,2.5
	c8.4,9.6,16.9,19,25.9,28c4.9,7.4,32.7,22.5,30.4,28.6C608.6,404.4,592,448,554.3,471.8L554.3,471.8z M756.1,462.5
	c-4.3,13.2-9.1,26.3-13.6,39.3c-2.8,7.5-7.8,14.2-7.4,22.7c1.8-0.6,3.5-1.2,5.1-1.6c0.9-0.2,1.9-0.4,2.8-0.5
	c-3.5,6.4-12.2,8.6-15.4,15.3c3,1.5,7.4,0.1,9.8,2.6c-14.2,1.8-29.5,4.4-43-1.4c-27.8-10.1-53.7-24.8-80.2-38.1
	c-16.7-8.7-32.8-18.5-48.2-29.3c-1.7-1.1-1.8-1.5-0.4-2.6c9.1-7.4,16.6-16.8,24-25.9c16.7-22.7,26.1-50.2,31.7-77.5
	c1-4.4,2.4-2.6,4.2-1.7c5.7,3.3,11,6.9,17.3,9.2c-1.8,2.3-3.6,4.5-5.2,6.9c-0.6,0.9-0.7,2.1-1.1,3c16.8-7.9,25.6-26.2,35.5-41
	c13.2-20.7,20.2-44.5,27.4-67.4c1.6,2.8-0.5,6.3,1.3,9c7.3-4.5,11.4-13.7,19.3-17.1c-2.3,7-8.6,12.8-9.2,20.2
	c7.1-2.3,12.2-9.4,20.4-7.7c-0.7,1.1-1.6,2.1-2.5,3c-3.6,1.4-6.5,4-8.2,7.5c7.6-0.7,18.3-5.5,25.2-3.1c-2.3,2.3-6.9,1.8-8.1,5
	c16.5-4,35,7.4,50.1-4.1c0.4-0.4,1.4-0.1,2.1-0.1c-1.1,3.8-5.3,5.7-7,9.3c3.3,2.2,6.7-0.9,10.1-1.3
	C785.4,351.4,771.3,407.6,756.1,462.5L756.1,462.5z M829.6,237.2c-2.6,10.2-6.1,20.1-11.8,29.1c-5.4-14.2-6.7-30.4-6.1-45.6
	c-0.1-3.3,1.7-8.5,0.8-12.2C828.2,221.3,836.5,216.4,829.6,237.2L829.6,237.2z M790.8,173.3c10.6-7.4,26-11.1,34.4,0.4
	c11.2,16.6,20.7,36.2,23.6,55.9c-19-14.3-41.8-26.1-53-48.1c0.1,1.3,0.2,2.4,0.3,3.6c0,0.9-0.1,1.8-0.1,2.7
	c-0.8-0.1-1.6-0.3-2.3-0.6C787.3,184.1,786.2,178,790.8,173.3L790.8,173.3z M793.8,191.1c3.2,0.4,4.6,2.3,6.4,4.4
	c3.2,4.2,6.8,8.1,10.8,11.7c-2.4,3.5-4.5,17.3-4.3,24.1c-6.6,11.5-6.3,59.1-15.9,61.2c0-4.8,4.9-10.7,0.8-14.7
	c-4.9,12.5-20,11-30.5,10.3c-10-0.3-18-8.5-28.5-4.6c-0.3,0.1,0.2-2,0.7-3.8h0.1c3.4,0.5,6.9-0.4,9.6-2.5c-2.9-0.8-6-1.2-9-1
	c-0.1-0.2-0.4-0.1-0.7,0.1c-3.9,0.1-7.9,0.7-11.6,0.6c-2.2,0.1-4,3.7-6.4,2.3c3-6.4,8.8-11.7,12-18.1c-10.1-0.4-17.8,8.8-24.8,15.1
	c-0.3-2.3-0.8-5.2,0.8-7.1c5.5-5.4,6.3-13,9.4-19.5c7-13.2,11.4-28.5,19.4-41c-1.2,21.2,7.7,22.4,24.5,14.3
	c7.4-4.8,43.5-16,42.8-23.3c-0.6-8.8-28.2-6.7-35.3-8.4c-8.2-1.5-16.2-0.4-23.3,4c-0.7-4.2,6.1-7.9,9.8-8c2.2,0,4.5,0.5,6.5-0.1
	c9.8-2.1,19-6.3,27.1-12.1C781.9,181.2,787.7,190.4,793.8,191.1L793.8,191.1z M788,162.7c-6.5,14.9-25.4,21.6-40.7,20
	c19.4-37.8,59.2-62.8,100.2-71.3c3.2-0.8,6.7-2.3,10.2-0.1C831.3,118.2,802.8,140.4,788,162.7z"/>
</svg>
