<?xml version="1.0" encoding="utf-8"?>
<!-- Generator: Adobe Illustrator 25.2.3, SVG Export Plug-In . SVG Version: 6.00 Build 0)  -->
<svg version="1.1" id="Слой_1" xmlns="http://www.w3.org/2000/svg" xmlns:xlink="http://www.w3.org/1999/xlink" x="0px" y="0px"
	 viewBox="0 0 864 864" style="enable-background:new 0 0 864 864;" xml:space="preserve">
<style type="text/css">
	.st0{fill:#9A7469;}
	.st1{fill:#A960CA;}
	.st2{fill:#C5E56C;}
	.st3{fill:#674BAC;}
	.st4{fill:#FFFFFF;}
	.st5{fill:#70B389;}
	.st6{fill:#FFCF97;}
	.st7{fill:#C95031;}
</style>
<path class="st0" d="M582.8,826.5c6.2-3.1,14.4-12.7,22.4-15.7c3.8-4.5,12.4-1.9,15.2-7.5c3.2-10.4,4.3-21.5,7-32
	c3.7-17.4,13-34,11.2-52.3c-3.2-20.8-12.3-40-21.2-58.8c-2.5-3.5-7.9-22.4-8.7-8.4c0.2,7.4-23.1,34.8-28.7,24.5
	c-4.3-8.3-8.1-16.9-11.5-25.6c-3.4-13.1-3.8-27.4-7.2-40.4c-2.4,5.1,0.1,11.8-0.4,17.4c0.1,5.1-0.2,10.1,0.1,15.1
	c0.3,6.3-2.1,12-3.8,17.8c-2.7,7.5,0.8,15.1-1.2,22.6c-1.8,7.4-8.7,6-11.6,10.4c-5,22.3,0.5,10.3,20.5,10.7
	c1.9-0.6,40.1,2.7,27.5,5.4c-19.1-2.7-38.4,0.3-57.3,2.8c-7.2,0.5,0.4,8.3,2,11.9c8.7,12.5,15.8,26.5,21.5,40.3
	c0.1,7.6-0.3,15.3-1.2,22.9c0.1,13.5,9.4,7.2,3.8,33.5C557.9,828,579.3,828,582.8,826.5z M581.7,686c-5.7,2.1-11.2,4.9-16.8,7.6
	c-3.7,1.8-6.8,4.4-11,4.3c3.4-6.8,45.7-23,52.8-21.4C599.6,681.7,589.8,682.2,581.7,686z M596.2,776.3c7-4.1,12.4-11,19.8-14.1
	c-10.5,15.5-30.9,27.4-50.3,25.5v-0.1c1-2.7,3.7-1.6,5.4-2C580,784.4,588.6,781.2,596.2,776.3L596.2,776.3z M535.6,718.4
	c2,0.4,3.5,1.8,5.3,2.7c3.6,2.6,7.1,4.7,10.5,7.2c0.9,0.7,1.7,1.6,2.4,2.6C548,730.6,538.2,723.6,535.6,718.4L535.6,718.4z
	 M543.8,717.2c-4.4-3.7-3-4.2,1.5-2.2c11.4,9.6,26.6,12.1,39.3,18.6C575.1,735.4,551.7,723.1,543.8,717.2L543.8,717.2z M611.6,810.5
	c-2.1,2.4-8.7,6.2-10.4,8c2.8,2.2,6.9-0.1,10.2-0.1c3-0.2,1.8-3.5,2.1-5.6C613.5,810.7,612.7,810.4,611.6,810.5z M539.4,705.7
	c2.1-6,3.6-12.1,1.3-18.4c-0.5-1.8-1.3-3.9,0.3-5.3c3,1.2,0.8,7,4.7,6.7c8.4-1.4,9-12.2,9-18.9c-4,2.6-3,12.6-9.4,10.5
	c-19.2-6-37.4-18.6-49.2-34.9c-3.6-6.2-5.9-13.3-8.5-20.1c-1.8-4.7-1.6-4.9-6.2-4.5c-27.5,0.9-28.9,3.8-45.9,23.8
	c0.5-2,0.2-4.5,1.8-6.1c4.4-5.6,3.4-12.8,4.2-19.4c1.2-12.8,4.3-25.9-0.4-38.3c-1.4,7.4-5.1,13.4-9.7,19c-4.2,5.5-7,18.8-2.7,24.2
	c3.2-7.7,1.7-18.5,8.1-24.5c0.3,0.6,0.9,1.3,0.8,1.9c-2.4,10.7-6.5,21.3-6,32.4c2.3,14.6,1.5,29.2,1,43.8
	c-1.5,24.9-3.2,50.7,1.9,75.3c5.9,14.1,13.8,27.2,23.3,39.1c1,1.3,2.4,3.7,1.9,4.8c-1.3,4.5-4.9,11.6-0.7,15.3
	c3.1,12.6,1.5,0.5,23.1,10.7c2.4,1.1,5,2.6,7.4,3c1.2,0.6,2.5,1.1,3.9,1.4c1.5,1.6,4,1.7,6,2.6c1,0.4,1.3,0.6,1.3-0.7
	c-0.3-8-0.7-15.5-0.7-23.6c-0.6-1.1-1.1-2.2-2.1-0.1c-1.4,2.6-7,5.5-9.6,3.8c1.5-2.2,5.3-2.2,7-4.1c7.2-7.8,8.5-17.7,8.2-27.8
	c0.9-13.8,2.2-27.8,2-41.5c-3.5,3.8-5.3,9.4-9.1,13.2c0.4-8.8,7.4-16.7,12.6-23.5c2.4-3.2,6.5-5.3,8.7-8.7
	c-5.2-1.1-14.5,5.9-19.3,2.9c10.7-6.4,23.7-9.2,36.1-11.3C536.2,708.4,538.5,708.3,539.4,705.7z M484.4,790.1
	c-6.1,2.6-11.3,8.8-17.9,8c2.6-3.6,7.6-4.2,11-6.8c6-3.8,11.4-8.8,17.2-12.8C493.5,783.5,488.5,786.8,484.4,790.1z"/>
<path class="st1" d="M566.2,570.6c-10.3-7.9-20.9-15.5-31.1-23.5c-1-0.8-2.1-2.9-3-5.1c-0.3,3.4-1.3,6.9,2.1,8.7
	c11.4,7,21.3,16.3,32.2,24.2c0.3,0.3,1.2-0.1,1.8-0.3C567.7,573.3,567.4,571.5,566.2,570.6z M532.1,518.3c0,2.7,0.7,5.3,2,7.6
	c10.4,7.6,20.5,16.8,31,23.7C567.7,543.2,540.6,527.7,532.1,518.3z M546.5,506.6c-3.1-2.9-10.5-6.8-14.1-11.1c0,0.2,0,0.3-0.1,0.5
	c-0.3,3.3,0,4.7,2.6,6.6c9.5,7,18.5,14.7,28.1,21.2c0.1-0.6,0.1-1.2,0.2-2.4C560.4,514.8,551.7,511.5,546.5,506.6z M531.7,567.1
	c-0.1,0.3-0.1,0.6-0.2,1c-0.6,1.9,0.1,3.9,1.8,5c6.8,4.4,21.9,20.7,29,19.9C559.4,587.7,537.7,574.9,531.7,567.1z M531.8,472.6
	c-0.3,4.7-1,7.2,4.6,9c8.5,5.4,15.7,13.2,24.4,18.3C563.7,490.7,540.4,480.9,531.8,472.6z M542.7,462.1c5.7,3.9,10.5,8.9,16.6,12.1
	c-0.4-1.5-0.3-3.6-1.6-4.7c-5.5-5-21.2-14.3-26.8-21.5c-0.1,0.2-0.1,0.5-0.1,0.8C529.2,456.5,538.1,458.1,542.7,462.1z M530.3,426.6
	c0.1,1.9,0.3,3.7,0.6,5.5c5.4,1.4,12.2,8.9,16.7,11.1c2.2,2,7.4,4.7,10.2,7.7v-1.2c-0.1-3.6-2.2-5.3-5.1-7
	C548.8,439.6,534.6,432.4,530.3,426.6z M546.3,414.8c-3.7-3.9-11.8-7.7-15.9-12.4c0,1.6-0.1,3.3-0.1,5c9,3.3,17.6,14.8,25.6,19.5
	C556.7,420.9,549.8,418.5,546.3,414.8z M552.8,312.1c0.1-1.3,0.3-2.6,0.3-3.9c-1.5,3.5-4.5,8.2-4.9,9.5c-1.8,1.5-3.2,3-4.9,4.2
	c-1.9,0.8-3.8,1.5-5.8,2c0.1,0.3,0.2,0.6,0.3,0.9C545.1,325,553.6,319,552.8,312.1z M531.2,358c0.1,4,4.7,5.5,7.4,8.3
	c3.7,1.9,9.8,8.8,13.4,8.4c-0.9-4.7-15.6-11.8-20.7-17.6C531.2,357.5,531.2,357.7,531.2,358z M541.6,392.1c4.3,2.8,7.6,8.4,12.7,9.1
	c-0.1-2.5-2.4-3-4-4.3c-5.7-5.3-15.7-13.1-20.3-19.8c0.1,2.4,0.2,4.6,0.4,6C534.2,385.5,538.8,390.3,541.6,392.1z M548.8,349.2
	c-1.2-1.9-1.4-4.9-4.1-5.2c-0.1,0.6-0.5,1.4-0.3,1.8c0.9,1.4,1.9,2.7,3,4.4C547.9,349.8,548.8,349.4,548.8,349.2z M534.4,314.8
	c2.8-3.1,5.5-6.3,8.4-9.3c0.9-1,1.9-2,3-2.8c-2.8-0.7-5.6-1.8-8-1c-0.5,5.6-10.1,8.3-5.5,14C532.3,315.8,533.5,315.2,534.4,314.8z
	 M542.6,344.6c0.5-1.8-0.4-3.6-2.1-4.3c-0.1,0.8-0.2,1.6-0.4,2.4v1.1C541,344.1,541.4,346.2,542.6,344.6z"/>
<path class="st2" d="M563.9,271.1c-4.4,6.8,3.2,15.5-6.8,24.3c-1.9,1.8-2.4,3.3-1.6,5.7c2.2,7,1.7,17.2-3,22.7
	c-4.2,1.8-2.8,5.1-2.4,8c0.5,4.3,1.1,8.6,1.7,13c4.1,26.5,7.2,53.2,8.2,80.1c3.2,42.5,5.2,85,9.5,127.4c0.7,7.4,0.9,14.9,2.4,22.2
	c1.6,7.5-2.6,12.8-5.7,18.4c-2.2,3.7-5.8,7-3.6,11.6c6.5,23.3,7.9,48.2,21.2,69.1c0.7,0.6,1.7,0.8,2.6,0.4
	c14.2-8.9,20.1-23.8,20.9-40.2c0.7-6.5-1.4-12.6-3.1-18.8c-2.5-7.6-2.8-16.1-6.6-23.2c-2.2,3.7,1.2,8.2-1.3,11.6
	c-4.4-20.7-6.2-42.8-10.1-63.8c-3.8-26.1-2.3-52.4-4.4-78.6c0-8.5,0.3-17,0.5-25.4c0.1-6,0.2-11.9,0.5-17.9c0.1-2.8-1.1-3.7-3.7-4.2
	c-7.1-1.5-13.5-4.2-13.1-12.4c-1.6-13.1-3-26.2-1.5-39.5c2.2-8.6,14.5-3.4,20.9-4.4c2.8-2.5,1.1-9.6,1.8-13.4
	c2-19.5-0.5-40.2-13.7-55.5c-1.8,4.3,1.3,9.3,1.1,13.9c-0.3,3.5,1.3,9.8-1.8,12.2c-4-4.8-6.9-15.6-7.8-21.4
	C564.1,285.9,566.5,277.9,563.9,271.1z M586.8,400c-0.5,10.4-0.4,20.8-0.7,31.2c-0.4,5.6,11.7-5.5,13.9-6.2c5-3.5-2.6-16.6-3.4-22
	c-7-17.9-3.8-37.3-6.4-55.6c-2.2,2.4-0.8,8.3-2.2,10.9C590.5,370,586.5,389.3,586.8,400z M585.9,368.1L585.9,368.1
	c0.3-3,0.6-5.9,1-8.5c-0.2,0.1-0.4,0.1-0.7,0.1c-4.2-0.1-8.4,0.1-12.6-0.1c-4.5-0.1-6.2,0.7-6.4,6.6c-0.4,12.6,0.8,25.2,2.2,38.2
	c0.5,2.5,2.6,4.4,5.1,4.8c2.5,0,7.8,3.9,8.2-0.3C584.8,398.1,584.9,381.7,585.9,368.1c-1,0.9-1.5,2-3.1,2.2c-3.8,0.4-7.5,0.8-11.2,1
	c-0.9,0.1-1.8-0.6-2.8-1C572.5,367.5,581.4,367.3,585.9,368.1z M560.9,246c-3.8,8.9-2.7,19.6-8.1,27.8c-2.2,3.9-3.3,8.5-6.1,12
	c-4,3.6-3.2,4.5-1.2,9.5c0.4,0.8,2,2,2.4,1.9c6.5-2.2,4.4-9.5,4.7-14.7c0.1-6.5,5.9-13.7,12.4-14c3.4,2.1,1.9,7.6,2.2,11
	c0.7,9-0.1,18.1,2.6,27c0.3,0.9,1.6,3.6,2.4,5.7c0.4-10.1-2.4-19.9-2.3-30.1c-0.6-8-0.8-16.1-1.8-24c-0.3-3.8-4.7-9.9-5.6-14.2
	C562,244.6,561.5,245.3,560.9,246z M560,277.8c0.1-1.3-0.3-2.6-0.3-3.9c-1.3,1.5-3.3,2.9-4.1,4.7c-0.2,4.9-1.3,9.9-0.9,14.7
	c2.1-2,2.9-4.8,4.7-7.5C559.6,283.2,559.9,280.5,560,277.8z M424.2,430.2c-0.4-0.7-0.9-1.4-1.4-2c-0.9-0.7-2-1.4-3-2
	c11.4-0.5,22.3,5.5,32.8,9.5c4.5,2.1,9.1,4.3,13.7,6.5c4.3,2.3,3.2-2.3,3.5-4.9c4.1-14.8,4.4-30.3,5.5-45.6
	c1.1-10.3-0.9-21.4,2-31.4c4,26.2,0.1,54-4.1,80c2.4,6-5.1,7.4-4.6,12.8c0.5,43.6-1.1,87.3,1.2,130.9c0.1,1.2,1.2,2.4,2,3.6
	c14.2,15.5,18.6,37.1,27.8,55.5c5.1,8,12.3,13.8,19.9,19.5c3.9,2.8,26.3,18.4,28.6,11.4c4.1-13.1,10.4-25.7,9-39.8
	c-0.5-6.6-0.2-13.3,1.1-19.8c0.1-3,1.8-6.3,0.5-9.2c-3.4,0.7-3.3,9.4-7.6,4.9c-6.8-6.6-13.5-13.2-20-20c-5.5-4.8-4-12.1-3.7-18.7
	c3.3-72-5.1-144-0.1-215.9c-0.7-11.1,11-25.3,5.6-33.5c-4.5-5-5.5-15-13.1-15.8c-4.7,0-1.3,7.1-1.9,9.9c-0.7,8.7-23.6-14-27.5-15.9
	c-9.9-7.5-19.7-14.9-29.7-22.4c-3.6-1.4-4.3,6.2-5.9,8.5c-0.5,1-0.8,1.8,1.1,2.4c14.7,3.9,22.2,29.3,20.1,42.6
	c-2.5-3-2.2-7.2-3-10.9c-2.2-10.7-5.6-24.4-16.8-28.5c-5.6-2.8-7.7,12.8-9.9,16.6c-6.1,17.3-7,35.7-8.4,53.8
	c-2,17.2-8.1,33.6-14.9,49.5c-2.2,4.9-3.9,10.1-6.2,14.9c-0.8,1.6-0.2,2.3,0.7,2.9C419.8,430.7,422,432.3,424.2,430.2z M483.9,377
	c2.4-8.2,4.9-16.1,7-24.2c1.5-4.9,0.5-10.3,3.2-14.8c4,5.2-8,45.9-12.5,51.5C480.2,385.3,483.1,381.2,483.9,377z M467.3,278.3
	c16,9.9,29.8,22.6,44.7,34c4.1,2.9,1.5-4.7,1.8-6.8c1.2-9.5-2.8-22.5,7.1-28.2c-2,6.3-6.5,12.3,1.2,16.6c3.5,3.3,8.5,4.6,12.8,2.6
	c-8.5-7.6-2.6-22-10-25.1c-23.5-7.5-43.9-21.6-65.9-32c0.1,9.1,5.5,18.3-1.1,26.6C454.3,271.1,464.4,275.3,467.3,278.3z"/>
<path class="st3" d="M563.7,551.8c-10.1-7.6-20.1-15.5-29.7-23.6c-2.5-0.2-1.2,8.5-1.8,10.5c0.1,0.4,0.1,0.9,0.1,1.3
	c3.8,4.9,12.8,11,15.7,14c6.4,4.5,12.2,10,19,13.8c-0.1-0.8-0.2-1.6-0.3-3C565.7,560.4,567.3,555.2,563.7,551.8z M559.5,524.3
	c-6.2-3.5-11.3-8.8-17.3-13.6c-2.4-2-4.8-3.9-7.2-5.7c-0.6-0.5-1.3-1.2-1.9-1.8c-0.1,3.6-0.8,8-0.9,12.2c10,6.7,22.4,20,31.9,26
	c1-2.6-0.3-5.3-0.1-7.9C563.9,529.7,563.9,526.8,559.5,524.3z M559.5,572.6c-9-6.9-17.8-14.2-27-20.9c-1.8,4-0.6,8.8-0.7,13.2
	c9.9,6.3,21.8,17.6,30.8,24.3c1.2,3,4.3-6.8,5.2-8.3C567.2,576.3,562.7,575.2,559.5,572.6z M558.9,501.6
	c-9.2-5.7-17.4-13.3-26.6-19.3c-0.2,3.6,0.3,7.2,0.3,10.7c10.1,4.9,20.9,17.1,30.1,22.3C561.8,510.9,563.4,504,558.9,501.6z
	 M544.2,466c-2.1-0.8-12.4-11.2-13-8c0.1,4,0.5,8.1,0.7,12.1c9.5,4.8,19.9,14.2,27.9,19.9c0.6-3.7-0.1-7.6-0.3-11.3
	C555.8,473.3,549.2,470.6,544.2,466z M551.3,606c0.5,0.5,2.4,0.6,2.6,0.2c0.8-2.1,7.3-9.6,4.3-10.6c-6.8-5.1-13.5-10.3-20.8-15.5
	c-1.5-1.7-3.1-3.5-4.7-5.2c-0.3-0.4-1.1-0.4-1.7-0.6C529.9,588.2,543.2,596.6,551.3,606z M558.2,466.9c1.2-4.1,0.3-8.6-0.2-12.9
	c-6-3.3-14.2-10.2-19.3-13.5c-2.8-2-5.5-4.1-8-6.4c-1.3,4.5,0.2,7.7,0.3,11.6C540,450.8,549.8,462.1,558.2,466.9z M555.2,441.5
	c2.8,3,1-9.1,1.4-10.5c-1.8-3.4-6.5-4.7-9.3-7.2c-4.7-3.9-13-9.2-17.1-14.7c-0.1,5.1-0.3,10.1-0.1,15.2
	C537.9,428.1,548.2,437.1,555.2,441.5z M530.6,385.4c-1.2,4.7,0,9.5-0.1,14.3v0.6c8.2,4.7,17.4,14.2,24.9,18.9
	c-0.2-4.5,0.8-11.4-1.4-15.1C547.2,398.9,536.9,392.4,530.6,385.4z M530,376.3c3.1,0.3,6.8,6.5,9,8.2c4.9,4.3,9.3,9.1,14.6,12.9
	c0-5.7,0.3-14.3-2.4-19.3c-5.9-5-13.6-7.9-18.1-14.5C530.6,361.2,529.9,369.5,530,376.3z M553.3,305.9c0.1-2.1-0.4-4.1-1.2-6
	c-0.1-0.4-2-0.1-3-0.3c0.1,0.5,0.2,1,0.5,1.4c0.3,0.8,0.6,1.5,0.9,2.2c-1.2,0.1-2.3,0-3.5-0.3c-2.6,5.5-11.8,11.6-11.3,17.4
	c0.7,0.9,1.3,1.9,1.8,3C540.2,320.4,546.7,317.3,553.3,305.9z M550.2,369.1c0.8-4.6-0.3-9.6-0.9-14.3c-0.3-1.3-2.2-2.3-3.5-3.5
	c-0.7,3.5-2.3,12.1-6.4,5.7c-4.7-7.8,0.3-16.8-2.8-20.5c-3.1,5.4-4.3,12.1-5.1,18.5C537.5,358.4,544.8,365.8,550.2,369.1z
	 M544.5,334.6c1.6,2.8-0.6,7,2.9,8.4c0.7-3.6-0.1-7.4-0.2-10.9c-0.3-2.7-0.4-6-4.7-4.7c-1.5-0.3-3-0.9-4.4-1.6c1,6-3.7,9.6,3.6,12.6
	c0.6,0.1,0.6,0.1,1.7-2.7C543.5,335.2,544.2,334.9,544.5,334.6z M541.3,354c2.6-0.4,1.3-5.6-0.8-6.3
	C540.8,349.8,539.8,352.3,541.3,354z M517.8,300.6c0.2,0.7,1.6,1.1,2.6,2c14.2,0.8,3.1,14.8,16.4-2c-7.2-1.1-12,0.5-18.2-5
	C516.9,295.7,517.8,299.4,517.8,300.6z"/>
<path class="st4" d="M604.6,163.1c-0.7,3-4.9,8-3.1,10.5c1.2-1.3,2.2-2.7,3.1-4.2c0.9-1.9,1.9-3.8,2.9-5.7c0.7-1.2,1.3-2.5,2-3.8
	C607.9,161.1,605.4,161.3,604.6,163.1z M573.1,137.5c5.7-1.4,9-7.5,9.7-13c0.3-5.7-7.7-2.2-11.6-2.6c0.3,2.3,0.3,5.5,0.5,7.2
	c-1.3,3.5-7.2,6.9-10.3,7.2c0.1,0.1,0.2,0.2,0.2,0.3C564.1,141.5,569.1,138.5,573.1,137.5z M572.3,173.8c2.2,1.7,4.9,2.8,7.5,1.6
	C578.2,173,574.3,171.1,572.3,173.8z M487.3,149.2c-7.7,0.2-8.7-10.7-14.5-7.9c-10.4,2.2-5.5,8-0.5,13.2
	c12.6,10.8,46.3,6.4,45.5-13.9c-0.5-5.3-2.7-7.5-7.9-7c-4.1,0.4-4.4,1.1-5.1,5.1C503.3,146.5,495.1,149.8,487.3,149.2z"/>
<path class="st5" d="M570.4,121.8c-3-0.1-2.6,2.7-2.6,4.7c-0.2,3.8-6.3,8.5-7.8,3.1c-3.9,0.5-0.9,3.7,0.8,5.9
	c10.8-2.7,9.5-8.7,9.8-13.6C570.5,121.8,570.5,121.8,570.4,121.8z M479.1,138.6c2.2,13.8,27.7,8.6,23.1-4.5
	c-1.8,0.6-2.2,1.8-2.3,3.5c0.1,4.9-9.8,10.6-10.1,3.4c-1.1-1-1.1-1-2.3,0.1C482.8,146.4,483.3,138.4,479.1,138.6z"/>
<path class="st6" d="M579.2,179.3c-8.2,0.3-8.5-6.9-13.8-6.7c-25.5,3.5-51.6,0.7-77.2-1.8c-1.6-0.1-3.2-0.3-4.7-0.3
	c-24-0.6-28.4,15.8-7,31.4c12.6,15.2,27.2,29.2,37.3,46.3c3.5,4.5,3.8,17,8.9,18.3c3.8,1,8.5,2.5,9.4,6.8c1.9,10-1.6,23,11.7,25.4
	c0.2,0,0.4,0,0.6,0.1c-9.8-14.4,1.2-11.8,3.8-22.1c-1.4,1-4,0.1-4.5,2.8c-1.2,2.3-3.8-0.3-5.5-0.8c3-3,9.5-2.3,12.2-5.8
	c2.2-8,6.4-16.1,6.7-24.4c-1.6,1.6-3.7,2.5-5.9,1.3c3.7-3.1,9.2-5.8,10.8-10.3c-2.7,1.1-4.3,3.9-7.5,4.2c2-5.5,8.8-6.9,11.5-11.9
	c-3.6-0.4-6.2,3.6-9.9,2.2c2-3.8,8.5-3.2,10.5-7c0.1-2,1.3-2.4,2.8-2.9c8.1-2.8,8.2-5.1,3.2-11.4c-0.5-4.4-21.3,2.3-26.3,1.4
	c-9.3-0.3-20.2,0.8-28.7-3.9c3.4-2,7.2,0.5,10.8,0.1c19.9-1.1,55.8,3.3,62.2-21.4c-20.2,6.7-40.6,15.5-62.3,12
	c-12-1.7-25.3-2-35.2-9.7c-5.1-3-15.8-16.2-21.1-13c-1.9,1.3-3.9,1.2-6,0.8c3.8-3.4,11.3-6,17.4-6c2.2-0.1,4.4,0.4,6.4,1.4
	c-2.9,2.8-7.8,0.2-11.1,2.4c2.5,3.6,7.2,5.1,10.6,7.9c3.4,2.3,6.5,5.2,10.3,6.8c18.9,6.6,40.1,8.9,59.9,4.3c7.5-2.1,15.1-4.3,22.4-7
	c4-1.4,9.2-1.1,11.4-6c0.1-0.3,0.7-0.3,1.1-0.5c0.1,0.6,0.3,1.1,0.3,1.8s-0.1,1-0.1,1.5c2.6,0.1,5.8,0.5,7.2-1.7
	c1.6-3.4,4.3-7.8,3.4-11.7C599.8,181.2,588.4,179.4,579.2,179.3z M549.6,250.4c2,5.2-3.2,9-2.2,13.9c0.6-0.3,1.2-0.5,1.8-0.9
	c0.7-0.5,1.5-1.1,2.3-1.8c0,2.1-1.9,4.9-3.8,4.9c-1.9-0.8-4-2.4-3.4-4.7C545.2,259.4,546.7,249.8,549.6,250.4z M396.4,140.3
	c-5.1-8.4-0.9-8.5,2.7-15.8c-9.5-1.1-20.3-2.5-27.8-8.8c1-0.2,2-0.7,2.8-0.4c6.4,1.7,13.1,2.4,19.7,2.2c0.8-0.1,2-0.1,2.5-0.6
	c2.7-2.9,6.6-3.3,9.9-5.1c7.5-3.8,9.2-8.8,11.1-15.1c-3.8,0.1-9.1-3.2-12.2-3.7c-7.2-1.9-14.3-3.7-21.4-5.5
	c-27.6-7.4-52-23.9-79.5-31.6c-29.7-5.6,11.8,48.8,19.2,55.6c14.2,16,30.2,30.2,47.8,42.4c4.3,3.5,13.8,9.6,19.1,14.8
	c4.1-14.5,11.8-28.2,15.1-42.7C400.1,128.4,400,135.9,396.4,140.3z M351.3,85.4c3.4,0.9,5.5,3.2,8.5,5.2c6.7,5,13.9,9.4,21.5,13
	c-3.3,2.8-15.9-4.1-19.9-5.9c0.4-0.1,0.9-0.2,1.3-0.3c0.7-0.1,1.4-0.3,2-0.3C360.7,92.6,353.8,90.9,351.3,85.4z M381.2,107.3
	c-4.4,0.6-8.6-1.6-13.1-1.7c-2.3-0.5-4.6-0.9-6.8-1.6c-0.6-0.1-1.1-0.8-1.8-1.2C364.2,100.7,375.6,106.3,381.2,107.3z M367.5,146.4
	c-2.5-1.5-6-2-7.8-4.3c0.4-0.1,0.9-0.1,1.3,0c2.6,1,5.1,2.1,7.8,3.4C368.5,145.9,367.9,146.5,367.5,146.4z M358.5,136.9
	c0.4-0.6,1-1.1,1.3-1c3.4,2.2,8.4,3,10.9,6.2C366.3,142.9,362.1,139.4,358.5,136.9z M362.8,108.1c-0.3-0.4-0.5-0.8-0.7-1.2
	c8.2,1.9,16.2,4.3,24.7,4.3c3.2,3.9-13.4,1.4-15,0.5C368.9,110.6,365.9,109.4,362.8,108.1z"/>
<path class="st7" d="M687.5,815.6c11.5,1.2,14.8,4.5,22.6,12c-7.4-27.6-60.6-8.4-80.9-7.5c-9.5,1.7-19.5,2.8-28.7,0.1
	c-6.2-0.5-10.3,6.1-14.9,9.4c-6,4.3-14.7-1.1-21,1.8c-2,2.3-3.7,4.8-5.3,7.4c-0.8,1.1-0.1,1.5,0.9,1.7c29.6,0.5,59.1,2.5,88.5,6.2
	c8.8,0.5,17.5-0.2,26.2-0.4c6-0.4,12.2,1.4,18,0c-2.6-2.6-8.9-3-7.6-8.4c0.5,0.2,0.9,0.4,1.3,0.7c1.6,1.4,3.2,2.9,4.6,4.5
	c0.2,0,0.4,0,0.5,0.1c-1-0.9-1-2.9-1.7-4c-0.6-1.4-2-2.6-2.3-4c-0.7-3.7-3.5-5.3-6.1-7.2c-6.5-5.6-14.9-4.1-22.2-6.6
	c1.1-1.2,2.2-2.2,3.8-1.8c9.2,0.5,18.8,2.2,25.2,9.5c4.1,4.3,7.3,9.4,9.3,15.1c0.8,3.4,3.7,1.8,6.3,1.6c9.6-1.7,5.4-10.8,2.3-16.3
	c-5.1-10.6-18.4-10.7-28.6-12.6c-1.8-0.4-4.3,0.9-5.1-1.2C677,813.3,682.9,815.4,687.5,815.6z M704.2,832.5c0.1-0.4,0.1-0.8,0.2-1.2
	c2.8,0.8,2.4,6.3,3.7,8.9c-2.4,1.8-3.5-2.9-4.9-4.7C703.5,834.4,703.8,833.5,704.2,832.5z M590.5,435.7c-8.5,0-4.2,31.9-4.6,38.6
	c0.4,10.7,0.4,21.5,1.9,32.2c0.7,6.5-1.5,14.3,1.5,20.1c2.6-10.1,3.2-21.2,5.8-31.5c2.2-10.1,4.9-25.4,2.2-35.7
	c-1.1-1.2-2-2.4-0.6-3.9c0.3,0.2,0.5,0.4,0.9,0.6C593.9,448.4,594,433.8,590.5,435.7z M481.2,211.5c-7.2-9.1-19.2-14.6-21.5-26.6
	c-3.3-12.4,12.6-17.4,22.4-17.4c5.1,0.3,10.2,0.8,15.3,1.1c22.1,1.2,44.4,4.7,66.3,0.7c6.8-1.1,0.3-9.7,14.7-13.5
	c1.3-0.5,3-0.6,3.7-2c-26-5-35.6-35.2-41.5-57.8c-0.6-5.6-3.7-14.1-1.3-19.1c2.8,6.6,2.5,14.1,4.7,20.8c2.1,7.4,5,14.6,7.5,22
	c0.7,1.9,1.4,2.3,3.5,1.7c3.4-1.6,35.1-7.8,30.5,0.2c0.5,13-7.6,18.7-19.4,20.4c4.7,5.5,12.4,7.4,19,9.2c10.2,1.4,8.6-9.6,23.7-4
	c-0.2-0.9-0.4-1.9-0.5-2.8c-0.1-0.9-0.1-1.9,0-2.8c1,0.5,1.9,1,2.7,1.7c0.2,0,0.4,0,0.6,0.1c-1.4-4.7-6-7.9-6.8-12.7
	c11.4,4-15.4-21.6-17.2-23.6c-4-4-6.7-9-8.8-14.2c-4-8.7-15.5-45.5-27.3-41.3c-4.3,4-6.8,10-10.9,14c-4.1,2.7-2.6,4.4-2.2,8.4
	c-5.4,0-3.5-8-3.8-11.6c0.4-6.8,6.3-11.1,9.7-16.5c-15.8-1-30.7,5.3-46.5,5.9c-16.6,2-32.8,6.3-48.2,12.8
	c-22.2,7-28.6,30.3-36.2,49.8c-7.8,16.2-11,33.9-18.3,50.3c-1.7,3.5-1.3,7.5-0.8,11.2c0.1,0.8-0.2,2.1,0.1,2.2
	c3.9,1.7-2.2,10,0.3,12.8c3.5-3.5,2.7-10.3,7.4-12.6c0.1,7.2-6.4,12.8-7.3,19.9c4.9-2.8,8.2-8.7,13.6-10.4c0.6,2.6-2.2,4.3-2,7
	l2-1.4c0.5-0.4,1-0.8,1.5-1.2c0.7,4.9-4,9.2-3.6,14.2c4.6-1.6,9.7-10,14.9-8.9c-1,3.1-4.4,3.2-6,5.6c14.9-1.4,43.9,5.1,35.8,25.2
	c2.6,0.6,5-0.3,7.5,0.4c-0.4,0.5-0.9,1.1-1.3,1.7c-0.3,0.3-0.6,0.6-0.9,0.9c2.2,0.8,5.2,0.4,6.6,2.4c-1.9,1.6-4.4-0.1-6.5,0.8
	c19.6,9.6,39.1,20.2,59.2,29.3C514.9,247.8,491.3,224.9,481.2,211.5z M571.2,90.6c2.3,4.2,6,8.4,6.4,13.4c-5.2-3.2-6-10.1-10.5-14.3
	c-2.4-1.8-4.7-3.5-6.9-5.1c-0.8-0.6-1.6-1.3-2.5-2C564,80.6,568.4,86,571.2,90.6z M514.7,154.9C502.5,164,485,166.1,472,158
	c-6.5-3.1-5.3-9.2-10.9-12.3c2.6-7.9,15.4-7.1,22.2-9.9c10.3-2.8,20.8-4.6,31.5-5.5C522.3,134.3,522.9,149.1,514.7,154.9z
	 M462.6,132.8c3.1-15,11-26.1,26.1-30.8c3-0.5,9.9-1.6,11.1,2.1c-19.7-2.2-32.5,15.4-35.9,32.8C462.7,136,462.1,134.3,462.6,132.8z
	 M511.5,123c-2.5-4.7-4.7-9.5-8.7-13c-0.7-0.6-0.7-2-1.1-3c5.6,1,13.1,12.9,12.4,18.2C513.1,124.5,512.1,124.2,511.5,123z
	 M445.3,126.2c-0.5,1.2-1.7,2.1-3,2.4c1.6-10.4,5.9-20,11.5-28.8c6.5-10.3,18.9-13,28.9-18.5c2.6-1.2,8.2-2,4.3-5.6
	c6.8-3,18.7-7.4,23.2,1.1c-5.1,0.2-5.7-2.2-10.7,1.6c-12.4,8.8-26.4,14.9-39.3,22.5C453.5,107.5,448.6,117.3,445.3,126.2
	L445.3,126.2z M467.3,202.7c5.1,2.5,8.3,8,12.4,11.9c2.9,3.6,6.6,6.5,8.4,10.7c-6.3-6.3-12.6-12.8-19-19.2
	C467.9,205.3,467.7,204,467.3,202.7L467.3,202.7z M452.7,59.3c9.9-3.7,19.7-7.2,30.3-8.9c6.8-2.4,36.5-1.2,37.1-7
	c-19.4-17.2-40.7-34.8-67-39.1c-15.4-2.2-14.8,14.6-13.3,25.4c1.3,10,5.1,19.1,9.5,28C449.9,59.3,450.9,60,452.7,59.3z M494.5,832.4
	c-12.4-5.4-24.5-11-38-11.8c-6.2-0.7-11.8-3.3-18.2-2.4c-9.1,2-15.9,7.1-19.9,15.2c-2.6,4.2-1.1,18.3-3.2,24.6
	c9.9,0.5,24.3,1.4,26.7-1.6c2.4-22.1,16.1-37.6,38.6-26.3c2.8,4.4-13.6-2.6-16.6-0.2c-6.5,1.6-10.7,5.7-13.4,11.4
	c-1.5,5.1-8.4,15.9-0.3,18.2c1.4,0.3,2.2-0.1,1.9-1.9c-0.5-3.7-1.3-8.7,2.7-10.9c0.9,3-1.5,5.5-0.3,8.4c2.8-2.2,1.6-6.8,5.1-8.4
	c0.3,4.1-0.8,8.8-4,11.8c-0.3,0.4-0.6,0.8-0.8,1.3c7.7,1.3,15.2-1.2,21.6-5.1C481.5,850.3,507.7,839.2,494.5,832.4z M424.6,855.7
	c-4,2.3-4.7-1.2-5.4-4.5c0.2-1.8,0.7-3.6,1.3-5.3c0.3-0.8,1.4-1.3,2.2-1.9c1.6,3.4-2.4,7,0.4,10c2.7-3.3,2-8.2,4.3-11.7
	C431.5,844.3,426.8,853.7,424.6,855.7z M445.6,628c8.9-12.3,24.7-9.2,38-9.5c0.2,0,0.7-0.7,0.6-0.9c-1.8-10.1-7.2-15.4-14-22.4
	c-5.2-9.2-4-20.5-4.4-30.7c-0.6-11.2-0.9-22.4-1.1-33.5c-0.5-27.3-0.8-54.7,0-82c0.2-1.8-0.8-3.6-2.6-4.2
	c-11.1-4.7-21.8-10.7-33.2-14.5c-3-0.9-3.1,1.8-3.7,3.5c-1.7,4.5-3.2,9.2-4.7,13.9c-0.1,0.3-2.7,2.2,0.5,2.1
	c0.1,5.5-4.7,10.3-3.9,16c2.6-1.8,4.1-5.1,7.4-5.9c0.1,0.7,0,1.4-0.2,2c-0.1,4.3-1,10.2-2.4,13.6c-0.7,1.2-0.5,1.1,0.7,1.5
	c1.4,7.3-1.5,15.5,3.1,22.2c3.5,26.2,11.1,51.6,18,77C449.3,593.2,445.7,610.9,445.6,628z M423.5,645.7c-3.9,0.4-7.8-0.9-11.6-0.2
	c2.3,2.2,6.1,2.4,8.9,4c-10.7,4.5-22.8,9.3-33.5,2.1c-10.5-4.9-14.6-15-21.2-23.6c1.1,3.5,3.7,6.7,3.9,10.5
	c-3.5-1.9-4.7-6.7-7.2-9.8c-5.3-7.2-8.1-17.4-15.7-22.4c0.7,3.2,4.4,6.2,3.2,9.5c-5.3-4.8-8.4-12.4-13.2-17.7c0,2.1,1.9,3.7,1.9,5.9
	c-5.1-3-7.6-9.1-12.1-12.7c-4.5-3.5-9-8.1-14.4-9.8c1,3,4.9,3.8,5.8,7c-2.9,0.4-4.4-2.7-6.8-3.8c-9.5-4.9-18.4-11.6-28.9-14
	c-13.7,0.1-28.1-5.8-41.1,1.1c-3.4,2.3-9,3-10.8,7c4.9,1.2,17.3-9.7,21.1-6.2c-6.6,4.2-13.7,9.2-21.1,13.2c1.6-0.4,3.3-0.7,4.9-1
	c-0.3,2.2-2.2,3-4,3.7c-13.9,4.5-27.6,11.8-37.1,23c3.2-1.1,5.5-4.2,8.9-4.5c-2.5,5.2-8.8,8-12.3,12.5c-5.6,6.2-10.6,13-13.2,21
	c1.7,5.3-2.6,8-5.3,11.2c-2.9,3.5-6.4,6.8-7.6,11.3c-1.5,5-2.6,10-5.2,14.6c-0.3,0.5,0,1.3,0,2c1.5-1.9,2.2-4.4,4.5-5.5
	c1.3,6.7-12.1,14.9-7.5,22.2c2.3-3.7,2.1-8.6,5.7-11.7c2.4,5.8-7.8,12.7-4.7,19.5c8.9-2.6,14.7-14,24.7-13.6c-0.7,3-4.6,3.3-6.6,5.2
	c-4.1,3-8.2,5.9-12.1,9c-5.5,4.5-8.4,10.8-11.5,17c-2.7,5,9.4,2.4,12,3.6c4.9,0.5,9.7,1.4,14.5,2c7.9-1,16.1,2,24.1,0.1
	c7.8-1.2,14.5-5.6,22.2-6.5c4.3,0.1,9.2-3.5,13.2-1.7c-3.5,3.1-9.7,2.7-12.3,6.9c5.7-1.3,11.2-4.3,16.8-5.7c9.1,3.1,21.7-0.2,28.9,7
	c-7.8,1.5-16.3-1-24.3-0.2c10.5,5.5,23.4,6,34.8,9.3c2.4,0,4.5-1.2,6.7,0.7c-4,3.7-9.8,0.5-14.4,1.9c6.9,4.5,15.9,4,23.9,4.1
	c4.7,0.3,9.9-1.9,14.4,0.2c-1.1,0.9-0.8,2.8-1.4,3.9c1.3,0,2.6,0.3,3.7,0.9c-3.9,3-9.8,1.8-13.9,4.7c6,1.6,21.1,2.8,23.9,8.8
	c-3-0.3-5.7-2.3-8.9-2.2c8.6,8.8,24.2,7,35.7,7.4c6.4-0.3,12.8-2,19.2-3.2c2-0.6,3.7-2.2,6.1-1.6c-3,5.1-10.1,6.3-14.7,9.8
	c8,1.9,13-6.2,19.9-7.9c-2,5.9-8.5,7.2-13.2,9.9c9,1.5,18.6-3.9,26.5-8.4c0.2,0,0.5,0,0.7-0.1c2.2,2,3.5-0.2,4.7-1.2
	c6-4.1,9.9-10.4,14.8-15.5c0.1,0.7,0.3,1.4,0.3,2.1c0,0.6-0.1,1.1-0.2,1.7c3.5-1.3,3.7-6,7-7.4c0,0.9,0.1,1.8,0,2.6
	c0,0.5-0.1,1.1-0.2,1.6c4-2.6,6.7-5.8,5.5-11.4c-1.6-14-0.6-28.6-0.7-42.8c0.4-11.2,1.1-22.2,1.8-33.3c0.4-5.1,2.6-10.2-0.2-14.9
	C427.5,644.4,425.5,645.5,423.5,645.7z M327.3,702.5c4.7,2.6,7.9,6.9,12.2,10.3c0.9,0.6,1.8,1.4,2.6,2.2c0.4,0.5,0.7,1.1,0.9,1.8
	C337.6,716.4,326.9,707.8,327.3,702.5z M350.1,752.7c-3.9,0.4-7.4,0.9-11,1.1c-0.6,0-1.2-0.9-1.9-1.3c4-3,9.8-1.3,14.6-2.6
	c3.9-0.3,7.6-2.6,11.6-2C360.4,751.7,354.7,751,350.1,752.7L350.1,752.7z M340.6,709.2c0.7-0.4,1.5-0.8,2.2-1.1
	c6.4,3.7,13.2,6.6,20.3,8.8c2.2,0.3,4.5-0.2,6.4,1.5C363.1,722.3,346.3,713.6,340.6,709.2z M415.1,692.7c-3.5-0.8-13-4.5-13.4-7.8
	c0.4-1.6,17.8,6.7,17.9,8.1C418.2,693.9,416.4,693.8,415.1,692.7L415.1,692.7z M297.6,52.3c8.7-0.5,16.5,2.8,24.2,6.1
	c25.8,12.2,52.4,21.8,79.7,30.1c4.2,2,12.2,3.2,16.1,6.6c2-6.8,4.7-15,14.9-24.7C408.1,67,383.3,63,359.1,57
	c-18-3.6-46.5-15.6-63.4-8.7C293.6,50.5,295.2,52.3,297.6,52.3z M418.5,824.8c-12.6-0.1-21.2,12.4-21.3,24.3
	c-0.2,2.9,0.7,5.3,3.6,6.5c0.3-2.6,2.2-4.2,4.1-6c1.4,3.7-3.2,7.3,2.2,8.3c2-0.1,4.1-0.1,6.1,0.1
	C410.3,849.8,411.2,831.6,418.5,824.8z M393.3,120.8c-0.7,0.1-1.3,0.1-1.9,0.2c4.5,1.5,9.8,0.9,14.4,2.2c1.4,0.3,2,0.3,2.4-1.2
	c1-3.3,2.5-6.6,3.1-10c-3.1,1.7-7,3.1-9.7,5.1C400.2,121.5,396.2,119.2,393.3,120.8z"/>
<path d="M713.1,824.5c-2.5-5.7-6.2-10.1-12.4-12.4c-14.7-4.6-30.5-2.6-45.5-0.1c-10.6,1.8-21.2,4-31.9,5.6c-2,0.3-4.8,0.5-6.2-0.6
	c-1-0.8-0.6-3.8-0.3-5.8c0.1-0.7,1.8-1.2,2.9-1.7c7-2.8,4.2-12.8,6.5-18.9c1.2-6.3,2.2-12.6,3.9-18.7c5.9-22,18.9-44,9.7-66.8
	c-6.3-19.8-14.9-38.9-25.6-56.8c-2.8-4.7-4.2-9.3-3.7-14.6c0.8-15.1-6.5-29.8-11.2-43.9c-5.2-16.4-8-33.4-8.2-50.6
	c1.5-12.6,4.2-25.1,6.6-37.6c0.8-4.7,1.5-9.4,2.2-14c0.3-2.4,0-4.9,2.4-6.6c1.2-1.4-0.1-4.6-0.7-6c-0.7-2.4-0.6-6.9-1.2-10.7
	c1.8,2.9,3.7,5.7,3.9,9.2c0,0.3,0.7,0.5,1,0.9c1.8-3.3-1-9.7-4.3-14.2c0.2,0.1,0.4,0.2,0.6,0.3c-1.2-7.2-8.2-21.4-4.6-28.6
	c3.1-3.2,9-4.9,8.3-10.6c-4.2-13.9-9.2-27.8-11-42.2c-2.8-29,3.5-69.9-19.5-91.5c-1.8-1.6-2.9-3.9-2.9-6.4c-1.7-11,1.8-30.9-9.3-38
	c2.3-2.9,4.7-5.8,6.1-9.1c1.6-4.1,4.6-7.5,8.5-9.5c5.3-3,2.2-8.9-1.3-11.9s0.4-4,3.2-5c16.3-6.9,10.1-20.3,18.9-19.5
	c7,0.1,10.8-10.4,8.8-16.6c-0.8-2.4-0.1-3.8,1.2-5.5c5.5-5.1,2.1-12.7,7.2-17c0.2-0.1,0-0.9,0-1.3c0.2-3.7-1-7.3-3.3-10.1
	c-1.5-1.6-2.5-4-1-6.1c0.6-0.4,3.7,0.4,4.9,0.8c-1.9-3.2-5.8-4.8-8.2-7.6c-5-6.5-10.6-12.6-16.8-18c-16.3-19.2-16-52.1-42.4-62.7
	c-10.6-5.1-22.6,2.6-26.9-1.3c-9.8-14.6-81.1-66-85.8-30.1c-2.4,16,3.3,32.5,10.3,46.8c1,2,0.3,2.8-1.1,3.6
	c-6.2,4.4-12.3,6.1-19.7,3.9c-9.7-1.2-19.1-3.4-28.6-5.5c-25.3-4-49.9-11.2-74.8-17c-7.2-1.8-14.7-2.3-22.1-1.3
	c-30.7,12,12.1,63.1,25.3,76.7c12.6,13.4,27.2,24.7,42,35.5c5.8,4,11.8,8,17.6,11.8c0.3,0.3,2.6,1.8,4.7,3.2
	c-0.5,1.8-0.9,3.7-1.2,5.6c0.9-0.1,2.1-0.5,2.8-0.1c-0.3,5-2.4,10.3,0,15.2c3.2,4.5-1.7,7.3-1.5,11.7c4.6,0.4,8.9-2.3,10.5-6.6
	c0.3-0.6,1.1-1.1,1.7-1.6c4.5,2.7-4.5,14.5,1.8,14.5c4.2,0.8,7.4-2.6,11.4-2.8c11.1,1.6,24.2,0.5,32,10.2c3.4,4.9,2.8,10.7-0.9,14.2
	c1.8,0.3,3.6,0.3,5.3,1.1c-1,2.7-4.4,1.4-5.6,3.8c3.5,1.6,9.2-0.8,9.5,4.9c-0.4,9,8,15.1,0.2,22.7c-6.6,7,5.4,10.2-1.4,17.7
	c-10.6,19.8-17.3,42-18.4,64.5c-1.1,9,0.3,18.5-1.8,27.5c-5.7,18.4-14.3,35.7-21.5,53.6c-3.8,7.2,11.1,5,9.1,10.7
	c-3.1,6.8-6.3,13.6-9.7,20.2c-0.5,1.1-1.1,2.5,1.3,2.1c2.2,1.1-0.5,4-0.6,5.7s-2.1,9.3,1.6,7.3c1.7-1.8,3.5-3.5,5.5-4.9
	c-2.6,5.3-3.9,12-1.6,17.2c3.2,5-0.6,11.8,4.8,15.6c0.4,0.3,0.6,1.2,0.7,1.9c-0.1,25.3,11.2,48.6,15.5,73.2
	c-1.1,6.3-2.6,13.5-7,18.4c-14.4,16.9-6.6,26-4,44.5c-1.6,7.4-17,2.3-22.3,4.2c0.5,2.8,5.5,4.3,4.5,7.2c-9.5,4.5-19.4,2.5-26.8-4.8
	c-7.6-6.2-12-15.3-17.6-22.8c-9.2-5.1-10.8-18-22.5-21.8c-3.9-3.3-6.8-8.5-11.3-10.8c-6.8-3.7-12.8-10.3-20.5-11.3
	c-7.6-0.6-13.2-5.3-20.1-8c-8.9-4.3-18.6-3.6-28.1-4.5c-8.3-1.4-16.9-0.1-24.5,3.7c-4.6,2-8.7,5.3-11.7,9.3
	c-6.9,8.8-19.3,5.8-28.4,9.7c1.8,1.8,4.3,1.4,6.6,1.5s4.5,2.1,6.6,3c-10.5,5.7-19.7,14-24.8,24.8c-3.7,7.3-9.9,13.2-12.4,21.3
	c-1.9,9.5-9.2,14-13.2,22.4c-2.6,5.3-3.2,11.2-5.4,16.6c-12.4,34.8,7.6,20-8.6,46c-2.4,4.7,6.7,3.5,9.4,4.4
	c6.8,0.1,13.2,1.7,19.7,2.6c8.2-1.2,16,2.2,24.3,0.2c8.2-0.7,14.7-6,22.8-7.2c-3.4,4.5-9.9,9-11.4,14.2
	c10.3-4.5,20.1-15.4,32.1-13.2c-1.8,3.7-6.1,1.9-8.9,4.2c13.4,3.1,27.4,5.5,38.7,14c9.5,4.8,19.3,4.5,29.3,2.4
	c1.3,0.8,2.7,1.5,4,2.1c-4.6,0.9-9.5,3.9-12.9,5.7c-1.6,1-3.9,1-4.7,2.9c11.9,1.2,17.6-2.4,26.8,8.1c7.4,4.2,15.7,5.9,24.1,6.7
	c6,0.6,11.8-0.6,17.5-2.2c0.8-0.2,1.8,0.4,2.8,0.6c-2,4.7-8.6,2.8-12.1,5.7c5.1,3.5,11.8-0.8,17.4,1.8c8.9,2.7,17.6-2.8,26.1-4.6
	c5-1.4,8.9-4.7,12.9-7.8c7.1-6.4,15.5-11.1,23.5-16.3c2.8,9.7,6.9,19,12.4,27.4c4.1,6.1,9.1,11.8,13.6,17.8c2.8,3.5,0,7.9-0.9,11.6
	c-1.5,3.7-2.4,7.2,1.8,9.9c0.7,0.3,0.9,2,0.8,2.2c-0.6,0.5-1.4,0.7-2.2,0.7c-24.3-8.4-22.2,3-39.9,4.5
	c-12.6,1.3-20.2,13.2-21.7,24.7c-0.7,3.4-0.5,7.4,2.5,9.7c12,8.6,28.2,5.4,42.1,5.3c16.9-0.4,24.4,7.3,41-4.9
	c6.2-4.3,12.4-8.6,18.6-13c2.1-1.4,4.3-2.8,3.2-6c0.7-3.5,4.2-2.5,3.2-8.8c-0.9-8.6-1.6-17.2-2.1-25.8c0.1-3.6,3.8-6.8,4.2-10.1
	c2.6-20.3,0.8-41.4,2.6-61.5c5.5-5.7,11-11.2,16.7-16.7c0.4-0.3,2.6,0.1,3.1,0.9c7.7,12.8,15.4,25.6,22.8,38.6
	c3.2,5.8,6.6,11.5,5.1,18.7c-1,5-1.6,10.1-2.6,15.1c-1.9,10.1,9.8,8,5.8,22.5c-7.1,27.3,9.8,10.1-3.2,27.8c-6.2,8,27.2,4.8,31.3,5.9
	c9.3,0.5,18.6,2,27.8,2.8c22.7,2,45.3,3.7,68.1,3.3c10.4-1.2,22.6,1.3,31.5-5.1C719.4,839.7,715.2,830.8,713.1,824.5z M597.7,456
	c-0.3-0.2-0.6-0.4-0.9-0.6c-1.4,1.5-0.5,2.7,0.6,3.9c2.6,10.3-0.1,25.6-2.2,35.7c-2.6,10.3-3.2,21.4-5.8,31.5
	c-3.1-5.8-0.9-13.6-1.5-20.1c-1.5-10.7-1.5-21.5-1.9-32.2c0.3-6.8-3.9-38.6,4.6-38.6C594,433.8,593.9,448.4,597.7,456z M571.7,371.2
	c3.7-0.2,7.3-0.6,11.2-1c1.5-0.2,2.1-1.3,3.1-2.1c-1,13.6-1.1,29.9-3.1,40.8c-0.4,4.2-5.7,0.3-8.2,0.3c-2.6-0.4-4.6-2.3-5.1-4.8
	c-1.4-13-2.6-25.6-2.2-38.2c0.3-5.9,1.9-6.8,6.4-6.6c4.2,0.3,8.4,0,12.6,0.1c0.2,0,0.5-0.1,0.7-0.1c-0.4,2.6-0.7,5.5-0.9,8.5h-0.1
	c-4.5-0.8-13.4-0.6-17,2.2C569.8,370.6,570.7,371.3,571.7,371.2L571.7,371.2z M590.3,347.4c2.6,18.3-0.6,37.7,6.4,55.6
	c0.8,5.3,8.4,18.5,3.4,22c-2.2,0.7-14.3,11.8-13.9,6.2c0.3-10.4,0.1-20.8,0.7-31.2c-0.4-10.7,3.7-30,1.3-41.6
	C589.5,355.8,588.1,349.8,590.3,347.4L590.3,347.4z M573,314.4c3.1-2.4,1.5-8.6,1.8-12.2c0.2-4.6-2.9-9.6-1.1-13.9
	c13.1,15.3,15.7,36,13.7,55.5c-0.7,3.8,1,10.9-1.8,13.4c-6.4,1-18.7-4.2-20.9,4.4c-1.4,13.2-0.1,26.4,1.5,39.5
	c-0.3,8.2,6,10.9,13.1,12.4c2.6,0.5,3.8,1.4,3.7,4.2c-0.3,6-0.5,12-0.5,17.9c-0.3,8.5-0.5,16.9-0.5,25.4c2.1,26.1,0.6,52.5,4.4,78.6
	c3.9,21.1,5.7,43.1,10.1,63.8c2.6-3.4-0.8-7.9,1.3-11.6c3.8,7.1,4.1,15.7,6.6,23.2c1.7,6.2,3.8,12.3,3.1,18.8
	c-0.8,16.4-6.7,31.3-20.9,40.2c-0.9,0.3-1.9,0.2-2.6-0.4c-13.3-20.9-14.7-45.8-21.2-69.1c-2.2-4.7,1.4-7.9,3.6-11.6
	c3.1-5.7,7.2-10.9,5.7-18.4c-1.5-7.2-1.8-14.7-2.4-22.2c-4.3-42.4-6.3-84.9-9.5-127.4c-0.9-26.9-4-53.6-8.2-80.1
	c-0.6-4.3-1.2-8.6-1.7-13c-0.3-3-1.8-6.2,2.4-8c4.7-5.5,5.2-15.7,3-22.7c-0.8-2.4-0.3-3.9,1.6-5.7c10.1-8.9,2.4-17.5,6.8-24.3
	c2.6,6.8,0.2,14.7,1.2,22C566,298.9,569,309.7,573,314.4L573,314.4z M537.8,301.7c2.4-0.7,5.2,0.3,8,1c-1.1,0.9-2.1,1.8-3,2.8
	c-2.9,3-5.5,6.2-8.4,9.3c-0.9,0.4-2,1-2.1,0.8C527.7,310,537.3,307.3,537.8,301.7z M520.4,302.6c-1.1-0.9-2.4-1.3-2.6-2
	c0-1.3-0.9-4.9,0.9-5c6.2,5.5,11,3.9,18.2,5C523.5,317.4,534.6,303.4,520.4,302.6z M546.9,302.9c1.1,0.3,2.3,0.4,3.5,0.3
	c-0.3-0.7-0.6-1.4-0.9-2.2c-0.2-0.4-0.4-0.9-0.5-1.4c1.1,0.1,3-0.1,3,0.3c0.9,1.9,1.3,3.9,1.2,6c-6.5,11.4-13,14.5-15.9,17.4
	c-0.5-1.1-1.1-2.1-1.8-3C535.2,314.6,544.4,308.4,546.9,302.9z M540.5,347.7c2.2,0.7,3.5,5.9,0.8,6.3
	C539.8,352.3,540.8,349.8,540.5,347.7z M540.1,343.8v-1.1c0.2-0.8,0.3-1.6,0.4-2.4c1.7,0.7,2.6,2.6,2.1,4.3
	C541.4,346.2,541,344.1,540.1,343.8z M541.6,338.3c-7.2-3-2.6-6.6-3.6-12.6c1.4,0.7,2.9,1.3,4.4,1.6c4.3-1.3,4.4,2,4.7,4.7
	c0.1,3.6,1,7.4,0.2,10.9c-3.5-1.4-1.3-5.6-2.9-8.4c-0.3,0.3-1,0.6-1.2,1C542.3,338.4,542.3,338.4,541.6,338.3L541.6,338.3z
	 M544.8,344c2.6,0.3,2.9,3.3,4.1,5.2c0,0.1-0.9,0.6-1.4,1c-1.1-1.7-2.2-3-3-4.4C544.2,345.4,544.7,344.6,544.8,344L544.8,344z
	 M537.8,324.8c0-0.3-0.1-0.6-0.3-0.9c2-0.5,3.9-1.2,5.8-2c1.6-1.2,3.1-2.6,4.9-4.2c0.5-1.3,3.4-6,4.9-9.5c-0.1,1.3-0.2,2.6-0.3,3.9
	C553.6,319,545.1,325,537.8,324.8L537.8,324.8z M536.5,336.5c3.2,3.6-1.8,12.7,2.8,20.5c4.1,6.4,5.8-2.2,6.4-5.7
	c1.2,1.2,3.2,2.2,3.5,3.5c0.5,4.7,1.7,9.7,0.9,14.3c-5.3-3.3-12.6-10.7-18.7-14C532.3,348.6,533.5,341.9,536.5,336.5L536.5,336.5z
	 M552,374.7c-3.7,0.4-9.7-6.5-13.4-8.4c-2.7-2.8-7.2-4.3-7.4-8.3c0-0.3,0.1-0.5,0.1-0.9C536.4,362.9,551.1,370,552,374.7z
	 M533.2,363.7c4.5,6.6,12.2,9.5,18.1,14.5c2.6,5,2.4,13.6,2.4,19.3c-5.3-3.8-9.7-8.6-14.6-12.9c-2.2-1.7-5.9-7.9-9-8.2
	C529.9,369.5,530.6,361.2,533.2,363.7L533.2,363.7z M550.3,397c1.6,1.4,3.9,1.8,4,4.3c-5.1-0.7-8.4-6.4-12.7-9.1
	c-2.8-1.8-7.4-6.6-11.2-9c-0.2-1.4-0.3-3.6-0.4-6C534.6,383.8,544.6,391.6,550.3,397L550.3,397z M555.4,419.1
	c-7.5-4.7-16.7-14.2-24.9-18.9v-0.6c0.1-4.8-1.2-9.6,0.1-14.3c6.3,7,16.6,13.5,23.4,18.6C556.2,407.7,555.2,414.6,555.4,419.1
	L555.4,419.1z M555.9,426.9c-8-4.7-16.6-16.2-25.6-19.5c0.1-1.7,0.1-3.4,0.1-5c4.1,4.7,12.2,8.5,15.9,12.4S556.7,420.9,555.9,426.9
	L555.9,426.9z M530.2,409c4,5.5,12.4,10.7,17.1,14.7c2.8,2.5,7.6,3.9,9.3,7.2c-0.5,1.4,1.4,13.6-1.4,10.5
	c-7-4.4-17.4-13.4-25.1-17.2C529.9,419.1,530.1,414.1,530.2,409z M557.8,449.7v1.3c-2.8-3-8-5.8-10.2-7.7
	c-4.5-2.2-11.3-9.7-16.7-11.1c-0.3-1.8-0.5-3.6-0.6-5.5c4.3,5.8,18.5,12.9,22.4,16.1C555.6,444.4,557.7,446.2,557.8,449.7
	L557.8,449.7z M530.7,434.1c2.5,2.3,5.2,4.4,8,6.4c5.1,3.3,13.3,10.2,19.3,13.5c0.5,4.3,1.4,8.8,0.2,12.9
	c-8.4-4.9-18.2-16.1-27.2-21.1C530.9,441.9,529.4,438.6,530.7,434.1L530.7,434.1z M530.7,448.7c0.1-0.3,0.1-0.5,0.1-0.8
	c5.7,7.2,21.3,16.5,26.8,21.5c1.3,1.1,1.2,3.2,1.6,4.7c-6.1-3.2-11-8.2-16.6-12.1C538.1,458.1,529.2,456.5,530.7,448.7L530.7,448.7z
	 M566.5,575.1c-10.9-8-20.8-17.2-32.2-24.2c-3.4-1.8-2.4-5.3-2.1-8.7c0.9,2.2,2,4.3,3,5.1c10.2,8,20.8,15.5,31.1,23.5
	c1.2,0.9,1.4,2.7,2.1,4.1C567.7,575,566.9,575.4,566.5,575.1L566.5,575.1z M567.8,580.9c-0.9,1.5-4,11.3-5.2,8.3
	c-9-6.7-20.9-18-30.8-24.3c0.1-4.4-1.1-9.2,0.7-13.2c9.3,6.6,18,14,27,20.9C562.7,575.2,567.2,576.3,567.8,580.9L567.8,580.9z
	 M548,554c-2.9-3-11.9-9.1-15.7-14c0-0.4-0.1-0.9-0.1-1.3c0.5-2-0.7-10.8,1.8-10.5c9.7,8.2,19.6,16.1,29.7,23.6c3.6,3.4,2,8.6,3,13
	c0.1,1.4,0.3,2.2,0.3,3C560.2,564,554.4,558.5,548,554z M565.1,549.7c-10.5-7-20.6-16.2-31-23.7c-1.3-2.3-2-4.9-2-7.6
	C540.6,527.7,567.7,543.2,565.1,549.7L565.1,549.7z M564,541.4c-9.5-6-21.9-19.3-31.9-26c0.1-4.2,0.9-8.6,0.9-12.2
	c0.6,0.5,1.3,1.2,1.9,1.8c2.4,1.9,4.8,3.8,7.2,5.7c6,4.8,11.1,10.1,17.3,13.6c4.4,2.4,4.4,5.3,4.5,9.1
	C563.8,536,565,538.8,564,541.4z M563.1,523.8c-9.7-6.6-18.7-14.3-28.1-21.2c-2.6-2-3-3.3-2.6-6.6c0-0.2,0.1-0.3,0.1-0.5
	c3.6,4.3,11,8.2,14.1,11.1c5.2,4.9,13.9,8.2,16.8,14.8C563.3,522.5,563.2,523.1,563.1,523.8L563.1,523.8z M532.6,493
	c0-3.6-0.5-7.2-0.3-10.7c9.2,6,17.4,13.6,26.6,19.3c4.5,2.4,2.9,9.3,3.8,13.7C553.5,510.1,542.7,497.9,532.6,493z M560.8,500
	c-8.7-5.1-15.9-12.9-24.4-18.3c-5.6-1.8-4.9-4.4-4.6-9C540.4,480.9,563.7,490.7,560.8,500L560.8,500z M559.7,489.9
	c-8-5.7-18.4-15.1-27.9-19.9c-0.2-4-0.6-8-0.7-12.1c0.6-3.2,11,7.2,13,8c5.1,4.6,11.7,7.4,15.2,12.6
	C559.6,482.3,560.3,486.2,559.7,489.9L559.7,489.9z M532.7,574.9c1.6,1.7,3.2,3.5,4.7,5.2c7.3,5.2,14,10.4,20.8,15.5
	c3,1-3.5,8.5-4.3,10.6c-0.2,0.4-2.2,0.3-2.6-0.2c-8.1-9.5-21.4-17.8-20.3-31.8C531.7,574.5,532.4,574.5,532.7,574.9L532.7,574.9z
	 M533.2,573.1c-1.7-1.1-2.4-3.1-1.8-5c0.1-0.3,0.1-0.6,0.2-1c6,7.8,27.8,20.6,30.5,25.8C555.1,593.8,540,577.5,533.2,573.1
	L533.2,573.1z M555.5,278.7c0.8-1.8,2.8-3.2,4.1-4.7c0.1,1.3,0.4,2.6,0.3,3.9c-0.1,2.7-0.3,5.4-0.5,8c-1.8,2.7-2.6,5.5-4.7,7.5
	C554.2,288.5,555.4,283.5,555.5,278.7L555.5,278.7z M568.2,258c1,8,1.2,16.1,1.8,24c-0.1,10.2,2.7,20,2.3,30.1
	c-0.8-2.1-2.2-4.9-2.4-5.7c-2.7-8.9-2-18-2.6-27c-0.3-3.4,1.2-8.9-2.2-11c-6.4,0.3-12.2,7.4-12.4,14c-0.3,5.3,1.8,12.5-4.7,14.7
	c-0.4,0.1-2-1.1-2.4-1.9c-2.1-5-2.9-5.9,1.2-9.5c2.8-3.5,3.9-8.1,6.1-12c5.4-8.2,4.3-19,8.1-27.8c0.5-0.7,1.1-1.4,1.7-2.2
	C563.5,248.1,567.9,254.2,568.2,258z M601.8,183.7c-1.4,2.2-4.6,1.8-7.2,1.7c0-0.5,0.1-1,0.1-1.5s-0.3-1.1-0.3-1.8
	c-0.4,0.1-1,0.2-1.1,0.5c-2.2,4.9-7.4,4.6-11.4,6c-7.3,2.7-14.9,4.9-22.4,7c-19.7,4.6-40.9,2.3-59.9-4.3c-3.7-1.6-6.9-4.5-10.3-6.8
	c-3.4-2.8-8.1-4.3-10.6-7.9c3.3-2.2,8.2,0.4,11.1-2.4c-2-1-4.2-1.4-6.4-1.4c-6.1,0-13.6,2.6-17.4,6c2.1,0.4,4.1,0.5,6-0.8
	c5.3-3.2,16.1,10,21.1,13c9.9,7.8,23.2,8,35.2,9.7c21.7,3.5,42.1-5.3,62.3-12c-6.3,24.7-42.2,20.3-62.2,21.4
	c-3.7,0.3-7.4-2.2-10.8-0.1c8.4,4.7,19.3,3.6,28.7,3.9c5,0.9,25.9-5.8,26.3-1.4c5,6.3,4.9,8.6-3.2,11.4c-1.5,0.5-2.7,0.9-2.8,2.9
	c-2,3.8-8.5,3.2-10.5,7c3.7,1.4,6.3-2.6,9.9-2.2c-2.6,5-9.5,6.4-11.5,11.9c3.2-0.3,4.8-3,7.5-4.2c-1.6,4.6-7.2,7.2-10.8,10.3
	c2.2,1.2,4.2,0.3,5.9-1.3c-0.3,8.3-4.5,16.4-6.7,24.4c-2.7,3.5-9.1,2.8-12.2,5.8c1.8,0.5,4.3,3.1,5.5,0.8c0.4-2.7,3-1.8,4.5-2.8
	c-2.7,10.3-13.6,7.7-3.8,22.1c-0.2-0.1-0.4-0.1-0.6-0.1c-13.2-2.4-9.8-15.4-11.7-25.4c-0.9-4.3-5.6-5.8-9.4-6.8
	c-5.1-1.2-5.4-13.8-8.9-18.2c-10.1-17.1-24.7-31.1-37.3-46.3c-21.5-15.6-17-32,7-31.4c1.5,0.1,3,0.2,4.7,0.3
	c25.6,2.4,51.7,5.3,77.2,1.8c5.4-0.2,5.7,7,13.8,6.7c9.2,0.1,20.6,1.9,25.9-7.3C606.1,175.9,603.4,180.3,601.8,183.7L601.8,183.7z
	 M572.3,173.8c2.1-2.7,6-0.8,7.5,1.6C577.1,176.6,574.5,175.4,572.3,173.8L572.3,173.8z M607.5,163.8c-1,2-2,3.9-2.9,5.7
	c-0.9,1.5-1.9,2.9-3.1,4.2c-1.8-2.5,2.4-7.5,3.1-10.5c0.9-1.8,3.3-2.1,4.9-3.2C608.8,161.3,608.1,162.5,607.5,163.8L607.5,163.8z
	 M439.8,29.8c-1.5-10.8-2.1-27.6,13.3-25.4c26.4,4.3,47.6,21.9,67,39.1c-0.5,5.8-30.3,4.6-37.1,7c-10.6,1.7-20.5,5.1-30.3,8.8
	c-1.8,0.7-2.8,0-3.5-1.5C444.8,48.9,441,39.8,439.8,29.8L439.8,29.8z M295.6,48.3c17-6.9,45.4,5.1,63.4,8.7c24.2,6,49,10,73.4,13.4
	c-10.2,9.7-12.8,18-14.9,24.7c-3.9-3.4-11.9-4.6-16.1-6.6c-27.2-8.3-53.9-18-79.7-30.1c-7.7-3.3-15.5-6.6-24.2-6.1
	C295.2,52.3,293.6,50.5,295.6,48.3z M390.2,168.6c-5.3-5.2-14.8-11.3-19.1-14.8c-17.6-12.1-33.7-26.4-47.8-42.4
	c-7.4-6.8-48.9-61.2-19.2-55.6c27.6,7.7,51.9,24.2,79.5,31.6c7.2,1.9,14.3,3.7,21.5,5.6c3.1,0.5,8.4,3.8,12.2,3.7
	c-1.8,6.2-3.6,11.2-11.1,15.1c-3.2,1.8-7.2,2.2-9.9,5.1c-0.5,0.5-1.7,0.5-2.5,0.6c-6.7,0.2-13.3-0.5-19.8-2.2
	c-0.8-0.3-1.8,0.2-2.8,0.4c7.6,6.3,18.3,7.7,27.8,8.8c-3.6,7.3-7.8,7.4-2.7,15.8c3.6-4.4,3.7-12,8.9-14.5
	C402,140.4,394.2,154.1,390.2,168.6L390.2,168.6z M411.2,112c-0.6,3.4-2.2,6.7-3.1,10c-0.3,1.4-0.9,1.5-2.4,1.2
	c-4.6-1.3-9.9-0.7-14.4-2.2c0.6-0.1,1.2-0.1,1.9-0.2c3-1.6,7,0.7,8.2-3.7C404.2,115.1,408.1,113.7,411.2,112z M456.7,234.5
	c2.1-0.9,4.6,0.7,6.5-0.8c-1.4-2-4.5-1.6-6.6-2.4c0.3-0.3,0.6-0.6,0.9-0.9c0.4-0.5,0.9-1.1,1.3-1.7c-2.5-0.7-4.9,0.2-7.5-0.4
	c8-20.1-20.9-26.6-35.8-25.2c1.6-2.4,5.1-2.5,6-5.6c-5.2-1.1-10.3,7.2-14.9,8.9c-0.4-4.9,4.2-9.3,3.6-14.2c-0.5,0.4-1,0.8-1.5,1.2
	l-2,1.4c-0.3-2.8,2.6-4.4,2-7c-5.3,1.7-8.7,7.6-13.6,10.4c0.9-7.2,7.4-12.8,7.3-19.9c-4.7,2.3-3.9,9.1-7.4,12.6
	c-2.4-2.8,3.6-11.1-0.3-12.8c-0.3-0.1-0.1-1.4-0.1-2.2c-0.5-3.7-0.9-7.7,0.8-11.2c7.4-16.4,10.5-34.1,18.3-50.3
	c7.6-19.5,14-42.8,36.2-49.8c15.4-6.4,31.6-10.7,48.1-12.8c15.7-0.6,30.7-6.9,46.5-5.9c-3.3,5.4-9.2,9.7-9.7,16.5
	c0.3,3.6-1.5,11.6,3.8,11.6c-0.4-4-1.9-5.7,2.2-8.4c4.1-4,6.6-10,10.9-14C563.5,47.4,575,84.3,579,93c2.1,5.1,4.7,10.1,8.8,14.2
	c1.8,2,28.6,27.6,17.2,23.6c0.8,4.8,5.5,8,6.8,12.7c-0.2-0.1-0.4-0.1-0.6-0.1c-0.8-0.7-1.7-1.2-2.7-1.7c-0.1,0.9-0.1,1.9,0,2.8
	c0.1,1,0.2,1.9,0.5,2.8c-15.1-5.6-13.5,5.3-23.7,4c-6.7-1.8-14.3-3.6-19-9.2c11.8-1.7,19.9-7.4,19.4-20.4c4.7-8-27.1-1.8-30.5-0.2
	c-2.1,0.6-2.8,0.2-3.5-1.7c-2.5-7.4-5.4-14.6-7.5-22c-2.2-6.8-2-14.2-4.7-20.8c-2.4,5,0.7,13.4,1.3,19.1
	c5.9,22.6,15.5,52.8,41.5,57.8c-0.7,1.4-2.4,1.4-3.7,2c-14.5,3.8-8,12.4-14.7,13.5c-21.9,4-44.2,0.5-66.3-0.7
	c-5.1-0.4-10.3-0.8-15.3-1.1c-9.9,0-25.7,4.9-22.4,17.4c2.3,12,14.3,17.6,21.5,26.6c10.1,13.4,33.7,36.3,34.7,52.2
	C495.8,254.7,476.2,244.1,456.7,234.5z M571.7,129.2c-0.2-1.7-0.1-4.9-0.5-7.2c3.9,0.5,11.9-3.1,11.6,2.6c-0.7,5.5-4,11.6-9.7,13
	c-4,1-9,4-11.5-0.8c0-0.1-0.1-0.2-0.2-0.3C564.4,136.1,570.4,132.7,571.7,129.2L571.7,129.2z M560.8,135.4c-1.8-2.2-4.7-5.3-0.8-5.9
	c1.6,5.4,7.6,0.7,7.8-3.1c0.1-2-0.3-4.7,2.6-4.7c0.1,0,0.1,0,0.1,0.1C570.2,126.8,571.5,132.8,560.8,135.4L560.8,135.4z
	 M457.8,266.1c6.6-8.3,1.2-17.5,1.1-26.6c22,10.4,42.4,24.5,65.9,32c7.4,3.1,1.5,17.5,10,25.1c-4.3,2-9.3,0.7-12.8-2.6
	c-7.7-4.3-3.1-10.3-1.2-16.6c-9.9,5.7-5.9,18.7-7.1,28.2c-0.3,2.1,2.3,9.7-1.8,6.8c-14.9-11.4-28.6-24.1-44.7-34
	C464.4,275.3,454.3,271.1,457.8,266.1L457.8,266.1z M417.6,429.6c-0.9-0.6-1.5-1.3-0.7-2.9c2.3-4.9,4-10,6.2-14.9
	c6.8-15.8,12.9-32.3,14.9-49.5c1.4-18.2,2.4-36.5,8.4-53.8c2.2-3.8,4.3-19.4,9.9-16.6c11.3,4.1,14.7,17.8,16.9,28.4
	c0.9,3.6,0.5,7.9,3,10.9c2.1-13.3-5.3-38.7-20.1-42.6c-1.9-0.5-1.5-1.4-1.1-2.4c1.6-2.2,2.2-9.8,5.9-8.5c10,7.4,19.9,14.9,29.7,22.4
	c3.9,1.9,26.8,24.6,27.5,15.9c0.6-2.8-2.8-9.9,1.9-9.9c7.6,0.8,8.7,10.8,13.1,15.8c5.4,8.2-6.3,22.4-5.6,33.5
	c-5,72,3.4,143.9,0.1,215.9c-0.3,6.5-1.9,13.8,3.7,18.7c6.5,6.8,13.2,13.4,20,20c4.2,4.5,4.2-4.1,7.6-4.9c1.2,2.9-0.4,6.2-0.5,9.2
	c-1.2,6.5-1.6,13.2-1.1,19.8c1.4,14.1-4.9,26.7-9,39.8c-2.3,7-24.7-8.7-28.6-11.4c-7.6-5.7-14.8-11.5-19.9-19.5
	c-9.2-18.5-13.5-40.1-27.8-55.5c-0.8-1.2-2-2.4-2-3.6c-2.4-43.6-0.7-87.3-1.2-130.9c-0.5-5.3,7-6.8,4.6-12.8
	c4.2-25.9,8.2-53.8,4.1-80c-2.9,9.9-1,21.1-2,31.4c-1.1,15.3-1.5,30.8-5.5,45.6c-0.3,2.6,0.8,7.2-3.5,4.9c-4.6-2.2-9.2-4.4-13.7-6.5
	c-10.5-4-21.4-9.9-32.8-9.5c1,0.6,2.1,1.3,3,2c0.6,0.6,1,1.3,1.4,2C422,432.3,419.8,430.7,417.6,429.6z M425.8,499.4
	c-4.7-6.8-1.7-14.9-3.1-22.2c-1.2-0.4-1.4-0.3-0.7-1.5c1.4-3.5,2.3-9.4,2.4-13.6c0.2-0.6,0.3-1.3,0.2-2c-3.3,0.8-4.8,4.1-7.4,5.9
	c-0.7-5.7,4-10.5,3.9-16c-3.2,0.1-0.6-1.8-0.5-2.1c1.5-4.7,3-9.4,4.7-13.9c0.6-1.6,0.7-4.3,3.7-3.5c11.5,3.7,22.2,9.8,33.2,14.5
	c1.7,0.6,2.8,2.4,2.6,4.2c-0.8,27.3-0.5,54.7,0,82c0.1,11.2,0.5,22.4,1.1,33.5c0.3,10.1-0.8,21.5,4.4,30.7c6.8,7,12.2,12.4,14,22.4
	c0.1,0.2-0.4,0.9-0.6,0.9c-13.4,0.3-29.2-2.8-38,9.5c0.1-17.1,3.6-34.8-1.9-51.6C436.9,551,429.2,525.6,425.8,499.4L425.8,499.4z
	 M428.8,661.8c-0.7,11.2-1.4,22.2-1.8,33.3c0.1,14.2-0.9,28.8,0.7,42.8c1.2,5.7-1.4,8.8-5.5,11.4c0.1-0.5,0.2-1.1,0.2-1.6
	c0.1-0.8,0-1.7,0-2.6c-3.3,1.5-3.6,6.1-7,7.4c0.1-0.6,0.2-1.1,0.2-1.7c0-0.7-0.3-1.4-0.3-2.1c-4.9,5.1-8.8,11.4-14.8,15.5
	c-1.2,1-2.6,3.2-4.7,1.2c-0.2,0.1-0.4,0.2-0.7,0.1c-7.8,4.5-17.4,9.9-26.5,8.4c4.7-2.8,11.2-4.1,13.2-9.9c-7,1.7-11.9,9.8-19.9,7.9
	c4.6-3.5,11.8-4.7,14.7-9.8c-2.4-0.7-4,1-6.1,1.6c-6.4,1.3-12.8,2.9-19.2,3.2c-11.5-0.4-27.1,1.4-35.7-7.4c3.1-0.1,5.8,2,8.9,2.2
	c-2.8-6-17.8-7.3-23.9-8.8c4-2.9,9.9-1.7,13.9-4.7c-1.1-0.6-2.4-0.9-3.7-0.9c0.5-1.2,0.3-3,1.4-3.9c-4.5-2.1-9.7,0.1-14.4-0.2
	c-8-0.1-17,0.4-23.9-4.1c4.6-1.4,10.4,1.8,14.4-1.9c-2.2-1.8-4.3-0.7-6.7-0.7c-11.4-3.3-24.3-3.8-34.8-9.3c8-0.7,16.6,1.8,24.3,0.2
	c-7.2-7.2-19.7-3.8-28.9-7c-5.6,1.5-11.1,4.4-16.8,5.7c2.6-4.2,8.8-3.8,12.3-6.9c-4.1-1.8-8.9,1.8-13.2,1.7
	c-7.6,0.9-14.4,5.3-22.2,6.5c-7.9,2-16.1-1.1-24.1-0.1c-4.8-0.6-9.6-1.4-14.5-2c-2.6-1.1-14.7,1.4-12-3.6c3-6.2,6-12.5,11.5-17
	c3.9-3.2,8-6.1,12.1-9c2-1.9,6-2.2,6.6-5.2c-9.9-0.5-15.8,10.9-24.7,13.6c-3.2-6.8,7-13.8,4.7-19.5c-3.6,3.1-3.4,8-5.7,11.7
	c-4.6-7.4,8.8-15.5,7.5-22.2c-2.3,1.1-3,3.6-4.5,5.5c0-0.7-0.3-1.6,0-2c2.6-4.6,3.7-9.6,5.2-14.6c1.3-4.5,4.7-7.8,7.6-11.3
	c2.7-3.2,7-5.9,5.3-11.2c2.6-8,7.6-14.9,13.2-21c3.5-4.5,9.8-7.3,12.3-12.5c-3.4,0.2-5.7,3.4-8.9,4.5c9.5-11.3,23.2-18.6,37.1-23
	c1.9-0.7,3.8-1.5,4-3.7c-1.6,0.3-3.3,0.6-4.9,1c7.4-4,14.6-9,21.1-13.2c-3.8-3.6-16.1,7.3-21.1,6.2c1.8-4,7.4-4.7,10.8-7
	c13-6.9,27.4-1,41.1-1.1c10.5,2.4,19.4,9.1,28.9,14c2.4,1.1,3.9,4.2,6.8,3.8c-0.9-3.2-4.8-4-5.8-7c5.4,1.7,9.9,6.3,14.4,9.8
	c4.5,3.6,7,9.7,12.1,12.7c0-2.2-1.9-3.8-1.9-5.9c4.9,5.3,7.9,12.9,13.2,17.7c1.2-3.3-2.5-6.3-3.2-9.5c7.6,5,10.4,15.2,15.7,22.4
	c2.5,3.1,3.7,7.9,7.2,9.8c-0.2-3.8-2.8-7-3.9-10.5c6.6,8.6,10.7,18.7,21.2,23.6c10.7,7.2,22.8,2.4,33.5-2.1c-2.8-1.6-6.5-1.8-8.9-4
	c3.8-0.7,7.8,0.6,11.6,0.2c2-0.2,3.9-1.3,5.1,1.2C431.5,651.7,429.2,656.8,428.8,661.8L428.8,661.8z M407.2,857.9
	c-5.4-1-0.7-4.6-2.2-8.3c-1.9,1.8-3.8,3.3-4.1,6c-2.9-1.2-3.9-3.6-3.6-6.5c0.1-11.9,8.6-24.4,21.3-24.3c-7.4,6.8-8.2,25.1-5.3,33.2
	C411.3,857.8,409.2,857.8,407.2,857.9z M476.5,854.8c-6.4,3.9-13.9,6.4-21.6,5.1c0.2-0.5,0.4-0.9,0.8-1.3c3.2-3,4.2-7.8,4-11.8
	c-3.5,1.6-2.2,6.2-5.1,8.4c-1.1-2.9,1.2-5.4,0.3-8.4c-4,2.2-3.2,7.2-2.7,10.9c0.3,1.8-0.5,2.2-1.9,1.9c-8-2.2-1.1-13,0.3-18.2
	c2.7-5.7,7-9.8,13.4-11.4c3-2.4,19.4,4.6,16.6,0.2c-22.6-11.3-36.2,4.2-38.6,26.3c-2.4,3-16.8,2.1-26.7,1.6c2-6.3,0.6-20.4,3.2-24.6
	c4-8.1,10.8-13.2,19.9-15.2c6.4-0.9,12,1.7,18.2,2.4c13.5,0.7,25.6,6.3,38,11.8C507.7,839.2,481.5,850.3,476.5,854.8z M498.2,720
	c4.7,3,14.1-4,19.3-2.9c-2.2,3.4-6.2,5.5-8.6,8.7c-5.2,6.8-12.2,14.7-12.6,23.5c3.7-3.8,5.5-9.4,9.1-13.2c0.2,13.8-1.1,27.7-2,41.5
	c0.3,10.1-1,20.1-8.2,27.8c-1.7,2-5.5,1.9-7,4.1c2.6,1.7,8.2-1.3,9.6-3.8c1-2.2,1.5-1,2.1,0.1c0,8.1,0.4,15.5,0.7,23.6
	c0,1.3-0.3,1.1-1.3,0.7c-2-1-4.5-1-6-2.6c-1.3-0.3-2.6-0.8-3.9-1.4c-2.4-0.4-5-2-7.4-3c-21.6-10.2-20,1.9-23.1-10.7
	c-4.2-3.7-0.5-10.8,0.7-15.3c0.5-1.1-0.9-3.5-1.9-4.8c-9.5-11.9-17.3-25.1-23.2-39.2c-5.1-24.5-3.4-50.3-1.9-75.3
	c0.5-14.6,1.3-29.3-1-43.8c-0.5-11.1,3.6-21.7,6-32.4c0.1-0.5-0.5-1.3-0.8-1.9c-6.4,6-4.9,16.8-8.1,24.5c-4.3-5.3-1.5-18.7,2.7-24.2
	c4.7-5.7,8.4-11.7,9.7-19c4.7,12.4,1.6,25.5,0.4,38.3c-0.8,6.6,0.2,13.8-4.2,19.4c-1.6,1.5-1.2,4-1.8,6.1
	c17.1-20.1,18.4-23,45.9-23.8c4.7-0.4,4.5-0.3,6.2,4.5c2.6,6.8,4.9,13.8,8.5,20.1c11.8,16.4,30,28.9,49.2,34.9
	c6.4,2.2,5.3-7.9,9.4-10.5c0,6.8-0.7,17.5-9,18.9c-3.9,0.3-1.8-5.5-4.7-6.7c-1.6,1.4-0.8,3.6-0.3,5.3c2.3,6.3,0.8,12.4-1.3,18.4
	c-0.9,2.6-3.1,2.7-5.1,3C521.9,710.7,508.9,713.5,498.2,720z M561.4,821.2c5.6-26.2-3.7-20-3.8-33.5c0.8-7.6,1.2-15.3,1.2-22.9
	c-5.8-13.9-12.8-27.9-21.6-40.3c-1.5-3.6-9.1-11.3-2-11.9c18.9-2.5,38.2-5.5,57.3-2.8c12.6-2.7-25.6-6-27.5-5.4
	c-20-0.4-25.5,11.6-20.5-10.7c3-4.4,9.8-3,11.6-10.4c2-7.5-1.5-15.1,1.2-22.6c1.8-5.8,4.2-11.5,3.8-17.8c-0.3-5.1,0-10.1-0.1-15.1
	c0.5-5.7-2-12.3,0.4-17.4c3.4,13,3.8,27.3,7.2,40.4c3.4,8.7,7.2,17.3,11.5,25.6c5.6,10.3,28.9-17.2,28.7-24.5
	c0.7-14,6.2,4.9,8.7,8.4c8.8,18.8,17.9,38,21.2,58.8c1.8,18.3-7.5,34.9-11.2,52.3c-2.8,10.5-3.8,21.6-7,32c-2.8,5.6-11.3,3-15.2,7.5
	c-8,3-16.2,12.6-22.4,15.7C579.3,828,557.9,828,561.4,821.2L561.4,821.2z M611.4,818.4c-3.3,0.1-7.4,2.3-10.2,0.1
	c1.7-1.8,8.3-5.5,10.4-8c1.2-0.1,2,0.2,1.9,2.2C613.1,814.8,614.3,818.1,611.4,818.4L611.4,818.4z M677.9,816.8
	c10.1,2,23.5,2,28.6,12.6c3.1,5.5,7.3,14.6-2.3,16.3c-2.6,0.2-5.5,1.8-6.3-1.6c-2-5.6-5.1-10.8-9.2-15.1c-6.3-7.3-16-8.9-25.2-9.5
	c-1.6-0.4-2.7,0.7-3.8,1.8c7.4,2.5,15.7,1,22.2,6.6c2.6,1.9,5.3,3.6,6.1,7.2c0.3,1.4,1.7,2.6,2.3,4c0.7,1.2,0.7,3.2,1.7,4
	c-0.2-0.1-0.4-0.1-0.5-0.1c-1.4-1.6-3-3.1-4.6-4.5c-0.4-0.3-0.8-0.5-1.3-0.7c-1.3,5.3,4.9,5.8,7.6,8.4c-5.8,1.4-12-0.4-18,0
	c-8.7,0.2-17.4,1-26.2,0.4c-29.4-3.6-58.9-5.7-88.5-6.2c-1-0.2-1.7-0.6-0.9-1.7c1.5-2.6,3.3-5.1,5.3-7.4c6.3-2.8,14.9,2.5,21-1.8
	c4.6-3.3,8.7-9.9,14.9-9.4c9.3,2.6,19.3,1.5,28.7-0.1c20.3-0.9,73.4-20.1,80.9,7.5c-7.8-7.5-11.1-10.8-22.6-12
	c-4.7-0.3-10.5-2.4-14.8-0.1C673.5,817.7,676.1,816.3,677.9,816.8L677.9,816.8z M708,840.3c-1.2-2.6-0.9-8.1-3.7-8.9
	c-0.1,0.3-0.1,0.7-0.2,1.2c-0.3,0.9-0.7,1.9-1.1,3.1C704.5,837.4,705.6,842.1,708,840.3z M565.7,787.6L565.7,787.6
	c19.4,2.1,39.7-9.9,50.3-25.4c-7.4,3.1-12.8,10-19.8,14.1c-7.6,4.9-16.1,8.1-25.1,9.4C569.4,786,566.7,784.9,565.7,787.6z
	 M554,697.9c4.1,0.1,7.2-2.5,11-4.3c5.7-2.6,11.1-5.5,16.8-7.6c8-3.7,17.8-4.3,25-9.5C599.6,674.8,557.3,691,554,697.9z
	 M584.5,733.5c-12.7-6.5-27.8-9-39.3-18.6c-4.5-2-5.9-1.5-1.5,2.2C551.7,723.1,575.1,735.4,584.5,733.5z M567.1,89.8
	c4.5,4.2,5.3,11,10.5,14.3c-0.4-5-4.1-9.2-6.4-13.4c-2.8-4.6-7.2-10-13.5-7.9c0.9,0.7,1.7,1.3,2.5,2C562.5,86.3,564.7,88,567.1,89.8
	z M551.5,728.3c-3.4-2.5-6.9-4.7-10.5-7.2c-1.9-1-3.4-2.3-5.3-2.7c2.6,5.3,12.4,12.2,18.2,12.5C553.2,729.9,552.4,729,551.5,728.3z
	 M547.5,266.5c2,0.1,3.8-2.8,3.8-4.9c-0.7,0.6-1.5,1.2-2.3,1.8c-0.6,0.3-1.2,0.6-1.8,0.9c-1-4.9,4.2-8.7,2.2-13.9
	c-2.9-0.5-4.4,9.1-5.5,11.5C543.5,264.2,545.6,265.7,547.5,266.5z M461,145.7c5.7,3.1,4.5,9.2,10.9,12.3c13,8,30.5,5.9,42.7-3.1
	c8.2-5.8,7.6-20.6,0-24.6c-10.6,0.9-21.2,2.8-31.5,5.5C476.5,138.6,463.7,137.8,461,145.7z M509.8,133.6c5.2-0.5,7.4,1.7,7.9,7
	c0.8,20.3-32.9,24.7-45.5,13.9c-5-5.1-9.9-11,0.5-13.2c5.8-2.8,6.8,8.1,14.5,7.9c7.8,0.5,16-2.7,17.4-10.5
	C505.4,134.7,505.7,134,509.8,133.6z M487.5,141.2c1.2-1.1,1.2-1.1,2.3-0.1c0.3,7.2,10.2,1.5,10.1-3.4c0.1-1.7,0.5-3,2.3-3.5
	c4.6,13.1-21,18.2-23.1,4.5C483.3,138.4,482.8,146.4,487.5,141.2z M501.7,107c0.3,1,0.3,2.4,1.1,3c4.1,3.5,6.2,8.3,8.7,13
	c0.5,1.2,1.6,1.5,2.6,2.2C514.8,119.9,507.3,108,501.7,107z M499.6,78.4c5-3.8,5.7-1.4,10.7-1.6c-4.5-8.5-16.4-4-23.2-1.1
	c3.9,3.7-1.8,4.5-4.3,5.6c-10.1,5.5-22.4,8.2-28.9,18.5c-5.6,8.9-9.9,18.4-11.5,28.9c1.3-0.2,2.5-1.1,3-2.4
	c3.3-9,8.2-18.7,14.9-25.4C473.2,93.2,487.2,87.1,499.6,78.4z M499.8,104.1c-1.2-3.7-8.2-2.6-11.1-2.1c-15.1,4.7-23,15.8-26.1,30.8
	c-0.5,1.5,0.1,3.2,1.4,4.1C467.3,119.5,480.2,101.9,499.8,104.1z M494,337.9c-2.6,4.5-1.7,9.9-3.2,14.8c-2.1,8.1-4.5,16.1-7,24.2
	c-0.8,4.3-3.6,8.3-2.4,12.4C486,383.8,498.1,343.1,494,337.9z M466.5,798.1c6.6,0.7,11.8-5.5,17.9-8c4-3.2,9-6.6,10.3-11.6
	c-5.9,4-11.2,9-17.2,12.8C474.1,793.9,469.2,794.5,466.5,798.1z M479.7,214.6c-4.1-3.9-7.4-9.4-12.4-11.9c0.5,1.3,0.7,2.6,1.9,3.4
	c6.4,6.4,12.7,12.9,19,19.2C486.3,221.1,482.6,218.1,479.7,214.6z M427.3,842.3c-2.3,3.5-1.6,8.4-4.3,11.7c-2.8-3,1.2-6.6-0.4-10
	c-0.8,0.6-1.8,1.1-2.2,1.9c-0.6,1.7-1,3.5-1.3,5.3c0.7,3.3,1.4,6.8,5.4,4.5C426.8,853.7,431.5,844.3,427.3,842.3z M401.7,684.8
	c0.5,3.3,9.9,7.1,13.4,7.8c1.3,1.1,3.1,1.2,4.5,0.3C419.4,691.5,402.1,683.2,401.7,684.8z M386.9,111.1c-8.5,0-16.5-2.4-24.7-4.3
	c0.2,0.4,0.4,0.8,0.7,1.2c3.1,1.3,6.1,2.5,9,3.5C373.5,112.5,390.1,115,386.9,111.1z M359.6,102.8c0.6,0.4,1.1,1.1,1.8,1.2
	c2.2,0.6,4.5,1,6.8,1.6c4.5,0.1,8.7,2.3,13.1,1.7C375.6,106.3,364.2,100.7,359.6,102.8z M362.6,97.4c-0.4,0.1-0.9,0.2-1.3,0.3
	c4,1.9,16.6,8.7,19.9,5.9c-7.6-3.6-14.8-8-21.5-13c-2.9-2-5.1-4.3-8.5-5.2c2.4,5.5,9.4,7.2,13.2,11.7
	C364,97.1,363.3,97.3,362.6,97.4z M358.5,136.9c3.6,2.4,7.8,5.9,12.2,5.2c-2.6-3.2-7.5-4.1-10.9-6.2
	C359.4,135.8,358.9,136.4,358.5,136.9z M359.8,142.1c1.8,2.4,5.3,2.8,7.8,4.3c0.3,0.1,1-0.5,1.4-0.9c-2.7-1.3-5.3-2.4-7.8-3.4
	C360.6,142,360.2,142,359.8,142.1z M342.9,708.1c-0.8,0.3-1.5,0.7-2.2,1.1c5.7,4.4,22.5,13.1,28.9,9.2c-1.9-1.7-4.2-1.2-6.4-1.5
	C356.1,714.7,349.3,711.8,342.9,708.1z M351.9,749.8c-4.8,1.3-10.5-0.4-14.6,2.6c0.7,0.5,1.3,1.3,1.9,1.3c3.5-0.2,7.1-0.7,11-1.1
	c4.6-1.7,10.3-1,13.3-4.8C359.4,747.2,355.7,749.5,351.9,749.8z M342,714.9c-0.8-0.8-1.6-1.5-2.6-2.2c-4.3-3.4-7.5-7.7-12.2-10.3
	c-0.4,5.3,10.3,14,15.6,14.2C342.7,716,342.4,715.4,342,714.9z"/>
</svg>
