<?xml version="1.0" encoding="utf-8"?>
<!-- Generator: Adobe Illustrator 25.2.3, SVG Export Plug-In . SVG Version: 6.00 Build 0)  -->
<svg version="1.1" id="Слой_1" xmlns="http://www.w3.org/2000/svg" xmlns:xlink="http://www.w3.org/1999/xlink" x="0px" y="0px"
	 viewBox="0 0 864 864" style="enable-background:new 0 0 864 864;" xml:space="preserve">
<style type="text/css">
	.st0{fill:none;}
	.st1{fill:#F0CA8A;}
	.st2{fill:#FBAAA0;}
	.st3{fill:#806F61;}
	.st4{fill:#FFFFFF;}
	.st5{fill:#CD5B19;}
	.st6{fill:#AEA077;}
	.st7{fill:#E97214;}
	.st8{fill:#CDAF93;}
	.st9{fill:#826459;}
	.st10{fill:#8E9A61;}
	.st11{fill:#32485C;}
</style>
<path class="st0" d="M602.7,587c1.2,23.8-12,9.9-12.8,21.6c-1.7,5.6,0.6,14.2-9.3,14.5c0.1,6.3,25.4,21.6,26,10.7
	c0.9-17.3,3.4-33.6,5.7-50.9C609.3,584.8,606.8,587.9,602.7,587z"/>
<path class="st1" d="M609.6,647.3c-2.1,17.4-2.4,13.8,10.1,19.4c19.5,8,54.2,15.5,72.1,2.3c5.7-28.5,9.9-55.6,14.8-84.5
	c0.7-2.9,1.4-5.7,2-8.5c0.4-2.3,0.7-4.5,1-6.8c-30.7,0.4-61.5-3.4-91.1-12.2c-1,4,0.1,8.7-0.7,12.8c-1.5,4.5-2.9,8.8-1,13.7
	c0.3,11.3-3.1,22.9-4,34.3C611.5,627.6,610.7,637.5,609.6,647.3z M626.8,554.9c24.5,4.9,49.2,8.4,74.1,10.4c0.9,0.1,1.7,0.1,2.6-0.1
	c1-0.1,2.1-0.5,3.1-0.7c-11.8-8-28-9.1-42.1-10.7c-14.4,0.3-29.4-3.8-43.5-2.2C622.2,553.6,624.4,554.8,626.8,554.9z M614.2,566.3
	c-0.3-1.3-0.8-2.5-1.5-3.6c-2.7-0.2-5.3-0.3-8-0.4c3.3,2.7,5.7,6,9.1,8.5C614,569.4,614.2,567.9,614.2,566.3z M601.9,642.6
	c-10.7-2.4-19.8-6-25.2-17c-0.9-0.5-1.9-0.9-2.8-1.3c-3.1,12,16.9,22.9,27.2,24.5C606.2,649.6,606.4,644.1,601.9,642.6z"/>
<path class="st2" d="M461.5,223c-3,3.5,14.8,10.1,16.8,9.2c6.5-4.8-2.4-7.4-7.5-7.1C467.8,224.4,464.6,223.7,461.5,223z"/>
<path class="st3" d="M544.1,167.4c-3.5-6.4-20.3-43.5-28.3-28.2c-4.6,9-6.6,16.3-2.8,25.7c3.8,4.7,12.2,1.8,17.5,3.6
	C534.7,168.6,549.9,178.2,544.1,167.4z M511.8,190.9c1.6-11-3.8-21.1-4.4-31.7c0-0.7-1.1-1.5-1.8-2.1c-0.3,0.8-0.7,1.5-1.2,2.1
	c-0.6,0.9-1.2,1.8-1.9,2.6c-0.3-1.2-0.7-2.4-1.2-3.6c-0.1-0.5-0.7-0.8-1-1.2c-1.7,6.5-21,9.7-27.3,12.5
	c-11.4,4.9-19.2,30.5-4.9,35.6c-9.2-16.7,8.5-11.5,18.3-7.8c7.2,3.1,13.5-2.8,20.9-2.1C510.8,195.3,511.3,194.1,511.8,190.9z
	 M398.6,142.9c-8.4,22.4-18.1,26.6,11.5,20.4c11.5-0.3,24.1-3.5,35.3-0.3C447.6,139.5,411.5,116.1,398.6,142.9z"/>
<path class="st4" d="M529.7,187c4.8-0.3,7.5-6.6,11.3-9.4c-3.2-6.6-11,1.1-14.6,4.2C524.5,184.3,527.1,185.6,529.7,187z
	 M406.9,170.4c-3.5-2.1-9.4,1.2-13.6,1.2c-0.8,2.9,9.3,6,12.7,8.2c13.4,1.2,26.5-4,35.3-14.1c-11.7-1.5-8.3,11.2-21.2,10
	C415.1,175.4,409.5,176.6,406.9,170.4z"/>
<path class="st5" d="M527.6,172.6c-1.2,1-2.2,2.1-3.2,3.2c-0.2,0.1-0.3,0.2-0.4,1.4c1.3-1.1,2.8-2.2,4.1-3.4
	C528.2,173.7,527.7,172.9,527.6,172.6z M429.2,166.7c-12.2,5.5-13.4-1.8-19,2.7C414.3,172.2,429.1,174,429.2,166.7z"/>
<path class="st6" d="M380.8,634.5c-14.7-1.8-29.6-2.5-44.3-3.6c-6.5,1-6,12-11.9,13.6c-4.9-6,3.1-17.9-10.9-15.4
	c-9.5,1.8-18.1-4.6-26.6-5.7c-4.6,2.8-6.6-3.1-11.6-1.8c11.6,30,20.1,53.4-2.4,82c-1.5,2.1-2.9,5.5-2.3,7.7
	c2.9,9.9-2.1,21.5-9.8,26.3c-7.8,4.5-4.3,14.4,3.9,15.2c9.3,1.5,5.8-0.2,10.8-5.6c18.3-10.6,38.3-17,58.1-24.1
	c6-1.7,11.6-5.6,18.1-4.5c-3.2,5.7-10.5,6.9-16.1,9.6c-21.2,7.3-42.5,14.5-62.3,25.2c1.1,0.6,2.2,1.2,3.4,1.5
	c4.1,0.7,8.2,1.3,12.2,2.3c0.9-0.8,1.8-1.6,2.8-2.4c0-0.1,0-0.1,0.1-0.2c4.3-3.2,9.6-6.2,12.9-8.3c0.3-0.2,0.7-0.4,1-0.7
	c15-10.1,35.5,2.6,43.4-8.7c14.8-21.2,25.6-44.9,37.2-68C391.6,658.1,398.1,636.8,380.8,634.5z"/>
<path class="st7" d="M348.8,358c0.2,1.1,0.5,2.1,0.7,3.2c9.1-4.6,12.8-21.5,1.9-25.6c-13.9,9-8.3,6.9-2.6,19.9
	C348.8,356.3,348.7,357.2,348.8,358z M325.6,478.6c16.2-11.1,21.4-31.1,16.8-50.1c-1,2.3-2.1,4.6-3.4,6.9
	C321.8,457.7,324.2,448.1,325.6,478.6z M325.7,415.9c6.6-5.7,7-17.3,12.8-24c2.4-3.4,4.4-6.4,4-10.7c-1.9-5.1,5.1-12.6-4.1-10.1
	c-3.9,6.2-9.1,11.9-12.3,18.4C326.3,398.1,324.1,407.3,325.7,415.9z"/>
<path class="st8" d="M391.4,139.1c-1.4,0.6-2.9,1.2-4.4,1.5h-0.1v0.1C388.4,140.3,390.3,140,391.4,139.1z M447.2,134.1
	c-0.1-0.8-0.1-1.7-0.1-2.5h-0.2C446.9,132.5,447,133.3,447.2,134.1z M536.3,198.6c-8.8-6.8-13.4-8.3-19.2-18.7
	c-2.4,2.6-0.4,5.8-0.3,8.9c0,15.3-4.5,37.1-21.5,41.7c-5.6,3.2-2.7,18.8-19.5,20.1c2.1-5.9,9.9-7.7,12-13.7
	c-25.8,4.6-43.9-20.9-58.5-38.4c-3.8-7.5-10.1-1.3-17.3-1.3c2.4-4.7,6-6.5,10.1-7.2c5.2-0.9,11.4-0.1,16.5-1.8
	c3.5,5.2-4.1,4.7-7.1,6.5c11.4,9.3,16.1,26,34.1,24.9c12.9-2,31.6,14.8,39.6-2.4c-7.7,1.1-15.8,3.1-23.5-0.3
	c-14.9-5.4-32-13.9-23.9-32.6c-4.2,1.8-8.3,4.9-13.1,3.4c2.4-5.8,10.3-6,14-10.3c5.9-6.3,10.8-13,20.2-14.9c1.4-0.4,2.7-0.9,3.9-1.3
	c14.1-4.9,19.4-9.7,21.3-14.8c1.4-3.5,1-7.3,0.8-11.5s-0.1-8.8,1.9-13.9c-3.4-0.9-6.6-2.3-8.1-4.1c-0.5-0.1-1-0.3-1.5-0.6
	c2.1-2.1,6.5-3.5,11.1-3.9c-3.4-0.9-6.7-1.7-9.7-2.6c0,0.1-0.1,0.2-0.1,0.3c-1.2,1.3-2.3,2.4-3.2,3.6c-0.7-1.7-1.1-3.4-1.2-5.2
	c-2.2-0.7-4.3-1.6-6.3-2.7c-4.3,3.8-11.4,2.9-16.7,2.1c-3.5,3.7-4.4,0.2-5.2-1.9c-0.3-1-0.6-2-1-3c-11.4-2.7-29.1-9.3-33.6-9.5
	c-22.6-2.6-34.5,18.2-41.2,37.3c7.9-10.2,17.6-19.8,29.4-23.8c3.8-1.4,7.9-2.1,12-2.1c5.4,0.3,13.8,4.9,19,8.6h0.1
	c0.3,0.1,0.6,0.3,0.9,0.5c0.4,0.3,0.7,0.6,1,1c5.3,6.3,3.7,26.3,3.7,35.5c0,1.3,0.1,2.4,0.1,3.2c-1.5,13.8-23.2,27.5-35.9,30.8
	c-0.1,0.1-0.1,0.1-0.1,0.1c-13.1,1.6-26.1-0.4-38.7,5.7c-3,2.7-5.8,5-8.6,7.5c-0.4,0.4-1.7,1.6-2.8,2.6c8.4,13.2,19.9,33,27.8,40.6
	c13,10.5,25.5,25.3,43.8,24.9c13.6,2.6,27.2,13.9,41.6,7c17.9-8.3,35.8-17.3,48-33.4c6.6-8,11.9-17,15.5-26.7
	c-3.5-4-7.5-10.6-9.9-13.1C536.7,199,536.5,198.8,536.3,198.6z M430.5,221.8c-4.5-3-5.2-28,0.7-15.3c1.6,11,6.6,19.8,13.8,27.7
	c1.3,1.5,2.5,3.2,3.4,5C437.7,238.8,435.6,229.2,430.5,221.8z M837.1,221.2c-14.8-13.6-37.6-15.4-55.8-5.3c-1.2,2.2-7.3,3.2-1.8,5.5
	c15.6,14.8,18.1-0.6,39.8,5.9c14.1,4.7,26.9,13.6,39.4,21.4C858,236.5,844.3,230,837.1,221.2z M828.8,237.5c-10-9.1-24.8-9-37.7-3.6
	c3.7,1.5,7.2,3.6,10.2,6.2c1.7,1.1,3.4,3.3,5.2,3.4c22.6,0.3,34.5,21.5,43,39.3C857.8,269.7,838.6,246,828.8,237.5z M750.1,218.4
	c4.9,0.4,15,3.5,15.4-4.2c4.7-23.7,28.7-35,49.1-42c-14.4-13.9-43.2,6.4-55.1,17.9C758,196.5,742.1,214.4,750.1,218.4z M711.1,282.9
	c17.6-2.9,32.8-14,51-14.8C746.6,250,688,271.2,711.1,282.9z M595.6,579.5c11.2,4.9,15.3-0.8,9.1-11.1c-0.1,0.2-0.2,0.2-0.8,1
	c-0.2,4.6-4.1,5.9-7,8C596.4,578.1,595.9,578.8,595.6,579.5z M570.4,548.3c-2.4-3-4.7-4.1-8.3-6.2c-3.3-1.5-6.5-3.2-9.9-4.6
	c-0.7-0.2-1.5,0.2-2.4,0.3C553.8,545.8,561.7,550,570.4,548.3z M388.1,775.3c-7.8-8.6-13.6-19.4-26-21.8c9.9,9.7,19.5,20,26.8,31.9
	C388.9,782,390.8,778,388.1,775.3z M330.2,755.6c16.2,9.3,34.4,12.5,41.8,32.4c26.3,0.6-8.3-24.6-13.2-32.6
	C350.8,750.5,339.3,755.1,330.2,755.6z M326.1,758.7c-3.9-5.1-23.5,5-17.1,7.9c12.3,5.2,13.9,21.8,27.6,23.3
	c9.1-0.2,20.5,6.2,26.9-3.2c0.8-1.2-1.2-5.1-2.8-6.9C351.3,769.9,338.6,764.8,326.1,758.7z M253.8,766.5c-1.1,1.6-2.5,3-4.1,4
	c-6.8,4.9-16.6,6.3-19,15.2c-0.1,3.3-4.7,8.3-0.3,10.3c22.4,0.4,43.8,4.1,66.2,2.2c1,0.1,2.1,0,3.1-0.2c0.9-0.2,1.7-0.4,2.6-0.7
	c-13.7-12.3-32.5-18.2-49.3-25.8c0.4-0.2,0.7-0.4,1.1-0.6c10.8-4.4,37.8,12.7,46.5,19c5.2,4.1,9.7,9.1,17.1,7
	C344.9,790.5,260.5,747.9,253.8,766.5z"/>
<path class="st6" d="M159.1,554.7c-7.2-0.6-3.1-13.7-5.7-19.2c-17,14-39.2,19.8-61.1,19.5c-6.9-1.3,5.4,18.9,6,22.3
	c4.7,10.1,10.3,19.8,14.4,30.1c2.4,6.4,6.2,9.5,12.5,10.5c19,6.2,65.9,8,77.2,21.1c-23.2-2.1-46.6-10.2-70-13.6
	c12.5,29.9,33.7,57.2,38.1,89.8c0.6,10.8,1.9,21.5,2.9,32.3c0.1,1.5-0.4,3.2,2.3,1.6c18.1-9,35-19.5,51.6-30.4
	c-4.4,16.5-35.7,28.3-50.6,35.6c-6.6,3.9-3.5,16.9-5.4,24.9c-0.4,1.3-0.7,2.8-1.1,4.1s-0.5,2.8-0.8,4.2c27.7-10.9,55-23.8,82.8-34.5
	c2.4-1,2.9-1,1.1-3.4c-11.5-16.3,17.6-12.9,13.7-37.6c-17.5,15.9-39.7,45.4-61.6,52.6c5.8-10.2,17.8-15.2,25.6-23.6
	c20.7-22,50.8-44.3,51.4-77c-4.4-17.8-5.2-49.4-30.7-47.4c-16.3-1-32.9-4.3-49-7.2c-10.6-2.2-22.9-1.5-29.1-13.6
	c-6.2-11.4-14.5-22.3-12.6-36.1C161,558,160,554.8,159.1,554.7z"/>
<path class="st9" d="M392,138.6c-0.1,0.2-0.3,0.4-0.6,0.5c-1.1,0.9-3,1.2-4.5,1.6v-0.1c-0.1,0.1-0.2,0.1-0.3,0.1
	c-4.6,7.7-10.5,22.4-18.1,33.6c-0.8,5.9-0.4,14.5-1.4,20.9c0.5,0.7,1,1.6,1.5,2.4c2.3-9.9,16.8-14.1,25.5-16.4
	c-16.8-16.2-4.9-40.1,11.4-52c15.9-11.5,39.8,7,43.3,24.7c0.2,1.8,1.4,3.4,3.1,4.1c0.3-0.6,1.1-1.5,0.9-1.8c-2.7-7,1-15.8-5.5-22
	c-0.1-0.1-0.1-0.1-0.1-0.1c-0.3-0.8-0.4-1.7-0.3-2.5h0.2c0.1-4.3,0.7-12.7,0.8-16.7C426.7,116.8,404.2,116.9,392,138.6z
	 M536.3,191.8c3.8,4.4,7.2,9.1,10.4,13.9v0.1c0.6,0.8,1,1.6,1.5,2.4c3.7-12.1,4.3-24.8-0.6-35.7C545,184,531.8,189.3,536.3,191.8z
	 M516.8,121.7c-1.9,0.4-5.6,0.1-9.2-0.7c1.5,4.9-0.4,18,0.6,22.7c0.1,0.3,0.1,0.7,0.3,1c1.9-1.6,2.1-3.2,2.1-5.5
	c10.4-26.9,30.5,11.1,35.8,22.7C547.9,150.3,530.8,118,516.8,121.7z M790.6,236.5c-0.4-0.3-0.7-0.7-1-1.1c-1,9.1-10.3,15.1-18.1,8.8
	c5-4.4,13.1-1,14.4-9.3c3-2.8-10.3-10-12.8-12.7c-1.6-0.8-3.5-0.9-5.2-0.1c-3.7,2.1-17.2,3.7-19.1-0.2c-2-8.9-17.1,32-21.5,34.8
	c5.2-1.3,18.2,1.5,16.4-7.6c1-2.9,1.8-6.4,0.2-9.5c10.7,0.7,21.3,6.2,21.5-8.9c0.1-1.2,1.2-2.4,1.8-3.5c10.2,7.7-2.9,21.5-13,18.6
	c-5,0-6.1,3.5-6.5,7.4c-0.9,4.6,6.5,3.1,9.7,6c5.2,2.7,15.9,12,4.8,14.4c-4,0.4-8-0.7-11.5,1.8c10.3,4.4,13.4,14.8,12.3,24.9
	c0,1.1-1.5,2.1-2.5,3.1c-4.1-7.8-4.4-30.4-17.2-26.1c-1,0.5-1,0.4-0.2,1.5c5.7,7,5.2,21.9-5.2,23.6c2.7-4.6,7.5-25.5-3-22.1
	c-14,5.8-34.9,7.1-13.1,23c2.6,2.9,6.2,4.5,10.6,2.4c4.6-1,10.2,1.9,15,1.9c4.3-0.1,8.8-0.5,13.1-0.7c1.9-0.2,3.7-0.2,5.6-0.1
	c8.6,0,7.7-10.2,11-15.8c6.3-10.9,8.4-25.5,17-34.5c3.1-2.9,9.3-3.8,9.4-8.6C797,246.9,795.5,239.6,790.6,236.5z M783.1,248
	c2.4,2.4,4.7,4.9,6.8,7.6C787,262,779.9,253,783.1,248z M708.7,297.3c0.8-10.1-1.6-9.3-6.5-16.5c-3.8,6.2-4.1,14-10.5,18.7
	c-4.2,4.4-1.3,12.4-7.8,15.4c-27.6,21.5-31.3,26.9-66.1,36.9c-7.2,3-13.8,7.5-22.1,6.4c-1,0.1-1.9,0.4-2.7,1
	c-18.4,10.1-39.7,8-54.4-6.7c-8.6-8.4-19.6-12.8-27.8-21.3c-4.9-6.5-9.2,4-12.8,7.2c-6.7,10.3-74.7,82.3-62.6,86.3
	c1.3,0.4,1.8,3.9,4.1,1.1c0.1-0.2,1.2-0.1,1.4,0.2c9.6,14.9,22.1,27.7,36.7,37.7c13,9.7,63.3,52.6,76.5,49.2c5,0.2,9.9,5.5,14.6,0.2
	c10.6-10.6,22.6-20.1,32.8-31.3c22.2-14.8,47.4-26.2,66.4-45.7c10.1-10.6,18.5-22.8,28.7-33.3c15-16.5,35-28.3,47.5-46.8
	c4.3-6.8,9-13.5,11.7-21c2.1-9.1,6.7-15.9,12.6-23.1C747.9,309.6,720.8,318.5,708.7,297.3z M490.4,450.8c-2.4-3.3-1.7-7.1-2.4-11.3
	c-0.3-5-0.7-9.4-1-13.9c-0.1-1,0.8-1.8,1.2-2.6C494.8,428.4,494.3,444.4,490.4,450.8z M498.7,464.3c-0.9-1.3-1.7-2.7-2.4-4.1
	c0-5.7-0.1-10.9,0.1-16c0.1-1.6,1.1-3.1,1.9-4.6C501.7,445.4,501.3,458,498.7,464.3L498.7,464.3z M510.3,465.2
	c-1.1-2.1-0.6-4.9-0.6-7.5c1.9-1.3,4-0.4,5.2,2.1h0c5.2,3,3.9,8.5,5.8,12.8C518.6,478.2,512.1,467.4,510.3,465.2L510.3,465.2z
	 M606.3,464c-7.9-0.7-9.6-9.7-12.2-16.2c2.6-3.6,4.1,1.5,5.7,3.2c1.5,3.8,1.6-0.4,3-2.1c1.9,2.9,5.3,6.2,4.4,10
	c-0.5-0.4-0.9-0.7-1.5-1c-0.3-0.3-0.7-0.5-1.1-0.6C604.2,459.7,606.8,461.3,606.3,464L606.3,464z M614.6,456.8c-3-2.6-6.4-5.4-3-9.3
	C615.6,446,615.3,454.2,614.6,456.8L614.6,456.8z M704,336.5c0.1-1.7,0.5-3.3,0.3-5c-0.2-1.7-0.6-3.5-1.1-5.2
	c-0.8,0.4-1.4,1.1-1.8,1.8c-1,2.2-2.3,4.2-3.8,6c-0.6,0.7-2.1,0.7-3.1,1c0.5-3.7,3-6.9,3.5-10.5c0.9-5.1-0.9-10.4,1.4-15.2
	c5.8,3.3,6.2,11.8,9.1,17.4C709.9,331.1,706.8,334,704,336.5z M315,487.4c-4.1-0.7-8-5.3-12.1-5.3c-6.5,1-14.8-10.4-12.2-14.6
	c11.3-4.4-11.7-31.3-18.8-32.9c-45.2-20.3-97.6-17.6-144.6-7.1c11.8,7.8,6.4,8.6,1.2,17.7c3.5,7.1,4.3,14.5,3.9,22.2
	c3.4,8.1,10.8,14.9,8.2,25.1c2.7,5.5,5.6,11.7,8,17.7c-0.1,4.4-3.2,7.2,2.1,9.1c1.8,1.6,1.7,4.7,2.2,6.9c0.4,8.7,8.3-0.4,7.2,6.4
	c-1.8,24.3,4.2,11.4,6.3,25.4c-0.1,8.8,0.1,17.4,6,24.4c6.1,13.9,16.9,20.4,31.8,21.8c18,1.9,36.1,4.8,53.9,8
	c7.4,0.5,13.9,7.1,21.9,3.6c18.4,7.6,37.8,6.5,57.3,9.8c32,1.8,63.2,8,95.1,9.6c18.4-3.3,37-2.5,55.5-4.9
	c13.2-2.4,27.2,0.6,39.7-6.3c17.4-2.3,35-4.6,52.7-5.4c7.7-3.9-0.3-20.4,11.4-20.6c1.8-0.1,5.1-2.3,5.2-3.6c0.3-2.8,1.9-6.2-1.8-8.7
	c-16.8-10.7,13-13.3,2.2-26c-14.4-14.7-45.6,4.2-50.8-20.5c-0.5-3.5,0.1-8.4-4.5-10c-6.1-2.1-12.8-5.2-18.8-4.7
	c-5.4,0.4-11.4,4.2-15.4,8.3c-11.9,12.3-26.7,19.2-42.5,25.1c1.5,2.6,4.8,3,6,5.9c-4.2,1.4-7.6-2.1-11.6-2.6
	c-10.2,0.1-15.9-8.4-25.2-11.4c-5.5-2.2-11.8-3.1-16.2-6.6c-11.6-8.6-25.7-12.1-38.1-19.2c-16.4-6.3-32.2-14.8-47.1-24.2
	C326.3,496.5,323.3,488.6,315,487.4z M184.8,543c-1.2-3.2,1.2-5.2,2.1-8.5c2.4-6.6,4.7-12.7,7.3-18.7c0.3-0.8,1.6-1.3,2.3-2
	C201.9,519.3,190.9,540.4,184.8,543z M196.5,535.7c0.5,0.7,1.8,1.6,1.6,2.2c-0.5,2.2-1.1,4.4-1.9,6.5c-1.4-0.2-2.8-0.5-4.1-0.9
	C193.5,540.8,195,538.2,196.5,535.7L196.5,535.7z M195.5,555c-0.4-0.7-1.3-1.4-1.2-2.1c0.5-2.5,1.2-5.1,2-8c1.4,0.4,2.8,0.9,4.1,1.5
	C198.6,549.2,197.1,552.1,195.5,555L195.5,555z M541.5,612.8c-0.2,0.7-0.4,1.4-0.8,2.1C536.5,613,536.4,596.4,541.5,612.8
	L541.5,612.8z M528.7,603.5c1.7,1.2,3.2,2.6,4.6,4.1c0.7,2.8,1.4,4.9,1.9,7.3c0.2,0.5-0.5,1.2-0.8,2
	C531,615.4,527.3,607,528.7,603.5L528.7,603.5z M490,102.6c-0.3,0.5-0.5,0.9-0.8,1.3c1.6,0.2,3.4,0.4,5.2,0.7
	c1.5-7.2,8.5-11.9,15.7-10.4c0,0,0,0,0.1,0c-3.2,4.1-7.5,6.9-10,11.4c17.6,3.4,40.6,11.4,41.5,27.2c12.4,22.1,13.1,47,13.8,71.5
	c6.6-16.6,2.6-54-0.5-72.4c-10.5-28.2-15.9-46.1-46.5-57.2C498.1,73.1,495.7,95.8,490,102.6z M528,94.5c-0.3,0.7-0.4,1.6-0.9,2.1
	c-2.7,2.5-5.5,4.9-8.3,7.5C499.2,109.4,520.2,90.9,528,94.5z M518.6,85.1c-2.8,4.4-8.9,3.5-13.4,5.7c-1.7,0-3.4-0.1-5-0.5
	C503,86.3,514.7,82.4,518.6,85.1L518.6,85.1z M507,199.3c-25.7,11-33.6-10.9-24.4,9c-4.1-0.4-7.7-2.2-11.9-1.6
	c3.5,6,32.7,10.4,34.7,3c-2.3-2.9-6.9,1.5-9.9-1.4c4.1-4,10.5-4.2,15-7.7C509.4,200.1,508.2,199.6,507,199.3z M340.9,157.4
	c5.8-3.8,11.4-8.1,16.7-12.6c-0.1,6-2.9,11.5-4.6,17.2c0.5,0.5,3.9,1.3,4.9,2l11.7-0.4c9.7-15.9,14.9-36.1,23.6-51.9
	c5-10.2,12.2-18.7,23.6-22.1c8.1-2.1,31.9,2,46.4,7.9c-0.5-1.8-0.2-3.8,0.7-5.4c0.8,0.5,2.1,1,2.3,1.7c2.1,6.6,8.1,8.4,13.4,11.1
	c1.6,0.8,2.4,1.4,3.4-1.3c1.1-3.4,0-8.9,6-9.2c3.8-14.1,4.6-16.4,15.3-26.4c-11.1-1.2-19.9,10.2-21.8,20.6c-0.5,2.7-2.4,5-3.5,7.6
	c-2.5-6.8-1.4-22.3-7.2-25.6c-1.5,8.4,3.2,17.6,0.7,25.7c-7.4-7-1.5-20-8.4-27.8c-3.2,7.5-1.3,17.2-9.9,21.5
	c3.9-18.8-0.3-13.7-15.4-20.5c-44.5-20.2-60.7,35.1-79.9,63.5C356.2,137.7,348.8,149.7,340.9,157.4z M331.6,302.5
	c15,19.5,42.5,35.9,53.4,4.4c0.8-2.6,3.8-4.9,6.4-6.4c14.2-3.4,28.8-7.3,43.1-10.3c10.4-3.7,24.4-4.1,31.6-12.9
	c-35.9-10.2-39.4-3.9-68.6-30.7c-4.6-3-26.1-30-32.8-45.3c-4.5-4.1-5.2-13.6,0-17.7l-0.8-3.3c-6.4,7.4-13.9,11.4-22.6,7.2
	c12.1-3.8,20.4-11.8,26.7-21.7c-8.5,3.8-23.3,7.7-28.3,10.8c-1.5,0.9-4.1,0.1-6.2,0c4.4-7.1,13.7-10.6,16.6-18.4
	c-6.6,1.3-12.1,7.8-19,6c-3.4,1.3-7.3,0.1-9.3-2.9c5.3-1.8,11-1,14.6-6c5.5-6.3,10.6-12.9,15.4-19.8c1.4-15.6,15.2-40.9,24-50.7
	c-16.4-0.9-40,4.9-53,15.9c-3.2,3-6.9,6.9-10.8,7.4c-5.6,0.6-11.1,2.1-16.2,4.6c-8.3-0.5-16.7,5.2-19.6,13.1
	C263.9,172.1,300.5,267,331.6,302.5z M379.4,87.1c-7.9,7.7-13.1,21.7-18.4,34.3C367.7,110.3,373.9,98.8,379.4,87.1z M312.8,754
	c12-6.2,26.7,0.1,38.1-6.5c-1.3-0.3-2.6-0.6-3.8-0.8c-21.6-3.6-36.1,6.4-55,13.1c1.6,1.2,4.5,0.2,6.1,1.3
	C305.2,765.8,307.1,755.8,312.8,754z M253,760.7c2.3-1.6,6.2-2,8.9-3.2c-2.4-0.2-5.2-2.3-7.3-0.7c-15.4,6.5-30.7,12.9-46.6,19.9
	c-15.8,7.7-32.2,14.4-48.9,19.9c4.8,3.1,10.4,0.6,15.7,0.7c14.8-0.4,29.6-0.7,44.3-1.2c6.5,0.2,6.2-7.1,6.9-11.7
	C228.2,770.9,246.1,771.5,253,760.7z"/>
<path d="M862,240c-5.7-11.6-16-18.6-25.9-26.2c-16.7-12.8-43.9-12.2-59.6,0.5c-1.5,0.8-5.8,2.7-6-0.4c6.1-21.8,27.7-30.3,46.9-37.4
	c3.3-1.5,3.4-4.1,1.3-6.6c-20.6-24.9-73.4,15.6-75.3,41.5c-2.7,16.2-14.7,28.7-18.4,44.5c-0.2,1-1.8,2.3-3,2.6
	c-10.5,3.2-19.1,10.7-23.7,20.7c-3.8,7.4-7.5,14.8-13.4,20.8c-2.1,6.2-0.3,9.6-7.1,13.8c-13.1,9.2-25.4,22.2-41.1,26.4
	c-15,1.8-26.5,12.8-41.8,12.9c-13.6,5-29.9,11.3-43.6,2.7c-14.1-10.9-28.4-22-43.6-31.3c-13.7-13.4-27.5-26.7-41.5-39.8
	c7-8,18.4-8,27.7-12.2c18.5-6.8,34.3-19.2,45.4-35.5c9-17.2,24.9-31.9,23.8-52.4c0.4-32.2,2.1-49.7-13.2-79.2
	c-4.4-17.5-21.6-29.7-38.9-32.8c-0.9-0.2-1.8-1.6-2.6-2.4c4.8-3.9,10,1.8,15.3,0.2c-5.5-8.2-16-8-24.3-6.4
	c-9.7,0.8-12.7,6.5-18.1,14c-2.4-5.2-2.3-10.6-8.3-12.3c-5.8-1.9-11.7-5.5-17.9-5.1c1,3.8,4.8,7,3.5,10.9c-4.1-2.3-6.8-5.8-12.2-5.2
	c-12.5-3.2-24.6-8.7-37.9-4.1c-13.7,2.3-18.8,19.2-32.5,18.8c-17.8-1.7-41.1,2.3-54.8,14.8c-7,7.8-15.9,8.8-24.8,10.8
	c-29.8,4.2-44.2,7.7-63.9,30.9c-69.1,27-145,64.8-171.4,139.3c-11,26.4-21.6,53-31.7,79.7c-6.3,19.1-34,30.8-23,53.6
	c3.4,7.5,5.7,13.6,2.6,22.5C-5.3,480.7-4.3,523.2,24.3,566c11.4,22.4,31.1,39.5,44.8,59.2c0,6.1,3,10.7,6.6,14.8
	c12.3,14.8,27.9,27.4,38.9,43.3c8.8,20.1,19.9,41.5,12.5,63.9c-2.4,5.5-2.8,12.8-4.9,18.7c-0.4,4.4-0.4,8.6-0.8,12.8
	c0.7,3.5,0.8,7.2,1.6,10.7c1,6.9,2.1,7.7,9.3,7.9c9.3,0.2,18.4-0.2,27.7,2.7c23.5,5,48.5,1,72.4,1.5c24.9-0.2,49.8,5.3,74.5,0
	c26.2,5.8,17.9-12.5,27.7-7.4c8.9,2.1,19.4,6.2,27.7,1.3c7.8-5.2,16.3-1.1,23.8-6c1.7-1.3,3.5-2.4,5.5-3.4c0.9-1.7,1.5-3.6,1.8-5.5
	c0-2-0.3-4-0.9-5.8c-1.8-3.2-3.2-7.2-5.5-9.3c-11.3-15.6-20.1-13.7-35.9-21c11.8-22.8,56.7-84.2,42.6-105.9c3.4-2.1,9.1,0.4,13.4,0
	c32.3,4.2,64.8-3,97.4-4.3c7.6-0.9,16.2,1.8,22.9-4.3c9.8-2.1,20.1-3,30-4.8c16.2-3.1,11.8,25.4,41.9,28
	c12.4,3.3-7.2,10.3,19.7,18.9c21,9.9,44.1,10.2,66.6,6.6c14.7,1,13-15.9,15-26.4c4.3-24.8,8.4-49.8,13-74.5c2.4-10,1-16.1-6-19
	c-24.3-9.8-51.3-10.3-77.1-12.8c-5.3,0.3-14.5-0.4-14.7,7.2c0.2,1.4-1.2,4-1.8,4c-15,2.4-23.6-11-38.4-9.2c-1,0-2.6-0.4-2.8-1
	c-3-7.9-10.2-9.9-17.1-12.3c-1.8-0.7-4-1.5-5-3c-3.7-5.8-8.8-8.6-14.5-10.1c-3.7-1-7.4-1.7-11.2-2.3c-8-1.3-13.4,4.1-19.1,8.5
	c-11.2,11.6-25.4,18.3-39.5,25.5c-8,4.5-11.7,4-18.9-1.8c-7.8-6-19.2-6.9-27.2-12.2c-12.9-9.6-28.2-13.4-42.1-21.2h-0.1
	c-7.5-4.5-44.9-13.2-27-24.6c11.9-6.2,15.8-19.8,6.2-30.4c-0.5-1.9-1-4.7,0.1-5.8c5.9-8.7,2-20.4,7.5-29.5
	c12.5,13.8,27.5,25.7,42,37.5c6.6,5,9.1,5,14.5-0.1c7.4-6.9,15-13.6,22.4-20.5c1.8-1.8,3.1-2.1,4.4,0.1c5.1,9.8,16.8,12.3,23,21.4
	c4.1,5.8,12.3,8.8,17.4,14.2c6.9,7.2,16,10.7,23.8,16.2c9.2,5.2,17.1,12.8,26.3,17.8c3,1.7,6.2,3.1,9.6,4c6.5,0.5,14.2,3.8,20.5,1.2
	c11.6-8,21.7-18.4,31.4-28.4c14-14.3,34.2-20.3,49.7-33c17.1-9.6,28-26,40.7-40.4c11.9-10.7,23.1-22.9,35.7-32.3
	c7-10.5,18.2-16.8,23.9-28.5c9.3-11.3,10.5-26.4,19.7-37.3c7.5-10.2,10.6-23.4,16.6-34.8c2.4-5.1,7.1-9.6,7.8-14.7
	c0.6-6.4,3.8-9.5,8-12.8c2.1-1.4,4.3-3.2,5.4-5.4c1.6-3.8,3.9-2.9,6.8-2.1c17.9,5.4,24,24.1,32.8,38.6c1.8,3,4.4,2.9,6.2,0.1
	c10-16.7-3.6-33.8-14.5-46c6.9,1.9,11.4,7.4,17.3,11C865.3,259.5,865.4,245.5,862,240z M759.6,190.1c12-11.5,40.7-31.9,55.1-17.9
	c-20.4,7.1-44.5,18.4-49.1,42c-0.4,7.7-10.5,4.6-15.4,4.2C742.1,214.4,758,196.5,759.6,190.1z M762.1,268c-18.2,0.8-33.3,12-51,14.8
	C688,271.2,746.6,250,762.1,268L762.1,268z M531.3,239c-12.2,16.1-30.1,25.1-48,33.4c-14.4,6.9-28-4.4-41.6-7
	c-18.3,0.4-30.8-14.5-43.8-24.9c-7.9-7.5-19.4-27.4-27.8-40.6c1.1-1,2.4-2.3,2.8-2.6c2.8-2.5,5.5-4.9,8.6-7.5
	c12.6-6.1,25.6-4.1,38.7-5.7c0.1,0,0.1,0,0.1-0.1c12.8-3.3,34.5-17,35.9-30.8c-0.1-0.8-0.1-1.8-0.1-3.2c0-9.2,1.6-29.1-3.7-35.5
	c-0.3-0.4-0.6-0.7-1-1c-0.3-0.2-0.6-0.4-0.9-0.5h-0.1c-5.2-3.7-13.6-8.3-19-8.6c-4.1,0-8.1,0.7-12,2.1
	c-11.8,4.1-21.5,13.7-29.4,23.8c6.8-19,18.6-39.8,41.2-37.3c4.5,0.2,22.3,6.8,33.6,9.5c0.4,1,0.7,2,1,3c0.8,2.1,1.6,5.6,5.2,1.9
	c5.2,0.9,12.4,1.7,16.7-2.1c2,1.2,4.1,2.1,6.3,2.7c0.1,1.8,0.5,3.6,1.2,5.2c1-1.2,2-2.3,3.2-3.6c0-0.1,0-0.2,0.1-0.3
	c3,0.9,6.3,1.7,9.7,2.6c-4.6,0.4-8.9,1.8-11.1,3.9c0.4,0.3,1,0.5,1.5,0.6c1.5,1.8,4.7,3.2,8.1,4.1c-2.1,5.2-2.1,9.8-1.9,13.9
	s0.6,8-0.8,11.5c-1.9,5.1-7.2,9.8-21.3,14.8c-1.2,0.4-2.5,0.8-3.9,1.3c-9.4,1.9-14.3,8.6-20.2,14.9c-3.7,4.4-11.6,4.5-14,10.3
	c4.7,1.6,8.9-1.6,13.1-3.4c-8.1,18.7,9,27.2,23.9,32.6c7.7,3.4,15.7,1.4,23.5,0.3c-8,17.1-26.7,0.4-39.6,2.4
	c-17.9,1.1-22.6-15.6-34.1-24.9c3-1.8,10.7-1.3,7.1-6.5c-5.1,1.7-11.2,1-16.5,1.8c-4.1,0.7-7.7,2.5-10.1,7.2
	c7.2-0.1,13.6-6.3,17.3,1.3c14.6,17.6,32.8,43,58.5,38.4c-2.1,6-10,7.8-12,13.7c16.8-1.2,13.9-16.9,19.5-20.1
	c17-4.6,21.5-26.3,21.5-41.7c-0.1-3.1-2.1-6.2,0.3-8.9c5.8,10.5,10.4,11.9,19.2,18.7c0.2,0.2,0.5,0.4,0.7,0.6
	c2.4,2.5,6.3,9.1,9.9,13.1C543.2,222,538,231,531.3,239z M447.2,134.1c0,0.1,0,0.1,0.1,0.1c6.4,6.2,2.8,15,5.5,22
	c0.2,0.4-0.6,1.2-0.9,1.8c-1.7-0.7-2.9-2.3-3.1-4.1c-3.5-17.7-27.4-36.2-43.3-24.7c-16.4,12-28.2,35.9-11.4,52
	c-8.6,2.3-23.2,6.5-25.5,16.4c-0.5-0.8-1-1.6-1.5-2.4c1-6.4,0.6-15,1.4-20.9c7.7-11.2,13.5-26,18.1-33.6c0.1,0,0.2,0,0.3-0.1h0.1
	c1.5-0.4,3-0.9,4.4-1.5c0.2-0.1,0.5-0.3,0.6-0.5c12.2-21.8,34.8-21.8,56-23.8c-0.1,4.1-0.7,12.5-0.8,16.7
	C447.2,132.4,447.2,133.3,447.2,134.1L447.2,134.1z M420.1,175.6c12.9,1.2,9.5-11.4,21.2-10c-8.8,10.1-22,15.4-35.3,14.2
	c-3.4-2.2-13.5-5.2-12.7-8.2c4.2,0,10.1-3.3,13.6-1.2C409.5,176.6,415.1,175.4,420.1,175.6L420.1,175.6z M410.1,169.4
	c5.6-4.6,6.9,2.7,19-2.7C429.1,174,414.3,172.2,410.1,169.4L410.1,169.4z M410.1,163.2c-29.6,6.3-19.9,2.1-11.5-20.4
	c12.9-26.8,49-3.4,46.8,20.1C434.2,159.7,421.6,163,410.1,163.2L410.1,163.2z M526.4,181.7c3.6-3.1,11.4-10.8,14.6-4.2
	c-3.8,2.8-6.5,9.1-11.3,9.4C527.1,185.6,524.5,184.3,526.4,181.7L526.4,181.7z M524,177.1c0.1-1.2,0.2-1.3,0.4-1.4
	c1-1,2.1-2.1,3.2-3.2c0.1,0.4,0.6,1.1,0.5,1.2C526.8,174.9,525.4,176,524,177.1z M530.4,168.5c-5.3-1.9-13.7,1.1-17.5-3.6
	c-3.8-9.4-1.8-16.7,2.8-25.7c8-15.3,24.9,21.8,28.3,28.2C549.9,178.2,534.7,168.6,530.4,168.5L530.4,168.5z M505.3,209.8
	c-2,7.4-31.1,3-34.7-3c4.1-0.7,7.7,1.1,11.9,1.6c-9.1-19.9-1.2,2,24.4-9c1.2,0.3,2.4,0.8,3.5,1.4c-4.6,3.5-10.9,3.6-15,7.7
	C498.4,211.3,503.1,206.9,505.3,209.8L505.3,209.8z M507.2,195.2c-7.4-0.7-13.6,5.2-20.9,2.1c-9.8-3.7-27.5-8.9-18.3,7.8
	c-14.4-5.2-6.6-30.7,4.9-35.6c6.3-2.7,25.6-6,27.3-12.5c0.4,0.4,0.9,0.7,1,1.2c0.5,1.2,0.9,2.4,1.2,3.6c0.7-0.8,1.4-1.7,1.9-2.6
	c0.5-0.7,0.9-1.4,1.2-2.1c0.7,0.6,1.8,1.3,1.8,2.1c0.6,10.6,5.9,20.7,4.4,31.7C511.3,194.1,510.8,195.3,507.2,195.2L507.2,195.2z
	 M510.6,139.2c0,2.2-0.2,3.9-2.1,5.5c-0.1-0.3-0.2-0.7-0.3-1c-1-4.7,1-17.8-0.6-22.7c3.6,0.9,7.3,1.2,9.2,0.7
	c14-3.8,31.1,28.5,29.6,40.2C541.1,150.3,521,112.3,510.6,139.2L510.6,139.2z M478.3,232.2c-2.1,0.9-19.9-5.7-16.8-9.2
	c3.1,0.7,6.3,1.4,9.4,2.1C476,224.8,484.9,227.4,478.3,232.2L478.3,232.2z M548.2,208.2c-0.5-0.7-1-1.6-1.5-2.4v-0.1
	c-3.2-4.9-6.6-9.5-10.4-13.9c-4.5-2.5,8.8-7.8,11.4-19.3C552.5,183.5,551.9,196.2,548.2,208.2L548.2,208.2z M508.5,74.7
	c30.5,11.1,36,29.1,46.5,57.2c3.1,18.4,7.2,55.8,0.5,72.4c-0.7-24.5-1.4-49.3-13.8-71.5c-0.9-15.9-23.9-23.8-41.5-27.2
	c2.5-4.5,6.8-7.2,10-11.4c-7.2-1.5-14.3,3.1-15.8,10.4c0,0,0,0,0,0.1c-1.9-0.3-3.6-0.5-5.2-0.7c0.3-0.4,0.5-0.8,0.8-1.3
	C495.7,95.8,498.1,73.1,508.5,74.7z M439,69.4c15,6.9,19.3,1.7,15.4,20.5c8.6-4.3,6.6-13.9,9.9-21.5c6.9,7.8,1,20.8,8.4,27.8
	c2.4-8.1-2.3-17.3-0.7-25.7c5.8,3.3,4.7,18.8,7.2,25.6c1.2-2.6,3-4.9,3.5-7.6c1.9-10.3,10.6-21.8,21.8-20.6
	c-10.7,10-11.5,12.3-15.4,26.4c-6,0.3-4.9,5.8-6,9.2c-1,2.7-1.8,2.1-3.4,1.3c-5.3-2.7-11.4-4.6-13.4-11.1c-0.2-0.7-1.5-1.2-2.3-1.7
	c-0.9,1.6-1.2,3.6-0.7,5.4c-14.5-5.9-38.3-10-46.4-7.9c-11.4,3.5-18.7,12-23.6,22.1c-8.7,15.7-13.9,35.9-23.6,51.9l-11.7,0.4
	c-1-0.7-4.4-1.5-4.9-2c1.8-5.7,4.6-11.1,4.6-17.2c-5.3,4.6-10.8,8.8-16.7,12.6c7.9-7.8,15.3-19.8,18.1-24.6
	C378.3,104.5,394.4,49.2,439,69.4z M379.4,87.1c-5.5,11.8-11.7,23.2-18.4,34.3C366.2,108.8,371.5,94.7,379.4,87.1L379.4,87.1z
	 M296.1,112.7c5.1-2.5,10.5-4.1,16.1-4.7c3.9-0.5,7.5-4.4,10.8-7.4c13-10.9,36.6-16.8,53-15.9c-8.9,9.8-22.6,35.1-24,50.7
	c-4.8,6.9-9.9,13.5-15.4,19.8c-3.6,5-9.3,4.2-14.6,6c2.1,3,6,4.2,9.4,2.9c6.9,1.8,12.3-4.7,19-6c-2.9,7.8-12.2,11.2-16.6,18.4
	c2.1,0.1,4.7,0.9,6.2,0c5-3.1,19.9-7,28.3-10.8c-6.3,9.9-14.6,17.9-26.7,21.7c8.7,4.3,16.1,0.2,22.6-7.2l0.8,3.3
	c-5.2,4.1-4.5,13.6,0,17.7c6.6,15.3,28.1,42.3,32.8,45.3c29.2,26.8,32.8,20.5,68.6,30.7c-7.3,8.8-21.3,9.2-31.7,12.9
	c-14.4,3-28.9,6.9-43.1,10.3c-2.6,1.5-5.6,3.8-6.4,6.4c-10.9,31.5-38.4,15.2-53.4-4.4c-31.1-35.5-67.8-130.5-55.2-176.8
	C279.4,117.9,287.8,112.2,296.1,112.7L296.1,112.7z M405.3,304.4c-5.2,11.4-10.5,22.6-15.9,34.1c-3.1,4.7-3.5,9.6-9.1,11.3
	c2.1-9.9,8-18.7,11.4-28.1c3.7-6.9,2.8-19,12.8-19.3C404.7,302.4,405.6,303.9,405.3,304.4z M278.7,113.2
	c-15.6,21.2-10.3,47.3-5,71.3c9.1,38.9,20.9,77.7,45,110.1c13.4,19.9,46.2,54.1,66.1,22.2c2.7-3.6,3.4-9.2,7.7-11.3
	c-2,9.5-7.5,18.1-10.8,27.4c-2.5,5.2-3.8,11.2-8.7,14.9c5-21.9-3.8-12.8-18.5-16.9c-8.5-1.3-14.2,8.3-21.3,11.7
	c-5,3.8-8.7,1.7-12.6-1.8c-30.5-28.1-46.7-67.6-58.9-106.4c-9.7-25.6-17.4-50.3-22.9-76.7C232.1,131.8,258.2,119.7,278.7,113.2z
	 M366.2,336.9c-0.7,2.2-1.5,4.4-2.2,6.6c-0.9-0.4-2.1-0.5-2.4-1.2c-1.1-1.9-2.1-3.8-3-5.8C361.7,336.5,364,336.6,366.2,336.9
	L366.2,336.9z M338.4,371c9.2-2.5,2.3,5,4.1,10.1c0.4,4.3-1.5,7.3-4,10.7c-5.8,6.8-6.2,18.4-12.8,24c-1.6-8.6,0.5-17.8,0.4-26.5
	C329.4,382.9,334.5,377.2,338.4,371z M332.2,370.8c-0.6,1.8-1.3,3.6-1.9,5.4c-1.4,1.8-2.7,3.6-3.8,5.5
	C326.1,377,324.9,368.1,332.2,370.8z M332.2,414.8c3.8-6.9,5.1-15.3,10.2-21.5c2.2,22.6-0.9,35.6-16.5,52.4c-0.4-1-0.7-2.1-0.8-3.2
	c-0.1-1.2-0.1-2.4,0-3.5C325.4,428.8,324.3,421.4,332.2,414.8L332.2,414.8z M338.9,435.4c1.3-2.2,2.4-4.5,3.4-6.9
	c4.6,19-0.6,39-16.8,50.1C324.2,448.1,321.8,457.7,338.9,435.4L338.9,435.4z M336.9,475.6c2.6-4.9,3.8-9.1,6.3-13.3
	c3.7,5.5-0.1,26.1-6,30.7c-4.9,4.3-9-2.1-11.8-5.5C325.4,482.1,333.4,479.2,336.9,475.6L336.9,475.6z M340.5,364.7
	c-11.4,1.3-13.3,0.9-12.3-11.3C335.9,334.3,352.6,363.5,340.5,364.7L340.5,364.7z M319.6,484.6c-5.4-2.1-11.1-6.6-16.6-7.7
	c-13.1-0.1,8.9-17.1-21.4-41.2c-6.8-5.5-8.9-49.2-4.6-56.7c3.6-8.5,13.7-29.6,6.9-36.7c-4.4,9.7-5.3,21.3-9.3,31.4
	c-3.6-19.3-2-40.1-2-59.8c-1-31.4-29.4-53.1-43.6-79.4c-2.3-5.8,12.2-24.6,16.4-29.8c9.8,27.4,19.5,54.7,30.2,81.9
	c10.7,20.7,21.8,40.5,39.2,55.3c6.5,5.5,8.5,10.8,8.6,18.9C318.4,401.5,321.8,443.2,319.6,484.6z M9.6,398.4
	c-0.2-7.7,4.4-13.9,9.6-18c12.5-11.5,18.3-27.1,23.7-43.1c3.4-10.4,6.7-21,11.5-30.5c8.5-18.1,15.3-37.9,24.8-55.8
	c7.4-13.9,16.4-26.7,29.3-36.6c36.4-31.9,79.5-54,123.7-73.2c3,17.7,4.5,37.8,11.1,55.3c-1.9,11.8-12.8,21-18.5,31.4
	c-0.7,1-0.7,2.3-3,1c-18-10.5-37.6-17.8-58-21.7c-28.8-6.4-50.8,15-64.5,37.3c-2,3.9-5.2,7.5-7.3,11.4c-1.5,2.6-2.2,5.7-2.1,8.7
	c10.3-6.4,13.5-20.4,21.8-29.1c10.8-13.6,23.4-26,42.4-24.5c31.3,4.7,68.6,14.6,84.2,44.9c10,17.3,25.8,33.2,28.8,53.4
	c-0.2,31.3,1.3,63.3,2.5,94.1c-22.2-26.6-154.5-24.2-175.5,2.6c50.6-17.1,107.8-23,159.6-7.8c17.9,6.1,18.5,10.3,18.7,28.3
	c0.1,1.8,0.9,3.5-2.6,1.8c-13.6-6.2-28.1-10.1-43-11.5c-41.2-6.1-83.5-0.7-122.8,12.3c-6.6,2.1-6.7,2.1-8-5
	c-0.8-5.7-1.3-11.4-2.1-17.1c-0.1-0.3-0.2-0.7-0.2-1c-4.6-19.8-8.6-39-13.3-58.6c-0.5-2.1-2.4-3.8-3.7-5.7
	c-1.8,12.6,6.6,24.1,5.7,36.6c-8.3-7-14.7-15.9-22.3-23.6c-4.6-4.9-9.6-9.6-10.6-16.7c-0.2-0.7-1.2-1-1.8-1.5
	c-0.4,0.7-0.6,1.5-0.8,2.3c-3.4,14.6,26.1,33.9,34.2,44.2c7.8,14.5,6.9,33.2,11,49.1c1.2,12.4,34.7,4.7,31.1,10.8
	c-0.7,1.9,0.1,4.4,0.7,6.5c0.3,4.4,8.5,15.8-0.5,13.8c-34.3-6-65.9-20.9-96.7-36.6C15.7,420.6,9.9,411.3,9.6,398.4L9.6,398.4z
	 M128.2,433.9c4.8,7-21.8,1.2-24.7,0.7c0.7-0.7,1.5-1.8,2.4-1.9c3.9-1.2,8-2,12.1-3C123,427.9,125.5,431,128.2,433.9L128.2,433.9z
	 M125.8,470.4c-6.8-2.1-13.6-4.4-20.3-6.6c7,0.5,13.9,1.3,20.7,2.7c1.2,0.3,1.9,2.6,3,4C128.1,470.6,126.9,470.6,125.8,470.4
	L125.8,470.4z M132.1,478.2c-0.1,4.6-1.2,9-1.9,13.5c-0.8-0.1-1.6-0.4-2.5-0.6c-1.8-0.6-3.5-1.3-3.5-1.9c0.9-5.1-0.2-11.1,4.1-14.7
	C129.6,475.8,132.2,477.1,132.1,478.2L132.1,478.2z M24.9,438.3c-0.4,2.7-1.1,5.4-1.9,8c-2.1,5-2.3,9.4-4.9,13.7
	c-4.9-5.2,2-19.3,4.6-25.3C23.5,435.8,25.1,437.2,24.9,438.3z M16.9,427.6c0.4-0.3,0.9-0.4,1.4-0.4c3,1.5,5.8,3.1,8.9,4.6
	c20.2,9.3,40.7,16.5,60.7,25.9C63.2,451.3,37,443.4,16.9,427.6L16.9,427.6z M24.9,455.9c3-3.8,0.4-13.8,6.5-14.2
	c27.1,14.2,56.7,22.4,86.1,30.7c3.2,1,5,2.3,2.5,5.8c-2,5.8,1.5,12.9-6.7,9.8c-15.8-4.5-31.6-8.8-47.4-13.5
	c-12.8-3.8-25.5-8.1-38.1-12.4C25.1,461.2,23,460,24.9,455.9L24.9,455.9z M13.7,430.2c2.6-5.8,4.4,4,3.4,6.2c-1,6.8-4.1,13-8.9,17.9
	C9.4,446.2,11.3,438.1,13.7,430.2z M4.4,497.8c0.2-2.6,0.2-4.1,0.4-5.6c4.1,3.3,8,8.8,6.3,14.2c-1.8-1.2-4.1-2.1-5.5-3.6
	C4.6,501.6,4.8,499.4,4.4,497.8z M134.3,733c1-4.3,3,0.7,4.9,1c0.1-0.7,0.4-1.5,0.2-2c-8.8-11.6-9.1-26.1-13.9-39.1
	c-9.6-27.7-39.2-41-52.7-65.7c18.1,10.2,34.2,25.2,52.1,36.1c5.2,3.3,10.3,6.8,15.1,10.6c2.6,1.8,2.4,6.7,5.8,7.9
	c1.3-2.5,1.3-5.6,0.1-8.1c-1.9-3.6-6-6.3-9.1-8.3c-17-12.2-35.2-22.8-51.5-35.8c-11.4-9.9-22.1-20.8-31.8-32.4
	c-20.8-24.8-37.4-53.4-46.9-84.2c-0.5-1.4-1.2-3.3,2.4-2.6c13.8,2.2,8.2-16.6-0.9-20.1c-7.5-4.9-1.7-13.9-1.7-20.8
	c0.3-2.9,0.6-5.8,0.9-8.6c1.9,0.4,4.5,0.7,8.3,1.2c18.9,7.5,38.1,14,57.5,19.6c15.4,4.6,31,8.6,46.7,12.3c19.8,5.8,15.3-3,23.7,16.1
	c-12.7-3.1-25.7-4.3-38.7-3.5c-7.1,0.5-14.7-1.7-21.1,1.4c1.2,0.8,2.3,2.5,3.5,2.6c17.6,0.8,35.3,0.4,52.7,3.3
	c3.5,2.7-0.2,8.3,4.7,10.8c20,16.6-43.7,25.3-53.3,25.3c-6.6,3-9.7-21.2-12.8-41.2c-1.8-12.2-3.7-22.9-6.1-24.9
	c-4,2.9-1.3,8.5-1,12.7c3.6,41.3,19.4,79.3,37.6,116c-21.4-4.1-36.9-19.4-55-29.4c1.7,3.1,3.8,5.9,6.2,8.5
	c16,17.9,42.7,22.6,64.1,32.5c8.6,10.6,13.4,24.9,20.1,37c1.7,3.6,3.4,7.2,5.1,10.8c4.8,10.3,9.5,20.7,13.6,31.3
	c3.5,13.6,3.7,28.5,6,42.4c3,12.8-17.3,7-22.6,14.6c3.8,6.1,25.6-7.6,22.6,1c-4.6,33.4,3,28-31.4,30.8
	C113.3,794.9,132.5,745.7,134.3,733z M134.3,491.2c0.3-1,0.7-2.1,1-3.1c0.3-0.8,0.8-1.5,1.3-2.1c0.1,1,0.4,1.9,0.5,2.9
	c0,0.5-0.5,1.2-0.7,1.8C135.7,491,135,491.2,134.3,491.2L134.3,491.2z M173.6,595.9c6.2,12,18.5,11.4,29.1,13.6
	c16.1,2.9,32.7,6.2,49,7.2c25.4-2.1,26.2,29.6,30.7,47.3c-0.6,32.7-30.7,55-51.4,77c-7.8,8.4-19.8,13.4-25.6,23.6
	c21.9-7.2,44.1-36.7,61.6-52.6c3.9,24.7-25.2,21.3-13.7,37.6c1.8,2.4,1.3,2.4-1.1,3.4c-27.8,10.7-55,23.6-82.8,34.5
	c0.3-1.4,0.5-2.7,0.8-4.2s0.7-2.8,1.1-4.1c2-8-1.2-21,5.4-24.9c14.9-7.3,46.1-19.1,50.5-35.5c-16.6,10.9-33.6,21.4-51.6,30.4
	c-2.7,1.5-2.1-0.1-2.3-1.6c-1-10.8-2.4-21.5-2.9-32.3c-4.4-32.5-25.6-59.9-38.1-89.8c23.5,3.3,46.8,11.4,70,13.6
	c-11.4-13.1-58.3-14.9-77.2-21.1c-6.3-1-10-4.1-12.5-10.5c-4.1-10.2-9.7-20-14.4-30.1c-0.6-3.5-12.8-23.6-6-22.3
	c21.9,0.3,44-5.5,61.1-19.5c2.6,5.5-1.5,18.7,5.7,19.2c0.9,0.2,1.9,3.3,1.9,5.1C159.2,573.5,167.4,584.4,173.6,595.9L173.6,595.9z
	 M219.1,796.2c-14.7,0.4-29.6,0.7-44.3,1.2c-5.3-0.2-10.9,2.4-15.7-0.7c16.7-5.5,33.1-12.2,48.9-19.9c15.9-7,31.3-13.4,46.6-19.9
	c2.1-1.6,4.9,0.4,7.3,0.7c-2.7,1.2-6.6,1.6-8.9,3.2c-6.9,10.8-24.8,10.2-27,23.8C225.3,789,225.6,796.3,219.1,796.2L219.1,796.2z
	 M317.9,797.2c-7.5,2.1-11.9-3-17.1-7c-8.8-6.3-35.8-23.5-46.6-19c-0.4,0.2-0.7,0.4-1.1,0.6c16.7,7.6,35.6,13.4,49.3,25.8
	c-0.8,0.3-1.7,0.6-2.6,0.7c-1,0.2-2.1,0.2-3.1,0.2c-22.4,1.9-43.9-1.8-66.2-2.2c-4.4-2.1,0.2-7,0.3-10.3c2.4-8.9,12.2-10.3,19-15.2
	c1.6-1.1,3-2.5,4.1-4C260.5,747.9,344.9,790.5,317.9,797.2L317.9,797.2z M292.1,759.8c18.9-6.6,33.3-16.7,55-13.1
	c1.2,0.2,2.4,0.5,3.8,0.8c-11.4,6.6-26.1,0.3-38.1,6.5c-5.7,1.8-7.6,11.8-14.5,7.1C296.6,759.9,293.7,760.9,292.1,759.8L292.1,759.8
	z M363.4,786.7c-6.4,9.4-17.8,3-26.9,3.2c-13.7-1.5-15.3-18.2-27.6-23.3c-6.4-2.9,13.2-13,17.1-7.9c12.5,6.1,25.1,11.2,34.5,21.2
	C362.3,781.6,364.2,785.5,363.4,786.7L363.4,786.7z M388.1,775.3c2.6,2.7,0.7,6.7,0.8,10.1c-7.2-12-16.9-22.3-26.8-31.9
	C374.5,755.9,380.3,766.8,388.1,775.3L388.1,775.3z M358.8,755.4c4.9,8,39.5,33.2,13.2,32.6c-7.4-19.9-25.6-23.1-41.8-32.4
	C339.3,755.1,350.8,750.5,358.8,755.4L358.8,755.4z M386.6,669c-11.7,23.1-22.5,46.8-37.2,68c-7.9,11.3-28.3-1.4-43.4,8.7
	c-0.3,0.2-0.7,0.5-1,0.7c-3.3,2.1-8.6,5.1-12.9,8.3c0,0-0.1,0.1-0.1,0.2c-1,0.7-1.9,1.5-2.8,2.4c-4.1-1-8.1-1.5-12.2-2.3
	c-1.2-0.4-2.3-0.9-3.4-1.5c19.8-10.8,41-17.9,62.3-25.2c5.5-2.7,12.9-3.9,16.1-9.6c-6.5-1.1-12.1,2.8-18.1,4.5
	c-19.8,7.2-39.8,13.5-58.1,24.1c-5,5.4-1.5,7.2-10.8,5.6c-8.2-0.8-11.7-10.7-3.9-15.2c7.7-4.8,12.7-16.5,9.8-26.3
	c-0.6-2.2,0.7-5.6,2.3-7.7c22.6-28.6,14-52.1,2.4-82c5-1.3,7,4.7,11.6,1.8c8.6,1,17.1,7.5,26.6,5.7c14-2.5,6,9.5,10.9,15.4
	c5.9-1.6,5.4-12.5,11.9-13.6c14.8,1.1,29.7,1.8,44.3,3.6C398.1,636.8,391.6,658.1,386.6,669z M325.4,628.3c0.8,0.3,2.1,0.3,2.5,1
	c0.5,1.2,0.9,2.4,1.1,3.6c-0.8,0.2-1.6,0.3-2.4,0.5c-0.3-0.8-0.5-1.7-0.5-2.6C325.9,630,325.7,629.1,325.4,628.3L325.4,628.3z
	 M601,648.8c-10.3-1.5-30.3-12.5-27.2-24.5c1,0.4,1.9,0.8,2.8,1.3c5.5,10.9,14.5,14.6,25.2,17C606.4,644.1,606.2,649.6,601,648.8z
	 M580.5,623.1c9.9-0.3,7.6-8.8,9.3-14.5c0.9-11.7,14,2.1,12.8-21.6c4.1,0.9,6.6-2.2,9.5-4.1c-2.3,17.3-4.8,33.6-5.7,50.9
	C605.9,644.7,580.6,629.3,580.5,623.1L580.5,623.1z M664.4,553.8c14.2,1.6,30.3,2.7,42.1,10.7c-1,0.2-2.1,0.6-3.1,0.7
	c-0.9,0.1-1.7,0.2-2.6,0.1c-24.9-2-49.6-5.5-74.1-10.4c-2.4-0.1-4.5-1.3-5.8-3.3C635,550,650,554.1,664.4,553.8L664.4,553.8z
	 M616.6,583.4c-1.8-4.9-0.5-9.2,1-13.7c0.8-4.1-0.3-8.7,0.7-12.8c29.6,8.8,60.4,12.6,91.1,12.2c-0.3,2.3-0.6,4.5-1,6.8
	c-0.6,2.8-1.3,5.6-2,8.5c-4.9,28.9-9.1,56.1-14.8,84.5c-17.8,13.2-52.5,5.8-72.1-2.3c-12.5-5.6-12.2-2-10.1-19.4
	c1.1-9.8,1.9-19.7,3.1-29.6C613.6,606.2,617,594.7,616.6,583.4L616.6,583.4z M612.6,562.7c0.7,1.1,1.2,2.3,1.5,3.6
	c0,1.5-0.2,3.1-0.4,4.6c-3.4-2.6-5.8-5.9-9.1-8.5C607.4,562.4,610,562.5,612.6,562.7L612.6,562.7z M603.9,569.4
	c0.6-0.7,0.7-0.8,0.8-1c6.2,10.2,2.1,15.9-9.1,11.1c0.3-0.7,0.8-1.4,1.3-2.1C599.8,575.3,603.7,574,603.9,569.4L603.9,569.4z
	 M552.3,537.5c3.4,1.4,6.6,3.1,9.9,4.6c3.6,2.1,5.9,3.2,8.3,6.2c-8.7,1.6-16.6-2.5-20.5-10.5C550.7,537.7,551.6,537.3,552.3,537.5z
	 M380.1,524.1c12.4,7.2,26.4,10.6,38.1,19.2c4.4,3.5,10.8,4.4,16.2,6.6c9.3,3,15,11.5,25.2,11.4c4,0.5,7.5,4,11.6,2.6
	c-1.2-3-4.4-3.3-6-5.9c15.7-5.9,30.6-12.8,42.6-25.2c4-4.1,10-7.8,15.4-8.3c6-0.5,12.7,2.7,18.8,4.7c4.6,1.5,4,6.5,4.5,10
	c5.2,24.7,36.4,5.8,50.8,20.5c10.8,12.7-19,15.3-2.2,26c3.7,2.5,2.1,5.9,1.8,8.7c-0.1,1.3-3.3,3.5-5.2,3.6
	c-11.7,0.2-3.7,16.7-11.4,20.6c-17.6,0.8-35.3,3.1-52.7,5.4c-12.4,6.9-26.5,3.9-39.6,6.3c-18.5,2.4-37.1,1.5-55.5,4.9
	c-31.9-1.5-63.1-7.8-95.1-9.6c-19.5-3.3-38.9-2.2-57.3-9.8c-8,3.5-14.5-3.1-21.9-3.6c-17.9-3.2-35.9-6-53.9-8
	c-14.9-1.4-25.7-7.9-31.8-21.8c-6-7-6.2-15.6-6-24.4c-2.1-14-8-1.1-6.3-25.4c1.1-6.9-6.9,2.3-7.2-6.4c-0.5-2.2-0.4-5.2-2.2-6.9
	c-5.2-1.8-2.2-4.7-2.1-9.1c-2.4-6-5.3-12.2-8-17.7c2.6-10.2-4.8-17-8.2-25.1c0.4-7.8-0.4-15.1-3.9-22.2c5.2-9.1,10.6-9.9-1.2-17.7
	c47-10.5,99.4-13.2,144.6,7.1c7.1,1.6,30.1,28.5,18.8,32.9c-2.7,4.2,5.7,15.6,12.2,14.6c4.1,0,8,4.6,12.1,5.3
	c8.3,1.2,11.3,9.1,18,12.5C347.9,509.3,363.7,517.8,380.1,524.1z M351.3,335.6c10.9,4.1,7.3,21-1.9,25.6c-0.2-1-0.5-2.1-0.7-3.2
	c-0.1-0.8,0-1.7,0-2.5C343.1,342.5,337.4,344.6,351.3,335.6z M354.7,450.3c-8.3,21,14.9,20.9-8.3,41.8c4.3-32.9,1.2-66.4,1.4-99.4
	c1.3-10.2-3.3-20.3,4.6-27.5c4.4-6.2,18.1-20.6,16-27.8c0-0.1,0.5-0.4,0.8-0.5c0.4,0.6,1.2,1.4,1.1,1.9c-1.3,8.7-3.5,16.5-8.8,23.5
	c8.5,0.8,10.2-8.2,16.7-11.1C371,384.1,359.9,417.1,354.7,450.3z M366.4,420.3c3.7-16.2,7.6-32.5,11.7-48.7
	c4.4-6.3,13.4-10.2,18.1-16.4c9.8-12.6,20.5-24.7,27.8-38.9c1.2-4.6,3-6.8,1-10.9c-9.1,9.5-13.5,23-21.8,33.4
	c-6.9,8.4-14.2,17.7-23,24.4c-1.3-10.6,12.7-16.5,15.9-26.5c4.4-8.3,9.6-16.9,11.3-26.1s5.8-10.3,13.5-11.7
	c10.9,0.3,40.7-16.8,45.5-7.5c2.4,5.5,22.9,16.2,16.4,21c-35.9,38.8-79.7,79.8-90.4,133.4C386.4,440.6,364.9,428,366.4,420.3
	L366.4,420.3z M441,440.3c-9.4,7.2-16.6,19.4-28.3,22.4c-0.1-0.1-0.4-0.3-0.5-0.4c-7.8-6.9-19.5-11.2-14.5-23.6
	c3.5-12.8,9.3-24.9,17-35.7c21.8-30.2,44.8-59.5,70.2-86.8c5.2-6.9,10.6,2.9,14.9,6c4.2,6.7-12.8,18.9-16.2,25.4
	c-19,25.7-76.9,82.8-70.8,114.1c1-0.4,2.9-1.2,3-2c1.3-13.6,8.3-26.3,15.9-36.7c3.6,15.6,6.1,6.6,10.9,12.3
	C442.4,437.1,442.1,439.3,441,440.3z M755.7,335.1c-2.7,7.5-7.4,14.2-11.7,21c-12.5,18.6-32.5,30.4-47.5,46.8
	c-10.2,10.5-18.6,22.6-28.7,33.3c-19,19.5-44.2,30.8-66.4,45.7c-10.2,11.1-22.1,20.7-32.8,31.3c-4.7,5.2-9.6,0-14.6-0.2
	c-13.2,3.4-63.5-39.5-76.5-49.2c-14.7-10-27.2-22.8-36.7-37.7c-0.2-0.3-1.3-0.4-1.4-0.2c-2.3,2.8-2.7-0.7-4.1-1.1
	c-12.1-4,55.8-76,62.6-86.3c3.6-3.2,8-13.7,12.8-7.2c8.2,8.6,19.2,12.9,27.8,21.3c14.8,14.7,36.1,16.8,54.4,6.7
	c0.8-0.6,1.7-0.9,2.7-1c8.3,1,14.8-3.4,22.1-6.4c34.7-10,38.5-15.3,66.1-36.9c6.5-3,3.6-11,7.8-15.4c6.5-4.6,6.7-12.5,10.5-18.7
	c4.9,7.2,7.3,6.4,6.5,16.5c12.2,21.2,39.2,12.3,59.6,14.7C762.4,319.1,757.8,326,755.7,335.1z M794.3,256.4
	c-8.6,9.1-10.7,23.6-17,34.5c-3.3,5.5-2.4,15.8-11,15.8c-1.9-0.1-3.7,0-5.6,0.1c-4.3,0.1-8.8,0.6-13.1,0.7c-4.9,0.1-10.5-2.9-15-1.9
	c-4.4,2.1-8,0.5-10.6-2.4c-21.8-15.9-0.9-17.3,13.1-23c10.5-3.3,5.6,17.6,3,22.1c10.3-1.7,10.8-16.6,5.2-23.6
	c-0.7-1.1-0.8-1,0.2-1.5c12.8-4.3,13,18.3,17.2,26.1c1-1,2.5-2,2.5-3.1c1-10.1-2-20.6-12.3-24.9c3.5-2.5,7.5-1.5,11.5-1.8
	c11.1-2.4,0.4-11.7-4.8-14.4c-3.2-2.9-10.6-1.4-9.7-6c0.4-3.9,1.5-7.4,6.5-7.4c10.1,2.9,23.2-10.9,13-18.6c-0.7,1.2-1.8,2.3-1.8,3.5
	c-0.2,15.1-10.8,9.7-21.5,8.9c1.5,3.1,0.8,6.6-0.2,9.5c1.8,9.2-11.1,6.3-16.4,7.6c4.3-2.9,19.5-43.7,21.5-34.8
	c1.9,3.9,15.4,2.4,19.1,0.2c1.6-0.8,3.5-0.8,5.2,0.1c2.5,2.7,15.8,9.9,12.8,12.7c-1.3,8.3-9.4,4.9-14.4,9.3c7.8,6.4,17,0.3,18.1-8.8
	c0.3,0.4,0.6,0.8,1,1.1c4.9,3.1,6.4,10.3,13.1,11.3C803.6,252.5,797.4,253.5,794.3,256.4L794.3,256.4z M849.5,282.8
	c-8.6-17.8-20.4-39-43-39.3c-1.8-0.1-3.5-2.3-5.2-3.4c-3-2.6-6.5-4.7-10.2-6.2c12.9-5.4,27.7-5.5,37.7,3.6
	C838.6,246,857.8,269.7,849.5,282.8L849.5,282.8z M819.2,227.3c-21.6-6.5-24.1,8.9-39.8-5.9c-5.5-2.3,0.7-3.3,1.8-5.5
	c18.2-10.1,41.1-8.3,55.8,5.3c7.2,8.8,21,15.3,21.5,27.5C846.1,240.9,833.3,232,819.2,227.3z M789.9,255.6c-2.1-2.7-4.3-5.2-6.8-7.6
	C779.9,253,787,262,789.9,255.6z M699.4,309.6c-2.3,4.8-0.5,10.1-1.4,15.2c-0.5,3.6-3,6.8-3.5,10.5c1-0.3,2.5-0.3,3.1-1
	c1.5-1.9,2.8-3.9,3.8-6c0.4-0.8,1.1-1.4,1.8-1.8c0.5,1.7,0.9,3.4,1.1,5.2c0.2,1.6-0.2,3.2-0.3,5c2.8-2.5,5.9-5.4,4.4-9.5
	C705.6,321.4,705.1,312.9,699.4,309.6z M611.5,447.5c-3.4,3.9,0,6.7,3,9.3C615.3,454.2,615.6,446,611.5,447.5z M607.2,458.9
	c0.9-3.8-2.5-7.1-4.4-10c-1.4,1.7-1.5,5.8-3,2.1c-1.6-1.7-3.1-6.8-5.7-3.2c2.6,6.5,4.3,15.5,12.2,16.2c0.5-2.7-2.1-4.2-1.6-6.6
	c0.4,0.1,0.8,0.3,1.1,0.6C606.3,458.2,606.8,458.6,607.2,458.9z M540.7,614.8c0.4-0.7,0.6-1.3,0.8-2.1
	C536.4,596.4,536.5,613,540.7,614.8z M534.4,616.9c0.3-0.7,1-1.5,0.8-2c-0.5-2.4-1.2-4.5-1.9-7.3c-1.4-1.5-2.9-2.9-4.6-4.1
	C527.3,607,531,615.4,534.4,616.9z M518.9,104.2c2.8-2.7,5.5-5,8.3-7.5c0.5-0.5,0.6-1.5,0.9-2.1C520.2,90.9,499.2,109.4,518.9,104.2
	z M515,459.8L515,459.8c-1.3-2.5-3.3-3.5-5.2-2.1c0,2.6-0.5,5.5,0.6,7.5c1.8,2.2,8.3,13,10.6,7.5C518.9,468.4,520.2,462.8,515,459.8
	z M500.3,90.2c1.6,0.4,3.3,0.5,5,0.5c4.5-2.1,10.6-1.3,13.4-5.7C514.7,82.4,503,86.3,500.3,90.2z M496.3,444.2
	c-0.2,5.2-0.1,10.3-0.1,16c0.7,1.4,1.5,2.8,2.4,4.1c2.7-6.4,3-18.9-0.5-24.8C497.4,441.1,496.4,442.6,496.3,444.2z M487,425.7
	c0.2,4.4,0.7,8.9,1,13.9c0.7,4.2,0,8,2.4,11.3c3.9-6.4,4.4-22.4-2.1-27.7C487.8,423.9,486.9,424.7,487,425.7z M431.2,206.6
	c-6-12.7-5.2,12.2-0.7,15.3c5.1,7.4,7.2,17,17.9,17.5c-0.9-1.8-2.1-3.5-3.4-5C437.9,226.4,432.9,217.6,431.2,206.6z M194.2,552.9
	c-0.1,0.7,0.8,1.4,1.2,2.1c1.6-2.9,3.2-5.8,4.9-8.6c-1.3-0.6-2.7-1.1-4.1-1.5C195.5,547.8,194.7,550.4,194.2,552.9z M198.1,537.9
	c0.1-0.6-1.1-1.5-1.6-2.2c-1.6,2.6-3,5.2-4.4,7.8c1.3,0.4,2.7,0.7,4.1,0.9C197,542.2,197.6,540.1,198.1,537.9z M196.5,513.7
	c-0.7,0.7-2,1.2-2.3,2c-2.6,6-4.9,12-7.3,18.7c-1,3.3-3.3,5.4-2.1,8.5C190.9,540.4,201.9,519.3,196.5,513.7z"/>
<path class="st6" d="M169.4,761.4c3-8.6-18.8,5.1-22.6-1c5.4-7.6,25.6-1.8,22.6-14.6c-2.4-13.9-2.6-28.8-6-42.4
	c-4.1-10.6-8.9-21-13.6-31.3c-1.7-3.6-3.4-7.2-5.1-10.8c-6.6-12.2-11.5-26.4-20.1-37c-21.4-10-48.1-14.6-64.1-32.5
	c-2.4-2.6-4.4-5.5-6.2-8.5c18.1,10,33.6,25.3,55,29.4c-18.2-36.7-34-74.7-37.6-116c-0.3-4.1-3-9.8,1-12.7c2.4,2,4.3,12.6,6.1,24.9
	c3,20,6.2,44.2,12.8,41.2c9.6,0,73.2-8.6,53.3-25.2c-4.9-2.6-1.2-8.2-4.7-10.8c-17.4-2.9-35.1-2.5-52.7-3.3
	c-1.2-0.1-2.3-1.8-3.5-2.6c6.4-3.1,14-0.9,21.1-1.4c13-0.8,26.1,0.4,38.7,3.5c-8.3-19-3.8-10.3-23.7-16.1
	c-15.7-3.7-31.3-7.8-46.7-12.3c-19.5-5.7-38.7-12.2-57.5-19.6c-3.8-0.4-6.5-0.8-8.3-1.2c-0.3,2.9-0.6,5.8-0.9,8.6
	c0,6.9-5.8,15.9,1.7,20.8c9.1,3.5,14.7,22.3,0.9,20.1c-3.6-0.7-3,1.2-2.4,2.6c9.5,30.8,26.1,59.4,46.9,84.2
	c9.7,11.6,20.4,22.4,31.8,32.4c16.3,13,34.5,23.6,51.5,35.8c3.2,2,7.3,4.7,9.1,8.3c1.3,2.6,1.2,5.6-0.1,8.1c-3.4-1.2-3.2-6-5.8-7.9
	c-4.8-3.8-9.9-7.4-15.1-10.6c-17.9-10.9-34-25.8-52.1-36.1c13.4,24.7,43.1,38,52.7,65.7c4.8,13,5.2,27.5,13.9,39.1
	c0.2,0.5-0.1,1.3-0.2,2c-1.9-0.4-3.9-5.4-4.9-1c-1.8,12.8-21,61.9,3.6,59.2C172.4,789.3,164.7,794.8,169.4,761.4z"/>
<path class="st6" d="M127.6,491.1c0.9,0.2,1.7,0.4,2.5,0.6c0.7-4.5,1.8-8.9,1.9-13.5c0.1-1.1-2.4-2.4-3.8-3.6
	c-4.3,3.5-3.2,9.6-4.1,14.7C124.1,489.8,125.8,490.5,127.6,491.1z"/>
<path class="st10" d="M466.4,291.4c-4.8-9.3-34.7,7.8-45.5,7.5c-7.7,1.5-11.8,2.6-13.5,11.7s-6.9,17.8-11.3,26.1
	c-3.2,10-17.3,15.9-15.9,26.5c8.8-6.7,16.1-16,23-24.4c8.3-10.3,12.8-23.8,21.8-33.4c2,4.1,0.1,6.2-1,10.9
	c-7.3,14.2-18,26.3-27.8,38.9c-4.7,6.2-13.6,10-18.1,16.4c-4.1,16.2-8.1,32.5-11.7,48.7c-1.5,7.7,20,20.3,26,25.5
	c10.8-53.6,54.6-94.6,90.4-133.4C489.3,307.6,468.8,296.9,466.4,291.4z M431.5,423.1c-7.6,10.4-14.6,23.1-15.9,36.7
	c-0.1,0.8-1.9,1.6-3,2c-6.1-31.4,51.9-88.5,70.8-114.1c3.5-6.5,20.5-18.6,16.3-25.4c-4.3-3.1-9.7-12.8-14.9-6
	c-25.5,27.3-48.5,56.6-70.2,86.8c-7.7,10.8-13.5,22.9-17,35.7c-5,12.4,6.8,16.7,14.5,23.6c0.1,0.1,0.4,0.3,0.5,0.4
	c11.7-3,19-15.2,28.3-22.4c1.1-1,1.3-3.2,1.4-4.9C437.6,429.7,435.1,438.7,431.5,423.1z M391.8,321.7c-3.4,9.5-9.3,18.2-11.4,28.1
	c5.6-1.7,6-6.6,9.1-11.3c5.4-11.5,10.7-22.8,15.9-34.1c0.2-0.5-0.7-2-0.8-2C394.6,302.8,395.5,314.8,391.8,321.7z M261.6,234.4
	c12.2,38.8,28.3,78.3,58.9,106.4c3.9,3.5,7.7,5.6,12.6,1.8c7.1-3.5,12.8-13.1,21.3-11.7c14.8,4.1,23.5-5,18.5,16.9
	c4.9-3.7,6.2-9.7,8.7-14.9c3.4-9.2,8.9-17.9,10.8-27.4c-4.3,2.1-4.9,7.7-7.7,11.3c-19.9,31.9-52.8-2.3-66.1-22.2
	c-24.1-32.4-35.9-71.2-45-110.1c-5.3-24-10.6-50.2,5-71.3c-20.4,6.5-46.6,18.7-40,44.5C244.2,184.1,252,208.8,261.6,234.4z
	 M361.5,362.1c5.3-7,7.5-14.8,8.8-23.5c0.1-0.5-0.7-1.3-1.1-1.9c-0.3,0.1-0.8,0.4-0.8,0.5c2.1,7.2-11.7,21.6-16,27.8
	c-8,7.2-3.4,17.3-4.6,27.5c-0.2,33,2.9,66.5-1.4,99.4c23.2-20.9,0-20.7,8.3-41.8c5.2-33.2,16.3-66.2,23.6-99.3
	C371.8,354,370.1,363,361.5,362.1z M314.8,341.8c-17.4-14.8-28.5-34.6-39.2-55.3c-10.8-27.1-20.4-54.5-30.2-81.9
	c-4.1,5.2-18.7,24-16.4,29.8c14.2,26.3,42.6,47.9,43.6,79.4c0,19.7-1.6,40.5,2,59.8c4-10.1,4.9-21.7,9.3-31.4
	c6.9,7.1-3.2,28.2-6.9,36.7c-4.2,7.5-2.1,51.2,4.6,56.7c30.2,24.1,8.3,41.2,21.4,41.2c5.5,1.1,11.2,5.6,16.6,7.7
	c2.1-41.4-1.3-83.1,3.8-123.9C323.3,352.6,321.3,347.2,314.8,341.8z M126.2,466.5c-6.8-1.3-13.8-2.2-20.7-2.7
	c6.7,2.1,13.5,4.4,20.3,6.6c1.1,0.2,2.3,0.2,3.4,0.1C128.1,469,127.4,466.8,126.2,466.5z M105.8,432.7c-0.9,0.1-1.6,1.2-2.4,1.9
	c2.9,0.4,29.5,6.3,24.7-0.7c-2.6-2.9-5.2-6-10.2-4.1C113.8,430.7,109.7,431.5,105.8,432.7z M27,426.5c30.8,15.7,62.4,30.6,96.7,36.6
	c9,2,0.8-9.4,0.5-13.8c-0.6-2.1-1.4-4.6-0.7-6.5c3.5-6.1-29.9,1.5-31.2-10.9c-4.1-15.9-3.2-34.6-11-49.1
	c-8-10.3-37.6-29.6-34.2-44.2c0.2-0.8,0.4-1.6,0.8-2.3c0.6,0.5,1.6,0.9,1.8,1.5c1,7.1,6,11.8,10.6,16.7c7.6,7.7,14,16.6,22.3,23.6
	c0.9-12.5-7.4-24-5.7-36.6c1.2,1.8,3.2,3.6,3.7,5.7c4.6,19.7,8.7,38.8,13.3,58.6c0.1,0.3,0.2,0.7,0.2,1c0.7,5.7,1.2,11.4,2.1,17.1
	c1.3,7.1,1.3,7.1,8,5c39.2-13,81.5-18.4,122.8-12.3c14.9,1.4,29.4,5.3,43,11.5c3.5,1.7,2.6-0.1,2.6-1.8c-0.2-18-0.8-22.1-18.7-28.3
	c-51.8-15.3-109-9.4-159.6,7.7c21-26.8,153.3-29.2,175.5-2.6c-1.2-30.8-2.7-62.9-2.5-94.1c-3-20.2-18.7-36.1-28.8-53.4
	c-15.6-30.3-52.9-40.2-84.2-44.9c-19-1.6-31.6,10.9-42.4,24.5c-8.3,8.7-11.5,22.8-21.8,29.1c-0.2-3,0.6-6,2.1-8.7
	c2.1-3.9,5.3-7.5,7.3-11.4c13.7-22.4,35.7-43.8,64.5-37.3c20.4,3.9,40,11.2,58,21.7c2.4,1.3,2.4,0,3-1c5.7-10.4,16.6-19.6,18.5-31.4
	c-6.6-17.5-8.2-37.6-11.1-55.3c-44.2,19.2-87.3,41.2-123.7,73.2C95.5,224.3,86.5,237,79.1,251c-9.5,17.9-16.3,37.7-24.8,55.8
	c-4.8,9.6-8.1,20.1-11.5,30.5c-5.4,16-11.1,31.6-23.7,43.1c-5.2,4.1-9.8,10.3-9.6,18C9.9,411.3,15.7,420.6,27,426.5z M27.1,431.8
	c-3-1.5-5.9-3.2-8.9-4.6c-0.5,0-1,0.2-1.4,0.4c20.1,15.9,46.3,23.7,71,30.1C67.8,448.2,47.3,441.1,27.1,431.8z"/>
<path class="st6" d="M18.1,460c2.6-4.4,2.8-8.7,4.9-13.7c0.9-2.6,1.5-5.3,1.9-8c0.1-1.1-1.4-2.4-2.1-3.6
	C20.1,440.7,13.2,454.7,18.1,460z"/>
<path class="st11" d="M364,343.5c0.7-2.3,1.5-4.4,2.2-6.6c-2.1-0.2-4.4-0.3-7.6-0.4c0.9,2,1.9,3.9,3,5.8
	C361.9,343,363.1,343,364,343.5z M337.2,493c5.8-4.6,9.7-25.2,6-30.7c-2.5,4.2-3.8,8.3-6.3,13.3c-3.5,3.6-11.4,6.5-11.4,12
	C328.2,490.9,332.4,497.3,337.2,493z M325.1,442.6c0.2,1.1,0.4,2.1,0.8,3.2c15.6-16.8,18.7-29.8,16.5-52.4
	c-5.1,6.2-6.4,14.5-10.2,21.5c-7.8,6.6-6.8,14-7.1,24.2C325,440.2,325,441.4,325.1,442.6z M328.2,353.4c-1,12.2,0.9,12.6,12.3,11.3
	C352.6,363.5,335.9,334.3,328.2,353.4z M332.2,370.8c-7.3-2.7-6,6.3-5.8,10.8c1.2-1.9,2.5-3.7,3.8-5.5
	C330.8,374.4,331.6,372.6,332.2,370.8z M329.1,632.9c-0.2-1.3-0.6-2.5-1.1-3.6c-0.4-0.7-1.7-0.7-2.5-1c0.3,0.8,0.5,1.7,0.7,2.5
	c0,0.9,0.2,1.8,0.5,2.6C327.4,633.2,328.2,633,329.1,632.9z M136.6,485.9c-0.5,0.7-0.9,1.4-1.3,2.1c-0.4,1-0.7,2.1-1,3.1
	c0.7,0,1.4-0.2,2.1-0.6c0.2-0.6,0.7-1.3,0.7-1.8C137,487.8,136.7,486.9,136.6,485.9z M27.7,462.1c12.7,4.3,25.4,8.6,38.1,12.4
	c15.7,4.7,31.6,9,47.4,13.5c8.3,3.1,4.7-4,6.7-9.8c2.5-3.5,0.7-4.8-2.5-5.8c-29.4-8.3-58.9-16.5-86.1-30.7c-6,0.4-3.5,10.4-6.5,14.2
	C23,460,25.1,461.2,27.7,462.1z M13.7,430.2c-2.4,7.9-4.3,16-5.5,24.1c4.8-4.9,7.9-11.2,8.9-17.9C18.1,434.2,16.3,424.5,13.7,430.2z
	"/>
<path class="st6" d="M4.8,492.2c-0.1,1.5-0.2,3-0.4,5.6c0.4,1.6,0.2,3.8,1.2,5c1.3,1.5,3.6,2.4,5.5,3.6
	C12.8,501,8.8,495.5,4.8,492.2z"/>
</svg>
