<svg xmlns="http://www.w3.org/2000/svg" viewBox="0 0 128 128" role="img" aria-labelledby="title">
  <title>Hermes Conrad</title>
  <rect width="128" height="128" rx="26" fill="#dff5dd"/>
  <path d="M32 64c0-26 13-43 33-43s33 17 33 43c0 25-14 42-33 42S32 89 32 64z" fill="#8a573a"/>
  <path d="M28 55c3-26 17-40 39-40 18 0 30 11 34 34-11-4-21-4-31 0-12 4-26 6-42 6z" fill="#171718"/>
  <path d="M24 57c10 3 19 3 27 0-5 6-13 10-24 11zm77-7c4 9 4 19 0 30l-9-5c3-9 3-17-1-25z" fill="#171718"/>
  <rect x="43" y="61" width="22" height="16" rx="8" fill="#fff" stroke="#221a17" stroke-width="3"/>
  <rect x="68" y="61" width="22" height="16" rx="8" fill="#fff" stroke="#221a17" stroke-width="3"/>
  <path d="M65 69h3" stroke="#221a17" stroke-width="3"/>
  <circle cx="54" cy="69" r="3" fill="#221a17"/>
  <circle cx="79" cy="69" r="3" fill="#221a17"/>
  <path d="M45 56c5-3 10-4 15-3m13 3c5-3 10-4 15-3" fill="none" stroke="#2a1b16" stroke-linecap="round" stroke-width="4"/>
  <path d="M53 87c4 5 9 7 14 7s10-2 14-7" fill="none" stroke="#4b241d" stroke-linecap="round" stroke-width="4"/>
  <path d="M31 101h70l10 21H19z" fill="#77b83c"/>
  <path d="M49 97h36l8 25H40z" fill="#f4f0dd"/>
  <path d="M49 105h36l-8 17H56z" fill="#70a835"/>
</svg>
