<?xml version="1.0" encoding="utf-8"?>
<!-- Generator: Adobe Illustrator 25.2.3, SVG Export Plug-In . SVG Version: 6.00 Build 0)  -->
<svg version="1.1" id="Слой_1" xmlns="http://www.w3.org/2000/svg" xmlns:xlink="http://www.w3.org/1999/xlink" x="0px" y="0px"
	 viewBox="0 0 864 864" style="enable-background:new 0 0 864 864;" xml:space="preserve">
<style type="text/css">
	.st0{fill:none;}
	.st1{fill:#A144D3;}
	.st2{fill:#FFE12A;}
	.st3{fill:#00B2FF;}
	.st4{fill:#518400;}
	.st5{fill:#FF8810;}
	.st6{fill:#004DC4;}
	.st7{fill:#FFFFFF;}
	.st8{fill:#D9FF53;}
</style>
<path class="st0" d="M409.5,91.2c1.2,3.2,2.2,2.4,4,0.8c3.5-3.1,7.2-6,10.7-9.2c12.5-11.3,24.9-22.8,34.2-37c2.9-4.2,4.9-9,5.7-14.1
	c0-4.7-2.9-8.6-7.8-10.2c-5.7-1.7-11.7-1.5-17.4-0.8c-21.2,2.8-41.1,9.8-61,17.1c-3.2,1.2-2.9,2.1-0.8,4.3
	C391.5,55.9,402.6,72.6,409.5,91.2z"/>
<path class="st0" d="M88.4,252.7c6,1.8,12.2,1.5,18.4,0.7c20.6-2.9,40.1-9.8,59.4-17.1c2.9-1.1,3.3-1.8,1-4.2
	c-15-14.6-26.4-32.4-33.4-52.1c-17.3,14.3-33.6,28.4-46.4,46.2c-3,4-5.2,8.5-6.4,13.4C79.5,246.2,82,250.8,88.4,252.7z"/>
<path class="st0" d="M244.8,517c-3.5,2.2-7,1.7-10.4-0.1c-8.2-4.5-14.3-10.9-19.2-18.7c-0.8-1.4-1-3.4-2.9-3.8
	c-1.5,5.4-1.7,7,0.7,9.3c11.7,12.2,25.1,22.5,39.8,30.8c1.1,0.7,2.5,1.4,3.6,0.1c1.1-1.2,0.3-2.2-0.4-3.2c-2.7-4.2-5.1-8.7-7-13.4
	C248.1,515.6,246.6,515.9,244.8,517z"/>
<path class="st1" d="M621.4,506.7c-1.4,0-1.7,1.4-2.1,2.5c-3.8,7.2-8.5,14-13.9,20.2c-18.9,21.4-41.9,37.5-67.7,49.7
	c-20.9,10-43.2,16.7-66.1,19.9c-16,2.2-32,2.2-48.2,1.8c-28.7-0.7-57-4.9-84.4-13.9c-28.1-9-52.9-23.5-73.5-44.8
	c-1.1-1.1-2.2-3.1-4-2.4c-2.2,0.7-2.2,3.1-2.4,5c-0.2,5.1,1.4,10.1,4.5,14.2c5.6,7.7,13,13.5,20.6,19.1
	c43.4,31,92.3,44.7,145.2,45.4c24.8,0.2,49.6-3.3,73.4-10.3c33.1-9.5,63.3-24.7,90-46.7c12.4-10,22.8-21.6,29.5-36.3
	c2.9-6.7,4.5-13.4,1.4-20.5C623.2,508.5,623.2,506.7,621.4,506.7z"/>
<path class="st2" d="M629.8,210.9c9,3.8,17.7,5.2,25.9,7.8c2.1,0.7,3.8,1.2,4,4.2c0.8,9.2,2.1,18.2,3.3,28.4
	c6.7-7.5,11-15.7,16.4-23c2.4-3.2,4.5-4,8.4-3.2c8.8,1.9,17.5,3.3,27.7,5.1c-6.3-7.1-11.4-13.2-16.7-19.2c-5-5.9-4.6-5.6-1-12.4
	s8.5-12.5,11.1-20.3c-8.6,1.9-15.6,6-22.8,9c-3.6,1.5-6,1.7-9.1-1.5c-6.1-6.5-13.1-12.2-19.3-18.1c-0.7,6.7,0.4,14.3,0.7,21.9
	c0.3,9.6,0.3,9.5-8.6,13C643.3,205.1,636.9,208,629.8,210.9z M568.8,141.9c2.2-0.3,3.3,0.6,4.5,2.4c5.3,9.3,10.6,18.5,16,27.9
	c2,3.5,4.3,6.8,6.5,10.3c1.5-1.1,1.2-2.5,1.4-3.6c2-12.5,3.8-25.1,5.6-37.7c0.4-3.2,1.4-4.6,5-5.3c13.4-2.8,27-4.2,40.8-7.9
	c-11.8-7.5-24.2-12.3-36.1-18.2c-3.1-1.7-4.2-3.2-3.8-6.8c1.4-12.2,2.4-24.4,3.5-36.6c0.1-1.8,0-3.8,0-6.4c-1.5,1.4-2.7,2.2-3.6,3.1
	c-9.5,8.8-19.1,17.3-28.4,26.2c-2.4,2.2-4.2,2.4-7.1,0.8c-8.5-4.6-17.3-8.8-25.9-13.1c-3.3-1.7-6.7-3.2-10.9-5.3
	c4.7,13.2,11.1,24.5,16.3,36.2c1.5,3.3,1.5,5.6-1.2,8.3c-5.2,5.2-10,10.7-15,16.1c-4.2,4.6-8.5,9.3-13.4,14.8
	c5.3-0.4,9.3-0.6,13.5-1C547.2,144.7,558.1,143.3,568.8,141.9z"/>
<path class="st3" d="M661.8,494c-0.1-4.3-2.1-3.8-4.7-2.2c-7.7,4.7-15,10.2-21.7,16.3c-3.2,2.6-5.2,5.6-5.2,10.2
	c0,4-1.4,8.3-2.9,12.1c-7.2,17.5-19.9,30.8-34.4,42.6c-9.3,7.4-19.2,14-29.5,20c-1.3,0.7-3.3,1.2-3.2,2.8c0.3,2.2,2.7,1.5,4,2
	c4,1.2,8.2,2.7,11.1,5.7c3.6,3.6,6,2.5,8.2-1.2c0.8-1.3,1.8-2.4,2.6-3.6c1.5-2.5,0.8-3.8-2-4c-1-0.1-2.1,0.1-2.5-1.2
	c0.8-1.5,2.4-1.8,3.9-2c2.1-0.3,4.5-1,6.1,1s0.1,4.3-1,6.1c-2.1,3.3-4.3,6.8-6.7,9.9c-1.8,2-2.7,4.7-2.2,7.4
	c2.7,16.6-11.7,30.9-25.8,34.1c-5,1-10.2,0.7-14.3-1.5c-2.1-1.1-3.9,0-5.6,1c-3.7,2.5-7.8,4.4-12.1,5.8c-3.2,1-6.1,0.1-6.1-3.6
	c0-4.3,1.3-8.5,5.7-11.7c-0.1,1.3-0.3,2-0.3,2.5c0,2.6-2.8,5.7-0.3,7.5s5-1.4,7.5-2.5c3.5-1.4,4.5-3.2,2.2-7
	c-3.6-5.8-5.2-12.1-3.2-19.2c1.2-4.3,3.9-8.1,5.3-12.2c-1.8-0.8-2.9,0.3-4,0.7c-35.9,14.5-73,21.6-111.8,19.5
	c-49.9-2.4-98.1-18.6-139.2-46.9c-13.1-8.9-24.1-19.8-26.2-36.9c-0.2-1.7-1.4-3.1-2.9-3.8c-15.1-7.1-28.6-17.1-39.8-29.4
	c-2.1-2.2-3.6-2.2-5.7,0.1c-11.8,13.6-27.1,21.4-44.3,26c-4.2,1.1-5,2.1-2.2,5.8c23.7,32.7,53.9,58.1,89.2,77.3
	c5.9,3.3,6.5,2.8,6.7-4c0.1-7.7-0.4-15.5,2.2-23c0.4-1.1,0.6-2.9,2.2-2.8c2,0.1,2,2.1,2,3.5c-0.4,14.9,2.2,29.4,3.5,44.1
	c0.3,3.3,1.4,5.2,4.6,6.3c23.5,8.7,47.8,15.4,72.5,19.8c23.5,4.5,47.5,6.7,71.3,8.1c24,1.3,48,0.6,71.8-2
	c21.3-2.1,42.4-6.2,62.9-12.2c3.5-1,7-2.1,10.4-3.5c17.3-5.9,34.1-13.4,50-22.4c3.2-1.8,4.6-4.2,5.2-7.9c2.1-12,2.1-24,2.5-36.1
	c0-1.5-0.7-4,1.4-4.2c2.5-0.4,2.5,2.2,2.5,4c0.4,6.3,0.7,12.7,1,18.9c0.1,1.7-0.7,3.8,1.3,4.6c1.5,0.7,2.8-0.8,4-1.7
	c2.7-2,5.4-3.9,8.1-5.8c23.8-16.7,46.2-35.1,66-56.5c4.3-4.6,3.9-4.6-1.8-7.2C677.7,532,662.9,518.2,661.8,494z M602.4,678.4
	c-18.8,15.7-40,28.3-62.8,37.3c-23.1,9.2-46.9,14.5-71.6,17c-36.2,3.7-72.8,0.8-108-8.5c-30.3-7.8-58-20.9-83.9-38.2
	c-1.2-0.8-2.8-2.8-4.3-1.5c-1.5,1-0.4,3.1-0.1,4.7c2.5,14.3,5,28.7,7.5,42.9c3,17.7,7,35.2,11.8,52.5c1.1,3.9,3.2,5.6,7.4,6
	c19.7,2.1,38.9,7.3,56.8,15.6c18.9,8.8,36.8,19.5,54.4,30.4c8.8,5.6,17.7,6.4,27.4,4.7c3.9-0.7,6.7-2.5,6.7-7.2
	c0.1-4.9,0.5-9.7,1.2-14.5c0.4-3.2-0.6-4.9-3.9-5.6c-5.3-1.2-10.7-2-15.3-5.8c15,3.4,30.7,1.1,44.1-6.4c0.1,0.5,0.4,1,0.5,1.5
	c-0.5,0.6-1.1,1.2-1.7,1.8c-2.1,1.4-4.2,3.2-6.4,3.9c-11,3.1-13.6,10.2-12.5,20.8c1,8.1,0.6,8.6,8.4,7c16.7-3.6,33-8.5,48.3-16.4
	c16.7-8.6,32.3-19.4,49.7-26.5c9.9-4.2,19.6-9.6,31-8.3c1.7,0.3,2.4-1,2.7-2.4c0.6-1.9,1.1-3.9,1.4-5.8c2.8-15.7,5.8-31.6,8.4-47.5
	c2.5-16.3,5.3-32.7,6.8-49.2c0.1-1.4,1.2-3.3-0.4-4.2S603.5,677.5,602.4,678.4z"/>
<path class="st4" d="M412.2,537c5.3,3.5,10.9,6.6,16.7,9.2c9.9,4.6,20,7.9,31,6.3c14.2-2.2,26.2-9,36.9-18.2c0.8-0.7,2-1.2,1.7-2.4
	s-1.5-1.1-2.5-1.2c-7.6-1.2-14.8-4.3-21.9-7.2s-14.1-5.6-22.3-5.3c-3.4,0-6.7,0.4-10,1.2c-10.5,2.7-19.8,8-29.4,12.7
	C409.1,533.7,409.5,535.4,412.2,537z"/>
<path class="st5" d="M573.1,620.2c-7.9,7-15.7,13.9-24.1,20.5c-1.4,1-4,1.4-3.1,3.8c0.7,1.8,2.9,0.8,4.5,1
	c12.7-0.1,25.9-11.6,26.7-23c0.1-1.4,0.8-3.2-0.8-4S574,619.3,573.1,620.2z M561.8,600.7c-13.9,0.1-22.8,6-27.6,17.5
	c-2.8,6.8-3.2,13.9,1.5,20.5c1.7,2.5,3.6,3.2,6.3,1.1c10.7-8.6,21.4-17.1,31.5-26.5c2.5-2.4,2.4-4.6,0.3-7
	C570.3,602.2,566,600.1,561.8,600.7z M181.7,236.6c1.8,1.5,3.1,2.6,4.4,3.6c35.1,24.8,74.1,33.7,116,24.5
	c54.2-12,91.2-43.9,106.4-98.6c5.6-20.2,4.7-40.7-0.8-61.6C338.1,157.8,262.2,202.1,181.7,236.6z M173.9,230.3
	c2.2,2.1,3.9,1.5,6.3,0.6c76.5-32.7,148.8-74.5,215.3-124.6c11.1-8.3,11.4-8.5,5.1-20.9C374.1,32.6,329.6,8.9,279,6.3
	c-29.1,0.3-50.4,4.9-70.5,14.5c-61.4,29.4-89.8,96.6-69.9,154.3C145.8,196,157.9,215,173.9,230.3z"/>
<path class="st6" d="M574.5,792.5c-14.1,4.5-26.9,11.3-39.3,18.9c-20,12.2-40.8,22.3-63.8,27.4c-2.1,0.4-4.5,0.4-6.4,3.1
	c8.5,2.9,16.7,4.2,24.9,5.4c23.2,3.5,46.5,5.2,70,3.1c17.8-1.5,35.2-5.2,51.5-12.2c15.5-6.8,21-13.9,3.9-29c-7-6-15-10.6-23.1-15.2
	C586.5,790.7,580.6,790.6,574.5,792.5z M601.8,641.6c-31.9,17.7-66.1,28-101.9,33.3c-4.2,0.6-5.3,2.1-5,6.1c0.7,8.9,2.1,18,2.2,27
	v9.5c-0.1,3.2,0.7,4.9,4.5,3.8c3.2-1,6.4-1.5,9.8-2.2c35.4-8.8,66.7-25.6,94.4-49.3c1.4-1.1,2.7-2.4,2.8-4.5
	c0.6-6.1,1.2-12.4,1.7-18.5c0.1-2.9,2-7-0.6-8.5S604.3,640.2,601.8,641.6z M410.5,727c25.1,1.8,50.3,1,75.2-2.4
	c5.4-0.7,7.1-3.1,6.7-8.2c-0.8-11.8-1.4-23.7-2-35.5c-0.3-3.5-1.7-4.6-5.1-4.2c-16.3,1.7-32.7,3.3-51.9,2.2c-7.1,0-17,0.1-26.7,0
	c-2.6,0-4.6,0.1-4.7,3.6c-0.1,13.4,1.1,26.8,3.8,40C406.2,725.4,407.4,726.7,410.5,727z M402.1,839c-3.4-1.8-6.7-3.8-10.2-5.6
	c-18.1-9.6-35.6-20.7-55.3-27.6c-12.5-4.2-25.5-6.5-38.4-9.3c-4.2-1-7.5-0.7-10.6,2.2c-5.7,5.6-11.7,11-17.3,16.8
	c-5.3,5.4-9.7,11.6-12.2,18.8c-3.2,9.2-1.2,13.9,7.7,17.7c9.2,3.8,18.9,3.6,28.7,3.6c4.6,0,9,0.3,13.6,0c21.5-0.9,43-3.1,64.3-6.4
	c9.7-1.5,19.6-2.9,29-6c1.1-0.4,2.5-0.3,2.8-1.8S403.1,839.6,402.1,839z M284.2,685.5c34.8,20.6,71.9,34.8,112.2,39.8
	c4.2,0.5,4.9-0.8,4.2-4.7c-2-9.5-3.9-18.9-3.5-29.1c-0.1-13.2-0.1-13.2-11-14.1c-37.3-3-73.9-11.2-108.9-24.4
	c-3.3-1.2-7.2-5.2-9.9-2.5s0.4,7.7,0.1,11.4C266.8,674.5,274.7,679.9,284.2,685.5z"/>
<path class="st7" d="M544.6,461.9c21.3,0,38.3-17.8,38.3-40.2c-0.1-21.3-16-37.3-37.2-37.2c-21.7-0.2-39.4,17.3-39.5,38.9
	c0,0.1,0,0.1,0,0.2c0,21.1,17.1,38.3,38.3,38.3C544.5,461.9,544.5,461.9,544.6,461.9z M539.6,415.1c9.6-0.1,18.1,8.4,18.1,17.8
	c0,9.9-8,17.9-17.8,18c-9.8,0.2-18-7.6-18.2-17.4c-0.2-10,7.8-18.2,17.8-18.4C539.4,415.1,539.5,415.1,539.6,415.1L539.6,415.1z
	 M545.5,438.7c4,0,6.1-2.4,6.3-6.3c0.4-5.3-4.6-11.1-9.3-11.3c-3.6-0.1-5.8,2.5-6,6.5C536.4,433.3,540.7,438.6,545.5,438.7z
	 M404.9,429c17.3,10.5,35.4,10.5,52.9,0.7c11.7-6.4,18.2-16.7,18.5-30.4c0.6-26.7-23.4-47.9-50.4-45c-22.4,2.5-39,20-39.1,41.4
	C386.7,410.1,392.7,421.5,404.9,429z M430.5,391.4c10.3,0,18.4,7.9,18.2,18c0,9.9-8.1,18-18,18c-9.9,0-18-8.1-18-18
	C412.8,399.6,420.7,391.5,430.5,391.4z M436.1,415.2c3.6,0.1,6.3-2.9,6.1-7c0-5.3-4.6-10.5-9.3-10.6c-3.8-0.1-6.1,2.5-6.1,6.8
	C426.8,409.9,431.2,415.1,436.1,415.2z M321.7,462.8c23,0.1,39.5-15.9,39.7-38.3s-15.6-39.5-36.6-39.8c-21.9-0.3-40,17.1-40.2,38.6
	C284.3,446.1,299.9,462.7,321.7,462.8z M330.8,418.1c9.3,0.1,17.8,8.8,17.8,18.1c0,10-8.1,18.2-18.2,18.2c-10,0-18.2-8.1-18.2-18.2
	C312.5,426.5,321.1,418,330.8,418.1L330.8,418.1z M336.8,442.4c4.2-0.3,5.6-3.1,5.6-7c0-5.7-4.5-10.4-9.5-10.4
	c-4.3,0.1-5.7,2.9-5.8,6.7C326.8,437.4,331.7,442.6,336.8,442.4z"/>
<path d="M784.2,517c-6.8-6.7-15.5-9.7-24.1-13.1c-2.9-1.2-5-2.5-4.9-6c0.1-3.8-1-7.4,3.6-9.9c6.7-3.4,12.9-7.9,18.2-13.2
	c6.5-6.8,6.3-11.1-1.7-16.3c-10.7-7-22.6-8.4-34.7-5.3c-6.7,1.8-12.5,2.1-18.8-1.1c-2.9-1.4-4.3-2.9-5-6.1
	c-0.8-5.4-2.7-10.7-5.4-15.5c-6-10-16.4-10.4-23.3-1.1c-6.1,8.2-9.7,17.5-11.8,27.4c-0.7,2.9-1,6.1-3.2,8.4c-4,3.8-6.4,8.5-8.6,13.5
	c-0.7,1.8-1.7,3.6-3.6,4.5c-11.1,4.8-21.2,11.8-29.7,20.5c-0.8,1-1.8,2.2-3.3,1.1c-4.5-3.2-3.1-7.1-1.8-11.3c1-3.2,2.4-4.7,6-4.3
	c10.9,1.4,15.7-1.2,20.5-11.1c1.3-2.6,2.4-5.2,3.3-7.9c7.8-22.6,8.2-45.7,5.4-69.1c-1.3-14.1-6.2-27.6-14.2-39.3
	c-2.8-4.2-6.3-7.9-11.8-7s-7.7,5.4-9.6,10c-0.3,0.6-0.3,1.3-0.5,2c-3.3,10.7-5.4,22.1-10.7,32.3c-2.2,4.3-3.2,4.5-6.3,0.7
	c-13.5-16-29.7-28.7-47.5-39.1c-40.7-23.7-84.8-33.7-131.4-33.3c-4.2,0-5.7-1.3-6.8-5.1c-4.3-16.6-8.9-33-13.6-49.4
	c-0.7-2.4-0.4-5,1-7.1c2.8-4.3,3.9-9.5,2.9-14.5c-1.1-6.5-6.7-11.3-13.2-11.6c-7.2-0.4-12.7,3.1-14.6,9.6c-1.8,6.7-0.3,12.8,5,17.4
	c3.2,2.8,4.3,5.7,4.6,9.9c0.7,8.9,0.1,17.8,0.7,30.2c0,4,0,11.6,0.1,19.1c0,3.5-1,4.9-4.6,5.6c-15.2,2.9-30.1,6.7-44.6,12.5
	c-43.7,17.5-79.4,44.3-99.8,88c-1.5,3.2-2.8,2.4-4.2,0.1c-1.8-3.1-3.6-6.1-5.3-9.2c-6.4-11.3-11.1-23.7-18.7-34.4
	c-2.1-3.1-4.6-5.6-8.6-4.7s-6,3.8-7.1,7.5c-2.2,7.9-3.2,16.1-2.8,24.4c0,2.4,0,4.9-2.5,6.1c-6,3.3-10,8.8-14.5,13.8
	c-6.8,7.9-15.4,7-20.1-2.4c-0.8-1.6-1.7-3.2-2.7-4.8c-6.6-9.9-12.9-20-24.9-24c-13.1-4.2-18.8,0.3-20.9,11.1
	c-0.8,4.4-0.7,9,0.4,13.4c2,8.9,5.4,17.3,9.3,25.5c2.7,5.3-0.8,8.9-3.5,12.7s-5.6,1.5-8.6,0.7c-8.1-2.6-16.4-4.7-25.1-3.1
	c-6.8,1.2-11.1,5.4-11.8,11.8c-1,8.9,0.6,17.1,6.7,24c16.4,18.4,35.9,32.2,60.1,38.3c3.6,0.8,5.7,2.5,7.8,5.6
	c25.4,38,57.5,68.4,100,86.6c2.9,1,4.9,3.6,5,6.7c2.8,24.7,6.6,49.2,11.1,73.4c4.7,24.8,9.6,49.4,18,73.2c2,5.7,1,8.5-3.8,12.1
	c-11.1,8.3-21,18.1-27.7,30.8c-7.1,13.5-3.6,25.9,8.8,31.3c3.1,1.2,6.3,2.2,9.6,2.9c13.9,3.7,28.2,2.7,42.4,2.2
	c33.6-0.8,66.6-5.3,98.3-16.2c1.5-0.7,3.2-0.8,4.9-0.4c10.2,3.1,19.9,1.2,29.5-2.2c3.5-1.3,7.3-1.3,10.7,0c5.3,2.1,10.7,4,16.1,5.6
	c40.4,10.9,81,11.8,121.8,2.4c11.7-2.8,23.1-7,32.4-15.2c4.3-3.9,6.4-8.6,5.3-14.3c-1.2-6.1-4.1-11.8-8.3-16.3
	c-6.9-7.1-15-13-24-17.4c-2.7-1.2-3.9-2.8-2.9-5.8c2.9-9.2,4.7-18.5,6.8-27.8c5.2-24.1,8.6-48.5,11.8-72.8c2.4-18.5,4-37,4.9-55.6
	c0.1-2.4,0.7-4.2,2.8-5.6c18.8-11.6,35.4-26,52.1-40.2c10.7-8.9,21.6-17.8,29.9-29c3.8-4.9,7.1-8.2,13.8-7.5c2.9,0.3,6-0.7,8.8-1.8
	c3-1,6.2-1.1,9.3-0.4c14.6,2.9,29.1,2.4,42.9-3.3C790.6,535.1,792.4,525.1,784.2,517z M622.3,530.1c-6.7,14.8-17.1,26.3-29.5,36.3
	c-26.6,22-56.8,37.2-90,46.7c-23.8,7-48.5,10.5-73.4,10.3c-52.9-0.7-101.8-14.4-145.2-45.4c-7.7-5.6-15-11.4-20.6-19.1
	c-3-4.1-4.6-9.1-4.5-14.2c0.1-2,0.1-4.3,2.4-5c1.8-0.7,2.9,1.2,4,2.4c20.6,21.3,45.4,35.8,73.5,44.8c27.4,9,55.7,13.2,84.4,13.9
	c16.1,0.4,32.2,0.4,48.2-1.8c22.9-3.2,45.2-10,66.1-19.9c25.8-12.2,48.7-28.3,67.7-49.7c5.4-6.2,10.1-12.9,13.9-20.2
	c0.4-1.1,0.7-2.5,2.1-2.5c1.8,0,1.8,1.8,2.2,2.9C626.7,516.7,625.2,523.4,622.3,530.1z M573.5,613.4c-10,9.3-20.8,17.8-31.5,26.5
	c-2.6,2.1-4.6,1.4-6.3-1.1c-4.7-6.5-4.3-13.7-1.5-20.5c4.7-11.6,13.7-17.4,27.6-17.5c4.2-0.6,8.5,1.5,12,5.7
	C575.9,608.8,576,611,573.5,613.4L573.5,613.4z M576.3,618.4c1.7,0.8,1,2.7,0.8,4c-0.8,11.4-14.1,22.8-26.7,23
	c-1.5-0.1-3.8,0.8-4.5-1c-1-2.4,1.7-2.8,3.1-3.8c8.4-6.5,16.2-13.5,24.1-20.5C574,619.3,574.8,617.7,576.3,618.4L576.3,618.4z
	 M206.8,392.5c0.6-1.8,1.1-3.8,3.3-4s3.5,1.1,4.5,2.8c3.1,5.7,6.1,11.6,9,17.3c5.4,10.9,11,21.6,18.7,31.1c0.7,1.1,1.3,2.3,1.7,3.5
	c0.6,1.1-0.1,3.2,1.8,3.1c1.5,0,1.7-2,2.1-3.1c7.4-19.9,19-38,34.2-52.8c24.1-23.5,52.8-38.7,84.9-47.9c9.9-3,20.1-5.2,30.4-6.5
	c3.6-0.6,4.9-2.4,4.6-5.7c-1.1-18.2-2-36.5-3.1-54.7c-0.3-3.9-1-7.2-5.1-9.5c-5.3-2.9-7.1-12.2-4-17.5c3.5-6,12.8-6.3,17.1-0.4
	c3.2,4.2,4.3,9.8,1.1,13.7c-5,6-3.1,11.8-1.8,17.8c3.4,15.5,7,30.8,10.5,46.1c1.8,7.7,2,7.5,9.5,7.4c54.2-1.3,104.3,12.1,149,43
	c12.3,8.5,23.2,18.8,32.5,30.6c3.6,4.6,5,4.7,8.3,0c7.9-11.3,12.2-24.1,14.6-37.6c0.6-3.2,0.8-7,4.2-7.9c3.6-1.1,6.3,2,8.2,4.6
	c6.4,8.9,9.6,19.2,12,29.7c6,25.8,3.9,52.9-5.8,77.6c-3.8,9.2-7.2,11.3-15.3,10.6c-3.9-0.4-5.2-2-4.3-6c2.5-13.6,1.6-27.5-2.7-40.7
	c-1-3.2-2.1-6.7-6.4-8.9c1.1,5.7,3.3,10.4,4.3,15.5c2.8,15.7,0.4,30.9-4,46.1c-9.2,30.9-31.7,50.7-57.4,67.5
	c-28.9,19-61.6,31.3-95.8,36.1c-21.7,3.1-43.7,2.2-65.6,0c-31-3.2-61.1-10.6-89.1-24.5c-18.1-9-34.5-20.2-47.3-35.9
	c-13.5-16.7-19.1-35.9-16.7-57.2c0.3-2.9,1.3-5.9-0.4-8.8c-4.7,8.1-5.6,17-4.6,26c0.4,4,1.4,7.9,1.4,12c0.1,8.3-3.8,10.4-11,6.5
	c-4.6-2.5-8.5-6-11.6-10.3c-5.9-8.1-10.8-16.9-14.4-26.3c-1.2-3-1.1-6.3,0.3-9.2c4.2-9.5,8.8-18.9,8.9-29.6c0-7-2.4-12.1-9.3-14.2
	c-2.5-0.8-4-2.2-4-5.1C204.1,408.2,204.6,400.3,206.8,392.5z M256.4,534.7c-1.1,1.2-2.5,0.5-3.6-0.1c-14.7-8.2-28.1-18.6-39.8-30.8
	c-2.4-2.4-2.2-3.9-0.7-9.3c1.9,0.4,2.1,2.4,2.9,3.8c4.9,7.8,11,14.2,19.2,18.6c3.5,1.8,7,2.4,10.4,0.1c1.8-1.1,3.4-1.4,4.2,1.1
	c1.9,4.7,4.3,9.1,7,13.4C256.6,532.5,257.3,533.6,256.4,534.7z M118.8,522.4c-12.5-7-23.2-16.3-32.7-27.1c-2.7-3-4.4-6.7-5-10.7
	c-2-9.6,3.2-15.5,13-14.5c6.7,0.6,13.3,2.1,19.6,4.5c4,1.5,7,0.6,9.9-2.4c7-7.4,8.3-14.2,4.5-23.7c-3.3-7.9-7.1-15.6-8.2-24.2
	c-0.7-5.1-0.8-10.6,4.2-13.6c5-3.1,10-1.2,14.6,1.8c3.6,2.2,6.7,5.1,9.1,8.6c3.8,5.7,7.8,11.3,11.6,17c3.2,5.2,8.1,6.8,13.5,7.7
	c3.9,0.8,7.8-0.6,10.4-3.5c3.2-3.6,6.8-7,10.3-10.4c2.2-2.3,4.9-4.2,7.8-5.4c7-2.9,12,0.4,12,8.1c0.1,7.9-2.4,15.3-6.1,22
	c-4.2,7.8-5.1,15.5-3.3,24.2c5,24.6-4,38-33,49.1c-5.7,2.3-11.9,3.3-18,2.8C140,533.4,129.2,528.3,118.8,522.4z M267.4,650.5
	c2.6-2.6,6.5,1.3,9.9,2.5c35,13.2,71.6,21.4,108.9,24.4c10.9,0.8,10.9,0.8,11,14.1c-0.4,10.2,1.5,19.6,3.5,29.1
	c0.7,3.9,0,5.3-4.2,4.7c-40.4-5-77.4-19.2-112.2-39.8c-9.5-5.6-17.4-11-16.7-23.5C267.8,658.2,264.6,653.2,267.4,650.5z
	 M401.4,843.4c-9.3,3.1-19.2,4.5-29,6c-21.3,3.3-42.8,5.5-64.3,6.4c-4.6,0.3-9,0-13.6,0c-9.7,0-19.5,0.1-28.7-3.6
	c-8.9-3.8-10.9-8.5-7.7-17.7c2.5-7.2,7-13.4,12.2-18.8c5.6-5.8,11.6-11.3,17.3-16.8c3.1-2.9,6.4-3.2,10.6-2.2
	c13,2.8,25.9,5.2,38.4,9.3c19.6,6.8,37.2,18,55.3,27.6c3.5,1.8,6.8,3.8,10.2,5.6c1,0.6,2.2,1.1,2.1,2.5S402.5,843,401.4,843.4z
	 M615.4,809.3c17.1,15,11.6,22.1-3.9,29c-16.3,7.1-33.7,10.7-51.5,12.2c-23.5,2.1-46.8,0.4-70-3.1c-8.2-1.2-16.4-2.5-24.9-5.4
	c2-2.7,4.3-2.7,6.4-3.1c23-5.2,43.7-15.2,63.8-27.4c12.4-7.7,25.2-14.5,39.3-18.9c6.1-2,12-1.8,17.8,1.5
	C600.4,798.7,608.5,803.3,615.4,809.3L615.4,809.3z M606.5,680.6c-1.5,16.4-4.3,32.9-6.8,49.2c-2.5,15.9-5.6,31.8-8.4,47.5
	c-0.3,2-0.8,3.9-1.4,5.8c-0.3,1.4-1,2.7-2.7,2.4c-11.4-1.3-21.2,4.2-31,8.3c-17.4,7.1-33,17.8-49.7,26.5
	c-15.3,7.9-31.6,12.8-48.3,16.4c-7.8,1.7-7.4,1.1-8.4-7c-1.1-10.6,1.5-17.7,12.5-20.8c2.2-0.7,4.3-2.5,6.4-3.9
	c0.6-0.6,1.2-1.2,1.7-1.8c-0.1-0.6-0.4-1-0.5-1.5c-13.4,7.5-29.1,9.8-44.1,6.4c4.6,3.9,10,4.6,15.3,5.8c3.3,0.7,4.3,2.4,3.9,5.6
	c-0.7,4.8-1.1,9.6-1.2,14.5c0,4.7-2.8,6.5-6.7,7.2c-9.7,1.7-18.6,0.8-27.4-4.7c-17.6-10.8-35.5-21.5-54.4-30.3
	c-18-8.3-37.1-13.5-56.8-15.6c-4.2-0.4-6.3-2.1-7.4-6c-4.8-17.3-8.8-34.8-11.8-52.5c-2.5-14.2-5-28.5-7.5-42.9
	c-0.3-1.7-1.4-3.8,0.1-4.7c1.5-1.3,3.1,0.7,4.3,1.5c25.9,17.3,53.6,30.4,83.9,38.2c35.2,9.3,71.8,12.2,108,8.5
	c24.6-2.5,48.5-7.8,71.6-17c22.8-9,44-21.6,62.8-37.3c1.1-0.8,2.1-2.8,3.8-2S606.7,679.2,606.5,680.6z M401.9,682.5
	c0.1-3.5,2.1-3.6,4.7-3.6c9.8,0.1,19.6,0,26.7,0c19.2,1.1,35.6-0.6,51.9-2.2c3.5-0.4,4.9,0.7,5.1,4.2c0.6,11.8,1.1,23.7,2,35.5
	c0.4,5.2-1.2,7.5-6.7,8.2c-24.9,3.4-50.1,4.2-75.2,2.4c-3.1-0.3-4.3-1.5-4.9-4.5C403,709.4,401.7,696,401.9,682.5z M610.2,646.8
	c-0.4,6.1-1.1,12.4-1.7,18.5c-0.1,2.1-1.4,3.3-2.8,4.5c-27.7,23.7-59,40.5-94.4,49.3c-3.3,0.7-6.5,1.2-9.8,2.2
	c-3.8,1.1-4.6-0.6-4.5-3.8V708c-0.1-9-1.5-18.1-2.2-27c-0.3-4,0.8-5.6,5-6.1c35.8-5.3,70-15.6,101.9-33.3c2.5-1.4,5.3-5,7.8-3.3
	S610.3,643.8,610.2,646.8z M700,548.6c-19.8,21.4-42.2,39.8-66,56.5c-2.7,2-5.4,3.9-8.1,5.8c-1.2,0.8-2.5,2.4-4,1.7
	c-2-0.8-1.1-2.9-1.3-4.6c-0.3-6.3-0.5-12.7-1-18.9c0-1.8,0-4.5-2.5-4c-2.1,0.1-1.4,2.7-1.4,4.2c-0.4,12.1-0.4,24.1-2.5,36.1
	c-0.5,3.8-2,6.1-5.2,7.9c-15.9,9-32.7,16.5-50,22.4c-3.4,1.3-6.9,2.5-10.4,3.5c-20.5,6.1-41.6,10.2-62.9,12.2
	c-23.9,2.6-47.9,3.3-71.8,2c-23.8-1.4-47.8-3.6-71.3-8.1c-24.7-4.4-49-11.1-72.6-19.9c-3.2-1.1-4.3-2.9-4.6-6.3
	c-1.3-14.8-3.9-29.2-3.5-44.1c0-1.4,0-3.3-2-3.5c-1.7-0.1-1.8,1.7-2.2,2.8c-2.6,7.5-2.1,15.3-2.2,23c-0.1,6.8-0.8,7.4-6.7,4
	c-35.4-19.2-65.6-44.5-89.2-77.3c-2.8-3.8-2-4.7,2.2-5.8c17.1-4.6,32.4-12.4,44.3-26c2.1-2.4,3.6-2.4,5.7-0.1
	c11.2,12.3,24.8,22.3,39.8,29.4c1.6,0.6,2.7,2.1,2.9,3.8c2.1,17.1,13.1,28,26.2,36.9c41.2,28.3,89.4,44.5,139.3,46.9
	c38.9,2.1,75.9-5,111.8-19.5c1.1-0.4,2.2-1.5,4-0.7c-1.4,4.2-4,7.9-5.3,12.2c-2,7.1-0.4,13.4,3.2,19.2c2.2,3.8,1.3,5.6-2.2,7
	c-2.5,1.1-4.9,4.5-7.5,2.5s0.3-4.9,0.3-7.5c0-0.6,0.1-1.2,0.3-2.5c-4.5,3.2-5.7,7.4-5.7,11.7c0,3.8,2.9,4.6,6.1,3.6
	c4.3-1.3,8.5-3.3,12.2-5.8c1.7-1,3.5-2.1,5.6-1c4.2,2.2,9.3,2.5,14.3,1.5c14.1-3.2,28.4-17.5,25.8-34.1c-0.4-2.7,0.4-5.4,2.2-7.4
	c2.4-3.1,4.6-6.5,6.7-9.9c1.1-1.8,2.5-4,1-6.1s-4-1.2-6.1-1c-1.5,0.1-3.1,0.4-3.9,2c0.4,1.4,1.5,1.1,2.5,1.2c2.8,0.3,3.5,1.5,2,4
	c-0.8,1.2-1.8,2.4-2.6,3.6c-2.2,3.8-4.6,4.9-8.2,1.2c-2.9-3.1-7.1-4.5-11.1-5.7c-1.4-0.4-3.8,0.3-4-2c-0.1-1.5,2-2.1,3.2-2.8
	c10.3-6,20.2-12.6,29.5-20c14.5-11.8,27.2-25.1,34.4-42.6c1.5-3.8,2.9-8.1,2.9-12.1c0-4.6,2-7.5,5.2-10.2c6.7-6.1,14-11.5,21.7-16.3
	c2.7-1.5,4.6-2.1,4.7,2.2c1.1,24.2,15.9,38,36.3,47.3C703.9,544,704.3,544,700,548.6z M779.6,534.4c-7.7,3.5-15.7,4.5-24.1,4.6
	c-4-0.4-8.1-0.7-12-1.2c-6.7-1-13-1.4-19.8,0.7c-16.8,4.9-38.7-4.9-48.9-20.5c-10-15.3-9.2-35,2.5-49.9c4.3-5.6,5-12.5,8.1-18.8
	c2.4-5.1,4.6-10.4,7.8-15c5.2-7.4,11.1-6.7,14.6,1.5c1.9,4.8,3.4,9.7,4.7,14.8c0.7,3.2,2.9,5.8,5.8,7.1c7.2,3.6,14.3,4.7,22.6,2.2
	c10.3-3.2,20.6-2,30.3,2.9c4.7,2.4,5.2,4.3,1.1,7.8c-5.7,5.1-11.7,10-18.5,13.6c-1.8,1.1-2.9,2.2-2.9,4.2c-0.1,3.9-0.4,7.8-0.4,11.6
	c-0.3,4,1.7,6.5,5.3,8.2c5.8,2.5,11.7,5.3,17.4,7.9c3.1,1.4,5.9,3.3,8.3,5.6C786,526,785.2,531.9,779.6,534.4L779.6,534.4z
	 M652.5,167.8c0.1,7.8,0.4,15.6,1,23.4c0.1,3.1-0.4,4.7-3.8,5.9c-6.8,2.4-13.5,5.4-20.3,8.1c-2.9,1.1-5,3.1-4.7,6
	c0.1,3.2,2.5,4.9,5.4,5.7c7,1.8,13.8,3.9,20.6,5.9c2.4,0.7,3.9,1.4,4,4.6c0.5,7.5,2,15.2,2.9,22.8c0.3,2.6,0.4,5.7,3.5,6.5
	s6-0.7,7.7-3.3c4.5-7.2,9.6-14.1,14.5-20.9c1.2-1.9,1.8-2.4,4-1.9c8.6,1.8,17.4,3.2,26.3,4.7c2.2-0.6,5.3,0.7,6.5-2.8
	c1.1-3.1-0.4-5-2.1-7.1l-13-14.6c-5-5.6-4.9-6.4-1-12.8c3.5-5.6,6.7-11.4,10-17.1c1.3-2.1,1-4.8-0.8-6.4c-1.3-1.8-3.7-2.4-5.7-1.5
	c-7.5,2.4-14.6,5.7-21.9,9.1c-2.9,1.4-4.6,1.1-6.7-1.4c-5.3-5.9-10.7-11.4-16.3-17c-2-2-4-4-7.5-2.4
	C652.1,162.6,652.5,165.3,652.5,167.8z M658.5,189.6c-0.3-7.5-1.4-15.2-0.7-21.9c6.3,5.9,13.2,11.6,19.3,18.1
	c3.1,3.2,5.4,3.1,9.1,1.5c7.2-3.1,14.2-7.1,22.8-9c-2.7,7.8-7.7,13.6-11.1,20.3s-4,6.5,1,12.4c5.3,6,10.4,12.1,16.7,19.2
	c-10.2-1.8-18.9-3.2-27.7-5.1c-3.9-0.8-6,0-8.4,3.2c-5.4,7.2-9.7,15.4-16.4,23c-1.2-10.2-2.5-19.2-3.3-28.4c-0.3-2.9-2-3.5-4-4.2
	c-8.2-2.6-16.8-4-25.9-7.8c7.1-2.9,13.5-5.9,20-8.4C658.8,199.1,658.8,199.2,658.5,189.6L658.5,189.6z M523.4,152.7
	c1.1,0.1,2.2,0,3.3-0.1c12.4-1.4,24.6-2.6,37-4.3c3.5-0.4,5.4,0.6,7.1,3.6c5.2,9.5,10.7,18.6,16.2,27.8c1.3,2.4,2.7,4.7,4.3,6.8
	c1.4,2.2,4,3.3,6.5,2.8c2.9-0.7,4-2.8,4.5-5.4c0.3-1.4,0.6-2.6,0.8-3.9c1.7-11.3,3.5-22.6,4.7-33.8c0.6-3.9,2-4.9,5.4-5.6
	c11.4-1.9,22.7-4.3,34.1-6.4c3.5-0.7,6.5-1.9,7.1-5.9c0.5-4.2-2.4-5.8-5.6-7.5c-10.2-5-20.3-10.2-30.5-15.2
	c-2.6-1.3-3.8-2.5-3.3-5.7c1.3-12.1,2.2-24.4,3.3-37c0.1-2.9,0.8-6.8-3.2-8.8s-6.8,0.6-9.8,3.2c-8.6,8.1-17.5,16-26.2,24.2
	c-2.5,2.5-4.5,2.4-7.4,0.8c-9.9-5-19.8-9.9-29.7-14.9c-3.2-1.5-6.7-3.5-9.8-0.4c-3.5,3.2-2,7-0.3,10.6c4.5,9.8,8.8,19.6,13.4,29.2
	c1.7,3.3,1.1,5.3-1.4,7.8c-8.4,8.8-16.6,18-24.9,26.9c-1.7,2-3.2,3.9-2.2,6.8S520.6,152.2,523.4,152.7z M536.4,132.1
	c5-5.4,9.9-11,15-16.2c2.8-2.8,2.8-5,1.2-8.3c-5.2-11.7-11.5-23-16.3-36.2c4.2,2.1,7.5,3.6,10.9,5.3c8.6,4.3,17.4,8.5,25.9,13.1
	c2.9,1.5,4.7,1.4,7.1-0.8c9.3-8.9,18.9-17.4,28.4-26.2c1-0.8,2.1-1.7,3.6-3.1c0,2.6,0.1,4.6,0,6.4c-1.1,12.3-2.1,24.4-3.5,36.6
	c-0.4,3.6,0.7,5.2,3.8,6.8c11.8,6,24.2,10.7,36.1,18.2c-13.8,3.8-27.4,5.2-40.8,7.9c-3.6,0.7-4.6,2.1-5,5.3
	c-1.8,12.7-3.6,25.2-5.6,37.7c-0.1,1.1,0.1,2.5-1.4,3.6c-2.2-3.5-4.6-6.8-6.5-10.3c-5.4-9.3-10.7-18.5-16-27.9
	c-1.1-1.8-2.2-2.6-4.5-2.4c-10.7,1.4-21.6,2.8-32.3,4c-4.2,0.4-8.2,0.6-13.5,1C527.9,141.5,532.2,136.7,536.4,132.1L536.4,132.1z
	 M638.6,429.1c-1.3-2.5-1.4-5.5-0.3-8.1c3.5-10.2,3.9-22.4,1.2-29.1c-3.2,19.1-8.1,38.1,2.8,57.4
	C643.6,441.7,641.2,435.3,638.6,429.1z M286.7,494.4c20,12.7,40.8,23.9,62.4,33.6c16.3,7.5,33.3,12.4,51.6,8.2
	c2.1-0.6,3.5,0.4,5,1.5c2.5,1.8,4.9,3.6,7.4,5.3c11.5,7.5,23.8,14.1,37.9,15.2c19.5,1.5,35.1-7.5,48.5-20.3c4.5-4.2,8.6-7,14.8-8.5
	c25.8-6.3,46.8-21.3,66.4-38.3c3.8-3.2,6.5-6.4,10.7-1c0.6,0.6,1.4,1.2,2.2,0.4c0.3-0.6,0.3-1.2,0.1-1.8c-1.4-5.6-8.6-10.5-14.8-9.5
	c5,3.3,2.7,5.9-0.6,8.6c-12.2,10.4-25.8,19.2-39.8,27.2c-20.8,11.6-41.8,14.3-63.8,3.5c-8.5-4.2-17.7-6.4-27.3-5.3
	c-11.3,1.1-21.4,5.7-31,11.1c-16.7,9.8-34,10-51.8,4.5c-27.3-8.6-51.8-22.7-75.8-38c-1.7-1-3.5-2-2.2-4.7c1-2.4-1-1.8-2.2-1.2
	c-4.3,1.8-6.4,5.4-6.8,10.4C280.4,491.2,283.2,492.1,286.7,494.4z M412.4,532c9.6-4.7,18.9-10,29.4-12.7c3.3-0.8,6.6-1.2,10-1.2
	c8.2-0.3,15.3,2.5,22.3,5.3s14.2,6,21.9,7.2c1,0.1,2.2,0.1,2.5,1.2s-0.8,1.7-1.7,2.4c-10.7,9.2-22.7,16-36.9,18.2
	c-11,1.7-21.2-1.7-31-6.3c-5.8-2.6-11.4-5.7-16.7-9.2C409.5,535.4,409.1,533.7,412.4,532z M543.9,467c23.4,0,43.3-20,43.4-43.9
	c0-23.2-19.3-43.2-42.2-43.3c-23.3-0.1-44,20.6-43.9,44.1C501.3,446.8,521.2,466.9,543.9,467z M545.7,384.4
	c21.2-0.1,37,15.9,37.2,37.2c0,22.4-17,40.2-38.3,40.2c-21.1,0.1-38.4-17-38.4-38.1c0,0,0-0.1,0-0.1c0.1-21.7,17.7-39.2,39.4-39.1
	C545.6,384.4,545.6,384.4,545.7,384.4L545.7,384.4z M539.8,450.9c9.9-0.1,17.8-8.1,17.8-18c0-9.5-8.5-18-18.1-17.8
	c-10,0.1-18.1,8.2-18,18.2c0,0.1,0,0.1,0,0.2C521.8,443.3,530,451.1,539.8,450.9z M542.5,421.2c4.7,0.1,9.8,6,9.3,11.3
	c-0.1,3.9-2.2,6.3-6.3,6.3c-4.9-0.1-9.2-5.4-9-11C536.6,423.7,538.9,421.1,542.5,421.2L542.5,421.2z M464,432.1
	c16.4-12.1,22.3-31.5,14.5-50.4c-7.1-17.3-20.5-27-38.4-30.6c-29.9-6-58.3,16.3-58.2,46.1c-0.3,7.9,1.9,15.7,6.3,22.3
	C403.5,443.3,440,449.3,464,432.1z M426,354.4c27-2.9,51,18.2,50.4,45c-0.3,13.6-6.8,24-18.5,30.4c-17.5,9.8-35.6,9.8-52.9-0.7
	c-12.2-7.5-18.2-18.9-18.1-33.3C387,374.4,403.5,356.9,426,354.4z M88.2,258.7c5.7,1.3,11.7,1.6,17.5,0.7
	c22.3-2.9,43.3-10,64.1-18.4c3.6-1.4,6.3-1.2,9.5,1.2c27.3,21.3,58.6,31,90.9,31.8c22.8-0.1,43-4,62.2-12.2
	c65-27.6,98.4-94.7,81.2-157.9c-0.8-3.2,0.4-4.7,2.6-6.6c16-13.2,31.3-26.9,43.9-43.4c4.6-6.1,8.5-12.5,9.6-20.2
	c1.1-8.4-3.2-14.8-11.1-17.4c-8.9-2.9-18-1.9-26.9-0.3c-19.6,3.6-38.6,9.9-57.1,17.3c-3.5,1.4-6,1.4-9-1.1
	c-10.6-8.8-22.6-15.8-35.5-20.6C270.4-10.2,215.4-1.8,168.6,41.3c-37.2,34.4-49.7,78.4-37.9,128.4c0.7,3.2,0.4,5-2.2,7.2
	c-12.8,10-24.8,21.1-35.7,33.1c-7.1,8.1-14.2,16.3-17.3,26.9C72.6,247.8,77.3,256.1,88.2,258.7z M408.5,166.1
	c-15.2,54.7-52.2,86.6-106.4,98.6c-41.9,9.2-80.9,0.3-116-24.5c-1.4-1-2.6-2.1-4.4-3.6c80.5-34.5,156.4-78.8,226-132
	C413.3,125.4,414.1,145.9,408.5,166.1L408.5,166.1z M378,37.9c19.9-7.4,39.8-14.3,61-17.1c5.7-0.7,11.7-0.8,17.4,0.8
	c4.9,1.5,7.8,5.4,7.8,10.2c-0.8,5.1-2.8,9.9-5.7,14.1c-9.3,14.2-21.7,25.8-34.2,37C420.8,86,417,89,413.5,92c-1.8,1.5-2.8,2.4-4-0.8
	c-6.9-18.6-18-35.3-32.3-49C375.1,40,374.8,39.1,378,37.9z M208.6,20.7c20-9.6,41.4-14.2,70.5-14.5c50.5,2.6,95.1,26.3,121.5,79.1
	c6.3,12.4,6,12.5-5.1,20.9c-66.4,50.1-138.7,92-215.3,124.6c-2.4,1-4,1.5-6.3-0.6c-16-15.3-28.1-34.3-35.2-55.3
	C118.8,117.4,147.2,50.1,208.6,20.7z M81.1,239.6c1.2-4.9,3.4-9.4,6.4-13.4c12.8-17.8,29.1-31.9,46.4-46.2
	c7,19.7,18.5,37.5,33.4,52.1c2.4,2.4,1.9,3.1-1,4.2c-19.4,7.4-38.8,14.2-59.4,17.1c-6.1,0.8-12.4,1.1-18.4-0.7
	C82,250.8,79.5,246.2,81.1,239.6z M431,427c9.7,0.1,17.7-7.7,17.8-17.5c0-0.1,0-0.1,0-0.2c0.1-10-7.9-18-18.2-18
	c-9.9,0.1-17.7,8.2-17.6,18S421.1,427.1,431,427L431,427z M433,397.6c4.7,0.1,9.3,5.3,9.3,10.6c0.1,4-2.5,7.1-6.1,7
	c-4.9-0.1-9.3-5.3-9.3-10.7C426.8,400.2,429.1,397.5,433,397.6L433,397.6z M321.9,468.4c22.1,0.5,45.3-16.3,45-44.3
	c-0.3-24.5-17.4-43.3-42.5-43.9c-23.8-0.4-45.1,20.5-44.8,44.4C279.9,451.3,299.7,468.4,321.9,468.4z M324.7,384.7
	c21,0.3,36.9,17.5,36.6,39.8s-16.7,38.5-39.7,38.3c-21.7-0.1-37.3-16.7-37.2-39.5C284.8,401.8,302.9,384.4,324.7,384.7z
	 M330.7,454.2c9.9-0.2,17.8-8.1,18-18c0-9.3-8.5-18-17.8-18.1c-9.7-0.1-18.4,8.4-18.5,18.1C312.6,446.2,320.7,454.2,330.7,454.2z
	 M332.9,425c5,0,9.5,4.7,9.5,10.4c0,3.9-1.4,6.7-5.6,7c-5.1,0.3-10-5-9.7-10.7C327.2,427.9,328.6,425.1,332.9,425z M228.9,450.3
	c1.2,3,0.7,6.4-1.2,8.9c-3.9,5.6-3.3,11.7,1.7,17.5c0.1-5-2.2-10.2,0.4-14.1c4-5.9,2.8-11.3,1-17.1c-2.7-8.8-6.1-17.4-10.2-25.6
	c-0.4,0.1-0.8,0.3-1.1,0.4c-0.1,0.7-0.1,1.3,0.1,2C223.4,431.4,225.7,441,228.9,450.3z"/>
<path class="st8" d="M773.3,516.2c-5.7-2.7-11.6-5.4-17.4-7.9c-3.6-1.7-5.6-4.2-5.3-8.2c0-3.8,0.3-7.7,0.4-11.6c0-2,1.1-3.1,2.9-4.2
	c6.8-3.6,12.8-8.5,18.5-13.6c4-3.5,3.6-5.4-1.1-7.8c-9.8-4.9-20-6.1-30.3-2.9c-8.2,2.5-15.3,1.4-22.6-2.2c-3-1.3-5.2-3.9-5.8-7.1
	c-1.3-5-2.9-9.9-4.7-14.8c-3.5-8.2-9.5-8.9-14.6-1.5c-3.2,4.6-5.4,9.9-7.8,15c-3.1,6.3-3.8,13.2-8.1,18.8
	c-11.7,14.9-12.5,34.5-2.5,49.9c10.2,15.6,32,25.3,48.9,20.5c6.8-2.1,13.1-1.7,19.8-0.7c3.9,0.6,7.9,0.8,12,1.2
	c8.3-0.1,16.4-1.1,24.1-4.6c5.6-2.5,6.4-8.4,2.1-12.7C779.3,519.4,776.4,517.5,773.3,516.2z M208,421.5c7,2.1,9.3,7.2,9.3,14.2
	c-0.1,10.7-4.7,20.2-8.9,29.6c-1.3,2.9-1.4,6.2-0.3,9.2c3.6,9.4,8.4,18.2,14.4,26.3c3,4.3,7,7.8,11.6,10.3c7.2,3.9,11.1,1.8,11-6.5
	c0-4-1-7.9-1.4-12c-1-9.1-0.1-18,4.6-26c1.7,2.9,0.7,5.9,0.4,8.8c-2.4,21.3,3.2,40.5,16.7,57.2c12.8,15.7,29.2,26.9,47.3,35.9
	c28,13.9,58.1,21.3,89.1,24.5c21.9,2.2,43.9,3.1,65.6,0c34.2-4.8,66.8-17.1,95.7-36c25.6-16.8,48.2-36.6,57.4-67.5
	c4.5-15.2,6.8-30.4,4-46.1c-1-5-3.2-9.7-4.3-15.5c4.3,2.2,5.4,5.7,6.4,8.9c4.3,13.1,5.2,27.1,2.7,40.7c-0.8,4,0.4,5.6,4.3,6
	c8.1,0.7,11.6-1.4,15.3-10.6c9.8-24.7,11.8-51.7,5.8-77.6c-2.4-10.5-5.6-20.8-12-29.7c-2-2.6-4.6-5.7-8.2-4.6
	c-3.3,1-3.6,4.7-4.2,7.9c-2.4,13.5-6.7,26.3-14.6,37.6c-3.3,4.7-4.7,4.6-8.3,0c-9.2-11.8-20.1-22.1-32.5-30.6
	c-44.7-30.9-94.8-44.3-149-43c-7.5,0.1-7.7,0.3-9.5-7.4c-3.5-15.3-7.1-30.6-10.5-46.1c-1.2-6-3.2-11.8,1.8-17.8
	c3.2-3.9,2.1-9.5-1.1-13.6c-4.3-5.9-13.6-5.6-17.1,0.4c-3.1,5.3-1.2,14.6,4,17.5c4.2,2.2,4.9,5.6,5.1,9.5c1.1,18.2,2,36.5,3.1,54.7
	c0.3,3.3-1,5.1-4.6,5.7c-10.3,1.3-20.4,3.5-30.4,6.5c-32.2,9.2-60.9,24.4-84.9,47.9c-15.1,14.9-26.8,32.9-34.1,52.8
	c-0.4,1.1-0.6,3.1-2.1,3.1c-2,0.1-1.2-2-1.8-3.1c-0.4-1.2-1-2.4-1.7-3.5c-7.7-9.5-13.2-20.2-18.7-31.1c-2.9-5.7-6-11.5-9-17.3
	c-1-1.7-2.4-3.1-4.5-2.8s-2.8,2.2-3.3,4c-2.2,7.8-2.6,15.7-2.8,23.8C204,419.2,205.5,420.6,208,421.5z M639.5,392
	c2.7,6.7,2.2,18.9-1.2,29.1c-1.1,2.6-1,5.6,0.3,8.1c2.7,6.1,5,12.5,3.8,20.2C631.5,430.1,636.3,411,639.5,392z M545.1,379.9
	c22.8,0.1,42.2,20,42.2,43.3c-0.1,23.8-20,43.8-43.4,43.8c-22.7-0.1-42.6-20.2-42.6-43C501.1,400.5,521.9,379.7,545.1,379.9
	L545.1,379.9z M440,351c18,3.6,31.3,13.4,38.4,30.6c7.8,18.9,2,38.3-14.5,50.4c-24,17.3-60.4,11.3-75.9-12.7
	c-4.3-6.6-6.5-14.4-6.3-22.3C381.7,367.3,410.1,345,440,351z M324.4,380.3c25.1,0.6,42.2,19.4,42.5,43.9c0.3,28-22.8,44.8-45,44.3
	c-22.3,0-42-17.1-42.3-43.7C279.3,400.7,300.6,379.8,324.4,380.3z M284.4,484.8c1.2-0.6,3.2-1.1,2.2,1.2c-1.3,2.8,0.5,3.8,2.2,4.7
	c24,15.3,48.5,29.4,75.8,38c17.8,5.6,35.1,5.3,51.8-4.5c9.6-5.4,19.8-10,31-11.1c9.6-1.1,18.8,1.1,27.3,5.3c22,10.9,43,8.1,63.8-3.5
	c14.1-7.9,27.6-16.7,39.8-27.1c3.2-2.8,5.6-5.3,0.6-8.6c6.1-1,13.4,3.9,14.8,9.5c0.2,0.6,0.1,1.2-0.1,1.8c-0.8,0.8-1.7,0.1-2.2-0.4
	c-4.2-5.4-7-2.2-10.7,1c-19.6,17-40.7,32-66.4,38.3c-6.1,1.5-10.3,4.3-14.8,8.5c-13.4,12.8-29,21.9-48.5,20.3
	c-14.1-1.1-26.3-7.7-37.9-15.2c-2.5-1.7-4.9-3.5-7.4-5.3c-1.5-1.1-2.9-2.1-5-1.5c-18.4,4.2-35.4-0.7-51.6-8.2
	c-21.6-9.7-42.4-20.9-62.4-33.5c-3.5-2.4-6.3-3.2-9,0.8C278.1,490.3,280.2,486.6,284.4,484.8L284.4,484.8z M220.5,419.9
	c4.1,8.2,7.5,16.8,10.2,25.6c1.8,5.9,3.1,11.3-1,17.1c-2.6,3.9-0.3,9-0.4,14.1c-5-5.9-5.6-12-1.7-17.5c2-2.5,2.5-5.9,1.2-8.9
	c-3.2-9.3-5.6-18.9-9.3-28c-0.2-0.6-0.2-1.3-0.1-2C219.8,420.2,220.2,420.1,220.5,419.9L220.5,419.9z M203.7,480.6
	c-1.8-8.8-0.8-16.4,3.3-24.2c3.8-6.7,6.3-14.1,6.1-22c0-7.6-5-11-12-8.1c-2.9,1.3-5.6,3.1-7.8,5.4c-3.5,3.5-7.1,6.8-10.3,10.4
	c-2.6,2.9-6.6,4.2-10.4,3.5c-5.4-0.8-10.3-2.5-13.5-7.7c-3.8-5.7-7.8-11.3-11.6-17c-2.4-3.5-5.5-6.4-9.1-8.6
	c-4.6-3.1-9.7-4.9-14.6-1.8s-4.9,8.5-4.2,13.6c1.1,8.6,4.9,16.3,8.2,24.2c3.9,9.5,2.5,16.3-4.4,23.7c-2.9,2.9-5.8,3.9-9.9,2.4
	c-6.3-2.3-12.9-3.8-19.6-4.4c-9.8-1-14.9,4.9-13,14.5c0.6,4,2.3,7.7,5,10.7c9.5,10.9,20.2,20.2,32.7,27.2c10.4,5.8,21.2,11,34,10.2
	c6.1,0.5,12.3-0.5,18-2.8C199.7,518.7,208.7,505.3,203.7,480.6z"/>
</svg>
