<?xml version="1.0" encoding="utf-8"?>
<!-- Generator: Adobe Illustrator 25.2.3, SVG Export Plug-In . SVG Version: 6.00 Build 0)  -->
<svg version="1.1" id="Слой_1" xmlns="http://www.w3.org/2000/svg" xmlns:xlink="http://www.w3.org/1999/xlink" x="0px" y="0px"
	 viewBox="0 0 864 864" style="enable-background:new 0 0 864 864;" xml:space="preserve">
<style type="text/css">
	.st0{fill:none;}
	.st1{fill:#FF9595;}
	.st2{fill:#FFFFFF;}
	.st3{fill:#CA743D;}
	.st4{fill:#FCA795;}
	.st5{fill:#AD300E;}
	.st6{fill:#9B1111;}
	.st7{fill:#FFA150;}
</style>
<path class="st0" d="M196.3,728.5c-0.4,1-1.3,2.9-1.1,3c1.2,1,2.9,2.2,4.3,2.2c2.6-0.1,5-1,7.6-1.5c5.2-0.9,10.5-2,15.9-2.8
	c3.4-0.5,6.8-0.8,10.1-1.3c0.6-0.1,1.5-0.7,1.5-1.2c0-0.7-0.4-1.4-1-1.9c-1.7-1.4-3.5-2.6-5.4-3.7c-1-0.6-2.4-1.5-3.5-1.3
	c-2.9,0.6-5.8,1.5-8.8,2.3C209.4,724.4,203,726.3,196.3,728.5z"/>
<path class="st1" d="M425.2,230.6c-6.2-1.4-11.9-3.7-16.6-8.1c-4.2-3.6-8.8-7.1-10.1-13.3c-0.9-3.7-1.9-7.8-5.6-10.3
	c-1.4-0.9-2.7-2.2-4.1-3.3c0.2,1.5,0.7,3.1,0.9,4.7c1.8,9.2,3,18.4,5.2,27.4c1,4.3,3.6,8.2,5.8,12.5c1,1.2,2.1,2.1,3.1,3.1
	c8.4,9.7,19.2,10,30.7,8.3c2.5-0.5,3.4-2.7,2.6-5.2c-0.6-1.9-1.3-3.9-2.1-5.7C433,236.1,430.7,231.8,425.2,230.6z"/>
<path class="st2" d="M483.5,212.1c-6.5,1.8-13,3.7-19.5,5.4c-4.1,1.1-8.3,2.4-12.4,2.7c-13.2,0.8-26-0.1-38.2-6.9
	c-0.2,0-0.5,0.1-0.6,0c-2.9-1.8-5.7-3.6-8.5-5.4c-0.7-0.4-1.5-0.5-2.3-0.8c-0.1,0.9-0.5,2.1-0.1,2.7c1,2.1,2.3,4,3.9,5.7
	c4.4,4.7,10,8.2,16.1,10.3c5.4,2,11.1,4.1,16.7,4.3c11.9,0.7,23.8,0.7,35.3-3.5c6.1-2.1,10.5-5.1,12.4-11.4c0.3-0.9,0.5-1.9,0.6-2.9
	C485.7,212.2,484.4,211.7,483.5,212.1z M381.8,76.9c1.5,1.9,3.4,3.4,5,5.1c2,2.2,2.9,1.8,3.6-1c1.4-4.4,5.7-7.1,10.3-6.5
	c8,1.3,13.5,8.9,12.2,17c-0.1,0.6-0.2,1.1-0.4,1.7c-0.2,0.8-0.1,2.4,0.4,2.7c1.3,0.8,2.9,1.3,4.4,1.3c0.6,0,1.4-2,1.4-3
	c0.7-8.3-4-14.5-9.5-19.6c-3.5-3.3-8.5-5-13.4-7.5c-5.1-1.9-9.6-0.3-13.4,2.8C378.8,72.7,378.8,73.3,381.8,76.9z M405.1,80.2
	c-0.6-2.3-2.6-2.6-4.5-2.4c-0.9,0.1-2.3,0.6-2.5,1c-0.2,1,0,2.7,0.7,3c1.6,0.6,3.4,1,5.1,0.9C404.4,81.9,405.2,80.9,405.1,80.2z
	 M327.5,102.8c-0.5,1.4,0.5,3.6,1.5,5c1.2,1.6,3.1,2.8,5,4.6c1.9,1.3,3.5,2.7,5.4,3.7c1.2,0.5,2.4,0.9,3.6,1.3
	c-0.3-1.2-0.7-2.4-1.2-3.5c-2.9-5.2-0.5-11.1,4.1-14.1s14.6-2.3,18.8,1.7c4.5,4.3,8.6,9,5.6,16.1c-0.4,0.9-0.6,2.6,1.6,2.3
	c4.1-0.2,9.6-4.1,11-8c2.1-6.1-0.8-10.7-4.4-14.9c-6.9-7.8-15-13.5-25.4-15.5c-6.1-1.2-11.1-0.3-15.8,4.2
	C332.1,90.5,329.8,96.6,327.5,102.8z M351.5,101.2c-1.6,0.6-3.1,1.4-4.5,2.2c0.7,1.3,1,3,2.2,3.7c1.3,0.7,2.7,1,4.2,0.8
	c1-0.2,2.7-1.3,2.8-2.1c0.1-1-0.8-2.3-1.6-3.8C353.5,101.7,352.3,101,351.5,101.2z"/>
<path d="M764.3,433.5c-0.6-7.8-2.9-15-5.7-22.3c-4.4-11.6-11.9-21.7-21.5-29.4c-1.6-1.4-2.5-3.3-1.6-4.9c2.6-6,2-11.9,1-18
	c-1.5-9.4-5-18.4-10.2-26.4c-6.2-9.8-14.2-18-22.6-25.9c-8.3-7.7-16.2-15.7-24.7-23.2c-4.4-3.9-9.2-7.3-14.5-10
	c-4.4-2.1-9.7-2.6-14.6-3.5c-6.1-1.2-12.1-2.7-18.3-3c-7.2-0.5-14.7,0.1-22,0.5c-3.2,0.3-6.3,0.9-9.3,1.8c-8.9,2.7-15.9,7.7-22,14.7
	c-6.6,7.6-11.9,16.1-16.7,24.7c-6.2,11.5-11.3,23.5-15.3,35.9c-0.5,1-1.1,2-1.8,2.9c-1-0.9-2.5-1.6-3.3-2.8
	c-2.1-2.5-3.8-5.4-6.1-7.8c-9.4-10.1-19.9-19-32.5-25c-2.6-1.2-3.7-3.4-4.4-6.1c-1.8-6.5-2.8-13.5-5.2-19.8
	c-3.9-9.8-8.5-19.2-13.1-28.6c-1.7-3.2-3.7-6.2-6.1-8.9c-3-4-6.5-7.8-9.7-11.8c-1-1.3-1.5-3.1,0.8-4c1.6-0.5,3.3-1,5-1.3
	c10.7-2.2,19-7.1,21.3-18.8c0.4-2.1,2.2-3.7,4.3-4c6.1-1.4,10.9-3.9,13.6-10.4c3.7-9.2,6.1-18.6,5.8-28.4
	c-0.1-6.1-1.3-12.1-2.5-18.2c-1.5-8.5-5.8-16.3-12.2-22.1c-3.6-3.4-8.2-5.7-12.5-8.2c-2.5-1.5-3.6-3-2.6-6.1
	c1.3-3.8-1.5-10.6-7.2-10.1s-9.1,3.8-11.9,8c-1.3,2-2.8,2.4-4.5,0.8c-1.8-1.7-3.6-3.4-5.6-4.9c-7.9-5.7-15.9-11.3-23.8-16.8
	c-6.1-4.2-12.1-7.6-15.6-14.7c-3.7-7.6-11.4-11-19.2-13.9c-5.6-2.1-11-3-16.9-1.3c-1.4,0.5-3.7-0.3-5-1.3c-2.2-1.9-4-3-7-1.9
	c-1.2,0.3-3-1.2-4.5-1.9c1-0.8,2.1-2,3.3-2.3c4.5-1.6,9.3-2.9,13.9-4.5c2.9-0.9,3.9-3.3,1-6c-1.3-1.3-2.7-2.4-4.2-3.4
	c-3.1-2.2-3.3-2.9-0.9-5.8c1.2-1.5,2.5-2.8,3.5-4.3c5.2-7,9.7-14.6,11.8-23.1c0.6-2.3-1-6.4-2.7-6.5c-2.5-0.1-5.1-0.5-7.4,0.4
	c-5.4,2-10.6,4.4-15.7,6.9c-6.5,3.1-12.9,6.4-20.6,6.9c-4.3,0.1-8.5,2.3-12.8,3.8c-5.7,2.1-10,6.2-13.6,11c-0.5,0.7-1.5,0.9-2.2,1.3
	c-0.4-0.9-0.5-1.8-0.5-2.8c1-2.9,2.3-5.7,3.5-8.6c1.5-3.5,3.1-7.1,2.8-11.2c-0.2-2.4-1.3-3.6-3.9-3.8c-4-0.2-7.8,0-11.2,2.6
	c-2.2,1.6-4.4,3.4-6.8,5c-0.9,0.5-1.9,1-2.9,1.3c-0.5-0.9-0.9-1.9-1.2-2.9c-0.4-1.6-0.1-3.4-0.7-5s-1.5-3.6-2.9-4.7
	c-3.5-3-8.3-1-10.9,2.6c-8.1,11.6-15,23.9-20.9,36.7c-1.2,2.8-3.5,3.4-6.2,2.7c-0.6-0.2-1.3-0.4-2-0.3c-5.7,0.1-11.4,0.2-17.1,0.6
	c-4.1,0.3-7.2,3.5-6.2,6.5c1.4,3.5,3.1,6.9,5.1,10.1c3.7,6.5,8,12.8,11.7,19.5c1.8,3.3,4.1,7.1,2,11.1c-1.7,3.5-3.9,6.7-6.6,9.4
	c-5.5,4.9-10.1,10.7-13.4,17.2c-2.6,5.4-4.6,11.1-5.8,17c-1.6,6.7-1.3,13.7,0.8,20.2c1.4,4.3,4,5.5,7.9,4.1c2.3-0.8,4.4-1.9,6.8-2.8
	c3.1-1.4,4.8-0.5,4.8,3c0.1,7.1-0.1,14.2,0.1,21.3c0,5.4,0.5,10.9,1.5,16.2c1.1,5.3,2.7,10.6,4.8,15.6c2.7,6.5,6.1,12.9,11.4,17.6
	c4.8,4.3,8.3,5.5,12.5-1.3c0.5-0.7,0.9-1.4,1.4-2s1-0.9,1.5-1.4c0.4,0.6,0.7,1.1,1,1.8c0.3,0.7,0.4,1.4,0.5,2.1
	c-0.5,6.4,1.2,12.5,3.1,18.4c2.8,9.2,7,17.7,13.9,24.5c2.3,2.3,5.4,3.7,8.6,4c2.9,0.1,4.9-2.8,4.7-6.3c0-0.2,0.8-0.8,1.3-0.9
	c0.5,0.1,0.9,0.5,1.2,0.9c5.5,10,11.2,19.9,16.3,30.2c4.1,8.5,7.6,17.4,11.1,26.2c2.9,7.4,4.7,15.1,5.4,23c0.2,2.6-1,3.1-3.4,3.6
	c-4.9,0.7-9.7,1.9-14.3,3.5c-3.3,1.2-6.2,3.5-9.2,5.1c-0.9,0.4-1.9,0.6-2.9,0.6c0,0-0.6-1.2-0.4-1.5c1.6-4.1,0.1-8-0.8-11.9
	c-2.6-10.6-11.2-12.1-19-7.4c-7.2,4.5-11.3,11.7-13.5,19.5s-0.4,13.9,6.1,17.8c2.1,1.4,4.7,2,7,2.7c3.5,1.2,4.2,2.6,2.5,5.8
	c-3.4,5.9-4.9,12.6-4.2,19.4c0.6,5.4,2.5,10.4,7.8,13c6.6,3.5,13.4,6.6,20,10.3c1.8,1.1,3.3,2.8,4.1,4.8c2.3,5,4.2,10.1,6.2,15.4
	c0.8,2.2,1.6,4.9,1.4,7.2c-0.9,6.7-2.1,13.3-3.7,19.8c-2.1,8.3-4.5,16.4-6.9,24.6c-2.3,7.6-2.3,7.5-10.3,7.5c-4.4,0-9-0.2-12.8,2.6
	c-3.1,2.2-6.5,4.1-9.2,6.9c-7.3,7.5-9.4,17.5-9.1,27.5c0.4,7.5,4.1,14.2,9.2,20.1c1.8,2,1.4,3.6-0.4,5.5c-4.2,4.6-7.4,10-9.2,16
	c-1.1,3.8-2.5,7.6-4.2,11.2c-1.5,2.9-2.6,5.6-1.4,9c0.5,1.2,0.7,2.5,0.6,3.8c-0.2,1.6-0.6,3.1-1.2,4.7c-1-1.3-2.5-2.3-3.1-3.7
	c-4.9-10.8-10-21.5-14.3-32.5c-3.4-8.6-8.4-16.3-13.5-24c-6.7-9.9-15.4-18.3-25.4-24.8c-12.4-7.9-25.8-12.6-40.7-12
	c-2.1-0.1-4.2-0.1-6.3,0c-4.2,0.6-8.5,0.8-12.4,2.1c-5.2,2-10.3,4.7-15.4,7c-13.2,6.3-23.4,16.1-31.7,28c-4.4,6.5-8,13.4-7.9,21.6
	c0.1,3.5,2.4,5.1,5.7,4c2.3-0.8,4.4-1.9,6.8-2.7c0.9-0.3,1.8-0.4,2.7-0.3c-0.3,0.8-0.3,2.1-0.9,2.7c-4.4,4.4-6.9,9.8-9.6,15.3
	c-3.4,6.5-5.6,13.7-6.3,21c-0.7,8.7-1.3,17.6,1.6,26.3c1.9,5.7,3.2,11.7,7.7,16c3.7,3.6,6.6,2.7,8.7-0.1c2.6-3.2,4.9-6.7,6.8-10.3
	c4-8.2,7.9-16.3,13.3-23.8c3-3.7,6.1-7.3,9.4-10.6c0.6-0.6,2-0.7,3.1-0.6c0.2,0,0.6,1.5,0.6,2.3c-0.4,4.3-1.1,8.5-1.2,12.7
	c-0.1,3.4,2.4,4.9,5.5,3.4c2.7-1.5,5.2-3.1,7.8-4.9c5.2-3.4,10.3-7.5,15.9-10.5c4.7-2.7,9.8-4.4,14.9-6.3c1.8-0.6,3.7-0.2,5.6-0.3
	c0.1-0.2,0.3-0.5,0.5-0.6c-0.1,0.2-0.1,0.5-0.2,0.7c-0.3,0.6-0.8,1.2-1.3,1.8c-1.5,1-3.1,1.9-4.7,3c-2.1,1.6-3.5,4-2,6.3
	c1.4,2.4,4,3.9,6.8,4c2.7,0,5.3,0.2,7.9,0.6c6.1,1.2,12.1,2.3,17.8,5c8.5,4.1,17,8.5,26.5,10.6c6.8,1.6,13.8,1.8,20.6,0.8
	c4.9-0.6,5.6-1.6,6.9,4.4c0.2,1,0.6,2,0.9,3c0.8,2.1,0.4,3.4-1.6,4.5c-5.6,3.2-11.1,6.5-16.3,10c-6.9,4.5-8.2,12.1-4.8,17.4
	c2.9,4.5,7.7,7.2,12.6,9.7c0.9,0.6,1.6,1.2,2.3,2c-0.8,0.8-1.5,2.3-2.3,2.3c-6.2,0.2-12.5,0.1-18.6,0.2c-5.2,0-10.5-0.1-15.6,0.3
	c-3.3,0.2-6.4,2-9.6,1.9c-9,0-18-0.9-26.8-1c-12,0-23.8,0.1-35.7,0.7c-3.6,0.2-7.4,1.6-10.7,3c-6,2.6-6.9,8-6.6,13.6
	c0.3,8.9,1.7,17.7,4.2,26.2c1.9,6.6,5.3,12.6,10.1,17.5c4.9,5.1,10.2,9.8,15.9,14.1c4.9,3.8,9.6,8,15.6,10.2
	c3.7,1.2,7.6,2.5,11.5,1.2c7.9-2.5,15.4-5.9,22.5-10.2c13.4-8,26.9-15.9,39.2-25.8c3.1-2.6,5.7-6.1,8.2-9.4c2.3-3.2,4.5-6,8.8-6.9
	c5.1-0.9,10-2.8,15-4c8.8-2.1,16.9-6.7,23.2-13.2c2.4-2.6,4.7-5.4,6.8-8.3c1.3-1.6,2.3-3.3,4.9-1.9c1,0.4,2.1,0.6,3.1,0.7
	c3.8,0.5,4.7,1.3,4.5,5.2c-0.2,6.4-1,12.8-0.9,19.2c0.1,7.5,3.4,14,8.3,19.6c1.9,2.2,1.8,4,0.5,6.5c-1.6,3-2.5,6.4-3.4,9.7
	c-0.8,2.9-0.7,6.3-2.1,9c-4.8,9.2-7.1,19.2-8.6,29.5c-0.7,3.8,0,7.8,2,11.1c0.9,1.6,2.6,2.9,3.6,4.5c4.3,7.1,10.8,11.8,17.3,16.5
	c7.2,5.5,15.2,10,23.7,13.4c6.3,2.5,12.4,6,18.7,8c9.9,3.2,20.1,5.1,30.4,5.6c8.9,0.5,17.8,1,26.6-1s17.2-4.1,24.5-9.5
	c8-6.1,16.3-11.9,16.4-23.4c0-6.4,1-12.9-0.2-19c-2-9.7-5.6-18.9-10.6-27.4c-5-8.3-11.1-15.7-19.9-20.4c-1.4-0.7-2.5-2.3-3.3-3.7
	c-1.9-3.4-3.1-7.1-5.2-10.4c-1.3-2.1-1.5-3.6,0-5.5c1-1.1,1.9-2.3,2.7-3.6c4.7-7.6,6.4-16.3,7.5-25c0.8-6.2,0.6-12.6,0.8-18.9
	c0-2.7,1.2-4.2,3.5-5.5c3.4-1.6,6.8-3.5,9.9-5.6c6.4-4.9,13.3-9.6,17.6-16.8c0.9-0.9,2.2-1.4,3.5-1.4c6.3-0.1,12.5,0.3,18.8-0.1
	c9.9-0.8,19.1-4.5,28.2-8.6c9.4-4.2,17.7-10.2,26.1-16.1c1.2-0.5,2.4-0.8,3.6-1c0.2,1.2,0.2,2.4,0.1,3.6c-1.2,6-2.5,11.8-3.6,17.7
	c-0.5,3-0.5,6.3-1.3,9.2c-1.8,5.8-2.7,11.8-2.5,17.8c0.4,8.2,3.2,14.5,10,19.1c1.2,0.8,2.3,3.5,1.9,4.4c-2.3,4.9-1.5,9.8-1.8,14.8
	c0,1.7-0.3,3.4-0.8,5c-4.2,8.3-4.3,17.5-4.7,26.4c-0.3,6.6,0.5,13.4,1.2,20c0.5,4.8,2.4,8.6,7.2,10.7c3.7,1.5,7.2,3.5,10.8,5
	c4.7,2,9.3,4,14.1,5.5c6.8,2,13.6,3.8,20.5,5.2c9.3,1.9,18.7,4.1,28,4.7c8.9,0.6,18,0.9,26.8-0.8c7-1.4,14.2-1.8,20.9-4.7
	c5.7-2.4,11.5-4.7,17.1-7.3c2-0.9,4.3-2.8,4.8-4.8c1.7-5.2,2.8-10.6,3.3-16c0.5-7.3-0.3-14.7-2.3-21.8c-5-18.1-13.5-33.7-30.2-43.7
	c-2.5-1.4-4.1-3.8-6.1-5.8c-1.6-1.9-3-4-4.9-5.5c-2.8-2.5-3.2-4.4-0.8-7.2c4.1-5,6.8-11.1,7.7-17.5c1.1-8.8,0.5-17.8-1.9-26.3
	c-3.5-13-7.9-25.7-11.8-38.5c-2.2-7.6-3.8-15.3-5.7-23c-0.6-2.9-0.8-6-1.6-8.8c-1.7-6.2-4.7-12.1-8.7-17.1
	c-4.9-6.7-10.6-12.2-18.2-15.4c-6.5-2.8-13.2-5.5-20.1-7c-5.7-1.3-11.8-0.9-17.7-0.7c-4.9,0.2-10,0.6-14.3,2.5
	c-8.2,3.6-16.2,7.7-23.9,12.4c-6.8,3.8-13.2,8.5-19.6,12.8c-2.1,1.4-4,3.1-6.1,4.4c-1.2,0.5-2.5,0.8-3.8,1c-0.2-1.3-0.9-2.7-0.7-3.7
	c0.7-2.5,1.8-4.4,4.5-5.7c6.6-2.9,13.4-6,19.5-10c8.5-5.7,16.2-12.6,22.7-20.5c6.6-7.5,11.8-16.1,15.4-25.4c3.2-8,3.3-16.1-1.3-23.2
	c-4.9-7.7-11.8-14-19.8-18.3c-4.5-2.3-9.1-4.4-13.8-6.3c-2.9-1.3-3-3.7-2.7-6.2c0-2.2,1.8-4.1,4.1-4.1c2.7-0.4,5.4-1.2,7.9-2.2
	c10.7-3.7,19.4-10.7,27-18.9c0.7-0.8,1.9-2.1,2.6-2c1.1,0.5,1.9,1.4,2.3,2.6c1.2,2.2,1.6,4.7,2.9,6.6c5.8,9.2,11.7,18.4,17.8,27.3
	c4.3,6,8.9,11.6,13.9,17c2.9,3.1,6.4,5.7,11.4,5.6c12.2-0.4,24.4-0.6,36.6-0.6c9.6,0,19.1-0.8,28.6-2.5c9.8-1.9,19.4-4.2,27.9-9.7
	c3.4-2,6.5-4.7,9-7.8C763.9,454.5,765.1,444.2,764.3,433.5z M271.7,639.9c-4.9,0.3-10,0.8-14.8-0.1c-6.2-1.4-12.1-4-18.2-6.3
	c-7.1-2.8-14.1-6.2-21.3-8.5c-4.8-1.5-10-1.9-15-2.6c-1.1-0.2-2.2,0.1-3.1-0.1c-1-0.3-2-0.7-2.9-1.2c0.5-1,0.7-2.3,1.5-3.2
	c4.4-4.7,10.1-5.4,16.2-5.1c0.7,0.1,1.5,0.1,2.2,0.1c1.1-0.2,2.2-0.6,3.3-1c-0.8-0.7-1.6-1.8-2.7-2c-2.3-0.8-4.6-1.2-7-1.4
	c-4.1-0.5-8-0.6-12.1-0.7c-8.3-0.2-15.3,3.5-22,7.3s-13.1,9.1-19.6,13.7c-0.6,0.4-1.1,0.7-1.8,0.9c-0.1-0.6-0.2-1.2-0.2-1.8
	c0.6-5.4,1.1-10.8,2-16.2c0.2-1.5,2.1-2.7,3.1-4c2.6-3,5-6.1,7.3-9.2c0-0.1-0.5-0.8-0.7-0.8c-0.9,0.1-1.8,0.3-2.7,0.6
	c-3.7,2.5-7.1,4.9-10.5,7.3c-1.6,1.2-3.5,1.8-4.8,3c-3.4,3.3-6.6,6.8-9.6,10.5c-3.2,4-6.2,8.2-8.9,12.6c-2.3,4.1-4.1,8.6-6.3,12.8
	c-1.9,3.7-3.8,7.5-6.1,11c-2,3.3-4.3,2.9-6.6-0.2c-2.9-4.1-4.8-8.9-5.6-13.8c-0.9-5.8-1.3-11.7-1.3-17.6c0.3-4,1-7.9,2.2-11.7
	c1.5-5.6,3.3-11.1,5.4-16.4c1-2.2,2.2-4.4,3.7-6.3c2.8-3.8,5.6-7.6,8.6-11.4c1.4-1.9,3.2-3.5,4.6-5.4c0.4-0.5,0.2-1.4,0.4-2.1
	c-0.5-0.1-1.1-0.1-1.6,0c-2.8,1.2-5.5,2.6-8.4,3.6c-4,1.4-7.9,2.6-11.9,3.7c-0.2,0.1-1.2-1.3-1-1.8c0.9-3.6,1.4-7.7,3.3-11
	c3.6-6.1,7.5-12.4,12.5-17.4c5.4-5.2,10.7-10.7,17.8-13.9c3.6-1.6,7.1-4,10.8-5.6c7.2-3.1,15.1-4.6,22.9-4.4c3.3,0.1,6.5-0.2,9.8,0
	s6.3,1.3,9.4,1.9c0.5-0.2,0.6-0.3,0.7-0.6c0,0.2-0.1,0.3-0.1,0.6c3.7,1.2,7.7,2.3,11.7,3.5c2.9,2,5.8,3.6,8.6,5.5
	c3,2.1,6.2,4.1,8.7,7c1.6,1.5,3.3,2.9,5,4.2c2.2,1.9,4.2,4,6.2,6.2c5.8,7.3,10.8,15.1,15,23.3c3.8,7.2,7.1,14.7,10.1,22.3
	c2.6,6.4,6.1,12.5,9.3,18.5c1,1.8,2.9,3.2,4.2,4.7c1,1.2,2.3,2.2,2.7,3.5c0.6,3.1,1,6.3,1.3,9.5C276.3,638.8,276,639.5,271.7,639.9z
	 M486.2,215.1c-1.9,6.3-6.3,9.3-12.4,11.4c-11.5,4.2-23.4,4.2-35.3,3.5c-5.6-0.2-11.3-2.3-16.7-4.3c-6.1-2-11.7-5.6-16.1-10.3
	c-1.6-1.7-2.9-3.6-3.9-5.7c-0.4-0.6,0-1.7,0.1-2.7c0.8,0.4,1.6,0.5,2.3,0.8c2.8,1.8,5.6,3.6,8.5,5.4c0.1,0.1,0.4,0,0.6,0
	c12.2,6.8,25.1,7.7,38.2,6.9c4.1-0.2,8.3-1.6,12.4-2.7c6.5-1.6,13-3.6,19.5-5.4c0.9-0.4,2.2,0.1,3.3,0.1
	C486.7,213.2,486.5,214.2,486.2,215.1z M437.2,246.5c0.8,2.6-0.1,4.8-2.6,5.2c-11.4,1.8-22.3,1.4-30.7-8.3c-1-1.1-2.1-2-3.1-3.1
	c-2.2-4.3-4.8-8.2-5.8-12.5c-2.2-9-3.5-18.2-5.2-27.4c-0.2-1.5-0.7-3.1-0.9-4.7c1.4,1.1,2.7,2.3,4.1,3.3c3.7,2.4,4.7,6.5,5.6,10.3
	c1.4,6.2,6,9.7,10.1,13.3c4.7,4.3,10.4,6.6,16.6,8.1c5.5,1.2,7.8,5.5,9.9,10.1C435.9,242.6,436.6,244.5,437.2,246.5L437.2,246.5z
	 M464,119.8c1.3-0.2,2.4-0.8,3.3-1.8c1.3-1.6,2.5-3.3,3.5-5.1c1.5-2,7.8-3.8,9.6-2.1c1.3,1.5,2,3.3,2,5.2c0,4.2,1.8,6.8,5.2,9
	c11.3,7.1,17.4,18,20,30.8c1.2,5.8,1.8,11.6,1.8,17.5c-0.1,6.2-1.5,12.4-2.7,18.4c-0.7,3.1-1.6,6.1-2.8,9.1c-1.5,4-5.5,3.9-8.7,4.8
	c-4.4,1.1-8.9,2-13.3,2.8c-6.1,1.3-12.1,2.3-18.1,3.5c-4,0.8-7.7,2-11.7,2.4c-4.1,0.5-8.2,0.8-12.4,0.7
	c-15.7,0.2-29.3-5.7-41.4-15.6c-2.5-2.1-5-4.1-7.4-6.2c-0.8-0.7-1.9-2-1.8-2.8c0.5-3.3-1.9-2.7-3.5-2.4c-3.3,0.7-5.6,3-7.2,5.8
	c-0.1,0.5-0.1,1,0.1,1.5c0.5,0.1,1.1,0,1.6-0.1c4.7-2.7,4.8-2.7,5.7,2.8c1.3,7.8,2.5,15.6,3.9,23.3c1.2,6.8,2.1,13.6,5.6,19.7
	c4.5,7.8,11.3,13.2,20.3,14.9c7.4,1.4,15.1,1,22.2-1.3c2.4-0.8,4.7-2,6.6-3.6c2-1.4,2.2-3.5,1.5-5.9c-0.7-2.7-1.2-5.4-1.5-8.2
	c-0.4-1.6,0.4-3,2-2.9c1.4,0.1,3.9,0.9,4.2,2c2.5,8,4.4,16.3,2.9,24.7c-0.5,3.4-3.7,6.6-6.5,9c-5.7,4.8-12.4,8-19.7,9.3
	c-9.7,2.1-19.5,2.9-28.8-1.3c-8.6-4-14.4-10.6-17.3-19.9c-2.2-7.5-1.6-14.8-1.8-22.3c-0.2-8-0.2-15.4-0.7-22.7
	c-0.2-3.5-1.9-6.5-4.1-9.3s-4.4-5.9-5.1-9.2c-0.9-4.1,2.3-7,5.4-9.4c2.6-2,5.5-3.5,7.7-5.6c1.3-1.4,2.1-3.1,2.5-5
	c1.9-6.6,5.7-12.1,9.8-17.7c1.4-2,3-4,4.7-5.8c1.4-1.8,2.7-1.8,3.9,0.4c0.4,0.6,0.9,1.2,1.5,1.6c0.4-0.6,0.8-1.3,1-2
	c1-3.9,1.5-8,3.3-11.5c2.8-5.4,7.8-7.9,14-8.6c10.7-1,18.9,3.7,26.1,11c0.7,0.7,1.5,1.2,2.3,1.8c-0.1-1.1-0.4-2.2-0.8-3.3
	c-3-6.1-8.4-9.3-14.6-11.5c-0.7-0.3-1.4-0.7-2-1.3c0.8-0.5,1.4-1.3,2.1-1.5c6.4-1.8,12.7-3.5,19.1-5
	C458.4,120.1,461.3,120.3,464,119.8z M422.3,94.8c0-0.2,0.2-0.6,0.2-0.8v-3.3c1.1,0.4,2.2,1,3.1,1.6c5.1,3.2,10.1,6.4,15.2,9.7
	c5.6,4.6,11,8.8,16.2,13.1c1.2,0.9,1.5,1.4-0.6,1.9c-5.8,1.2-11.4,2.9-17.1,4.2c-1.9,0.5-3.9-0.2-5.2-1.6c-2.7-2.7-5.7-5.1-9-7
	c-8.9-5.8-17.7-11.4-26.6-17.2c-0.6-0.3-0.8-1.3-1.2-2c0.5-0.1,1.1,0,1.6,0.1c4.2,2.1,8.2,4.6,12.6,6.2
	C416.4,101.5,420.5,101.2,422.3,94.8z M398.8,81.8c-0.7-0.3-0.9-2-0.7-3c0.1-0.5,1.5-0.9,2.5-1c2-0.1,4,0.1,4.5,2.4
	c0.1,0.7-0.7,1.7-1.2,2.6C402.2,82.8,400.4,82.5,398.8,81.8z M395.8,67c4.9,2.4,9.9,4.2,13.4,7.5c5.5,5.1,10.1,11.3,9.5,19.6
	c0,1.1-0.8,3-1.4,3c-1.6,0-3.1-0.5-4.4-1.3c-0.5-0.2-0.6-1.9-0.4-2.7c2.3-7.8-2.3-16-10.1-18.3c-0.6-0.2-1.1-0.3-1.7-0.4
	c-4.6-0.6-8.9,2.2-10.3,6.5c-0.7,2.8-1.6,3.3-3.6,1c-1.6-1.8-3.5-3.3-5-5.1c-3-3.6-3-4.2,0.6-7.1C386.2,66.7,390.7,65.2,395.8,67
	L395.8,67z M377.8,66.6c1.3-0.7,2.6-1.2,4.1-1.4c0.3,0,0.6,0.1,0.8,0.2c-0.1,0.3-0.1,0.8-0.4,0.9c-0.4,0.4-0.9,0.8-1.4,1.1
	c-0.9,0.6-1.5,1-2.1,1.4l-1.8,0.7C377.4,68.4,377.2,66.9,377.8,66.6L377.8,66.6z M367,64.6c4.5-1.8,6.4-0.6,7.2,4.3
	c0.5,3.2,2.8,6.2,4.2,9.1c4.3,6,10.1,8.9,16,11.8c0.8,0.5,1.5,1.1,2.1,1.8c-0.7,0.9-1.4,1.8-2.9,0.8c-5.2-3.3-10.6-6.4-16-9.3
	c-5.6-3.1-11.2-6.1-16.8-9.1c-2.6-1.4-5-3-7.5-4.7c-0.5-0.3-0.7-0.8-0.7-1.3c-0.5-1.8,2-6.4,3.8-7c2.3-0.9,4.9,0,6.2,2.1
	C363.8,65,364.9,65.4,367,64.6L367,64.6z M362.4,14.6c5.5-2.8,10.9-5.6,16.4-8.2c2.4-1,4.9-1.6,7.5-1.9c2.3-0.2,3.5,1.4,2.6,3.6
	c-1.8,4.2-4,8.3-6,12.2c-0.5,1-1.2,1.9-2,2.7c-3.6,4.9-7.5,9.6-11.7,14.1c-1,0.7-2.3,1-3.5,0.7c-5-1.5-9.6,0.3-14.1,1.9
	c-0.4,0.1-0.7,0.5-1,0.5H347c0.5-0.9,0.8-1.9,1.3-2.8c3.1-5.5,8.9-8.3,13.5-12c4.3-3.5,4.5-5.6,0.1-8.6l-1.7-1.4
	C361,15.3,361.7,15,362.4,14.6L362.4,14.6z M302.7,16c3.9-2.3,7-5.9,11.7-7c1.5-0.3,3.1-0.4,4.7-0.5c0,1.5,0.5,3,0,4.4
	c-0.6,2-1.6,4-2.3,6c-1.9,5-4.7,9.7-5.2,15.2c-0.2,2.1-2.7,3.8-1.4,6.4c0.2-0.1,0.5-0.3,0.6-0.6v0.6c-0.3,0.3-0.6,0.7-0.7,1.2
	c0.9,0.2,2.1,0.8,2.8,0.5c0.9-0.9,1.8-1.9,2.6-2.9c1.3-1.4,2.6-2.8,3.9-4.1c2.7-2.5,5.4-4.8,7.9-7.4c3.8-3.7,8.7-6.3,13.9-7.4
	c5.1-1.2,10.4-1.4,15.5-2c0.5-0.2,1.1-0.2,1.6,0c1.2,0.6,2.2,1.4,3.3,2c-0.6,1.1-1.4,2.1-2.3,3c-3.3,2.3-6.8,4.4-9.9,7
	s-6,5.5-6.9,9.8c0,0.5-0.7,0.8-1,1.2c0.2,0.5,0.4,0.6,0.6,0.7c-0.2,0-0.4,0-0.6-0.1c-0.2,2-3,3.7-1.3,6.3c1.4-0.5,2.8-1.3,4-2.2
	c0.8-0.3,1.2-1,1.5-1.2c5.4-1.5,10.7-3.8,16.1-4c4.7-0.1,10.5-1.5,14.4,3.6c0.2,0.2,0.7,0.2,1,0.5c0.8,0.7,1.6,1.5,2.6,2.2
	c-1.2,0.6-2.4,1.1-3.6,1.4c-6.3,1.3-12.5,3.2-18,6.5c-3.4,2-7.1,3.8-8.2,8.4c-0.6,1.7-2.3,2.6-4,2.1c-4.4-1.3-9-1.9-13.3-3.2
	c-7.9-2.3-15.9-0.8-23.8-1.2c-2.1-0.1-4.1,0-6.2,0c-0.4,0-1-0.5-1-0.8c-0.2-5.2-0.4-10.6-0.7-16c-0.5-6.4-1.3-12.9-1.9-19.4
	C298.8,21.7,298.9,18.5,302.7,16L302.7,16z M293.9,11.5c0.7,3,0.9,6.2,1.4,9.2c1.7,14.3,2.3,28.6,1.7,43c-0.3,6.1-0.9,12.4-5.8,17
	c-1.5,1.1-3.1,2-4.9,2.6c-2.4,1-4.9,1.9-7.5,2.4c-2,0.6-2.8-1.1-2.4-2.6c1-5.4,2.4-10.5,3.6-15.9c0-0.7-0.1-1.3-0.5-1.9
	c-0.5,0.2-1.4,0.5-1.5,0.8c-1.3,3.5-2.5,7-3.6,10.5c-0.6,2-1,4-1.5,6c-0.6-2-1.8-4.1-1.5-6c1-8.6,0.9-17.5,3.6-25.9
	c2.8-8.8,5.1-17.6,7.6-26.5c1.7-4.1,2.9-7.9,4.5-11.4c0.8-1.5,2.8-2.4,4.3-3.3C291.9,9.5,293.8,10.7,293.9,11.5L293.9,11.5z
	 M272.4,222.4c-0.5,2.2-1.5,4.3-2.9,6.1c-1.2,1.5-2.7,1-4.1,0c-4.1-2.8-6.2-6.9-8.6-10.9c-4.6-7.6-6.3-16.1-8.1-24.5
	c-1.2-5.7-0.7-11.7-0.7-17.5c0-7.2,0.4-14.6,0.5-21.8c0-1.8,0.4-3.6-2-5.2s-2.9,0.4-3.6,0.7c-4.2,1.6-8.2,3.9-12.4,5.9
	c-2,0.9-2.9-0.6-3.4-2c-1.3-5.7-1.4-11.6-0.2-17.4c1.8-9,5.6-17.4,11.1-24.7c3.1-4.1,6.5-7.9,10.4-11.3c5.2-4.7,8.2-9.9,5.8-16.8
	c-1.2-3.2-3.3-6-5-8.9c-4.6-7.1-9.3-14.2-13.8-21.5c-2.4-4-1.5-5.6,3.4-5.8c4.7-0.2,9.3,0.3,13.9,0.6c1.1,0.2,2.2,0.4,3.3,0.7
	c2,0.5,2.4,1.9,1.9,3.5c-2.7,6.5-3.3,13.7-1.8,20.5c1.3,5.5,3.8,10.7,5.9,16.1c0.6,1.4,1.8,2.7,2.1,4.1c0.4,1.4,0.3,2.9-0.2,4.2
	c-1.5,3.6-3.9,6.9-5.1,10.5c-2,5.1-3.6,10.2-4.9,15.5c-0.8,3.3-0.6,6.9-0.9,10.3c0.1,0.6,0.4,0.7,0.4,0.9c-2.2,3.1-1.3,6.5-0.9,9.8
	c0.6,4.6,1,9,1.7,13.4c0.8,6.4,2.1,12.8,4,19c1.3,4.2,2.3,8.5,3.9,12.7c1.3,3.3,2.8,6.6,4.4,9.8c1.3,2.8,2.7,5.6,4.1,8.3
	c0.3,0.6,0.6,1.3,0.8,2c0.6,1.4,1,2.9,1.2,4.4C272.8,216.3,272.8,219.4,272.4,222.4z M304.6,271c-0.5,0.7-2.8,1-3.5,0.6
	c-2.4-1.6-4.6-3.6-6.4-6c-4.8-6.6-8.4-14.1-10.5-22c-1.2-4.4-2.9-8.9-2.2-13.6c0.1-0.5,0.2-1,0.2-1.5c0.5,0.2,1.2,0.4,1.5,0.8
	c1.3,1.8,2.5,3.6,3.6,5.5c1.3,2.1,2.6,4.2,3.7,6.3c0.5-0.2,0.6-0.5,0.7-0.5v0.4c0.2,0.6,0.9,1,1.5,1.5c0.4,0.7,0.8,1.3,1.3,1.9
	c0.1,0.4,0.2,0.7,0.4,1.1c0.1,0.6,0.3,1.3,0.6,1.9c0.5-0.2,0.6-0.4,0.7-0.6v0.6c1.2,2.4,2.8,5,4.3,7.6c0.3-0.1,0.5-0.3,0.7-0.6v0.6
	c0.4,0.8,0.9,1.5,1.5,2.2c0.5,0.8,0.9,1.3,1.3,1.9c0.1,0.3,0.2,0.7,0.4,0.9C307.2,263.7,307.5,266.8,304.6,271z M289.7,375.8
	c-5.2-1.6-7.4-5.8-5.8-11.3c2.2-7.7,5.6-14.7,11.9-19.5c6.8-5.1,9.7-3.6,12.1,3.5c1,3.4,2.9,6.6,0.1,10.1c-0.4,0.5,0.7,2.3,1.5,3.4
	c1.4,1.6,1.2,3-0.2,4.5c-2.6,2.7-5,5.6-7.2,8.6c-1.4,1.8-2.9,2.8-5.2,2.6C294,377.1,291.9,376.5,289.7,375.8z M318.4,520.4
	c3-6.5,5.5-13.2,7.7-20c2-6.8,3-13.8,4.4-20.5c0.9-4.2,1.9-8.3,2.7-12.5c0.4-1.6,0.2-3.4,0.6-5.1c0.2-0.9,0.6-1.8,1.2-2.6
	c0.7,0.6,1.3,1.3,1.9,2c4.9,8.9,10,17.8,14.7,26.9c2.2,4.4,4.1,9,5.5,13.7c1.5,5.3,2.2,10.8,2,16.3c-0.5,8.2-2.2,15.6-8.3,21.5
	c-3.7,3.5-8.5,4.8-13.2,6.3c-4,0.2-7.7,0.2-11.4,0.2c-9.8,0.1-16.7-4.4-20.8-13.4c-2-4-0.4-8.8,3.6-10.8c1.2-0.6,2.4-0.9,3.7-0.8
	c0,0,0.4,0.8,0.2,1c-0.6,1.4-1.4,2.7-1.9,4c-0.5,1.5,0.5,2.2,1.5,1.2C314.8,525.4,317.2,523.2,318.4,520.4z M284.4,546.8
	c-1.6-12.4,0.4-24.6,13.4-31.7c5.4-2.9,11-2.6,16.7-2.5c1.3,0,1.5,0.5,1,2.2c-0.8,3-3.1,3.2-5.4,3.8c-7.2,2.2-10.7,7.8-8.6,14.8
	c2.2,7.2,9.8,15.3,18.4,16.3c2.7,0.3,5.2,0.8,8,1.2c10,1,18.8-2.3,26.4-8.4c2.8-2.2,4.3-6.3,5.9-9.8c3.3-7.4,4.5-15.6,3.4-23.7
	c-0.8-8-3.7-15.7-7.6-23c-5.8-10.7-12.2-21.2-19.1-31.2c-5.5-8.2-9.4-17.4-11.4-27c-0.4-1.4-0.2-2.9-0.5-4.3
	c-0.5-1.9-1.4-2.1-2.9-0.6c-0.9,0.8-2.2,1-3.4,0.6c-4.9-2.6-9.8-5.4-14.6-8.2c-4-2.4-6.4-5.4-3.4-10.5c0.4-1,0.8-2,1.2-3
	c3-5.7,5.2-6.8,11.5-5c0.4,0.1,0.8,0.4,1,0.2c1.1-0.5,2.2-1.1,3.3-1.8c-0.7-0.6-1.3-1.9-2.1-1.9c-3.6-0.3-7.2-0.3-10.9,0
	c-4.2,0.6-4.8,4.9-6.4,7.8c-1,1.5-1,3.6-1.4,5.5c-0.1,0.6-0.2,1.2-0.4,1.7c-0.5-0.7-1.4-1.3-1.5-1.9c-0.1-2.5-0.5-5,0.1-7.4
	c1.9-8.3,6.2-15.5,11.8-21.8c3-3.6,6.1-7.4,9.7-10.3c6.6-5.7,14-10.3,23.2-10.4c1.2-0.1,3.1,0.1,3.1,0.6c0.6,1.8,0.6,3.8,0.1,5.6
	c-2,6.8-4.9,13.2-6.3,20c-1,4.7,0,9.9-0.2,14.8c-0.4,6.9,0.9,13.9,3.9,20.2c3.5,7.9,7.3,15.9,11.5,23.5c4.8,9,10.4,17.4,15.2,26.2
	c4.4,8.2,9.1,16.3,11.3,25.5c1,5,2.1,10.1,2.8,15.2c0.6,3.4,0.8,6.8,0.7,10.2c-0.2,7.4-1.8,14.8-4.9,21.6c-1.4,3.3-3.1,6.3-4.8,9.3
	c-4.2,4.4-7.6,9.1-12,12.4c-4.7,3.6-10.3,6.1-15.5,8.9c-6.1,3.3-12.7,4.1-19.5,3.7c-5.5-0.3-11,0-16.1-2.1
	c-6.3-2.7-12.5-5.1-17.1-10.7C288.5,557.3,285.2,552.7,284.4,546.8z M286.2,585.2c1.5-4,4-7.7,5.8-11.4c1.2-2.1,2.6-2.3,4.5-1.3
	c3.6,2,7,4.3,10.8,5.4c4.3,1.4,9,1.5,13.3,2.2h11.7c3.1,0,4.1,0.8,3.1,3.6c-1.4,4.6-3.2,9-5.4,13.3c-2.6,4.8-6.1,9.1-9,13.9
	c-2,3-4.1,4.9-7.9,3.4c-0.9-0.3-1.9-0.2-2.8,0.1c-3.3,0.8-4.5,0-4.4-3.5c0.1-2.9-1.4-3.6-3.8-3.7s-5,0.1-7.1,2.2
	c-0.5,0.6-2,0.6-3,0.2c-2.1-0.6-4.1-1.5-6.1-2.5c-0.7-0.3-1.2-0.9-1.4-1.6c-0.5-3-1.4-6.1-1.2-9
	C283.8,592.6,284.7,588.8,286.2,585.2z M302.5,618.3c-1.3,0.3-2.9,0.6-3.9-0.1c-1.8-1-0.8-6.9,1.2-7.7c0.6-0.2,1.5,0.5,2.3,0.7
	c0.2,2,0.6,3.2,0.6,4.4C302.9,616.6,302.7,618.3,302.5,618.3L302.5,618.3z M283,611.6c3.1-1.6,5.6,0.3,7.9,1.9
	c1.3,0.9,1.8,2.9,2.7,4.4c2.5,5.2,8,6.5,11.8,2.7c2.2-2.3,4.4-3.5,7.8-2.7c2.2,0.3,1.9,1,0.9,2.2c-1.3,1.6-2.6,3.2-3.9,4.8
	c-6,7.9-13.2,15-21.2,20.9c-2.9,2.1-4.3,1.6-5.1-1.6c-2-8.5-3.5-17.3-3.3-26C280.8,615.7,280.1,612.8,283,611.6z M278.4,609
	c-1-0.6-1.7-1.5-2-2.6c-0.3-1.4-0.1-2.9,0.5-4.2c0.2-0.7,1.8-1.3,2.7-1.3c0.5,0.1,1,1.6,1.2,2.5c0.1,0.9,0.1,1.9,0,2.8
	C280.5,608.2,280,609.6,278.4,609z M228.2,721.4c1.9,1.1,3.7,2.3,5.4,3.7c0.6,0.4,1,1.1,1,1.9c0,0.5-0.9,1-1.5,1.2
	c-3.4,0.5-6.8,0.8-10.1,1.3c-5.4,0.8-10.6,1.9-15.9,2.8c-2.6,0.5-5,1.4-7.6,1.5c-1.4,0-3.1-1.2-4.3-2.2c-0.2-0.1,0.7-2,1.1-3
	c6.8-2.2,13.2-4.1,19.7-6.1c2.9-0.8,5.8-1.8,8.8-2.3C225.8,719.9,227.2,720.8,228.2,721.4z M155.7,704.8c3-0.9,6.1-2.2,9.1-2.3
	c8.4-0.6,16.8-0.7,25.2-0.7c5.5,0,11,0.3,16.4,0.5c5.1,0.3,10.1,0.6,15.3,0.7c2.2,0,2.3,1.4,2.3,2.9c-0.1,2.6-0.7,5.1-0.6,7.6
	c0.1,2.2-1,2.9-2.7,3.4c-5.2,1.5-10.6,2.9-15.9,4.4c-4.3,1.2-9,2-13.2,3.8c-4.7,2-6.9-1.4-9.8-3.5c-2-1.3-3.9-2.8-5.6-4.4
	c-0.8-0.7-1.3-1.7-1.4-2.8c0-0.5,1.5-1.3,2.3-1.3c9-0.7,18-1.2,26.9-2c2.6-0.5,5.1-1.2,7.6-2c0.4-0.1,0.6-0.6,0.8-0.9
	c-0.5-0.2-1-0.8-1.5-0.8c-3,0-6.1-0.1-9.1,0c-5.8,0.1-11.5,0.2-17.4,0.7c-4,0.3-7.9,0.9-11.8,1.9c-4.9,1.2-5.6,4.5-2.1,8
	c4.9,4.7,10.1,9,15.3,13.3c1.7,1.5,3.8,2.5,5.6,3.8c5.1,3.8,10.5,2.6,16,1.6c6.2-1,12.2-2,18.3-2.9c5.2-0.8,10.5-1.8,15.6-2.7
	c4.3-0.8,8.8-1.3,12.8-2.6c1.9-0.7,3.6-2,4.7-3.7c2-3,5.7-4.1,8.6-1.9c1.9,1.4,1.4,3.5-1,5.1c-6.4,3.4-12.9,4.4-19.5,5.7
	s-12.5,2.8-18.7,4.4c-9,2.5-18,5-26.8,7.5c-2,0.6-4,1.5-5.8,2c-4.4,0.8-7.5-2.2-10.5-4.4c-10.3-7.7-19.1-16.9-27.6-26.5
	c-2.1-2.3-3.7-5.1-4.8-8C152.1,706.8,153.8,705.4,155.7,704.8z M265.9,742.5c-6,4.9-12.4,9.4-19,13.4c-7.8,4.9-15.9,9.2-23.8,13.9
	c-7,2.8-13.2,6-19.7,8c-3,0.9-7.1,0.2-10.3-0.9c-7.7-3.2-14.8-7.7-21-13.2c-6-4.9-11.1-10.8-15.1-17.4c-1.3-2.4-2.3-4.9-2.9-7.6
	c-1.5-5.8-2.9-11.7-4.1-17.5c-0.5-3.1-0.8-6.2-0.9-9.3c-0.1-0.7,0.5-1.3,0.7-2c0.5,0.6,1.1,1,1.2,1.5c2.4,7.6,8.4,12.4,13.9,17.6
	c6.2,5.8,12.6,11.5,19,17.1c2.2,1.8,4.6,3.3,7.1,4.7c3.7,1.9,7.2-0.3,10.6-1.4c6.4-1.8,12.5-4.3,18.9-6.1c7.1-1.8,14.4-2.6,21.4-4.7
	c9.1-2.7,18.9-2.8,27.1-8.4c1.2-0.8,3-1.2,3.1,1.9C272.1,737,268.9,740.1,265.9,742.5L265.9,742.5z M326.1,699
	c-3.1,4.4-6.3,9.1-10.4,12.5c-3.3,2.8-6.4,6-10.3,8c-2.6,3.3-28.1,9-29.3,9c-2.2-1-4.1-5.6-4.2-5.7c-3.7-6.5-14.7-6.3-16.8,1
	c-0.9,3.3-4.1,2.1-5.6,2.2c-9.2,0.2-16.2-4-20.5-12.2c-2.4-4.8,0.5-11,6.5-12c4.5-0.8,9.1-1.2,13.6-1.3c3.7,0,7.4,0.2,11.1,0.6
	c7.6,0.7,13.8-2.5,19.5-7c1.2-1.3,2.4-2.6,3.4-4.1c-1.6-0.2-3.3-0.3-4.9-0.2c-5.2,0.1-9.4-2.1-13.5-5c-2.5-1.6-4.4-4-5.5-6.8
	c-1.2-2.9-0.2-6.2,2.5-7.9c4.4-3.3,9.3-6,13.9-9c5.2-3.6,10.6-7.1,15.5-11.2c5.4-4.3,10.6-8.9,15.3-14c5.9-6.5,11.5-13.4,16.6-20.5
	c4.2-6.1,8-12.6,11.3-19.2c2-4,3.4-8.2,4.3-12.6c0.9-4,3-6.1,6.9-7.3c8.6-2.7,16.8-6.9,23.1-13.3c8.5-8.6,14.8-18.7,16.2-31
	c0.1-0.2,0-0.5,0-0.7c0.6-0.8,1.3-1.8,2-2.6c0.6,0.8,1,1.8,1.2,2.8c-0.1,3.4-0.2,6.8-0.6,10.2c-0.9,8-2,16.1-3.3,24.1
	c-0.4,1.4-2.8,3.4-4.3,3.5c-12.8,1.3-21.8,8-28.3,18.7c-5.1,8.5-8.3,17.8-11.2,27.2c-1.3,4.8-2.5,9.6-5.4,13.6c-2,2.8-4.7,5.4-7,8
	c-1.2,0.7-2.4,1.3-3.7,1.9c0.2-0.2,0.3-0.4,0.5-0.6c1.4-2.8,2.8-5.5,4.1-8.4c0.2-0.3,0-0.8,0.1-1.3c-0.6,0-1.2-3.2-1.5-4.3l0.1-0.1
	c-0.1,0-0.1-0.1-0.2-0.1H327c-0.2-0.1-0.5-0.2-0.7-0.2c-1.6,0.6-3.8,0.8-4.8,2c-3.3,4-6.3,8.2-9,12.6c-2.1,3.4-1,6.2,1.9,8.9
	c0.7,0.7,0.7,3.3,0,4.2c-2.3,3-5.1,5.7-7.7,8.5c-0.5,0.5-0.8,1.1-1,1.8c-0.8,2-3.1,4.1-0.2,5.9c2.3,1.4,4.8,1.8,7.1-0.2
	c1.8-1.5,3.7-2.7,5.5-4.3c3.5-3.4,6.8-7,10.4-10.3c0.9-0.9,3.3-1.6,4.1-1.2c1,0.7,1.5,2.6,1.8,4.1c0.8,4.9,1.3,9.8,2,14.7
	c0.3,1.5,0.9,2.8,1.9,4c2,2.3,1.4,4.5,0,6.8C334.1,687,330.3,693.2,326.1,699z M318.6,645.7c-5.2-1.4-4.4-4.1-2.5-7.3
	c2.1-3.5,4.4-6.9,6.9-10.1c0.9-1.1,2-2.1,3.1-3c-0.8,2.2-1.6,6.5-2.6,7.8c-0.5,1.6-0.9,3-1.3,4.5c0,0.7,0.1,1.4,0.2,2.1l-0.2,0.2
	h0.4c0.1,0,0.1,0,0.1-0.1c1.5-0.3,6.1-1,6.5-1.6c2-2.1,3.7-4.3,5.7-6.4c0.5-0.4,1.1-0.8,1.8-1c0.1,0.5,0.1,1.1,0,1.6
	c-0.6,4.5-1.2,9-1.9,13.4c-0.2,1.3-0.5,2.7-2.8,2c-1.4-0.1-2.9,0.4-4,1.3c-4.5,4.1-8.9,8.5-13.4,12.6c-1.6,1.5-3.4,2.9-5.2,4.1
	c-0.5,0.3-1.4,0-2.1,0c0-0.6,0.2-1.3,0.5-1.9c0.7-1.2,1.5-2.3,2.5-3.3c3.1-3.7,6.3-7.3,9.6-10.8C322,647.4,320.7,646.2,318.6,645.7
	L318.6,645.7z M341.1,698c-0.4,1.5-0.9,3.8-3.6,2.9c-3.7-1.5-4.5-2.8-3.1-5.4c2.3-4.3,4.8-8.5,7.3-12.7c0.4-0.6,1.2-0.8,1.9-1.2
	c0.2,0.8,0.9,1.8,0.8,2.5c-0.4,1.5-1,2.9-1.5,4.4C342.1,691.9,341.9,695.1,341.1,698z M345.6,741.2c-1-2.2-2.5-4.8-2.5-7.1
	c0.1-6.7,0.7-13.4,1.3-20.1c0.4-5.2,1-10.6,1.9-16c0.7-4.5,1.5-9.1,2.6-13.6c2.7-11.9,5.2-23.7,8.2-35.5c1.5-6.2,3.3-12.5,4.9-18.7
	c0.7-7.2,1.4-13.8,1.9-20.3c0-2.1-0.4-4.2-1.2-6.2c-0.2-0.6-0.9-1-1.5-1.6c-0.2,0.7-0.9,1.3-0.9,2c-0.1,1.5,0.2,2.9,0.1,4.4
	c0,3.9-0.3,7.8-0.9,11.7c-1.2,6.3-2.7,12.6-4.3,18.9c-2.8,11.3-5.8,22.4-8.9,33.6c-0.4,0.9-0.8,1.8-1.4,2.6
	c-0.6-0.7-1.2-1.4-1.8-2.2c-4.8-7.5-4.1-15.9-3.6-24c0.5-10.6,2.5-21.1,5.8-31.1c2.3-7,6.8-12.5,10.8-18.3c1.9-2.7,3.9-5.2,7.4-5.6
	c1.2,0,3,0.2,3.4,0.9c1.4,3,2.9,6.1,3.3,9.3c0.7,6.6,0.9,13.3,0.6,19.9c-0.5,6.9-2,13.8-3.1,20.6c-0.7,4.5-1.5,9.2-2.5,13.8
	c-1.6,9.3-3.5,18.5-4.9,27.9c-0.8,5.1-0.9,10.3-1.4,15.4c-0.9,11.5-2.5,22.9-1.8,34.5c0.2,4,1.3,7.8,1.9,11.8
	c0.1,0.8,0.4,1.8,0.5,2.6c-0.9-0.3-1.7-0.6-2.6-0.9C352.8,747.4,348,745.7,345.6,741.2L345.6,741.2z M460.6,769.2
	c1-2.6,1.9-3,4.4-1.9c5.6,2.5,10.1,6.8,12.9,12.2c2.8,5.2,5.7,10.4,8.2,15.9c1.9,4.3,3.4,8.8,4.4,13.4c1.3,5.9,2.1,12,2.4,18.1
	c0.1,5.5-1.5,10.8-6.2,14.6c-1.9,1.5-3.6,3.2-5.4,4.7c-0.3,0.1-0.7,0.2-0.9,0.3c-0.7,0-1.4,0.2-2,0.6c0.1,0.3,0.4,0.6,0.7,0.7
	c-0.2,0-0.5,0-0.7-0.1c-4,1.9-8,4-12.1,6.1c-0.7,0.4-1.4,0.8-2,1.3c-0.3,0.1-0.6,0.2-0.9,0.2c-3.7,0.3-7.4,0.9-11.1,1.6
	c-0.3,0.1-0.6,0.2-0.9,0.3c-1.7-0.3-3.5-0.4-5.2-0.3c-1.3,0-2.7-0.3-3.7,0c-6.8,2.3-13.3,1.4-20.1,0c-1.9-0.3-4-0.3-5.9-0.7
	c-0.5,0.1-0.7,0.3-0.9,0.3c0-0.2-0.1-0.3-0.3-0.3c0,0,0,0,0,0c-0.5,0.2-0.6,0.5-0.6,0.7v-0.7c-1.6-1.3-3.7-1.7-5.7-1.2
	c-0.3,0.1-0.6,0.2-0.9,0.2c-1.4-0.5-2.3-2.6-4.3-1.5c0-0.3,0.1-1.2,0-1.2c-1.3-0.3-2.3-0.5-3.6-0.7c-0.3,0.1-0.5,0.3-0.6,0.6v-0.6
	c-0.8-0.5-1.7-1-2.6-1.3c-0.3,0.1-0.5,0.3-0.6,0.6v-0.6c0-0.2-0.5-0.3-0.7-0.7c-0.5-0.3-2.2,1.2-1.5-0.9c-0.5-0.1-0.8-0.1-1.2-0.2
	l-10.8-3.2c0.6-1.3-0.2-1.2-1-1.3c-1.1-0.3-2.2-0.8-3.3-1.3c-1.2-0.5-2.2-1.2-3.4-1.8s-2.2-0.8-3.1-1.4s-1.9-1.5-2.9-2.1
	c-3.4-1.8-6.9-3.4-10.3-5.1c-0.6-0.2-0.9-1-1.5-1.6c-3.5-2.9-6.6-6.4-10.4-8.9s-5.5-6.3-8.2-9.4c-2.1-2.6-1.3-5.5-0.7-8.2
	c0.8-3.8,2-7.5,3.1-11.2c0.8-3,1.6-6.2,2.7-9.3c0.7-2.3,1.5-4.6,2.5-6.8c1-2.2,3.3-2.8,5-1.4c5,4.1,11,6.8,17.4,7.9
	c3.9,0.8,7.5,2.5,11.3,2.9c4.4,0.6,9,0.2,13.5,0.2c4.3,0,8.5,0.1,12.8,0.1c4.7,0,9.3,0,14-0.1c1.7-0.1,3.4-0.3,5-0.7
	c2.2-0.2,4.2-0.7,6.1-0.9c4.6-0.7,9.1-2,13.3-4c6.2-2.8,12.2-5.6,16.2-11.4C460.4,769.6,460.6,769.5,460.6,769.2L460.6,769.2z
	 M458.4,759.5c0.5,5.4-2.3,9.2-6.3,11.5c-5.7,3.3-11.7,6-18,8c-4.8,1.6-10.3,1.2-15.4,2.2c-10.4,2.2-20.8,1.4-31.2,0.9
	c-9.2-0.2-18.5-1.5-27-5c-4.3-1.9-7.9-5.4-11.7-8.4c-2.7-2.2-0.8-4.9,0-7.5c2.5-7.2,3.3-6.7,9-4.8c5.9,2.1,11.9,4.4,18,6.3
	c2.9,0.8,5.9,1.2,8.9,1.3c7.5,0.3,14.9,1,22.4,0.6c10.3-0.8,20.4-2.8,29.7-7.5c4.5-2.3,8.9-5,13.3-7.6c1.6-1,3.3-1.2,4.2,0.6
	C455.8,753.2,457.2,756.3,458.4,759.5L458.4,759.5z M462.2,719.1c-0.7,8.6-3.3,17-10.4,23c-2.9,2.5-6.2,4.2-9.3,6.3
	c-10.5,4.3-20.8,7.9-31.7,9.1c-7,0.7-13.8,2-20.8,1.5c-6.3-0.2-12.6-1.3-18.7-3.3c-3.5-1.2-6.8-2-7.9-5.7c-1.2-3.2-2-6.6-2.4-10
	c-0.7-6.4-0.9-12.8-0.7-19.2c0.6-9.2,2-18.4,3-27.8c0.7-5.1,1.3-10.4,2-15.5s1.8-10.3,2.7-15.3c0.7-4.4,1.5-8.9,2.3-13.2
	c0.8-5.2,1.8-10.5,2.6-15.7c0.6-2.5,0.9-5.1,1.2-7.7c0.7-9.3,1-18.7-1.9-27.8c-1.8-5.4-4.2-7.6-9-6.9c-2.3,0.5-4.5,2.7-6.8,4
	c-0.8,0.5-1.4,1-2.2,1.5c0.2-0.7,0-1.6,0.4-2.3c3.5-6.1,5.8-13.3,12.6-16.6c4-2.1,8.8-2.6,13.3-3.7c9.1-2.5,18.4-0.7,27.6-1.5
	c2.9-0.2,5.9-0.1,8.8,0.3c1.5,0.5,2.9,1.4,3.9,2.7c1.2,1.8,3.6,2.5,5.6,1.5c5.6-3,9.3,1,13.5,3.2s5.2,6.2,7.4,9.8
	c5.4,9,8.3,18.9,10.3,29.2c1.6,8.4,2.6,17,3,25.5c0.1,4,0.5,7.9,0.6,12c0.5,12.6,0.9,25.3,1.3,37.9
	C462.5,702.6,462.7,710.8,462.2,719.1L462.2,719.1z M692.3,718.4c0.5-0.5,1-1.2,1.3-1.9c-0.1-0.3-0.2-0.6-0.3-0.9
	c0.5-0.2,0.6-0.3,0.6-0.6c0.5-2.2,2.1-2,3.2-1.3c3.3,2.6,6.5,5.3,9.5,8.3c2.2,2.1,4.1,4.5,5.8,7c0.5,0.6,0.3,1.6,0.6,2.3
	c0.3-0.1,0.5-0.3,0.7-0.6c0,0.2-0.1,0.4-0.1,0.6c1.5,3.4,3.3,6.8,5,10.2c0.3-0.1,0.5-0.3,0.7-0.6v0.6c0.4,2.5,1.1,5,2.2,7.3
	c1.9,3.8,3.3,7.8,4.1,12c1,6.6,1.3,13.4,0.8,20.1c-0.1,3.4,0.6,7.2-2.3,10c-1,0.9-2,1.9-2.9,2.8c-2.8,1-5.4,2.2-7.8,3.2
	c-1.1,0.5-2.3,1-3.5,1.3c-0.4,0.1-0.7,0.2-1,0.3c-9.3,1.3-18.7,3.3-28.1,4.4c-7.3,0.9-14.9,0.7-22.4,0.8c-1.3,0.1-2.7-0.8-4.1-0.9
	c-3-0.3-6.1-0.1-9.1-0.5c-4.7-0.5-9.5-1.3-14.1-2.5c-2.1-0.6-4.9-0.6-6.2-1.4c-2.3-1.5-5-0.7-7.1-2.2c-0.3,0.1-0.6,0.2-0.9,0.3
	c-4.3-1.6-8.7-2.8-13.2-4.2c-3.8-1.2-7.6-2.7-11.4-4.1c-3.6-2.3-8-3.5-9.1-8.5c-0.5,0.2-0.6,0.5-0.6,0.7v-0.7
	c-0.7-4.2-1.8-8.2-1.3-12.8c0.7-4.7-0.3-9.6-0.2-14.3c0.2-6.6,1.5-13.1,4-19.2c0.6-1.5,1.6-2.1,3.7-1.2c5.5,2.7,11.4,4.6,17.4,5.6
	c6.3,1,12.5,0.9,18.8,1c4.3,0,8.8-0.2,13.1-0.6c4-0.5,7.8-1.2,11.8-1.8c4.9-0.7,9.8-1.2,14.7-2.2c3-0.6,6-1.7,8.8-3
	c3.4-1.7,6.8-3.5,10-5.6c3.2-2.1,6.2-4.4,9.2-6.7c-0.2-0.5-0.3-0.6-0.6-0.7L692.3,718.4z M689.7,711.6c-1.3,3.5-3.5,6.5-6.4,8.9
	c-7.5,5.6-16.2,8.4-25.3,10.5c-6.7,1.6-13.6,2.4-20.5,2.5c-7.2,0.2-14.3,1-21.6,1.2c-7.8,0.2-15.4-0.8-22.5-4.2
	c-0.5-0.1-1-0.1-1.5-0.2c-1.2-0.8-2-1.4-2.8-1.9c-3.7-2.1-4-3.3-2-9.6c1.4-4.2,3.4-5.5,7.3-4.1c7.7,2.4,15.7,3.6,23.8,3.6
	c2.5,0,4.9,0.7,7.2,0.6c9.6-0.3,19.1-1,28.1-4.4c8.5-2.9,16.4-7.2,23.5-12.6c2-1.8,4.1-2.3,6.5-0.6
	C687.2,703.7,691.5,706.4,689.7,711.6L689.7,711.6z M542.1,578.6c8-5.6,15.6-11.8,23.8-17.3c2.5-1.6,4.9-3.3,7.3-4.9
	c7.3-4.7,14.9-9.1,23.2-11.7c8-2.7,16.3-4.8,25.1-2c5,1.8,10.4,2.5,15.5,3.8c1.2,0.3,4.2,0.6,1.2,3c-0.7,0.7-1.3,3,1.5,2.7
	c1.6-0.2,3.3-0.5,4.8-0.6c4.3-0.3,7.5,2.2,10.4,4.5c8.3,7,12.9,15.9,14.8,26.6c1.2,6.7,3.3,13.2,5,19.6c3.4,12.2,6.8,24.4,10,36.5
	c2.8,10.4,4.8,21,4.4,31.7c-0.2,7.3-3.3,13.5-7.9,19.1c-5.2,6.4-11.8,11.4-19.3,14.7c-8.2,3.7-16.6,7.3-25.8,8
	c-4.4,0.2-8.9,1-13.4,1c-3,0.2-6.1-0.2-8.9-1.4c-1.8-0.9-3.3-3.5-4-5.7c-4.3-13.3-5.5-27.1-5.1-41c0.1-8.4-0.3-16.9,0.1-25.3
	c0.3-7.2,1.5-14.5,2.3-21.6c0.2-2.6,0.5-4.9,0.7-7.3c0.8-11.7,2.6-23.2,1.9-34.9c-0.2-4.7-1.5-9.4-3.8-13.5
	c-1.5-2.8-4.7-3.3-7.6-3.6c-7.2-0.5-13.2,2.8-19.1,6.3c-0.1,0-0.1,0.1-0.2,0.1c-8.9,5.1-17,11.4-24,18.8c-6.4,6.7-13,13.3-17.8,21.2
	s-10.3,15.5-15.5,23.2s-11.1,14.8-19.4,19.5c-0.9,0.6-1.4,1.9-2,2.9c1.2-0.1,2.7,0.2,3.6-0.3c7-4.1,13-9.7,17.6-16.3
	c8.2-11.7,15.7-23.8,24.5-34.9c6.1-7.6,13.9-13.8,21-20.5c6.4-6.3,14-11.1,22-15.3c3.7-1.9,7.6-1.8,11.3-1.2
	c1.6,0.1,3.4,2.3,4.3,4.1c1.2,2.1,1.8,4.4,1.9,6.8c0.3,9.9-0.2,19.7-1.8,29.5c-0.9,5.8-1.4,11.9-1.9,18c-0.8,7.7-1,15.3-2,22.9
	c-1.4,10-1.4,20-1.2,30.2c0.2,5.2,1.5,10.5,2.5,15.6s2,9.9,3.2,14.7c0.5,1.9,1.2,3.8,2.2,5.5c0.9,2-0.1,2.2-1.5,2
	c-5.5-1.4-11.1-2.7-16.4-4.5c-4.8-1.6-8.5-5.4-10.2-10.1c-2.2-6-2.5-12.5-0.7-18.7c1.3-5,1.4-10.4,2-15.5c0.9-8.6,2-17.1,2.5-25.8
	c0.3-7,0-14,0.1-20.9c0.1-9.9-1-19.8,2.2-29.4c1.2-3.4,2.3-6.9,3.4-10.3c0.2-0.7-0.1-1.5-0.1-2.2c-0.7,0.5-1.6,0.6-2,1.2
	c-2.2,4.9-4.7,9.7-6.7,14.6c-3.6,9.2-1.5,18.8-1.8,28.2c-0.1,3.3,0.9,6.5,1,9.9c0.1,3.2-0.5,5.7-4.1,7.5
	c-5.6,2.9-10.5,7.3-16.2,10.2c-11.2,5.4-22,11.8-34.5,14.2c-6.5,1.3-13.1,3-19.7,2.3c-5-0.6-7.6,0.3-11,4.7
	c-4.3,5.6-11.2,9.3-17,13.8c-1.8,1.2-3.7,2.2-5.6,3.2c-2.3,1.3-2.7-0.2-2.7-2c-0.4-5.6-0.6-11.2-0.7-16.7
	c-0.2-8.5-0.1-16.9-0.7-25.3c-1-12.1-3.6-23.9-7.7-35.3c-3-8.6-6.6-17.3-12.9-24.1c-4.4-4.9-10.2-8.4-16.6-10
	c-7.2-1.9-14.6-3.4-22-3.2c-5,0.1-9.9,0-14.9,0c-4.7,0-5.8-1.4-4.5-5.9c2.4-8.2,3.5-16.7,3-25.2c-0.2-4.2-0.9-8.4-3.5-12.1
	c-1-1.5-0.7-4.2-0.9-6.3c-0.4-4.7-0.2-9.3-1.3-13.8c-1.8-7.7-4.1-15.3-6.7-22.8c-2.1-5.1-4.5-10.1-7.2-14.9
	c-5.4-9.9-10.8-19.7-16-29.6c-4.8-9.1-9.9-18.1-12.8-28.1c-2.6-9-2.5-18-0.8-26.9c1.4-7.5,3.9-14.8,6.2-22c0.6-2.1,2.5-3.7,3.6-5.7
	c0.4-0.9,0.7-1.8,0.9-2.8c-1,0.2-1.9,0.5-2.8,0.9c-0.6,0.4-1.2,0.9-1.8,1.4l-0.1-2.5c-0.4-8.8-2-17.5-4.5-25.9
	c-2.3-8.3-5.3-16.5-8.9-24.4c-5-10.4-11-20.4-16.8-30.4c-3.5-6-7.6-11.4-11.3-17.1c-6.1-9.2-12.1-18.3-18.1-27.5
	c-3.3-5.1-7-10-9.7-15.5c-2.5-5-4.8-10.1-6.8-15.3c-1.4-3.1-2.7-6.4-4-9.6c-2.3-5.4-4.2-11-5.5-16.7c-1.5-6.8-2.6-13.7-3.4-20.6
	c-0.8-5.7-1.2-11.5-1.1-17.2c0.2-5,0.9-9.9,2.1-14.8c1.1-4.3,2.5-8.6,4.1-12.8c0.4-1.1,1.1-2.1,2.1-2.8c2.5-2,2.9-3.8,1.8-7
	c-2.6-6.5-5.6-13-7.1-19.7c-1.2-5.2-0.7-11-0.1-16.3c1-9.2,5.6-17.2,9.7-25.3c4.2-8.4,8.8-16.8,13.3-25.1c1.9-3.4,4.9-4.7,7.5-3.5
	c0.5,0.2,1.2,0.9,1.2,1.2c-0.2,0.7-0.9,1.6-1.4,1.5c-4.8-0.2-6.4,3.7-7.8,6.8c-2.6,6.1-4.4,12.5-6.4,18.8c-2.5,7.8-5,15.6-6.8,23.6
	c-1.2,5.6-0.6,11.5-1.6,17.1c-1,6.4,1.5,12,2.8,17.9c0.7,3.5,1.5,3.5,4.7,1.8c3.5-2,7.1-4.1,10.8-5c6.6-1.6,9.6-6.4,11.5-12.1
	c2.5-7.5,4.3-8.5,12.2-9.6c5.4-0.7,10.8-0.8,16.2-0.3c9.7,0.4,19.2,3.2,27.5,8.2c3.6,2.2,7.7,3.7,11.4,5.8
	c7.6,4.4,15.3,8.9,22.9,13.4c4.9,2.9,10,5.8,14.8,9.1c8.9,5.8,17.8,11.8,26.6,18c1.3,0.8,1.8,2.8,2.6,4.2c-1.5,0.7-3,1.2-4.5,1.6
	c-4.2,0.6-8.5,0.7-12.7,1.4c-5.5,1-8.5,5.1-10.4,9.9c-1.3,3.9-3.6,7.4-6.5,10.3c-7.9,7.3-13.7,16.6-16.8,26.9
	c-0.4,1.8-1.7,3.3-3.5,4c-3.6,1.9-7.6,3.3-9.9,7.5c-3.7,6.5-2.2,12.2,1.3,18c2.8,4.4,6.1,8.6,5.8,14.3c-0.2,2.2,0,4.4-0.1,6.8
	c0,0.6-0.1,1.3-0.4,1.9c-1,0.1-2-0.1-2.9-0.5c-3.5-3.1-7.2-6.1-11.9-7c-3.9-0.8-7.7-2.2-11.7-2.4c-9.2-0.7-18.5-0.9-27.8-1.4
	c-0.4-0.1-0.8-0.3-1.2-0.6c-8.2-1.8-15.9-5.5-22.4-10.9c-3.9-3-7.1-6.9-10.7-10.3c-1.2-1.2-2-2.7-3.1-3.7c-0.6-0.6-1.6-0.6-2.3-0.8
	c0,0.8,0.1,1.7,0.5,2.4c2,2.9,4.1,5.7,6.3,8.4c5.4,6.8,12.4,12.2,20.3,15.7c6.6,2.9,13.4,5.4,21,5.5c8.6,0,17.2,0.7,25.8,2
	c7.4,1.2,13.4,5.5,18,11.7c1,1.4,1.4,3.1,1.3,4.8c-0.7,8.6,0.9,17.3,4.5,25.2c2.6,5.8,6.8,10.3,11.7,14.3c5.5,4.4,12,6.3,18.7,7.4
	c2.8,0.5,5.8-0.4,8.8-0.2c9.7,0.6,18.1-3.3,26-8.2c3-1.8,4.5-0.7,6,1.3c3.2,4.2,6.2,8.7,8.9,13.3c4.4,8,8.4,16.3,11.9,24.7
	c2.1,5.6,5.6,9.7,10,13.5c4.2,3.5,8.1,7.2,11.8,11.2c4.3,5,8.5,10.4,12.4,15.9c5.4,8.2,9.6,17,12.6,26.4c2.8,8.6,5.2,17.4,5.7,26.6
	c0,0.6,0.6,1.2,0.6,1.6c0,1.9,0,3.7-0.1,5.6c-0.9-1.2-2-2.2-3-3.4c-4.7-4.4-9.6-8.6-14-13.4c-3.9-4.2-7-9.1-10.6-13.5
	c-4.2-5.4-8.5-10.9-12.8-16.1c-4.1-4.7-8.2-9.3-12.5-13.8c-9.1-9-19.5-16.2-32.1-19.2c-4.2-1-8.9-0.8-13.2-0.4
	c-5.9,0.8-11.7,2.1-17.4,3.9c-11.7,3.6-22.6,9.2-32.3,16.7c-5.7,4.2-10.4,9.7-12.2,16.6c-2.4,8.9-3,18.1-1.9,27.2
	c1.3,11.3,5.1,21.6,10.4,31.4c4.9,9.1,9.7,18.5,17.8,25.3c1.5,1.3,3.5,2,5.2,2.9c-0.5-0.7-0.7-1.6-1.2-2.3c-0.3-0.8-0.7-1.5-1.4-2.1
	c-8.2-7.6-12.4-17.6-17-27.4c-4-8.2-6.7-16.9-8-25.9c-0.8-5.4-1.2-10.8-1.2-16.2c0.4-6.5,1.5-13.3,5.7-18.7c3-3.5,6.4-6.6,10.3-9.2
	c7.5-5.2,15.6-9.3,24.1-12.4c2.3-0.6,4.7-1.4,7.1-1.9c1.2-0.1,2.5,0.2,3.4,1c1.9,2,3.6,1.3,5-0.1c4.3-4.3,9.3-4.1,14.8-3
	c11.3,2.6,20.6,9,28.7,16.6c9.3,8.6,17.6,18.3,26.1,27.8c4.4,4.9,8.4,10.1,12.8,15.2c2.6,2.8,5.7,5.1,8.4,8c3.6,3.7,7,7.8,10.4,11.8
	c2.1,2.5,4.3,4.9,6.3,7.5c4.7,6.5,4.2,13.9,1.6,20.8c-3,7.9-7.5,15.2-12.5,22.3c-5.1,7.2-11.6,13.3-19,18
	c-6.1,3.9-12.9,6.5-20.1,7.8c-3.9,0.9-7.8,1.5-11.8,1.8c-2.2-0.1-4.3-0.9-6-2.3c-7.3-6.7-13.2-14.9-17.4-23.9
	c-6.2-13.3-11.8-26.9-17.9-40.2c-6.1-13.1-11-26.8-20.2-38.2c-3.6-4.5-8.2-8.4-12.4-12.5c-0.4-0.3-0.8-0.6-1.3-0.7
	c-1.3-0.1-2.6-0.1-3.7-0.2c0.7,0.9,1.5,1.6,2.3,2.3c6.3,5,11.1,11.4,15.7,18.1c8,11.2,12,24.4,17.7,36.7c3.6,8.2,7.2,16.3,10.6,24.6
	c3.6,8.4,7.5,16.3,12.7,23.7c2.4,3.5,5.4,6.5,7.8,9.8c1,1.2,3.5,3.3-0.7,3.1c-3.3-0.1-6.6-0.1-9.6-1c-8.8-2.7-14.3-8.8-18.9-16.6
	c-5.7-10-8.8-21-12.7-31.6c-4.8-12.7-9.6-25.3-14.2-37.9c-2-5.2-4.4-10-8.3-13.9c-0.6-0.7-1.6-0.8-2.3-1.3c0,0.9,0.2,1.9,0.7,2.7
	c4.1,6.1,7.3,12.8,9.6,19.8c4,12.1,7.6,24.2,11.4,36.4c1.4,4.3,3,8.5,4.5,12.9c1,3.1,0.7,3.7-2.6,4c-0.9,0-1.8,0.7-2.7,0.9
	c0.7,0.7,1.4,2.1,2.1,2.1c7,0,9.1,5.7,12.1,10.3c4.5,6.8,10,12,17.8,14.6c3.8,1.2,4.4,4.2,5.2,7.5c0.9,3.8,2.5,7.5,3.4,11.3
	s1.3,7.9,2.2,11.9c1.4,6.1,2.6,12.1,4.5,18c1.9,5.4,6.4,8.8,11.1,11.5c6.9,4.5,15,6.9,23.2,7c2,0,3.1,0.5,2.8,2.7
	c-0.8,3.4-1.6,6.8-2.5,10.3c-0.5,1.6-0.7,3.3-1.2,4.9c-0.7,2.6-1.4,5.2-2.1,7.9c-0.1,0.5,0.2,0.9,0.4,1.4c0.4-0.3,0.9-0.7,1-1.2
	c1.2-2.6,2.5-5.1,3.4-7.7c1.6-5.1,3.3-10.3,4.5-15.4c0.6-2.1,1.3-2.9,3.3-2.9c7.8,0.1,15.4-0.2,23-2.5c2.1-0.6,4.4-0.8,6.7-1.3
	c3.1-0.6,4.9,2.1,3.8,6c-1.4,5-4.3,8.6-8.4,11.9c-5.8,4.7-10.6,10.4-15.5,16c-4,4.5-7.7,9.3-11.1,14.2c-3.9,5.5-6.4,11.9-7.4,18.6
	c-0.3,1.5-0.4,2.9-0.5,4.4c0,0.8,0.9,1.6,1.4,2.4c0.6-0.6,1.2-1.3,1.6-2c1.5-4.3,2.5-8.7,4.4-12.7c3.1-5.8,6.6-11.4,10.6-16.6
	C518.9,596.8,530,587.1,542.1,578.6z M532.9,459.1c0.5-1.5,3.2-1.9,4.7-0.6c2.2,1.7,2.7,4.1,2,6.9c-1.8,7.5-5.2,14.1-9.7,20.5
	c-2.8,4.3-5.9,8.4-9.3,12.2c-6.3,6.6-14.5,10.5-22.7,14c-12.1,5-25.1,7.4-38.1,6.9c-6.2-0.2-7-0.9-7.6-7.1c-0.2-4.9,0.4-5.6,5.2-5.5
	c7.8,0.3,15.5-0.3,23.1-2c1-0.1,2-0.3,2.9-0.6c7.6-2.2,14.6-4.4,20.6-8.8c7.6-5.4,14.5-11.4,19.6-19.4
	C527.2,470.4,530.9,465.2,532.9,459.1L532.9,459.1z M587.9,473.5c4.9,4.3,10.1,8.4,12.2,14.9c1.9,5.8,1,11.7-1.5,17.1
	c-2.3,5-4.7,10.2-7.9,14.6c-3.9,5.1-8.3,9.8-13.1,14c-4.8,4.4-9.9,8.5-15.3,12.2c-4.8,3.3-10.3,5-14.8,8.5c-3.8,1.2-7.2,2.7-11,3.7
	c-5.4,1.5-11,3-16.4,4.2c-8.7,1.7-17.6,2-26.5,1c-4.7-0.5-9.6-0.3-14-1.6c-4.8-1.4-9.4-3.3-13.6-5.8c-3.1-2-4.4-5.7-5.1-9.4
	s-1.8-7.6-2.6-11.3c-0.6-3.7-1.3-7.3-1.8-11.1c0-0.6,1.2-1.8,1.9-1.9c8.3-0.5,16.7-0.5,25-1.4c5-0.7,10-2.1,14.7-4.1
	c5-1.7,9.7-3.9,14.2-6.6c4.2-2.6,7.8-6.1,11.8-9.1c4.5-3.4,7.2-8.3,10.2-12.8c4.9-7.6,8.5-15.9,9.1-24.8c0.2-3.4,1.4-4.8,4.3-4.7
	c4.5,0,9.6-0.6,13.8,0.8C570.9,463,580.3,466.7,587.9,473.5L587.9,473.5z M603.6,420c-5,6.9-11.3,12.7-18.7,17
	c-5.4,3.3-11,5.8-17,6.8c-4,0.7-8,0.1-12,0.1c-1.4,0-2.8-0.1-4.2-0.2c0.9,0.9,1.5,2.1,2.6,3c1,0.8,2.1,1.3,3.4,1.4
	c2.9,0.2,3,2.7,2.8,4.1c-0.7,1.5-2.1,2.6-3.7,2.9c-4.9,0.4-9.9,0.4-14.8,0.2c-5.2-0.2-7.5-3.9-6.3-8.9c1.3-5.7,0.4-11.6-2.7-16.6
	c-1.6-2.8-3.7-5.4-5.5-8c-0.5-1.2-0.8-2.4-0.8-3.7c-0.7-6.6-0.8-13.3-2.1-19.6c-1.7-7.4-3.9-14.8-6.6-21.9
	c-4.5-12.5-10.8-23.8-20.4-33.1c-3.1-3.3-6.1-6.8-9.3-9.9c-2.5-2.7-5.4-5-8.4-7.1c-4-2.5-5.1-6.2-6.2-10
	c-3.1-10.4-7.6-20.3-13.4-29.5c-2.3-3.6-5.4-6.8-7.9-10.3c-0.6-0.8-0.6-2.1-0.8-3.3c1.9-3.5,4.3-6.2,5.6-9.3
	c3-7.6,1.7-15.3-0.6-22.9c-0.5-1.3-1.2-2.7-1.5-4.1c-0.1-1-0.1-2.1,0-3.1c0.9,0.4,2.2,0.5,2.8,1.1c1.9,2,3.7,4.2,5.2,6.5
	c5.5,8.4,11.1,16.7,15.9,25.3c4.2,7.9,7.8,16,11.1,24.3c2.3,5.8,3.5,12,5.7,17.8c1.2,2.7,3,5,5.4,6.8c5.5,3.8,11.6,6.9,16.9,10.8
	c9.8,7.5,17.3,17,23.9,27.2c1,1.9,0.7,4.8,0.3,7.1c-1,8.2-3.2,16.2-2.5,24.6c0.7,8.9,1.3,18,1.8,26.9c0.2,2.1-0.3,4.4-0.5,6.6
	c0.1,0.8,0.4,1.7,0.7,2.5c0.6-0.6,1.5-1.2,1.8-2c2-5.2,1.3-10.6,1-16.1c-0.3-6.3-0.8-12.7-0.2-19.1c0.5-6.4,1.5-12.7,3-18.9
	c2-8.6,4.1-17.1,6.6-25.5c2.9-8.9,6.3-17.6,9.8-26.2c1.5-3.6,4.2-6.9,6-10.5c2.8-5.9,7-11.1,11-16.2c6.6-8.3,14.7-14.5,25.7-15.1
	c1.2-0.1,2.5-0.1,3.6-0.1c7-0.5,14-0.7,21-0.5c6,0.2,11.8,1.5,17.6,2.5c4.2,0.7,8.6,0.9,12.5,2.7c4.9,2.1,9.4,4.9,13.4,8.4
	c10,9,19.8,18.4,29.4,28c7.8,7.8,14.8,16.3,19.8,26.1c3.5,7.2,7.2,14.7,7.1,23.2v10.1c-0.1,3.5-2,4.1-5,2.9
	c-6.6-2.9-11.4-8-16.9-12.5c-4.7-3.8-10.5-6-16.6-6.3c-7.4-0.5-14.9-0.5-22.3,0.1c-6,0.6-12,1.8-17.7,3.6c-3,0.9-4.4,0-5.4-2.3
	c-3-7.5-6.3-14.9-8.8-22.6c-2.8-8.6-4.4-17.6-7.1-26.4c-2-7-5-13.8-8.9-19.9c-3.2-5-7.5-7-11.8-7c-3.9,0.1-7.7,1.5-10.8,4.1
	c-5.6,4.5-9.2,10.4-12.7,16.4c-5,8.5-8.4,17.6-11.2,26.9c-2.6,8.4-4.3,17.1-6.4,25.7c-1.6,6.9-3.5,13.6-5,20.6
	c-1.3,6.1-2.1,12.1-3.2,18.2c0.1,0.5,0.3,1,0.5,1.5c0.5-0.4,1.2-0.6,1.4-1.2c1-3.3,2.2-6.5,3.2-10c1.5-6.2,3-12.5,4.5-18.9
	c1.6-7.6,3.1-15.3,4.9-22.7c0.9-4,1.9-7.9,3.2-11.7c3.3-8.4,6.4-16.9,10.2-25.2c3.6-7.3,7.9-14.7,15.3-19c4.7-2.8,10-3,13.8,2.2
	c5.8,8.2,8.6,17.4,11.2,26.8c2.8,9.7,5.2,19.2,8.4,28.7c1.6,5.1,4.3,9.8,6.7,14.6c1,2.1,1.3,3.6-1.3,4.8c-4.1,2-8.5,3.6-11.7,6.5
	c-5.9,5.5-11.8,11.2-14.9,18.9c-0.7,1.2-1,2.6-0.9,4c0.2,2.7-1.3,1.4-2.1,0.9c-5.1-2.7-6.9-7.7-8.6-12.6c-2-5.3-2.9-11-2.6-16.7
	c0.5-8,0.5-16.3,1.4-24.4c1-9.5,3.2-18.9,4.1-28.5c0.7-5.5,0.2-11.2,0.1-16.8c0-0.6-0.7-1.3-1-2c-0.5,0.7-1,1.4-1.4,2.1
	c-0.1,0.6-0.1,1.3,0,1.9c0.6,8-1.8,15.7-3.3,23.5c-1.3,6.8-2.7,13.5-4.3,20.3c-2,8.3-2.2,16.8-1.8,25.3c0.5,10.6,3.3,20.5,11.3,28.1
	c1.2,1.1,2.5,2,3.8,2.8c2.5,1.6,3.2,3.5,1.6,6.2C609.8,408.9,607.2,414.9,603.6,420z M707.4,368.7c-0.6,0.2-1.3,0.4-2,0.4
	c-7.3-0.2-14.8-0.9-22-0.6c-6.7,0.4-13.1,1.7-19.5,3c-6.3,1.3-12.6,3-18.7,5.1c-6,2.1-11.5,5.1-17.3,7.9c-0.5,0.3-1.1,0.6-1.6,0.8
	c-1,0-3,0.5-1.4-1.9c0.5-1.2,1-2.3,1.8-3.4c6.5-8.6,15.4-13.4,25.9-15.6c5-1,9.8-3.1,14.8-3.5c7.8-0.6,15.8-0.2,23.7-0.2h2.2
	c6.1,0,9.9,3.1,13.6,6.6C707.1,367.8,707.1,368.3,707.4,368.7L707.4,368.7z M640.4,467.9c-5.6-7.4-11.2-14.8-16.7-22.3
	c-1.2-1.8-2.4-3.5-3.5-5.5c-0.9-1.5-0.9-2.7,1.4-3.1c3.7-0.7,7.5-1.6,11.1-2.6c2.6-0.4,4.8-0.8,7-1.3c0.3,0,0.6-0.1,0.9-0.2
	c2.1-0.1,4.2-0.7,6.4-0.9c3.6-0.6,7.3-1,11-1.2c2.8-0.1,5.2-1,8.2-0.6c2.7,0.4,6.5,0.2,9.2-1c3.7-1.6,7.3-1,11-0.9s7.6,0.1,11.3,1.8
	c1.3,0.5,2.9-0.2,4.3,0c4.3,0.8,8.9,1.4,13.2,2.8c3.3,1.2,7,2.7,9,5.1c2.3,3,2.5,7.2,0.3,10.4c-2.8,4.1-6.8,6.4-11.3,7.9
	c-2.3,0.8-4.3,2.1-6.7,2.7c-3.1,0.9-6.4,1.3-9.6,2.1c-3.6,0.8-7.3,2.1-11.1,2.8c-3.3,0.6-6.8,0.6-10.2,1c-2.1,0.4-4,1.3-6.1,1.5
	c-8.5,1.2-17,2.2-25.5,3.1C642.8,469.6,641.4,469,640.4,467.9L640.4,467.9z M757.2,455.7c-1,2.2-3.3,3.8-4.8,5.9
	c-2.8,3.6-7.2,4.8-10.8,7c-1.5,0.9-3.4,1-5.1,1.5c0.2,0.3,0.4,0.5,0.7,0.7c-0.2,0-0.5,0-0.7-0.1c-0.9-0.2-1.8-0.1-2.6,0.2
	c-0.3,0.1-0.3,1-0.7,1.2c-1,0.3-2.1,0.6-3.2,0.8c-2.1,0.5-4.3,0.8-6.5,1.3c-0.7,0.1-1.4,0.2-2.1,0.2c0.1,0.3,0.3,0.6,0.6,0.7h-0.6
	c-1.4,0.2-2.8,0.5-4.2,0.9c-0.3,0.1-0.6,0.2-0.9,0.4c-1.4,0-2.8,0.1-4.2,0.4c-2.6,0.5-5.1,0.9-7.7,1.2c-7.1,0.7-14.3,1.4-21.6,1.6
	c-10,0.4-19.9,0.2-30,0.2c-1.3,0-2.7-1.2-3.8-2c-0.8-0.7-1.5-1.5-2.2-2.2c-1-1.2-2-2.4-2.9-3.6c1.5-0.2,3-0.8,4.5-0.9
	c7.7-0.8,15.3-1.5,23-2.6c9.3-1.3,18.7-2.2,27.9-4.2c7-1.5,13.6-4.2,20.2-7c2.8-1,5.2-3.4,7.6-5.5c3.4-3.3,3.4-11.2,0.2-14.8
	c-2.8-3.4-6.6-4.7-10.5-6.4c-6-2.7-12.2-3.6-18.4-4.1c-9.6-0.6-19.3-0.6-28.9-0.1c-6.4,0.2-12.7,1-19,1.9c-3.3,0.4-6.4,1.4-9.7,2.1
	c-5.5,1-11.1,2-16.6,3c-1.4,0.2-2.8,0.8-4.2,1s-2.6-0.7-3.3-2.2c-1-1.9-2.7-3.6-3.6-5.5c-1.8-4.1-0.7-6.4,3-7.1
	c0.9-0.1,1.9-0.6,2.7-0.7c8.6-2.3,17.1-4.7,25.8-6.6c7.6-1.8,15.2-3.5,22.9-4.1c10-0.8,20-0.7,30.1-0.8c1.6,0,3.3,0.2,4.9,0.2
	c5.2,1.3,10.5,1.6,15.4,3c4.2,1.3,8,4,12.2,5.6c8,3,14.1,8.9,19.7,14.9c2.7,2.8,4.7,6.3,6.9,9.4c0.5,0.7,0.2,1.8,0.3,2.7
	c0.5-0.2,0.6-0.4,0.7-0.6c0,0.2-0.1,0.4-0.1,0.6C758.7,447.5,758.9,451.7,757.2,455.7L757.2,455.7z M759.2,438.2
	c-0.5,0.1-1.6-0.8-1.9-1.4c-2.5-7.7-7.9-12.8-14-17.5c-2.2-1.6-4.4-3.3-6.5-5c-0.3,0.1-0.6,0.2-0.9,0.4c-8-4.3-16.5-7.4-25.4-9.1
	c-11.8-2.3-23.8-2.6-35.7-1c-6,0.8-11.9,0.8-17.7,1.6c-6.1,1-12.2,2.3-18.3,3.9c-6.8,1.8-13.5,3.6-20.3,5.7
	c-2.4,0.8-4.7,1.8-6.9,2.9c-0.3,0.1-0.8,0.4-1.2,0.5c-0.1-0.6-0.5-1.2-0.3-1.5c2-3.9,4-7.7,5.8-11.5c1.7-3.5,3.3-7.1,4.9-10.6
	c0.5-0.8,1.2-1.4,1.6-2.2c-0.2-0.5-0.3-0.6-0.6-0.6h0.6c1.3-0.8,2.4-1.8,3.5-2.9c6-2.7,11.7-5.5,17.3-8c2.4-1.1,4.9-2,7.5-2.8
	c1.5-0.4,2.9-0.7,4.4-0.9c3.5-0.2,6.5-2.5,10.1-1.8c-0.1-0.5-0.3-0.6-0.5-0.6h0.5c2.7-0.1,5.2-0.6,7.9-0.9c0.6-0.2,1.3-0.4,1.9-0.7
	c0.6,0,0.8-0.1,0.9-0.2c1,0.1,2-0.4,2.9-0.4h18.9c1.5,0.1,2.9,0.3,4.3,0.7c4.3,0.9,8.5,2.3,12.7,3c2.8,0.5,5.6,1.4,8.2,2.6
	c2.5,1.2,4.4,2.8,7,3.6c3.4,1.3,5,4.4,7.7,6.3s4.3,4.9,6.5,7.5c1.9,2.5,4,4.8,5.8,7.2c0.7,0.9,1.2,1.8,1.6,2.8
	c0,0.3,0.1,0.7,0.3,0.9c1.2,3.3,2.7,6.5,4.1,9.8c1.4,3.3,2.6,6.6,3.6,10c0.7,2.8,1.2,5.7,1.4,8.6C761,437,759.8,437.9,759.2,438.2
	L759.2,438.2z M628.7,556.1c0.5-0.8,1-1.7,1.3-2.7c-0.8-0.1-1.6-0.6-2.2-0.3c-1.8,0.9-3.3,2-4.9,3c-0.1,0,0,0.6,0.1,0.7
	C624.9,557.9,626.7,557.6,628.7,556.1z M486.7,599.4c-0.7,1.6-1.2,3.5-1.8,5.2c-1.2,2.6-2.4,5-3.5,7.6c-0.1,0.8-0.1,1.7,0.1,2.5
	c0.6-0.3,1-0.8,1.4-1.3c2.9-4.4,5.2-8.7,5.7-13.9c0-0.6-0.2-1.2-0.2-1.8C487.9,598.4,487.1,598.7,486.7,599.4z M478.5,132.6
	c0.6-0.7,1-1.4,1.4-2.2c0.4-1.8,0.6-3.6,0.7-5.4v-5.1c-0.1-0.3-0.6-0.7-0.9-1.2c-0.4,0.3-0.9,0.6-1,1c-0.6,3.6-1.3,7.2-1.8,10.8
	C476.8,131.1,477.9,132,478.5,132.6z M420,143.6c-0.9,1.1-1,2.7-1.5,4.1c1.3-0.6,2.6-1.3,3.9-2.1c2.4-0.6,4.9-0.9,7.5-0.9
	c2.6,0,5,0.8,7.6,1.2c0.9,0,1.9-0.1,2.8-0.3c-0.4-0.7-0.9-1.4-1.4-2C434.3,138.9,424.5,138.9,420,143.6z M405.1,577
	c-0.2,0.2-0.4,0.4-0.7,0.6c1.4,0.3,2.8,1,4.1,0.8c0.9,0,1.6-1.3,2.5-2.1c-1.3-0.1-2.7-0.5-4-0.5C406.4,575.9,405.8,576.6,405.1,577z
	 M404.8,356.9c1.2-1.1,2.3-2.4,3.3-3.7c-0.9-0.2-1.8-0.2-2.7-0.1c-0.8,0.6-1.6,0.8-2,1.5c-0.4,0.7-0.7,1.5-0.7,2.3
	C403.4,356.9,404.4,357.2,404.8,356.9z M391.7,437.4c-4.4-8.8-7.6-18.2-9.6-27.9c-1.6-8.2-1.9-16.2,0.7-24.2
	c0.2-0.8,0.3-1.6,0.4-2.5c-0.9,0.4-1.8,0.9-2.6,1.4c-0.5,0.4-0.8,0.8-0.9,1.4c-0.7,3.6-1.7,7.1-1.7,10.6c-0.1,4.6,0.3,9.2,1.2,13.6
	c1.4,6.9,3.3,13.7,5.7,20.3c2.6,6.8,6.1,13.3,9.4,19.8c1.3,2.5,2.6,4.8,3.9,7.1c1.2,2.1,2.5,4.2,3.6,6.4c0.5,2.2,0.7,4.2,1.3,6.1
	c0.4,0.8,1,1.5,1.6,2.1c0.5-0.7,1.5-1.5,1.4-2.1c-0.6-3.4-1.5-6.6-2.8-9.8C399.6,452.2,395.3,444.8,391.7,437.4z M384.8,581.6
	c-0.5,0.1-1.3,0.8-1.3,1.2c0.2,0.7,0.8,1.6,1.3,1.6c2.8-0.2,5.6-0.7,8.7-1.2c0.5,0,1-0.2,1.4-0.5c0.6-0.6,1.2-1.3,1.8-2
	c-0.7-0.3-1.5-1.3-2.1-1.2C391.3,580.1,388.1,580.8,384.8,581.6z M394.2,364.8c0.5-0.5,0.5-1.6,0.7-2.6c-0.8,0-2-0.2-2.6,0.1
	c-1.6,1.2-3.2,2.6-4.7,4c-0.5,0.6-0.6,1.4-1,2.1c0.8,0.2,1.6,0.3,2.5,0.4C390.8,367.4,392.6,366.2,394.2,364.8z M319.3,99.8
	c1.2,3,3.5,5.8,5.6,8.4c4.4,5.6,9.8,10,16.7,12.5c5.2,2,10.3,3.8,16,3.7c7.9-0.1,15.8,0.5,22.7-4.4c4.2-2.9,8-10.3,6.9-14.2
	c-2-7.6-6.5-13.3-12.7-18c-6-4.6-13-7.8-20.4-9.3c-4.8-1-9.6-1.8-14.6-2.4c-4.7,0.8-8.6,2.8-12.7,4.8
	C319.8,84.2,316.6,92.5,319.3,99.8z M353.4,108c-1.5,0.2-2.9-0.1-4.2-0.8c-1.2-0.7-1.5-2.4-2.2-3.7c1.5-0.9,3-1.6,4.5-2.2
	c0.8-0.2,2,0.5,3,0.8c0.8,1.5,1.8,2.8,1.6,3.8C356,106.7,354.4,107.7,353.4,108z M353,81.5c10.4,2,18.5,7.7,25.4,15.5
	c3.6,4.2,6.5,8.9,4.4,14.9c-1.4,4-6.9,7.8-11,8c-2.2,0.2-2-1.4-1.6-2.3c3-7.1-1-11.8-5.6-16.1c-4.2-4.1-14.1-4.9-18.8-1.7
	s-7,8.9-4.1,14.1c0.5,1.1,0.8,2.3,1.2,3.5c-1.2-0.3-2.4-0.8-3.6-1.3c-1.9-1-3.5-2.4-5.4-3.7c-1.9-1.8-3.9-2.9-5-4.6
	c-1-1.4-2-3.6-1.5-5c2.3-6.2,4.7-12.4,9.8-17.1C341.9,81.1,346.9,80.3,353,81.5z M328.6,82.4c2.4-0.8,4.9-1.5,7.5-2.1
	c0.4-0.1,0.9,0.2,1.4,0.2c-0.5,0.3-0.7,0.8-1.2,1.2c-5.2,3.3-7.8,8.5-9.7,14.1c-0.6,1.6-0.7,3.5-1.2,5.1c-0.2,0.6-0.8,0.9-1.2,1.4
	c-0.2-0.5-0.7-0.8-0.9-1.3c-2.6-5.2-2.3-10.4,0.9-15.2C325.2,84.5,327.2,83.6,328.6,82.4z M310.4,97.9c0.6-0.8,0.9-1.8,1-2.8
	c0-2.6-0.2-5.1-0.4-7.8c0.9-4.5,3.6-7.1,8-7.7c0.9-0.1,1.8-0.4,2.6-0.9c1.5-0.9,1-2-0.2-2.6c-3.1-1.7-11,0.7-12.4,4
	c-0.9,2.5-1.5,5.1-1.9,7.7c-0.4,2.9-1,5.8,1,8.4C308.9,96.8,309.7,97.4,310.4,97.9z"/>
<path class="st3" d="M691,360.8c-7.8,0-15.9-0.4-23.7,0.2c-5,0.4-9.8,2.5-14.8,3.5c-10.5,2.2-19.4,7-25.9,15.6
	c-0.7,1.1-1.3,2.2-1.8,3.4c-1.6,2.3,0.3,1.9,1.4,1.9c0.6-0.2,1.1-0.5,1.6-0.8c5.7-2.8,11.3-5.8,17.3-7.9c6.1-2.1,12.3-3.8,18.7-5.1
	c6.4-1.3,12.8-2.7,19.5-3c7.2-0.4,14.7,0.4,22,0.6c0.7,0,1.4-0.1,2-0.4c-0.2-0.4-0.2-0.9-0.5-1.3c-3.7-3.5-7.6-6.6-13.6-6.6
	L691,360.8z M677,701.7c-7.1,5.5-15.1,9.7-23.5,12.6c-9,3.4-18.5,4.1-28.1,4.4c-2.3,0.1-4.8-0.6-7.2-0.6c-8.1,0-16.1-1.2-23.8-3.6
	c-4-1.4-6-0.1-7.3,4.1c-2,6.3-1.8,7.5,2,9.6c0.8,0.5,1.6,1,2.8,1.9c0.5,0.1,1,0.1,1.5,0.2c7.1,3.4,14.7,4.4,22.5,4.2
	c7.2-0.1,14.3-0.9,21.6-1.2c6.9-0.1,13.8-0.9,20.5-2.5c9.1-2.1,17.8-4.9,25.3-10.5c2.9-2.3,5.1-5.4,6.4-8.9
	c1.9-5.1-2.5-7.8-6.1-10.4C681.1,699.4,679,700,677,701.7z M611.2,397.2c-1.4-0.8-2.7-1.7-3.8-2.8c-8-7.6-10.8-17.5-11.3-28.1
	c-0.5-8.5-0.2-17,1.8-25.3c1.6-6.8,3-13.5,4.3-20.3c1.5-7.8,3.8-15.5,3.3-23.5c-0.1-0.6-0.1-1.3,0-1.9c0.4-0.7,0.9-1.4,1.4-2.1
	c0.3,0.7,1,1.4,1,2c0.1,5.6,0.6,11.3-0.1,16.8c-0.9,9.6-3,19-4.1,28.5c-0.9,8-0.9,16.3-1.4,24.4c-0.3,5.7,0.6,11.4,2.6,16.7
	c1.8,4.9,3.5,9.9,8.6,12.6c0.8,0.5,2.3,1.8,2.1-0.9c0-1.4,0.3-2.8,0.9-4c3.2-7.7,9-13.4,14.9-18.9c3.2-2.9,7.6-4.5,11.7-6.5
	c2.6-1.2,2.3-2.7,1.3-4.8c-2.3-4.8-5-9.4-6.7-14.6c-3.2-9.4-5.6-19-8.4-28.7c-2.6-9.5-5.4-18.7-11.2-26.8c-3.7-5.2-9.1-5-13.8-2.2
	c-7.3,4.3-11.7,11.7-15.3,19c-3.7,8.3-6.9,16.8-10.2,25.2c-1.3,3.7-2.2,7.7-3.2,11.7c-1.8,7.5-3.3,15.2-4.9,22.7
	c-1.5,6.4-3,12.7-4.5,18.9c-0.9,3.5-2.1,6.8-3.2,10c-0.2,0.6-0.9,0.8-1.4,1.2c-0.2-0.5-0.4-1-0.5-1.5c1-6.1,1.9-12.1,3.2-18.2
	c1.5-7,3.4-13.8,5-20.6c2.1-8.5,3.8-17.3,6.4-25.7c2.8-9.3,6.2-18.4,11.2-26.9c3.5-6.1,7.1-11.9,12.7-16.4c3-2.5,6.8-4,10.7-4.1
	c4.3,0,8.6,2,11.8,7c3.9,6.2,6.9,12.9,8.9,19.9c2.7,8.7,4.3,17.7,7.1,26.4c2.5,7.7,5.7,15.2,8.8,22.6c0.9,2.3,2.3,3.3,5.4,2.3
	c5.8-1.8,11.7-3,17.7-3.6c7.4-0.6,14.9-0.7,22.3-0.1c6,0.3,11.8,2.5,16.6,6.3c5.5,4.4,10.3,9.6,16.9,12.5c3,1.2,4.9,0.6,5-2.9v-10.1
	c0.1-8.5-3.6-16-7.1-23.2c-5-9.8-12-18.3-19.8-26.1c-9.6-9.6-19.3-19-29.4-28c-4-3.5-8.5-6.3-13.4-8.4c-3.8-1.8-8.3-2-12.5-2.7
	c-5.8-0.9-11.7-2.2-17.6-2.5c-7-0.2-14,0-21,0.5c-1.2,0-2.5,0-3.6,0.1c-11,0.7-19,6.9-25.7,15.1c-4,5.1-8.2,10.3-11,16.2
	c-1.8,3.6-4.4,6.9-6,10.5c-3.5,8.6-6.9,17.4-9.8,26.2c-2.6,8.4-4.7,16.9-6.6,25.5c-1.5,6.2-2.5,12.5-3,18.9
	c-0.6,6.4-0.1,12.8,0.2,19.1c0.2,5.5,0.9,10.9-1,16.1c-0.2,0.8-1.2,1.4-1.8,2c-0.3-0.8-0.6-1.6-0.7-2.5c0.1-2.2,0.7-4.5,0.5-6.6
	c-0.5-9-1-18.1-1.8-26.9c-0.7-8.4,1.4-16.4,2.5-24.6c0.3-2.3,0.7-5.2-0.3-7.1c-6.7-10.1-14.1-19.7-23.9-27.2
	c-5.4-4-11.4-7-16.9-10.8c-2.3-1.8-4.2-4.1-5.4-6.8c-2.2-5.8-3.4-12-5.7-17.8c-3.2-8.3-6.9-16.5-11.1-24.4
	c-4.8-8.6-10.4-16.9-15.9-25.3c-1.5-2.3-3.3-4.5-5.2-6.5c-0.6-0.6-1.9-0.7-2.8-1.1c-0.1,1-0.1,2.1,0,3.1c0.4,1.4,1,2.8,1.5,4.1
	c2.3,7.6,3.6,15.3,0.6,22.8c-1.3,3.1-3.7,5.8-5.6,9.3c0.2,1.2,0.2,2.5,0.8,3.3c2.6,3.5,5.6,6.6,7.9,10.3
	c5.8,9.2,10.3,19.1,13.4,29.5c1,3.9,2.2,7.6,6.2,10c3,2.1,5.9,4.5,8.4,7.1c3.3,3.1,6.2,6.6,9.3,9.9c9.6,9.3,15.9,20.6,20.4,33.1
	c2.7,7.2,4.8,14.5,6.5,21.9c1.3,6.3,1.4,12.9,2.1,19.6c0,1.3,0.3,2.6,0.8,3.7c1.8,2.7,3.8,5.2,5.5,8c3.1,4.9,4,10.9,2.7,16.6
	c-1.2,5,1,8.6,6.3,8.9c4.9,0.2,9.9,0.1,14.8-0.2c1.7-0.3,3.1-1.4,3.7-2.9c0.2-1.4,0.1-3.9-2.8-4.1c-1.2-0.1-2.4-0.6-3.4-1.4
	c-1-0.9-1.6-2.1-2.6-3c1.4,0.1,2.8,0.2,4.2,0.2c4,0,8,0.6,12-0.1c6.1-0.9,11.7-3.5,17-6.8c7.3-4.3,13.7-10.1,18.7-17
	c3.6-5.1,6.2-11.1,9.2-16.6C614.3,400.8,613.6,398.9,611.2,397.2z M510,608.5c-3.9,5.3-7.4,10.9-10.5,16.7c-2,4-2.9,8.4-4.4,12.7
	c-0.4,0.7-1,1.4-1.6,2c-0.5-0.8-1.4-1.6-1.4-2.4c0-1.5,0.2-3,0.5-4.4c1-6.7,3.5-13.2,7.3-18.8c3.4-5,7.1-9.7,11-14.3
	c4.9-5.6,9.7-11.3,15.5-16c4.1-3.3,7-6.9,8.4-11.9c1-3.8-0.7-6.5-3.8-6c-2.2,0.5-4.5,0.7-6.7,1.3c-7.6,2.2-15.2,2.6-23,2.5
	c-2,0-2.7,0.8-3.3,2.9c-1.3,5.1-2.9,10.3-4.5,15.4c-0.9,2.6-2.2,5.1-3.4,7.7c-0.1,0.5-0.7,0.8-1,1.2c-0.1-0.5-0.5-0.9-0.4-1.4
	c0.7-2.7,1.4-5.4,2.1-7.9c0.5-1.6,0.7-3.3,1.2-4.9c0.8-3.5,1.6-6.9,2.5-10.3c0.4-2.2-0.8-2.7-2.8-2.7c-8.2-0.1-16.3-2.5-23.2-7
	c-4.7-2.8-9.2-6.2-11.1-11.5c-2-5.8-3.1-11.9-4.5-18c-0.9-4-1.3-8-2.2-11.9s-2.5-7.5-3.4-11.3c-0.8-3.3-1.4-6.3-5.2-7.5
	c-7.8-2.6-13.3-7.8-17.8-14.6c-3-4.5-5.1-10.3-12.1-10.3c-0.7,0-1.4-1.4-2.1-2.1c0.9-0.2,1.8-0.9,2.7-0.9c3.3-0.2,3.6-0.8,2.6-4
	c-1.5-4.4-3.1-8.6-4.5-12.9c-3.9-12.1-7.5-24.3-11.4-36.4c-2.3-7-5.5-13.7-9.6-19.8c-0.5-0.8-0.7-1.7-0.7-2.7
	c0.7,0.5,1.8,0.6,2.3,1.3c3.9,3.8,6.3,8.6,8.3,13.9c4.7,12.6,9.5,25.2,14.2,37.9c4,10.6,7,21.6,12.7,31.6
	c4.5,7.8,10.1,13.9,18.9,16.6c2.9,0.9,6.3,0.9,9.6,1c4.2,0.1,1.8-2,0.7-3.1c-2.5-3.3-5.4-6.3-7.8-9.8c-5.2-7.3-9.1-15.3-12.7-23.7
	c-3.4-8.3-7-16.4-10.6-24.6c-5.7-12.4-9.7-25.5-17.7-36.7c-4.7-6.6-9.4-13.1-15.7-18.1c-0.9-0.7-1.6-1.5-2.3-2.3
	c1.2,0.1,2.5,0.1,3.7,0.2c0.5,0.1,0.9,0.4,1.3,0.7c4.2,4.1,8.8,7.9,12.4,12.5c9.2,11.4,14.1,25.2,20.2,38.2
	c6.1,13.3,11.7,26.9,17.9,40.2c4.1,9,10,17.2,17.4,23.9c1.7,1.4,3.8,2.3,6,2.3c4-0.3,7.9-0.9,11.8-1.8c7.1-1.3,13.9-3.9,20.1-7.8
	c7.4-4.7,13.9-10.8,19-18c5-7.1,9.4-14.3,12.5-22.3c2.6-6.9,3-14.2-1.6-20.8c-2-2.6-4.2-5-6.3-7.5c-3.4-4-6.8-8-10.4-11.8
	c-2.7-2.9-5.8-5.2-8.4-8c-4.4-5-8.4-10.3-12.8-15.2c-8.5-9.4-16.8-19.1-26.1-27.8c-8-7.6-17.4-14-28.7-16.6c-5.5-1-10.5-1.3-14.8,3
	c-1.4,1.4-3.1,2.1-5,0.1c-0.9-0.8-2.2-1.2-3.4-1c-2.4,0.5-4.8,1.3-7.1,1.9c-8.5,3.1-16.7,7.2-24.1,12.4c-3.8,2.6-7.3,5.7-10.3,9.2
	c-4.2,5.4-5.4,12.1-5.7,18.7c-0.1,5.4,0.3,10.8,1.2,16.2c1.3,9,4,17.7,8,25.9c4.7,9.8,8.9,19.8,17,27.4c0.7,0.6,1.1,1.3,1.4,2.1
	c0.5,0.7,0.7,1.6,1.2,2.3c-1.8-0.9-3.7-1.6-5.2-2.9c-8.2-6.8-12.9-16.2-17.8-25.3c-5.2-9.8-9.1-20-10.4-31.4
	c-1.1-9.1-0.5-18.3,1.9-27.2c1.9-6.9,6.5-12.4,12.2-16.6c9.7-7.4,20.7-12.9,32.4-16.5c5.7-1.8,11.5-3,17.4-3.9
	c4.3-0.5,9-0.7,13.2,0.4c12.6,3,23,10.3,32.1,19.2c4.3,4.4,8.4,9.1,12.5,13.8c4.3,5.2,8.6,10.7,12.8,16.1c3.6,4.4,6.8,9.3,10.6,13.5
	c4.4,4.8,9.3,9,14,13.4c1,1.2,2.1,2.2,3,3.4c0.1-1.9,0.1-3.7,0.1-5.6c0-0.5-0.6-1-0.6-1.6c-0.5-9.2-2.9-18-5.7-26.6
	c-3-9.3-7.2-18.2-12.6-26.4c-3.9-5.5-8-10.9-12.4-15.9c-3.7-4-7.6-7.7-11.8-11.2c-4.4-3.9-7.9-7.9-10-13.5
	c-3.5-8.4-7.5-16.7-11.9-24.7c-2.7-4.6-5.6-9.1-8.9-13.3c-1.4-2-2.9-3-6-1.3c-7.9,4.9-16.3,8.8-26,8.2c-2.9-0.1-6,0.7-8.8,0.2
	c-6.6-1-13.2-2.9-18.7-7.4c-4.9-4.1-9.1-8.5-11.7-14.3c-3.7-7.9-5.2-16.6-4.5-25.2c0.1-1.7-0.3-3.4-1.3-4.8
	c-4.5-6.2-10.6-10.5-18-11.7c-8.5-1.3-17.1-2-25.8-2c-7.6-0.1-14.4-2.6-21-5.5c-7.9-3.6-14.9-9-20.3-15.7c-2.2-2.7-4.3-5.5-6.3-8.4
	c-0.3-0.8-0.5-1.6-0.5-2.4c0.7,0.2,1.8,0.2,2.3,0.8c1.2,1.1,2,2.6,3.1,3.7c3.6,3.4,6.9,7.2,10.7,10.3c6.5,5.3,14.2,9.1,22.4,10.9
	c0.3,0.3,0.7,0.5,1.2,0.6c9.2,0.5,18.5,0.7,27.8,1.4c4,0.2,7.8,1.6,11.7,2.4c4.7,0.9,8.4,3.8,11.9,7c0.9,0.4,1.9,0.6,2.9,0.5
	c0.2-0.6,0.3-1.2,0.4-1.9c0.1-2.3-0.1-4.5,0.1-6.8c0.2-5.7-3-9.9-5.8-14.3c-3.5-5.7-5-11.4-1.3-18c2.3-4.2,6.3-5.6,9.9-7.5
	c1.8-0.7,3.1-2.2,3.5-4c3.1-10.3,8.9-19.6,16.8-26.9c3-2.8,5.2-6.3,6.6-10.2c1.9-4.8,4.9-8.9,10.4-9.9c4.2-0.7,8.5-0.8,12.7-1.4
	c1.6-0.4,3.1-0.9,4.5-1.6c-0.8-1.4-1.3-3.4-2.6-4.2c-8.7-6.2-17.7-12.1-26.6-18c-4.8-3.3-9.9-6.2-14.8-9.1
	c-7.6-4.6-15.3-9-22.9-13.4c-3.7-2.1-7.8-3.6-11.4-5.8c-8.4-4.9-17.8-7.7-27.5-8.2c-5.4-0.5-10.8-0.3-16.2,0.3
	c-7.9,1-9.8,2.1-12.2,9.6c-2,5.7-4.9,10.5-11.5,12.1c-3.7,0.9-7.4,3-10.8,5c-3.1,1.8-4,1.8-4.7-1.8c-1.3-5.9-3.9-11.5-2.8-17.9
	c1-5.6,0.5-11.5,1.6-17.1c1.7-7.9,4.3-15.8,6.8-23.6c2-6.3,3.9-12.7,6.4-18.8c1.4-3,3-7,7.8-6.8c0.5,0.1,1.2-0.8,1.4-1.5
	c0-0.2-0.7-0.9-1.2-1.2c-2.6-1.2-5.6,0.1-7.5,3.5c-4.5,8.3-9.1,16.7-13.3,25.1c-4.1,8-8.6,16.1-9.7,25.3c-0.6,5.4-1,11.1,0.1,16.3
	c1.5,6.8,4.5,13.2,7.1,19.7c1.2,3.1,0.7,5-1.8,7c-1,0.7-1.7,1.7-2.1,2.8c-1.6,4.2-3,8.5-4.1,12.8c-1.2,4.9-1.9,9.8-2.1,14.8
	c0,5.7,0.4,11.5,1.2,17.1c0.8,6.9,1.9,13.8,3.4,20.6c1.3,5.7,3.1,11.3,5.5,16.7c1.3,3.1,2.6,6.4,4,9.6c2,5.1,4.3,10.3,6.8,15.3
	c2.7,5.5,6.4,10.4,9.7,15.5c6,9.2,12,18.3,18.1,27.5c3.7,5.7,7.8,11.2,11.3,17.1c5.8,10,11.8,20,16.8,30.4c3.6,7.9,6.6,16,8.9,24.4
	c2.6,8.4,4.1,17.1,4.5,25.9l0.1,2.5c0.5-0.5,1.1-1,1.8-1.4c0.9-0.4,1.8-0.7,2.8-0.9c-0.2,1-0.6,1.9-0.9,2.8c-1.2,2-3,3.6-3.6,5.7
	c-2.3,7.2-4.8,14.6-6.2,22c-1.6,9-1.8,18,0.8,26.9c2.9,10,8,19,12.8,28.1c5.1,9.9,10.6,19.7,16,29.6c2.7,4.9,5.1,9.9,7.2,15
	c2.7,7.4,5,15,6.9,22.7c1,4.4,0.9,9.1,1.3,13.8c0.2,2.1-0.1,4.8,0.9,6.3c2.6,3.7,3.3,7.9,3.5,12.1c0.5,8.5-0.6,17-3,25.2
	c-1.3,4.5-0.1,5.9,4.5,5.9c5,0,9.9,0.1,14.9,0c7.5-0.2,14.8,1.3,22,3.2c6.4,1.6,12.2,5.1,16.6,10c6.3,6.9,9.9,15.5,12.9,24.1
	c4.1,11.4,6.7,23.3,7.7,35.3c0.6,8.4,0.5,16.8,0.7,25.3c0.1,5.5,0.4,11.1,0.7,16.7c0,1.7,0.4,3.3,2.7,2c2-0.9,3.9-1.9,5.7-3.1
	c5.8-4.4,12.7-8.2,17-13.8c3.4-4.3,6-5.2,11-4.7c6.6,0.7,13.2-1,19.7-2.3c12.5-2.4,23.3-8.9,34.5-14.2c5.7-2.8,10.6-7.2,16.2-10.2
	c3.6-1.8,4.2-4.3,4.1-7.5c-0.1-3.4-1.2-6.7-1-9.9c0.2-9.5-1.9-19,1.8-28.2c2-4.9,4.4-9.7,6.7-14.6c0.3-0.6,1.3-0.7,2-1.2
	c0,0.7,0.3,1.5,0.1,2.2c-1,3.4-2.2,6.9-3.4,10.3c-3.3,9.6-2.1,19.5-2.2,29.4c-0.1,6.9,0.2,13.9-0.1,20.9c-0.5,8.6-1.5,17.1-2.5,25.8
	c-0.6,5.1-0.7,10.5-2,15.5c-1.8,6.1-1.5,12.7,0.7,18.7c1.6,4.8,5.4,8.5,10.2,10.1c5.4,1.9,11,3.2,16.4,4.5c1.4,0.2,2.5,0,1.5-2
	c-1-1.7-1.7-3.6-2.2-5.5c-1.2-4.8-2.2-9.7-3.2-14.7s-2.2-10.4-2.5-15.6c-0.2-10.2-0.2-20.2,1.2-30.2c0.9-7.6,1.2-15.2,2-22.9
	c0.5-6.1,0.9-12.1,1.9-18c1.5-9.8,2.1-19.6,1.8-29.5c-0.1-2.4-0.7-4.7-1.9-6.8c-0.9-1.8-2.7-4-4.3-4.1c-3.7-0.6-7.6-0.7-11.3,1.2
	c-8,4.2-15.6,9-22,15.3c-7.1,6.8-14.9,13-21,20.5c-8.8,11.1-16.3,23.2-24.5,34.9c-4.6,6.7-10.6,12.2-17.6,16.3
	c-0.9,0.6-2.4,0.2-3.6,0.3c0.6-1,1-2.3,2-2.9c8.3-4.7,14.1-11.8,19.4-19.5s10.6-15.3,15.5-23.2s11.3-14.6,17.7-21.2
	c7-7.4,15.1-13.7,24-18.8c0.1,0,0.1-0.1,0.2-0.1c6-3.5,11.9-6.8,19.1-6.3c2.9,0.3,6.1,0.8,7.6,3.6c2.3,4.1,3.7,8.8,3.8,13.5
	c0.7,11.7-1,23.2-1.9,34.9c-0.2,2.5-0.5,4.8-0.7,7.3c-0.8,7.1-2,14.3-2.3,21.6c-0.5,8.4,0,16.9-0.1,25.3c-0.3,14,0.8,27.8,5.1,41
	c0.7,2.2,2.2,4.8,4,5.7c2.8,1.2,5.8,1.6,8.9,1.4c4.5,0,9-0.8,13.4-1c9.2-0.7,17.6-4.3,25.8-8c7.5-3.3,14.2-8.3,19.3-14.7
	c4.7-5.6,7.7-11.8,7.9-19.1c0.3-10.7-1.6-21.3-4.4-31.7c-3.3-12.1-6.7-24.2-10-36.5c-1.8-6.4-3.8-12.9-5-19.6
	c-1.9-10.7-6.5-19.6-14.8-26.6c-2.9-2.3-6.1-4.9-10.4-4.5c-1.5,0.1-3.2,0.3-4.8,0.6c-2.8,0.3-2.2-2-1.5-2.7c3-2.5,0-2.7-1.2-3
	c-5.1-1.4-10.5-2.1-15.5-3.8c-8.8-2.8-17-0.7-25.1,2c-8.3,2.6-15.9,7-23.2,11.7c-2.4,1.6-4.9,3.3-7.3,4.9
	c-8.2,5.5-15.7,11.7-23.8,17.3C530,587.1,518.9,596.8,510,608.5z M403.4,354.5c0.4-0.7,1.2-0.9,2-1.5c0.9-0.1,1.8,0,2.7,0.1
	c-1,1.3-2.1,2.6-3.3,3.7c-0.4,0.4-1.4,0-2.1,0C402.8,356.1,403,355.3,403.4,354.5L403.4,354.5z M339.5,76c5,0.7,9.8,1.4,14.6,2.4
	c7.4,1.5,14.4,4.7,20.4,9.3c6.2,4.7,10.7,10.4,12.7,18c1.2,4-2.7,11.3-6.9,14.2c-7,4.9-14.8,4.3-22.7,4.4c-5.7,0.1-10.7-1.8-16-3.7
	c-6.9-2.4-12.2-6.9-16.7-12.5c-2.1-2.6-4.4-5.4-5.6-8.4c-2.7-7.3,0.5-15.5,7.5-19C330.8,78.8,334.8,76.8,339.5,76z M307.3,87.8
	c0.3-2.6,1-5.2,1.9-7.7c1.4-3.3,9.2-5.7,12.4-4c1.3,0.6,1.8,1.6,0.2,2.6c-0.8,0.5-1.7,0.8-2.6,0.9c-4.4,0.6-7.1,3.2-8,7.7
	c0.1,2.7,0.4,5.2,0.4,7.8c-0.1,1-0.5,2-1,2.8c-0.7-0.5-1.4-1.1-2.1-1.8C306.2,93.6,306.9,90.7,307.3,87.8z M387.6,366.4
	c1.5-1.4,3-2.8,4.7-4c0.6-0.4,1.8-0.1,2.6-0.1c-0.2,0.9-0.2,2.1-0.7,2.6c-1.5,1.4-3.4,2.6-5.1,4c-0.8-0.1-1.6-0.2-2.5-0.4
	C387,367.8,387.2,366.9,387.6,366.4z M404.6,471.6c-0.6-0.6-1.2-1.3-1.6-2.1c-0.6-1.9-0.8-3.9-1.3-6.1c-1.2-2.2-2.5-4.3-3.6-6.4
	c-1.3-2.3-2.6-4.7-3.9-7.1c-3.4-6.5-6.9-13.1-9.4-19.8c-2.4-6.6-4.3-13.4-5.7-20.3c-0.9-4.5-1.3-9.1-1.1-13.6c0-3.5,1-7,1.8-10.6
	c0.2-0.6,0.5-1,0.9-1.4c0.8-0.5,1.7-1,2.6-1.4c0,0.8-0.2,1.6-0.4,2.5c-2.6,8-2.3,16.1-0.7,24.2c1.9,9.7,5.1,19,9.6,27.9
	c3.6,7.5,7.9,14.8,11.5,22.4c1.3,3.2,2.2,6.4,2.8,9.8C406.2,470.1,405.1,470.9,404.6,471.6L404.6,471.6z M483,613.4
	c-0.4,0.5-0.8,1-1.4,1.3c-0.2-0.8-0.2-1.6-0.1-2.5c1-2.6,2.3-5,3.5-7.6c0.6-1.8,1-3.6,1.8-5.2c0.4-0.7,1.2-1,1.8-1.6
	c0,0.6,0.2,1.2,0.2,1.8C488.3,604.7,485.9,609,483,613.4z M622.8,556.1c1.6-1,3.2-2.1,4.9-3c0.6-0.2,1.4,0.2,2.2,0.3
	c-0.3,0.9-0.7,1.8-1.3,2.7c-2,1.5-3.7,1.9-5.7,0.7C622.8,556.7,622.7,556.1,622.8,556.1L622.8,556.1z M504,495.1
	c-6.1,4.3-13.1,6.5-20.6,8.8c-1,0.3-1.9,0.5-2.9,0.6c-7.6,1.7-15.3,2.3-23.1,2c-4.9-0.1-5.5,0.6-5.2,5.5c0.6,6.2,1.4,6.9,7.6,7.1
	c13.1,0.5,26.1-1.9,38.1-6.9c8.3-3.5,16.4-7.3,22.7-14c3.4-3.8,6.6-7.9,9.3-12.2c4.4-6.4,7.9-13.1,9.7-20.5c0.7-2.8,0.2-5.1-2-6.9
	c-1.5-1.3-4.2-0.9-4.7,0.6c-2,6.2-5.7,11.3-9.3,16.7C518.5,483.6,511.6,489.7,504,495.1z M461,656.5c-0.1-4.1-0.5-8-0.6-12
	c-0.4-8.6-1.4-17.1-3-25.5c-2-10.3-4.9-20.2-10.3-29.2c-2.1-3.6-3.3-7.8-7.4-9.8s-7.9-6.2-13.5-3.2c-2,0.9-4.4,0.3-5.6-1.5
	c-1-1.3-2.3-2.2-3.9-2.7c-2.9-0.5-5.8-0.6-8.8-0.3c-9.2,0.8-18.5-0.9-27.6,1.5c-4.5,1.2-9.3,1.6-13.3,3.7
	c-6.8,3.3-9.1,10.5-12.6,16.6c-0.4,0.7-0.1,1.6-0.4,2.3c0.8-0.5,1.4-1,2.2-1.5c2.2-1.3,4.4-3.5,6.8-4c4.8-0.7,7.2,1.5,9,6.9
	c2.9,9.1,2.6,18.4,1.9,27.8c-0.2,2.6-0.6,5.2-1.2,7.7c-0.8,5.2-1.8,10.5-2.6,15.7c-0.8,4.3-1.6,8.8-2.3,13.2
	c-0.9,5-1.9,10.1-2.7,15.3s-1.3,10.4-2,15.5c-1,9.3-2.5,18.5-3,27.8c-0.2,6.4,0,12.9,0.7,19.2c0.4,3.4,1.2,6.8,2.4,10
	c1.2,3.7,4.4,4.5,7.9,5.7c6,2,12.3,3.2,18.6,3.4c7,0.5,13.8-0.8,20.8-1.5c11-1.2,21.2-4.8,31.7-9.1c3.1-2.1,6.4-3.8,9.3-6.3
	c7.1-6,9.7-14.3,10.4-23c0.6-8.3,0.4-16.4,0.1-24.7C461.9,681.8,461.4,669.1,461,656.5z M395,582.8c-0.4,0.3-0.9,0.4-1.4,0.5
	c-3.1,0.5-5.9,0.9-8.7,1.2c-0.5,0-1-0.9-1.3-1.6c0-0.3,0.8-1,1.3-1.2c3.2-0.8,6.5-1.5,9.8-2c0.6-0.1,1.4,0.8,2.1,1.2
	C396.1,581.5,395.6,582.2,395,582.8z M408.5,578.5c-1.3,0.2-2.7-0.5-4.1-0.8c0.3-0.2,0.5-0.4,0.7-0.6c0.7-0.5,1.3-1.2,1.9-1.2
	c1.3,0,2.7,0.3,4,0.5C410.1,577.2,409.4,578.5,408.5,578.5L408.5,578.5z M450,749.6c-4.4,2.6-8.7,5.2-13.3,7.6
	c-9.3,4.7-19.5,6.7-29.7,7.5c-7.5,0.5-14.9-0.2-22.4-0.6c-3-0.1-6-0.5-8.9-1.3c-6.1-1.9-12-4.2-18-6.3c-5.7-1.9-6.5-2.5-9,4.8
	c-0.8,2.6-2.7,5.2,0,7.5c3.7,3,7.3,6.5,11.7,8.4c8.5,3.5,17.8,4.8,27,5c10.5,0.5,20.9,1.3,31.2-0.9c5.1-1,10.6-0.6,15.4-2.2
	c6.3-2,12.3-4.7,18-8c4-2.3,6.8-6.2,6.3-11.5c-1.2-3.2-2.6-6.2-4.2-9.2C453.3,748.5,451.6,748.6,450,749.6z M411.5,99.7
	c-4.4-1.6-8.4-4.1-12.6-6.2c-0.5-0.2-1.1-0.2-1.6-0.1c0.4,0.7,0.6,1.6,1.2,2c8.9,5.7,17.7,11.3,26.6,17.2c3.3,1.9,6.3,4.3,9,7
	c1.3,1.5,3.3,2.1,5.2,1.6c5.7-1.3,11.3-3,17.1-4.2c2.1-0.5,1.7-0.9,0.6-1.9c-5.2-4.3-10.6-8.5-16.2-13.1c-5-3.3-10-6.5-15.2-9.7
	c-1-0.7-2-1.2-3.1-1.6V94c0,0.2-0.2,0.6-0.2,0.8C420.5,101.2,416.4,101.5,411.5,99.7z M356.5,61c-1.9,0.6-4.3,5.2-3.8,7
	c0,0.5,0.2,1,0.7,1.3c2.4,1.6,4.9,3.3,7.5,4.7c5.6,3,11.2,5.9,16.8,9.1c5.4,2.9,10.7,6.1,16,9.3c1.5,0.9,2.2,0.1,2.9-0.8
	c-0.6-0.7-1.3-1.3-2.1-1.8c-5.8-2.9-11.7-5.8-16-11.8c-1.4-2.9-3.7-6-4.2-9.1c-0.8-4.9-2.7-6.1-7.2-4.3c-2.1,0.8-3.1,0.5-4.3-1.5
	C361.4,61,358.8,60.1,356.5,61z M361.9,25.5c-4.7,3.7-10.4,6.5-13.5,12c-0.5,0.9-0.8,1.9-1.3,2.8h3.6c0.4,0,0.7-0.3,1-0.5
	c4.5-1.5,9.1-3.4,14.1-1.9c1.2,0.3,2.5,0,3.5-0.7c4.1-4.5,8.1-9.2,11.7-14.1c0.8-0.8,1.5-1.7,2-2.7c2-4,4.2-8,6-12.2
	c0.9-2.2-0.2-3.8-2.6-3.6c-2.6,0.3-5.1,0.9-7.5,1.9c-5.6,2.6-11,5.4-16.4,8.2c-0.7,0.3-1.4,0.6-2.2,0.8l1.7,1.4
	C366.4,19.9,366.2,22,361.9,25.5z M381,67.4c0.5-0.3,1-0.6,1.4-1.1c0.2-0.1,0.2-0.6,0.4-0.9c-0.3-0.1-0.5-0.2-0.8-0.2
	c-1.4,0.2-2.8,0.7-4.1,1.4c-0.6,0.3-0.5,1.9-0.7,2.9l1.8-0.7C379.5,68.4,380,68,381,67.4z M359.4,750.7c-0.1-0.8-0.4-1.8-0.5-2.6
	c-0.6-4-1.6-7.8-1.9-11.8c-0.7-11.7,0.8-23,1.8-34.5c0.5-5.1,0.6-10.3,1.4-15.4c1.4-9.3,3.3-18.5,4.9-27.9c0.9-4.5,1.8-9.2,2.5-13.8
	c1.2-6.9,2.7-13.8,3.1-20.6c0.3-6.7,0.1-13.3-0.6-19.9c-0.4-3.3-1.9-6.3-3.3-9.3c-0.4-0.7-2.2-0.9-3.4-0.9c-3.5,0.3-5.5,2.9-7.4,5.6
	c-4.1,5.8-8.5,11.3-10.8,18.3c-3.3,10.1-5.3,20.5-5.8,31.1c-0.5,8.2-1.2,16.6,3.6,24c0.6,0.8,1.2,1.5,1.8,2.2c0.6-0.8,1-1.7,1.4-2.6
	c3-11.2,6.1-22.3,8.9-33.6c1.6-6.3,3.1-12.6,4.3-18.9c0.6-3.9,0.9-7.8,0.9-11.7c0.1-1.5-0.2-2.9-0.1-4.4c0-0.7,0.7-1.3,0.9-2
	c0.6,0.6,1.3,1,1.5,1.6c0.7,2,1.1,4.1,1.2,6.2c-0.5,6.5-1.2,13.1-1.9,20.3c-1.6,6.2-3.4,12.5-4.9,18.7c-2.9,11.8-5.5,23.6-8.2,35.5
	c-1,4.5-1.9,9.1-2.6,13.6c-0.8,5.4-1.5,10.7-1.9,16c-0.6,6.7-1.2,13.4-1.3,20.1c0,2.3,1.4,4.9,2.5,7.1c2.3,4.5,7.1,6.3,11.2,8.6
	C357.7,750.1,358.5,750.4,359.4,750.7z M343.5,681.7c-0.7,0.3-1.5,0.6-1.9,1.2c-2.6,4.2-5,8.4-7.3,12.7c-1.4,2.6-0.6,3.8,3.1,5.4
	c2.7,0.9,3.3-1.4,3.6-2.9c0.8-2.9,1-6.1,1.8-9.4c0.5-1.5,1.2-2.9,1.5-4.4C344.5,683.4,343.8,682.5,343.5,681.7z M323.4,101.1
	c0.2,0.5,0.7,0.8,0.9,1.3c0.4-0.5,0.9-0.8,1.2-1.4c0.5-1.6,0.6-3.5,1.2-5.1c1.9-5.6,4.4-10.8,9.7-14.1c0.5-0.3,0.7-0.8,1.2-1.2
	c-0.5,0-1-0.3-1.4-0.2c-2.5,0.6-5,1.3-7.5,2.1c-1.4,1.2-3.4,2.1-4.3,3.5C321,90.7,320.8,95.8,323.4,101.1z M284,644.1
	c0.8,3.3,2.2,3.7,5.1,1.6c8-5.9,15.2-12.9,21.2-20.9c1.3-1.6,2.6-3.2,3.9-4.8c0.9-1.2,1.3-1.9-0.9-2.2c-3.4-0.8-5.6,0.3-7.8,2.7
	c-3.7,3.8-9.3,2.6-11.8-2.7c-0.9-1.5-1.4-3.5-2.7-4.4c-2.3-1.5-4.8-3.5-7.9-1.9c-2.9,1.3-2.2,4.1-2.3,6.5
	C280.5,626.8,282,635.6,284,644.1z"/>
<path class="st4" d="M436.6,125.7c-0.7,0.2-1.3,1-2.1,1.5c0.6,0.5,1.3,1,2,1.3c6.2,2.2,11.5,5.5,14.6,11.5c0.5,1,0.7,2.1,0.8,3.3
	c-0.8-0.5-1.6-1.1-2.3-1.8c-7.2-7.2-15.4-12-26.1-11c-6.2,0.7-11.2,3.3-14,8.6c-1.8,3.5-2.2,7.7-3.3,11.5c-0.3,0.7-0.6,1.4-1,2
	c-0.6-0.5-1.1-1-1.5-1.6c-1.2-2.1-2.5-2.1-3.9-0.4c-1.6,1.9-3.3,3.9-4.7,5.8c-4.1,5.6-7.9,11.1-9.8,17.7c-0.3,1.9-1.2,3.6-2.5,5
	c-2.2,2.1-5.1,3.6-7.7,5.6c-3,2.4-6.3,5.4-5.4,9.4c0.7,3.3,2.9,6.4,5.1,9.2s3.9,5.8,4.1,9.3c0.5,7.4,0.5,14.7,0.7,22.7
	c0.1,7.5-0.5,14.8,1.8,22.3c2.9,9.3,8.6,16,17.3,19.9c9.3,4.2,19.1,3.4,28.8,1.3c7.3-1.4,14-4.6,19.7-9.3c2.8-2.3,6.1-5.6,6.5-9
	c1.5-8.4-0.5-16.7-2.9-24.7c-0.4-1-2.8-1.9-4.2-2c-1.6-0.1-2.3,1.3-2,2.9c0.3,2.8,0.8,5.5,1.5,8.2c0.7,2.4,0.5,4.6-1.5,5.9
	c-2,1.6-4.2,2.8-6.6,3.6c-7.2,2.3-14.8,2.8-22.2,1.3c-9-1.8-15.7-7.1-20.3-14.9c-3.5-6.1-4.4-12.9-5.6-19.7
	c-1.4-7.7-2.6-15.5-3.9-23.3c-0.9-5.5-1-5.5-5.7-2.8c-0.5,0.2-1.1,0.2-1.6,0.1c-0.2-0.5-0.3-1-0.1-1.5c1.6-2.8,4-5.1,7.2-5.8
	c1.6-0.2,4-0.8,3.5,2.4c-0.1,0.8,0.9,2.1,1.8,2.8c2.3,2.1,4.9,4.1,7.4,6.2c12.1,9.9,25.6,15.9,41.4,15.6c4.1,0.1,8.3-0.2,12.4-0.7
	c4-0.5,7.7-1.6,11.7-2.4c6-1.2,12-2.2,18.1-3.5c4.4-0.8,8.9-1.7,13.3-2.8c3.3-0.9,7.2-0.8,8.7-4.8c1.2-2.9,2.1-6,2.8-9.1
	c1.2-6.1,2.6-12.2,2.7-18.4c0-5.9-0.6-11.7-1.8-17.5c-2.7-12.8-8.7-23.7-20-30.8c-3.5-2.2-5.2-4.8-5.2-9c0-1.9-0.7-3.8-2-5.2
	c-1.8-1.8-8,0.1-9.6,2.1c-1,1.8-2.2,3.5-3.5,5.1c-0.8,1-2,1.6-3.3,1.8c-2.7,0.5-5.6,0.2-8.3,0.8C449.3,122.2,443,123.9,436.6,125.7z
	 M437.4,145.8c-2.6-0.3-5-1.2-7.6-1.2c-2.5,0-5,0.3-7.5,0.9c-1.2,0.8-2.5,1.5-3.9,2.1c0.5-1.4,0.6-3,1.5-4.1
	c4.4-4.8,14.2-4.8,18.8-0.1c0.5,0.6,1,1.3,1.4,2C439.3,145.7,438.4,145.8,437.4,145.8z M478.6,119.7c0.1-0.5,0.7-0.7,1-1
	c0.4,0.5,0.8,0.8,0.9,1.2v5.1c-0.1,1.8-0.3,3.6-0.7,5.4c-0.4,0.8-0.8,1.5-1.4,2.2c-0.6-0.6-1.6-1.4-1.6-2
	C477.3,127,478,123.3,478.6,119.7L478.6,119.7z M287.1,13c-1.6,3.5-2.8,7.4-4.5,11.4c-2.5,8.9-4.8,17.7-7.6,26.5
	c-2.7,8.4-2.6,17.3-3.6,25.9c-0.2,1.9,0.9,4,1.5,6c0.5-2,0.9-4,1.5-6c1.2-3.5,2.3-7,3.6-10.5c0.1-0.3,1-0.6,1.5-0.8
	c0.3,0.6,0.5,1.2,0.5,1.9c-1.2,5.4-2.6,10.5-3.6,15.9c-0.4,1.5,0.5,3.2,2.4,2.6c2.6-0.6,5.1-1.4,7.5-2.4c1.8-0.6,3.4-1.4,4.9-2.6
	c4.9-4.7,5.5-11,5.8-17c0.6-14.4,0-28.7-1.7-43c-0.5-3-0.7-6.2-1.4-9.2c-0.1-0.8-2-2-2.5-1.7C289.9,10.6,287.9,11.5,287.1,13z"/>
<path class="st5" d="M338.1,674.2c-0.9-1.2-1.6-2.5-1.9-4c-0.7-4.9-1.2-9.8-2-14.7c-0.2-1.5-0.7-3.4-1.8-4.1
	c-0.8-0.5-3.1,0.2-4.1,1.2c-3.6,3.3-6.9,6.9-10.4,10.3c-1.8,1.6-3.7,2.8-5.5,4.3c-2.3,2-4.8,1.6-7.1,0.2c-2.9-1.9-0.6-4,0.2-5.9
	c0.2-0.7,0.6-1.3,1-1.8c2.6-2.8,5.4-5.5,7.7-8.5c0.7-0.9,0.7-3.5,0-4.2c-2.9-2.7-4-5.5-1.9-8.9c2.7-4.4,5.7-8.6,9-12.6
	c0.9-1.2,3.1-1.4,4.8-2c0.2,0,0.5,0.1,0.7,0.2h0.1c0.1,0,0.1,0.1,0.2,0.1l-0.1,0.1c0.4,1.2,0.9,4.3,1.5,4.3
	c-0.1,0.5,0.1,0.9-0.1,1.3c-1.3,2.9-2.7,5.6-4.1,8.4c-0.1,0.2-0.3,0.4-0.5,0.6c1.3-0.5,2.5-1.1,3.7-1.9c2.3-2.7,5-5.2,7-8
	c2.9-4.1,4.1-8.9,5.4-13.6c2.9-9.3,6.1-18.7,11.2-27.2c6.5-10.6,15.5-17.4,28.3-18.7c1.5-0.1,4-2.1,4.3-3.5c1.3-8,2.3-16.1,3.3-24.1
	c0.4-3.4,0.5-6.8,0.6-10.2c-0.2-1-0.6-2-1.2-2.8c-0.7,0.8-1.4,1.8-2,2.6c0,0.2,0.1,0.5,0,0.7c-1.4,12.4-7.7,22.4-16.2,31
	c-6.3,6.4-14.5,10.6-23.1,13.3c-3.9,1.3-6,3.4-6.9,7.3c-0.9,4.4-2.3,8.6-4.3,12.6c-3.3,6.7-7.1,13.1-11.3,19.2
	c-5.1,7.2-10.6,14-16.6,20.5c-4.7,5.1-9.8,9.7-15.3,14c-4.9,4.1-10.3,7.6-15.5,11.2c-4.5,3-9.5,5.7-13.9,9c-2.7,1.7-3.7,5-2.5,7.9
	c1,2.8,3,5.2,5.5,6.8c4.1,2.9,8.3,5.1,13.5,5c1.6,0,3.3,0,4.9,0.2c-1,1.4-2.2,2.8-3.4,4.1c-5.7,4.5-11.9,7.7-19.5,7
	c-3.7-0.4-7.4-0.6-11.1-0.6c-4.6,0.1-9.1,0.5-13.6,1.3c-6.1,1-9,7.2-6.5,12c4.3,8.3,11.3,12.5,20.5,12.2c1.5-0.1,4.7,1,5.6-2.2
	c2.1-7.3,13.1-7.6,16.8-1c0.1,0.1,2,4.7,4.2,5.7c1.2,0,26.7-5.7,29.3-9c3.9-2.1,7-5.2,10.3-8c4.1-3.4,7.2-8,10.4-12.5
	c4.2-5.8,8-12,12-18.1C339.5,678.7,340,676.5,338.1,674.2z M309.4,572.6c5.1,2.1,10.6,1.8,16.1,2.1c6.8,0.3,13.4-0.5,19.5-3.7
	c5.2-2.8,10.8-5.2,15.5-8.9c4.4-3.3,7.8-7.9,12-12.4c1.6-3,3.4-6.1,4.8-9.3c3.1-6.8,4.7-14.1,4.9-21.6c0.1-3.4-0.1-6.8-0.7-10.1
	c-0.7-5-1.8-10.1-2.8-15.2c-2.2-9.2-6.9-17.4-11.3-25.5c-4.8-8.9-10.4-17.3-15.2-26.2c-4.2-7.7-8-15.6-11.5-23.5
	c-2.9-6.3-4.2-13.2-3.9-20.2c0.2-4.9-0.8-10.1,0.2-14.8c1.4-6.9,4.3-13.3,6.3-20c0.5-1.8,0.4-3.8-0.1-5.6c0-0.5-2-0.7-3.1-0.6
	c-9.2,0.1-16.6,4.7-23.2,10.4c-3.6,2.9-6.6,6.6-9.7,10.3c-5.6,6.3-9.9,13.5-11.8,21.8c-0.6,2.3-0.2,4.9-0.1,7.4
	c0.1,0.6,1,1.2,1.5,1.9c0.1-0.6,0.2-1.2,0.4-1.7c0.4-1.9,0.4-4,1.4-5.5c1.6-2.9,2.2-7.2,6.4-7.8c3.6-0.3,7.2-0.3,10.9,0
	c0.8,0,1.4,1.3,2.1,1.9c-1,0.7-2.1,1.3-3.3,1.8c-0.2,0.1-0.7-0.1-1-0.2c-6.3-1.8-8.5-0.7-11.5,5c-0.3,1-0.7,2-1.2,3
	c-3,5.1-0.6,8,3.4,10.5c4.8,2.8,9.7,5.6,14.6,8.2c1.2,0.4,2.4,0.2,3.4-0.6c1.5-1.5,2.5-1.3,2.9,0.6c0.2,1.4,0.1,2.9,0.5,4.3
	c2.1,9.6,5.9,18.8,11.4,27c7,10.1,13.3,20.5,19.1,31.2c3.9,7.2,6.8,14.9,7.6,23c1.1,8.1-0.1,16.2-3.4,23.7c-1.6,3.5-3.1,7.6-5.9,9.8
	c-7.6,6.1-16.3,9.4-26.4,8.4c-2.8-0.3-5.4-0.8-8-1.2c-8.6-1-16.2-9.1-18.4-16.3c-2.1-7,1.4-12.6,8.6-14.8c2.2-0.7,4.5-0.8,5.4-3.8
	c0.5-1.8,0.2-2.2-1-2.2c-5.7-0.1-11.3-0.5-16.7,2.5c-13.1,7.1-15,19.3-13.4,31.7c0.8,5.8,4.1,10.5,7.8,15
	C296.9,567.5,303.1,569.9,309.4,572.6z M311,526.6c0.5-1.3,1.3-2.6,1.9-4c0.1-0.2-0.2-1-0.2-1c-4.5-0.1-8.1,3.5-8.2,7.9
	c0,1.3,0.3,2.6,0.8,3.7c4.1,9,11,13.5,20.8,13.4c3.7,0,7.5,0,11.4-0.2c4.7-1.5,9.4-2.8,13.2-6.3c6.1-5.8,7.8-13.3,8.3-21.5
	c0.2-5.5-0.5-11-2-16.3c-1.4-4.7-3.3-9.3-5.5-13.8c-4.7-9.1-9.8-18.1-14.7-26.9c-0.6-0.7-1.2-1.4-1.9-2c-0.6,0.8-0.9,1.6-1.2,2.6
	c-0.4,1.8-0.2,3.5-0.6,5.1c-0.8,4.2-1.8,8.3-2.7,12.5c-1.4,6.8-2.5,13.8-4.4,20.5c-2.2,6.8-4.7,13.5-7.7,20c-1.2,2.8-3.6,5-5.8,7.3
	C311.5,528.8,310.5,528.1,311,526.6z M310.3,660.5c-0.9,1-1.7,2.1-2.5,3.3c-0.3,0.6-0.4,1.2-0.5,1.9c0.7,0,1.6,0.3,2.1,0
	c1.9-1.2,3.6-2.6,5.2-4.1c4.5-4.1,8.9-8.5,13.4-12.6c1.1-0.9,2.6-1.4,4-1.3c2.3,0.7,2.6-0.7,2.8-2c0.7-4.4,1.3-8.9,1.9-13.4
	c0.1-0.5,0.1-1.1,0-1.6c-0.6,0.2-1.2,0.6-1.8,1c-2,2.1-3.7,4.3-5.7,6.4c-0.5,0.6-5,1.3-6.5,1.6c0,0.1,0,0.1-0.1,0.1h-0.4l0.2-0.2
	c-0.1-0.7-0.2-1.4-0.2-2.1c0.4-1.5,0.8-2.9,1.3-4.5c0.9-1.3,1.8-5.6,2.6-7.8c-1.2,0.9-2.2,1.9-3.1,3c-2.5,3.3-4.8,6.7-6.9,10.2
	c-2,3.3-2.8,6,2.5,7.3c2.1,0.5,3.4,1.6,1.3,4C316.6,653.2,313.5,656.8,310.3,660.5z M286,607.1c1.9,1,4,1.8,6.1,2.5
	c1,0.3,2.6,0.3,3-0.2c2.1-2.1,4.5-2.2,7.1-2.2s4,0.8,3.8,3.7c-0.1,3.5,1.2,4.3,4.4,3.5c0.9-0.3,1.9-0.4,2.8-0.1
	c3.9,1.5,6-0.3,7.9-3.4c2.9-4.8,6.4-9.1,9-13.9c2.2-4.3,4-8.7,5.4-13.3c0.9-2.8,0-3.6-3.1-3.6h-11.7c-4.3-0.7-9-0.8-13.3-2.2
	c-3.9-1-7.2-3.4-10.8-5.4c-2-1-3.4-0.8-4.5,1.3c-1.9,3.7-4.3,7.5-5.8,11.4c-1.5,3.6-2.4,7.4-2.8,11.3c-0.2,2.9,0.7,5.9,1.2,9
	C284.8,606.2,285.3,606.8,286,607.1z M302,375.2c2.2-3,4.7-5.9,7.2-8.6c1.4-1.5,1.6-2.9,0.2-4.5c-0.8-1-1.9-2.9-1.5-3.4
	c2.8-3.5,0.9-6.8-0.1-10.1c-2.5-7.1-5.4-8.6-12.1-3.5c-6.3,4.8-9.7,11.8-11.9,19.5c-1.5,5.5,0.6,9.7,5.8,11.3c2.2,0.7,4.3,1.3,7.1,2
	C299.1,378,300.6,377,302,375.2z M299.8,610.5c-2,0.8-2.9,6.7-1.2,7.7c0.9,0.7,2.6,0.5,3.9,0.1c0.2,0,0.3-1.8,0.2-2.7
	c0-1.3-0.4-2.5-0.6-4.4C301.3,611,300.4,610.3,299.8,610.5z M280.7,606.2c0.1-0.9,0.1-1.9,0-2.8c-0.1-0.8-0.7-2.3-1.2-2.5
	c-0.9,0-2.4,0.6-2.7,1.3c-0.6,1.3-0.7,2.8-0.5,4.2c0.3,1.1,1,2,2,2.6C280,609.6,280.5,608.2,280.7,606.2z"/>
<path class="st6" d="M756,417.8c-1.4-3.3-2.9-6.5-4.1-9.8c-0.2-0.3-0.3-0.6-0.3-0.9c-0.4-1-1-1.9-1.6-2.8c-1.9-2.5-4-4.8-5.8-7.2
	c-2.2-2.6-3.8-5.6-6.5-7.5s-4.3-5-7.7-6.3c-2.6-0.8-4.5-2.4-7-3.6c-2.6-1.2-5.3-2.1-8.2-2.6c-4.2-0.7-8.4-2.1-12.7-3
	c-1.4-0.4-2.9-0.6-4.3-0.7h-18.9c-0.9,0-1.9,0.5-2.9,0.4c-0.1,0.1-0.3,0.2-0.9,0.2c-0.6,0.3-1.2,0.5-1.9,0.7
	c-2.7,0.4-5.2,0.8-7.9,0.9h-0.5c0.1,0,0.3,0.1,0.5,0.6c-3.6-0.7-6.7,1.5-10.1,1.8c-1.5,0.2-3,0.5-4.4,0.9c-2.5,0.8-5,1.7-7.5,2.8
	c-5.6,2.6-11.3,5.4-17.3,8c-1,1.1-2.2,2.1-3.5,2.9h-0.6c0.2,0,0.3,0.1,0.6,0.6c-0.5,0.8-1.2,1.4-1.6,2.2c-1.6,3.5-3.2,7.1-4.9,10.6
	c-1.9,3.9-3.8,7.7-5.8,11.5c-0.1,0.4,0.2,0.9,0.3,1.5c0.3-0.1,0.8-0.4,1.2-0.5c2.2-1.1,4.5-2.1,6.9-2.9c6.8-2.1,13.5-4,20.3-5.7
	c6.1-1.5,12.2-2.8,18.3-3.9c5.8-0.8,11.8-0.8,17.7-1.6c11.9-1.6,23.9-1.3,35.7,1c8.9,1.7,17.5,4.8,25.4,9.1c0.3-0.2,0.6-0.3,0.9-0.4
	c2.1,1.8,4.3,3.4,6.5,5c6.1,4.7,11.5,9.8,14,17.5c0.2,0.6,1.4,1.5,1.9,1.4c0.7-0.2,1.9-1.2,1.9-1.8c-0.2-2.9-0.7-5.8-1.4-8.6
	C758.6,424.4,757.4,421,756,417.8z M757.6,442.7c-0.1,0.2-0.2,0.4-0.7,0.6c-0.1-0.9,0.1-2-0.3-2.7c-2.2-3.1-4.2-6.6-6.9-9.4
	c-5.6-6.1-11.7-11.9-19.7-14.9c-4.2-1.6-8-4.3-12.2-5.6c-4.9-1.4-10.2-1.8-15.4-3c-1.6,0-3.3-0.2-4.9-0.2c-10,0.1-20.1,0-30.1,0.8
	c-7.7,0.6-15.3,2.3-22.9,4.1c-8.6,2-17.1,4.3-25.8,6.6c-0.8,0.1-1.8,0.6-2.7,0.7c-3.7,0.7-4.8,3-3,7.1c0.9,1.9,2.6,3.6,3.6,5.5
	c0.7,1.5,1.9,2.6,3.3,2.2s2.8-0.8,4.2-1c5.5-1,11.1-2,16.6-3c3.3-0.7,6.4-1.8,9.7-2.1c6.3-0.8,12.6-1.6,19-1.9
	c9.6-0.5,19.3-0.4,28.9,0.1c6.2,0.5,12.5,1.4,18.4,4.1c3.8,1.8,7.7,3,10.5,6.4c3.2,3.6,3.2,11.5-0.2,14.8c-2.3,2.1-4.8,4.4-7.6,5.5
	c-6.5,2.8-13.2,5.5-20.2,7c-9.2,2-18.5,2.9-27.9,4.2c-7.7,1-15.3,1.8-23,2.6c-1.5,0.1-3,0.7-4.5,0.9c0.9,1.3,1.9,2.5,2.9,3.6
	c0.7,0.7,1.4,1.5,2.2,2.2c1.2,0.8,2.6,2,3.8,2c10,0,19.9,0.1,30-0.2c7.2-0.2,14.5-0.9,21.6-1.6c2.6-0.2,5.1-0.7,7.7-1.2
	c1.4-0.2,2.8-0.3,4.2-0.4c0.3-0.2,0.6-0.3,0.9-0.4c1.4-0.4,2.8-0.7,4.2-0.9h0.6c-0.3-0.1-0.5-0.4-0.6-0.7c0.7,0,1.4-0.1,2.1-0.2
	c2.2-0.5,4.4-0.8,6.5-1.3c1.1-0.2,2.1-0.5,3.2-0.8c0.3-0.1,0.3-1,0.7-1.2c0.8-0.4,1.7-0.4,2.6-0.2c0.2,0.1,0.5,0.1,0.7,0.1
	c-0.3-0.2-0.5-0.4-0.7-0.7c1.8-0.5,3.6-0.6,5.1-1.5c3.6-2.2,8-3.4,10.8-7c1.5-2.1,3.7-3.7,4.8-5.9c1.8-4,1.5-8.2,0.3-12.4
	C757.5,443.1,757.6,443,757.6,442.7z M683.1,725.7c-3.2,2-6.6,3.9-10,5.6c-2.8,1.3-5.7,2.4-8.8,3c-4.9,1-9.8,1.5-14.7,2.2
	c-4,0.6-7.8,1.3-11.8,1.8c-4.3,0.3-8.7,0.6-13.1,0.6c-6.3-0.1-12.5,0-18.8-1c-6.1-1-12-2.9-17.5-5.6c-2.1-0.9-3.2-0.3-3.7,1.2
	c-2.5,6.1-3.8,12.6-4,19.2c-0.1,4.8,0.9,9.7,0.2,14.3c-0.5,4.7,0.6,8.6,1.3,12.8v0.7c0-0.2,0.1-0.5,0.6-0.7c1,5,5.5,6.2,9.1,8.5
	c3.8,1.4,7.6,2.9,11.4,4.1c4.4,1.4,8.9,2.6,13.2,4.2c0.3-0.1,0.6-0.3,0.9-0.3c2.1,1.5,4.8,0.7,7.1,2.2c1.3,0.8,4.1,0.8,6.2,1.4
	c4.7,1.1,9.4,1.9,14.1,2.4c3,0.3,6.1,0.1,9.1,0.5c1.4,0.1,2.8,1,4.1,0.9c7.5-0.1,15,0.1,22.4-0.8c9.5-1.2,18.8-3.2,28.1-4.4
	c0.3-0.2,0.7-0.3,1-0.3c1.2-0.3,2.4-0.8,3.5-1.3c2.5-0.9,5-2.1,7.8-3.2c0.9-0.9,1.9-1.9,2.9-2.8c2.9-2.8,2.2-6.7,2.3-10
	c0.5-6.7,0.2-13.4-0.8-20.1c-0.8-4.2-2.1-8.2-4.1-12c-1.1-2.3-1.8-4.8-2.2-7.3v-0.6c-0.2,0.2-0.4,0.4-0.7,0.6
	c-1.8-3.4-3.5-6.8-5-10.2c0.1-0.2,0.1-0.4,0.1-0.6c-0.2,0.2-0.3,0.5-0.7,0.6c-0.2-0.7-0.1-1.8-0.6-2.3c-1.7-2.5-3.7-4.9-5.8-7
	c-3-2.9-6.1-5.7-9.5-8.3c-1-0.7-2.7-0.9-3.2,1.3c0,0.2-0.1,0.3-0.6,0.6c0.2,0.3,0.3,0.6,0.3,0.9c-0.3,0.7-0.7,1.3-1.3,1.9h-0.6
	c0.2,0.1,0.3,0.2,0.6,0.7C689.3,721.3,686.3,723.6,683.1,725.7z M669.7,466.4c2.1-0.2,4-1.2,6.1-1.5c3.4-0.5,6.9-0.5,10.2-1
	c3.7-0.7,7.5-2,11.1-2.8c3.2-0.8,6.4-1.2,9.6-2.1c2.3-0.6,4.3-1.9,6.7-2.7c4.5-1.5,8.5-3.9,11.3-7.9c2.1-3.2,2-7.4-0.3-10.4
	c-2-2.5-5.7-4-9-5.1c-4.3-1.4-8.9-2-13.2-2.8c-1.4-0.2-3,0.5-4.3,0c-3.7-1.6-7.6-1.5-11.3-1.8s-7.2-0.7-11,0.9
	c-2.7,1.3-6.5,1.4-9.2,1c-2.9-0.5-5.4,0.5-8.2,0.6c-3.7,0.2-7.4,0.5-11,1.2c-2.2,0.2-4.3,0.8-6.4,0.9c-0.3,0.2-0.6,0.2-0.9,0.2
	c-2.2,0.5-4.4,0.9-7,1.3c-3.6,0.9-7.3,1.9-11.1,2.6c-2.3,0.5-2.3,1.6-1.4,3.1c1,2,2.3,3.7,3.5,5.5c5.5,7.5,11.1,14.9,16.7,22.3
	c1,1,2.3,1.6,3.7,1.6C652.6,468.6,661.2,467.6,669.7,466.4z M547.7,459.2c-2.9-0.1-4.1,1.3-4.3,4.7c-0.6,9-4.2,17.3-9.1,24.8
	c-2.9,4.5-5.6,9.4-10.2,12.8c-4,3-7.6,6.5-11.8,9.1c-4.5,2.7-9.3,5-14.2,6.7c-4.7,2-9.6,3.3-14.7,4.1c-8.3,0.9-16.7,0.9-25,1.4
	c-0.7,0.1-1.9,1.3-1.9,1.9c0.5,3.7,1.2,7.3,1.8,11.1c0.8,3.7,1.9,7.5,2.6,11.3s2,7.5,5.1,9.4c4.3,2.5,8.9,4.5,13.6,5.8
	c4.4,1.3,9.3,1.2,14,1.6c8.8,1,17.7,0.7,26.5-1c5.5-1.2,11.1-2.7,16.4-4.2c3.7-1,7.1-2.6,11-3.7c4.5-3.5,10-5.2,14.8-8.5
	c5.4-3.7,10.5-7.8,15.3-12.2c4.8-4.2,9.2-8.9,13.1-14c3.3-4.4,5.6-9.6,7.9-14.6c2.6-5.5,3.4-11.3,1.5-17.1
	c-2.1-6.5-7.3-10.6-12.2-14.9c-7.7-6.8-17-10.5-26.5-13.5C557.3,458.6,552.3,459.2,547.7,459.2z M444.1,781.2c-4.2,2-8.7,3.3-13.3,4
	c-1.9,0.2-3.9,0.7-6.1,0.9c-1.6,0.4-3.3,0.6-5,0.7c-4.7,0.1-9.3,0.1-14,0.1c-4.3,0-8.5-0.1-12.8-0.1c-4.5,0-9.1,0.3-13.5-0.2
	c-3.9-0.5-7.5-2.1-11.3-2.9c-6.4-1.1-12.4-3.9-17.4-7.9c-1.8-1.4-4-0.8-5,1.4c-1,2.2-1.8,4.5-2.5,6.8c-1,3.2-1.9,6.3-2.7,9.3
	c-1.2,3.7-2.3,7.3-3.1,11.2c-0.6,2.7-1.4,5.6,0.7,8.2c2.7,3.2,4.3,7,8.2,9.4s6.9,6,10.4,8.9c0.6,0.6,0.9,1.4,1.5,1.6
	c3.4,1.8,6.9,3.4,10.3,5.1c1,0.6,1.9,1.4,2.9,2.1s2.1,0.8,3.1,1.4s2.2,1.3,3.4,1.8c1.1,0.5,2.1,0.9,3.3,1.3c0.8,0.1,1.6,0,1,1.3
	l10.9,3.1c0.4,0.1,0.7,0.1,1.2,0.2c-0.7,2.1,1,0.6,1.5,0.9c0.2,0.3,0.7,0.5,0.7,0.7v0.6c0.1-0.3,0.3-0.5,0.6-0.6
	c0.9,0.3,1.8,0.8,2.6,1.3v0.6c0.1-0.3,0.3-0.5,0.6-0.6c1.3,0.2,2.3,0.3,3.6,0.7c0.1,0,0,0.8,0,1.2c2-1,2.9,1,4.3,1.5
	c0.3-0.1,0.6-0.1,0.9-0.2c2-0.5,4.1-0.1,5.7,1.2v0.7c0-0.2,0.1-0.5,0.6-0.7c0.2,0,0.3,0.1,0.4,0.3c0,0,0,0,0,0
	c0.2,0,0.5-0.2,0.9-0.3c2,0.3,4.1,0.3,5.9,0.7c6.8,1.4,13.3,2.3,20.1,0c1-0.3,2.5,0,3.7,0c1.8-0.1,3.5,0.1,5.2,0.3
	c0.3-0.2,0.6-0.3,0.9-0.3c3.7-0.7,7.4-1.3,11.1-1.6c0.3-0.1,0.6-0.1,0.9-0.2c0.6-0.5,1.3-0.9,2-1.3c4.1-2.1,8.2-4.2,12.1-6.1
	c0.2,0.1,0.5,0.1,0.7,0.1c-0.3-0.1-0.6-0.4-0.7-0.7c0.6-0.4,1.3-0.6,2-0.6c0.3-0.2,0.6-0.3,0.9-0.3c1.7-1.5,3.5-3.1,5.4-4.7
	c4.7-3.7,6.3-9.1,6.2-14.6c-0.3-6.1-1.1-12.1-2.5-18.1c-1.1-4.6-2.5-9.1-4.4-13.4c-2.5-5.5-5.4-10.6-8.2-15.9
	c-2.8-5.4-7.4-9.7-13-12.2c-2.6-1.2-3.4-0.7-4.4,1.9c0,0.3-0.2,0.5-0.4,0.7C456.3,775.6,450.2,778.4,444.1,781.2z M300.9,44.6
	c0.4,5.4,0.5,10.7,0.7,16c0,0.3,0.7,0.8,1,0.8c2.1,0,4.1-0.1,6.2,0c7.9,0.3,15.9-1.2,23.8,1.2c4.3,1.3,8.9,1.9,13.3,3.2
	c1.7,0.5,3.4-0.4,4-2.1c1-4.5,4.8-6.4,8.2-8.4c5.5-3.4,11.7-5.2,18-6.5c1.2-0.3,2.5-0.8,3.6-1.4c-0.9-0.7-1.8-1.5-2.6-2.2
	c-0.4-0.2-0.8-0.2-1-0.5c-3.9-5.1-9.7-3.7-14.4-3.6c-5.4,0.1-10.7,2.4-16.1,4c-0.4,0.1-0.7,0.8-1.5,1.2c-1.2,0.9-2.6,1.7-4.1,2.2
	c-1.8-2.6,1-4.3,1.3-6.3c0.2,0.1,0.4,0.1,0.6,0.1c-0.2-0.1-0.4-0.2-0.6-0.7c0.4-0.3,1-0.7,1-1.2c0.9-4.3,3.7-7.2,6.9-9.8
	s6.6-4.7,9.9-7c0.9-0.9,1.7-1.9,2.3-3c-1-0.6-2.1-1.4-3.3-2c-0.5-0.2-1.1-0.2-1.6,0c-5.1,0.6-10.4,0.8-15.5,2
	c-5.2,1.1-10,3.6-13.9,7.4c-2.6,2.6-5.2,4.9-7.9,7.4c-1.3,1.3-2.6,2.7-3.9,4.1c-0.8,1-1.6,2-2.6,2.9c-0.7,0.3-1.9-0.2-2.8-0.5
	c0.1-0.4,0.4-0.9,0.7-1.2V40c-0.1,0.2-0.3,0.4-0.6,0.6c-1.3-2.6,1.2-4.3,1.4-6.4c0.6-5.5,3.4-10.1,5.2-15.2c0.7-2,1.8-4,2.3-6
	c0.5-1.4,0-2.9,0-4.4c-1.6,0-3.1,0.2-4.7,0.5c-4.7,1-7.8,4.7-11.7,7s-4,5.6-3.7,9.2C299.6,31.7,300.4,38.2,300.9,44.6z M304,259
	c-0.4-0.6-0.8-1-1.3-1.9c-0.6-0.7-1.1-1.4-1.5-2.2v-0.6c-0.2,0.2-0.4,0.4-0.7,0.6c-1.5-2.6-3.1-5.1-4.3-7.6v-0.6
	c-0.1,0.2-0.2,0.4-0.7,0.6c-0.3-0.6-0.5-1.2-0.6-1.9c-0.2-0.3-0.3-0.7-0.4-1.1c-0.5-0.6-0.9-1.2-1.3-1.9c-0.6-0.5-1.3-0.9-1.5-1.5
	v-0.5c-0.1,0-0.2,0.2-0.7,0.5c-1.2-2.1-2.5-4.2-3.7-6.3c-1.2-1.9-2.3-3.7-3.6-5.5c-0.4-0.5-1-0.6-1.5-0.8c0,0.5-0.1,1-0.2,1.5
	c-0.7,4.8,1,9.2,2.2,13.6c2.1,7.9,5.7,15.4,10.5,22c1.8,2.3,4,4.3,6.4,6c0.7,0.5,3,0.1,3.5-0.6c2.9-4.2,2.6-7.2-0.2-11.1
	C304.2,259.6,304.1,259.3,304,259z M274.4,624.5c-0.4-1.3-1.6-2.3-2.7-3.5c-1.3-1.5-3.1-2.9-4.2-4.7c-3.3-6.1-6.8-12.1-9.3-18.5
	c-3-7.6-6.4-15-10.1-22.3c-4.2-8.3-9.2-16.1-15-23.3c-1.9-2.2-4-4.2-6.2-6.2c-1.7-1.3-3.4-2.7-5-4.2c-2.6-2.9-5.7-4.9-8.7-7
	c-2.8-1.9-5.7-3.5-8.6-5.5c-4-1.2-7.9-2.3-11.7-3.5c0-0.2,0.1-0.3,0.1-0.6c-0.1,0.2-0.2,0.3-0.7,0.6c-3.1-0.6-6.3-1.5-9.4-1.9
	s-6.5,0.1-9.8,0c-7.9-0.2-15.8,1.3-23,4.4c-3.7,1.6-7.2,4-10.8,5.6c-7.1,3.1-12.5,8.6-17.8,13.9c-5,5-8.9,11.3-12.5,17.4
	c-1.9,3.3-2.3,7.3-3.3,11c-0.1,0.5,0.8,1.9,1,1.8c4-1.2,7.9-2.3,11.9-3.7c2.9-1,5.6-2.4,8.4-3.6c0.5-0.1,1.1-0.1,1.6,0
	c-0.1,0.7,0,1.6-0.4,2.1c-1.4,1.9-3.2,3.5-4.6,5.4c-3,3.8-5.8,7.6-8.6,11.4c-1.5,1.9-2.8,4.1-3.7,6.3c-2.1,5.4-3.9,10.9-5.4,16.4
	c-1.2,3.8-1.9,7.7-2.2,11.7c0,5.9,0.4,11.8,1.3,17.6c0.8,5,2.7,9.7,5.5,13.9c2.3,3.2,4.7,3.5,6.6,0.2c2.2-3.5,4.2-7.2,6.1-11
	c2.2-4.2,4-8.8,6.3-12.8c2.7-4.4,5.6-8.6,8.9-12.6c2.9-3.7,6.1-7.2,9.6-10.5c1.3-1.3,3.1-1.9,4.8-3c3.4-2.5,6.8-4.9,10.5-7.3
	c0.9-0.3,1.8-0.5,2.7-0.6c0.2,0,0.7,0.7,0.7,0.8c-2.3,3.1-4.8,6.2-7.3,9.2c-1,1.3-2.9,2.5-3.1,4c-0.9,5.4-1.4,10.8-2,16.2
	c0,0.6,0.1,1.2,0.2,1.8c0.6-0.3,1.2-0.6,1.8-0.9c6.5-4.5,12.7-9.8,19.6-13.7s13.8-7.6,22-7.3c4.1,0.1,8,0.2,12.1,0.7
	c2.4,0.2,4.7,0.6,7,1.4c1,0.2,1.9,1.3,2.7,2c-1,0.5-2.1,0.8-3.3,1c-0.7,0-1.5,0-2.2-0.1c-6.1-0.2-11.8,0.5-16.2,5.1
	c-0.8,0.8-1,2.1-1.5,3.2c0.9,0.5,1.9,0.9,2.9,1.2c0.9,0.2,2.1-0.1,3.1,0.1c5,0.7,10.3,1,15,2.6c7.2,2.3,14.2,5.7,21.3,8.5
	c6.1,2.3,12,4.9,18.2,6.3c4.8,0.9,9.9,0.5,14.8,0.1c4.3-0.3,4.5-1,4-5.9C275.4,630.8,275,627.7,274.4,624.5z M271.3,208.8
	c-0.2-0.7-0.5-1.4-0.8-2c-1.4-2.7-2.8-5.5-4.1-8.3c-1.6-3.2-3.1-6.5-4.4-9.8c-1.5-4.2-2.6-8.5-3.9-12.7c-1.9-6.2-3.2-12.6-4-19
	c-0.7-4.4-1.2-8.9-1.7-13.4c-0.4-3.3-1.3-6.6,0.9-9.8c0-0.2-0.2-0.4-0.4-0.9c0.4-3.4,0.1-7,0.9-10.3c1.3-5.3,2.9-10.5,4.9-15.5
	c1.3-3.6,3.6-6.9,5.1-10.5c0.5-1.3,0.6-2.8,0.2-4.2c-0.4-1.4-1.5-2.7-2.1-4.1c-2.1-5.4-4.7-10.6-5.9-16.1c-1.5-6.9-0.9-14,1.8-20.5
	c0.6-1.6,0.1-3-1.9-3.5c-1.1-0.3-2.2-0.5-3.3-0.7c-4.5-0.2-9.2-0.8-13.9-0.6c-4.9,0.2-5.8,1.9-3.4,5.8c4.4,7.2,9.2,14.3,13.8,21.5
	c1.8,2.9,3.8,5.7,5,8.9c2.3,6.9-0.6,12.1-5.8,16.8c-3.8,3.4-7.3,7.2-10.4,11.3c-5.5,7.3-9.3,15.8-11.1,24.7
	c-1.1,5.7-1.1,11.7,0.2,17.4c0.5,1.4,1.4,2.9,3.4,2c4.2-2.1,8.2-4.3,12.4-5.9c0.7-0.4,1.3-2.3,3.6-0.7s2,3.5,2,5.2
	c-0.1,7.2-0.5,14.6-0.5,21.8c0,5.8-0.5,11.8,0.7,17.5c1.8,8.4,3.5,16.9,8.1,24.5c2.4,4,4.5,8.1,8.6,10.9c1.4,1,2.9,1.5,4.1,0
	c1.4-1.8,2.4-3.9,2.9-6.1c0.4-3.1,0.4-6.1,0-9.2C272.2,211.7,271.9,210.2,271.3,208.8z"/>
<path class="st7" d="M268.9,730.4c-8.2,5.6-18,5.7-27.1,8.4c-7,2.1-14.3,2.9-21.4,4.7c-6.4,1.8-12.5,4.3-18.9,6.1
	c-3.4,1-6.9,3.3-10.6,1.4c-2.5-1.3-4.9-2.9-7.1-4.7c-6.4-5.6-12.8-11.3-19-17.1c-5.5-5.2-11.4-10-13.9-17.6
	c-0.1-0.5-0.7-0.9-1.2-1.5c-0.2,0.7-0.8,1.3-0.7,2c0.1,3.1,0.5,6.2,0.9,9.3c1.2,5.8,2.6,11.7,4.1,17.5c0.6,2.7,1.6,5.2,2.9,7.6
	c4,6.6,9.1,12.5,15.2,17.4c6.2,5.5,13.3,10,21,13.2c3.1,1.2,7.2,1.9,10.3,0.9c6.5-2.1,12.7-5.2,19.7-8c7.9-4.7,16-9,23.8-13.9
	c6.6-4,13-8.5,19-13.4c3-2.5,6.2-5.5,6.2-10.3C272,729.2,270.1,729.6,268.9,730.4z M157.7,716.9c8.5,9.6,17.4,18.8,27.6,26.5
	c3,2.2,6.1,5.2,10.5,4.4c1.9-0.5,3.9-1.4,5.8-2c8.9-2.5,17.8-5,26.8-7.5c6.2-1.6,12.2-3.2,18.7-4.4s13.1-2.3,19.5-5.7
	c2.5-1.6,2.9-3.7,1-5.1c-2.9-2.2-6.6-1.2-8.6,1.9c-1.1,1.7-2.7,3-4.7,3.7c-4.1,1.3-8.5,1.8-12.8,2.6c-5.1,0.9-10.4,1.9-15.6,2.7
	c-6.1,0.9-12.1,1.9-18.3,2.9c-5.5,0.9-10.9,2.2-16-1.6c-1.8-1.4-3.9-2.3-5.6-3.8c-5.1-4.3-10.4-8.6-15.3-13.3
	c-3.5-3.5-2.8-6.9,2.1-8c3.9-1,7.8-1.6,11.8-1.9c5.8-0.5,11.5-0.6,17.4-0.7c3-0.1,6.1,0,9.1,0c0.5,0,1,0.6,1.5,0.8
	c-0.2,0.4-0.5,0.8-0.8,0.9c-2.5,0.8-5,1.5-7.6,2c-9,0.8-18,1.3-26.9,2c-0.8,0-2.3,0.8-2.3,1.3c0.1,1.1,0.6,2.1,1.4,2.8
	c1.7,1.6,3.6,3.1,5.6,4.4c2.9,2.1,5.1,5.5,9.8,3.5c4.2-1.9,8.9-2.7,13.2-3.8c5.2-1.5,10.6-2.9,15.9-4.4c1.6-0.5,2.8-1.2,2.7-3.4
	c-0.1-2.5,0.5-5,0.6-7.6c0-1.5-0.1-2.9-2.3-2.9c-5.1-0.1-10.1-0.3-15.3-0.7c-5.5-0.1-11-0.5-16.4-0.5c-8.4,0-16.8,0.1-25.2,0.7
	c-3,0.1-6.1,1.4-9.1,2.3c-1.9,0.6-3.6,2-2.8,4C154,711.8,155.6,714.5,157.7,716.9z"/>
</svg>
