<?xml version="1.0" encoding="utf-8"?>
<!-- Generator: Adobe Illustrator 25.2.3, SVG Export Plug-In . SVG Version: 6.00 Build 0)  -->
<svg version="1.1" id="Слой_1" xmlns="http://www.w3.org/2000/svg" xmlns:xlink="http://www.w3.org/1999/xlink" x="0px" y="0px"
	 viewBox="0 0 864 864" style="enable-background:new 0 0 864 864;" xml:space="preserve">
<style type="text/css">
	.st0{fill:none;}
	.st1{fill:#00FF74;}
	.st2{fill:#FFEF1B;}
	.st3{fill:#FF2021;}
	.st4{fill:#2D50F8;}
	.st5{fill:#CD3CFF;}
	.st6{fill:#F1E0D1;}
	.st7{fill:#00B8EC;}
	.st8{fill:#FFFFFF;}
	.st9{fill:#FF2529;}
	.st10{fill:#F9BC79;}
</style>
<path class="st0" d="M592.4,776.3c-0.3-0.1-0.5-0.3-0.8-0.5c-1,0.2-2,0.3-3,0.4C589.9,776.4,591.2,776.4,592.4,776.3z"/>
<path class="st0" d="M600.5,782.6v-0.1l-0.1,0.1H600.5z"/>
<path d="M759.3,204.2c-5.5-2.5-11-2.5-16.6-2.5c-7.4,0-14,3-20.3,6.4c-4.6,2.8-9.1,5.8-13.3,9.1c-3.3,2.4-7.1,4.5-9.5,7.6
	c-3.5,4.4-5.8,9.6-8.9,14.1c-2.7,3.8-5.8,7.4-8.9,11c-0.9,1-3.1,2.6-3.8-0.5c-0.8-3.5-2.1-7.1-1.7-10.5c0.4-4.4,2.1-8.6,3.3-12.9
	c2.5-8.4,5.8-16.6,4.2-25.9c-1.5-8.8-5.5-14.5-13.7-16.6c-7.7-2-15.6-2-22.2,3c-4.5,3.5-8.5,7.5-12,12c-2.5,3.3-4.5,6.9-6,10.8
	c-1.3,3.2-2.3,6.5-3,9.9c-1.6,6.8-3,13.5-0.9,20.6c1.1,4.2,1.7,8.7,2.6,13c0.7,3.7,1.1,7.7,2.5,11.2s2.4,6.7,1.4,10.4
	c-1.4,4.6-3.7,8.3-8.4,9.9c-6.3,2.1-12.9,3.9-19.1,6.5c-5.2,2.2-10.5,4.8-13.8,10c-2.5,4.1-4.8,8.2-7.3,12.3
	c-0.9,1.4-1.9,2.5-2.6,3.7c-4.5,8.4-5,17.6-5,26.7c-0.1,10.7,0.9,21.2,1.1,31.9c0.1,6.1-0.6,12.3-0.6,18.5c0.1,10.5-3.5,20-7.6,29.3
	c-3.1,7.1-7.3,13.6-11.2,20.4c-0.9,1.5-2.1,2.6-3.6,3.5c-5.8,3.1-11.8,6.2-17.9,8.7c-2.9,1.1-6.1,1.4-9.2,1
	c-7.7-0.9-12-6.6-15.1-12.8c-4.5-8.7-8.2-17.7-12.2-26.5c-1.1-2.6-2.5-5-4.1-7.3c-4.8-6.6-12.4-8.7-19.4-11.8
	c-6.5-2.7-13.3-2.1-19.9-3.1c-5.7-0.8-6.6-1.1-8.8-6.6c-2-5.2-5.1-9.8-10.7-11.7c-3-1-4.5-2.9-4.6-5.7c-0.2-6-0.6-12-0.5-18
	c0-2.9,0.5-5.8,1.5-8.6c3.1-9,8.2-17.1,15.1-23.6c6.3-6,12.8-11.9,19.1-17.9c5.7-5.6,11.4-11.2,16.9-17c3.5-3.7,6.6-7.7,9.3-11.9
	c5.2-8.6,9.8-17.4,14.8-26.4c0.8-2,1.6-3.6,2.4-5.3c3.1-7.1,6.7-14.1,9.1-21.5c3.4-9.9,5.6-20.2,6.6-30.6c0.7-10,2.2-20,2.4-29.9
	c0.2-16.9-0.2-33.6-0.5-50.4c-0.1-1.9-0.3-3.8-0.7-5.7c-1.4-6.7-2.7-13.4-4.5-20c-2.8-11.5-5.6-23.3-9.1-34.6
	c-2.5-7.9-5.5-15.7-8.9-23.2c-2.2-4.6-4.8-9.1-7.7-13.4c-1.5-2.6-4-2-6-0.7c-1.7,1-3.2,2.3-4.6,3.7c-5.6,6.2-11.2,12.4-16.8,18.7
	c-0.4,0.3-0.8,0.6-1.1,1c-0.1-0.5-0.2-1-0.2-1.5c-0.2-6.2-0.4-12.3-0.6-18.4c-0.1-1.8-0.3-3.7-0.7-5.5c-0.7-3.3-4-5.4-7.3-4.6
	c-0.1,0-0.1,0-0.2,0c-4.7,1.5-8.8,4.4-11.9,8.2c-4.4,5.1-8.3,10.4-12.7,15.6c-0.5,0.4-1,0.7-1.6,0.9c-0.2-0.6-0.9-1.2-0.8-1.9
	c0.1-3.1,0.6-6.2,0.6-9.3c0.2-5,0-10-0.6-15c-0.4-3.8-3.6-5.2-7.1-4.3c-1.7,0.6-3.3,1.4-4.7,2.5c-6.8,5.3-12.4,11.9-17.6,18.9
	c-0.5,0.6-1.1,1.1-1.7,1.5c-0.2-0.9-0.9-1.7-0.7-2.6c0.1-4.8,0.6-9.8,0.5-14.8c0-2-1.2-3.6-4-2.5c-6,2.3-11.4,5.8-16,10.3
	c-5.8,5.6-11.7,11.2-17.1,17.1c-4.6,5-8.8,10.3-12.6,15.9c-8.4,12.8-16.1,26.1-24.4,38.8c-7.5,11.3-12,23.8-16.5,36.3
	c-4,11.3-7.1,22.8-9.2,34.6c-2.1,11.8-3.9,23.6-3.7,35.6c0,5.1-0.1,10.2,0,15.3c-0.1,6.9,0.5,13.9,1.9,20.7
	c2.4,10.9,5.6,21.6,10.8,31.4c3.9,7.7,8.8,15,13.6,22.2c4.6,6.6,9.7,12.8,14.8,19.1c3,4,6.5,7.8,9.4,11.8
	c6.3,8.6,11.3,17.9,13.3,28.4s4.1,21.1,4,32c0,1-1.2,2.4-2.2,3c-3,1.7-6.1,3.4-9.3,4.8c-1.3,0.4-2.7,0.6-4.1,0.4
	c-2.1-0.2-4.2-1.2-6.5-1.2c-8.1-0.4-16.2-0.5-24.3-0.7c-1,0.1-1.9,0.2-2.9,0.4c-4.7,1-9.4,1.7-14.1,3c-4.3,0.8-8.5,2.2-12.4,4.1
	c-5.1,2.7-9.2,6.5-13.9,9.5c-3,2.1-5.8,4-7.8,7.2c-2.9,4.8-7.1,8.4-12.6,9.4c-7,1.4-11.5-0.4-14.4-9.4c-2-6.2-2.1-13-3.5-19.4
	c-1.1-6.5-2.6-12.9-4.5-19.2c-2.4-7.3-5.2-14.5-8.2-21.6c-1.5-3.7-3.5-7.2-6-10.3c-2.7-3.4-4.4-7.6-4.8-12c-0.5-6.8,1-13.6,3.1-20.1
	c2.9-8.3,3.5-17.3,1.7-25.9c-2-9.3-5.1-18.6-7.6-27.9c-0.8-3-1.3-6-1.7-9.1c-0.1-0.6,0.9-1.9,1.4-1.9c3.4-0.4,6.8-0.4,10.2,0
	c7.2,1,14,3.7,21.8,2.6c6.3-0.9,12.7-1.2,18.7-3.5c5.5-1.9,9.8-5,11.2-11.2c0.7-3.4,1.7-6.7,2.5-10.2c0.4-2,0.7-4,0.6-6
	c0-6.6-2.5-12.4-7.1-18c-4.8-5.8-12.6-4.7-18.1-8.9c-0.4-0.4-1.2,0-1.9-0.1c-4.2-0.2-8.4-0.6-12.5-0.6c-3.1,0-6.6-0.4-9.3,0.9
	c-3.7,1.7-7.3,1.7-11,1.6c-2.7-0.1-4.6-1.7-4.6-4.3c-0.1-4.5-0.2-9.2,0.8-13.5c1.9-8.8,2.4-17.7,2.5-26.8c0.1-8.8-1-17.2-4.6-25.3
	c-1.6-4.2-5-7.4-9.3-8.7c-7.7-2.4-15.4-2.6-23.3-2.5c-1.2,0-3,0.1-3.7,0.9c-4,4.1-8.6,8.1-11.4,12.8c-2.5,4.3-3.2,9.7-4,14.6
	c-0.5,4.5-0.5,9,0,13.5c0.5,6,1.6,11.7,2.5,17.5c0.4,3,0.5,6.1,0.9,8.9c0.8,6.1,0.9,12.2-1.5,18c-1,2.2-4,3.1-5.6,1.2
	c-3.1-3.5-5.9-7.2-8.4-11.2c-2.4-3.7-3.4-8.4-6-11.9c-4.7-5.7-9.8-11-15.3-16c-2.8-2.6-6.7-4.8-10.5-3.5c-5.3,1.9-11,4.2-15.3,7.7
	c-5.6,5-7.4,12.3-7.9,19.6c-0.4,4.7-0.1,9.5,0.6,14.1c0.5,3.7,1.2,7.9,3.2,11c3.9,5.9,8.3,11.5,13.3,16.6c4.1,4.1,8.9,7.9,14.9,9.4
	c5.3,1.4,10.8,2.6,16.2,3.9c10.2,2.5,19.4,7.1,28.3,12.3c2.6,1.6,4.6,4.5,6.7,6.8c6,6.8,9.4,14.8,9.3,24c0,2.8-0.2,5.6-0.6,8.3
	c-0.5,3.7-1,7.2-1.7,10.8c-1,4.7-3,9.3-3.2,14c-0.2,9.5,0.2,19,0.6,28.5c0,1.7,1.1,3.6,2,5.2c3.7,6.9,8.8,13.1,11.4,20.8
	c2.1,6.6,5.3,12.8,7.6,19.4c1.6,5.4,2.9,10.9,3.9,16.5c1.1,5.3,1.6,10.7,3.1,15.8c1.7,6.6,4.7,12.8,9.8,17.6
	c4.8,4.6,9.6,9.4,15.1,12.9c6.1,3.9,13.4,4.7,20.5,5.3c10.8,1,20.2-2.4,28.8-8.6c3.4-2.2,6.5-4.8,9.7-7.5c2-1.6,3.9-3.5,6-5.2
	c2.9-2.4,5.5-5.3,8.8-6.7c5.1-2.3,10.3-4,15.8-5.2c4.8-1.1,10-2.4,14.9-1.9c9.5,1.1,19.2,2.9,27.9,7.5c2.6,1.5,6,2.4,6.6,6
	c1.1,5.2,1.9,10.5,2.9,15.9c0.6,4.6,1.2,9.2,2,13.9c1,5.7,2.1,11.4,3.1,17.2c1,6.1,1.6,12.3,2.6,18.5c1,6.5,2.1,12.9,3.1,19.5
	c0.7,5,1.4,10.1,2.1,15.1c1,6.2,2.1,12.4,3.1,18.6c0.9,6,1.5,11.9,2.6,17.7c1.2,7.3,2.7,14.6,4.3,21.8s3.2,14.4,5.1,21.6
	c2.6,10,5.7,20.1,8.3,30.1c4,14.9,7.9,29.9,11.4,44.8c0.8,3.9,1,7.9,0.5,11.8c-0.6,4.7-1.9,9.4-2.9,14.1s-2,9.4-6.1,12.9
	c-6.7,5.8-12.9,12.4-19.7,18.1c-2.6,2.4-6.1,4-9.2,5.5c-8.7,4-15.9,9.2-18.9,18.7c-0.7,2.2-2.1,4.1-4,5.3c-4.7,2.7-9.8,4.6-14.6,7.2
	c-15.1,7.7-30.3,15.5-45.3,23.5c-8.9,4.8-17.6,9.9-26.3,15.1c-3.7,2.2-7,4.8-7.1,9.7c-0.4,8.4,0.2,16.6,4,24.3
	c1.5,3.1,2.9,6.7,5.3,8.6c8.2,6.2,18,8.9,28.2,9.1c6.5,0.1,13-1,19.7-1.7c3.4-0.4,7-0.6,10-1.7c6.5-2.4,13-5.2,19.2-8.3
	c9.2-4.6,18.1-9.4,27.2-14.3c11.5-6.2,23.3-12.3,34.9-18.6c11.9-6.6,23.7-13.8,35.7-20.3c3-1.9,6.4-3.2,9.9-3.7
	c6.3-0.6,12.7-0.9,19.1-0.7c5.7-0.2,11.2-1.9,16-4.8c5-2.8,5.3-3.7,10.9,0.1c3.2,2.2,6.5,4.3,9.7,6.6l36.8,24.6
	c9.2,6.2,18.8,10.3,30,9.3c7.4-0.7,14.8-1.8,22.1-3.3c14.6-3.2,28.2-8.8,40.2-18.1c7.2-5.7,10.9-12.8,10.8-21.8
	c0-3.8-0.9-7.7-0.5-11.5c0.5-5.2-1.6-9.1-5.3-12.3c-4.8-4.1-9.5-8.2-14.6-11.9c-8.9-6.7-17.9-13.2-27-19.6
	c-5.2-3.7-10.9-6.5-14.2-12.5c-3.7-7.1-10-10.5-17.7-11.8c-5.3-0.9-10.8-1.4-16.1-2c-2.7-0.1-5.3-0.4-7.9-0.9
	c-9.4-1.9-17.2-7.3-25.4-11.9c-5.3-2.9-10.8-5.6-16.1-8.3c-3.9-2-7.9-3.1-9.3-8.4c-3-11.4-6.8-22.7-10.2-34.1
	c-4.5-16.1-8.9-32.4-13.4-48.5c-3.2-11.9-6.6-23.8-9.5-35.7c-3.5-13.3-6.6-26.8-9.8-40.1c-3.1-12-6.5-24.1-9.4-36.1
	c-2.9-11.8-5.6-23.6-8.2-35.4c-0.5-2.2-0.7-4.8,1.4-6.7c1-1,2.4-1.7,3.2-2.7c4.3-4.5,9.4-6.6,15.6-5.6c2.5,0.4,5.3,0.2,6.5,3.4
	c1.4,3.4,3.1,6.6,4.6,9.7c2.1,5,5.1,9.7,6.1,14.6c1.1,6.4,3.6,12.5,7.3,17.9c1.4,2.1,3.5,3.7,5.3,5.5c6.9,6.3,14.6,10.7,24.4,10.4
	c5.5-0.1,10.8,0.4,16.1,0.5c2.4,0.1,5,0.8,7.2,0.2c4.6-1.2,9.1-2.7,13.5-4.5c2.9-0.9,5.7-2.1,8.4-3.5c4-2.5,8.1-4.8,11.3-8.1
	c3.9-4.3,7.5-8.9,10.7-13.8c3.4-4.5,6.4-9.3,9.2-14.3c3.8-7.4,6.5-15.4,9.4-23.2c5-13.2,7.4-27.1,7.2-41.2
	c-0.1-4.2-1.1-8.7-1.1-12.9c0-6.2,0.9-12.4,1.1-18.7c0-5.8,1.4-11.6,4.1-16.8c0.7-1.2,1.3-2.5,1.6-3.8c0.9-6.6,5.3-12.2,11.5-14.6
	c8.7-3.6,17.7-6.1,26.7-9.3c2.8-1.1,4.7-0.4,6.8,1.7c5.6,5.7,11,11.7,17.4,16.5c5,4,9.1,8.9,12.2,14.5c4,7.2,9.3,13.7,15.5,19.1
	c1.4,1.1,2.9,2,4.6,2.6c6.5,2.6,13,1.2,19.5,0.1c2.2-0.4,4.7-0.8,6.5-2c8.2-6.2,12.7-13.9,10.8-24.7c-1.5-9.2-5.1-17.1-9.7-24.9
	c-3.8-6.5-9.2-11.4-14.6-16.6c-5.1-4.7-6.5-14.4-3.1-18.5c4.5-5.5,9.3-10.8,15.9-13.8c8.4-3.7,16.9-7.2,24.2-12.8
	c4.8-3.6,9.4-7.1,10.8-13.1c0.8-4.5,1.3-9,1.4-13.5C772.7,214.8,766,207.5,759.3,204.2z M349,407.3c-7-0.6-14.1-1.1-21.1-1.4
	c-6.1-0.2-11.5,1.7-17,3.8c-9.8,3.7-17.2,11-25.6,17.1c-4.5,3.1-8.3,7.3-13.8,9.3c-9,3.5-18.9,4-28.3,1.5c-8.4-2.2-16-6.6-22.2-12.7
	c-5.2-5.1-7.4-11.7-8.7-18.7c-1.9-10.7-1.1-21.7-5.2-31.8c-3-7.7-6.8-15.1-10.6-22.5c-4.7-9.1-10.2-17.9-11.5-28.2
	c-0.5-4.4,0.7-8.8,1.4-13.1c0.7-5.8,2-11.5,2.9-17.4c0.9-5,2.1-9.9,1.9-14.9c-0.4-8.8-2-17.5-6.4-25.8c-2.6-4.9-6-9.3-9.9-13.1
	c-3.9-3.8-8.2-7.1-13-9.8c-7.2-4.2-15.2-6.8-23.4-7.6c-0.5,0-0.9-0.1-1.4-0.2c-4.2-1.6-8.1-3.2-12.7-3.9
	c-6.7-0.9-11.3-6.1-15.5-10.9c-3.4-4.1-6.3-8.6-8.7-13.4c-3.1-6.2-4.7-12.9-2.7-20c2.1-6.4,5.4-12.3,9.8-17.4
	c2.5-3.2,5.5-4.5,9.9-3.5c6.2,1.5,11,4.2,14,9.9c2.4,4.5,4.5,9.2,7.2,13.4c4.1,6.6,8.2,13.3,15.8,16.7c4.1,1.7,9.1,1.7,10.7-1.1
	c2-3.1,3.9-6.8,4-10.4c0.1-6.6-1-13.3-1.7-20c-0.2-3.2-0.6-6.3-1.2-9.4c-1.4-5.7-1.2-11.5-1.4-17.4c0-6.1,1.8-12.1,5.2-17.1
	c0.9-1.3,1.6-2.8,2.2-4.2c2.5-6.1,7.8-7.3,14.6-5.8c2.6,0.6,5.2,0.7,7.8,1.5c2,0.5,3.8,1.5,5.3,2.8c5.3,5.5,8.9,11.7,9.7,19.5
	c1.2,9.7,0.6,19.6-1.9,29.1c-0.8,3.7-1.2,7.4-1.2,11.2c-0.4,3.5,0,6.9-0.1,10.3s1.7,5.3,4.5,6.3c6.4,2.4,13.5,2.5,20,0.4
	c8.2-2.4,16.8-2.5,25.1-0.4c6.9,1.9,11.5,8.3,11.9,15.6c0.2,3.9,0.7,7.6,0.6,11.3c-0.5,6.4-4.5,10.7-9.5,14c-6.8,4.5-14,4.8-21.8,3
	c-5.8-1.6-11.8-2.7-17.8-3.4c-7.3-0.9-14.1,1.6-20.8,4.5c-4.8,1.9-9.8,3.2-14.6,0.6c-8.7-4.8-10.3-11.5-3.6-18.1
	c8.9-9.1,19.7-13.3,32.8-10.8c5.9,1,12,1.2,18,2c6.7,0.7,13.4,1.6,20.1,2.5c0.4,0.1,1.1,0.2,1.2,0c0.6-0.7,1-1.5,1.4-2.4
	c0,0-0.8-0.9-1.2-0.7c-8.9,0.7-16.8-3.9-25.1-5.8c-4.4-1-8.7-1.9-13-2.5c-3.1-0.6-6.3-1.1-9.4-1.4c-3.7,0.1-7.3,0.3-10.9,0.8
	c-4,0.2-5.2-1.6-5-5.1c0.2-1.9,0.2-3.9,0.1-5.8c-0.2-8.8-0.5-17.6-0.6-26.6c-0.2-8.2-0.5-16.2-0.8-24.3c0-0.5,0.1-1,0-1.2
	c-0.5-1.1-1-2-1.5-3c-0.6,1-1.5,1.9-1.6,2.7c-0.9,4.5-1.5,9.1-1.9,13.6c-0.4,5.7-0.1,11.4-0.1,17.1c0.2,9.7,0.5,19.4,0.6,29.2
	c-0.1,3.8-1.4,7.5-3.9,10.5c-2.6,3.5-6.3,4.3-10.7,3c-6.7-2.1-13.6-4.2-20.3-6.4c-5.6-1.9-9.8-5.5-14-9.4
	c-5.2-4.9-9.4-10.7-12.5-17.1c-0.2-0.5-1.1-0.6-1.6-1c-0.1,1.9-0.4,3.8,0.4,5.3c3,5.3,5.6,11.2,9.6,15.9c5.3,6.6,13.6,9.2,21.3,12.2
	c5.2,1.7,10.5,3.5,15.9,5c3,0.9,2.9,3.2,2.4,5.2c-2.1,9.1,1.1,15.1,7.8,20.2c0.9,0.5,1.6,1.1,2.5,1.6c6.3,4.1,12.8,4.7,19.9,3
	c1.1-0.2,3.4,1.2,3.7,2.4c2.7,6.3,5.1,12.9,7.1,19.5c1.4,4.3,1.7,9,2.7,13.5c2.1,9.2-2.4,17.1-4.1,25.7c-1.5,7.3-4.1,14.9-1,22.5
	c0.5,1.4,1.1,2.7,1.9,4c6.1,9.5,12,19.1,15.5,29.8c2.5,7.9,3.9,16.1,5.6,24.2c1.9,8.6,3.5,17.2,5.1,25.8c0.9,4.6,4.2,7.2,7.9,8.7
	c7.9,3.2,19,2.5,24.8-6.1c2.9-4.2,7.6-7.2,11.9-10.3c4.5-3.4,9.4-6.4,14.5-8.8c4.5-2.1,9.4-3,14.1-4.7c8.7-3.1,17.9-2.6,26.8-2.4
	c3.6,0,6.9,1.4,10.4,1.7c3.1,0.4,3,2.9,2.6,4.2c-1.4,4.7-1.7,9,1.2,13.4C351.3,405.8,351.9,407.6,349,407.3z M436.3,386.1
	c4.1-0.1,8.3,5.5,7.1,9.3c-3.2,10.2-9.9,13.5-19.9,11.4c-4.8-1-9.6-2.4-14.3-4.1c-4.3-2-8.5-4.3-12.5-6.8c-0.6-0.4-0.9-1.5-1.2-2.2
	c0.7-0.3,1.5-0.5,2.2-0.5h7.1c9.2-2.1,17.7-4.3,26.4-6.3C432.9,386.4,434.6,386.1,436.3,386.1L436.3,386.1z M365,321.6
	c-3-6.6-7.7-12.6-12-18.6c-8.8-12-18.4-23.7-26.8-36c-0.1-0.2-0.2-0.4-0.4-0.6c-7.1-10.8-11.4-23.1-14.8-35.6
	c-4.1-14.9-4.5-30-3.7-45.2c0.6-11.3,2.2-22.5,4.8-33.5c3.3-14.2,7.7-28.1,13.3-41.6c4.8-12.4,10.7-24.4,17.5-35.8
	c1.3-2.5,2.8-5,4.5-7.4c6.8-10.4,13.4-21.1,21-31c5.5-7.3,12.2-13.8,18.4-20.5c0.8-0.8,1.9-1.4,3-1.6c0.7-0.1,1.4,0.2,2,0.6
	c0.5,1.7,0.7,3.5,0.6,5.2c-0.7,7.5-1.7,14.8-2.5,22.3c0,1.5,0.2,3.1,0.6,4.6c1.5-1.2,3.4-2.2,4.3-3.7c4-6,7.6-12.2,11.7-17.9
	c3.2-4.3,6.7-8.5,10.4-12.3c1.1-1.1,3.2-1.6,5-1.7c0.8-0.1,2.4,1.5,2.2,2.5c-0.1,6.3-0.7,12.6-1.1,19c-0.4,4.1-0.9,8.3-1.2,12.5
	c-0.1,1.8-0.4,3.7-0.9,5.5c-0.5,1.4-1.5,2.5-2.9,3.1c-8.3,2-15.4,6.7-23,10.3c-6.3,3.1-12.7,6.6-19.4,8.7c-3.5,1.1-7.8-0.4-11.7-0.7
	c-3.4-0.2-6.6-1-9.9-0.8c-3,0.1-6,2.5-7.6,5.6c-0.5,1.1-0.8,2.2-1,3.3c-1.6,10,5.3,16.7,13.8,18.5c3,0.5,6.1,1,9,1.2
	c7.9,0.4,15.3-2.2,22.5-5.3s14.4-6.7,21.7-10.2c2.2-1.1,3.5-0.4,4.6,1.7c3.2,5.8,6.1,11.8,9.8,17.2c4.1,6.6,10.3,11,16.8,15
	c7.8,4.6,15.6,9.3,24.7,11.3c3.5,0.7,7,1.3,10.5,1.6c3.7,0.2,7.3,0.5,10.9,0.6c6,0,10.3-4.7,10.7-10.7c0.5-9.1-3.5-11.8-11.4-13.8
	c-8.7-1.8-17.2-4.2-25.6-7.1c-9.8-3.7-16.7-11.2-22.1-20.2c-2.9-5.1-5.6-10.4-8.2-15.8c-1.7-3.6-3.7-6.8-7.1-8.8
	c-3.1-1.7-2.2-3.7-0.9-5.7c3.7-5.2,7.3-10.3,11.3-15.1c5.1-6.2,10.4-12.2,15.6-18.2c0.4-0.5,0.9-1.1,1.4-1.2c1-0.7,2.2-1,3.4-1
	c0.5,0.1,1.2,1.9,1.1,2.7c-0.4,7.6-0.9,15.1-1.2,22.6c0,1.5,0.1,3,0,4.5c-0.1,3-0.5,5.8-0.5,8.7c-0.1,0.7,0.5,1.5,0.7,2.2
	c0.6-0.4,1.2-0.8,1.7-1.2c4.2-5.2,8.3-10.4,12.6-15.5c4.1-4.7,8.3-9.2,12.5-13.8c2.7-3,4.8-1.7,6.1,1c8.1,16.2,14.1,33.4,17.9,51.1
	c1.9,8.8,3.2,17.7,4.6,26.6c1,7.8,1.7,15.8,2.6,23.7c0.5,5.6,0.9,11.3,1.1,17c0.5,7.9,0.6,15.8,0.7,23.7c0.2,7.6-1.2,14.6-2.3,22.1
	c-2.1,12.7-5.4,25.1-9.9,37.1c-4.6,12.4-10.2,24.2-18.4,34.7c-3.6,4.6-7.4,9.2-11.3,13.5c-0.4,0.6-0.8,1.1-1.4,1.6
	c-6.2,7-12.5,13.5-18.7,20.1c-3.6,4-6.8,7.4-9.8,11.2c-6.2,7.7-12.5,15.4-18.2,23.6c-2,2.9-2.9,6.8-3.2,10.4
	c-0.9,7.3-1.1,14.8-1.4,22.1c-0.2,5.1,0,10.3-0.1,15.3c-0.2,1-1,1.9-2,2.2c-6,1.5-11.8,2.9-17.6,3.8c-3.7,0.6-7.6,0.5-11.3,0.8
	c-2.4,0.1-4.3-0.2-6-2c-3.1-3.1-7.1-5.8-9.2-9.5c-1.9-3.6-1.9-8.2-2.5-12.3C371.9,348.5,370.9,334.5,365,321.6z M428.8,63.9
	c2.2,4.7,4,9.7,6.5,14.3c7.9,14.9,20,24.8,36.5,28.9c6.2,1.5,12.6,3,19,4.5c5.2,1.4,7,4.2,6.6,8.9c-0.2,4-4.1,7.1-8.4,7.1
	c-11.7,0.1-22.5-3.1-33.1-7.7c-7.7-3.2-14.9-7.3-21-13.3c-4.5-4.5-7.7-9.8-10.8-15.1c-2.2-3.6-4.2-7.4-6-11.3
	c-0.7-1.2-0.9-2.8-1.4-4.2c-0.2-0.5-0.6-1-1-1.5c-0.4,0.4-1.1,0.9-1.2,1.4c-0.5,3.5-3.5,5-6,6.2c-9.1,4.7-18,9.6-27.9,12.3
	c-7.9,2.1-15.9,3-23.6-0.1c-2.2-0.9-4-2.8-6-4.5c-3.2-5.1-3-10.4,0.7-13.3c1.4-0.9,3.1-1.3,4.7-1c4.3,0.5,8.7,1.6,13.1,2.1
	c5.2,0.7,9.9-1.4,14.4-3.6c8.7-4.2,17-8.9,25.6-13.3c2.5-1.3,5.1-2.2,7.8-2.9C421.6,56.9,426.8,59.6,428.8,63.9z M366.6,772.1
	c2.6-1.5,5.5-2.7,8.2-4c0.3-0.3,0.7-0.4,1.1-0.5c1.2,0.1,2.6,0.4,4,0.6c-0.9,0.7-1.6,1.7-2.6,2.5c-9.7,6.6-19.3,13.3-29.3,19.6
	s-20.5,12.3-30.6,18.6c-6.6,4.2-13,8.9-19.4,13.7c-4.1,3-7.9,6.6-11.9,9.9c-0.3,0.2-0.6,0.3-1,0.4c-0.8,0.1-1.6,0.1-2.4,0.1
	c0-0.8,0.3-1.6,0.7-2.2c2.9-2.6,6-5.1,8.9-7.6l14.6-11.5c5.7-3.5,10.8-7.2,15.9-10.8c7.8-5.6,15.6-11.2,23.6-16.5
	C353,780,359.8,776,366.6,772.1z M382.8,774.2c-9.1,6-18.2,11.9-27.4,17.7c-13.5,8.6-27.3,16.8-40.6,25.7
	c-7.6,5-14.5,10.8-21.7,16.2c-0.4,0.4-0.6,0.9-1,0.9c-1.1,0.1-2.1,0.1-3.2,0c0.4-1,0.4-2.1,1-2.7c4.3-3.3,8.7-6.7,13.1-9.9
	c6.3-4.6,12.8-9.2,19.2-13.5c6.3-4.1,12.6-8.1,19.1-12c5.7-3.5,11.5-6.9,17.4-10.4l20.1-13.6c1-0.6,2.2-0.9,3.4-1
	c0.7,0,1.6,0.9,2.4,1.4C384,773.4,383.4,773.8,382.8,774.2L382.8,774.2z M391.1,778.8c1.1,1,2.4,1.9,3.6,3c1.6,1.5,1.4,2.7-0.6,3.6
	c-7.2,3.3-14.5,6.3-21.6,9.8c-8.8,4.2-17.4,8.9-26.2,13.4c-9.9,5-20,9.8-30,14.6l-9.7,5.2c-0.8,0.2-1.6,0.3-2.5,0.4
	c0.3-0.9,0.8-1.6,1.5-2.2c4.6-3.1,9.4-6.1,14.1-9c7.1-4.7,13.9-9.1,20.7-13.4l40.2-25.7c0.2,0,0.4,0,0.6-0.1
	C386.5,774.5,386.5,774.5,391.1,778.8L391.1,778.8z M275,824.5c-0.2-1.5-0.6-3.1,0-3.8c4.5-5.2,10.5-8.6,16.4-11.9
	c0.6-0.4,1.6,0.1,2.5,0.2c-0.4,0.6-0.6,1.6-1.2,2c-4.8,4-9.8,8-14.9,11.9C277,823.5,275.8,823.9,275,824.5z M277.9,827.6
	c0.3-0.9,0.9-1.8,1.6-2.5c2.5-2.5,5.2-4.8,7.8-7.3c0.2-0.1,0.8-0.2,1.1-0.4c8.4-10.2,19-16.5,30.3-22.1c7.3-3.6,14.4-7.9,21.6-11.8
	c1.1-0.6,2.5-0.5,3.7-0.7c-0.8,1.1-1.4,2.5-2.4,3.1c-8.7,5.5-17.5,10.5-25.9,16.2c-6.9,4.6-13.4,9.9-20,15
	c-4.6,3.6-8.8,7.6-13.3,11.3c-0.6,0.5-1.3,0.9-2.1,1.1c-0.7,0.2-1.4,0.2-2-0.1C277.9,829,277.7,828.3,277.9,827.6L277.9,827.6z
	 M282,844.4c-0.9-1.2-1.6-2.4-2.4-3.6c-0.4-2.5-0.9-4.2-1.2-6.2c0,0,0.7-0.6,1-0.4c1.6,0.6,5.5,8.3,4.7,9.8
	C283.5,844.4,282.7,844.6,282,844.4z M287.1,844.4c-0.1,0.2-0.5,0.4-0.7,0.6c-0.2-0.7-0.6-1.5-0.9-2.2c-0.4-1-0.8-2-1.1-3.1
	s-0.6-2.3,1.4-1.7c0.7,1.3,1.2,2.6,1.5,4C287.3,842.8,287.3,843.6,287.1,844.4L287.1,844.4z M298,850.1c-5.5-0.2-8.3-2.4-9.8-7.2
	c-0.9-2.6-0.1-4,2.6-3.6c4,0.6,8.6-0.4,11.7,3.2c0.1,0.2,0.1,0.6,0.2,0.9c-0.1,0.5-0.1,1.1,0,1.6C303.6,850.3,303.6,850.3,298,850.1
	z M296.8,837.3c-1-0.2-1.9-0.6-2.9-1c0.9-0.6,1.6-1.1,2.5-1.6c7.6-3.3,15.4-6.6,23-10.2c11.8-5.7,23.3-11.5,35.1-17.4
	c7.9-3.8,15.9-7.9,23.8-11.8c5.7-2.7,11.5-5.2,17.4-7.7c2.5-1.1,5.1-2,7.7-2.8c0.6-0.1,1.5,0.5,2.2,0.8c-0.5,0.6-0.9,1.5-1.5,1.7
	c-7.8,3.7-15.5,7.3-23.3,10.9c-5,2.4-10,4.7-15,7.1c-8.8,4.2-16.9,8.7-25.1,12.8c-10.4,5.2-21.1,9.9-31.3,15.6
	C305.4,836.2,301.5,837.7,296.8,837.3L296.8,837.3z M333.5,843.8c0,5.2-0.6,6-5.7,6.2c-6.2,0.5-12.5,0.6-18.9,0.8
	c-2.1,0.1-3.1-1-3-3.1v-1.2c-0.4-5.2-0.1-5.5,5.3-5.8c1.1-0.2,2.2-0.4,3.2-0.7c5.7-0.8,10.9-1.6,16-2.4c1.6-0.2,3.1,0,3,2.2
	C333.4,841,333.5,842.5,333.5,843.8L333.5,843.8z M321.9,836c-3.9,0.8-7.8,1.4-11.7,1.9c-0.8-0.2-1.6-0.5-2.4-1
	c0.5-0.4,1.1-1.2,1.7-1.4c15.4-5,29.3-13,43.3-21.1c2.5-1.4,5-2.4,7.5-3.6c9-4.3,17.7-8.2,26.4-12.3c7.1-3.3,13.9-7.1,20.8-10.4
	c1.5-0.8,3.2-1.4,4.8-1.7c0.6-0.1,1.5,0.5,2.4,0.7c-0.5,0.6-1,1.1-1.6,1.6c-8.6,4.5-17.2,8.7-25.7,13.5c-5.5,3-10.5,6.8-15.9,10.2
	c-7.9,4.7-16,9.4-23.9,14c-4,2.4-7.9,5-12.3,6.6S326.5,835.1,321.9,836z M418.1,788.4c2.9-1.4,6.3-2,9.5-2.9c0.6,0,1.2,0.1,1.7,0.4
	c-0.4,0.5-0.7,1.2-1.2,1.5c-4.8,2.7-9.5,5.2-14.4,7.7c-8.9,4.7-17.2,9.6-25.5,14c-11.8,6.5-23.7,12.7-35.6,19.1
	c-0.2,0.1-0.4,0.2-0.5,0.2l-2.6,0.4c0.6-0.6,1-1.4,1.7-1.7c5-3.1,10.2-6,15.1-8.9c7.3-4.3,14.4-8.9,21.7-13.3
	c4.8-2.8,10-5.2,14.9-7.9C408.1,794.2,412.9,790.9,418.1,788.4L418.1,788.4z M452.4,787.9c-2.7,1.6-5.6,3-8.3,4.6
	c-13.3,7.2-26.5,14.6-39.9,21.8c-16,8.7-32,17.1-48.3,25.6c-4.3,2.2-9.2,4-13.8,5.8c-0.1,0.1-0.1,0.2-0.2,0.2
	c-4.3,1.4-5,0.9-5.2-3.5c-0.2-3.7,0.9-5.6,4.6-7.2c11.2-4.7,22.3-9.7,33.2-15.3c12.4-6.5,24.4-13.5,36.6-20.3
	c4.6-2.5,9.3-5,13.9-7.4c4.8-2.2,9.3-4.8,13.9-6s9.4-0.6,14.1-0.8c0.2,0,0.5,0.2,0.7,0.4C453.5,786.6,453,787.3,452.4,787.9
	L452.4,787.9z M587.1,821.4c-5.4,0.3-10.7-1-15.4-3.6c-8.4-4.5-16.5-9.4-24.8-14.4c-5.2-3.8-9.9-7.2-14.9-10.8
	c-5.7-4.2-11.4-8.4-17-12.8c-1.2-1-2.7-2.5-1.1-4.1c1.7-1.9,4-2.6,6.1-1c4.6,3.3,9,7,13.6,10.3c8.3,6,16.5,11.9,25.2,17.2
	c3.7,2.4,8.7,2.7,12.9,4.5c4.6,1.9,9.6,2.8,14.6,2.5c2.6-0.1,3.7,1.2,3.7,3.8c0.1,1.5,0.4,3.1,0.6,4.6
	C591.1,820.3,589.6,821.2,587.1,821.4L587.1,821.4z M522.3,772.5c0.5-0.2,1.1-0.2,1.6-0.5c2-0.9,4-1.6,6.1-2.2
	c2.3-0.7,4.8-0.1,6.6,1.5c5.7,4.6,11.8,8.6,17.7,12.8c7.7,5.5,15.4,11.2,23.2,16.8c1.5,1,3.2,1.9,4.7,2.8c0.4,0.4,0.4,1.1,0.6,1.6
	c-0.5,0-0.9,0.2-1.4,0.1c-1.9-0.4-3.8-0.9-5.8-1.2c-6.5-2.2-12.5-3.7-18-6.8c-7.3-4-14.1-9.1-21.1-13.9c-4.5-3-8.7-6.3-12.9-9.5
	C523.3,773.3,522.8,772.9,522.3,772.5L522.3,772.5z M582.1,800.8c-8.9-6.2-17.5-12.9-26.4-19.1c-6.1-4.3-12.5-8.1-18.9-12
	c-0.4-0.2-0.8-0.4-1.1-0.7c0.2-0.5,0.5-1.1,0.9-1.2c4.3-1.4,8.6-2.7,12.8-3.8c1-0.2,2.2,0.4,3.2,0.6l0.4-0.5c0.6-0.4,0.9-1,1.4-1.2
	c5.3-2.5,10.7-5,16.1-7.1c1.1-0.5,3.2,0.4,4,1.2c2.2,2.4,4,5.2,6,7.7c1.6,1.9,0.8,3.2-1,3.5c-3.1,0.5-6,1.9-8.3,4.1
	c-1.6,1.5-3.2,1.1-5.1-0.1c-4.1-2.7-8.4-5.2-12.7-7.7c-0.2,2.5,2,3.2,3.5,4.5c2.4,1.6,4.7,3.1,7.1,4.8c2,1.5,3,3.2,1.7,6
	c-1.4,3.1-0.5,5.5,2.6,6.7c4.3,1.5,8.6,2.7,13,3.6c4.3,0.9,8.9,1.1,13.5,2c1.5,0.4,2.9,1.6,4.3,2.4c1.5,0.5,3.2,1.4,4.3,0.9
	s1.7-2.2,2.6-3.5c0.8-1,1.2-2.5,2.2-2.8c6.1-2.6,11.8-0.2,15.1,5.7c1.2,2.1,0.2,3-1.5,3.6c-5.3,1.6-10.7,3.3-16,4.6
	c-5,1-9.9,1.4-15,2C587.3,805.1,584.7,802.6,582.1,800.8L582.1,800.8z M623.8,767.4c-3.6,3.2-7.2,6.5-10.8,9.5l-0.1,0.1
	c-0.9,0.5-8.4,3.7-12.4,5.5v0.1h-0.1l0.1-0.1c0.5-0.5,1-1.1,1.6-1.5c2.9-2,5.8-3.8,8.8-5.8c3.7-2.9,6.8-5.8,10-8.7
	c1-0.8,2.4-1,3.6-0.5C624.3,766.5,624.2,767.1,623.8,767.4L623.8,767.4z M627.3,767.4c1.2-1.5,3.7-2.1,5.7-3c0.6,0,1.3,0.1,1.9,0.2
	c-0.4,0.5-0.6,1.2-1,1.7c-7.2,7.3-15.1,13-25.3,15.4c-1.9,0.4-3.6,1.4-5.3,1.7c-0.7,0.2-1.5-0.2-2.4-0.6c4.5-1.6,12.5-4.6,12.9-4.7
	C619.1,775.8,623.8,772.1,627.3,767.4L627.3,767.4z M615.3,769.6c-1.8,1.5-3.6,3-5.6,4.3c-4.7,3-8.7,7.5-14.5,8.1
	c-4.7,0.4-9.6,1.9-14.2-1c-3-1.9-3.6-7.5-0.7-9.7c0.4-0.2,1.2,0.1,1.9,0.2v0.1c-0.1,0.8-0.2,1.6-0.4,2.5c-0.1,0.6-0.2,1.2-0.2,1.7
	c-0.1,0.2-0.1,0.4,0,0.6c0,0.5,0,0.9,0.2,1.1c0.7,1.4,3.3,1.7,5.2,2.5c15.4,0,26.8-10.9,28.2-13c0.4,0.1,0.9,0.2,1.2,0.4
	C616.1,768.3,615.7,769,615.3,769.6L615.3,769.6z M580.2,782.3c0.8,0.4,1.6,0.9,2.3,1.4c0.1,0.1,0.1,0.5,0.1,0.6
	c-1.6,0.8-6.5-1.1-7.3-3c-1.9-3.8-1.2-7.3,1.5-8.6c0.1,0,0.4,0.2,0.5,0.2c0,0.8-0.2,1.6-0.5,2.4C575.9,778.5,577,781,580.2,782.3
	L580.2,782.3z M587.3,779.1H587c-1.2-0.4-2.4-1-3.5-1.7c-0.1-0.1-0.1-0.1-0.1-0.2c-0.6-1.7-0.9-3.5-0.9-5.3c1.5-0.9,2,0.1,2.7,1.5
	c0.7,1.3,1.8,2.3,3.1,3c0.1,0.1,0.2,0.1,0.4,0c0,0,0,0,0,0c1,0,2-0.2,3-0.4c5.8-1,17.2-4.2,20.8-9.1c0.7,0,1.3,0,2,0.1
	c0.1,0,0.2,0.1,0.4,0.1C612.9,768.5,601.5,778.5,587.3,779.1L587.3,779.1z M589.5,774.7h-0.1c-2.6-0.5-1.7-2.2-1.6-3.7
	c0-0.2,0.9-0.6,1.4-0.8s0.9,0.4,1,0.8c1.5,2.7,4.2,3.2,6.5,1.4c1.2-1.1,2.7-1.8,4.2-2.2c3.8-0.6,7.3-3.1,11.2-3.2
	C600,774,590.8,774.8,589.5,774.7L589.5,774.7z M591.2,766.8c-2.6,0.4-5.5,1-7.3-1.9s-4-5.2-5.8-7.9c-0.6-0.9-2.7-2.1-0.5-3.3
	c1.9-1.1,4-2.6,5.5,0.5c0.2,0.4,0.5,0.6,0.7,1c2.9,3.2,5.5,6.1,8.2,8.8C593.4,765.4,592.4,766.5,591.2,766.8L591.2,766.8z
	 M573.9,783.8c-0.4,0.1-1.1,0.5-1.5,0.4c-3.3-1.7-3.5-6.2-0.1-8.6C573.7,777.9,571.1,781.2,573.9,783.8L573.9,783.8z M626,812.9
	c-6.3,2.1-12.8,4-19.2,5.8c-2.5,0.7-5.1,1.2-7.7,1.6c-4.6,0.4-5.7-0.7-5.7-5.1c0.1-0.5,0.1-1.1,0-1.6c-0.9-3.5,1.1-5,4.2-5.8
	c9.2-2.3,18.5-4.6,27.5-7.2c2-0.5,1.9,0.2,2.1,1.4c0.7,2.4,1.1,4.9,1.2,7.4C628.2,810.9,627.2,812.2,626,812.9L626,812.9z
	 M626.2,792.5l-6.7-6.3c-0.1-0.2-0.2-0.4-0.2-0.6c3.5-1.2,6.8-2.7,10.3-3.7c0.7-0.2,1.9,1,2.8,1.5c1.4,1.2,2.7,2.6,3.8,4
	c0.7,0.9,1.1,2.1,1,3.2C636,793.5,628.5,794.8,626.2,792.5L626.2,792.5z M633.5,809.7c-0.4,0.2-2.1-1-2.4-1.7
	c-0.7-2.5-1.1-5.1-1.2-7.7c0-1.1,1.1-2.5,2.2-3.2c1.9-1.1,4-2.1,6.1-2.8c0.7-0.2,1.5,0.1,1.9,0.7c0.9,3.1,1.7,6.3,2.5,9.4
	C639.7,806.3,636.6,808.1,633.5,809.7L633.5,809.7z M652.6,777.9c0.3,0.6,0.6,1.2,0.7,1.9c-0.1,4-0.4,7.8-0.5,11.8
	c-1.9,3.1-3.2,6-5,8.6c-0.7,1.1-2.4,2.1-2.8-0.7c-0.4-2.2-1.7-4.2-2.2-6.5c-0.2-1.1,0.2-2.3,1-3.1c3.1-3.3,6.8-6.1,7.7-10.9
	C651.6,778.5,652.2,778.3,652.6,777.9L652.6,777.9z M646.6,768.4c0.9,0.2,2.6,0.4,2.8,0.9c0.5,2,0.9,4,1.1,6
	c-1.7-0.9-3.1-2.1-4.2-3.6C646,770.8,646.5,769.5,646.6,768.4L646.6,768.4z M646.1,783.5l-3.8,3.8c-3-2.1-5.8-4.5-8.4-7.1
	c-0.1-0.1-0.2-0.3-0.2-0.5c2.1-2.1,4.4-4,6.8-5.7c1.6-1.1,3.3-0.5,5,1C649.7,779.4,649.9,779.9,646.1,783.5L646.1,783.5z
	 M641.1,763.2c0.8-0.1,1.6,0,2.2,0.5c0.2,0.1,0,1.5-0.4,1.9c-1.9,2.1-3.8,4-5.8,5.8c-4.8,4.8-10.5,7.4-16,10.3
	c-6.4,3.1-13.3,4.9-20.3,5.2c-1.5,0.1-3,1.1-4.5,1.1c-2.7,0-5.4-0.2-8.1-0.6c-0.2,0-0.5-0.5-0.6-0.7c0.4-0.1,0.9-0.4,1.2-0.5
	c4.7-0.5,9.2-2.1,14.3-0.9c2.8,0.8,6.6-1.1,9.7-2.3c8.3-3.3,16.2-7.6,22.6-14.3c1.2-1.2,2.2-2.6,3.5-4
	C639.4,764,640.2,763.4,641.1,763.2L641.1,763.2z M597.1,732.2c1.1,0.1,2.2-0.1,3.1,0.4c2.1,1.2,4,2.6,6,4
	c9.4,6.8,18.4,13.4,27.4,19.8c1.1,0.7,2.4,1.5,3.5,2.4c0.6,0.5,1.1,1,1.6,1.6c-0.7,0.4-1.5,0.7-2.2,0.9c-3.7,0.5-7.1-1-9.8-3
	c-8.9-6.3-17.6-12.8-26.3-19.2c-1.4-1.1-2.5-2.5-3.3-4.1C596.5,734.2,597,733,597.1,732.2L597.1,732.2z M601.8,743.7
	c7.8,5.6,15.5,11.2,23.2,16.9c0.6,0.4,1.1,0.9,1.6,1.5c-0.6,0.1-1.4,0.2-2,0.4c-1.1,0.3-2.2,0.5-3.3,0.6c-4,0.7-6.5-1-9.1-4.2
	c-5-5.7-10.7-10.8-16-16.2c-0.7-0.9-1.2-1.8-1.6-2.9C598.1,739.2,599.5,742.2,601.8,743.7L601.8,743.7z M595.8,745.3
	c4.2,4.7,8.7,9.2,13,13.8c0.5,0.5,1,1,1.5,1.6c0.6,0.7,1,1.7,1.6,2.5c-0.9,0.5-1.8,0.9-2.7,1.2c-2.7,0.8-5.5,1.4-8.2,2.2
	c-3.5,1.4-4.7-1.6-6.3-3.3c-3.6-3.6-6.7-7.7-10.3-11.2c-1.4-1.2-0.9-1.5,0-2.1c0.7-0.6,1.4-1.1,2.2-1.6c1.4-1.2,2.7-2,3.6-3.1
	C592.2,743.3,593.8,743.3,595.8,745.3L595.8,745.3z M509.8,699.7c1-0.4,1.5-1.9,2.2-2.8c-1.2-1.1-2.4-2.1-3.7-3
	c0.2-0.4,0.5-0.8,0.7-1.1c1.4,0.1,2.9,0.1,3.9,0.7c2.3,1.2,4.6,2.8,6.9,4.3c3,0.9,5.9,2.3,8.6,4c3.5,2,7.2,3.5,10.5,5.6
	c3.2,1.4,6.5,2.7,9.8,3.8c2.6,0.7,5.3,1.2,8.1,1.4c6.8,0.9,13.5,1.7,20.5,2.5c5.2,0.7,7.9,4.7,10.9,8.4c2.7,3.5,5.1,7.3,3.6,11.8
	c-1.7,5.1-5.8,9.2-10.9,10.9c-10.7,4.1-21.3,8.1-32,11.9c-2.5,0.9-4.8,1.7-7.3,2.6c-9.2,3.3-18.8,5.3-27.5,10.1
	c-3.7,2-7.2,4.7-11,6.6c-6.9,3.5-14.6,5.5-22.4,5.6c-4.2,0-8.6,0.8-12.9,0.5c-10-0.6-20.1-1.7-30.3-2.5c-4.6-0.2-9.2,0.2-13.8-0.1
	c-6.7-0.4-13.5-0.9-20.4-1.9c-5-0.7-8.8-4-12.6-7c-4.7-3.6-8.4-8.8-14.6-10.3c-0.5-0.1-1.1-1.6-1-2.5c0.6-4.2,9.3-11.7,13.6-11.3
	c0.9,0,1.9,2.1,2.1,3.5c0.2,1.7-0.4,3.6-0.4,5.5c0,0.6,0.8,1.1,1.1,1.6c0.6-0.3,1-0.8,1.4-1.4c0.6-1.7,1-3.4,1.2-5.2
	c1-7.3,5.7-12,10.9-16.4c7.3-6,15.6-11.2,19-20.7c1.6-4.9,3-9.8,4.1-14.8c0.5-3.6,3.2-6.5,6.7-7.3c8.7-2.7,17.6-3.1,26.8-2
	s17.9,4.5,26.3,8.3c3.7,1.7,7.6,2.6,11.7,2.6C503.1,701.6,506.6,700.9,509.8,699.7L509.8,699.7z M448.8,509.5
	c2.7,11,5.5,22.2,8.2,33.2c3.1,11.9,6.3,23.7,9.4,35.6s6.1,23.6,9.2,35.5c2.9,10.7,5.8,21.2,8.9,31.8c3.6,12.2,7.2,24.3,10.9,36.5
	c1.2,4,3,7.7,4.4,11.7c0.3,1.1,0.5,2.3,0.5,3.5c-1.2,0-2.4-0.1-3.6-0.4c-7.3-2.5-11.2-7.6-12.9-15.1c-2.2-9.8-4.8-19.5-7.8-29.2
	c-5.3-17.5-11-34.9-16.4-52.3c-3.5-11.5-6.5-23.2-9.7-34.7c-0.4-0.7-0.8-1.4-1.4-2c-0.1,0.9-0.6,1.6-0.4,2.4
	c1.7,8.3,3.7,16.6,5.6,24.8c2.2,6.7,4.1,13,6,19.5c2.9,9.6,5.6,19.1,8.4,28.7c2.2,7.7,4.6,15.5,6.8,23.2c2.2,7.9,4.5,15.9,6.7,23.8
	c0.9,2.7,0.2,3.6-2.5,3.1c-4.8-1-9.5-2.4-14.4-3.1c-4.5-0.7-9-1.2-13.5-1.4c-3.5-0.1-5-1.2-5.8-4.5c-2.5-9.8-5.1-19.5-7.7-29.2
	l-0.6-2.2l-8.9-34.5c-2.2-8.6-4.6-17.1-6.7-25.7c-2.4-9.4-4.6-19-6.7-28.5c-1.6-6.7-3.1-13.3-4.5-19.8c-1.9-8.4-3.4-16.9-5.2-25.2
	c-0.9-4-2-7.8-3.2-11.8c-0.2-0.7-1.1-1.4-1.6-2.1c-0.5,0.9-0.8,1.9-0.9,2.9c1.5,6.6,3.1,13.1,4.6,19.9c1.7,7.8,3.2,15.6,5,23.4
	c2.9,12.7,5.7,25.4,8.7,38.1c2.5,10.7,5.2,21.3,7.9,31.9c3.4,12.4,6.8,24.9,10,37.3c2.5,9.2,4.7,18.5,7.1,27.5
	c0.1,0.4,0.1,0.8,0,1.1c-1,3-3.9,2.7-6,3.1c-1,0.1-3-1.6-3.4-2.8c-4.8-15.6-9.5-31.3-14.1-47c-3.1-10.5-6.2-21.3-8.8-32.1
	c-2.5-10.2-4.3-20.6-6.6-30.9c-1.9-9.2-4-18.4-5.7-27.7c-1.5-8.1-2.6-16.2-3.8-24.3c-1.5-8.9-3.1-18-4.5-26.9
	c-1-6.7-1.7-13.4-2.6-20.1c-1.2-8.6-2.7-17.2-3.9-25.9c-0.5-4.7-0.7-9.4-0.6-14.1c0-2.7,3.2-3.5,6.6-2c7,3.2,13.6,7,21,9.1
	c6.2,2,12.4,4.1,19.2,3.9c3.5-0.1,5.2,2.2,6.3,7.6c1.7,8.4,3.2,17,5.2,25.4C443.4,488.5,446.2,498.9,448.8,509.5L448.8,509.5z
	 M447.2,418.7c-2.1,3.9-4.1,7.8-6.8,11.2c-4.7,5.8-11.4,7.8-18.5,6.8c-7.5-1.1-14.8-2.7-21.5-6.3c-6.1-3.1-12.2-6.1-18.2-9.2
	c-4-2.1-7.9-4.6-11.9-6.8c-3-2.2-5.6-4.2-8.1-6.2c-7.5-6.1-7-12-2.6-20.1c2.5-4.7,5.1-6.3,12.3-2.6c4.4,2.1,8.4,4.8,12,8.1
	c6.2,6,12.8,11.5,20.6,15.3c5.6,2.7,11.7,4,17.7,5.1c5.8,1,11,0,16.2-2c1.5-0.6,3-0.8,4.6-0.6C448.1,412,449.3,414.6,447.2,418.7
	L447.2,418.7z M764.9,235.8c-1.6,5.3-6.7,8.2-11.4,11c-9.2,5.3-18.4,10.8-27.3,16.6c-3.5,2.4-6.6,5.4-8.9,8.9
	c-4.2,5.8-4.3,18.6,1.9,24.3c5.3,4.8,11,9.3,14.8,15.9s7.2,13.4,8.1,21.3c0.5,4.7,0.1,9.5-1.2,14c-1.9,6.8-7.1,9.2-13,9.9
	c-9.4,1.2-18.4-0.9-24.8-8.6c-3-3.8-5.6-8-7.7-12.4c-4-7.4-10.4-12.5-16.6-18c-3.2-2.7-7.1-4.8-9.7-8.1c-3.8-4.8-6.3-10.8-4.3-17
	c1.7-5.8,7.1-9.2,14.3-7c16.1,5.5,26,16.5,32.4,31.4c1.9,4.3,5.5,8.1,8.3,11.9c0.8,1.2,1.7,2.3,2.7,3.4c0.5,0.5,1.2,0.5,1.9,0.7
	c0.1-0.7,0.6-1.6,0.4-2.2c-2.2-4.7-4.5-9.3-6.8-13.9c-6-11.5-14.9-20.7-23.9-29.8c-2.4-2.2-3.1-4.5-1.2-7.8c1.7-3,2.2-6.7,4-9.8
	c2.3-4.2,4.8-8.6,8.2-11.9c6.6-6.9,13.8-13.5,21.1-20c5.7-5.1,12.7-7.9,20.1-10.2c0.4-0.1,0.9-0.1,1.1-0.4c0.6-0.6,1.2-1.5,2-2.2
	c-1.1-0.2-2.5-1-3.3-0.7c-10.8,3-20.7,8.4-28.9,16c-4.7,4.4-9.8,8.3-14.1,13c-5.7,6.2-11,13.2-13.4,21.6c-0.4,1.1-0.7,2.3-0.9,3.5
	c-0.4,3.6-2.8,4-5.7,3.6c-4.7-0.5-9.4-1.2-14.3-1.9c-2.7-0.4-2.1-2.9-2.6-4.4c-2.2-9.7-4.5-19.4-6.3-29c-0.7-4.7-1.1-9.5-1.4-14.3
	c-0.1-1.5,0.1-3.1,0-4.6c-0.5-6.8,1.6-13.4,2.8-20.2c0.2-0.9-0.5-2-0.7-3.1c-0.8,0.8-1.9,1.4-2,2.1c-1.2,5.3-2.7,10.6-3.2,16
	c-0.6,7.8-0.8,15.5-0.6,23.3c0.2,9.4,2.7,18.5,5.7,27.4c1.7,5.6,2.7,10.9-1.7,16c-1.4,1.5-1.6,4-2.1,6.1c-0.6,2.4-1.7,4.2-4.2,5.2
	c-6,2.2-11.8,4.6-17.6,7c-3.8,1.5-8.1,2.4-11.5,4.5c-3.5,2.1-6.5,5-8.8,8.3c-4.8,7.1-7.7,15.2-9.7,23.4c-0.1,0.3-0.1,0.7,0,1
	c-0.2,8.1-0.6,16.3-0.6,24.4c0,7.5,0.6,15,0.5,22.6c-0.1,12.7-2.4,24.9-7.7,36.6c-4.6,10.5-10.2,20.5-16.6,29.9
	c-3.4,4.3-7,8.3-10.9,12.2c-2.9,2.9-5.8,6-9.3,7.9c-4.3,2.3-8.9,4-13.6,5.1c-8.5,1.9-17.3,2.6-26.1,1.9c-13-0.7-23-6.7-29.6-18.2
	c-3.5-6.1-4.8-12.9-6.5-19.7c-1-4.2-2.4-8.4-4-12.4c-2.7-7.7-9.2-11.5-16.4-14c-3.5-1.1-5-3.4-6.5-6.3c-2-4-4.1-7.8-6.1-11.8
	c-0.5-1-1-2-1.5-2.9l2.9,0.4c8.1,1.5,16,2.9,24.1,4.5c7.8,1.5,14.1,5.6,17.7,12.8c3.6,6.9,6.6,14.4,9.7,21.6
	c2.2,5.2,3.2,11.2,7.7,15.4c5.9,5.5,12.6,9.2,20.8,9c2.4-0.2,4.8-0.9,7-2c3.2-1.4,6.2-3.5,9.4-4.7c7.7-2.9,12.9-8.2,16.5-15.4
	c3.6-7,7-13.9,10.7-20.8c3.9-7.3,6.2-15.3,6.6-23.6c0.5-9.2,1.4-18.5,1.2-27.7c-0.1-6.2-2-12.4-2.4-18.7c-0.2-4.5,0.2-9.1,1.2-13.5
	c1.5-6.7,3.4-13.3,5.8-19.7c1.4-3.8,3.6-7.3,6.5-10.3c5.2-5.3,10.8-10.2,16.8-14.6c3.1-2.4,7.5-3,11.3-4.1c1.9-0.6,3.8-1.1,5.8-1.4
	c4.1-1,7.1-5.3,8.2-10.2c1.5-6-0.7-11.4-1.5-17.1c-0.5-4.5-1.6-8.7-2.4-13c-0.6-4.1-0.9-8.2-1.2-12.3c-0.7-7.8,1.2-14.9,5-21.6
	c3.8-7,6.6-14.5,12.3-20.2c5.5-5.5,15.8-6.4,22.2-2.2c2.6,1.6,4.2,3.7,4,6.9c-0.2,7.8-0.1,15.6-0.6,23.4c-0.5,5.9-2.1,11.9-2.3,17.9
	c-0.1,4-1.5,8.2,1,12.2c2.6,4.3,5,4.6,8.9,1.9c3.6-2.7,6.9-5.9,9.7-9.6c6.8-8.3,13.5-16.6,22.3-22.8c5.8-4.2,11.8-8.3,18-12.1
	c3.4-2.1,7.4-2.8,11.3-1.9c3.6,0.7,7.2,0.7,10.7,1.5c6,1.1,11.7,7.1,11.9,13.1C766.1,226.6,766.2,231.5,764.9,235.8z"/>
<path class="st1" d="M587,780.1c-1.9-0.8-4.5-1.1-5.2-2.5c-0.2-0.2-0.2-0.6-0.2-1.1c-0.1-0.2-0.1-0.4,0-0.6c0-0.6,0.1-1.2,0.2-1.7
	c0.1-0.9,0.2-1.7,0.4-2.5v-0.1c-0.6-0.1-1.5-0.5-1.9-0.2c-2.8,2.2-2.2,7.8,0.7,9.7c4.6,2.8,9.4,1.4,14.2,1c5.8-0.6,9.8-5.1,14.5-8.1
	c1.9-1.3,3.8-2.8,5.6-4.3c0.5-0.6,0.9-1.4,1.1-2.1c-0.4-0.1-0.9-0.2-1.2-0.4C613.8,769.2,602.3,780.1,587,780.1z"/>
<path class="st2" d="M612.5,766.7c-3.6,4.8-15,8.1-20.8,9.1c0.2,0.2,0.5,0.4,0.8,0.5c-1.2,0.1-2.5,0.1-3.7-0.1
	c-0.1,0.1-0.2,0.1-0.4,0c0,0,0,0,0,0c-1.3-0.7-2.4-1.7-3.1-3c-0.7-1.4-1.2-2.4-2.7-1.5c0,1.8,0.3,3.6,0.9,5.3c0,0.1,0,0.1,0.1,0.2
	c1.1,0.8,2.2,1.4,3.5,1.8h0.2c14.3-0.5,25.7-10.5,27.7-12c-0.1,0-0.2-0.1-0.4-0.1C613.9,766.8,613.2,766.7,612.5,766.7z"/>
<path class="st3" d="M596.5,772.3c-2.2,1.9-5,1.4-6.5-1.4c-0.1-0.4-0.6-0.9-1-0.8s-1.4,0.5-1.4,0.8c-0.1,1.5-1,3.2,1.6,3.7h0.1
	c1.4,0.1,10.5-0.6,22.5-7.8c-3.8,0.1-7.3,2.6-11.2,3.2C599.2,770.5,597.7,771.2,596.5,772.3z"/>
<path class="st4" d="M621,766.5c-3.2,2.8-6.3,5.8-10,8.7c-3,2-6,3.8-8.8,5.8c-0.6,0.5-1.1,1-1.6,1.5c4-1.7,11.5-5,12.4-5.5l0.1-0.1
	c3.6-3.1,7.2-6.3,10.8-9.5c0.4-0.2,0.5-0.9,0.8-1.4C623.4,765.5,622,765.7,621,766.5z M577.3,772.9c-0.1,0-0.4-0.2-0.5-0.2
	c-2.7,1.2-3.3,4.7-1.5,8.6c0.9,1.9,5.7,3.7,7.3,3c0-0.1,0-0.5-0.1-0.6c-0.8-0.5-1.5-1-2.3-1.4c-3.1-1.2-4.2-3.7-3.3-7
	C577.1,774.5,577.3,773.7,577.3,772.9z"/>
<path class="st5" d="M612.8,782.9c-3.1,1.2-6.8,3.1-9.7,2.3c-5.1-1.2-9.6,0.4-14.3,0.9c-0.4,0.1-0.9,0.4-1.2,0.5
	c0.1,0.2,0.4,0.7,0.6,0.7c2.7,0.4,5.4,0.6,8.1,0.6c1.5,0,3-1,4.5-1.1c7.1-0.3,14-2.1,20.3-5.2c5.5-2.9,11.2-5.5,16-10.3
	c2-1.9,4-3.7,5.8-5.8c0.4-0.4,0.6-1.7,0.4-1.9c-0.6-0.5-1.4-0.6-2.2-0.5c-0.9,0.3-1.6,0.8-2.2,1.5c-1.2,1.4-2.2,2.7-3.5,4
	C629,775.3,621.1,779.5,612.8,782.9z M613.8,778.1c-0.4,0.1-8.4,3.1-12.9,4.7c0.9,0.4,1.6,0.9,2.4,0.6c1.7-0.4,3.5-1.4,5.3-1.7
	c10.2-2.4,18.1-8.1,25.3-15.4c0.4-0.5,0.6-1.2,1-1.7c-0.6-0.2-1.2-0.3-1.9-0.2c-2,0.9-4.5,1.5-5.7,3
	C623.8,772.1,619.1,775.8,613.8,778.1z M572.2,775.5c-3.3,2.3-3.2,6.8,0.1,8.6c0.4,0.1,1.1-0.2,1.5-0.4
	C571.1,781.2,573.7,777.9,572.2,775.5z"/>
<path class="st6" d="M488,699c-8.4-3.8-17-7.2-26.3-8.3s-18.1-0.7-26.8,2c-3.5,0.8-6.2,3.7-6.7,7.3c-1.1,5-2.4,10-4.1,14.9
	c-3.4,9.6-11.7,14.8-19,20.7c-5.2,4.3-9.9,9.1-10.9,16.4c-0.2,1.8-0.6,3.5-1.2,5.2c-0.3,0.6-0.8,1-1.4,1.4c-0.4-0.5-1.1-1-1.1-1.6
	c0-1.9,0.6-3.7,0.4-5.5c-0.2-1.4-1.2-3.5-2.1-3.5c-4.3-0.4-13,7.1-13.6,11.3c-0.1,0.9,0.5,2.3,1,2.5c6.2,1.5,9.9,6.7,14.6,10.3
	c3.8,3,7.7,6.2,12.6,7c6.8,1,13.6,1.5,20.4,1.9c4.6,0.4,9.2-0.1,13.8,0.1c10.2,0.7,20.2,1.9,30.3,2.5c4.3,0.2,8.7-0.5,12.9-0.5
	c7.8-0.2,15.4-2.1,22.3-5.6c3.9-1.9,7.3-4.6,11-6.6c8.7-4.8,18.4-6.8,27.5-10.2c2.5-0.9,4.8-1.7,7.3-2.6c10.7-3.8,21.3-7.8,32-11.9
	c5.1-1.7,9.2-5.8,10.9-10.9c1.5-4.5-0.9-8.3-3.6-11.8c-3-3.7-5.7-7.7-10.9-8.4c-6.9-0.8-13.6-1.6-20.5-2.5c-2.7-0.2-5.4-0.7-8.1-1.4
	c-3.3-1.1-6.6-2.5-9.8-3.8c-3.3-2.1-7.1-3.6-10.5-5.6c-2.6-1.7-5.5-3.1-8.6-4c-2.3-1.5-4.6-3.1-6.9-4.3c-1-0.6-2.5-0.6-3.9-0.7
	c-0.3,0.3-0.5,0.7-0.7,1.1c1.3,0.9,2.5,1.9,3.7,3c-0.8,1-1.2,2.5-2.2,2.8c-3.2,1.3-6.7,2-10.2,2C495.6,701.6,491.6,700.7,488,699z
	 M448.5,732.5c-2.7,3.8-6.6,7-9.9,10.3s-7,6.9-10.4,10.3c-0.5,0.5-1.2,0.5-1.9,0.8c0.1-0.9,0-1.9,0.5-2.4c1.5-2,3.2-3.8,5-5.8
	c3-3.5,5.8-6.8,8.3-10.2s4.7-7.1,6.8-10.7c0.7-1.5,0.6-3.3,1.2-5c0.2-0.9,1.1-1.5,1.7-2.2c0.8,0.6,1.7,1.1,1.9,1.9
	C453,724.3,451.2,728.8,448.5,732.5L448.5,732.5z M508.7,733.1c4.6,4.6,8.8,9.4,14.6,12.2c3.1,1.5,6.3,2.7,9.9,2.5
	c4.1-0.2,8.3-0.6,12.4-0.6c1.2,0.2,2.4,0.6,3.5,1.2c-1.1,0.6-2,1.7-3.1,1.9c-6.2,0.4-12.4,0.6-18.6,0.6c-5,0-9.2-2.6-13-5.6
	c-6.2-4.5-11.2-10.5-14.4-17.5c-0.1-0.2-0.1-0.4-0.1-0.6c-0.1-1-0.2-2.1-0.4-3.1c1,0.4,2,0.9,2.9,1.6
	C504.6,728,506.5,730.5,508.7,733.1L508.7,733.1z"/>
<path d="M499.9,727.2c0,0.2,0,0.4,0.1,0.6c3.3,6.9,8.2,13,14.4,17.5c3.8,3,8.1,5.6,13,5.6c6.2,0,12.4-0.2,18.6-0.6
	c1.1-0.1,2-1.2,3.1-1.9c-1.1-0.6-2.2-1.1-3.5-1.2c-4.1,0-8.3,0.4-12.4,0.6c-3.6,0.2-6.8-1-9.9-2.5c-5.8-2.7-10-7.6-14.6-12.2
	c-2.2-2.6-4.1-5.1-6.3-7.4c-0.9-0.7-1.8-1.2-2.9-1.6C499.6,725,499.8,726.2,499.9,727.2z"/>
<path d="M402.4,260.7c6.5,0.9,13,1.7,19.2,3.6c9.4,2.6,18.6,6.2,27.9,9.1c6,1.9,12.2,3.9,18-0.5c0.9-0.7,1.7-1.4,2.5-2.2
	c5.5-5.2,7.9-11.9,8.1-20.2c-0.2-2.5-0.5-4.7-0.9-7c-1.7-8.4-5.5-16.1-9.9-23.3c-4.8-8-11.7-14.5-19.9-19
	c-7.7-4.2-16.1-5.1-24.6-5.6c-4.5-0.4-9.1,0.2-13.8,0.5c-3.9,0.1-7.7,0.4-11.5,0.6c-7.8,0.5-15.6,0.6-23.4,1.4
	c-5.1,0.5-10.1,1.7-14.9,3.5c-7.9,3.2-13.3,10-17.9,17c-4.8,7.2-8.4,15.3-12,23.1c-2,4.8-2.5,10.2-1.2,15.3c0.5,2.3,1.6,4.5,3.1,6.3
	c2.4,3,5.6,5,9.4,6.6c3.2,1.1,6.2,1.5,9.5,0c4-2,8.3-3.2,12.3-5.3c6.8-3.4,14.3-5,21.8-4.8C390.3,259.5,396.4,259.9,402.4,260.7z
	 M359.8,261.6c-2.5,1.1-5,2.2-7.3,3.4c-8.3,4.1-17.4-1.5-20.6-6.9c-1.4-2.5-1.5-6.2-0.8-9.2c2.5-11.9,8.2-22.6,15.4-32.3
	c6-7.8,13.4-13.3,23.3-14.8c2-0.2,3.8-0.5,5.8-0.6c8.9-0.5,17.7-0.9,26.8-1.2c6.8-0.2,13.9-0.5,20.9-0.6c8.5-0.3,16.9,1.9,24.2,6.3
	c2.7,1.8,5.3,3.8,7.8,5.8c1.9,1.9,3.7,3.9,5.3,6c1.1,1.6,2.9,3.1,1.7,5.7c-1.4,2.6-3.6,3.7-6.2,4.3c-4,0.7-7-1.5-9.7-3.9
	c-7.6-6.5-17.3-10-27.3-9.7c-7.4,0.2-15,0.1-22.5,0.7c-7.7,0.8-15.4,1.9-23,3.2c-7.2,1.1-12.4,5.7-16.4,11
	c-4.8,6.4-8.4,13.6-12.4,20.6c-0.4,0.9-0.5,1.8-0.5,2.7c0.8-0.2,1.6-0.5,2.4-0.9c16.2-10.8,36.1-14.6,55.1-10.6
	c10.3,2.1,20.6,4,30.6,6.6c6.1,1.5,11.8,4.3,17.9,6.3c1.6,0.5,3.4,0.6,5.1,0.4c0.9,0,2-1.5,1.9-2.4c0.1-3.6-0.1-7.2-0.7-10.8
	c-1.7-7.1,1.9-12.6,8.9-12.8c1.4,0,3.4,2.1,4,3.6c3,6.6,5.5,13.1,5.3,20.6c-0.1,7.4-6.2,16-12.8,18.1c-5.1,1.6-9.9-0.2-14.8-1.7
	c-9.9-3.1-19.9-6.7-30-9.3c-6.4-1.6-12.9-2.7-19.4-3.2c-4.5-0.5-9-0.7-13.5-0.6C375.8,255.7,367.6,258.1,359.8,261.6z M454.5,249.7
	c-0.1,3-2.1,1.4-3.2,1.1c-2.6-0.7-5.3-2-8.1-2.9c-10.8-3.5-21.6-7.4-32.5-10c-12.4-3.1-25.3-2.7-38-1.9c-5.6,0.4-10.9,4-16.5,6.1
	c-1.7,0.7-3.6,1.7-5.3,2.5c1.1-1.7,1.9-3.4,3.1-5c3.1-4.2,6.3-8.4,9.8-12.5c1.1-1.5,3-2.4,4.6-3.5c4.8-1.5,9.5-3.1,14.1-3.7
	c6.1-0.8,12.2-1.2,18.4-1.4c6.5-0.4,12.9-0.8,19.4-0.6c10.7,0.2,20.4,3.7,27.4,12.1C452.2,235.5,454.6,242.5,454.5,249.7z"/>
<path class="st7" d="M398,256.2c6.5,0.6,13,1.7,19.4,3.2c10.2,2.6,20.1,6.2,30,9.3c4.8,1.5,9.7,3.4,14.8,1.7
	c6.6-2.1,12.5-10.7,12.8-18.1s-2.4-14-5.3-20.6c-0.6-1.5-2.6-3.6-4-3.6c-7.1,0.1-10.7,5.7-8.9,12.8c0.6,3.6,0.9,7.2,0.7,10.8
	c0.1,0.9-1,2.4-1.9,2.4c-1.7,0.3-3.4,0.1-5.1-0.4c-6.1-2-11.8-4.8-17.9-6.3c-10-2.6-20.3-4.5-30.6-6.6c-19-4-38.9-0.2-55.1,10.5
	c-0.7,0.4-1.5,0.7-2.4,0.9c0-0.9,0.1-1.9,0.5-2.7c4-6.9,7.6-14.1,12.4-20.6c4-5.3,9.2-9.9,16.4-11c7.6-1.4,15.3-2.5,23-3.2
	c7.4-0.6,15-0.5,22.5-0.7c10-0.3,19.7,3.2,27.3,9.7c2.7,2.4,5.7,4.6,9.7,3.9c2.6-0.6,4.8-1.7,6.2-4.3c1.1-2.6-0.6-4.1-1.7-5.7
	c-1.7-2.1-3.5-4.1-5.3-6c-2.5-2.1-5.1-4-7.8-5.8c-7.3-4.4-15.7-6.6-24.2-6.3c-7,0.1-14,0.4-20.9,0.6c-9,0.4-17.9,0.7-26.8,1.2
	c-2,0.1-3.9,0.4-5.8,0.6c-9.9,1.5-17.4,6.9-23.3,14.8c-7.2,9.7-12.9,20.4-15.4,32.3c-0.7,3-0.6,6.7,0.8,9.2
	c3.2,5.5,12.3,11,20.6,6.9c2.4-1.1,4.8-2.2,7.3-3.4c7.8-3.5,16-5.8,24.7-5.9C389,255.6,393.5,255.8,398,256.2z"/>
<path d="M440.5,647.6c1.6,6.2,9.7,9.6,16.4,7.3c5-1.7,8.6-6,7.8-13.6c0-0.5-0.1-1-0.2-1.5c-1.2-4.1-4.4-7.4-8.6-8.7
	c-0.8-0.3-1.7-0.4-2.6-0.5C443.2,630.3,438,638.5,440.5,647.6z M448,635.3c5.1-2.1,8.7-1.1,11.7,2.7c2.4,3.1,2.4,6.6-0.1,10.4
	c-1.9,2.7-6.7,4.8-9.3,3.7c-4.1-1.6-7-4.6-6.8-8.6S444.7,637.2,448,635.3z"/>
<path d="M439.3,190.4c10.9-2.4,18-8.9,22.1-19c2.4-5.7,3-12,1.7-18c-1.1-5.9-4.1-11.4-8.6-15.5c-7.6-7.2-16.9-10.4-27.2-7.7
	c-9.8,2.6-16.5,8.9-20.4,18.2c-2,4.7-2.2,9.7-2.1,14.9c0.3,7.1,3.1,13.9,8,19.1C420.1,190.2,429,192.6,439.3,190.4z M409.9,150.7
	c0.7-2.1,2-4.1,2.9-6.1c5.8-7.7,12.9-12.2,22.3-11.8c9.1,0.4,15.9,4.6,20.6,12.2c1,1.8,1.9,3.7,2.7,5.6c0.2,1.1,0.3,2.2,0.1,3.2
	c-0.9-0.3-1.8-0.7-2.6-1.2c-2-1.9-4.6-3.3-7.3-3.9c-8.4-2-17,4.8-18.1,11.9c-1.6,10.6,8.1,18.4,15.8,17.5c1.9-0.1,3.6-0.9,5.5-1.1
	c0.7,0,1.4,0.1,2,0.4c-0.2,0.5-0.6,1.1-1,1.5c-12.9,10.8-27.9,12.5-39.5-2.1C407.2,169.1,406.8,159.8,409.9,150.7z"/>
<path d="M449.9,717.6c-0.6,0.8-1.5,1.4-1.7,2.2c-0.6,1.6-0.5,3.5-1.2,5c-2.1,3.6-4.3,7.2-6.8,10.7s-5.3,6.7-8.3,10.2
	c-1.7,2-3.5,3.8-5,5.8c-0.5,0.5-0.4,1.5-0.5,2.4c0.6-0.2,1.4-0.2,1.9-0.8c3.5-3.3,7-6.8,10.4-10.3s7.2-6.5,9.9-10.3s4.5-8.2,3.2-13
	C451.6,718.7,450.6,718.2,449.9,717.6z"/>
<path d="M424.6,529.4c-6.2,0.2-12.3,7.3-11,13.4c1.9,8.6,6.9,14,17.4,10.5c5.9-2.4,8.9-8.9,7.1-15
	C436,532.1,431.5,529.3,424.6,529.4z M434.6,544c-1.2,4.1-5,7.2-9.1,7.2c-3.5,0-7.9-4.1-8.9-8.1c-0.6-2.6,2-7.5,5-9.2
	c0.9-0.5,1.6-0.9,2.5-1.4C431.5,531.3,436.1,539,434.6,544L434.6,544z"/>
<path d="M424.3,480c0.6-7.3-2.4-12.5-8.2-14.5s-14.6,0.1-16.8,9.9c-1.2,6,3.4,13.5,11,14.9c1.5-0.1,2.7-0.2,4.1-0.5
	C419.2,488.8,424.1,484.1,424.3,480z M404.5,482.4c-4.5-6.8,1.2-13.9,7.3-14.3c3.8-0.2,6.5,2.5,8.4,5.7c1.7,2.9,1,6.6-1.1,9.2
	C415,488.1,409.9,487.9,404.5,482.4L404.5,482.4z"/>
<path d="M336.7,178.3c3.4,2.7,7.8,4.1,11.9,6.4c6.2,1.6,12.7,1.6,18.9,0c8.8-2.4,16.5-7.7,22-14.9c6.1-7.8,9.6-17.3,9.8-27.2
	c0-3.6-0.4-7.2-1.3-10.7c-2-9.7-6.6-17.7-14.8-23.7c-7.7-5.6-16.6-6.2-25.4-6.2c-6.8,0-13.1,3.1-18.2,7.6
	c-13.4,11.8-19.4,26.4-17.1,44.4C323.8,164.4,329.2,172.1,336.7,178.3z M326.3,139.7c1-7.3,3.9-14.3,8.3-20.2
	c6.6-8.3,14.6-13.3,25.4-13.8c7.3-0.2,14.3,0.7,20.2,5.2c7,5.5,11.9,12.4,13.4,21.6c1.2,8.6,1,17-2.6,25.2
	c-3.2,7.3-8.4,13.6-15.1,18c-4.8,3.4-10.3,4.6-15.9,5.6c-14.8,0.5-24.6-6.4-30.9-18.2C325.5,156,325.1,147.9,326.3,139.7
	L326.3,139.7z"/>
<path class="st8" d="M435.9,452.6c-1.1-5.3-2.9-7.7-6.3-7.6c-6.8,0.2-13-1.9-19.2-3.9c-7.3-2.1-14-5.8-21-9.1
	c-3.4-1.5-6.6-0.7-6.6,2c0,4.7,0.2,9.4,0.6,14.1c1.1,8.7,2.6,17.4,3.9,25.9c0.9,6.7,1.6,13.4,2.6,20.1c1.4,8.9,3,18,4.5,26.9
	c1.2,8.1,2.4,16.2,3.8,24.3c1.7,9.3,3.9,18.5,5.7,27.7c2.2,10.3,4.1,20.7,6.6,30.9c2.6,10.8,5.7,21.6,8.8,32.1
	c4.6,15.8,9.3,31.4,14.1,47c0.4,1.2,2.4,3,3.4,2.8c2.1-0.4,5-0.1,6-3.1c0.1-0.4,0.1-0.8,0-1.1c-2.4-9-4.6-18.4-7.1-27.5
	c-3.2-12.4-6.7-24.9-10-37.3c-2.7-10.5-5.5-21.2-7.9-31.9c-3-12.7-5.8-25.4-8.7-38.1c-1.7-7.8-3.2-15.6-5-23.4
	c-1.5-6.7-3.1-13.3-4.6-19.9c0.1-1,0.4-2,0.9-2.9c0.5,0.8,1.4,1.4,1.6,2.1c1.2,4,2.4,7.8,3.2,11.8c1.9,8.3,3.4,16.8,5.2,25.2
	c1.4,6.6,2.9,13.2,4.5,19.8c2.1,9.5,4.3,19.1,6.7,28.5c2.1,8.6,4.5,17.1,6.7,25.7l8.9,34.5l0.6,2.2c2.6,9.7,5.2,19.4,7.7,29.2
	c0.9,3.2,2.4,4.3,5.8,4.5c4.5,0.2,9,0.7,13.5,1.4c4.8,0.7,9.5,2.1,14.4,3.1c2.7,0.5,3.4-0.4,2.5-3.1c-2.2-7.9-4.5-15.9-6.7-23.8
	c-2.2-7.7-4.6-15.5-6.8-23.2c-2.9-9.5-5.6-19.1-8.4-28.7c-1.9-6.5-3.7-12.8-6-19.5c-1.9-8.2-3.9-16.5-5.6-24.8
	c-0.2-0.8,0.2-1.5,0.4-2.4c0.5,0.6,1,1.3,1.4,2c3.2,11.5,6.2,23.2,9.7,34.7c5.3,17.5,11,34.9,16.4,52.3c3,9.7,5.6,19.3,7.8,29.2
	c1.7,7.6,5.6,12.7,12.9,15.1c1.2,0.3,2.4,0.4,3.6,0.4c0-1.2-0.2-2.3-0.5-3.5c-1.4-4-3.1-7.7-4.4-11.7c-3.7-12.2-7.3-24.3-10.9-36.5
	c-3.1-10.5-6.1-21.1-8.9-31.8c-3.1-11.9-6.1-23.7-9.2-35.5s-6.3-23.7-9.4-35.6c-2.7-11-5.5-22.2-8.2-33.2c-2.6-10.5-5.3-21-7.7-31.4
	C439.1,469.6,437.6,461,435.9,452.6z M399.4,475.4c2.1-9.8,10.8-12,16.8-9.9s8.8,7.2,8.2,14.5c-0.2,4.1-5.1,8.8-9.8,9.8
	c-1.4,0.2-2.6,0.4-4.1,0.5C402.7,489,398.1,481.4,399.4,475.4L399.4,475.4z M430.9,553.3c-10.4,3.5-15.5-2-17.4-10.5
	c-1.2-6.1,4.8-13.2,11-13.4c6.9-0.1,11.4,2.7,13.4,8.9C439.8,544.4,436.8,550.9,430.9,553.3z M453.2,630.6c0.9,0.1,1.8,0.2,2.6,0.5
	c4.1,1.3,7.3,4.6,8.6,8.7c0.1,0.5,0.2,1,0.2,1.5c0.7,7.7-2.9,11.9-7.8,13.6c-6.7,2.2-14.8-1.1-16.4-7.3
	C438,638.5,443.2,630.3,453.2,630.6L453.2,630.6z M376.3,374.6c2.1,3.7,6.1,6.5,9.2,9.5c1.6,1.7,3.6,2.1,6,2
	c3.7-0.2,7.6-0.1,11.3-0.8c5.8-1,11.7-2.4,17.6-3.8c1-0.3,1.8-1.2,2-2.2c0.1-5-0.1-10.2,0.1-15.3c0.2-7.3,0.5-14.8,1.4-22.1
	c0.4-3.6,1.2-7.6,3.2-10.4c5.7-8.2,12-15.9,18.2-23.6c3-3.7,6.2-7.2,9.8-11.2c6.2-6.6,12.5-13.1,18.7-20.1c0.5-0.5,1-1,1.4-1.6
	c3.9-4.3,7.7-8.9,11.3-13.5c8.2-10.5,13.8-22.3,18.4-34.7c4.5-12,7.8-24.4,9.9-37.1c1.1-7.4,2.6-14.5,2.3-22.1
	c-0.1-7.9-0.2-15.8-0.7-23.7c-0.2-5.7-0.6-11.4-1.1-17c-0.9-7.9-1.6-15.9-2.6-23.7c-1.4-8.8-2.7-17.7-4.6-26.6
	c-3.7-17.7-9.8-34.9-17.9-51.1c-1.2-2.7-3.4-4-6.1-1c-4.2,4.6-8.4,9.1-12.5,13.8c-4.3,5.1-8.4,10.3-12.6,15.5
	c-0.5,0.5-1.1,0.9-1.7,1.2c-0.2-0.7-0.9-1.5-0.7-2.2c0-2.8,0.4-5.7,0.5-8.7c0.1-1.5,0-3,0-4.5c0.4-7.4,0.9-15,1.2-22.6
	c0.1-0.9-0.6-2.6-1.1-2.7c-1.2,0-2.4,0.3-3.4,1c-0.5,0.1-1,0.8-1.4,1.2c-5.2,6.1-10.5,12-15.6,18.2c-4,4.8-7.6,9.9-11.3,15.1
	c-1.4,2-2.2,4,0.9,5.7c3.4,2,5.3,5.2,7.1,8.8c2.6,5.3,5.3,10.7,8.2,15.8c5.3,9.1,12.3,16.5,22.1,20.2c8.4,2.9,16.9,5.2,25.6,7.1
	c7.9,2,11.9,4.7,11.4,13.8c-0.4,6-4.7,10.7-10.7,10.7c-3.6-0.1-7.2-0.4-10.9-0.6c-3.5-0.4-7.1-0.9-10.5-1.6c-9-2-16.9-6.7-24.7-11.3
	c-6.5-4-12.7-8.4-16.8-15c-3.7-5.5-6.6-11.4-9.8-17.2c-1.1-2.1-2.4-2.8-4.6-1.7c-7.3,3.5-14.4,7-21.7,10.2s-14.5,5.7-22.5,5.3
	c-3-0.2-6.1-0.7-9-1.2c-8.4-1.7-15.4-8.4-13.8-18.5c0.2-1.2,0.5-2.3,1-3.3c1.6-3.1,4.6-5.5,7.6-5.6c3.4-0.2,6.6,0.5,9.9,0.8
	c3.9,0.4,8.2,1.9,11.7,0.7c6.7-2.1,13-5.6,19.4-8.7c7.6-3.6,14.6-8.3,23-10.3c1.4-0.6,2.4-1.7,2.9-3.1c0.5-1.8,0.8-3.6,0.9-5.5
	c0.4-4.2,0.9-8.4,1.2-12.5c0.4-6.3,1-12.6,1.1-19c0.1-1-1.5-2.6-2.2-2.5c-1.7,0.1-3.8,0.6-5,1.7c-3.8,3.8-7.3,7.9-10.5,12.3
	c-4.1,5.7-7.7,11.9-11.7,17.9c-1,1.5-2.9,2.5-4.3,3.7c-0.4-1.5-0.6-3-0.6-4.6c0.8-7.6,1.7-14.9,2.5-22.3c0-1.8-0.2-3.5-0.6-5.2
	c-0.6-0.5-1.3-0.7-2-0.6c-1.1,0.2-2.2,0.8-3,1.6c-6.2,6.7-12.9,13.2-18.4,20.5c-7.6,9.9-14.1,20.6-21,31c-1.5,2.5-3,5-4.3,7.4
	c-6.8,11.4-12.7,23.4-17.5,35.9c-5.5,13.5-10,27.4-13.3,41.6c-2.7,11-4.3,22.2-4.8,33.5c-0.7,15.1-0.4,30.3,3.7,45.2
	c3.4,12.5,7.7,24.8,14.8,35.6c0.1,0.2,0.2,0.4,0.4,0.6c8.4,12.3,18,24,26.8,36c4.3,6,9,12,12,18.6c5.8,12.9,6.8,26.9,8.8,40.7
	C374.5,366.4,374.5,371,376.3,374.6z M407.1,148.4c3.9-9.3,10.5-15.6,20.4-18.2c10.3-2.7,19.6,0.5,27.2,7.7
	c4.4,4.1,7.4,9.6,8.6,15.5c1.2,6,0.6,12.3-1.7,18c-4.1,10-11.2,16.6-22.1,19c-10.3,2.2-19.2-0.1-26.3-7.9c-4.9-5.2-7.8-12-8-19.1
	C404.9,158.1,405.1,153.1,407.1,148.4L407.1,148.4z M322.5,154.1c-2.2-18,3.7-32.6,17.1-44.4c5.1-4.5,11.4-7.6,18.2-7.6
	c8.8,0,17.7,0.6,25.4,6.2c8.2,6,12.8,14,14.8,23.7c0.8,3.5,1.3,7.1,1.2,10.7c-0.2,9.9-3.7,19.4-9.8,27.2c-5.5,7.2-13.2,12.4-22,14.9
	c-6.2,1.6-12.7,1.6-18.9,0c-4.1-2.4-8.6-3.7-11.9-6.4C329.2,172.1,323.8,164.4,322.5,154.1L322.5,154.1z M362.4,264.4
	c-4,2.1-8.3,3.4-12.3,5.3c-3.4,1.5-6.3,1.1-9.5,0c-3.9-1.6-7.1-3.6-9.4-6.6c-1.5-1.8-2.6-4-3.1-6.3c-1.2-5.1-0.8-10.4,1.2-15.3
	c3.6-7.8,7.2-15.9,12-23.1c4.6-7,9.9-13.8,17.9-17c4.8-1.8,9.8-2.9,14.9-3.5c7.8-0.8,15.6-0.9,23.4-1.4c3.9-0.2,7.7-0.5,11.5-0.6
	c4.7-0.2,9.3-0.9,13.8-0.5c8.4,0.5,16.9,1.4,24.6,5.6c8.2,4.5,15,11,19.9,19c4.5,7.2,8.2,14.9,9.9,23.3c0.4,2.2,0.6,4.5,0.9,7
	c-0.1,8.3-2.6,15-8.1,20.2c-0.8,0.8-1.6,1.6-2.5,2.2c-5.8,4.4-12,2.4-18,0.5c-9.3-2.9-18.5-6.5-27.9-9.1c-6.2-1.9-12.8-2.7-19.2-3.6
	c-6-0.8-12.1-1.1-18.1-1.1C376.7,259.4,369.2,261.1,362.4,264.4L362.4,264.4z M450.3,652.2c2.6,1.1,7.4-1,9.3-3.7
	c2.5-3.8,2.5-7.3,0.1-10.4c-3-3.8-6.6-4.8-11.7-2.7c-3.4,1.9-4.6,4.5-4.6,8.3S446.2,650.6,450.3,652.2z M452.7,178.8
	c0.4-0.4,0.8-0.9,1-1.5c-0.6-0.2-1.3-0.4-2-0.4c-1.9,0.2-3.6,1-5.5,1.1c-7.7,0.9-17.4-6.9-15.8-17.5c1.1-7.1,9.7-13.9,18.1-11.9
	c2.8,0.6,5.3,1.9,7.3,3.9c0.8,0.5,1.7,1,2.6,1.2c0.1-1.1,0.1-2.2-0.1-3.2c-0.8-1.9-1.7-3.8-2.7-5.6c-4.7-7.6-11.5-11.8-20.6-12.2
	c-9.4-0.4-16.5,4.1-22.3,11.8c-0.9,2-2.1,4-2.9,6.1c-3.1,9.2-2.7,18.5,3.4,26.1C424.8,191.4,439.8,189.6,452.7,178.8z M420.2,217.9
	c-6.5-0.1-12.9,0.2-19.4,0.6c-6.1,0.1-12.3,0.6-18.4,1.4c-4.6,0.6-9.3,2.2-14.1,3.7c-1.6,1.1-3.5,2-4.6,3.5
	c-3.5,4.1-6.7,8.3-9.8,12.5c-1.2,1.6-2,3.2-3.1,5c1.7-0.8,3.6-1.7,5.3-2.5c5.6-2.1,10.9-5.7,16.5-6.1c12.6-0.9,25.6-1.2,38,1.9
	c10.9,2.6,21.7,6.6,32.5,10c2.7,0.9,5.5,2.1,8.1,2.9c1.1,0.2,3.1,1.9,3.2-1.1c0.2-7.1-2.2-14.1-6.8-19.6
	C440.6,221.6,430.9,218.1,420.2,217.9z M424.1,532.6c-0.9,0.5-1.6,0.9-2.5,1.4c-3,1.7-5.6,6.6-5,9.2c1,4,5.5,8.1,8.9,8.1
	c4.1,0,7.8-3.1,9.1-7.2C436.1,539,431.5,531.3,424.1,532.6z M420.2,473.8c-2-3.2-4.6-6-8.4-5.7c-6.1,0.4-11.8,7.4-7.3,14.3
	c5.5,5.5,10.5,5.7,14.6,0.6C421.2,480.4,422,476.7,420.2,473.8z M360.1,181.3c5.6-1,11-2.2,15.9-5.6c6.7-4.4,11.9-10.7,15.1-18
	c3.6-8.2,3.9-16.6,2.6-25.2c-1.5-9.2-6.5-16.1-13.4-21.6c-6-4.5-12.9-5.5-20.2-5.2c-10.8,0.5-18.9,5.5-25.4,13.8
	c-4.4,5.9-7.3,12.9-8.3,20.2c-1.2,8.2-0.9,16.2,2.9,23.3C335.5,174.9,345.3,181.8,360.1,181.3z M335.4,138.5
	c3.7-8.2,9.5-13.9,18.5-16c5.8-1.6,12.1-0.1,16.5,4c4.5,3,6.2,7.3,7.3,12.1c2.1,9.8-1,18.2-7.3,25.2c-4,4.2-9.2,7.3-15.5,7.3
	c-5.5,0.1-10.4-0.5-14.8-4.5c-3.5-3.2-5.8-7.6-6.6-12.3C332.4,149,333.1,143.5,335.4,138.5z"/>
<path d="M354.9,171.1c6.3,0,11.5-3.1,15.5-7.3c6.3-6.9,9.4-15.4,7.3-25.2c-1.1-4.8-2.9-9.2-7.3-12.2c-4.4-4.1-10.7-5.6-16.5-4
	c-8.9,2.1-14.8,7.8-18.5,16c-2.3,5-2.9,10.5-1.9,15.9c0.7,4.7,3.1,9,6.6,12.3C344.4,170.6,349.4,171.2,354.9,171.1z"/>
<path class="st9" d="M754.1,209c-3.5-0.7-7.1-0.7-10.7-1.5c-3.9-0.9-7.9-0.2-11.3,1.9c-6.2,3.8-12.2,7.9-18,12.1
	c-8.8,6.2-15.5,14.5-22.3,22.8c-2.8,3.6-6,6.8-9.7,9.6c-4,2.7-6.3,2.5-8.9-1.9c-2.5-4-1.1-8.2-1-12.2c0.2-5.9,1.9-11.9,2.3-17.9
	c0.5-7.8,0.4-15.6,0.6-23.4c0.2-3.2-1.4-5.3-4-6.9c-6.5-4.2-16.7-3.2-22.2,2.2c-5.7,5.7-8.4,13.3-12.3,20.2
	c-3.7,6.7-5.7,13.8-5,21.6c0.4,4.1,0.6,8.2,1.2,12.3c0.8,4.3,1.9,8.6,2.4,13c0.8,5.7,3,11.2,1.5,17.1c-1.1,4.8-4.1,9.2-8.2,10.2
	c-2,0.3-3.9,0.7-5.8,1.4c-3.8,1.1-8.2,1.7-11.3,4.1c-6,4.4-11.6,9.3-16.8,14.6c-2.8,3-5,6.5-6.5,10.3c-2.4,6.4-4.4,13-5.8,19.7
	c-1,4.4-1.4,9-1.2,13.5c0.4,6.3,2.2,12.5,2.4,18.7c0.1,9.2-0.7,18.5-1.2,27.7c-0.4,8.3-2.6,16.3-6.6,23.6
	c-3.7,6.9-7.1,13.9-10.7,20.8c-3.6,7.2-8.8,12.5-16.5,15.4c-3.2,1.2-6.2,3.4-9.4,4.7c-2.2,1.1-4.6,1.8-7,2c-8.2,0.1-14.9-3.6-20.8-9
	c-4.5-4.2-5.5-10.2-7.7-15.4c-3.1-7.2-6.1-14.6-9.7-21.6c-3.6-7.2-9.9-11.3-17.7-12.8c-8.1-1.6-16-3-24.1-4.5l-2.9-0.4
	c0.5,0.9,1,1.9,1.5,2.9c2,4,4.1,7.8,6.1,11.8c1.5,3,3,5.2,6.5,6.3c7.2,2.5,13.6,6.3,16.4,14c1.6,4,3,8.2,4,12.4
	c1.6,6.8,3,13.6,6.5,19.7c6.7,11.5,16.6,17.5,29.6,18.2c8.7,0.7,17.5,0.1,26.1-1.9c4.8-1.1,9.3-2.8,13.6-5.1c3.5-2,6.5-5.1,9.3-7.9
	c3.9-3.8,7.5-7.9,10.9-12.2c6.5-9.4,12-19.4,16.6-29.9c5.3-11.7,7.6-23.9,7.7-36.6c0.1-7.6-0.5-15.1-0.5-22.6
	c0-8.2,0.4-16.4,0.6-24.4c-0.1-0.3-0.1-0.7,0-1c2-8.2,4.8-16.4,9.7-23.4c2.3-3.4,5.3-6.2,8.8-8.3c3.5-2.1,7.7-3,11.5-4.5
	c5.8-2.4,11.7-4.7,17.6-7c2.5-1,3.6-2.9,4.2-5.2c0.5-2.1,0.7-4.6,2.1-6.1c4.5-5.1,3.5-10.4,1.7-16c-3-8.9-5.5-18-5.7-27.4
	c-0.2-7.8,0-15.6,0.6-23.3c0.5-5.5,2-10.7,3.2-16c0.1-0.7,1.2-1.4,2-2.1c0.2,1.1,1,2.2,0.7,3.1c-1.2,6.8-3.3,13.4-2.8,20.2
	c0.1,1.5-0.1,3.1,0,4.6c0.2,4.8,0.7,9.5,1.4,14.3c1.9,9.7,4.1,19.4,6.3,29c0.5,1.5-0.1,4,2.6,4.4c4.8,0.6,9.5,1.4,14.3,1.9
	c2.9,0.4,5.3,0,5.7-3.6c0.2-1.2,0.5-2.3,0.9-3.5c2.4-8.4,7.7-15.4,13.4-21.6c4.3-4.7,9.4-8.7,14.1-13c8.2-7.6,18.1-13,28.9-16
	c0.9-0.2,2.2,0.5,3.3,0.7c-0.7,0.8-1.4,1.6-2,2.2c-0.2,0.2-0.7,0.2-1.1,0.4c-7.4,2.2-14.4,5.1-20.1,10.2c-7.3,6.4-14.5,13-21.1,20
	c-3.3,3.4-5.8,7.7-8.2,11.9c-1.7,3.1-2.2,6.8-4,9.8c-1.9,3.4-1.1,5.6,1.2,7.8c9,9.1,18,18.2,23.9,29.8c2.4,4.6,4.6,9.2,6.8,13.9
	c0.2,0.6-0.2,1.5-0.4,2.2c-0.6-0.2-1.4-0.2-1.9-0.7c-1-1-1.9-2.2-2.7-3.4c-2.8-3.9-6.5-7.6-8.3-11.9c-6.3-14.9-16.2-25.9-32.4-31.4
	c-7.2-2.2-12.5,1.1-14.3,7c-2,6.2,0.5,12.2,4.3,17c2.6,3.2,6.5,5.3,9.7,8.1c6.2,5.5,12.7,10.5,16.6,18c2.1,4.4,4.7,8.6,7.7,12.4
	c6.5,7.7,15.4,9.8,24.8,8.6c6-0.7,11.2-3.1,13-9.9c1.3-4.5,1.8-9.3,1.2-14c-0.9-7.9-4.2-14.6-8.1-21.3s-9.4-11-14.8-15.9
	c-6.2-5.7-6.1-18.5-1.9-24.3c2.4-3.5,5.4-6.6,8.9-8.9c8.9-5.8,18.1-11.3,27.3-16.6c4.7-2.9,9.8-5.7,11.4-11
	c1.4-4.2,1.2-9.2,1.1-13.6C765.7,216,760,210.1,754.1,209z M417.4,57.9c-2.7,0.6-5.3,1.6-7.8,2.9c-8.6,4.3-16.9,9-25.6,13.3
	c-4.5,2.2-9.2,4.3-14.4,3.6c-4.5-0.5-8.8-1.6-13.1-2.1c-1.6-0.3-3.3,0.1-4.7,1c-3.7,2.8-4,8.2-0.7,13.3c2,1.6,3.7,3.6,6,4.5
	c7.7,3.1,15.6,2.2,23.6,0.1c9.9-2.7,18.9-7.6,27.9-12.3c2.5-1.2,5.5-2.7,6-6.2c0.1-0.5,0.9-1,1.2-1.4c0.4,0.4,0.8,0.9,1,1.5
	c0.5,1.4,0.6,3,1.4,4.2c1.8,3.9,3.8,7.7,6,11.3c3.1,5.3,6.3,10.7,10.8,15.1c6.1,5.9,13.3,10,21,13.3c10.7,4.6,21.5,7.8,33.1,7.7
	c4.3,0,8.2-3.1,8.4-7.1c0.4-4.7-1.4-7.6-6.6-8.9c-6.3-1.5-12.8-3-19-4.5c-16.5-4.1-28.5-14-36.5-28.9c-2.5-4.6-4.2-9.6-6.5-14.3
	C426.8,59.6,421.6,56.9,417.4,57.9z M443.1,411.2c-1.6-0.2-3.1,0-4.6,0.6c-5.2,2-10.4,3-16.2,2c-6.1-1.1-12.2-2.4-17.7-5.1
	c-7.8-3.7-14.4-9.3-20.6-15.3c-3.6-3.3-7.6-6-12-8.1c-7.2-3.7-9.8-2.1-12.3,2.6c-4.3,8.1-4.8,14,2.6,20.1c2.5,2,5.1,4,8.1,6.2
	c4,2.2,7.9,4.7,11.9,6.8c6.1,3.1,12.2,6.1,18.2,9.2c6.7,3.6,14,5.2,21.5,6.3c7.1,1,13.8-1,18.5-6.8c2.7-3.4,4.7-7.3,6.8-11.2
	S448.1,412,443.1,411.2z M404.9,393.2h-7.1c-0.8,0-1.5,0.2-2.2,0.5c0.4,0.7,0.6,1.9,1.2,2.2c4,2.5,8.2,4.8,12.5,6.8
	c4.7,1.7,9.4,3.1,14.3,4.1c9.9,2.1,16.6-1.2,19.9-11.4c1.2-3.8-3-9.4-7.1-9.3c-1.7,0-3.4,0.2-5.1,0.7
	C422.6,388.9,414,391.1,404.9,393.2z M349.3,391.6c0.4-1.4,0.5-3.9-2.6-4.2c-3.5-0.4-6.8-1.7-10.4-1.7c-8.9-0.2-18.1-0.7-26.8,2.4
	c-4.7,1.7-9.7,2.6-14.1,4.7c-5.1,2.5-10,5.4-14.5,8.8c-4.3,3.1-9,6.1-11.9,10.3c-5.8,8.6-16.9,9.3-24.8,6.1
	c-3.7-1.5-7.1-4.1-7.9-8.7c-1.6-8.6-3.2-17.2-5.1-25.8c-1.7-8.1-3.1-16.2-5.6-24.2C222,348.5,216,339,210,329.4
	c-0.8-1.3-1.4-2.6-1.9-4c-3.1-7.6-0.5-15.1,1-22.5c1.7-8.6,6.2-16.5,4.1-25.7c-1-4.5-1.4-9.2-2.7-13.5c-2-6.6-4.3-13.1-7.1-19.5
	c-0.4-1.1-2.6-2.6-3.7-2.4c-7.1,1.7-13.5,1.1-19.9-3c-0.9-0.5-1.6-1.1-2.5-1.6c-6.7-5.1-9.9-11.2-7.8-20.2c0.5-2,0.6-4.3-2.4-5.2
	c-5.3-1.5-10.7-3.2-15.9-5c-7.7-3-16-5.6-21.3-12.2c-4-4.7-6.6-10.5-9.6-15.9c-0.8-1.5-0.5-3.5-0.4-5.3c0.5,0.4,1.4,0.5,1.6,1
	c3.1,6.4,7.4,12.2,12.5,17.1c4.2,4,8.4,7.6,14,9.4c6.7,2.2,13.6,4.3,20.3,6.4c4.3,1.4,8.1,0.5,10.7-3c2.4-3,3.7-6.6,3.8-10.4
	c-0.1-9.8-0.4-19.5-0.6-29.2c0-5.7-0.2-11.4,0.1-17.1c0.4-4.6,1-9.1,1.9-13.6c0.1-0.9,1-1.7,1.6-2.7c0.5,1,1,1.9,1.5,3
	c0.1,0.2,0,0.7,0,1.2c0.2,8.1,0.5,16.1,0.8,24.3c0.1,8.9,0.4,17.7,0.6,26.6c0.1,1.9,0,3.9-0.1,5.8c-0.2,3.5,1,5.3,5,5.1
	c3.6-0.4,7.3-0.7,10.9-0.8c3.2,0.3,6.3,0.7,9.4,1.4c4.3,0.6,8.7,1.5,13,2.5c8.3,2,16.1,6.6,25.1,5.8c0.5-0.1,1.2,0.7,1.2,0.7
	c-0.3,0.9-0.8,1.6-1.4,2.4c-0.1,0.2-0.9,0.1-1.2,0c-6.7-0.9-13.4-1.7-20.1-2.5c-5.9-0.8-12-1-18-2c-13-2.5-23.8,1.7-32.8,10.8
	c-6.7,6.6-5.1,13.3,3.6,18.1c4.8,2.6,9.8,1.2,14.6-0.6c6.7-2.9,13.5-5.3,20.8-4.5c6,0.7,11.9,1.9,17.7,3.5c7.8,1.9,15,1.5,21.8-3
	c5.1-3.4,9-7.6,9.5-14c0.1-3.7-0.4-7.4-0.6-11.3c-0.4-7.3-5-13.8-11.9-15.6c-8.2-2.2-16.9-2-25.1,0.4c-6.5,2.1-13.6,2-20-0.4
	c-2.7-1-4.6-3-4.5-6.3s-0.2-6.8,0.1-10.3c0-3.8,0.5-7.5,1.2-11.2c2.5-9.5,3.1-19.4,1.9-29.1c-0.8-7.8-4.4-14-9.7-19.5
	c-1.5-1.3-3.4-2.3-5.3-2.8c-2.6-0.8-5.2-0.9-7.8-1.5c-6.8-1.5-12.2-0.2-14.6,5.8c-0.6,1.5-1.4,2.9-2.2,4.2c-3.4,5.1-5.2,11-5.2,17.1
	c0.1,5.8,0,11.7,1.4,17.4c0.6,3.1,1,6.3,1.2,9.4c0.8,6.7,1.9,13.4,1.7,20c-0.1,3.6-2,7.3-4,10.4c-1.6,2.9-6.6,2.9-10.7,1.1
	c-7.6-3.5-11.7-10.2-15.8-16.7c-2.7-4.2-4.8-8.9-7.2-13.4c-3-5.7-7.8-8.4-14-9.9c-4.5-1-7.4,0.2-9.9,3.5c-4.4,5.1-7.7,11-9.8,17.4
	c-2,7.1-0.4,13.8,2.7,20c2.3,4.8,5.3,9.3,8.7,13.4c4.2,4.8,8.8,10.1,15.5,10.9c4.6,0.6,8.4,2.2,12.7,3.9c0.4,0.1,0.9,0.2,1.4,0.2
	c8.3,0.8,16.3,3.4,23.4,7.6c4.8,2.7,9.1,6,13,9.8c3.9,3.9,7.3,8.3,9.9,13.1c4.5,8.3,6.1,17,6.4,25.8c0.2,5-1,9.9-1.9,14.9
	c-0.9,5.8-2.1,11.5-2.9,17.4c-0.6,4.3-1.9,8.8-1.4,13.1c1.4,10.3,6.8,19.1,11.5,28.2c3.7,7.3,7.6,14.8,10.6,22.5
	c4.1,10,3.4,21.1,5.2,31.8c1.2,7.1,3.5,13.6,8.7,18.7c6.2,6.1,13.8,10.5,22.2,12.7c9.3,2.5,19.2,2,28.3-1.5c5.5-2,9.3-6.2,13.8-9.3
	c8.3-6.1,15.8-13.4,25.6-17.1c5.5-2.1,10.9-4.1,17-3.8c6.9,0.2,14.1,0.7,21.1,1.4c2.9,0.2,2.2-1.5,1.5-2.4
	C347.5,400.6,347.9,396.3,349.3,391.6z M117.4,171.8c0.2-0.2,0.5-0.4,0.7-0.6c0,0.1,0.1,0.2,0.1,0.4
	C118,171.6,117.8,171.6,117.4,171.8z"/>
<path class="st10" d="M642.8,792.9c0.5,2.2,1.9,4.2,2.2,6.5c0.5,2.8,2.1,1.9,2.8,0.7c1.7-2.6,3.1-5.5,5-8.6c0.1-4,0.4-7.8,0.5-11.8
	c-0.1-0.7-0.4-1.3-0.7-1.9c-0.4,0.4-1,0.6-1.1,1c-0.9,4.8-4.6,7.6-7.7,10.9C643,790.6,642.6,791.8,642.8,792.9z M650.6,775.2
	c-0.2-2-0.6-4-1.1-6c-0.2-0.5-2-0.6-2.8-0.9c-0.1,1.1-0.6,2.5-0.2,3.2C647.5,773,648.9,774.3,650.6,775.2z M640.4,774
	c-2.4,1.7-4.7,3.6-6.8,5.7c0,0.2,0.1,0.4,0.2,0.5c2.6,2.6,5.4,4.9,8.4,7.1l3.8-3.8c3.7-3.6,3.6-4.1-0.7-8.4
	C643.8,773.5,642,772.9,640.4,774z M638.2,794.2c-2.1,0.7-4.1,1.7-6.1,2.8c-1.1,0.7-2.2,2.1-2.2,3.2c0.1,2.6,0.5,5.2,1.2,7.7
	c0.2,0.7,2,2,2.4,1.7c3.1-1.6,6.1-3.4,9.1-5.3c-0.8-3.1-1.6-6.3-2.5-9.4C639.7,794.3,638.9,794,638.2,794.2z M600.2,738.9
	c8.7,6.5,17.4,12.9,26.3,19.2c2.7,2,6.1,3.5,9.8,3c0.8-0.2,1.5-0.5,2.2-0.9c-0.5-0.6-1-1.1-1.6-1.6c-1.1-0.9-2.3-1.6-3.5-2.4
	c-9.1-6.5-18-13-27.4-19.8c-2-1.4-3.8-2.7-6-4c-0.9-0.5-2-0.2-3.1-0.4c0,0.9-0.5,2.1-0.1,2.7C597.7,736.4,598.8,737.8,600.2,738.9z
	 M637.2,790.4c0.1-1.2-0.3-2.3-1-3.2c-1.2-1.4-2.5-2.8-3.8-4c-1-0.5-2.1-1.7-2.8-1.5c-3.5,1-6.8,2.5-10.3,3.7
	c0.1,0.2,0.1,0.4,0.2,0.6l6.7,6.3C628.5,794.8,636,793.5,637.2,790.4z M625,800.6c-9,2.6-18.4,4.8-27.5,7.2
	c-3.1,0.9-5.1,2.4-4.2,5.8c0.1,0.5,0.1,1.1,0,1.6c0,4.3,1.1,5.5,5.7,5.1c2.6-0.4,5.2-0.9,7.7-1.6c6.5-1.9,12.9-3.7,19.2-5.8
	c1.3-0.7,2.2-2,2.5-3.5c-0.2-2.5-0.6-5-1.2-7.4C626.9,800.8,627,800.1,625,800.6z M612.2,758.8c2.6,3.2,5.1,5,9.1,4.2
	c1.1-0.1,2.2-0.4,3.3-0.6c0.6-0.1,1.4-0.2,2-0.4c-0.5-0.6-1-1.1-1.6-1.5c-7.7-5.7-15.4-11.3-23.2-16.9c-2.2-1.5-3.6-4.5-7.2-4
	c0.4,1,0.9,2,1.6,2.9C601.5,748,607.2,753.1,612.2,758.8z M622,798.1c1.7-0.6,2.7-1.5,1.5-3.6c-3.3-6-9-8.3-15.1-5.7
	c-1,0.4-1.5,1.9-2.2,2.8c-0.9,1.2-1.5,3.1-2.6,3.5s-2.8-0.4-4.3-0.9c-1.5-0.7-2.9-2-4.3-2.4c-4.6-0.9-9.2-1.1-13.5-2
	c-4.4-0.9-8.7-2.1-13-3.6c-3.1-1.2-4-3.6-2.6-6.7c1.2-2.7,0.2-4.5-1.7-6c-2.3-1.7-4.7-3.2-7.1-4.8c-1.5-1.2-3.7-2-3.5-4.5
	c4.2,2.5,8.6,5,12.7,7.7c1.9,1.2,3.5,1.6,5.1,0.1c2.3-2.2,5.2-3.6,8.3-4.1c1.7-0.2,2.6-1.6,1-3.5c-2-2.5-3.7-5.3-6-7.7
	c-0.8-0.9-2.8-1.7-4-1.2c-5.5,2.1-10.8,4.6-16.1,7.1c-0.5,0.2-0.7,0.9-1.4,1.2l-0.4,0.4c-1-0.2-2.2-0.9-3.2-0.6
	c-4.2,1.1-8.4,2.5-12.8,3.8c-0.4,0.1-0.6,0.7-0.9,1.2c0.3,0.3,0.7,0.6,1.1,0.7c6.3,4,12.8,7.7,18.9,12c8.9,6.2,17.5,12.9,26.4,19.1
	c2.6,1.9,5.2,4.3,8.8,4c5.1-0.6,10-1,15-2C611.3,801.5,616.6,799.7,622,798.1z M586.6,748.4c-0.8,0.5-1.5,1-2.2,1.6
	c-0.9,0.6-1.4,0.9,0,2.1c3.6,3.5,6.7,7.6,10.3,11.2c1.6,1.7,2.8,4.7,6.3,3.3c2.7-0.9,5.5-1.5,8.2-2.2c1-0.3,1.9-0.7,2.7-1.2
	c-0.6-0.7-1-1.7-1.6-2.5c-0.5-0.6-1-1.1-1.5-1.6c-4.3-4.6-8.8-9.1-13-13.8c-2-2-3.6-2-5.6,0C589.3,746.4,588,747.1,586.6,748.4z
	 M583.7,755.1c-0.2-0.4-0.5-0.6-0.7-1c-1.5-3.1-3.6-1.6-5.5-0.5c-2.2,1.2-0.1,2.5,0.5,3.3c1.9,2.7,4,5.2,5.8,7.9s4.7,2.2,7.3,1.9
	c1.2-0.2,2.2-1.4,0.7-2.8C589.2,761.2,586.6,758.3,583.7,755.1z M586.3,809.2c-5,0.3-10-0.5-14.6-2.5c-4.2-1.7-9.2-2.1-12.9-4.5
	c-8.7-5.3-16.9-11.3-25.2-17.2c-4.6-3.3-9-7-13.6-10.3c-2.1-1.6-4.3-0.9-6.1,1c-1.6,1.6-0.1,3.1,1.1,4.1c5.6,4.3,11.3,8.6,17,12.8
	c5,3.6,9.7,7,14.9,10.8c8.3,5,16.4,9.9,24.8,14.4c4.7,2.6,10,3.9,15.4,3.6c2.5-0.1,4-1,3.6-3.7c-0.2-1.5-0.5-3.1-0.6-4.6
	C590.1,810.4,589,809,586.3,809.2z M557.7,797.2c5.5,3.1,11.5,4.6,18,6.8c2,0.4,4,0.9,5.8,1.2c0.5,0.1,0.9-0.1,1.4-0.1
	c-0.2-0.5-0.2-1.2-0.6-1.6c-1.5-1-3.2-1.9-4.7-2.8c-7.8-5.6-15.5-11.3-23.2-16.8c-6-4.2-12-8.2-17.7-12.8c-1.8-1.6-4.3-2.2-6.6-1.5
	c-2.1,0.6-4.1,1.4-6.1,2.2c-0.5,0.2-1.1,0.2-1.6,0.5c0.5,0.4,0.9,0.9,1.4,1.4c4.2,3.2,8.4,6.6,12.9,9.5
	C543.5,788.2,550.4,793.3,557.7,797.2z M438.8,786.2c-4.6,1.1-9,3.7-13.9,6c-4.6,2.5-9.3,5-13.9,7.4c-12.1,6.8-24.2,13.9-36.6,20.3
	c-10.9,5.6-22.1,10.5-33.2,15.3c-3.7,1.6-4.8,3.5-4.6,7.2c0.2,4.3,0.9,4.8,5.2,3.5c0.1,0,0.1-0.1,0.2-0.2c4.6-1.9,9.4-3.6,13.8-5.8
	c16.2-8.4,32.2-16.9,48.3-25.6c13.4-7.2,26.7-14.6,39.9-21.8c2.7-1.6,5.6-3,8.3-4.6c0.6-0.5,1.1-1.2,1.4-2c-0.2-0.1-0.5-0.4-0.7-0.4
	C448.3,785.6,443.4,785.1,438.8,786.2z M388.1,804.8c-7.3,4.3-14.4,8.9-21.7,13.3c-5,3-10.2,5.8-15.1,8.9c-0.8,0.4-1.1,1.1-1.7,1.7
	l2.6-0.4c0.1,0,0.2-0.1,0.5-0.2c11.9-6.5,23.8-12.7,35.6-19.1c8.3-4.5,16.6-9.3,25.5-14c4.8-2.5,9.6-5,14.4-7.7
	c0.5-0.2,0.9-1,1.2-1.5c-0.5-0.3-1.1-0.4-1.7-0.4c-3.2,0.9-6.7,1.5-9.5,2.9c-5.2,2.6-10,5.8-15.1,8.6
	C398.1,799.6,392.9,802,388.1,804.8z M371.6,812.4c5.3-3.3,10.4-7.2,15.9-10.2c8.4-4.8,17.1-9.1,25.7-13.5c0.6-0.5,1.1-1,1.6-1.6
	c-0.9-0.2-1.7-0.9-2.4-0.7c-1.7,0.4-3.3,1-4.8,1.7c-7,3.3-13.8,7.1-20.8,10.4c-8.7,4.1-17.4,7.9-26.4,12.3c-2.5,1.2-5,2.2-7.5,3.6
	c-14,8.1-27.9,16.1-43.3,21.1c-0.6,0.1-1.2,1-1.7,1.4c0.7,0.5,1.5,0.8,2.4,1c3.8-0.5,7.8-1.1,11.7-1.9c4.6-0.9,9.3-1.4,13.5-3
	s8.3-4.2,12.3-6.6C355.6,821.8,363.7,817.1,371.6,812.4z M340.7,818.1c8.2-4.1,16.3-8.6,25.1-12.8c5-2.4,10-4.7,15-7.1
	c7.8-3.6,15.5-7.2,23.3-10.9c0.6-0.2,1-1.1,1.5-1.7c-0.8-0.2-1.6-0.9-2.2-0.8c-2.6,0.9-5.2,1.7-7.7,2.8c-5.8,2.5-11.7,5-17.4,7.7
	c-7.9,3.8-15.9,7.9-23.8,11.8c-11.8,5.8-23.3,11.7-35.1,17.4c-7.6,3.6-15.4,6.8-23,10.2c-0.9,0.5-1.6,1-2.5,1.6
	c0.9,0.4,1.9,0.8,2.9,1c4.7,0.4,8.6-1.1,12.6-3.6C319.6,828,330.3,823.3,340.7,818.1z M380.7,778.4l-40.2,25.7
	c-6.8,4.3-13.6,8.7-20.7,13.4c-4.7,3-9.5,6-14.1,9c-0.7,0.6-1.2,1.4-1.5,2.2c0.8-0.1,1.7-0.2,2.5-0.4l9.7-5.2
	c10-4.8,20.1-9.7,30-14.6c8.8-4.5,17.4-9.2,26.2-13.4c7.1-3.5,14.4-6.5,21.6-9.8c2-0.9,2.2-2.1,0.6-3.6c-1.2-1.1-2.5-2-3.6-3
	c-4.6-4.2-4.6-4.2-9.8-0.5C381.1,778.3,380.9,778.4,380.7,778.4z M378.8,772.4l-20.1,13.6c-5.8,3.5-11.7,7-17.4,10.4
	c-6.5,4-12.8,7.9-19.1,12c-6.5,4.3-12.9,8.9-19.2,13.5c-4.5,3.2-8.8,6.6-13.1,9.9c-0.6,0.6-0.6,1.7-1,2.7c1.1,0.1,2.1,0.1,3.2,0
	c0.4,0,0.6-0.5,1-0.9c7.2-5.5,14.1-11.3,21.7-16.2c13.3-8.9,27-17.1,40.6-25.7c9.2-5.8,18.4-11.8,27.4-17.7c0.6-0.4,1.2-0.8,1.7-1.4
	c-0.8-0.5-1.6-1.4-2.4-1.4C381,771.5,379.8,771.9,378.8,772.4z M307,811.6l-14.5,11.5c-3,2.5-6.1,5-8.9,7.6
	c-0.4,0.7-0.7,1.4-0.7,2.2c0.8,0,1.6,0,2.4-0.1c0.4,0,0.7-0.2,1-0.4c4-3.3,7.8-7,11.9-9.9c6.3-4.7,12.8-9.4,19.4-13.7
	c10.1-6.3,20.6-12.2,30.6-18.6s19.6-13,29.3-19.6c1-0.8,1.7-1.7,2.6-2.5c-1.4-0.2-2.7-0.5-4-0.6c-0.4,0.1-0.8,0.2-1.1,0.5
	c-2.7,1.2-5.6,2.5-8.2,4c-6.8,4-13.6,7.9-20.2,12.3c-7.9,5.3-15.8,10.9-23.6,16.5C317.8,804.4,312.7,808.2,307,811.6z M280.3,829.6
	c0.8-0.2,1.5-0.6,2.1-1.1c4.5-3.7,8.7-7.7,13.3-11.3c6.6-5.1,13-10.4,20-15c8.4-5.7,17.2-10.8,25.9-16.2c1-0.6,1.6-2,2.4-3.1
	c-1.2,0.2-2.6,0.1-3.7,0.7c-7.2,3.8-14.3,8.2-21.6,11.8c-11.3,5.6-21.8,11.9-30.3,22.1c-0.4,0.1-0.9,0.2-1.1,0.4
	c-2.6,2.5-5.3,4.8-7.8,7.3c-0.7,0.7-1.3,1.5-1.6,2.5c-0.1,0.7,0.1,1.3,0.5,1.9C279,829.8,279.7,829.8,280.3,829.6z M330.5,837.4
	c-5.1,0.8-10.3,1.6-16,2.4c-1.1,0.3-2.1,0.6-3.2,0.7c-5.5,0.4-5.7,0.6-5.3,5.8v1.2c-0.1,2.1,0.9,3.2,3,3.1
	c6.3-0.1,12.7-0.2,18.9-0.8c5.1-0.2,5.7-1,5.7-6.2c0-1.2-0.1-2.7,0-4.1C333.6,837.4,332.1,837.2,330.5,837.4z M302.8,843.4
	c-0.1-0.2-0.1-0.6-0.2-0.9c-3.1-3.6-7.7-2.6-11.7-3.2c-2.7-0.4-3.5,1-2.6,3.6c1.5,4.8,4.3,7,9.8,7.2s5.6,0.2,4.7-5.1
	C302.7,844.5,302.7,843.9,302.8,843.4z M293.8,809c-0.9-0.1-1.9-0.6-2.5-0.2c-5.8,3.3-11.9,6.7-16.4,11.9c-0.6,0.8-0.2,2.4,0,3.8
	c0.9-0.6,2-1,2.7-1.6c5.1-4,10.1-8,14.9-11.9C293.2,810.7,293.5,809.7,293.8,809z M284.4,839.7c0.4,1.1,0.8,2.1,1.1,3.1
	c0.2,0.7,0.6,1.5,0.9,2.2c0.2-0.2,0.6-0.4,0.7-0.6c0.2-0.8,0.2-1.7,0.1-2.5c-0.3-1.4-0.8-2.7-1.5-4
	C283.8,837.3,284,838.6,284.4,839.7z M278.4,834.6c0.4,2,0.9,3.7,1.2,6.2c0.7,1.2,1.5,2.4,2.4,3.6c0.7,0.2,1.5,0,2.1-0.4
	c0.8-1.5-3.1-9.2-4.7-9.8C279.2,834,278.4,834.6,278.4,834.6z"/>
<path d="M117.4,171.8c0.4-0.1,0.6-0.1,0.9-0.2c0-0.1-0.1-0.2-0.1-0.4C117.9,171.3,117.6,171.5,117.4,171.8z"/>
</svg>
