<?xml version="1.0" encoding="utf-8"?>
<!-- Generator: Adobe Illustrator 25.2.3, SVG Export Plug-In . SVG Version: 6.00 Build 0)  -->
<svg version="1.1" id="Слой_1" xmlns="http://www.w3.org/2000/svg" xmlns:xlink="http://www.w3.org/1999/xlink" x="0px" y="0px"
	 viewBox="0 0 864 864" style="enable-background:new 0 0 864 864;" xml:space="preserve">
<style type="text/css">
	.st0{fill:#870202;}
	.st1{fill:#FB7462;}
	.st2{fill:#FF9595;}
	.st3{fill:#E2D7D7;}
	.st4{fill:#F59543;}
	.st5{fill:#FFCFAD;}
	.st6{fill:#C10707;}
	.st7{fill:#178D00;}
	.st8{fill:#FFFFFF;}
	.st9{fill:#BD4922;}
	.st10{fill:#005A8F;}
	.st11{fill:#EF2D0F;}
	.st12{fill:#FFF773;}
</style>
<path class="st0" d="M492.8,349.2c1.1,2.7,2.6,3.7,3.7,5c1.7,1.9,3.2,1.5,4.5-0.5c4.3-6.1,7.6-12.8,9.9-19.8
	C506.5,341.3,502.7,348.9,492.8,349.2z"/>
<path class="st1" d="M490.2,360.9c-18.9,1.7-35.2-3.6-48.8-17c-2.4-2.7-5.3-5-8.5-6.7c13.8,21.2,39.6,31.6,62.9,25.9
	c6-1.5,10.6-5,12.9-11c2.4-6.9,5.6-13.5,9.5-19.8c0.5-0.8,1.5-1.6,0.3-2.6c-1.9,0.3-2.5,1.9-3.3,3.3c-3.1,5.6-6.5,11.2-9.2,17
	C502.8,356.8,497.5,360.2,490.2,360.9z M508.5,330.6c-4-1.2-8.4-2.1-12.3-1.4c-8.2,1.8-16,3.8-24.7,3.6c-5.2-0.1-10.4,3.5-16.5,5.7
	C464.8,340.3,503.2,334.3,508.5,330.6z"/>
<path class="st2" d="M490.5,358.9c1.4-0.1,3-0.3,3.5-2.1c0.2-1.5-1-2.2-2-3c-2.6-2.1-5.8-3.3-9.2-3.4c-6.3-0.3-12.6-0.7-18.8-0.9
	c-3.3-0.1-6.6,0-9.9,0c-0.1,0.5-0.3,1.1-0.5,1.6c4.3,3.1,9.2,4.9,14.2,6.3C475.2,359.3,482.9,359.8,490.5,358.9z"/>
<path class="st3" d="M462.9,564.4c7.4-1.6,11-6.3,11-14.9c0.1-2.7-0.4-5.4-1.6-7.8c-2-4.5-5.5-7.2-10.3-7.4s-8.1,2.2-10.5,6.3
	c-3.8,6.5-3.1,14.9,1.9,20.3C455.8,563.6,458.9,565.3,462.9,564.4z M448.4,488.1v0.8c0,6.4,6.6,13.5,12.5,13.2s10.5-5.7,10.5-12.3
	c0.1-9-4.6-15.6-11.2-15.7C453.9,473.9,449,479.8,448.4,488.1z"/>
<path class="st4" d="M425.2,622c3.6-2.8,6.8-6.5,11.5-7.2c14.9-1.9,30.3-5.8,42.5,7.5c0.1,0.2,0.4,0.3,0.7,0.6c1.6,1,2,0.1,2.1-1.3
	c-0.6-2.6-2.7-4.2-4.7-5.4c-10.3-6.2-21.4-9.2-33.4-6.8c-7.7,1.6-15,4.2-21.2,9.2c-1.6,1.3-3.5,3.2-2,5
	C422.4,625.7,423.9,623,425.2,622z M471.1,629.4c-1.5,1.2-3,2.3-4.7,3.1c-3.9,1.9-4.5,5.2-3.5,9.3c4.1-1.9,8.2-3.7,12.2-5.6
	c2.2-1.1,4.4-2.2,2.4-5.5C475.6,627.8,473.9,626.9,471.1,629.4z M473.9,653.8c-5.8,4.5-12.5,6.2-19.7,6.1c-3.5-0.1-7-0.1-10.2,1.2
	c0.2,2.1,1.9,2.6,3.4,2.8c10.3,0.9,20-1,28.7-6.7c1.4-0.8,2.7-2.4,1.7-3.9S474.9,653,473.9,653.8z M473.9,647
	c-6.1,5.4-13.8,6.7-21.1,9.2c-1.7,0.4-3.5,0.1-4.9-0.9c-3-1.7-6.3-3.1-10.2-3.1c9,9.8,33.3,5.2,41.7-8.4
	C477,645.2,475.2,645.8,473.9,647z M433.3,619.8c3.1-0.2,5.2-0.5,7.2-0.6c1.4,0,2.8,0,2.8,1.8c-0.1,2.8,1.6,2.9,3.7,2.7
	c2.6-0.2,5.2-0.3,7.7-0.3c3.2,0,7.3,1.7,8.3-3.8c0.1-0.8,2.1-0.3,3.2-0.5c1.4-0.1,2.5,1.3,4,0.7C464.4,614.3,443.2,614,433.3,619.8z
	 M462.1,651.8c6.2-3.4,11.9-6.6,17-12.6C470.2,639.6,462.2,645.5,462.1,651.8z M436.3,628.2c5.2,2.2,7.2,6.3,7.4,11.7
	c0.1,3.3,0.7,6.6,1.9,9.7c2.2,5.2,7.5,5.8,11,1.6c2.8-3.4,3.8-7.3,4.3-11.5c0.5-3.9-0.7-8.4,4.5-10.8c-2.7-0.2-5.3-1.1-7.5-2.6
	c-1.9-1.1-3.9-1.9-6.2-1c-6.3,2.8-12.6,3.5-19.2-1.3C433,625.9,434.4,627.5,436.3,628.2z M455.3,634.8c0.3-0.4,1.1-0.7,1.4-0.1
	c0.9,2,0.1,3.8-1.4,6C453.8,638.3,453.6,636.5,455.3,634.8L455.3,634.8z M448.6,634.2c1.7,0,1.9,2.1,1.9,3.7c0,1.2-0.2,2.9-1.8,2.8
	c-1.8,0-1.5-1.8-1.6-3C447.3,636.3,447,634.2,448.6,634.2L448.6,634.2z M427.6,636.3c4.4,0,8,2,11.6,4.4c0.7,0.6,1.6,1.6,2.6,0.8
	c0.8-0.6,0.7-1.6,0.6-3.2c0-2.2-0.8-4.8-4.3-5.7c-2.9-0.9-5.5-2.6-7.5-4.9c-1.6-1.6-2.4-1.1-3.1,0.5c-0.9,1.5-1.6,3.1-2.1,4.7
	C424.5,634.7,425.2,636.3,427.6,636.3z M442,648.3c-1.3-4.3-8.1-10-12.3-10.3c-1-0.4-2.1-0.1-2.8,0.7c-0.8,1.1,0.1,1.9,0.7,2.7
	c3,4.5,7.5,7,12.5,8.8C441.4,650.6,442.7,650.7,442,648.3z M433.9,650.7c-3.1-2.8-5.5-5-8.4-7.6C425.4,648.8,428.6,650,433.9,650.7z
	 M422.8,632.6c2.2-3.2,4.1-5.6,5.7-9.4C425.1,625.8,422.6,627.7,422.8,632.6z"/>
<path class="st5" d="M566.8,247.8c-0.7-1.1-1.3-2.5-2.9-2c-1.3,0.3-1.7,1.6-1.7,2.7c-0.2,3.1-0.3,6.3-0.2,9.4
	c0.1,4.3,0.5,8.5,2.6,12.2c1-0.1,1.7-0.9,1.9-1.8c2.3-5.9,2.1-12.1,1.3-18.3C567.6,249.3,567.3,248.5,566.8,247.8z M351,326.8
	c2.9-2.2,4.1-1.8,6.3,1c25.6,34.3,59.8,54.3,102.1,60c12.2,1.7,24.9,1.9,36.3-4.5c24.8-13.8,45.9-32.2,61.9-55.9
	c11.3-16.9,13.3-34.5,3-53c-1.3-2.2-2.8-4.7-2.9-7.5c-0.1-5.6-0.5-11.2-0.7-16.8c-0.7-20.3,0.1-40.7-4.4-60.7
	c-2.7-12-6.6-23.6-16.3-32.2c-1.7-1.7-4.1-2.6-6.5-2.5c-15.3,0.1-30.5,0.1-45.9-0.1c-8.6,0-16.9-1.8-23.7-7.6
	c-2.8-2.5-4.3-1.5-6.2,0.9c-7.1,8.8-16.7,15.2-27.6,18.4c-6.4,1.9-12.8,3.6-19.3,4.9c-13.7,2.9-27.6,5.5-40.8,10.6
	c-4.8,1.8-7.3,5-8.5,9.9c-3.9,14.7-5.3,29.7-7.6,44.6c-2,12.3-3.7,24.9-12.8,34.7c-1.2,1.2-1.3,3-0.3,4.4c0.8,1.5,1.5,3,2.1,4.6
	c-5.7-3.6-10.4-8.3-16.3-11.4c-13-7.1-26,0.3-26.5,15.1c-0.5,19.3,15,40.5,33.8,45.9C337.6,331.9,344.8,331.6,351,326.8z
	 M509.6,220.8c11.9-9.3,26.1-5.4,34.5,2.8c3.7,3.6,4.5,9.2,6,14.1c1.4,4.9,2.2,9.9,2.4,15c-0.2,14.7-8.4,24.5-21.8,26.8
	c-4.8,0.9-9.6,1.7-14.6,1.1c-14.4-1.7-21.2-8.1-22-22.4C493.3,243.7,497.5,230.3,509.6,220.8L509.6,220.8z M503.6,292.4
	c3.6,6.2-2,15.4-10.2,17.4c0.7-2.1,2.4-3.2,3.7-4.6c5.2-5.6,5.2-9.8,0.1-15.5c-2.7-3-6.1-5.5-7.5-9.5
	C495,283.4,500.3,286.9,503.6,292.4L503.6,292.4z M466.4,305.5c1.6,2.1,3,4.1,5.4,5.4c0.6,0.3,1.5,0.7,1,1.6s-1.5,0.8-2.2,0.5
	C467.3,311.6,465.7,309.2,466.4,305.5z M454.3,336c5.6-1.5,11.2-3.4,16.8-5.2c0.5-0.2,1-0.3,1.6-0.4c12.1,1,23.8-4.4,35.9-2.7
	c5.3,0.8,10-1.2,14-4.5c1.3-1.2,3.4-1.7,2.8-4.7c-0.5-1.8,2-1.3,3-0.6c2.6,1.8,4.7,4.1,5.3,7.5c-0.5,0.1-0.8,0.2-0.9,0.1
	c-4.5-4.4-4.6-4.4-8.2,0.7c-4.9,6.9-9.5,14-12.5,22.1c-4.7,12.8-10.4,16.3-24,17.6c-25.4,2.7-43.1-9.8-58.3-27.9
	c-2.6-3.1-2.6-3.1-5.6-0.7c-0.9-6,2-9.4,8.3-9.9c-3.1,4.9-3.1,4.9,2.7,7.3C441.2,337.3,447.9,337.8,454.3,336z M380.1,249.2
	c0.9-7.6,6-11.1,9.4-16c3.3-4.6,8.6-6.3,14.2-7.3c29.4-5.3,51.7,23.1,43.1,52.5c-2.5,8.4-10.2,12.5-19.2,12.9
	c-2.5,0.2-4.9,0.1-7.4,0.1c-10,0.3-19.7-1.7-29.6-2.7c-2.4-0.2-3.8-1.5-5-3.9C380,273.4,378.8,261.9,380.1,249.2L380.1,249.2z
	 M332.6,300.1c-0.5-0.7-1-1.5-1.4-2.2c-3-4.5-4.4-4.7-8.5-1.2c-0.7,0.6-1.2,1.6-2.7,1.6c0-2.6,1.6-4.4,3.3-5.7
	c2.6-2,1.8-3.2-0.2-4.9c-5.6-4.5-11.3-8.1-19.1-4.7c2.5-4.6,6.3-4.8,10.2-3.6c10.9,3.4,17,11.3,20.5,22.1
	C333.2,301.6,333,300.7,332.6,300.1L332.6,300.1z M511.1,224c6.8-2.2,14-2.8,21.9-4.5C525.5,216.5,516.9,218.2,511.1,224z
	 M499.2,757.7c-6.1-3.8-13-6.3-20.1-7.5c-3.7-0.6-5.7,0.7-7.1,4c-0.9,2.4-1.8,5.3-4.6,5.7c-9.2,1.7-16,7.3-22.2,13.6
	c-9.2,9.4-19.3,17.2-33.1,18.4c-1.8,0.1-4.1,0.5-4.5,2.7s1.3,3.8,3,4.9c4.7,3.1,9.9,3.7,15.4,2.8c7.1-1.2,14-3.2,20.3-7
	c1.9-1.1,2.6-0.6,2.5,1.5c0,1.3-0.1,2.6-0.3,3.9c-3.4,16.5-10.7,30-27.1,36.8c-3.2,1.3-3.1,2.9-0.2,4.7c1.7,0.9,3.6,1.3,5.5,1.1
	c4.7-0.1,8.9-2,12.9-4.3c3.6-2,7-4.5,11.7-5.6c-1.5,3.9-4.1,5.6-6.6,7.6c-2.2,2-1.7,3.2,0.8,4.5c3.1,1.6,6.9,1.4,9.9-0.6
	c3-2.1,6-4.5,9-6.6c1.8-1.2,3.4-3.1,6.7-3c-1.8,2.7-3.2,4.7-4.6,6.8c-0.6,0.9-0.9,1.9-0.1,2.8s2,0.6,2.8,0c1.9-1.2,3.8-2.6,5.5-4.2
	c2.7-2.3,5.3-4.9,8.4-7.8c-0.1,4.5-3.6,7-3.6,11.3c8.2-6.1,13.7-13.2,15.4-22.8c3-18,6-35.8,9.1-53.6
	C504.5,763.6,503.3,760,499.2,757.7z M416,782.1c-0.6,2.9,0.1,4.2,3.2,2.9c3.3-1,6.4-2.6,9.1-4.8c7.7-6.5,14.6-13.9,21.9-20.9
	c0.7-0.7,1.5-1.2,1.5-2.5c0.1-4-6.1-10.4-10.9-10.4c-8.4,1.1-16.7,5-24.6,10c-1.3,0.8-1.3,2-0.6,3.4c2.1,3.6,2.4,7.6,1.9,11.7
	C417.3,775.1,416.7,778.6,416,782.1z M427.6,389.2c6.3,5.4,13.5,6.8,21.4,5.3C441.9,392.7,434.8,391,427.6,389.2z M442.5,807.2
	c0.5-1.3,1.9-3.1,0.5-4.4c-1.2-1-2.7,0.5-3.9,1.1c-6.2,3.1-12.3,6.2-19.7,5.2c-2.2-0.3-2.4,1.2-2.5,3c-0.1,4.4-0.3,8.9-0.8,13.3
	c-0.2,3.6-2.6,6.6-6.1,7.6c-1.2,0.6-2.9,0.1-4,1.9c3,1.8,3.9,1.9,7.7,0.5C427.6,830.4,437.7,821.4,442.5,807.2z M424,232
	c-10.3-7-27.9-4.6-33.4,4.5C401.7,231.9,412.6,231.4,424,232z"/>
<path class="st6" d="M326.3,59.7c9-3,18.1-5.6,25.6-11.9c4-3.3,9.3-4.4,14.2-3c2.7,0.6,5.5,0.6,8.2-0.1c11.3-2.6,22.5-5.6,34-7.8
	c8.1-1.5,16-3.1,22.4-9.1c2.8-2.7,6.7-2.2,10.2-1s7.2,2.4,11,2.1c3.6-0.3,7.2-0.6,10.8-1l11.9-1.7c0.9-0.1,2-0.1,2.4-0.9
	c0.5-1.3-0.8-1.8-1.6-2.2c-6.1-4.4-12.8-7.7-20-10c-32.9-9.9-64.4-5.8-94.8,9.3c-15.4,7.4-28.3,19.2-36.9,34c-0.7,1-1.9,2.1-1,3.5
	S325.1,60.2,326.3,59.7z M285.7,239.8c0-0.8-0.3-2.2-0.7-2.4c-6-1.4-4-6.3-3.6-9.5c4.9-34.4,20.9-62.7,48.9-83.8
	c3.6-2.6,6.8-5.8,9.5-9.3c17.5-23.4,40.5-37.9,69.8-40.8c14.5-1.6,29.2-1.6,41.6,8.3c2.1,1.7,3.2,0.1,4.4-1
	c6.1-5.6,13.8-9.2,22-10.3c26.1-3.7,49.9,1.8,70.7,18.3c21.9,17.4,30.8,39.5,23.8,67.2c-1.6,5.9-1.1,12.2,1.6,17.7
	c4.9,10.8,6,21.9,0.9,33c-1.5,3-2.8,5.9-4.2,9.1c-0.8,1.7-2.2,3.7-0.3,5.5c1.7,1.7,3.6,0.3,5.2-0.4c32.6-13.9,62.3-32.5,87.4-57.8
	c12.9-13,24-27.6,30.4-45.2c1.2-3.3,2.1-6.6,0.3-10c-0.5-0.9-0.4-2,0.3-2.8c4.2-6.1,3.2-12.1-0.5-18.1c-0.7-1-1.5-1.9-1.3-3.1
	c0.8-7.1-3-12.7-6.2-18.4c-2.7-4.8-6.5-7.7-12.2-7.2c-1,0.1-2.1,0.3-2.9-1.1c4.8-2.7,5-3.8,0.9-7.6c-4.9-4.7-10.4-8.8-16.4-11.9
	c-4.6-2.5-9.2-4.8-14.7-3.8c-1.2,0.2-2.6,0-2.5-1.6c0.3-3.4-2.1-4-4.5-4.8c-11.2-4-22.7-7.3-34.3-9.8c-6.1-1.3-11.4-0.9-16.6,2.5
	c-1.1,0.6-2.3,1.2-3.5,1.7c-0.7,0.4-1.5,0.2-1.9-0.5c-0.2-0.5-0.2-1.1,0-1.7c1.7-4.8,1.8-4.9-3.5-5.6c-19.5-2.8-39.2-2.2-58.7-2.3
	c-1.9,0-2.9,1.1-4,2.1c-2.9,2.8-5.8,5.6-8.9,8.3c-0.8,0.8-2,1.7-3,0.7s0.6-2,1.1-2.8c1.4-1.8,4.6-3.1,3.6-5.4s-4.5-1.1-6.8-1.3h-1.7
	c-21.1,0-41.5,4.5-62.1,7.4c-4,0.6-6.4,2.6-8.5,5.6c-3.4,4.5-6.6,9.1-10.6,13c-1.2,1.2-2.5,2.3-4,3.2c-0.6,0.4-1.2,0.6-1.9,0.6
	c-0.5,0-0.9-0.2-1.2-0.6c-0.7-0.9,0.3-1.9,1-2.7c2.8-3.6,6.4-6.6,8.6-10.7c0.7-1.2,1.8-2.6,0.8-4s-2.7-1.1-4.3-0.7
	c-17.2,4.3-34.4,8.4-51.5,13.1c-8,2.1-14,5.6-17.6,13.4c-2.7,5.4-6.6,10-11.5,13.5c-1.1,0.8-2.7,1.8-3.8,0.4s0.5-2.4,1.4-3.1
	c2.9-3,5.3-6.5,7.1-10.3c0.7-1.5,2.2-3.3,0.9-4.7c-1-1.2-2.9-0.1-4.4,0.3c-11.5,3-22.1,8.3-33,12.9c-7.5,3.1-15,6.6-22.3,10.3
	c-5,2.6-9.1,6.2-10.8,12.1c-1,3.6-3.4,6.7-5.3,10c-0.7,1.1-1.6,2.8-3.2,2c-2-0.9-0.5-2.5-0.1-3.7c0.7-1.9,1.8-3.6,2.5-5.5
	c0.6-1.3,1.8-3.1,0.5-4.4s-3,0.1-4.4,0.7c-14.1,7.2-27.1,16.2-39.6,26c-2.2,1.7-3.5,4.4-3.4,7.2c0,2.6-0.6,5.2-1.8,7.5
	c-0.3,0.7-0.8,1.4-1.6,1c-0.5-0.3-0.8-0.8-0.8-1.4c-0.2-0.8-0.3-1.7-0.2-2.6c-0.1-1.3,0.1-3.1-1-3.7c-1.5-0.7-2.5,1-3.6,1.8
	c-6.7,5.5-12.6,11.9-18.7,17.9c-6.1,5.7-11.2,11.8-9.5,21c0.1,0.4,0.1,0.9-0.2,1.3c-0.3,1.3,0.1,3.5-1.7,3.5c-2,0.1-1.5-2-1.7-3.4
	c-0.2-1,0-2.6-1.3-2.9s-2,1-2.7,1.9c-4.7,6.2-8.6,12.9-11.7,20.1c-2.5,5.6-4.9,11.1-1,17.2c1.1,1.8,0.6,3.4-2.1,3
	c-1.4-0.1-3.4-0.7-3.3,1.6c0.4,8.6-1,17.9,4.1,25.2c3.5,4.8,7.6,9.1,9.1,15.1c0.2,0.4,0.5,0.7,0.8,1c4.1,4.8,9,9,15,11.3
	c2.1,0.6,3.9,1.9,5.3,3.6c2.1,3,5.2,4.9,8.3,6.6c30.1,16.7,62.2,24,96.5,21.6c3.4-0.2,2.8-1.9,2.1-3.9c-2.8-8.6-3-17.3,0.5-25.8
	c1.4-3.1,0.5-5.8-0.8-8.6C288.8,257,285.9,248.7,285.7,239.8z"/>
<path class="st7" d="M517.5,263.3c8.2,0.7,11.9-4.1,12.6-13.5c0.3-6.7-4.9-12.4-11.6-12.7c-0.1,0-0.2,0-0.4,0
	c-7.3,0-12.3,5-12.3,12.4C505.8,258.8,509.6,263.2,517.5,263.3z M518,241.5c4.8-0.1,8.6,4,8.6,9.3c-0.1,4.9-4.1,8.9-9,9.1
	c-4.7,0-8.2-3.9-8.2-9.2C509.6,245.7,513.4,241.6,518,241.5L518,241.5z M412.9,276.1c7.4-0.1,13.9-6.4,13.9-13.8
	c0-8.6-6.9-16.3-14.7-16.3c-7.4,0.1-14.1,7.2-14.1,15.2C398,269,405,276.2,412.9,276.1z M412.1,251.8c4.9,0,9.3,4.6,9.3,10.1
	s-3.9,9.9-8.8,9.8s-8.8-4.6-8.8-9.9S407.6,251.9,412.1,251.8L412.1,251.8z"/>
<path class="st8" d="M699.3,572.5c-2.5,7.1-7.1,12-12.2,16.5c-4.2,3.4-7.4,3.5-11.1-0.3c-7.2-7.2-12.1-15.2-10.2-26.1
	c1.7-10.1,1.2-10.2-9.1-7.8c-18.1,4.3-34.8,12-51.2,20.5c-17.1,8.8-33.5,18.4-48.7,30.3c-1.5,1.1-4,2.8-2.6,4.7s3.2-0.7,4.7-1.6
	c16.3-10.6,33.6-19.7,51.5-27.2c11.4-4.7,24.2-6.2,34.7-13.6c0.1,0,0.2,0.1,1,0.3c-4.7,5.6-10.1,10-14.8,14.9
	c-1.9,1.9-5.5,3.8-4.5,6.3c0.9,2.7,4.8,1.5,7.4,1.5c5.8,0.1,11.2,1.2,15.9,4.7c5.2,3.9,6.4,8.2,3.3,13.9c-2.8,4.9-4.4,10.3-4.7,15.9
	c-0.2,3.1-0.5,6.3-0.9,9.4c-1.8,13.9-15.7,24.5-29.5,22.4c-6.7-1-9.9-3.9-10.7-10.8c-0.5-4.2-0.3-8.4-0.5-12.6s-1.3-7.2-6.1-8
	c-2-0.4-3.9-1.2-5.5-2.4c-2.2-1.7-3.8-1.5-5.8,0.5c-10,9-20.1,17.8-31.2,25.2c-7.6,5-12.8,11.2-15,20.2c-0.7,2.9-0.8,5,0.7,7.6
	c6.7,11.3,8.1,23.3,4.3,36.1c-2.7,9.1-6.1,18-10,26.6c-2.4,5.3-4.9,10.4-7.2,15.7c-0.6,1.1-2,2.8-0.7,3.9c1.1,0.9,2.8-0.1,4.2-0.6
	c2.4-1,4.8-1.9,7.3-2.6c11.2-2.8,20.3,6.2,17.8,17.4c-0.6,2.1-1.2,4.1-2,6.2c-1,3-1.7,6.1-2,9.2c-0.3,3.9,1.5,5.3,5,5
	c3.2-0.2,6.3-0.8,9.3-2c3.5-1.2,6.7-1.3,9.9,0.8c1.9,1.2,3.5,1.1,5.4-0.5c9.4-7.7,18.6-15.9,27.6-24.1c2.1-1.9,1.9-3,0-4.7
	c-2.6-2.2-4.5-4.8-4.8-8.4c-0.6-6.4-1.2-6.8-7.5-7.6c-4.6-0.6-8.2-4-8.5-7.8c-1.5-17.6,15.2-31.4,31.7-26.1c8.1,2.6,14.7,1,20-5.7
	c2.8-3.6,5.3-7.3,8.6-10.2c3.7-3.1,7.7-4.7,12.3-2c2.2,1.3,3.4,0.8,4.6-1.5c4.4-7.7,8.9-15.5,13.5-23.1c4.3-7.4,8-14.7,6.6-23.9
	c-1.1-6.8,2-10.1,8.9-12.2c3-0.7,5.5-2.6,7.1-5.3c4.7-7.8,8.6-16,11.6-24.6c0.9-2.5,0.9-5.1,0.1-7.6
	C714,587.2,706.9,579.8,699.3,572.5z M576.4,687.9c-4.3,6.3-14.5,9.2-19.7,5.8c-6.5-4.2-8.8-14.2-3.8-21.1
	c4.5-6.1,9.9-11.4,15.2-16.9c2.6-2.7,5.5-2.1,8.1,0.5c4.3,4.3,5.3,9.7,5.2,15.5C581.2,677.4,579.6,683.1,576.4,687.9z M524.3,512.9
	c-3.5,16.6-10.7,31.9-16.7,47.6c-2.4,6.1-2.2,6.1,3.9,5.4c-0.2,1.7-1.7,2.6-2.6,3.8c-6.9,7.8-11.8,17.1-14.5,27.2
	c-1.9,7.5-3.4,15.2-4.5,22.9c-1.8,11.2-3.4,22.4-4.9,33.7c-0.2,1.9-1,4.3,2.8,3.3c14.5-3.9,30-1.6,42.7,6.4c4.9,2.9,5.3,2.8,7.1-2.7
	c5.8-18,9.1-36.7,9.8-55.5c0.1-3.5,0-7,0-10.4c-2.5-0.1-3.7,2.1-6.1,1.2c3.5-6.4,9.4-11.3,10.5-19c1.1-8-4.2-14-6.3-21.8
	c2.1,1.6,3.6,2.7,5,3.9c0.3-0.5,0.6-0.7,0.6-0.9c0-2.9-0.1-5.8-0.1-8.6c-0.3-24-0.2-48.1-4.6-71.9c-3-16.7-7.2-33.2-15.5-48.2
	c-2.6-4.7-5.6-9.2-10.5-12.9c0.1,0.8,0.2,1.5,0.3,2.2C532.5,449.6,530.8,481.2,524.3,512.9z M510.1,276.2c3.7,0.5,7.5,0.8,11.2,0.7
	c7.1,0.6,14.1-1.2,20.1-5.2c4.2-2.7,7.1-6.5,7.6-11.5c1.2-9.9-0.3-20-4.5-29.1c-1.3-2.9-3.9-5.1-7.1-5.7c-8.7-2.2-17.9-1.8-26.4,1.1
	c-3.8,1.2-6.9,3.9-8.5,7.5c-5.1,9.5-6.5,20.5-4.1,31C499.9,271.3,503.7,275.1,510.1,276.2z M518.1,233.6c8.5-0.1,15.5,7.6,15.5,17.2
	s-6.2,16.3-15.1,16.4c-9.4,0.2-16.6-7-16.6-16.5S509,233.6,518.1,233.6L518.1,233.6z M519,249.3c1.5,0.1,2.6-0.2,2.8-2
	c-0.1-1.3-1.2-2.4-2.5-2.4c-1.5-0.1-2.6,0.4-2.8,2S517.7,249.1,519,249.3z M399.3,571.8c8.8,9.2,13.1,20.5,16.7,32.3
	c1.2,4.3,4,5.9,8.3,5.9c2.5-0.1,4.9-0.6,7.2-1.6c8-2.9,16.5-4.1,25-3.5c6.6,0.4,12.8,3,19.3,4c6.8,1.2,7.9,0.6,9-6.3
	c1.7-9.4,4.8-18.3,10.4-26.1c1.8-2.7,3.1-5.6,3.8-8.8c1.8-6.6,3.5-13.3,5.6-19.8c6.6-20.4,12.2-41.1,14.6-62.5
	c0.7-6.6-0.8-8-7.1-6.2c-2.2,0.7-4.2,1.9-6,3.4c-3,2.4-5.6,5.4-7.5,8.8c-1.6,2.7-2.7,2.7-4.8,0.7c-3.8-3.7-7.5-7.6-12.3-10
	c-2.5-1.2-3.8-0.9-3.8,2.1s0,6.1-0.2,9.1c-0.2,5.3-2.6,10.2-6.7,13.5c-9.6,8.2-28.9-0.6-30.3-14.2c-0.2-1.9-0.3-3.9-0.6-6.6
	c-4.6,3.4-7.2,7.5-10.1,11.3c-2.5,3.2-4.5,4-8.2,1.3c-8.8-6.7-19-9.3-29.8-9.4c-3.7,0-4.4,1.2-3.4,4.3c2.1,6.6,3.8,13.2,6.3,19.7
	c6.8,18,9.2,36.1,4.1,55C398.4,569.5,398.2,570.7,399.3,571.8z M446.8,535.9c4.3-6,11-9,17.6-7.1c7.3,2,12.6,6.3,14,14.1
	c0.5,2.2,0.6,4.6,0.8,6.7c-0.3,2.4-0.4,4.5-0.8,6.6c-1.1,7.3-5.4,12-12.1,13.6c-9,2-14.9,0.1-19.5-6.3
	C441.3,555.7,441.1,543.8,446.8,535.9z M512.3,822.9c-0.5-5.6-1-10.4-5.8-13.3c-1.8-1.1-2.9-1-3.2,1.3c-0.6,3.1-1.2,6.2-1.8,9.3
	c-1.2,7.4-1.1,7.4,6.4,6.3C510.2,826.1,513,826,512.3,822.9z M489.9,346.6c5.4-0.3,10.4-2.1,13.9-6.7c0.9-1.1,2-2.5,1.2-3.9
	c-0.9-1.7-2.5-0.8-3.8-0.5c-17,3.3-34,6.5-51.5,5.6c-0.9,0-2-0.3-2.8,0.9c1.8,1.8,4.3,2.2,6.5,2.7
	C465.5,347.5,477.7,347.5,489.9,346.6z M405.6,379.6c-10-5.5-10.3-5.3-10.5,6.1c0.2,2.8,0.1,5.7,0.7,8.5c3.6,16.7,24.2,36.6,41,39.8
	c2.8,0.5,4.5-0.3,4.9-3.3c0.3-2.6,0.7-5.2,1.2-7.7c1-5.6,1.6-11.4,4.3-16.6c1.9-3.6,4.5-3.6,6.4-0.1c1.6,3,3,6.2,4.1,9.4
	c1.9,4.8,3.9,9.6,7,13.9c1,1.5,2.2,2.9,4.1,1.2c8.9-8,15.4-18.6,10.1-31.9c-0.9-2.4-2.6-3.3-4.9-3.4c-4.9,0-9.7,0.6-14.5,1.8
	c-14.6,3.2-28.4,2.4-40.2-8.2C415.1,385.6,410.5,382.3,405.6,379.6z M394.6,286.5c7.6,0.5,15.3,0.8,22.8,1.8c6.5,0.9,13.1-0.1,19-3
	c5.4-2.5,8.8-6.7,9.2-13c0.7-8.2-1.1-15.9-4.3-23.6c-4-10-10.5-16-19.6-14.6c-12.9,0.3-22.8,2.5-31.8,8c-2.5,1.6-4.7,3.5-5.3,6.5
	c-2.2,11.8-2.5,23.4,4.1,34.2C390.2,285.1,391.8,286.4,394.6,286.5z M411.9,242.8c10.6,0.1,17.7,7.8,17.8,19.2
	c0,10.2-7.2,17.5-17.3,17.5c-10.1-0.2-18.1-8.5-18-18.6c0-0.1,0-0.1,0-0.2C394.6,251.5,403.2,242.6,411.9,242.8L411.9,242.8z
	 M343,585.7c0.7-0.7,0.7-2.2,2.5-2.1c0.2,29,8.6,56.1,20,82.5c2,4.8,2.2,4.9,6.5,1.7c11-8.1,23.6-14,36.9-17.3
	c3.5-0.8,8.5,0.6,10.1-2.2s-1.2-7.1-2.1-10.5c-4.5-16.4-8.6-32.9-15.5-48.5c-4.8-10.8-12.2-18.6-23.8-22.4c-1.2-0.3-2.7-0.6-3.7-1.9
	c1.8-1.3,3.6-0.8,5.5-0.5c4,0.6,7.9,1.6,11.6,2.9c2.2,0.8,3.5,0.5,3.5-2.3c0-11.1,0.6-22.3-2.6-33.1c-7.9-26.7-14.7-53.7-21.6-80.8
	c-2.7-10.7-5.5-21.5-11.4-31.1c-3.4-5.4-5.5-5.6-10-0.9c-5.5,5.5-9,12.3-11.4,19.6c-10.7,31-11.9,62.5-5.6,94.5
	c1,5.4,2,10.8,4.4,15.9c2.2-1.3,2.1-4,4.1-4.8c0.8,1,0.2,1.9,0,2.8c-1.8,6.7-3.6,13.3-5.3,20c-2,8.1,0.2,15,6,21.1
	C341.7,587.3,342.3,586.5,343,585.7z M414.3,261c1.4,0.1,2.6-1,2.7-2.3c0-0.1,0-0.2,0-0.3c0-1.9-1.4-2.6-2.8-2.7
	c-1.8-0.1-2.1,1.1-2,2.6S412.6,260.9,414.3,261z M407.6,787.4c3.7-2.5,3.1-7.3,3.7-11.1c0.4-2.7-3.3-2-4.9-3.1s-3.7-1.8-5-3.2
	c-3.7-4-7.9-4-12.6-2.2c-3.1,1.1-6.1,2.6-8.9,4.4c-2.9,1.9-5.8,3.7-8.8,5.6s-5.3,1.5-7.9-0.6c-5.6-4-8.8-9.1-7.1-16.3
	c0.5-2.1,0.9-4.2,1.1-6.3c0.3-9.5,5.7-13,14.7-13.3c5.7-0.1,6.5-2.2,3.6-7.2c-4.8-8-10-15.8-14.4-24.1c-5.2-9.8-7.2-19.4-1-29.8
	c3-4.9,2-7.7-3-10.8c-15-9.2-30.1-18.3-43.9-29.2c-1.1-0.9-2.1-1.1-2.7,0.3c-2.6,6.8-7.7,6.6-13.6,5.2s-11.5-1.5-16.5,2.2
	c-4.7,3.5-9.8,3.9-15.3,3.1c-8.5-1.5-16.9-1.1-24.2,4.7c-3,2.4-6.4,2.1-9.6,0.1c-9.1-5.7-16.1-14.3-19.8-24.5
	c-1-2.8-0.8-5.4,1.2-7.6c4.6-4.9,4-10,1.1-15.5c-2.2-4.2-4.5-8.3-5.6-13c-2.8-11.5,0.9-17.8,12.3-20.9c0.8-0.2,1.9-0.2,2-1.2
	s-0.7-1.5-1.4-2s-1.2-1.1-1.9-1.7c0.2-0.3,0.3-0.8,0.6-1.1c16.4,8.2,34.2,11.5,51.6,16.4c-19-10.2-38-20.3-59.3-24.9
	c-7.8-1.8-16.1-0.6-23,3.5c-9.4,5.4-18,12-25.9,19.4c-1.2,0.9-2.1,2.2-2.6,3.6c4.3,0.7,3.7,2.7,1.3,5c-2.2,2.1-4.3,4.5-7.3,5.4
	c-1.1,0.3-2,1-2.6,2c-2.7,5.8-4.4,11.3-0.6,17.6c5.2,8.3,11,16.2,16.1,24.5c11.4,18.2,22.9,36.3,34.2,54.5c1.5,2.5,2.6,2.9,4.7,0.8
	c3.2-3.1,7.4-4.4,11.9-4.5c16.3-0.7,27.6,7.4,36.2,20.3c3.7,5.4,6.9,11,7.2,17.7c0.5,8-2.6,10.4-10.4,9.4
	c-6.2-0.8-12.4-2.6-18.9-0.2v0.8c23.8,30.8,52.2,56,88.1,72.1c11.6,5.2,23.7,8.9,35.9,12.2c3.1,0.8,4.1-0.1,4-3.3
	c-0.2-2.6-0.2-5.2-0.1-7.7c0.7-8.6,6-13.5,14.6-14c6.6-0.5,11.1,3.2,15.8,6.8c2.1,1.7,4.4,3.4,7,1.1c2.8-2.3,6.8-4.2,5.5-9.2
	C402.6,793.4,403.7,790.1,407.6,787.4z M179,579c-2.2,1.3-4.5,2.6-6.9,3.7c-0.8,0.3-2,0.8-2.6-0.3c-0.4-1-0.1-2.1,0.8-2.7
	c2.2-1.8,4.4-3.7,7.1-3.9c1.2,0.1,2.2-0.1,2.7,0.8C180.7,577.6,179.8,578.4,179,579z M192.4,572c-1.8,0.6-4.4,2.8-5.5,0.2
	c-0.8-2,2.4-3.1,4.1-3.9s3.9-1.8,5.7,0.2C195.9,570.7,194,571.5,192.4,572L192.4,572z M296.7,774.4c-8.8-1.3-12.8-5.5-13.9-14.4
	c-0.3-3.5-0.6-6.8-0.9-10.3h0.1V745c0.2-5.4,2.5-7,7.6-5.2c9.3,3,18.2,14.8,18.5,24.6C308.2,772,304.2,775.6,296.7,774.4z
	 M341.4,723.8c-2.3-0.3-4.5-0.9-6.6-1.9c-7.1-3.2-14.5-5.4-22.2-6.5c-8.6-1.2-12.1-6-9.4-14.2c2.1-6.8,2-12.2-2.4-17.8
	c-1.5-1.8-1.6-4.3-1.9-6.5c-1.1-6.8,1.8-10,9.8-9.8c7.3,1,15.6,1.8,23.7,3.8c5.6,1.5,9,4.9,10.9,10.1s2.6,10.5,3.1,16
	c0.6,5.4,2,10.7,4.1,15.7C353.9,721,350.2,725.4,341.4,723.8z"/>
<path class="st9" d="M574.9,813.7c-7.8,4.3-15.7,8.5-24.1,11.7c-3.5,1-6.1,4-6.6,7.6c-0.4,2.2-0.4,4.7-2.3,6.5
	c-2-3.9,0.9-7.3,1.2-11.1c-12.4,3.7-25.1,6.2-37.9,7.4c5.6,0.7,10.8,1.1,15.9,1.9c22.3,3.8,43.7,10.7,64.8,19c7,2.7,11,1.7,15.6-3.9
	c7.2-8.6,6.3-18.5-2.1-25.6c-5.8-4.8-12.1-8.9-18.3-13C578.8,812.5,577.2,812.4,574.9,813.7z M548,841c-0.6-4.3,0.7-8.7,3.4-12.1
	C551.3,833.1,550.1,837.3,548,841z M305.4,816.9c-2.1-1-3.7-1.3-5.7,0.3c-7.6,6.4-11.3,14-8.2,24c1.2,3.8,2.2,7.7,3.5,11.6
	c0.5,1.6,1.3,3,3.1,3.1c4.9,0.3,10.2,1.2,14.7-1.6c11.9-7.3,24.8-12.1,37.8-16.7c2.5-0.8,5.2-1.5,7.9-3.6c-2.7-0.5-4.5-0.6-6.3-1
	C336,829.5,320.3,824.1,305.4,816.9z M311.1,841.1c-2.7-6.5-7.1-10.7-13.8-13.8C305.8,825.4,313.3,833.2,311.1,841.1L311.1,841.1z"
	/>
<path class="st10" d="M555.8,640.5c4.2-3,8.2-6.3,12.3-9.4c18.7-14.8,35.7-31.8,53.2-48.2c-0.5,0.1-1.1,0.2-1.6,0.3
	c-21.4,8.9-41.7,20.1-60.8,33.2c-2.3,1.6-4.2,3.6-4.6,6.5c-1,5.4-1.6,10.8-1.7,16.3c0,0.8-0.3,1.9,0.6,2.3
	C554.3,642.2,555.1,641,555.8,640.5z M450.9,669.3c-2.5,0-2.7,1.7-2.2,3.6c1.4,6.2,2.7,12.2,4.1,18.4c0.2,1,0.6,2.5,1.9,2.5
	s1.7-1.5,1.9-2.6c1.7-8.2,4-16,10.2-23.7C460.5,668.5,455.8,669.3,450.9,669.3z M455.6,702.5c-0.9,4,0.6,14,2.6,18.3
	C457.5,714.6,458.4,708.3,455.6,702.5z M351.9,655.9c-2.9-8.4-5.6-15.8-8.2-23.2c-1.3-4-4-6.7-7.5-9.2c-16.9-11.9-35.6-20.4-54.8-28
	c-8.5-3.4-16.9-7-25.9-9.4C287.6,608.8,317.9,634,351.9,655.9z"/>
<path class="st11" d="M568.6,203.5c-1.5-7.9-4.2-15.6-2.9-23.8c0.6-4.7,0.6-9.5,1-14.2c1.1-11.8-2.4-23.5-9.7-32.8
	C538,107.5,512,97,481,98c-7.4,0.3-14.6,2.5-20.9,6.4c-2.5,1.6-4.1,3.2-1.9,6.6c1.3,2.1,2.1,4.4,2.6,6.8c0.6,2.7,1.8,3.7,4.6,3.7
	c4.3,0,8.5,0,13.2,2.2c-1.2,0.6-1.6,0.8-1.9,0.9c-2.7,0.6-5.4,1.1-8.1,1.6c-6.8,1.2-6.6,1.2-7,8.1c-0.1,3.6,1.1,5.4,4.3,6.7
	c6.4,2.7,13.1,4.5,20,5.4c11,1.8,22.1,1,33.2,2.2c6.7,0.8,13.5,1.5,20,3.6c3.9,1.2,8.9,2.8,9.9,6.8c1.3,5.3,4.4,9.4,6.4,14.2
	c5.3,12.4,7.1,25.5,7.2,38.7c0.1,6.9,0,13.9,0,20.9c0.6,0.1,1.1,0.1,1.7,0.1C568.5,223.6,570.4,213.9,568.6,203.5z M369.2,173.2
	c15-6.2,31-9,46.4-13.1c11.4-2.9,22.2-7,31-15.5c5.4-5.4,8.9-11.6,9.1-19.3c0.1-4-1.6-6.6-5.5-7.6c-8.5-2.4-17.5-2.5-26-0.3
	c-1.5,0.3-3.1,1.6-5.2,0.3c8.3-10.7,20-6,30.6-7.2c-1.7-2.2-3.9-4-6.4-5.2c-9.2-4.8-19.2-5-29.1-3.6c-22,3.1-40.9,13.1-57.9,27.3
	c-8.1,6.9-15.3,14.9-21.2,23.8c-0.9,1.3-3,3.8-3.5,3.4c-3.6-3.4-4.1,1.1-5.3,2.2c-12.5,12.9-22,27.7-30.2,43.5
	c-2.6,4.7-4,10.1-3.8,15.5c0.5,14.1,1.8,28.2,5.9,41.7c1,3.6,2.6,4.4,5.7,2.9c3.5-1.4,7.2-2,11-1.8c7.4,0.1,7.4,0,8.3-7.4
	c0.3-3.1,0.1-6.4,2.6-10.1c1.7,5.5,1.6,10,1.7,14.6c0,2.5-0.3,4.9,0.8,7.2c0.5,1.6,1.9,2.6,3.6,2.7c1.6,0,2.1-1.5,2.6-2.6
	c1.2-3.6,2.6-7.1,3.6-10.7c4.9-19.4,6.3-39.5,11.1-58.9c0.1-0.7,0.5-1.6-0.3-1.9c-0.6-0.2-1.4,0.2-2,0.4c-2.5,0.8-3.7,3.8-7.1,3.9
	c1.3-3.3,3.2-6.4,5.6-9.1C352,181.2,360.4,176.8,369.2,173.2z M387.5,379.6c4.5-2.1,4.4-5.6,0.7-9c-1.1-1.1-2.4-2-3.6-3.1
	c-11-9.9-22.3-19.5-29.1-33.2c-1-1.9-2.2-1.3-3.6-0.7c-2.2,1-4.6,1.8-6.7,2.9s-6.3-0.6-6.8,2c-0.5,2.1,1.7,5,3,7.3
	c4.9,8,6.4,17.7,4.1,26.8c-1.4-3.3-2.2-5.8-3.5-8.4c-0.6-1.5-0.9-3.6-2.7-3.5s-2.1,2.1-2.8,3.5c-2.7,5.8-3.8,12.2-3.3,18.5
	c0.3,5.3,1,10.6,2.1,15.8c0.2,1.1,0.9,2.8-0.4,3.4s-2.1-1.2-2.8-2.1c-1.3-2-2.7-4-4.4-6.6c-8.1,13.8-2.2,27.4-1.2,41.5
	c-3.8-2.4-4.1-6.4-7.1-8.4c-1.2,2.6-2.4,5-3.6,7.3c-3.4,6.2-3.8,12.2,0.2,18.3c1.4,2,2.4,5.4,4.7,5.2c2.8-0.2,2.8-3.9,3.5-6.3
	c4.2-15.4,12.7-29.2,24.5-40C361,399.3,371.9,386.9,387.5,379.6z M313.3,480.2c-2.8-0.3-5.2-2.5-7.2-4.6c-1.9-1.9-3.6-3.9-5.5-6.2
	c-6.7,9.3-9.7,20.7-8.4,32.1c1.2,11.3,8.9,17.7,18.7,23.4c-0.7-4-1.2-7.1-1.5-10.2c-0.3-3.7,0.3-5.5,3.1-8.3c0.6,2.8,1,5.6,1.7,9.3
	c3.5-9.6,3.7-18.6,4-27.7C318.5,484.1,318.8,480.7,313.3,480.2z"/>
<path class="st12" d="M508.3,778.4c0.9,0.2,1.8-0.3,2.1-1.1c1.2-2.8,1.1-5.6-1.5-9.1c-0.7,3.4-1.1,5.8-1.5,8.3
	C507.5,777.2,507.1,778.3,508.3,778.4z M407.4,766.8c-0.1,1.9,1,2.9,2.9,2.9s2.9-0.9,2.9-3c-0.7-1.5-0.1-4.5-2.7-4.4
	C408.3,762.3,407.6,764.8,407.4,766.8z M543,708c2.1-9.1,0.5-18.7-4.5-26.6c-8.5-14.1-21.9-19.3-38.3-19
	c-12.2-0.9-22.1,4.3-29.7,14.1c-3.3,4.1-5.4,9-5.8,14.2c-0.1,2.8,0.8,4,3.8,3.2c4.6-1.2,6.3-3.4,5.8-8.6c-0.2-3-0.6-6.1,0.6-9
	s2.7-5.7,6.4-4.9s5.7,3.4,5.5,7.3c-0.2,1.9-0.5,3.7-1,5.5c-0.6,2.5-0.2,4.7,2.1,6c3.5,1.8,6.7,0.9,9.9-0.9c2.2-1.2,2.7-3,2.1-5.5
	c-1-3.2-1-6.6,0.1-9.8c0.8-2.7,3.3-4.6,6.2-4.7c2.9,0,4.6,2.2,5.5,4.7c1,3,1.8,6.3,0.4,9.3c-1.8,3.7-0.1,5.9,2.5,8.1
	c1.2,1.1,2.3,2.3,3.2,3.6c1.8,2.2,4.2,2.1,6.6,1.8c2.2-0.3,2.9-2.1,3.4-4c0.3-1.5,0.9-3,1.7-4.4c1.9-3.2,4.9-3.3,8.1-2.6
	c2.9,0.7,2.8,3.2,3,5.6c0.5,3.9-1.9,6.5-4.6,8.8s-2.7,4.2-0.2,6.4c0.9,0.9,1.8,1.9,2.7,2.8C541,711.9,542.3,711.1,543,708z
	 M515.5,769.7c1.3-0.1,1.7-1.8,2.2-2.9c1.2-2,2.2-4,3.3-6c6.3-13,12.6-25.9,17.7-39.4c0.9-2.1,1.3-3.5-1.7-4.8
	c-4.3-2.1-7.6-6-9.1-10.6c-0.8-1.9-1.5-3-3.6-2.8c-2.6,0.2-2.2,2.1-2.3,3.8c-0.1,2.3-0.3,4.6-0.7,6.8c-1,4-4.5,5.3-8,5.5
	s-4.5-2.5-5.2-5.3c-1.1-4.9,0.2-9.1,3.4-12.9c0.7-0.8,2.2-1.5,1.2-3.1c-2.1-3.3-6.3-4.7-10-3.4c-6.5,2.6-13.2,3.6-20.1,1.1
	c-1.8-0.6-3.8-0.3-5.3,0.9c-2.9,2.4-6.6,3.7-10.3,3.9c-2.6,0.1-3.6,1.6-3.6,3.8c0,3.9,0,7.9,0.1,11.7c0.5,10.9,0.9,21.9,1.5,33.2
	c5.6-3,11.2-4.6,17-3.8c14,1.7,25,7.8,31.1,21.3C513.8,767.9,514.1,769.7,515.5,769.7z M516.1,450.9c-2.5,0.5-2.9,2.2-2.5,4.6
	c0.6,2.8,1.3,5.6,1.1,8.5s-1.3,5.7-4.7,6.4c-3.6,0.7-5.8-1.3-7.2-4.4c-1.6-3.5-1.4-7.5,0.5-10.8c1.4-2.5,0.6-4.4-1.3-6.1
	c-2-1.9-4.3-2.2-6.6-0.5c-2,1.5-3.9,2.8-6.1,4.1c-2.6,1.5-4,4.4-3.6,7.3c0.6,5.7-0.2,10.7-7.1,13.1c6.1,2,11,4.3,14.7,8.5
	c1.9,2,2.8,0.2,3.7-0.9c5.3-6.7,12.1-10,20.8-9.4c2.1,0.1,3.3-0.4,2.9-2.8c-0.5-4.7-0.8-9.5-1.3-14.2
	C519.1,452.7,518.9,450.4,516.1,450.9z M483.3,394.8c-2,1.7,0.2,3.7,0.9,5.5c4.4,12-1.3,28.3-12.5,34.5c-5,2.9-8.8,2-11.5-2.9
	c-3.4-5.9-6-12.2-7.7-18.7c-0.5-1.5-0.6-3-2-4c-1,0.8-1.6,2.1-1.6,3.4c-0.7,4.9-1.5,9.9-1.8,14.9c-0.9,12.1-5.3,15.1-16.8,11.1
	c-0.6-0.1-1.1-0.3-1.7-0.6c-5.5-2.2-10.7-5.1-15.4-8.8c-5-3.9-9.4-8.5-13.2-13.5c-5.5-7.1-9-15.5-10.2-24.5
	c-0.2-1.5,0.5-6.1-3.6-3.4c-9.7,6.1-18.3,13.7-25.6,22.4c-1.2,1.5-1.1,2.8,0.1,4.3c8,9.6,12,21.1,16.3,32.6c0.6,1.6,1.1,3.9,2.8,4
	c6.4,0,12.9,3.6,19.3-0.7c2.1-1.5,3.6-2.6,2.7-5.5c-0.7-2.6-1.1-5.3-1.2-8.1c-0.2-4.1,2-6.7,6.3-7.3c1.8-0.4,3.6,0.1,5,1.2
	c1.1,1.1,1.8,2.5,2.1,4c0.6,2.5,0.5,5.1-0.2,7.6c-0.4,1.8-1.5,3.7-0.4,5.8c2.1,4.1,11,7.2,15,4.8c8.1-4.9,16-4.7,24.1-0.2
	c2.5,1.3,3.8,0.9,5.7-1.1c4.9-5.2,12.3-7,17.8-3.6s9.4,1.3,13.6-1.9c2-1.5,2.4-2.8,0.8-4.9c-2.3-3.2-3.1-7.3-2-11.1
	c0.9-3.7,3.5-5.5,6.8-5.4c3.4,0.1,6.2,2.6,6.5,6c0.4,2.3,0.5,4.6,0.2,6.8c-0.5,6.1-0.1,6.7,5.7,8.2c2.9,0.8,5.9,0.3,9-0.2
	c2-0.5,2.5-1.2,2.1-3.3c-1.9-9.6-4.4-19.1-7.3-28.4c-3.5-10.9-11.5-16-21.2-19.9C487.8,393.3,485.2,393.3,483.3,394.8z M508.8,465.4
	c1,0,1.2-1,1.3-1.9c0.2-2.3-0.4-4.6-1.8-6.4c-2,2.2-1.8,4.4-1.1,6.6C507.4,464.5,507.8,465.5,508.8,465.4z M496.8,434.7
	c-0.6-1.5,0.7-4-1.7-4.3c-2.1-0.1-2.1,2.2-2.1,3.9c0,1.9,0.1,4.5,2.1,4.6C497.4,439,496.3,436.3,496.8,434.7z M480.9,462.8
	c-0.3-1.1,0.5-3.5-1.2-3.4c-2.5,0.2-2.7,3-3,5c-0.3,1.5-0.3,3.5,1.6,3.2C480.7,467.4,480.3,464.8,480.9,462.8z M384.5,456.6
	c-3.4-0.6-4.4,1-3.8,3.9c1.4,6.5,2.9,12.9,4.1,19.4c0.5,2.7,1.7,3.2,4.4,2.9c11.5-1.7,22.3,1,32.2,7.2c2,1.2,3.1,1.1,4.7-0.3
	c3.4-3.1,6.4-7,10.3-9.2c4.5-2.6,8.6-5.6,12.5-9.1c5.6-4.8,11.7-5.7,18.3-1.8c1.7,1,3.5,1.8,5.4,2.5c-2.7-4.9-2-9.3,0.9-13.7
	c2.6-3.8,1.7-5.7-2.9-6.6c-2.2-0.4-4.4,0.3-6.1,1.8c-2,1.4-3.7,3.1-5.3,5c-1.9,2.6-3.5,2.6-6.1,0.9c-4.8-3.4-10.6-4.9-16.4-4.4
	c-4.8,0.4-5.6,1.9-3.7,6.4c0.6,1.4,1.2,2.9,1.6,4.4c1,4.1-0.8,7.9-4.1,8.9c-3.8,1.2-7.6-0.9-9.2-4.9c-1-2.7-0.8-5.4-0.8-8.2
	c0-1.1,0.2-2.2-0.7-3.2c-3.2-3.5-14-5.4-19-3.2c-2.7,1.1-3.9,2.6-2.8,5.5c1,2.7,0.9,5.4,0.9,8.2c0.1,3.3-2.1,6.2-5.3,7
	c-3.7,1.1-5.6-1.5-7.1-4.1c-2-3.6-1.6-7.3,0.2-10.8C388.4,457.8,387.2,457,384.5,456.6z M455.7,738.2c-3.6-15.8-7.1-31.6-10.3-47.6
	c-0.6-2.6-1.6-3.3-4-3c-2.8,0.3-5.7,0.7-8.2-0.6c-4.5-2.2-7.2,0.1-10,3.1c-1.4,1.3-1.5,2.2-0.1,3.5c2.2,2.3,3.7,5.2,4.3,8.3
	c1.1,4.3-1.1,6.2-4.7,7.4s-6.2-0.1-7.4-3.7c-0.6-1.6-1.7-3.5-1.3-4.9c1.5-6.6-3.3-6.5-7.4-7.4c-3.4-0.7-6.2-0.2-8.8,2.2
	c-1.4,1.3-3,2.3-4.8,2.8c-6.3,1.9-5.7,8.4-8.5,12.7c-1.8,2.6,1,4.5,2.1,6.5c3.7,6.8,2.5,9.9-5.5,12c6.1,12,13.9,22.9,21.8,34.2
	c7.3-11.5,19.2-19.3,32.6-21.4c5.6-1,11.2-0.3,16.8-0.1C455.6,742.3,456.5,741.5,455.7,738.2z M372.3,677c-10.2,9.8-11.3,17-5,29.7
	c2.1,4.4,6,6,10.3,4.3c1.7-0.7,6.1-8.5,5.7-10.2c-0.2-1.3-1.5-1.3-2.4-1.7c-2.7-1.1-4.9-3-6.4-5.5c-1.5-2.7-1.9-5.4,0.8-7.4
	s5.8-2.1,8.6,0.5c1.5,1.6,2.7,3.4,3.5,5.4c1,2,2.5,3.7,4.6,1.6c1.8-1.8,6.6-2.5,3.3-6.7c-1.7-2.3-2.8-5.1-2.9-8
	c-0.2-3.1,1-6,4.3-6.6s5.8,1.2,6.7,4.6c0.6,2.7,0.9,5.4,1,8.2c0.2,1.3,0.3,2.5,1.7,3.2c3.1,1.9,9.3,1.8,11.9-0.2
	c5.8-4.6,6.5-6.3,4.6-12.1c-0.4-1.1-0.6-2.2-0.8-3.4c-0.3-3.8,2.1-7.3,5-7.4c3.6-0.2,6.5,2.9,6.3,7.1c0,1.6-0.2,3.2-0.5,4.7
	c-0.5,5.3,1.9,7.5,7.1,7.1c2.6-0.2,3.9-1.2,2.9-4.2c-1.2-3.7-2.1-7.5-3.2-11.2c-2.9-9.9-7.9-13.5-20.3-13.3
	C402.6,657.5,386,663.9,372.3,677z M430.4,467.5c-0.3-1.8-0.6-4.5-3-4.6c-1.9-0.1-1.9,2-2,3.5c0,2,0.6,3.7,2.6,3.9
	c1.2,0.1,2.3-0.7,2.5-1.9C430.5,468.1,430.5,467.8,430.4,467.5z M407.4,444.1c2.2,0.1,1.6-3.1,2.5-4.9c-0.6-1.6-0.2-3.8-2.5-4
	s-2.2,2-2.1,3.5C405.4,440.7,405,443.9,407.4,444.1z M394.4,465.1c0.1-1.2-0.1-3.1-1.5-3c-2.2,0.3-2,2.7-2.1,4.5
	c0.1,1.2-0.3,3.2,1.3,3C394.5,469.4,394.3,466.9,394.4,465.1z M318.6,461.8c-4.3-2.1-6.8-6-8.9-10.2c-0.7-1.5-0.9-3.4-2.6-4.1
	c-5.3,9.8-3.3,18.8,5.6,25.2c6.6,4.8,7.4,4.5,8.3-3.4l0.3-1.7C322.1,464.9,321.5,463.1,318.6,461.8z M296.8,446.4
	c-2.5-3-4.8-6.1-5.8-9.9c-0.6-2.1-0.7-4.3,2.1-6.3v4.6c0.2,2.7,5.2,9.3,7.6,9.4c3.8,0.1,4.1-3.8,6.1-5.9c1.2-1.2,0.9-2.6-0.5-3.7
	c-2-1.8-3.8-3.9-6-5.6c-5.2-4.1-9.5-3.9-13.5,1.4c-5.8,7.7-9.5,16.4-9.3,26.2c0,2.3,0.6,4.6,1.7,6.6c2.9,5.3,13.2,6.9,17,2.6
	C299.9,461.8,300.2,450.7,296.8,446.4z"/>
<path d="M716.9,582.5c-7-11.5-17-20.9-28.9-27.2c-10.3-5.8-22.4-7.7-34-5.4c-34.7,7-65.8,22.2-94.7,42.4c-1,0.8-2,1.6-3.1,2.2
	c-0.9,0.7-2,1.7-3,0.9s-0.7-2.1-0.6-3.4c0.2-2.5,1.6-4.6,2.9-6.6c4.3-6.2,5.4-12.6,1.2-19.4c-1.1-1.7-1.5-3.7-1.1-5.7
	c3.7-18.2,3.4-36.5,2.9-54.7c-0.6-23.2-4.2-45.9-13.6-67.3c-4.7-10.5-10.4-20.8-20.5-26.6c-8.9-5.2-14.7-13.4-22.7-19.2
	c-2-1.6-1.5-2.7,0.5-3.8c2.8-1.6,5.5-3,8.3-4.7c23-13.9,43-31.1,57-54.3c8.6-14.4,11.2-29.6,4-45.4c-2.6-5.5-4-10,0.1-15.6
	c3.2-4.4,2.9-10.1,3-15.5c0-1.8-0.3-3.9,2.2-4.9c7.4-3,14.9-5.9,21.9-9.6c25.8-13.9,50.5-29.5,71.1-50.7c12-12.2,23-25.4,30.8-40.9
	c4.3-8.5,4.7-17.9,6.8-27c1.3-5.3,0.7-10.9-1.5-15.9c-2.8-6.5-5.8-12.9-7.7-19.6c-1.3-5.2-4-8.6-7.7-12.1c-7-6.6-14.7-12.6-21.9-19
	c-4.9-4.5-10.7-7.8-17-9.8c-8-2.7-15.9-5.8-23.9-8.8c-6.8-2.6-13.8-5-19.9-9.3c-2.1-1.4-4.6-2-7.1-1.5c-6,0.9-12.2,1.7-18.4,0.9
	c-13-1.6-26.1-2.8-39.2-3.5c-4.6-0.2-9-1-13.1-3.6c-4.9-3.1-10.1-2.5-15.5,0.6c-10.3,5.7-20.9,6.5-31.2-0.7
	C475,12.1,466,7,456.1,4.4c-19.1-4.9-38.9-5.7-58.3-2.4c-35.9,6.3-65.1,23.3-83,56.3c-1.9,3.7-5.2,6.6-9.2,7.9
	c-8.4,2.8-16.4,7-25.6,7.3c-5.4,0.2-9.6,3.4-12.3,8.3c-0.9,2-2.4,3.7-4.3,4.8c-10.6,6.3-21.3,12.6-32.1,18.7
	c-1.6,0.9-3.2,1.9-5.2,1.9c-8.2,0-12.9,4.9-16.1,11.7c-1,2.1-2.3,4-3.9,5.6c-5.2,4.5-10.4,9.1-15.7,13.6c-2.8,2.4-5.6,5.2-9.2,6.3
	c-5.8,1.8-8.6,6.1-11.1,11.2c-6.3,12.9-13.2,25.5-24,35.4c-1.5,1.3-2.4,3.2-2.4,5.2c-0.1,15.7,0.7,31.4-1.7,47
	c-0.4,1.4,0.2,2.9,1.5,3.7c8.3,6.1,13.1,14.7,17.7,23.4c1.6,3.3,4.4,5.8,7.9,7.1c3.3,1,6.4,2.5,9.3,4.5
	c16.9,11.2,35.4,18.3,55.1,23.2c18.7,4.7,37.7,6.6,56.9,4.3c4.6-0.5,6.8,0.6,9.1,4.1c4,6.4,9.2,12.2,15.8,15.7
	c8.1,4.4,12.7,11.3,17.7,18.3c1.8,2.4,1.7,4.1,0.1,6.5c-5,7.7-7.6,16.7-7.4,25.8c0.1,3-1.1,5.4-3,7.7c-5.6,7.4-8.6,15.9-6.7,25.1
	c1.1,5.2-0.2,8.8-3.2,12.6c-3.7,4.6-3.6,4.7-7.9,0.9c-5.4-4.6-12.7-6.5-16.6-3.4c-11.2,9-17.4,20.8-16.6,35.2
	c0.5,6.9,4.3,11.8,11,14.2c2.4,0.8,6-0.7,6.8,1.8c0.6,2-1.4,4.8-2.2,7.3c-0.1,0.3-0.2,0.8-0.3,1.2c-7.7,23.3,3.4,42.7,27.4,47.8
	c6.3,1.2,6.3,1.2,6.1-4.9c0-0.1,0.2-0.3,0.6-0.7c2.8,9.4,6.1,18.7,10.1,27.7c1.4,2.8,1.4,6.2-0.2,9c-4,8.1-5.2,16.2,0.9,24
	c1.7,2.1,3.2,4.3,5,6.4c1.9,2,3,4.6,3.1,7.4c0.2,5.5,0,10.9,0,16.7c-8.2-7.2-17.2-12.9-26.1-18.7c-23.8-15.2-48.4-29-75.3-38.1
	c-12-4.2-24.3-7.6-37.2-5.8c-23.1,3.2-39.9,16.4-52.3,35.3c-8.8,13.5-7.6,28,2.2,40.6c7.1,8.8,13.6,18.2,19.3,28
	c13.8,23.9,27.1,47.9,42.1,71c20.6,31.7,44.5,60.3,77.5,79.9c3.6,2.1,3.8,3.5,0.9,6.4c-4.4,4.3-8.4,9.1-8.5,15.6
	c0,9.8,2,19.6,6,28.6c1.3,3,3.2,4.8,7.2,3.6c2-0.7,4.6-0.3,6.8,0c4.7,0.9,9-0.1,13.2-2.5c17.4-9.5,36.2-15,55.2-20.8
	c15.2-4.6,29-1.6,43,3.9c0.9,0.4,1.8,1,2.5,1.7c2.5,3,5.7,3.6,9.3,3.4c7.4-0.3,14.7-0.1,21.5,3.5c3.5,2,7.9,1.5,11-1.1
	c1.6-1.2,3.1-1,5.2-0.9c8.8,0.3,18,1.6,25.1-5.5c1.7-1.6,3.5-1.8,5.6-1.8c12.4,0.3,24.7,1.5,36.9,3.8c18.8,3.7,36.9,10,55,16.4
	c5.5,1.9,10.4,2.7,15.3-1.6c1.3-1,2.9-1.5,4.5-1.3c3.1,0.2,4.4-1.6,5.2-4.2c1.2-4.3,1.8-8.7,2.9-13c2.2-8.5,0.2-15-7.1-20.2
	c-6.3-4.4-12-9.3-18.1-14c-1.8-1.3-2.2-2.5-0.1-3.8c1.2-0.8,2.2-1.8,3.5-2.6c22.1-16.7,41.6-36.6,57.8-59.1
	c29.3-40.5,49.7-85.9,70.1-131.1C724.1,601.7,722.3,591.7,716.9,582.5z M552.7,639.1c0.1-5.5,0.7-10.9,1.7-16.3
	c0.5-2.9,2.2-4.9,4.6-6.5c19.1-13.2,39.4-24.3,60.8-33.2c0.5-0.2,1-0.3,1.6-0.3c-17.5,16.5-34.4,33.4-53.2,48.2
	c-4.2,3.1-8.2,6.4-12.3,9.4c-0.7,0.6-1.5,1.7-2.6,1C552.3,641,552.7,639.9,552.7,639.1z M531,429.1c8.3,15,12.5,31.5,15.5,48.2
	c4.4,23.8,4.3,47.9,4.6,71.9c0,2.8,0.1,5.7,0.1,8.6c0,0.2-0.2,0.5-0.6,0.9c-1.5-1.2-2.9-2.4-5-3.9c2.1,7.7,7.4,13.8,6.3,21.8
	c-1.1,7.6-7.1,12.6-10.5,19c2.4,0.9,3.6-1.3,6.1-1.2c0,3.5,0.1,7,0,10.4c-0.7,18.9-3.9,37.6-9.8,55.5c-1.8,5.5-2.1,5.6-7.1,2.7
	c-12.7-8-28.2-10.3-42.7-6.4c-3.8,1-3-1.3-2.8-3.3c1.6-11.2,3.1-22.4,4.9-33.7c1.1-7.7,2.6-15.3,4.5-22.9
	c2.6-10.1,7.6-19.4,14.5-27.2c0.9-1.2,2.4-2.1,2.6-3.8c-6.2,0.7-6.3,0.7-3.9-5.4c6.1-15.7,13.2-31,16.7-47.6
	c6.5-31.8,8.2-63.3-3.5-94.5c-0.2-0.7-0.3-1.5-0.3-2.2C525.4,419.9,528.4,424.4,531,429.1z M482.2,745.5c-5.8-0.8-11.4,0.8-17,3.8
	c-0.6-11.3-1-22.3-1.5-33.2c-0.1-3.8-0.1-7.7-0.1-11.7c0-2.2,1-3.7,3.6-3.8c3.8-0.2,7.4-1.6,10.3-3.9c1.5-1.2,3.5-1.5,5.3-0.9
	c6.9,2.5,13.6,1.5,20.1-1.1c3.7-1.3,7.9,0.1,10,3.4c1,1.7-0.6,2.4-1.2,3.1c-3.1,3.8-4.5,8-3.4,12.9c0.7,2.8,1.8,5.6,5.2,5.3
	c3.4-0.3,7-1.5,8-5.5c0.3-2.3,0.5-4.5,0.6-6.8c0.1-1.7-0.2-3.6,2.3-3.8c2.1-0.2,2.8,0.9,3.6,2.8c1.5,4.6,4.7,8.4,9.1,10.5
	c3,1.3,2.6,2.7,1.7,4.8c-5.2,13.5-11.4,26.4-17.7,39.4c-1,2-2,4-3.3,6c-0.6,1.1-0.9,2.8-2.2,2.9s-1.7-1.8-2.2-2.9
	C507.2,753.3,496.2,747.1,482.2,745.5z M510.5,777.3c-0.3,0.8-1.2,1.3-2.1,1.1c-1.2-0.1-0.8-1.2-0.8-1.9c0.3-2.5,0.8-4.9,1.5-8.3
	C511.6,771.7,511.7,774.5,510.5,777.3z M415.7,759.8c-0.8-1.3-0.8-2.6,0.6-3.4c7.9-4.9,16.2-8.9,24.6-10c4.8,0,11,6.4,10.9,10.4
	c0,1.2-0.8,1.8-1.5,2.5c-7.3,7-14.1,14.4-21.9,20.9c-2.7,2.2-5.8,3.8-9.1,4.8c-3.1,1.2-3.8,0-3.2-2.9c0.7-3.5,1.3-7.1,1.6-10.7
	C418,767.5,417.8,763.4,415.7,759.8z M435.4,742.3c-13.4,2.2-25.3,10-32.6,21.4c-7.9-11.3-15.7-22.2-21.8-34.2c8-2.1,9.2-5.2,5.5-12
	c-1.1-2-3.9-3.9-2.1-6.5c2.8-4.3,2.2-10.8,8.5-12.7c1.8-0.5,3.5-1.5,4.8-2.8c2.6-2.5,5.4-2.9,8.8-2.2c4.1,0.9,8.9,0.8,7.4,7.4
	c-0.3,1.5,0.8,3.4,1.3,4.9c1.2,3.6,3.7,4.9,7.4,3.7s5.8-3.1,4.7-7.4c-0.6-3.1-2.1-6-4.3-8.3c-1.3-1.2-1.2-2.1,0.1-3.5
	c2.8-3,5.5-5.4,10-3.1c2.5,1.2,5.4,0.9,8.2,0.6c2.5-0.2,3.5,0.5,4,3c3.2,15.9,6.7,31.7,10.3,47.6c0.8,3.4-0.1,4.2-3.5,4
	C446.6,742,441,741.3,435.4,742.3L435.4,742.3z M413.2,766.7c0,2.1-1,3-2.9,3s-3-1-2.9-2.9s0.9-4.5,3.1-4.5
	C413.1,762.2,412.5,765.2,413.2,766.7L413.2,766.7z M394.6,513.2c-2.5-6.5-4.1-13.1-6.3-19.7c-1-3-0.3-4.3,3.4-4.3
	c10.9,0.1,21.1,2.7,29.8,9.4c3.7,2.7,5.7,1.9,8.2-1.3c2.9-3.8,5.5-8,10.1-11.3c0.2,2.7,0.3,4.7,0.6,6.6
	c1.4,13.7,20.6,22.4,30.3,14.2c4.1-3.3,6.6-8.2,6.7-13.5c0.2-3,0.2-6.1,0.2-9.1s1.4-3.4,3.8-2.1c4.8,2.4,8.5,6.3,12.3,10
	c2.1,2,3.2,2,4.8-0.7c1.9-3.4,4.5-6.3,7.5-8.8c1.8-1.5,3.8-2.6,6-3.4c6.3-1.8,7.7-0.5,7.1,6.2c-2.3,21.4-8,42.1-14.6,62.5
	c-2.1,6.5-3.8,13.2-5.6,19.8c-0.7,3.1-2,6.1-3.8,8.8c-5.6,7.9-8.7,16.7-10.4,26.1c-1.1,6.8-2.1,7.5-9,6.3c-6.5-1-12.7-3.6-19.3-4
	c-8.5-0.6-17,0.6-25,3.5c-2.3,1-4.7,1.5-7.2,1.6c-4.3,0-7.1-1.7-8.3-5.9c-3.6-11.8-8-23.1-16.7-32.3c-1.1-1.1-0.9-2.3-0.6-3.6
	C403.8,549.4,401.4,531.2,394.6,513.2z M386.6,471.6c1.5,2.7,3.4,5.3,7.1,4.1c3.2-0.8,5.4-3.7,5.3-7c0-2.8,0.1-5.5-0.9-8.2
	c-1.1-2.9,0.1-4.4,2.8-5.5c4.9-2.1,15.7-0.2,19,3.2c0.9,1,0.7,2.1,0.7,3.2c0,2.8-0.2,5.5,0.8,8.2c1.6,4,5.4,6.2,9.2,4.9
	c3.4-1,5.2-4.7,4.1-8.9c-0.4-1.5-0.9-3-1.6-4.4c-1.9-4.5-1.1-6,3.7-6.4c5.8-0.5,11.6,1,16.4,4.4c2.6,1.7,4.1,1.7,6.1-0.9
	c1.5-1.9,3.3-3.6,5.3-5c1.6-1.5,3.9-2.2,6.1-1.8c4.6,0.9,5.5,2.8,2.9,6.6c-2.9,4.4-3.6,8.8-0.9,13.7c-1.9-0.7-3.6-1.5-5.4-2.5
	c-6.6-3.9-12.7-3-18.3,1.8c-3.8,3.5-8,6.5-12.5,9.1c-3.9,2.2-7,6.1-10.3,9.2c-1.6,1.5-2.7,1.6-4.7,0.3c-9.9-6.2-20.6-8.9-32.2-7.2
	c-2.7,0.3-3.9-0.2-4.4-2.9c-1.2-6.5-2.8-12.9-4.1-19.4c-0.6-2.9,0.5-4.5,3.8-3.9c2.7,0.5,3.9,1.2,2.4,4.3
	C385.1,464.4,384.6,468,386.6,471.6L386.6,471.6z M390.7,466.6c0.1-1.8-0.1-4.1,2.1-4.5c1.4-0.1,1.6,1.8,1.5,3
	c-0.1,1.8,0.1,4.3-2.2,4.5C390.4,469.8,390.9,467.8,390.7,466.6L390.7,466.6z M407.3,435.2c2.2,0.2,1.9,2.5,2.5,4
	c-0.9,1.8-0.2,5-2.5,4.9s-2-3.5-2.1-5.5C405.1,437.2,405.2,435.1,407.3,435.2L407.3,435.2z M425.3,466.4c0.1-1.5,0.1-3.6,2-3.5
	c2.5,0.1,2.7,2.8,3,4.6c0.3,1.2-0.4,2.4-1.6,2.7c-0.3,0.1-0.6,0.1-0.9,0.1C425.9,470.1,425.3,468.4,425.3,466.4L425.3,466.4z
	 M471.4,489.8c0,6.6-4.8,12.2-10.5,12.3s-12.5-6.8-12.5-13.2v-0.8c0.6-8.3,5.5-14.2,11.8-14C466.8,474.2,471.5,480.8,471.4,489.8
	L471.4,489.8z M476.6,464.5c0.3-2,0.6-4.8,3-5c1.7-0.1,0.9,2.2,1.2,3.4c-0.6,2-0.1,4.6-2.7,4.9C476.3,467.9,476.3,465.9,476.6,464.5
	L476.6,464.5z M422.8,618.6c6.2-5,13.5-7.6,21.2-9.2c12-2.5,23.1,0.6,33.4,6.7c2,1.2,4.1,2.8,4.7,5.4c-0.1,1.5-0.6,2.3-2.1,1.3
	c-0.2-0.2-0.6-0.3-0.7-0.6c-12.2-13.3-27.6-9.4-42.5-7.5c-4.7,0.7-8,4.4-11.5,7.2c-1.4,1-2.8,3.7-4.5,1.7
	C419.3,621.8,421.2,619.9,422.8,618.6z M437.7,652.1c3.9,0,7.2,1.5,10.2,3.1c1.4,1,3.2,1.3,4.9,0.9c7.3-2.5,15-3.8,21.1-9.2
	c1.4-1.1,3.1-1.8,5.5-3.2C471,657.3,446.6,661.9,437.7,652.1z M476,657.1c-8.8,5.7-18.4,7.6-28.7,6.7c-1.5-0.2-3.1-0.7-3.4-2.8
	c3.2-1.3,6.7-1.3,10.2-1.2c7.3,0.1,13.9-1.6,19.7-6.1c1-0.8,2.8-2,3.8-0.6S477.4,656.4,476,657.1L476,657.1z M427.4,628
	c0.8-1.6,1.6-2,3.1-0.5c2,2.3,4.6,4,7.5,5c3.5,0.9,4.3,3.5,4.3,5.7c0.1,1.7,0.2,2.7-0.6,3.2c-1,0.8-1.9-0.2-2.6-0.8
	c-3.6-2.4-7.2-4.4-11.6-4.4c-2.4,0-3-1.6-2.4-3.6C425.8,631.1,426.5,629.5,427.4,628z M422.8,632.6c-0.1-4.9,2.4-6.8,5.7-9.4
	C426.9,627,425,629.4,422.8,632.6L422.8,632.6z M475.1,636.2c-4,1.9-8.1,3.7-12.2,5.6c-1-4.2-0.5-7.4,3.5-9.3
	c1.7-0.9,3.3-1.9,4.7-3.1c2.8-2.5,4.5-1.6,6.4,1.3C479.5,634,477.4,635.1,475.1,636.2L475.1,636.2z M479.1,639.2
	c-5.2,5.9-10.9,9.2-17,12.6C462.2,645.5,470.2,639.6,479.1,639.2L479.1,639.2z M466.2,619.1c-1.1,0.1-3.1-0.3-3.2,0.5
	c-1,5.5-5,3.8-8.3,3.8c-2.6,0-5.2,0.1-7.7,0.3c-2.1,0.2-3.8,0.1-3.7-2.7c0-1.8-1.5-1.8-2.8-1.8c-2,0.1-4,0.3-7.2,0.6
	c9.9-5.8,31.1-5.5,37,0C468.7,620.5,467.6,619,466.2,619.1L466.2,619.1z M451.7,625.2c2.2-0.9,4.3-0.1,6.2,1
	c2.2,1.5,4.8,2.4,7.5,2.6c-5.2,2.3-4,6.8-4.5,10.8c-0.5,4.3-1.5,8.2-4.3,11.5c-3.5,4.3-8.8,3.6-11-1.6c-1.2-3.1-1.8-6.3-1.9-9.7
	c-0.2-5.4-2.2-9.4-7.4-11.7c-1.9-0.7-3.4-2.4-3.8-4.4C439.1,628.7,445.4,628,451.7,625.2L451.7,625.2z M427.5,641.3
	c-0.6-0.8-1.5-1.6-0.7-2.7c0.7-0.8,1.8-1,2.8-0.7c4.3,0.3,11,6,12.3,10.3c0.7,2.3-0.7,2.2-2,1.8
	C435.1,648.3,430.6,645.8,427.5,641.3L427.5,641.3z M433.8,650.6c-5.3-0.7-8.4-1.9-8.4-7.6C428.4,645.6,430.7,647.9,433.8,650.6
	L433.8,650.6z M439.3,668.7c1.1,3.7,2,7.5,3.2,11.2c1,2.9-0.3,3.9-2.9,4.2c-5.2,0.5-7.5-1.8-7.1-7.1c0.3-1.6,0.4-3.1,0.5-4.7
	c0.2-4.2-2.7-7.3-6.3-7.1c-2.9,0.1-5.4,3.6-5,7.4c0.2,1.1,0.4,2.3,0.8,3.4c1.9,5.8,1.2,7.5-4.6,12.1c-2.6,2-8.7,2.1-11.9,0.2
	c-1.3-0.8-1.5-1.9-1.7-3.2c-0.1-2.8-0.4-5.5-1-8.2c-0.9-3.4-3.5-5.3-6.7-4.6s-4.5,3.5-4.3,6.6c0.2,2.9,1.2,5.7,2.9,8
	c3.4,4.3-1.5,4.9-3.3,6.7c-2.1,2.1-3.6,0.4-4.6-1.6c-0.8-2-2-3.8-3.5-5.4c-2.8-2.6-5.8-2.6-8.6-0.5s-2.2,4.7-0.8,7.4
	c1.5,2.5,3.7,4.4,6.4,5.5c0.9,0.3,2.1,0.3,2.4,1.7c0.3,1.7-4,9.5-5.7,10.2c-4.4,1.7-8.2,0.1-10.3-4.3c-6.3-12.7-5.2-20,5-29.7
	c13.7-13.1,30.3-19.5,46.8-21.7C431.5,655.3,436.4,658.9,439.3,668.7L439.3,668.7z M455.6,702.5c2.8,5.8,1.9,12.1,2.6,18.3
	C456.2,716.5,454.7,706.5,455.6,702.5L455.6,702.5z M456.6,691.1c-0.2,1.1-0.5,2.6-1.9,2.6s-1.7-1.5-1.9-2.5
	c-1.5-6.2-2.8-12.2-4.1-18.4c-0.5-1.9-0.2-3.6,2.2-3.6c4.9,0,9.6-0.8,15.9-1.8C460.7,675.1,458.3,683,456.6,691.1L456.6,691.1z
	 M538.5,709.4c-0.9-0.9-1.8-1.9-2.7-2.8c-2.5-2.2-2.3-4.3,0.2-6.4s5-4.8,4.6-8.8c-0.2-2.3-0.1-4.9-3-5.6c-3.1-0.7-6.2-0.6-8.1,2.6
	c-0.8,1.4-1.3,2.8-1.7,4.4c-0.5,1.9-1.1,3.7-3.4,4c-2.5,0.3-4.8,0.5-6.6-1.8c-1-1.3-2-2.5-3.2-3.6c-2.6-2.1-4.3-4.4-2.5-8.1
	c1.3-3,0.6-6.3-0.4-9.3c-0.9-2.5-2.6-4.7-5.5-4.7c-2.8,0.1-5.3,2-6.2,4.7c-1.1,3.2-1.1,6.6-0.1,9.8c0.6,2.5,0.1,4.3-2.1,5.5
	c-3.1,1.8-6.4,2.7-9.9,0.9c-2.4-1.2-2.7-3.5-2.1-6c0.5-1.8,0.8-3.6,1-5.5c0.2-3.9-1.9-6.4-5.5-7.3s-5.4,2-6.4,4.9s-0.8,6-0.6,9
	c0.5,5.3-1.2,7.4-5.8,8.6c-3,0.8-3.9-0.4-3.8-3.2c0.5-5.2,2.5-10.2,5.8-14.2c7.6-9.9,17.5-15,29.7-14.1c16.4-0.3,29.7,4.8,38.3,19
	c5,7.9,6.6,17.5,4.5,26.6C542.3,711.1,541,711.9,538.5,709.4L538.5,709.4z M520.7,468.7c0.3,2.4-0.8,2.9-2.9,2.8
	c-8.6-0.6-15.5,2.7-20.8,9.4c-0.9,1.1-1.8,2.9-3.7,0.9c-3.7-4.3-8.6-6.5-14.7-8.5c6.9-2.5,7.6-7.4,7.1-13.1c-0.4-2.9,1-5.8,3.6-7.3
	c2.1-1.3,4-2.7,6.1-4.1c2.4-1.8,4.6-1.5,6.6,0.5c1.9,1.7,2.7,3.6,1.3,6.1c-1.9,3.3-2,7.3-0.5,10.8c1.4,3,3.6,5,7.2,4.4
	c3.4-0.7,4.4-3.4,4.7-6.4s-0.6-5.7-1.1-8.5c-0.5-2.4,0-4.1,2.5-4.6c2.8-0.4,3,1.8,3.2,3.6C519.9,459.2,520.2,464,520.7,468.7z
	 M493,434.4c0-1.7,0-4,2.1-3.9c2.4,0.2,1.1,2.8,1.7,4.3c-0.5,1.6,0.6,4.3-1.7,4.3C493.1,438.9,493,436.3,493,434.4z M508.4,457.1
	c1.4,1.8,2,4.1,1.8,6.4c-0.1,0.9-0.3,1.9-1.3,1.9s-1.4-0.9-1.6-1.7C506.5,461.4,506.3,459.3,508.4,457.1L508.4,457.1z M511.5,414.2
	c2.9,9.3,5.4,18.8,7.3,28.4c0.3,2-0.1,2.8-2.1,3.3c-3,0.6-6.1,1-9,0.2c-5.8-1.5-6.2-2.1-5.7-8.2c0.3-2.3,0.2-4.6-0.2-6.8
	c-0.4-3.3-3.1-5.9-6.5-6c-3.4-0.1-5.9,1.7-6.8,5.4c-1.1,3.8-0.3,7.9,2,11.1c1.6,2.1,1.2,3.5-0.8,4.9c-4.1,3.2-8.2,5.2-13.6,1.9
	s-12.9-1.6-17.8,3.6c-1.9,2-3.3,2.5-5.7,1.1c-8.1-4.5-16-4.7-24.1,0.2c-4,2.4-12.9-0.7-15-4.8c-1-2.1,0-4,0.4-5.8
	c0.7-2.5,0.8-5.1,0.2-7.6c-0.3-1.5-1-2.9-2.1-4c-1.4-1.1-3.3-1.6-5-1.2c-4.3,0.6-6.5,3.1-6.3,7.3c0.1,2.7,0.5,5.4,1.2,8.1
	c0.9,2.9-0.6,4-2.7,5.5c-6.4,4.3-12.9,0.7-19.3,0.7c-1.7-0.1-2.2-2.5-2.8-4c-4.3-11.5-8.3-23-16.3-32.6c-1.2-1.5-1.3-2.8-0.1-4.3
	c7.3-8.8,15.9-16.4,25.6-22.5c4-2.7,3.4,1.9,3.6,3.4c1.2,8.9,4.7,17.3,10.2,24.4c3.8,5,8.3,9.5,13.2,13.5c4.7,3.6,9.8,6.6,15.3,8.8
	c0.5,0.2,1.1,0.4,1.7,0.6c11.6,4,15.9,1,16.8-11.1c0.3-5,1.1-10,1.8-14.9c-0.1-1.3,0.5-2.6,1.6-3.4c1.5,1,1.6,2.6,2,4
	c1.7,6.6,4.3,12.9,7.7,18.7c2.8,4.9,6.5,5.8,11.5,2.9c11.1-6.3,16.8-22.5,12.5-34.5c-0.7-1.8-2.9-3.8-0.9-5.5c1.9-1.5,4.5-1.5,7-0.5
	C499.9,398.2,508,403.3,511.5,414.2L511.5,414.2z M459.5,397.5c4.7-1.2,9.6-1.8,14.5-1.8c2.4,0.1,4,1,4.9,3.4
	c5.3,13.2-1.2,23.9-10.1,31.9c-1.9,1.7-3.1,0.2-4.1-1.2c-3-4.3-5-9.1-7-13.9c-1.2-3.2-2.6-6.4-4.1-9.4c-1.9-3.5-4.5-3.5-6.4,0.1
	c-2.7,5.2-3.2,11-4.3,16.6c-0.6,2.6-0.9,5.2-1.2,7.7c-0.4,2.9-2.1,3.7-4.9,3.3c-16.7-3.3-37.4-23.1-41-39.8
	c-0.6-2.8-0.4-5.7-0.7-8.5c0.2-11.3,0.6-11.6,10.5-6.1c4.9,2.7,9.5,5.9,13.7,9.6C431,399.8,444.9,400.7,459.5,397.5L459.5,397.5z
	 M427.6,389.2c7.2,1.8,14.4,3.5,21.4,5.3C441,396,433.9,394.6,427.6,389.2L427.6,389.2z M566.5,268.4c-0.2,0.9-1,1.7-1.9,1.8
	c-2.1-3.7-2.5-8-2.6-12.2c-0.1-3.1,0-6.3,0.2-9.4c0-1.1,0.3-2.4,1.7-2.7c1.6-0.4,2.2,0.9,2.9,2c0.5,0.7,0.8,1.4,1,2.2
	C568.6,256.3,568.8,262.4,566.5,268.4z M564.2,233c-0.6,0-1.1,0-1.7-0.1c0-6.9,0.1-13.9,0-20.9c-0.1-13.2-1.9-26.2-7.2-38.7
	c-2-4.8-5-9-6.4-14.2c-1-4-6-5.6-9.9-6.8c-6.5-2.1-13.2-2.8-20-3.6c-11.1-1.2-22.2-0.4-33.2-2.2c-6.9-0.9-13.6-2.7-20-5.4
	c-3.1-1.4-4.4-3.1-4.3-6.7c0.3-6.8,0.1-6.8,7-8.1c2.7-0.4,5.4-1,8.1-1.6c0.3-0.1,0.7-0.3,1.9-0.9c-4.7-2.2-9-2.2-13.2-2.2
	c-2.8,0-4-1-4.6-3.7c-0.4-2.4-1.3-4.7-2.5-6.8c-2.2-3.4-0.6-5,1.9-6.6c6.3-3.9,13.5-6.1,20.9-6.4c31.1-1,57,9.5,76,34.8
	c7.3,9.3,10.7,21,9.7,32.8c-0.5,4.7-0.5,9.5-1,14.2c-1.2,8.2,1.5,15.9,2.9,23.8C570.4,213.9,568.5,223.6,564.2,233z M323.7,56.4
	c8.6-14.8,21.5-26.6,36.9-34c30.4-15,61.9-19.2,94.8-9.3c7.2,2.3,13.9,5.6,20,10c0.8,0.5,2,0.9,1.6,2.2c-0.3,0.8-1.5,0.8-2.4,0.9
	l-11.9,1.7c-3.6,0.5-7.2,0.7-10.8,1c-3.8,0.2-7.4-0.9-11-2.1s-7.4-1.7-10.2,1c-6.4,6-14.4,7.6-22.4,9.1c-11.4,2.2-22.7,5.3-34,7.8
	c-2.7,0.7-5.5,0.7-8.2,0.1c-5-1.4-10.3-0.3-14.2,3c-7.5,6.3-16.6,8.9-25.6,11.9c-1.1,0.5-2.6,1.5-3.6,0.1S323,57.4,323.7,56.4z
	 M293.2,273.8c-3.5,8.5-3.2,17.2-0.5,25.8c0.7,2,1.2,3.7-2.1,3.9c-34.3,2.4-66.4-4.9-96.5-21.6c-3.1-1.7-6.2-3.6-8.3-6.6
	c-1.4-1.7-3.2-2.9-5.3-3.6c-6.1-2.4-10.9-6.5-15-11.3c-0.3-0.3-0.6-0.6-0.8-1c-1.5-6-5.6-10.3-9.1-15.1c-5.2-7.3-3.7-16.6-4.1-25.2
	c-0.1-2.2,1.9-1.7,3.3-1.6c2.7,0.3,3.2-1.2,2.1-3c-3.9-6.1-1.5-11.6,1-17.2c3.1-7.1,7-13.9,11.7-20.1c0.7-0.9,1.5-2.1,2.7-1.9
	s1.1,1.9,1.3,2.9c0.2,1.3-0.3,3.5,1.7,3.4c1.8,0,1.3-2.1,1.7-3.5c0.2-0.4,0.2-0.8,0.1-1.2c-1.7-9.2,3.5-15.2,9.5-21
	c6.2-6.1,12-12.5,18.7-17.9c1.1-0.8,2.1-2.5,3.6-1.8c1.1,0.6,0.9,2.4,1,3.7c0,0.9,0,1.7,0.2,2.6c0,0.6,0.3,1.1,0.8,1.4
	c0.8,0.3,1.2-0.3,1.6-1c1.2-2.3,1.8-4.9,1.8-7.5c-0.1-2.8,1.2-5.5,3.4-7.2c12.4-9.9,25.5-18.8,39.6-26c1.3-0.6,3-2,4.4-0.7
	s0.1,3-0.5,4.4c-0.7,1.9-1.8,3.6-2.5,5.5c-0.3,1.2-1.9,2.8,0.1,3.7c1.7,0.8,2.6-0.9,3.2-2c1.9-3.2,4.3-6.4,5.3-10
	c1.7-6,5.7-9.5,10.8-12.1c7.3-3.7,14.8-7.2,22.3-10.4c10.9-4.6,21.5-9.9,33-12.9c1.5-0.4,3.4-1.6,4.4-0.3c1.4,1.5-0.2,3.3-0.9,4.7
	c-1.7,3.8-4.1,7.3-7.1,10.3c-0.9,0.8-2.5,1.8-1.4,3.1s2.7,0.3,3.8-0.4c4.9-3.5,8.8-8.1,11.5-13.5c3.6-7.7,9.6-11.2,17.6-13.3
	c17-4.7,34.3-8.9,51.5-13.1c1.6-0.4,3.1-0.9,4.3,0.7s-0.1,2.8-0.8,4c-2.2,4-5.8,7.1-8.6,10.6c-0.7,0.8-1.7,1.8-1,2.7
	c0.3,0.4,0.7,0.6,1.2,0.6c0.7,0,1.3-0.2,1.9-0.6c1.5-0.9,2.8-2,4-3.2c4-3.9,7.3-8.5,10.6-13c2.1-3,4.5-5,8.5-5.6
	c20.6-2.9,41.1-7.4,62.1-7.4h1.7c2.4,0.2,5.7-1,6.8,1.3s-2.2,3.6-3.6,5.4c-0.6,0.8-2.1,1.7-1.1,2.8s2.2,0.1,3-0.7
	c3-2.7,5.9-5.5,8.9-8.3c1.1-1,2.1-2.1,4-2.1c19.5,0.1,39.2-0.5,58.7,2.3c5.3,0.7,5.2,0.8,3.5,5.6c-0.2,0.5-0.2,1.1,0,1.7
	c0.4,0.6,1.3,0.8,1.9,0.5c1.2-0.5,2.4-1.1,3.5-1.7c5.2-3.4,10.5-3.8,16.6-2.5c11.6,2.5,23.1,5.7,34.3,9.8c2.3,0.8,4.8,1.5,4.5,4.8
	c-0.1,1.6,1.2,1.8,2.5,1.6c5.5-1,10.1,1.3,14.7,3.8c6,3.2,11.5,7.2,16.4,11.9c4.2,3.8,3.9,4.9-0.9,7.6c0.8,1.5,1.9,1.2,2.9,1.1
	c5.7-0.6,9.5,2.4,12.2,7.2c3.1,5.7,7,11.3,6.2,18.4c-0.1,1.2,0.7,2.1,1.3,3.1c3.7,5.9,4.6,12,0.5,18.1c-0.7,0.8-0.9,1.9-0.3,2.8
	c1.8,3.4,0.9,6.7-0.3,10c-6.4,17.6-17.5,32.2-30.4,45.2c-25.1,25.2-54.7,43.9-87.4,57.8c-1.6,0.8-3.5,2.1-5.2,0.4
	c-1.9-1.8-0.5-3.8,0.3-5.5c1.3-3.1,2.7-6.1,4.2-9.1c5.2-11.1,4-22.2-0.9-33c-2.6-5.5-3.2-11.8-1.6-17.7c7.1-27.7-1.9-49.8-23.8-67.2
	c-20.8-16.5-44.5-22-70.7-18.3c-8.2,1.1-15.9,4.7-22,10.3c-1.1,1.1-2.2,2.7-4.4,1c-12.5-9.9-27.1-9.9-41.6-8.3
	c-29.3,2.9-52.3,17.4-69.8,40.8c-2.7,3.5-5.9,6.7-9.5,9.3c-28,21.1-44,49.4-48.9,83.8c-0.4,3.2-2.5,8.2,3.6,9.5
	c0.3,0.1,0.7,1.6,0.7,2.4c0.2,9,3.1,17.3,6.7,25.4C293.6,267.9,294.5,270.6,293.2,273.8L293.2,273.8z M346.9,193.7
	c0.7-0.2,1.5-0.7,2-0.4c0.8,0.3,0.4,1.2,0.3,1.9c-4.8,19.4-6.2,39.5-11.1,58.9c-1,3.6-2.4,7.1-3.6,10.7c-0.5,1.1-1,2.6-2.6,2.6
	c-1.6-0.1-3.1-1.1-3.6-2.7c-1.1-2.2-0.8-4.7-0.8-7.2c-0.1-4.6,0-9.1-1.7-14.6c-2.5,3.7-2.2,7-2.6,10.1c-0.9,7.4-0.9,7.5-8.3,7.4
	c-3.8-0.2-7.5,0.4-11,1.8c-3.1,1.5-4.7,0.7-5.7-2.9c-4.1-13.6-5.5-27.6-5.9-41.7c-0.1-5.4,1.2-10.7,3.8-15.4
	c8.2-15.8,17.7-30.6,30.2-43.5c1.1-1.1,1.7-5.6,5.3-2.2c0.5,0.4,2.6-2,3.5-3.4c5.9-8.9,13.1-16.9,21.2-23.8
	c16.9-14.1,35.9-24.1,57.9-27.3c9.9-1.5,19.9-1.2,29.1,3.6c2.5,1.2,4.7,2.9,6.4,5.2c-10.7,1.2-22.3-3.5-30.6,7.2
	c2,1.2,3.7,0,5.2-0.3c8.5-2.2,17.5-2.1,26,0.3c3.9,1,5.6,3.6,5.5,7.6c-0.2,7.8-3.7,13.9-9.1,19.3c-8.8,8.5-19.5,12.6-31,15.5
	c-15.5,4.1-31.4,7-46.4,13.1c-8.9,3.6-17.3,8-23.8,15.3c-2.4,2.7-4.3,5.8-5.6,9.1C343.2,197.5,344.5,194.4,346.9,193.7z
	 M330.3,329.7c-18.7-5.4-34.2-26.6-33.8-45.9C297,269,310,261.6,323,268.7c5.8,3.1,10.5,7.9,16.3,11.4c-0.7-1.6-1.4-3.1-2.1-4.6
	c-1-1.3-0.8-3.2,0.3-4.4c9.1-9.8,10.8-22.3,12.8-34.7c2.4-14.9,3.7-29.9,7.6-44.6c1.2-4.8,3.7-8.1,8.5-9.9
	c13.2-5.2,27.1-7.7,40.8-10.6c6.5-1.4,12.9-3,19.3-4.9c10.9-3.2,20.5-9.6,27.6-18.4c1.9-2.4,3.4-3.4,6.2-0.9
	c6.7,5.8,15,7.6,23.7,7.6c15.4,0.2,30.6,0.2,45.9,0.1c2.4-0.2,4.8,0.7,6.5,2.5c9.6,8.7,13.6,20.2,16.3,32.2
	c4.5,20,3.7,40.4,4.4,60.7c0.2,5.6,0.6,11.2,0.7,16.8c0.1,2.8,1.6,5.3,2.9,7.5c10.3,18.4,8.3,36-3,53c-16,23.7-37.1,42.1-61.9,55.9
	c-11.4,6.4-24.1,6.2-36.3,4.5c-42.3-5.7-76.5-25.7-102.1-60c-2.1-2.8-3.4-3.3-6.3-1C344.8,331.6,337.6,331.9,330.3,329.7z
	 M279.3,463.2c-1.1-2-1.7-4.3-1.7-6.6c-0.2-9.9,3.5-18.5,9.3-26.2c3.9-5.3,8.3-5.5,13.5-1.4c2.1,1.7,3.9,3.8,6,5.6
	c1.3,1.1,1.7,2.5,0.5,3.7c-1.9,2.1-2.2,6.1-6.1,5.9c-2.5-0.1-7.4-6.7-7.6-9.4v-4.6c-2.8,2-2.7,4.1-2.1,6.3c1,3.8,3.4,6.8,5.8,9.9
	c3.5,4.3,3.1,15.4-0.5,19.4C292.5,470.1,282.2,468.5,279.3,463.2L279.3,463.2z M318.3,488c-0.3,9.1-0.6,18.1-4,27.7
	c-0.7-3.7-1.1-6.5-1.7-9.3c-2.8,2.8-3.5,4.6-3.1,8.3c0.2,3.1,0.8,6.2,1.5,10.2c-9.9-5.7-17.5-12.1-18.7-23.4
	c-1.3-11.4,1.7-22.8,8.4-32.1c1.9,2.2,3.6,4.3,5.5,6.2c2,2.1,4.4,4.3,7.2,4.6C318.8,480.7,318.5,484.1,318.3,488L318.3,488z
	 M321.5,467.6l-0.3,1.7c-0.9,7.9-1.7,8.2-8.3,3.4c-8.9-6.4-10.9-15.5-5.6-25.2c1.7,0.8,1.9,2.7,2.6,4.1c2,4.3,4.6,8.1,8.9,10.2
	C321.5,463.1,322.1,464.9,321.5,467.6L321.5,467.6z M320.9,457.1c-2.4,0.2-3.4-3.1-4.7-5.2c-4-6-3.6-12.1-0.2-18.3
	c1.2-2.2,2.4-4.7,3.6-7.3c2.9,2,3.2,6,7.1,8.4c-1-14.1-6.8-27.7,1.2-41.5c1.7,2.6,3,4.6,4.4,6.6c0.7,0.9,1.4,2.7,2.8,2.1
	s0.7-2.2,0.4-3.4c-1.1-5.2-1.8-10.5-2.1-15.8c-0.6-6.3,0.6-12.7,3.3-18.5c0.7-1.3,1-3.5,2.8-3.5s2.1,2,2.7,3.5
	c1.2,2.6,2.1,5.2,3.5,8.4c2.3-9.1,0.8-18.8-4.1-26.8c-1.4-2.2-3.5-5.2-3-7.3c0.6-2.6,4.6-0.9,6.8-2s4.5-1.9,6.7-2.9
	c1.4-0.7,2.6-1.2,3.6,0.7c6.7,13.7,18.1,23.3,29.1,33.2c1.2,1.1,2.5,2,3.6,3.1c3.7,3.4,3.8,6.8-0.7,9c-15.6,7.3-26.5,19.6-38.7,31.1
	c-11.8,10.8-20.2,24.6-24.5,40C323.7,453.1,323.7,456.8,320.9,457.1L320.9,457.1z M335,567.1c1.7-6.6,3.5-13.2,5.3-20
	c0.2-0.9,0.8-1.8,0-2.8c-2,0.8-1.9,3.5-4.1,4.8c-2.4-5.2-3.4-10.5-4.4-15.9c-6.3-32-5-63.5,5.6-94.5c2.5-7.3,6-14.1,11.4-19.6
	c4.5-4.7,6.6-4.5,10,0.9c5.9,9.5,8.8,20.4,11.4,31.1c7,27,13.8,54.1,21.6,80.8c3.1,10.8,2.6,22,2.6,33.1c0,2.8-1.2,3.1-3.5,2.3
	c-3.8-1.3-7.7-2.3-11.7-2.9c-1.9-0.3-3.7-0.9-5.5,0.5c1,1.3,2.5,1.6,3.7,1.9c11.5,3.8,19,11.7,23.8,22.4c6.9,15.6,11,32.1,15.5,48.5
	c0.9,3.5,3.7,7.7,2.1,10.5s-6.6,1.5-10.1,2.2c-13.3,3.3-25.9,9.1-36.9,17.3c-4.3,3.3-4.5,3.1-6.5-1.7c-11.3-26.4-19.8-53.4-20-82.5
	c-1.8-0.1-1.8,1.5-2.5,2.1c-0.7,0.8-1.3,1.6-1.9,2.5C335.2,582.1,333,575.2,335,567.1z M336.1,623.5c3.5,2.5,6.2,5.2,7.5,9.2
	c2.6,7.4,5.3,14.8,8.2,23.2c-34-22-64.3-47.1-96.4-69.9c9,2.5,17.4,6.1,25.9,9.4C300.6,603.1,319.2,611.6,336.1,623.5L336.1,623.5z
	 M350.6,837.7c-13,4.6-25.9,9.4-37.8,16.7c-4.5,2.8-9.8,1.9-14.7,1.6c-1.8-0.1-2.7-1.6-3.1-3.1c-1.2-3.8-2.2-7.8-3.5-11.6
	c-3.1-10,0.6-17.6,8.2-24c2-1.7,3.6-1.3,5.7-0.3c14.9,7.2,30.6,12.6,46.8,16.2c1.8,0.5,3.6,0.6,6.3,1
	C355.8,836.2,353.1,836.9,350.6,837.7L350.6,837.7z M403.6,797.7c1.3,5-2.7,6.8-5.5,9.2c-2.6,2.2-4.8,0.6-7-1.1
	c-4.7-3.6-9.2-7.3-15.8-6.8c-8.5,0.6-13.9,5.4-14.6,14c-0.1,2.6-0.1,5.2,0.1,7.7c0.1,3.1-0.9,4-4,3.3c-12.2-3.4-24.3-7.1-35.9-12.2
	c-35.9-16.2-64.3-41.3-88.1-72.1v-0.8c6.4-2.3,12.7-0.6,18.9,0.2c7.9,1,10.9-1.5,10.4-9.4c-0.3-6.7-3.5-12.3-7.2-17.7
	c-8.6-12.9-20-21-36.2-20.3c-4.5,0.1-8.6,1.3-11.9,4.5c-2.1,2.1-3.2,1.7-4.7-0.8c-11.3-18.2-22.7-36.3-34.2-54.5
	c-5.2-8.3-11-16.2-16.1-24.5c-3.8-6.3-2.1-11.8,0.6-17.6c0.6-1,1.5-1.7,2.6-2c3-0.9,5.1-3.2,7.3-5.4c2.4-2.4,2.9-4.4-1.3-5
	c0.5-1.4,1.4-2.7,2.6-3.6c7.9-7.4,16.6-14,25.9-19.4c6.9-4,15.2-5.3,23-3.5c21.3,4.6,40.4,14.7,59.3,24.9
	c-17.4-4.9-35.2-8.2-51.6-16.4c-0.2,0.3-0.3,0.8-0.6,1.1c0.7,0.6,1.2,1.1,1.9,1.7s1.6,1.1,1.4,2s-1.2,1-2,1.2
	c-11.4,3-15.1,9.4-12.3,20.9c1.1,4.7,3.4,8.9,5.6,13c2.9,5.5,3.5,10.5-1.1,15.5c-2,2.2-2.2,4.8-1.2,7.6
	c3.7,10.1,10.6,18.7,19.8,24.5c3.2,2,6.6,2.2,9.6-0.1c7.3-5.8,15.7-6.2,24.2-4.7c5.5,0.8,10.5,0.3,15.3-3.1
	c4.9-3.7,10.8-3.6,16.5-2.2s11,1.7,13.6-5.2c0.6-1.5,1.6-1.2,2.7-0.3c13.8,10.9,28.8,20,43.9,29.2c5,3,6,5.8,3,10.8
	c-6.2,10.4-4.1,20.1,1,29.8c4.4,8.3,9.5,16.2,14.4,24.1c2.9,4.9,2.1,7.1-3.6,7.2c-9,0.3-14.4,3.8-14.7,13.3
	c-0.2,2.1-0.6,4.2-1.1,6.3c-1.7,7.2,1.5,12.2,7.1,16.3c2.6,2,5,2.6,7.9,0.6s5.8-3.7,8.8-5.6c2.8-1.8,5.8-3.2,8.9-4.4
	c4.7-1.8,8.9-1.8,12.6,2.2c1.4,1.5,3.4,2.2,5,3.2s5.4,0.5,4.9,3.1c-0.6,3.8,0,8.6-3.7,11.1C403.7,790.1,402.6,793.4,403.6,797.7
	L403.6,797.7z M413.6,835.4c-3.8,1.5-4.7,1.3-7.7-0.5c1.1-1.8,2.8-1.3,4-1.9c3.4-1,5.8-4.1,6.1-7.6c0.5-4.5,0.7-9,0.8-13.3
	c0.1-1.8,0.2-3.4,2.5-3c7.4,1,13.6-2,19.7-5.2c1.2-0.7,2.7-2.1,3.9-1.1c1.5,1.2,0,3-0.5,4.4C437.7,821.4,427.6,830.4,413.6,835.4
	L413.6,835.4z M479.4,844.4c0-4.4,3.5-6.8,3.6-11.3c-3.1,2.9-5.7,5.5-8.4,7.8c-1.7,1.5-3.6,2.9-5.5,4.2c-0.8,0.6-1.9,1-2.8,0
	s-0.5-1.9,0.1-2.8c1.3-2.1,2.8-4.2,4.6-6.8c-3.4-0.1-4.9,1.8-6.7,3c-3,2.1-5.9,4.5-9,6.6c-2.9,2-6.7,2.2-9.9,0.6
	c-2.5-1.2-3-2.5-0.8-4.5c2.5-2,5.2-3.7,6.6-7.6c-4.7,1.1-8.1,3.6-11.7,5.6c-4,2.2-8.2,4.2-12.9,4.3c-1.9,0.2-3.8-0.2-5.5-1.1
	c-2.9-1.8-3-3.4,0.2-4.7c16.5-6.8,23.8-20.3,27.1-36.8c0.2-1.3,0.3-2.6,0.3-3.9c0.1-2-0.6-2.6-2.5-1.5c-6.3,3.8-13.2,5.7-20.3,7
	c-5.5,0.9-10.6,0.3-15.4-2.8c-1.7-1.1-3.4-2.7-3-4.9s2.7-2.6,4.5-2.7c13.8-1.2,23.9-9,33.1-18.4c6.2-6.3,13-11.9,22.2-13.6
	c2.8-0.5,3.7-3.4,4.6-5.7c1.3-3.4,3.4-4.6,7.1-4c7.1,1.2,13.9,3.7,20.1,7.5c4,2.3,5.3,5.9,4.6,10.3c-3,17.8-6.1,35.7-9.1,53.6
	C493.1,831.2,487.6,838.3,479.4,844.4L479.4,844.4z M501.4,820.2c0.6-3.1,1.2-6.2,1.8-9.3c0.3-2.4,1.5-2.5,3.2-1.3
	c4.8,2.9,5.4,7.7,5.8,13.3c0.8,3.1-2,3.3-4.5,3.6C500.3,827.6,500.1,827.6,501.4,820.2L501.4,820.2z M599.3,827.2
	c8.4,7.1,9.3,16.9,2.1,25.6c-4.6,5.6-8.6,6.6-15.6,3.9c-21.1-8.3-42.5-15.1-64.8-19c-5.2-0.8-10.3-1.2-15.9-1.9
	c12.8-1.2,25.5-3.7,37.9-7.4c-0.3,3.8-3.2,7.2-1.2,11.1c1.9-1.8,1.9-4.3,2.3-6.5c0.5-3.6,3.1-6.6,6.6-7.6
	c8.4-3.1,16.3-7.4,24.1-11.7c2.4-1.2,3.9-1.1,6.2,0.4C587.2,818.3,593.5,822.3,599.3,827.2L599.3,827.2z M717.2,605
	c-3,8.6-6.9,16.8-11.7,24.6c-1.5,2.6-4.1,4.5-7.1,5.3c-6.8,2.1-10,5.4-8.9,12.2c1.3,9.2-2.4,16.5-6.6,23.9
	c-4.6,7.6-9.1,15.4-13.5,23.1c-1.2,2.2-2.4,2.8-4.6,1.5c-4.6-2.7-8.6-1.1-12.3,2c-3.4,2.9-5.8,6.6-8.6,10.2
	c-5.3,6.7-11.9,8.3-20,5.7c-16.5-5.3-33.2,8.5-31.7,26.1c0.3,3.8,3.9,7.3,8.5,7.8c6.3,0.8,7,1.2,7.5,7.6c0.3,3.6,2.2,6.2,4.8,8.4
	c1.9,1.7,2.1,2.8,0,4.7c-9,8.2-18.2,16.4-27.6,24.1c-1.9,1.6-3.5,1.7-5.4,0.5c-3.1-2.1-6.4-2-9.9-0.8c-3,1.2-6.1,1.8-9.3,2
	c-3.6,0.2-5.4-1.1-5-5c0.3-3.1,1-6.2,2-9.2c0.8-2,1.4-4.1,2-6.2c2.5-11.2-6.6-20.2-17.8-17.4c-2.5,0.7-4.9,1.6-7.3,2.6
	c-1.3,0.5-3,1.5-4.2,0.6c-1.3-1.1,0.1-2.8,0.7-3.9c2.2-5.3,4.8-10.4,7.2-15.7c3.9-8.6,7.3-17.5,10-26.6c3.8-12.8,2.5-24.8-4.3-36.1
	c-1.5-2.6-1.3-4.7-0.7-7.6c2.2-9,7.4-15.1,15-20.2c11.1-7.4,21.2-16.3,31.2-25.2c2-1.9,3.6-2.1,5.8-0.5c1.6,1.2,3.5,2,5.5,2.4
	c4.7,0.8,6,3.8,6.1,8s0,8.4,0.5,12.6c0.8,6.8,3.9,9.8,10.7,10.8c13.8,2,27.7-8.5,29.5-22.4c0.4-3.1,0.7-6.3,0.9-9.4
	c0.3-5.6,1.9-11.1,4.7-15.9c3.1-5.7,1.9-10-3.3-13.9c-4.7-3.5-10.1-4.6-15.9-4.7c-2.6,0-6.5,1.2-7.4-1.5c-1-2.5,2.6-4.4,4.5-6.3
	c4.7-4.9,10.1-9.3,14.8-14.9c-0.8-0.2-0.9-0.3-1-0.3c-10.4,7.4-23.2,8.9-34.7,13.6c-17.9,7.5-35.2,16.7-51.5,27.2
	c-1.5,0.9-3.4,3.4-4.7,1.6s1.1-3.6,2.6-4.7c15.1-11.9,31.6-21.5,48.7-30.3c16.4-8.5,33.1-16.3,51.2-20.5c10.3-2.4,10.8-2.2,9.1,7.8
	c-1.9,11,3,19,10.2,26.1c3.7,3.8,7,3.7,11.1,0.3c5.2-4.5,9.8-9.4,12.2-16.5c7.6,7.3,14.7,14.7,18.1,24.9
	C718.1,599.9,718.1,602.5,717.2,605z M568,655.7c-5.3,5.5-10.7,10.9-15.2,16.9c-4.9,6.8-2.7,16.9,3.8,21.1
	c5.3,3.4,15.5,0.5,19.7-5.8c3.1-4.8,4.8-10.5,4.8-16.3c0.1-5.8-0.9-11.2-5.2-15.5C573.5,653.6,570.6,653,568,655.7z M516.1,280.7
	c4.9,0.6,9.8-0.2,14.6-1.1c13.3-2.4,21.5-12.1,21.8-26.8c-0.1-5.1-0.9-10.1-2.4-15c-1.5-4.9-2.2-10.6-6-14.1
	c-8.4-8.2-22.7-12.1-34.5-2.8c-12.1,9.5-16.3,22.9-15.5,37.5C494.9,272.6,501.7,279,516.1,280.7z M533,219.5
	c-7.8,1.7-15,2.2-21.9,4.5C516.8,218.2,525.5,216.4,533,219.5z M502.6,234.2c1.7-3.6,4.8-6.3,8.5-7.5c8.5-2.9,17.7-3.3,26.4-1.1
	c3.1,0.7,5.8,2.8,7.1,5.7c4.2,9.1,5.7,19.1,4.5,29.1c-0.6,4.9-3.5,8.8-7.6,11.5c-5.9,3.9-13,5.7-20.1,5.2c-3.8,0.1-7.5-0.1-11.2-0.7
	c-6.4-1.1-10.2-4.9-11.7-11.1C496.1,254.6,497.6,243.6,502.6,234.2L502.6,234.2z M548,841c2-3.7,3.2-7.9,3.4-12.1
	C548.7,832.3,547.5,836.7,548,841z M435.2,334.8c-5.8-2.4-5.8-2.4-2.7-7.3c-6.3,0.5-9.2,3.9-8.3,9.9c3-2.5,3-2.5,5.6,0.7
	c15.2,18.2,33,30.6,58.3,27.9c13.6-1.4,19.3-4.8,24-17.6c2.9-8.1,7.5-15.2,12.5-22.1c3.6-5,3.7-5,8.2-0.7c0.1,0.1,0.5,0,0.9-0.1
	c-0.6-3.4-2.7-5.7-5.3-7.5c-1-0.8-3.5-1.2-3,0.6c0.6,3-1.5,3.5-2.8,4.7c-4,3.2-8.8,5.3-14,4.5c-12.1-1.7-23.8,3.7-35.9,2.7
	c-0.5,0.1-1.1,0.3-1.6,0.4c-5.6,1.8-11.2,3.7-16.8,5.2C448,337.8,441.3,337.3,435.2,334.8z M515.3,333c0.8-1.4,1.3-2.9,3.3-3.3
	c1.1,1,0.1,1.8-0.3,2.6c-3.9,6.2-7.1,12.8-9.5,19.8c-2.2,5.9-6.9,9.5-12.9,11c-23.3,5.7-49.1-4.7-62.9-25.9c3.2,1.7,6.1,4,8.5,6.7
	c13.6,13.5,30,18.7,48.8,17c7.3-0.7,12.7-4.1,15.9-10.9C508.8,344.2,512.2,338.6,515.3,333z M453.6,351c0.2-0.5,0.3-1,0.5-1.6
	c3.2,0,6.6-0.1,9.9,0c6.3,0.2,12.6,0.6,18.8,0.9c3.4,0.1,6.6,1.3,9.2,3.4c1,0.8,2.2,1.6,2,3c-0.5,1.8-2.1,2-3.5,2.1
	c-7.6,0.9-15.3,0.4-22.7-1.6C462.8,356,457.9,354.2,453.6,351z M510.8,334c-2.3,7.1-5.6,13.8-9.9,19.9c-1.2,1.9-2.8,2.4-4.5,0.5
	c-1.1-1.4-2.6-2.4-3.7-5C502.7,348.9,506.5,341.3,510.8,334z M471.4,332.9c8.6,0.2,16.5-1.8,24.7-3.6c3.9-0.8,8.3,0.1,12.3,1.4
	c-5.3,3.7-43.6,9.6-53.5,8C461,336.4,466.3,332.8,471.4,332.9z M449.8,341.1c17.5,0.9,34.4-2.4,51.5-5.6c1.4-0.3,2.9-1.2,3.8,0.5
	c0.8,1.5-0.3,2.8-1.2,3.9c-3.5,4.6-8.5,6.4-13.9,6.7c-12.2,0.9-24.5,0.9-36.5-1.9c-2.2-0.5-4.7-0.9-6.5-2.7
	C447.8,340.7,448.9,341.1,449.8,341.1z M518.4,267.1c9-0.1,15.1-7,15.1-16.4s-7-17.3-15.5-17.2c-9.1,0-16.3,7.5-16.3,17.1
	C501.8,260.2,509,267.4,518.4,267.1z M518.1,237.2c6.7,0.1,12.1,5.6,12,12.3c0,0.1,0,0.2,0,0.4c-0.7,9.3-4.4,14.1-12.6,13.5
	c-8-0.1-11.8-4.5-11.8-13.7C505.8,242.2,510.8,237.2,518.1,237.2L518.1,237.2z M517.7,259.9c4.9-0.2,8.9-4.2,9-9.1
	c0-5.3-3.8-9.4-8.6-9.3c-4.6,0.1-8.4,4.3-8.5,9.2C509.5,255.9,512.9,259.9,517.7,259.9z M519.3,244.9c1.3,0,2.4,1,2.5,2.4
	c-0.2,1.8-1.3,2.1-2.8,2s-2.6-0.8-2.5-2.4S517.9,244.8,519.3,244.9L519.3,244.9z M497,305.2c-1.4,1.3-3,2.5-3.7,4.6
	c8.2-2,13.8-11.2,10.2-17.4c-3.3-5.5-8.5-9-13.9-12.2c1.5,4,4.8,6.5,7.5,9.5C502.2,295.4,502.2,299.6,497,305.2z M466.3,569.9
	c6.7-1.6,11-6.3,12.1-13.6c0.3-2.1,0.5-4.3,0.8-6.6c-0.2-2.1-0.3-4.5-0.8-6.7c-1.5-7.8-6.7-12.1-14-14.1c-6.6-1.9-13.4,1-17.6,7.1
	c-5.6,7.9-5.5,19.8,0,27.7C451.4,570,457.3,571.9,466.3,569.9z M451.5,540.5c2.5-4,5.8-6.5,10.5-6.3s8.3,2.9,10.3,7.4
	c1.1,2.5,1.7,5.1,1.6,7.8c0,8.6-3.6,13.3-11,14.9c-4,0.9-7.1-0.8-9.5-3.6C448.3,555.4,447.6,547,451.5,540.5z M470.5,312.9
	c0.8,0.3,1.8,0.4,2.2-0.5s-0.5-1.2-1-1.6c-2.4-1.2-3.8-3.3-5.4-5.4C465.7,309.2,467.3,311.6,470.5,312.9z M456.6,634.7
	c-0.2-0.6-1-0.3-1.4,0.1c-1.7,1.7-1.5,3.5,0,5.8C456.7,638.6,457.5,636.8,456.6,634.7z M448.7,640.7c1.6,0.1,1.8-1.6,1.8-2.8
	c0-1.6-0.2-3.7-1.9-3.7s-1.2,2.1-1.5,3.5C447.2,638.9,446.9,640.7,448.7,640.7z M390.7,288.7c9.9,1,19.6,3,29.6,2.7
	c2.5,0,4.9,0.1,7.4-0.1c9-0.5,16.7-4.5,19.2-12.9c8.6-29.4-13.7-57.8-43.1-52.5c-5.6,1-11,2.7-14.2,7.3c-3.5,4.9-8.5,8.4-9.4,16
	c-1.4,12.7-0.1,24.2,5.5,35.6C386.9,287.2,388.3,288.5,390.7,288.7z M424,232c-11.3-0.7-22.3-0.1-33.4,4.5
	C396,227.4,413.7,225.1,424,232z M384.6,248.6c0.6-3,2.8-4.9,5.3-6.5c9-5.5,18.9-7.6,31.8-8c9.1-1.5,15.6,4.6,19.6,14.6
	c3.1,7.6,4.9,15.4,4.3,23.6c-0.5,6.3-3.8,10.5-9.2,13c-5.9,2.9-12.5,3.9-19,3c-7.5-1-15.1-1.4-22.8-1.8c-2.8-0.1-4.4-1.5-5.8-3.7
	C382.1,272.1,382.4,260.4,384.6,248.6L384.6,248.6z M412.4,279.5c10.1,0,17.3-7.3,17.3-17.5c-0.1-11.4-7.2-19.1-17.8-19.2
	c-8.6-0.2-17.3,8.8-17.4,18c-0.2,10.1,7.7,18.4,17.8,18.7C412.3,279.5,412.4,279.5,412.4,279.5z M412.1,246.1
	c7.9,0,14.7,7.6,14.7,16.3c0,7.4-6.5,13.7-13.9,13.8c-7.9,0.1-14.9-7.1-14.9-14.8C398,253.2,404.7,246.2,412.1,246.1L412.1,246.1z
	 M412.6,271.6c4.8,0.1,8.8-4.3,8.8-9.8s-4.4-10.1-9.3-10.1c-4.5,0.1-8.2,4.6-8.2,10S407.8,271.5,412.6,271.6z M414.2,255.6
	c1.5,0.1,2.8,0.8,2.8,2.7c0.1,1.4-1,2.6-2.4,2.7c-0.1,0-0.2,0-0.3,0c-1.7-0.1-2-1.5-2.1-2.8S412.4,255.5,414.2,255.6L414.2,255.6z
	 M346.4,697c-0.6-5.5-1.1-10.9-3.1-16s-5.3-8.6-10.9-10.1c-8.1-2-16.4-2.8-23.7-3.8c-8-0.2-10.9,2.9-9.8,9.8
	c0.3,2.2,0.5,4.7,1.9,6.5c4.4,5.6,4.5,11,2.4,17.8c-2.7,8.3,0.8,13,9.4,14.2c7.7,1.1,15.2,3.3,22.2,6.5c2.1,1,4.3,1.6,6.6,1.9
	c8.8,1.6,12.5-2.8,9.1-11.1C348.3,707.7,346.9,702.4,346.4,697z M314.2,279.2c-3.9-1.2-7.7-1-10.2,3.6c7.7-3.4,13.5,0.2,19.1,4.7
	c2,1.7,2.8,2.9,0.2,4.9c-1.7,1.4-3.3,3.1-3.3,5.7c1.5,0,2-1,2.7-1.6c4.1-3.5,5.5-3.2,8.5,1.2c0.4,0.8,0.8,1.5,1.4,2.2
	c0.5,0.6,0.7,1.5,2.1,1.2C331.2,290.6,325,282.6,314.2,279.2z M297.3,827.3c6.7,3.1,11.1,7.3,13.8,13.8
	C313.3,833.2,305.8,825.4,297.3,827.3z M289.6,739.8c-5.2-1.8-7.4-0.2-7.6,5.2v4.7h-0.1c0.3,3.5,0.6,6.8,0.9,10.3
	c1.1,8.9,5.2,13,13.9,14.4c7.5,1.2,11.6-2.3,11.4-10C307.8,754.7,298.9,742.9,289.6,739.8z M191,568.3c-1.8,0.8-4.9,1.9-4.1,3.9
	c1.1,2.6,3.7,0.3,5.5-0.2s3.6-1.3,4.4-3.5C194.9,566.5,192.8,567.4,191,568.3z M170.4,579.7c-0.9,0.6-1.2,1.7-0.8,2.7
	c0.6,1.1,1.8,0.7,2.6,0.3c2.4-1.1,4.6-2.3,6.9-3.7c0.8-0.6,1.7-1.3,1.1-2.5c-0.4-0.9-1.5-0.7-2.7-0.8
	C174.7,576,172.6,577.9,170.4,579.7z"/>
</svg>
