<?xml version="1.0" encoding="utf-8"?>
<!-- Generator: Adobe Illustrator 25.2.3, SVG Export Plug-In . SVG Version: 6.00 Build 0)  -->
<svg version="1.1" id="Слой_1" xmlns="http://www.w3.org/2000/svg" xmlns:xlink="http://www.w3.org/1999/xlink" x="0px" y="0px"
	 viewBox="0 0 864 864" style="enable-background:new 0 0 864 864;" xml:space="preserve">
<style type="text/css">
	.st0{fill:none;}
	.st1{fill:#FF0000;}
	.st2{fill:#D65E1B;}
	.st3{fill:#E08353;}
	.st4{fill:#FD9BC2;}
	.st5{fill:#0087D7;}
	.st6{fill:#FFFFFF;}
</style>
<path class="st0" d="M690.4,490.7c3.9-4,7.8-8.1,10.7-13c6.9-11.9,11.7-24.8,18.3-37c1.1-2.1-0.5-2-1.9-1.9
	c-11,1.3-21.6,5.2-30.8,11.3c-2.8,1.8-4.4,4-3.4,7.8c0.9,4,1.6,8.1,2,12.3c0.9,6.5,1.6,13.2,2.4,19.7
	C687.9,492.1,688.7,492.2,690.4,490.7z"/>
<path class="st0" d="M191.2,542.7c-1,0-2-0.1-3.1-0.1c-4,0-8,0.4-11.9,1.1c-11.9,2.5-22.6,8-33.1,13.5c-0.9,0.4-2.5,0.6-2.1,2
	c0.4,1.1,1.9,0.6,2.9,0.6c6.8,0.2,13.6,1,20.3,2.5c10.8,2.1,21.4,4,32.2,6c3.1,0.6,4.3-0.5,3.6-3.6c-0.9-5.1-1.4-10.2-1.6-15.3
	C197.8,543.6,196.9,542.9,191.2,542.7z"/>
<path class="st0" d="M214.4,631.1c-2.6,5.3-5.5,10.5-6.9,16.4c-1.4,5.5-2.4,11-4.1,16.4c-1.8,5-4.3,9.5-6.6,14.2
	c1.1,0.9,2,0.2,2.9,0c11.5-3.9,23.2-7.9,35.6-7.9c2.1,0,3-0.6,1.5-2.8c-8.1-11.2-14.7-23.3-19.8-36.1c-0.2-0.6-0.4-1.6-1.2-1.5
	C215,630.1,214.6,630.6,214.4,631.1z"/>
<path class="st1" d="M603.8,615.9c1.4-2,0.6-2.5-1.2-2.5c-4.4,0-8.6,0-12.7-2.1c-1.6-0.9-2.5,0-2.5,1.8c0.1,1.7-0.2,3.4-0.9,5
	c-3.9,10.2-10.7,17.3-21.2,20.8c-9.3,3.1-18.5,5.8-26.8-2.4c-1.6-1.5-2.9-0.9-3.3,1.4c-0.5,2.2-1.4,4.3-2.8,6.1
	c-4.5,6.7-11.2,11.7-18.9,14.2c-8,2.8-16,3.6-23.9-1.4c-3.9-2.7-6.9-6.6-8.6-11c-1.4-3-2.4-2.6-3.9-0.4c-2.6,3.5-5.7,6.8-9,9.7
	c-1.8,1.6-1.9,2.6,0.5,3.5c3.6,1.4,7.4,2.2,11,3.5c10.8,3.9,22,4,33.3,4.5c20.3,0,38.6-6.3,55.8-16.7
	C583.1,641.2,594,629.1,603.8,615.9z"/>
<path class="st2" d="M437.3,560.6c7.3,4,14.9,6.8,23.4,5.6c1-0.1,2.4,0.1,2.8-1.1s-1-1.8-1.8-2.4c-3.5-3.3-7-6.6-9.6-11.2
	c0.6,0.1,1,0,1.1,0.1c0.4,0.3,0.8,0.5,1.1,0.9c9.3,10,21.2,14.8,34.3,17.5c9.6,2.1,19.4,3.4,29.2,1.2c13.7-3.1,25.9-9.3,36.1-19.2
	c4.3-4.1,7.4-9.2,8.9-14.9c2.4-8.8,1.5-17.4-0.5-26.1c-0.9-4-2.1-8-3.1-12c6.8,12.8,9.7,26.1,6.4,41.5c7.1-5,10.5-11.2,12.9-17.8
	c3.6-10.7,1.5-21-2.1-31.3c-3.4-9.5-9-16.9-18.3-21.5c-4-2-7.6-4.8-10.4-8.3c-5.6-7.9-11-16-15-24.8c-3.5-7.9-8.1-15.3-13.5-22.1
	c-8.3-10.3-19.1-18.4-31.3-23.4c-4.7-2-10.1-1.7-14.5,0.8c-7.4,3.6-11.1,10.5-14.5,17.3c-3.6,7.3-6.6,15.2-7.5,23.2
	c-1.5,13.8-2.5,27.7-0.9,41.6c0.5,3.4,1.1,6.8,0.1,10.9c-5.1-12.2-5-24.1-3.5-36.2c-2.1,0.2-2.3,1.4-2.8,2.4c-1.8,4-3.5,8-5.5,12
	c-6.5,12.8-14.8,24.6-21,37.6c-7.5,15.8-5.8,30.1,2.9,44.4C424.6,551.8,430.4,557.1,437.3,560.6z"/>
<path class="st3" d="M520,406.1c21.2,11.4,41.7,3.9,53.5-13c9.9-14.3,13.4-30.6,13.9-47.6c0-4.4-0.3-8.9-0.9-13.3
	c-0.4-2-1-2.8-2.8-1.2c-8.9,7.5-19.3,12.4-29.6,17.5c-20.8,10.1-42.7,16.4-65.9,17.2c-2,0.1-2.8,0.6-1.8,2.6
	C494.1,383.9,504,397.6,520,406.1z M482.5,322.1h1.4c15-0.8,29.7-3.7,43.9-8.8c15.2-5.2,29.5-12.8,42.3-22.6c1.8-1.2,2.1-2.2,1-4.1
	c-6.8-10.8-14.8-20.2-25.8-26.9c-20.3-12.3-42.4-8-56,11.1c-9.4,13.2-13,28.2-13.9,44C474.9,322.9,474.2,322.1,482.5,322.1z
	 M404.7,350.8c15.7-4.5,29.7-12.9,44.2-19.9c2.5-1.2,2.9-3,1.8-5.3c-1.4-2.9-2.8-5.9-4.3-8.6c-7-13.1-15.9-24.6-29.2-32.1
	c-8.5-4.8-17.4-7.9-27.4-6.3c-13.2,2.1-22.8,9.5-29.7,20.5c-8.3,13.4-11.8,28.1-11.8,43.6c0,3,0.1,6,0,9c-0.1,2.8,1.1,3.8,3.9,4.4
	C370.4,359.7,387.6,355.7,404.7,350.8z M456.7,379c-13.9,8-28.6,14.5-43.9,19.5c-12.1,4.2-24.8,6.6-37.6,7.3h-5.5
	c-0.9,0-2-0.8-2.6,0.2s0.4,1.9,1,2.8c5.9,8.8,13.2,16.2,22.4,21.4c17.5,9.9,34.2,9.8,49.5-4.6c12.9-12.2,17.7-28.4,19.5-45.6
	C459.8,376.9,458.1,378.3,456.7,379z M567.3,692.4c28.3-16.3,53.5-36.3,74-61.9c14.8-18.3,26.7-38.3,34-60.9c1.5-4.9,3-9.8,4.1-14.8
	c2-7.8,3.3-15.9,3.8-23.9c0.6-10.1,0.7-20.1,0.2-30.2c-0.8-15.4-2.6-30.8-5.4-46c-4-21.3-9.2-42.4-15.5-63.1
	c-3.9-12.7-8-25.2-12.4-37.6c-4.4-12.7-9.5-25.1-14.4-37.6c-7.3-18.3-15.3-36.2-23.6-54.1c-6.5-13.8-13.3-27.3-19.9-41
	c-8.8-17.7-18.2-35-27.8-52.1l-0.8-1.5c-5.5-9.6-10.9-19.3-16.8-28.8c-4.8-7.9-4.4-8-12.8-3.5c-16,8.6-33.1,15.4-50.2,21.3
	c-14.9,5.1-30,10.1-45.2,14.3c-13.4,3.8-26.8,7.8-40.5,10.1c-3.9,0.6-7.9,1.1-11.6,3.3c3.5,1.5,6.8,2.6,9.9,4.1
	c16.3,7.5,26.4,20.3,31.2,37.3c1.8,6.5-1.6,13.4-7.9,15.9c-6.3,2.8-13.7,2.1-19.3-1.9c-5.5-3.9-10.9-7.9-16.4-11.5
	c-6.3-4.3-13-4.1-19.9-2c-8.3,2.5-15.5,6.8-22.9,11.2c-8.9,5.1-17.2,2.6-22.3-6.1c-1.7-3.1-2.8-6.4-3.1-9.9
	c-1.5-8.3,0.2-15.7,6.5-21.8c2-2,3.9-4.1,5.8-6.1c-0.4-0.8-1.1-0.4-1.9-0.4c-13.4,0.8-26.8,1.5-40.2,1.2c-9.7-0.3-19.4-1.2-29.1-2.8
	c-7.9-1.3-15.7-3.5-23.4-5.3c-2.4-0.6-3.8-0.4-3.1,2.6c0.8,4.5,1.2,9.1,1.1,13.7c0,14.9-1.9,29.7-3.6,44.5
	c-1.6,13.8-4.1,27.5-6.3,41.1c-2.4,15.7-4.8,31.3-7,47c-1.9,13.8-3.4,27.6-5.3,41.4c-2.9,20.7-4.8,41.5-6.4,62.3
	c-0.1,1.4-0.4,2.9,1.1,3.9c4,2.5,6.5,6.3,9.3,9.9c6.3,8,10.9,16.9,12.3,26.9c1.9,12.5-1.2,24.4-5.6,36.2c-3.3,9-9.1,16.4-15.8,23.3
	c-1,1.1-2.2,2-2,4c1.2,8,1.5,16,2.9,24c0.4,2.1,1,3.3,3.1,3.6c10.8,1.6,19,13.9,19.8,24.6c0.6,9-2.3,17.3-7.3,24.8
	c-1.5,2-1.7,4.7-0.6,7c4.2,10.4,9.3,20.5,15.2,30.1c12,18.9,27.4,34.5,47.4,45s40.9,17.7,62.6,23.1c19,4.6,38.5,6.5,58,7.9
	c15,1,30.1-0.5,45-2c16.6-1.7,33-4.9,49-9.5C521.7,714.7,545.2,704.9,567.3,692.4z M462.6,213.5c5-4,11.1-6,16.8-8.8
	c11-5.4,22.4-9.8,32.6-16.8c7.6-5.4,15.3-11.1,23-16.5c2.8-1.8,5.7-3.4,8.8-4.6c4.1-1.8,7.9-1.6,11.2,2.1c1,1.2,2,2.5,2.9,3.9
	c2.8,4.3,4.5,8.8,4.4,14c-0.2,7.6-3,14.9-8,20.7c-9.2,11.7-20.2,21.1-33.5,27.2c-1.4,0.6-2.6,1.2-4,1.9c-10.5,4.6-21.5,7.8-33.3,7
	c-8-0.4-13.9-5-18.8-10.8c-2.4-2.9-4.9-5.5-5.6-9.5S459.4,216,462.6,213.5z M462.7,660.7c-1.8-0.7-3.8-0.8-5.6-0.4
	c-6.9,1.1-14,0.4-20.5-2c-3.6-1.2-6.1-4-7.8-7.6c-0.8-1.8-1.6-3.4-2.5-5.5c-7.3,6.6-15.5,7.8-24.4,5.5c-3.5-0.9-5.5-3.5-7.4-6.4
	c-3.8-5.4-5.5-11.9-4.8-18.4c0.4-2.6-0.1-3.5-3-2.6c-5.1,1.8-9.5-0.5-12.9-4.1c-6.4-6.8-7.6-18.3-3.5-26.9
	c3.8-7.9,9.9-13.7,16.3-19.3c9.6-8.6,21.4-14.4,34-17c2.8-0.5,1.6-1.9,0.8-2.9c-6.9-7.9-9.4-17.4-11.9-27.1c-1.6-6,0-11.4,1.8-16.9
	c4.8-14.3,12.4-27.2,20.2-40c5.3-9.3,9.7-19,13-29.2c2.1-5.9,3.9-11.8,5.4-17.9c-1.9,0.2-2.4,1.5-3.1,2.5
	c-14.2,17-36.5,21-55.5,10.4c-16.4-9-27.2-22.8-35.1-39.2c-8.6-17.6-12.5-37.1-11.4-56.6c1-17.7,5.4-34.3,17.2-48.2
	c14.5-17,35.5-20.9,55.3-10.3c17,9.1,28.1,23.8,36,41.2c9.8,21.3,12.5,43.7,9.3,66.8c-0.4,3.5-2,6.6-2.2,10.9
	c4.8-5.3,8.8-10.5,16-11.8s13,2.6,20.4,4.1c-2.4-3.5-4.4-6.3-6.3-9.1c-16-25.7-21.8-53.5-16.5-83.3c2.5-14.2,8.3-26.7,18.3-37.3
	c6.5-6.9,16.7-11.4,26.7-12.4c5.4-0.6,10.8-0.1,16,1.5c17.3,5.8,29.4,17.5,38.7,32.6c15,24,20,50.5,16,78.4
	c-2.3,16.9-8.7,32.3-22.3,43.5c-12.8,10.4-27.1,12.5-42.6,6.6c-0.8-0.4-1.8-1.3-2.5-0.1s0.5,1.5,1,2.1c6.8,8.8,11.7,18.7,16.8,28.3
	c2.9,5.5,6.5,10.6,9.9,15.8c3.6,5.4,9.3,8.3,14.7,11.5c6.9,4.3,11.4,10.3,14.4,17.7c1.5,3.6,2.7,7.3,3.6,11c0.6,2.4,1.6,2.5,3.8,2
	c10.3-2.5,20.7-4.8,31.3-4.3c11.2,0.5,22.1,3.5,32.1,8.6c5.9,3,8.8,8.6,10.3,14.9c0.2,0.4,0.2,0.9,0.1,1.4c-2.8,4.6,0.8,6.1,3.8,8
	c7.4,4.8,9.4,15.5,7.4,23.7c-0.5,1.9-1.2,3.7-2.3,5.4c-6,9.9-15.2,13.2-25.7,14.3c-5.6,0.6-5.8,0.4-4.4,5.9
	c1.5,6.3-0.2,11.9-4.1,16.8c-6.4,7.9-13.7,14.4-23.9,16.8c-1.1,0.1-2,0.8-2.5,1.8c-8.4,15.9-20.9,29.2-36.3,38.5
	c-7.4,4.6-15.2,8.6-23.3,12c-3.5,1.5-7.2,2.6-11,3.3c-14.9,3-29.9,4.1-45.1,1.6C482.2,667.4,472.1,665.1,462.7,660.7z"/>
<path class="st4" d="M595.8,217.9c5.6,10.9,11.2,21.8,16.2,32.8c4.4,9.4,8.6,18.8,12.8,28.2c3.6,8.1,7.3,16.4,10.8,24.7
	c6.1,14.3,11.7,28.8,17.2,43.5c1.2,3.5,3,4,6.3,2c5.3-3.1,10-7.1,13.9-11.8c13.5-17,20.8-36.2,20-54.5c-0.5-19.5-5-41.6-10.8-56.1
	c-3.9-9.9-8.4-19.6-15.5-27.7c-9.5-11.1-20.8-20.5-33.4-28c-13.7-8.3-30.1-11.1-45.7-7.8c-6.6,1.2-9.7,6.1-12.8,11.1
	c-0.9,1.4-0.2,2.8,0.4,4.1C582,191.6,589,204.7,595.8,217.9z M603.7,202.6c14.2,8.9,25.3,20.9,34.6,34.5c5,7.4,8.2,15.9,11,24.4
	c4.5,12.7,6.9,26,7.2,39.5c0,4,0.4,8-1.4,12.3c-1.6-1.9-1.4-3.8-1.4-5.4c0.1-19.5-4.6-38-11.9-55.9c-5.1-12.4-13.2-22.9-22.7-32.6
	c-7.1-7.1-14.5-14-24.4-19.3C598.9,198.7,601.3,201.1,603.7,202.6L603.7,202.6z M204.2,379.2c1.5-16,4-31.8,6.3-47.7
	c1.8-12.4,3.6-24.8,5.8-37.2c2.9-17,4.9-34.2,7.4-51.2c0.1-1.5,0.4-3-0.6-4.5c-5.6-8.3-13.1-13.9-22.9-16
	c-10.8-2.4-21.2-0.2-31.3,3.5c-7,2.5-13,6.6-19.2,10.4c-12.9,7.9-22.9,19.8-28.4,33.8c-5.8,14.8-7.4,30.5-7.8,46.2
	c-0.8,12.4,2.6,24.3,6,36c3.8,13.1,7.8,26.3,15.8,37.6c9,12.8,19.2,24.6,35.1,29.3c6.5,1.9,12.9,3.9,19.8,3.3
	c4.1-0.4,9.6-4.4,10-7.8C201.6,403,203.2,391.1,204.2,379.2z M168.4,346.1c4,15,11.1,28.3,23.2,38.6c0.4,0.3,0.7,0.6,1,1
	c0.8,0.6,1.9,1.1,0.9,2.2c-0.8,0.9-1.8,0.4-2.5-0.2c-3.6-2.9-7.4-5.8-10.4-9.4c-12.7-14.7-18.2-32.1-19.4-51.1
	c-0.8-12.4,1.8-24.8,7.6-35.7c3.8-7.3,7.9-14.3,13.8-20c3.3-3.2,7.5-5.4,12-6.4c-0.8,2-2.3,3.6-4.3,4.5c-5.3,3.3-8.6,8.4-12.1,13.4
	C164.5,302.4,162.4,323.6,168.4,346.1L168.4,346.1z"/>
<path class="st5" d="M795.5,779.1c-0.4-4.9-0.1-10-1.3-14.8c-3.1-14.2-5.8-28.6-11.5-42.2c-3.6-8.6-7.5-17-13-24.7
	c-1.9-2.8-4.1-3.4-7.4-2.8c-3.8,0.6-7.5,1.7-10.9,3.5c-13.3,7.4-25.8,15.9-36.1,27.6c-8.3,9.5-15,20-22.5,30.2
	c-3.9,5.3-7.8,10.4-14.5,12.2c-1,0.4-1.8,1.1-2.2,2.1c-10,16-15.7,33-10.3,52c0.6,2.4,1.6,3.8,4.4,3.6c6.1-0.1,12.3,0.2,18.4-0.1
	c14.7-1,29.3-2.8,43.8-5.3c15.8-2.8,31.2-6.6,46.6-10.8c9.5-2.6,17.8-12.4,16.5-23.1C795.2,784.1,795.5,781.6,795.5,779.1z
	 M589.9,771.6c4.3-19.2,10.9-37.2,21.5-53.8c7.1-11.2,15.7-21,23.8-31.5c12.2-15.7,27.7-28.7,45.2-38.1c0.8-0.4,2.2-0.4,1.9-1.8
	c-0.2-0.9-1.4-0.8-2.1-1c-13.3-3.1-26.9-3.9-40.5-2.5c-1.8,0-3.5,0.8-4.6,2.1c-13,13.9-27.4,26.4-43.1,37.2
	c-29.8,20.5-63,35.6-98,44.6c-2.1,0.5-2.8,1.8-2.6,3.6v11.5c0.8,17.8,4.8,35,10.1,51.9c2.1,6.9,4.8,13.4,12.4,15.9
	c6.3,2.1,12.7,3.7,19.3,4.6c9.7,1.5,19.4,2.6,29.2,3.8c6.8,0.9,13.7,1.4,20.4,2c1.9,0.1,3.3,0,3-2.6
	C584.6,802,586.5,786.8,589.9,771.6z M397.2,737.3c-8.8-0.9-17.7-1.2-26.4-2.8c-11.4-1.9-22.7-3.6-33.8-6.6
	c-12.9-3.5-25.5-7.7-37.8-12.7c-9.8-3.9-19.2-8.7-28.1-14.4c-10.7-7.1-20.3-15.8-28.4-25.7c-1.1-1.4-2.9-2.2-4.7-2.1
	c-8.5,0.1-17,1.5-25.1,4.4c-3.2,1-6.8,1.4-10.1,3.8c6.7,2.5,13.2,5.6,19.3,9.3c7.6,4.6,15.4,9.2,22,15.2c10.9,9.8,21,20.2,31,31
	c10.8,12,19.7,25.7,26.3,40.5c3.9,8.5,7.1,17.3,9.7,26.3c3.3,11.5,5.8,23.3,6.1,35.3c0.2,4.9,0.8,5.4,5.5,4.3
	c11.3-2.8,22.8-4.5,34-7.6c8.6-2.4,17.3-4.3,25.6-7.3c8.6-3,14.5-7.9,16.3-17.8s3.5-20,4.4-30.2c1.1-12.9,0.7-26-1.1-38.8
	C401.2,738.5,399.9,737.5,397.2,737.3z M226.1,807.6c-2.3-3.4-4.8-6.6-9.3-7.3c-1.6-0.4-3.2-1.2-4.5-2.3c-5.3-3.5-9.3-8.6-13.3-13.4
	c-13-15.5-26.8-30-45.5-39c-7.4-3.6-14.5-7.3-22.8-8.5c-5.6-0.8-6.9-0.4-9.5,4.5c-7,12.4-10.9,25.9-13.3,39.7
	c-2.9,16.7-4.4,33.5-2.8,50.5c0.9,8.8,5.6,13.9,11.7,18.8c1.8,1.5,4,3,6.3,3.1c4.8,0,9.2,1.4,13.8,2.1c8.7,1.5,17.5,2.4,26.3,2.6
	c12.9,0.5,25.8,1.8,39.7,1.3c9.3,0.3,18.5-0.3,27.7-1.8c7.5-1,7.6-1.2,7.9-8.9c0.2-4.3,1.5-8.4,0.5-12.5
	C236.6,826.2,232.2,816.3,226.1,807.6z"/>
<path class="st6" d="M691.9,689.4C673.3,703,656.6,719,642.2,737c-6,7.8-5,15.3,1.6,21.3s15.2,6.8,20.8,7.7
	c11.5,0.2,18.4-3,23.8-10.5c6.3-9,12.2-18.3,19.3-26.8c14.4-17.2,31-31.1,53-37.1c2.4-0.6,2.6-1.3,1.2-3.3
	c-6.2-9.1-15.3-15.8-25.8-19.2c-2.8-0.9-5.4-1.1-8.2,0.6s-5.9,2.6-8.9,4C709.6,678,700.4,683.2,691.9,689.4z M671.6,405.7
	c3.4,13.1,6.6,26.3,9.4,39.6c0.4,1.9,0.8,3,3,1.5c4.6-3.2,9.7-5.7,15-7.5c10.4-3.6,20.9-6.3,32-2.9c5,1.5,9.7,3.7,14,6.5
	c-1.1,1.5-2.1,0.9-2.9,0.6c-3.9-1.3-7.8-2.5-11.7-3.6c-4.8-1.5-6-1.1-8.1,3.1c-4.1,8.4-8.1,16.9-11.8,25.4
	c-4.5,10.9-11.5,19.9-19.9,27.8c-1.6,1.2-2.5,3.2-2.3,5.3c0.2,12,0.8,24.2-0.9,36.3c-2,15.5-6.2,30.6-12.3,45
	c-1.8,4.3-1.6,7.4,1.4,11c6.8,8,11.4,16.8,11.2,27.9c-0.2,11.4,11.4,18.4,22.2,14.4c1-0.4,2.4-0.5,2.5-1.9c0-1-1.1-1.5-1.9-2
	c-3.9-2.4-5.6-5.9-6.6-10.3c-1.4-6-3.8-11.9-8.3-16c-8.3-7.5-11.3-17.5-15.3-28.4c3.4,2.4,5.9,5.8,7.3,9.8c1.6,4.4,3.5,8.7,7.1,11.9
	c6.6,6.1,10.5,14,12.9,22.4c0.8,3.9,3.5,7.2,7.1,8.8c8.4,4.3,22,2.5,26.1-8.7c0.6-1.9,0.6-3.1-1-4.8c-9.5-9.6-20.2-17.7-32-24.2
	c-1.5-0.9-3.1-1.9-3.9-3.5c-2-4.3-4.3-8.4-6.9-12.3c-0.5-0.6-1.2-1.8-0.2-2.5c0.6-0.5,1.5,0.2,2.3,0.8c3.3,2.4,5,6,6.8,9.5
	c1,2.3,2.8,4.3,5,5.5c7.9,4,14.8,9.4,21.7,14.8c5.5,4.4,9.9,10,16.3,13.5c3.6,2.1,7.8,2.9,12,2.4c9.2-1.1,12.9-7.6,15.2-15.3
	c2-6.5-0.6-11.7-6.3-15.3c-3.9-2.6-8.4-3.5-12.7-3.8c-8.9-0.8-19-8.4-20.9-19c-2.5-14.2-14.2-23.7-28.3-25.7
	c-4.8-0.6-5.1-1.5-2.5-5.6c10.4-15.3,24.6-26.8,38.2-38.7c7.8-6.8,14.3-14.4,17.8-24.3c4.1-12,5-24.4,4-37
	c-0.8-9.6-3.8-18.5-10.3-26.1c-10.3-11.9-24.3-15.5-38.8-16.9c-15-1.5-30.2-0.1-45.4-0.2c-2.3,0-2.8,0.9-2.1,2.9
	C669.8,399.3,670.7,402.5,671.6,405.7z M671.2,772.4c0.5-0.8,1.6-1.5,1-2.4s-1.8-0.5-2.6-0.5c-6.5,0.8-12.7-1.1-18.7-3.1
	c-7.7-2.4-13.4-6.8-15.7-14.8c-0.5-1.8-1.5-1.8-2.5-0.2c-0.5,0.8-1,1.5-1.5,2.4c-8,13.8-11.8,28.7-11.5,46
	c-0.8,6.1,1.2,13.2,2.5,20.4c0.2,2,1.3,3,3.4,3.2c10.5,1.5,21.2,1.3,31.7,2.3c5.4,0.5,5.5,0,4.1-5.4
	C657.2,802.8,661.8,787.1,671.2,772.4z M615.7,793.2c0.3-10.7,2.7-21.3,6.9-31.2c7.1-16.3,17.8-30.2,30-43.1
	c13-13.7,27.1-26.4,43.1-36.6c9.2-6.1,19.1-11,29.6-14.5c3-1,3.3-2.1,0.9-4.1c-8.5-7.3-17.8-13-28.8-15.5c-3-0.6-6.3-1.6-9.3-0.1
	c-12.4,6.5-24,14.5-34.3,23.9c-9.3,8.4-16.4,18.7-24.4,28.3c-12.9,15.5-23.4,32.6-30,51.9c-6.3,18.3-9.6,37.5-9.9,56.9
	c0,2.6,0.1,5.3,0,7.9c-0.2,2.9,1.1,4.1,3.9,4.3c6.8,0.2,13.4,0.8,20.2,1.1c6,0.2,5.9,0.1,4.3-5.5C615.4,809,615.3,801,615.7,793.2z
	 M491.6,361.4c9.9,0,37.2-5.9,46.2-9.9c12-5.4,23.9-10.9,35.3-17.5c12.4-7,12.5-6.9,9.5-19.4c-1.6-6.8-4-13.3-7.3-19.5
	c-1-2-1.9-2.5-4-0.8c-7,6.3-15.3,10.6-23.6,14.9c-2,1-2.9,1.8-1.9,4c3.5,9.1,1,18.2-5.9,25.1c-9.9,10-34.1,7-39.3-8.4
	c-1.4-4-3.4-5-7.4-4.4c-4.6,0.6-9.3,0.9-14,0.8c-2.8-0.1-3.8,0.6-3.5,3.6c0.6,7.8,2.5,15.3,4.6,22.8
	C482.9,361.5,482.9,361.5,491.6,361.4z M412.2,394.6c15.6-5.2,30.7-11.9,45-20c1.6-0.9,3-1.8,3-4c-0.3-12.5-2.5-24.9-6.5-36.7
	c-0.6-1.5-1.1-2.4-2.8-1c-6.8,4.7-14.1,8.6-21.8,11.6c-6.4,2.6-8.3,6-7.4,12.9c1.1,9.3-2.9,17-11.4,21.5s-17.4,3.6-26.1-1
	c-6-3.4-9-9.1-12.2-14.7c-0.6-1.4-2.1-2.3-3.6-2.1c-4.9-0.1-9.8,0.2-14.7-0.8c-4.4-0.9-4.9-0.1-4,4.1c1.6,8.7,4.2,17.3,7.8,25.4
	c4.9,10.9,3.8,11.6,18.3,11.8C388.3,401,400.5,398.6,412.2,394.6z M282.3,832.1c0-1.4-0.2-2.6-0.4-4c-1.4-17.3-6.5-33.3-17.3-47.2
	c-0.6-0.8-1.1-2.1-2.4-1.8c-1,0.2-0.9,1.6-1.1,2.5c-1,5-4.1,9.3-8.4,12c-7,4.1-14.4,7.6-22.8,8.1c-1.3,0.1-3-0.6-3.6,0.8
	s1.4,1.9,2,2.8c6.8,8.5,11.6,18.5,13.7,29.2c1.2,6.1,0.8,12.2,0.4,18.3c-0.1,1.6,0.1,3,2,3c3.8,0.1,7.6,0.9,11.1-0.1
	c7.4-2,14.8-3.2,22.2-4.6c1.9-0.4,3-1.1,3.1-2.9c0.2-4.1,2.1-8,1.4-11.3C282.3,834.8,282.4,833.4,282.3,832.1z M301.1,786.3
	c-5.3-12.4-11.4-24.3-19.4-35.2c-7.8-10.5-17.3-19.5-26.2-29.1c-14.9-16.1-33.1-28.9-53.4-37.5c-3.8-1.6-7.1-2.9-11.4-1.1
	c-2.3,0.9-4.6,1.9-6.9,2.8c-9.1,3.4-16,9.9-22.6,16.8c-1.4,1.4-1.5,2.6,1,3.1c23.4,5.5,43.9,17,62.9,31.3
	c17.2,12.8,33.1,26.9,45.2,44.7c8.4,12.3,13.7,25.7,14.9,40.6c0.6,7.4,1.5,14.7-0.2,21.8c-0.4,2.8,0.4,4.4,3.5,3.9
	c7.3-1.4,14.4-3.1,21.9-3.4c2.4-0.1,3.6-1.5,3.4-4.1c-1-8.9-1.5-17.9-3.9-26.6C307.2,804.9,304.9,795.3,301.1,786.3z M130,733.8
	c17.7,2.1,32.2,11.2,45.9,21.6c12.5,9.4,22.1,21.7,32.1,33.5c5.3,6.3,11.4,10.2,18.5,9.3c9,0.4,15.9-2.8,22.3-6.5
	c10.5-6,11.9-16.8,3.4-25.4c-17.8-18.5-38.6-33.9-61.4-45.6c-10.2-5.1-20.8-9.2-31.8-12.3c-1.4-0.5-2.9-0.5-4.3,0
	c-12,3.8-20.2,12-26.3,22.6C127.5,732.5,127.5,733.5,130,733.8z M198.6,666.1c2.5-7.5,3.8-15.2,6.1-22.5
	c3.5-10.9,10.4-20.2,15.5-30.3c4.6-9.4,5.6-19.2,0.4-28.7c-4.6-8.5-12.8-10.9-21.7-12.2c-10.7-1.3-21.3-3.1-31.8-5.6
	c-10.8-2.7-21.9-3.9-33-3.5c-1.4,0.1-2.8,0.5-4,1.4c-3.1,1.8-6,4.4-9.9,5.8c0.9-2.6,1-2.5,2.1-3.8c5.1-5.9,11.9-9.7,18.8-12.9
	c7.5-3.6,14.5-8.3,22.7-10.8c10.6-3.3,21.4-5.1,32.7-4.3c3,0.2,5.1-1,7.1-3.3c8.9-10.7,14.7-23.5,16.9-37.2c1.5-9.1,1.8-18-1.6-26.9
	c-2.8-7-6.4-13.6-10.5-19.9c-3.9-6.1-8.3-9-15.4-2c-0.8,0.8-1.4,1.4-2.1,2c-13.7,13-26.6,26.8-39.1,41.2
	c-13.2,15.1-27.4,29.5-42.3,42.9c-8.7,7.5-16.9,15.7-26.3,22.3c-5.6,3.9-10.9,8.4-12.9,15.4c-3.9,13.3-1.8,22.4,13.9,27.1
	c12.2,3.5,24.6,3,36.7,1c23-4,46.7-0.5,67.5,10c1.6,0.9,3.1,1.9,4.6,2.8c0.8,0.4,1,1.4,0.6,2.2c-0.1,0.1-0.1,0.2-0.2,0.3
	c-1.1,1.5-1.5,0-2-0.6c-1.4-1.4-3.4-1.9-5.1-2.4c-2-0.5-4.9-0.5-6-1.4c-4.9-3.9-11.2-3.8-16.7-5.8c-3.1-1.2-5.4-0.1-7,3
	c-2.4,4.9-6.4,7.8-11.8,9.2c-4.4,1.1-9.3,1.5-12.5,5.6c-2.8,3.4-3.8,8-1.8,10.9c2.3,3.1,7.1,4.3,11.1,2.2
	c7.9-3.6,13.7-9.1,15.3-18.2c0.6-3.2,2.5-5.9,4.3-8.6c0.5-0.9,1.4-2,2.5-1.2s0.2,1.8-0.1,2.6c-2,3.6-3.3,7.5-3.9,11.5
	c-0.5,2-1.5,3.8-2.8,5.4c-4.3,6-10.4,10.4-17.4,12.7c-5.3,1.8-10.8,3.4-12.5,10c-1.5,5.5,0,12.4,4,15.5c1.1,0.9,3,2.5,3.8,0.2
	c2.1-5.8,6.5-8.9,11.6-11.2c8.4-3.8,14.5-9.9,17.2-18.7c2.3-6.9,6.8-11.8,11.6-16.5c0.5-0.5,0.9-1.5,2-0.9c0.2,1.8-1,2.8-1.9,3.8
	c-3.8,4.6-6.9,9.8-9,15.4c-3,8-8,14.9-16.5,18.4c-2.4,1.1-4.7,2.4-6.9,3.9c-3.8,2.4-5.5,6.4-4.6,9.6c2.1,7.5,10.9,14.7,20.8,12.4
	c3.3-0.8,3.5-1.6,1.6-4.1c-4.8-6.6-4.3-11.2,1.8-16.7c1.3-1.2,2.8-2.4,4.3-3.4c6.6-4.6,11.7-10.5,14-18.5c2-7.3,4.4-14.4,11.6-19.8
	c-4.3,7.5-6.4,14.9-8.8,22.3c-2.1,6.4-6.2,12-11.6,16c-2.6,2-5.3,4-7.9,6.1c-2.6,2.4-3.6,5.4-2.1,8.8c2.6,5.5,7,9.3,13,9.3
	C186.4,683.5,194.8,677.8,198.6,666.1z"/>
<path d="M641.8,252c7.3,17.9,12,36.3,11.9,55.9c0,1.6-0.2,3.5,1.4,5.4c1.8-4.3,1.4-8.3,1.4-12.3c-0.2-13.5-2.7-26.8-7.1-39.5
	c-2.9-8.5-6-17-11-24.4c-9.3-13.5-20.4-25.6-34.6-34.5c-2.4-1.5-4.8-3.9-9-2.5c9.9,5.3,17.3,12.1,24.4,19.3
	C628.6,229.1,636.6,239.6,641.8,252z M583.9,525.5c6.3-3.5,13.2-5,20.2-6c9.9-1.4,19.7-2.4,29.7-0.4c6.6,1.4,13.2,2.4,19.4,4.9
	c1.5,0.5,3.5,1.1,3.1-1.6c-0.9-6.8-3.8-12.6-10.3-15.4c-10.4-4.5-20.9-8.6-32.7-7.4c-9-0.9-17.7,1.9-26.4,3.8
	c-1.4,0.2-3.6,0.1-3.1,2.9c1,6-0.1,11.9-1.8,17.7c-0.1,0.8-0.4,1.5,0.2,2S583.4,525.8,583.9,525.5z M619.1,561
	c-14.5-8.2-30.9-12.3-47.5-11.9c-6.1-0.4-11.8,0.1-15.3,6c-0.3,0.4-0.7,0.7-1.1,1c-4.1,3.5-4.1,3.5,0.4,6.1
	c11.6,6.8,21.3,16.5,28.1,28.2c2,3.3,3.2,7,3.5,10.8c0.2,5.4,1,6.3,6.3,7.4c1.7,0.5,3.5,0.8,5.3,1c14.9,0.4,25.9-6.5,34.1-18.5
	c3.9-5.8,3.3-12.2-0.2-18C629.2,567.7,624.3,564,619.1,561z M592,525.6c-4.6,1.2-9.9,2.2-12.9,5.8c-4.1,4.9-7.4,10.4-14,12.2
	c-0.9,0.3-1.4,1.1-1.3,2c0.1,1.1,1.3,0.8,2,0.6c11.9-2.4,23.4,0.1,34.8,3.1s21.9,7.3,30.2,15.8c3.8,4,7.5,5,12.5,3.8
	c7.5-1.9,14.8-3.1,20.2-9.8c5.9-7.3,6-22.5-4.3-27.8c-11.7-6-23.9-8.4-36.6-9.4C612.3,521.5,602,522.8,592,525.6z M464.6,232.8
	c4.9,5.8,10.8,10.4,18.8,10.8c11.8,0.8,22.8-2.4,33.3-7c1.4-0.6,2.6-1.2,4-1.9c13.3-6.2,24.3-15.6,33.5-27.2c5-5.8,7.8-13.1,8-20.7
	c0.1-5.3-1.6-9.8-4.4-14c-0.9-1.3-1.8-2.6-2.9-3.9c-3.3-3.8-7-3.9-11.2-2.1c-3.1,1.2-6,2.8-8.8,4.6c-7.8,5.4-15.4,11.1-23,16.5
	c-10.1,7-21.5,11.4-32.6,16.8c-5.6,2.8-11.8,4.8-16.8,8.8c-3.1,2.5-4.5,5.6-3.6,9.8S462.2,229.9,464.6,232.8z M538,631
	c4.6,4.4,9.5,8.4,16.7,6.9l6-1.5c14.7-3.1,23.4-14.4,22.7-30.8c0.8-6.4-2.5-12.9-7-19.5c-6.3-8.8-14.2-15.5-22.8-21.7
	c-2.4-1.8-5.1-2.5-8-0.5c-5.8,4.1-12.4,6.6-19,8.9c-2,0.6-2.4,1.4-1.2,3.1c1.2,1.7,2.2,3.6,3,5.6c5.1,15,8.9,30.3,9.1,46.4
	C537.4,629,537.1,630.1,538,631z M519,574.9c-6.7,1.9-13.5,1-20.3,0.9c-2.1-0.2-4,0.9-4.8,2.9c-5,8.8-7.8,18.3-10.3,27.9
	c-3.3,13.3-6,26.4,1.4,39.7c3.3,5.5,7.6,9,13.3,9.8c10.6,1.5,19.7-2.9,27.3-10c6.6-6.3,8.3-14.4,7.9-23c-1.2-15.8-4-31.1-9.9-45.9
	C522.7,574.9,521.1,574.4,519,574.9z M476.9,639.9c0.8-1,0.6-2.2,0.5-3.5c-1.4-9-0.1-17.9,1.8-26.7c2.4-11.3,6.1-22.2,11.1-32.6
	c1-2.3,0.5-2.8-1.8-3.3c-5.8-1.6-11.8-2.3-17.2-5c-1.2-0.6-1.8,0.2-2.4,1c-1.9,2.4-3.6,4.8-5.5,7c-4.8,5.8-9.4,11.4-13.5,17.5
	c-6.1,9.3-14,17.4-16.4,28.8c-1.1,5.8-4,11-4.1,17c-0.1,6.8,3.9,13.4,9.9,15.2c4.3,1.3,8.7,1.9,13.2,1.8
	C464.3,656.8,470.7,648.6,476.9,639.9z M449.9,588.4c4.4-6.3,9.4-12,14.2-18c-0.1-0.2-0.1-0.6-0.2-0.9c-7.4,1.1-14.7,0.6-21.5-2.5
	c-1-0.5-1.8,0.2-2.6,0.8c-9.4,6.3-18.8,12.5-26.6,20.9c-9.5,10.3-17.2,21.5-19.8,35.6c-2.9,15.3,7.1,25.8,22.3,22.9
	c0.2,0,0.4,0,0.6-0.1c5.5-1.5,9.5-4.8,10.4-10.9c1.4-8.7,4.1-17.2,8-25.2C438.5,602.7,444.6,595.8,449.9,588.4z M418.1,578.8
	c4.8-4.5,10.1-8.4,15.8-11.7c1-0.6,3.2-1.9,1.6-2.9c-3.4-2.1-6.1-5.9-10.9-5.4c-8.5,0.8-16.2,4.3-23.5,8.2
	c-8.4,4.4-15.4,10.8-21.7,17.7c-4.6,5-8.1,11-7.9,18.2c-0.9,7.8,5.3,15.5,10.4,17c4.8,1.4,8.8,0.1,9.9-3.6
	C396.5,601,406.4,589.2,418.1,578.8z M537.4,667.5c3.8-0.7,7.5-1.8,11-3.3c8.1-3.4,15.9-7.4,23.3-12c15.4-9.3,28-22.6,36.3-38.5
	c0.5-1,1.4-1.6,2.5-1.8c10.3-2.4,17.5-8.9,23.9-16.8c3.9-4.9,5.6-10.5,4.1-16.8c-1.4-5.5-1.2-5.3,4.4-5.9
	c10.5-1.1,19.7-4.4,25.7-14.3c1-1.7,1.8-3.5,2.3-5.4c2-8.2,0-18.9-7.4-23.7c-3-1.9-6.5-3.4-3.8-8c0.1-0.5,0-0.9-0.1-1.4
	c-1.5-6.3-4.4-11.9-10.3-14.9c-9.9-5.2-20.9-8.1-32.1-8.6c-10.7-0.5-21,1.8-31.3,4.3c-2.1,0.5-3.1,0.4-3.8-2c-1-3.7-2.2-7.4-3.6-11
	c-3-7.4-7.5-13.4-14.4-17.7c-5.4-3.2-11-6.1-14.7-11.5c-3.4-5.1-7-10.3-9.9-15.8c-5.1-9.6-10-19.5-16.8-28.3c-0.5-0.6-1.6-1.1-1-2.1
	s1.8-0.2,2.5,0.1c15.5,5.9,29.8,3.8,42.6-6.6c13.7-11.2,20-26.6,22.4-43.5c4-28-1-54.4-16-78.4c-9.3-15-21.4-26.8-38.7-32.6
	c-5.2-1.6-10.6-2.2-16-1.5c-10,1-20.2,5.5-26.7,12.4c-10,10.6-15.8,23.2-18.3,37.3c-5.3,29.8,0.5,57.6,16.5,83.3
	c1.9,2.9,3.9,5.6,6.3,9.1c-7.4-1.5-13.3-5.3-20.4-4.1s-11.3,6.5-16,11.8c0.2-4.3,1.9-7.4,2.2-10.9c3.3-23,0.5-45.5-9.3-66.8
	c-8-17.5-19-32.1-36-41.3c-19.8-10.6-40.7-6.8-55.3,10.3c-11.8,13.9-16.2,30.6-17.2,48.2c-1.1,19.5,2.8,39,11.4,56.6
	c7.9,16.4,18.6,30.2,35,39.2c19,10.6,41.4,6.6,55.5-10.4c0.8-1,1.2-2.3,3.1-2.5c-1.4,6.1-3.2,12.1-5.4,17.9
	c-3.3,10.2-7.7,19.9-13,29.2c-7.8,12.8-15.4,25.7-20.2,40c-1.8,5.5-3.4,10.9-1.8,16.9c2.5,9.7,5,19.2,11.9,27.1c0.9,1,2,2.4-0.8,2.9
	c-12.6,2.6-24.4,8.4-34,17c-6.4,5.6-12.5,11.4-16.3,19.3c-4.1,8.7-2.9,20.2,3.5,26.9c3.4,3.6,7.8,5.9,12.9,4.1c2.9-0.9,3.4,0,3,2.6
	c-0.7,6.5,1,13.1,4.8,18.4c1.9,2.9,3.9,5.5,7.4,6.4c8.9,2.3,17.2,1.1,24.4-5.5c0.9,2.1,1.8,3.8,2.5,5.5c1.6,3.6,4.1,6.4,7.8,7.6
	c6.6,2.4,13.6,3.1,20.5,2c1.9-0.5,3.8-0.3,5.6,0.4c9.4,4.4,19.5,6.7,29.6,8.4C507.4,671.6,522.5,670.5,537.4,667.5z M632.7,591
	c-8.2,12-19.2,18.9-34.1,18.5c-1.8-0.2-3.5-0.5-5.3-1c-5.3-1.1-6-2-6.3-7.4c-0.3-3.8-1.5-7.5-3.5-10.8
	c-6.8-11.7-16.4-21.4-28.1-28.2c-4.5-2.6-4.5-2.6-0.4-6.1c0.4-0.3,0.8-0.6,1.1-1c3.5-5.9,9.1-6.4,15.3-6c16.6-0.4,33,3.7,47.5,11.9
	c5.3,3,10.2,6.8,13.4,12C636,578.9,636.6,585.3,632.7,591z M528.2,581.5c-0.8-2-1.8-3.9-3-5.6c-1.1-1.8-0.8-2.5,1.2-3.1
	c6.6-2.2,13.3-4.8,19-8.9c2.9-2,5.6-1.3,8,0.5c8.6,6.1,16.5,12.9,22.8,21.7c4.5,6.7,7.8,13.2,7,19.5c0.8,16.4-8,27.7-22.7,30.8
	l-6,1.5c-7.2,1.5-12-2.5-16.7-6.9c-0.9-0.9-0.6-2-0.6-3.1C537.1,611.8,533.4,596.6,528.2,581.5L528.2,581.5z M533.5,623
	c0.4,8.6-1.2,16.8-7.9,23c-7.7,7.2-16.7,11.5-27.3,10c-5.6-0.8-10-4.3-13.3-9.8c-7.4-13.3-4.6-26.4-1.4-39.7
	c2.5-9.6,5.3-19.2,10.3-27.9c0.7-1.9,2.7-3.1,4.8-2.9c6.8,0.1,13.7,1,20.3-0.9c2.1-0.5,3.8,0,4.6,2.3
	C529.5,591.9,532.2,607.2,533.5,623z M659.3,531.3c10.3,5.3,10.2,20.5,4.3,27.8c-5.4,6.7-12.7,7.9-20.2,9.8c-5,1.2-8.8,0.2-12.5-3.8
	c-8.3-8.5-18.9-12.9-30.2-15.8s-22.9-5.5-34.8-3.1c-0.8,0.1-1.9,0.5-2-0.6c-0.1-0.9,0.4-1.7,1.3-2c6.6-1.8,9.9-7.3,14-12.2
	c3-3.5,8.3-4.5,12.9-5.8c10-2.9,20.3-4.2,30.7-3.8C635.4,522.9,647.6,525.3,659.3,531.3z M582,523.9c1.6-5.8,2.8-11.7,1.8-17.7
	c-0.5-2.8,1.8-2.6,3.1-2.9c8.8-1.9,17.4-4.6,26.4-3.8c11.8-1.3,22.3,2.9,32.7,7.4c6.5,2.8,9.4,8.6,10.3,15.4
	c0.4,2.8-1.6,2.1-3.1,1.6c-6.3-2.5-12.8-3.5-19.4-4.9c-10-2-19.8-1-29.7,0.4c-7,1-13.9,2.5-20.2,6c-0.5,0.2-1.1,0.9-1.6,0.4
	S581.9,524.6,582,523.9z M475.4,314.9c0.9-15.8,4.5-30.8,13.9-44c13.7-19.2,35.7-23.4,56-11.1c11,6.8,19,16.2,25.8,26.9
	c1.1,1.9,0.8,2.9-1,4.1c-12.8,9.7-27.1,17.3-42.3,22.6c-14.1,5.1-28.9,8-43.9,8.8h-1.4C474.2,322.1,474.9,322.9,475.4,314.9
	L475.4,314.9z M480.5,352.6c-2.1-7.5-4-15-4.6-22.8c-0.2-3,0.8-3.8,3.5-3.6c4.7,0.1,9.4-0.1,14-0.8c4-0.6,6,0.4,7.4,4.4
	c5.3,15.4,29.4,18.4,39.3,8.4c6.9-6.9,9.4-15.9,5.9-25.1c-1-2.3-0.1-3,1.9-4c8.3-4.3,16.5-8.6,23.6-14.9c2.1-1.8,3-1.3,4,0.8
	c3.2,6.2,5.7,12.8,7.3,19.5c3,12.5,2.9,12.4-9.5,19.4c-11.4,6.6-23.3,12.1-35.3,17.5c-9,4-36.3,9.9-46.2,9.9
	C482.9,361.5,482.9,361.5,480.5,352.6L480.5,352.6z M486.5,368.3c-1-2-0.2-2.5,1.8-2.6c23.2-0.8,45.1-7,65.9-17.2
	c10.3-5.1,20.7-10,29.6-17.5c1.8-1.5,2.4-0.8,2.8,1.2c0.6,4.4,0.9,8.8,0.9,13.3c-0.5,17-4,33.3-13.9,47.6
	c-11.8,16.9-32.3,24.4-53.5,13C504,397.6,494.1,383.9,486.5,368.3L486.5,368.3z M348.3,351.9c0.1-3,0-6,0-9
	c0-15.5,3.5-30.2,11.8-43.6c6.9-11,16.5-18.4,29.7-20.5c10-1.6,18.9,1.5,27.4,6.3c13.3,7.5,22.2,18.9,29.2,32.1
	c1.5,2.8,2.9,5.8,4.3,8.6c1.1,2.2,0.8,4-1.8,5.3c-14.5,7-28.6,15.4-44.2,19.9c-17,4.9-34.3,8.9-52.5,5.4
	C349.4,355.6,348.2,354.6,348.3,351.9z M357.6,389.9c-3.5-8.2-6.1-16.7-7.8-25.4c-0.9-4.3-0.4-5,4-4.1c4.9,1,9.8,0.6,14.7,0.8
	c1.5-0.2,3,0.7,3.6,2.1c3.1,5.5,6.1,11.3,12.2,14.7c8.6,4.6,17.4,5.6,26.1,1s12.5-12.3,11.4-21.5c-0.9-6.9,1-10.3,7.4-12.9
	c7.7-3,15-6.9,21.8-11.6c1.6-1.4,2.1-0.5,2.8,1c4,11.8,6.2,24.2,6.5,36.7c0,2.2-1.4,3.1-3,4c-14.3,8.1-29.4,14.8-45,20
	c-11.7,4-24,6.4-36.3,7.1C361.3,401.6,362.5,400.8,357.6,389.9L357.6,389.9z M440,425.6c-15.3,14.4-32,14.5-49.5,4.6
	c-9.3-5.3-16.5-12.6-22.4-21.4c-0.6-0.9-1.6-1.8-1-2.8s1.8-0.2,2.6-0.2h5.5c12.8-0.7,25.5-3.1,37.6-7.3c15.2-5,29.9-11.6,43.9-19.6
	c1.4-0.8,3.1-2.1,2.9,1C457.7,397.2,452.9,413.5,440,425.6z M420.5,545.3c-8.6-14.3-10.4-28.6-2.9-44.4c6.3-13,14.5-24.8,21-37.6
	c2-4,3.8-8,5.5-12c0.5-1,0.6-2.1,2.8-2.4c-1.5,12.1-1.6,24,3.5,36.2c1-4.1,0.4-7.5-0.1-10.9c-1.6-13.9-0.6-27.8,0.9-41.6
	c0.9-8,3.9-15.9,7.5-23.2c3.4-6.8,7.1-13.6,14.5-17.3c4.5-2.5,9.8-2.8,14.5-0.8c12.3,5,23,13.1,31.3,23.4c5.5,6.7,10,14.1,13.5,22.1
	c4,8.8,9.4,16.9,15,24.8c2.8,3.5,6.4,6.3,10.4,8.3c9.3,4.6,14.9,12,18.3,21.5c3.6,10.3,5.8,20.7,2.1,31.3
	c-2.4,6.6-5.8,12.8-12.9,17.8c3.3-15.4,0.4-28.7-6.4-41.5c1,4,2.2,8,3.1,12c2,8.6,2.9,17.3,0.5,26.1c-1.5,5.7-4.6,10.9-8.9,14.9
	c-10.1,9.9-22.4,16-36.1,19.2c-9.8,2.1-19.5,0.9-29.2-1.2c-13.1-2.8-25.1-7.5-34.3-17.5c-0.3-0.3-0.7-0.6-1.1-0.9
	c-0.1-0.1-0.5,0-1.1-0.1c2.6,4.5,6.1,7.9,9.6,11.2c0.8,0.6,2.1,1,1.8,2.4s-1.8,1-2.8,1.1c-8.5,1.1-16.2-1.6-23.4-5.6
	C430.4,557.1,424.6,551.8,420.5,545.3z M381.9,619.9c-5.1-1.5-11.3-9.3-10.4-17c-0.3-7.1,3.2-13.2,7.9-18.2
	c6.3-6.9,13.3-13.3,21.7-17.7c7.4-3.9,15-7.4,23.5-8.2c4.8-0.5,7.5,3.3,10.9,5.4c1.6,1-0.6,2.3-1.6,2.9c-5.7,3.3-11,7.2-15.8,11.7
	c-11.7,10.4-21.5,22.2-26.3,37.5C390.6,620,386.6,621.2,381.9,619.9z M426.6,636.2c-0.9,6.2-4.9,9.4-10.4,10.9
	c-0.2,0.1-0.4,0.2-0.6,0.1c-15.2,2.9-25.2-7.6-22.3-22.9c2.6-14,10.3-25.3,19.8-35.6c7.8-8.4,17.2-14.7,26.6-20.9
	c0.9-0.5,1.6-1.2,2.6-0.8c6.9,3.1,14.2,3.6,21.5,2.5c0.1,0.3,0.1,0.6,0.2,0.9c-4.8,6-9.8,11.8-14.2,18c-5.3,7.4-11.4,14.3-15.3,22.6
	C430.7,618.9,428,627.4,426.6,636.2L426.6,636.2z M452.4,657.2c-4.5,0.2-8.9-0.4-13.2-1.8c-6-1.8-10-8.4-9.9-15.2
	c0.1-6,3-11.3,4.1-17c2.4-11.4,10.3-19.5,16.4-28.8c4.1-6.1,8.8-11.8,13.5-17.5c1.9-2.3,3.6-4.6,5.5-7c0.6-0.8,1.1-1.6,2.4-1
	c5.4,2.8,11.4,3.4,17.2,5c2.2,0.5,2.8,1,1.8,3.3c-5,10.4-8.8,21.3-11.1,32.6c-1.9,8.8-3.1,17.7-1.8,26.7c0.1,1.2,0.2,2.5-0.5,3.5
	C470.7,648.6,464.3,656.8,452.4,657.2z M479.6,662c-3.6-1.3-7.4-2.1-11-3.5c-2.4-0.9-2.2-1.9-0.5-3.5c3.3-2.9,6.4-6.1,9-9.7
	c1.5-2.2,2.5-2.6,3.9,0.4c1.7,4.4,4.7,8.3,8.6,11c7.9,5,15.9,4.1,23.9,1.4c7.7-2.5,14.4-7.4,18.9-14.2c1.3-1.8,2.3-3.9,2.8-6.1
	c0.4-2.2,1.6-2.9,3.3-1.4c8.3,8.1,17.5,5.5,26.8,2.4c10.5-3.5,17.3-10.7,21.2-20.8c0.7-1.6,1-3.3,0.9-5c0-1.8,0.9-2.6,2.5-1.8
	c4,2.1,8.3,2.1,12.7,2.1c1.9,0,2.6,0.5,1.2,2.5c-9.8,13.3-20.7,25.3-35.1,34c-17.2,10.4-35.5,16.7-55.8,16.7
	C501.7,666,490.4,665.8,479.6,662z M190.3,269.5c1.9-0.9,3.4-2.5,4.3-4.5c-4.5,0.9-8.7,3.2-12,6.4c-5.9,5.8-10,12.8-13.8,20
	c-5.8,11-8.5,23.3-7.6,35.7c1.3,19,6.8,36.5,19.4,51.1c3,3.6,6.8,6.5,10.4,9.4c0.8,0.6,1.8,1.1,2.5,0.2c1-1.1-0.1-1.6-0.9-2.2
	c-0.3-0.4-0.6-0.7-1-1c-12-10.3-19.2-23.6-23.2-38.6c-6-22.4-3.9-43.7,9.8-63.1C181.6,277.9,185,272.8,190.3,269.5z M799,775.4
	c-1.2-11.9-4-23.4-7-35c-2.9-11.2-6.1-22.2-11.8-32.3c-2.9-5.3-5-10.9-9.7-15c-1.9-1.8-3.5-3.8-5-6c-7.5-10.8-17.2-18.5-30.2-21.5
	c-1.9-0.4-3.6-1.3-4.9-2.6c-10.4-9.4-21.9-17-36.3-18.3c-6.1-0.6-12.3-2.1-18.4-3.1c-8.5-1.5-17.2-3.4-26.1-1.9
	c-3,0.5-6.3,0.5-10,0.8c3.6-4.5,6.8-8.4,9.8-12.3c7.7-10.1,14.4-21,20.2-32.3c0.6-1.2,1.4-3.4,2.9-1.1c4.9,6.9,11.5,13,11,22.7
	c0,3,0.3,6,0.9,9c0.7,4.8,3.5,9.1,7.6,11.7c6.6,4,16.4,4.8,21.4,0.5c2.6-2.3,4.9-2.3,8-2c10.7,0.8,19.3-3,22.1-13.9
	c0.5-2.1,1.4-2,3-1c3.5,2.2,7.5,3.3,11.7,3.1c11-0.5,17.9-6.1,21.4-16.5c2.8-7.9,0.2-15.7-6.6-20.3c-4.8-3.1-10-4-15.3-5
	c-9.8-1.9-15.7-7.5-17.8-17.3c-2.8-12.8-10.8-20.8-23-24.8c-2.6-0.9-6.8,0.2-7.4-2.6c-0.5-2.4,2.9-4.6,4.6-6.9
	c8.7-11,19.3-20,30-29.1c9-7.5,16.9-16,20.9-27.3c5-13.8,6-28.1,4-42.6c-2-15.7-10.2-27.4-24.1-35c-12.8-7-26.7-8-40.8-8.3
	c-11-0.4-22.1,0.6-33.1,1.1c-2.8,0.2-4.4-0.5-5-3.2c-0.6-2.4-1.2-4.9-2.1-7.3c-2.5-7.5-5-14.9-7.6-22.4c-0.6-1.9-0.4-2.8,1.8-3.3
	c1.9-0.4,3.6-1.3,5.1-2.5c7.6-5.5,14.1-12.3,19.2-20.2c9.1-13.8,14.2-29.8,14.7-46.4c0.6-17.4-2.9-34.2-7.8-50.8
	c-3.3-10.9-7.5-21.6-14.2-30.9c-9.5-13.3-21.6-24.6-35.5-33.2c-13.4-8.5-27.5-13.4-43.4-12.4c-8.6,0.5-16.7,2.3-21.9,10.3
	c-2.6,4.1-2.9,4-5.4-0.2c-6.9-12.3-13.5-24.6-21.1-36.3c-1.6-2.5-0.2-3.4,1.6-4.4c12.5-7.1,22.8-16.8,31.8-28.1
	c3.8-4.7,5.1-10.9,3.4-16.7c-4.9-18.9-16.9-33-32.1-44.6c-2.5-2-5.9-2.1-8.5-0.2c-3,1.6-6,3.5-8.9,5.4c-6.6,4.3-13.3,8.7-20.8,11.2
	c-2.8,0.9-4.9,1-6.9-1.8c-8.3-10.8-17.5-20.5-29-28.2c-16.8-11.2-36-18.5-56-21.3c-5.4-0.9-10.9-0.9-16.3-2.5H386
	c-4.5,1.4-9.1,1.5-13.8,2.1c-6.9,0.9-13.8,1.5-20.7,2.8c-15.7,2.9-31,7.6-45.6,13.9c-19,8.1-36.5,18.4-51.2,33.2
	c-13.1,13.3-21.9,28.4-24.3,47.2c-1.1,8.5-0.1,8.3-10.1,7.4c-0.5,0-0.9-0.1-1.4-0.2c-4.9-1.9-10.1-2-15-3.4c-2.5-0.7-5.1-0.3-7.3,1
	c-5.3,2.9-8.4,7.6-11.6,12.2c-7.6,11.2-8.5,23.9-9,36.8c0,1.1,0.5,2.1,1.2,2.9c2.3,2.5,4.3,5.1,6.9,7.3c10.8,9,23.6,14,36.5,18.9
	c2.4,0.9,4,1.9,4.6,4.8c1.3,6,1.7,12.2,1.4,18.3c-0.4,9.6-0.1,19.4-2.1,29.3c-3.1-3.5-5.9-7-9.5-9.5c-11.4-8.1-23.8-9-37.1-6.1
	c-10.8,2.2-20.3,7.3-29.3,13c-11.8,7.6-21.6,17-27.9,29.8c-4.6,9.2-7.7,19.1-9,29.3c-2.4,16-3.3,32,0.2,48c2.2,10.6,6,20.9,9.4,31.3
	c6.1,19,17.7,34,33.2,45.7c8.4,6.4,18.5,9.1,28.8,10.6c4.5,0.6,9.4,1,13.5-2c1.6-1.1,2.5-0.6,2.4,1.4l-0.8,13.9
	c-0.2,1.4-1,2.6-2.3,3.1c-10.3,6.5-18.2,15.7-26.7,23.9c-7.5,7.4-13.9,15.5-20.9,23.3c-7.4,8.4-15.4,16.4-23.3,24.4
	c-15,15.4-31.1,29.6-48.2,42.6c-5.3,4-9.3,9-11,15.7c-0.4,1.8-1,3.6-1.6,5.4v10.2c0.8,0.1,0.9,0.8,1.1,1.2c1.5,4.9,5,8,9.3,10.5
	c7.3,4.1,15.3,5.5,23.4,6.1c9.3,0.6,18.4-1.1,27.6-2.3c8.8-1.1,17.7-1.2,26.6-0.2c2.8,0.2,3.3,1.1,1.8,3.6
	c-2.9,4.8-6.8,7.6-12.3,8.4c-4.8,0.8-9.2,3.2-12.5,6.8c-4.9,5.1-4.6,12,1.2,16c2.4,1.6,1.4,2.4-0.4,3.4c-7.2,3.9-7.3,10.5-6.8,17.5
	c0.4,5.6,4,8.9,8.8,11.3c1.5,0.7,2.6,1.9,3.3,3.4c5.5,10.4,14.5,15.8,25.4,11.7c3.4-1.3,5.9-1.9,9,0c0.8,0.4,2,0.4,2.2,1.5
	s-0.9,1.5-1.6,2.1c-5.1,3.8-9.7,8.1-13.8,13c-0.9,0.9-2,1.6-3.3,2c-13.5,5-23.3,14-29.7,27.1c-0.4,1.1-1.1,2.1-1.9,2.9
	c-2.8,2.5-4.3,5.8-5.8,9c-5.6,12.4-9.4,25.4-11.4,38.8c-3.1,19.8-5,39.6-2.4,59.5c0.2,1.5,0.9,3,2,4.1c5.3,5.5,10.8,9.9,19,11
	c11.3,1.5,22.4,4,33.8,4.9c12,0.9,23.9,1.8,36,1.9c10.3,0,20.7,0.4,31-1c10-1.5,20.2-2.1,30.3-3.9c7.1-1.3,14.3-3,21.6-4.1
	c9.1-1.4,18.2-4,27.4-4.9c12.1-1.2,24-4.1,36.1-6.5c13.2-2.6,26.2-5.9,39-9.9c11.3-3.6,20.7-8.1,23.6-22c5.1-23.3,6.1-47.2,3-70.8
	c-0.4-3.1,0.4-3.4,3-3.4c17.3,0.5,34.6-0.7,51.6-3.5c8.4-1.4,16.9-2.5,25.2-4.5c2.5-0.6,4-0.6,3.5,3c-1,7.2-0.9,14.4,0.2,21.5
	c2.1,14.7,5.3,29.3,9.6,43.5c3.5,10.9,10.6,15.9,20.8,18.4c9.5,2.4,19.2,3.1,28.8,4.8s19.4,2.6,29.2,3.4c23.7,2,47.5,3.6,71.2,5.1
	s47.2,1.2,70.8-2.3c16.7-2.5,33.3-5.4,49.6-10c7.6-2.3,15.4-4,22.2-8.4c4.1-2.6,8.8-5.8,8.8-11.2C799.8,789.9,799.6,782.6,799,775.4
	z M736.2,669.1c10.5,3.3,19.6,10.1,25.8,19.2c1.4,2,1.1,2.6-1.2,3.3c-22.1,6-38.6,19.9-53,37.1c-7.1,8.5-13,17.8-19.3,26.8
	c-5.4,7.6-12.2,10.8-23.8,10.6c-5.6-0.9-14.3-1.6-20.8-7.7s-7.6-13.5-1.6-21.3c14.4-18,31-34,49.6-47.6c8.5-6.2,17.7-11.4,27.3-15.7
	c3-1.4,6.1-2.3,8.9-4S733.5,668.2,736.2,669.1z M671,393.2c15.2,0.1,30.3-1.3,45.4,0.2c14.5,1.4,28.6,5,38.8,16.9
	c6.5,7.5,9.5,16.4,10.3,26.1c1,12.5,0.1,24.9-4,37c-3.5,9.9-10,17.5-17.8,24.3c-13.7,11.9-27.9,23.4-38.3,38.7
	c-2.6,4.1-2.2,5,2.5,5.6c14.2,2,25.8,11.5,28.3,25.7c1.9,10.7,12,18.3,20.9,19c4.3,0.2,8.8,1.1,12.7,3.8c5.6,3.6,8.3,8.8,6.3,15.3
	c-2.2,7.7-6,14.2-15.2,15.3c-4.2,0.5-8.4-0.3-12-2.4c-6.4-3.5-10.8-9.2-16.3-13.5c-6.9-5.4-13.8-10.8-21.7-14.8
	c-2.2-1.3-4-3.2-5-5.5c-1.8-3.5-3.5-7.2-6.8-9.5c-0.8-0.5-1.6-1.2-2.3-0.8c-1,0.8-0.2,1.9,0.2,2.5c2.6,3.9,4.9,8,6.9,12.3
	c0.8,1.6,2.4,2.6,3.9,3.5c11.8,6.5,22.5,14.6,32,24.2c1.6,1.6,1.6,2.9,1,4.8c-4,11.2-17.7,12.9-26.1,8.7c-3.6-1.6-6.3-4.9-7.1-8.8
	c-2.4-8.4-6.3-16.3-12.9-22.4c-3.6-3.3-5.5-7.5-7.1-11.9c-1.4-3.9-3.9-7.3-7.3-9.8c4,10.9,7,20.9,15.3,28.4c4.5,4.1,6.9,10,8.3,16
	c1,4.4,2.8,7.9,6.6,10.3c0.8,0.5,1.9,1,1.9,2c-0.1,1.4-1.5,1.5-2.5,1.9c-10.8,4-22.4-3-22.2-14.4c0.2-11.2-4.4-19.9-11.2-27.9
	c-3-3.6-3.1-6.8-1.4-11c6.1-14.4,10.3-29.5,12.3-45c1.6-12.2,1.1-24.3,0.9-36.3c-0.2-2,0.6-4,2.3-5.3c8.4-7.9,15.4-16.9,19.9-27.8
	c3.6-8.5,7.6-17,11.8-25.4c2.1-4.3,3.4-4.6,8.1-3.1c3.9,1.1,7.8,2.4,11.7,3.6c0.8,0.2,1.8,0.9,2.9-0.6c-4.3-2.8-9-5-14-6.5
	c-11-3.4-21.6-0.8-32,2.9c-5.3,1.8-10.4,4.3-15,7.5c-2.3,1.5-2.6,0.4-3-1.5c-2.8-13.3-6-26.4-9.4-39.6c-0.9-3.3-1.8-6.4-2.8-9.6
	C668.2,394.1,668.7,393.2,671,393.2z M685.3,470.1c-0.4-4.1-1.1-8.2-2-12.3c-1-3.8,0.6-6,3.4-7.8c9.3-6.1,19.8-9.9,30.8-11.3
	c1.4-0.1,3-0.2,1.9,1.9c-6.6,12.2-11.4,25.1-18.3,37c-2.9,4.9-6.8,9-10.7,13c-1.6,1.5-2.5,1.4-2.8-0.9
	C686.9,483.3,686.1,476.6,685.3,470.1L685.3,470.1z M574.6,174.4c3.1-5,6.1-9.9,12.8-11.1c15.7-3.3,32-0.6,45.7,7.7
	c12.6,7.5,23.9,16.9,33.5,28c7.1,8.1,11.7,17.8,15.5,27.7c5.8,14.5,10.3,36.6,10.8,56.1c0.8,18.3-6.5,37.5-20,54.5
	c-4,4.7-8.7,8.7-13.9,11.8c-3.3,2-5,1.5-6.3-2c-5.5-14.7-11-29.2-17.2-43.5c-3.5-8.3-7.2-16.5-10.8-24.7
	c-4.1-9.4-8.4-18.8-12.8-28.2c-5-11-10.5-21.9-16.2-32.8c-6.8-13.2-13.8-26.3-20.8-39.4C574.3,177.2,573.7,175.8,574.6,174.4z
	 M190,422.5c-6.9,0.6-13.3-1.4-19.8-3.3c-15.9-4.8-26.1-16.5-35.1-29.3c-8-11.3-12-24.4-15.8-37.6c-3.4-11.7-6.8-23.6-6-36
	c0.4-15.8,2-31.5,7.8-46.2c5.6-14.1,15.5-25.9,28.4-33.8c6.1-3.8,12.1-7.9,19.2-10.4c10.1-3.8,20.6-5.9,31.3-3.5
	c9.8,2.1,17.3,7.8,22.9,16c1,1.5,0.8,3,0.6,4.5c-2.5,17-4.5,34.2-7.4,51.3c-2.1,12.4-4,24.8-5.8,37.2c-2.2,15.9-4.8,31.7-6.3,47.7
	c-1,11.9-2.6,23.8-4.1,35.6C199.7,418.1,194.2,422.1,190,422.5z M162,674.2c-1.5-3.4-0.5-6.4,2.1-8.8c2.6-2.1,5.3-4.1,7.9-6.1
	c5.5-4,9.5-9.6,11.6-16c2.4-7.4,4.5-14.8,8.8-22.3c-7.3,5.4-9.6,12.5-11.6,19.8c-2.4,8-7.4,13.9-14,18.5c-1.5,1-2.9,2.1-4.3,3.4
	c-6,5.5-6.5,10-1.8,16.7c1.9,2.5,1.6,3.4-1.6,4.1c-9.9,2.2-18.7-4.9-20.8-12.4c-0.9-3.2,0.9-7.3,4.6-9.6c2.2-1.5,4.5-2.8,6.9-3.9
	c8.5-3.5,13.5-10.4,16.5-18.4c2.1-5.6,5.2-10.8,9-15.4c0.9-1,2.1-2,1.9-3.8c-1.1-0.6-1.5,0.4-2,0.9c-4.9,4.8-9.4,9.7-11.6,16.5
	c-2.6,8.8-8.8,14.9-17.2,18.7c-5.1,2.2-9.5,5.4-11.6,11.2c-0.8,2.3-2.6,0.6-3.8-0.2c-4-3.1-5.5-10-4-15.5c1.8-6.6,7.3-8.3,12.5-10
	c7-2.2,13.1-6.7,17.4-12.7c1.3-1.6,2.2-3.4,2.8-5.4c0.6-4,1.9-7.9,3.9-11.5c0.4-0.9,1.1-2,0.1-2.6s-2,0.4-2.5,1.2
	c-1.8,2.8-3.6,5.4-4.3,8.6c-1.6,9-7.4,14.5-15.3,18.2c-4,2-8.9,0.9-11.1-2.2c-2-2.9-1-7.5,1.8-10.9c3.2-4.1,8.1-4.5,12.5-5.6
	c5.4-1.4,9.4-4.3,11.8-9.2c1.6-3.1,3.9-4.3,7-3c5.5,2,11.8,1.9,16.7,5.8c1.1,0.9,4,0.9,6,1.4c1.8,0.5,3.8,1,5.1,2.4
	c0.5,0.6,0.9,2.1,2,0.6c0.6-0.6,0.6-1.7-0.1-2.3c-0.1-0.1-0.2-0.2-0.3-0.2c-1.5-0.9-3-1.9-4.6-2.8c-20.8-10.5-44.5-14-67.5-10
	c-12.2,2-24.6,2.5-36.7-1c-15.7-4.6-17.8-13.8-13.9-27.1c2-7,7.3-11.5,12.9-15.4c9.4-6.6,17.7-14.8,26.3-22.3
	c15-13.4,29.1-27.7,42.3-42.9c12.5-14.4,25.4-28.2,39.1-41.2c0.8-0.6,1.4-1.3,2.1-2c7.1-7,11.5-4.1,15.4,2
	c4.1,6.3,7.7,12.9,10.5,19.9c3.4,8.9,3.1,17.8,1.6,26.9c-2.2,13.7-8.1,26.5-16.9,37.2c-2,2.3-4.1,3.5-7.1,3.3
	c-11.3-0.9-22.1,1-32.7,4.3c-8.1,2.5-15.2,7.1-22.7,10.8c-6.9,3.2-13.7,7-18.8,12.9c-1.1,1.3-1.3,1.1-2.1,3.8c3.9-1.4,6.8-4,9.9-5.8
	c1.2-0.8,2.6-1.3,4-1.4c11.1-0.3,22.2,0.8,33,3.5c10.5,2.5,21.1,4.4,31.8,5.6c8.9,1.2,17,3.6,21.7,12.2c5.3,9.5,4.3,19.3-0.4,28.7
	c-5.1,10.1-12,19.4-15.5,30.3c-2.4,7.4-3.6,15-6.1,22.5c-3.8,11.7-12.1,17.4-23.6,17.4C169,683.5,164.6,679.8,162,674.2z
	 M196.3,568.4c-10.8-2-21.4-3.9-32.2-6c-6.7-1.5-13.5-2.3-20.3-2.5c-1,0-2.5,0.5-2.9-0.6c-0.4-1.4,1.2-1.6,2.1-2
	c10.5-5.5,21.2-11,33.1-13.5c3.9-0.7,7.9-1.1,11.9-1.1c1.1,0,2.1,0.1,3.1,0.1c5.8,0.2,6.6,0.9,7.1,6.8c0.2,5.1,0.8,10.2,1.6,15.3
	C200.6,567.9,199.4,569,196.3,568.4z M216.9,631.4c5.1,12.8,11.7,24.9,19.8,36.1c1.5,2.1,0.6,2.8-1.5,2.8c-12.4,0-24.1,4-35.6,7.9
	c-0.9,0.2-1.8,0.9-2.9,0c2.4-4.6,4.9-9.2,6.6-14.2c1.8-5.4,2.8-10.9,4.1-16.4c1.4-5.9,4.3-11.2,6.9-16.4c0.2-0.6,0.7-1,1.2-1.2
	C216.5,629.8,216.6,630.8,216.9,631.4L216.9,631.4z M128.4,730.7c6.1-10.5,14.3-18.8,26.3-22.6c1.4-0.5,2.9-0.5,4.3,0
	c11,3,21.7,7.1,31.8,12.3c22.8,11.8,43.6,27.2,61.4,45.6c8.5,8.7,7.1,19.4-3.4,25.4c-6.4,3.8-13.3,6.9-22.3,6.5
	c-7.1,0.9-13.3-3-18.5-9.3c-10-11.8-19.6-24.1-32.1-33.5c-13.7-10.4-28.2-19.4-45.9-21.6C127.5,733.5,127.5,732.5,128.4,730.7
	L128.4,730.7z M238.5,849.2c-0.2,7.6-0.4,7.9-7.9,8.9c-9.1,1.5-18.4,2.1-27.6,1.8c-13.9,0.5-26.8-0.8-39.7-1.3
	c-8.8-0.2-17.6-1.1-26.3-2.6c-4.6-0.8-9-2.1-13.8-2.1c-2.3-0.1-4.5-1.6-6.3-3.1c-6-4.9-10.8-10-11.7-18.8c-1.6-17-0.1-33.8,2.8-50.5
	c2.4-13.8,6.3-27.3,13.3-39.7c2.6-4.9,3.9-5.3,9.5-4.5c8.3,1.2,15.4,4.9,22.8,8.5c18.7,9,32.4,23.4,45.5,39c4,4.8,8,9.9,13.3,13.4
	c1.3,1.1,2.9,1.8,4.5,2.3c4.5,0.6,7,3.9,9.3,7.3c6.1,8.8,10.4,18.6,12.8,29C240,840.8,238.8,844.9,238.5,849.2z M280.9,848.2
	c-0.1,1.8-1.2,2.5-3.1,2.9c-7.4,1.4-14.8,2.6-22.2,4.6c-3.5,1-7.4,0.2-11.1,0.1c-1.9,0-2.1-1.4-2-3c0.4-6.1,0.9-12.2-0.4-18.3
	c-2.2-10.7-6.9-20.7-13.8-29.2c-0.6-0.9-2.6-1.4-2-2.8s2.4-0.6,3.6-0.8c8.4-0.5,15.8-4,22.8-8.1c4.3-2.7,7.4-7,8.4-12
	c0.2-0.9,0.1-2.3,1.1-2.5c1.3-0.4,1.8,1,2.4,1.8c10.8,13.9,15.9,29.9,17.3,47.2c0.1,1.4,0.4,2.6,0.4,4s0,2.6,0,4.8
	C283,840.2,281.1,844,280.9,848.2z M310.5,845c-7.5,0.2-14.7,2-21.9,3.4c-3.1,0.5-3.9-1.1-3.5-3.9c1.8-7.1,0.9-14.4,0.2-21.8
	c-1.2-14.9-6.5-28.3-14.9-40.6c-12.2-17.8-28.1-32-45.2-44.7c-19-14.3-39.5-25.8-62.9-31.3c-2.5-0.5-2.4-1.8-1-3.1
	c6.5-6.9,13.4-13.4,22.6-16.8c2.3-0.9,4.6-1.9,6.9-2.8c4.3-1.8,7.6-0.5,11.4,1.1c20.3,8.6,38.5,21.4,53.4,37.5
	c8.9,9.5,18.4,18.5,26.2,29.1c8,10.9,14.2,22.8,19.4,35.2c3.9,9,6.1,18.7,8.9,28.1c2.4,8.7,2.9,17.7,3.9,26.6
	C314.1,843.5,312.8,844.9,310.5,845z M402.8,780c-0.9,10.2-2.8,20.2-4.4,30.2s-7.7,14.8-16.3,17.8c-8.3,3-16.9,4.9-25.6,7.3
	c-11.1,3.1-22.7,4.9-34,7.6c-4.8,1.1-5.3,0.6-5.5-4.3c-0.4-12-2.9-23.8-6.1-35.3c-2.6-9-5.8-17.8-9.6-26.3
	c-6.6-14.8-15.5-28.5-26.3-40.5c-9.9-10.8-20-21.2-31-31c-6.6-6-14.4-10.5-22-15.2c-6.1-3.7-12.6-6.8-19.3-9.3
	c3.4-2.4,6.9-2.8,10.1-3.8c8-2.8,16.5-4.3,25.1-4.4c1.8-0.1,3.5,0.7,4.6,2.1c8.2,9.9,17.8,18.5,28.5,25.7
	c8.9,5.7,18.3,10.5,28.1,14.4c12.4,5,25,9.2,37.8,12.7c11.1,3,22.4,4.8,33.8,6.6c8.8,1.5,17.7,1.9,26.4,2.8c2.8,0.2,4,1.3,4.5,3.9
	C403.6,754,403.9,767.1,402.8,780L402.8,780z M448.2,731c-14.9,1.5-30,3-45,2c-19.5-1.4-39-3.2-58-7.9
	c-21.8-5.4-42.9-12.5-62.6-23.1s-35.3-26.1-47.4-45c-5.9-9.6-10.9-19.6-15.2-30c-1.1-2.3-0.9-5,0.6-7c5-7.5,7.9-15.8,7.3-24.8
	c-0.8-10.7-9-22.9-19.8-24.6c-2.1-0.4-2.8-1.5-3.1-3.6c-1.4-8-1.6-16-2.9-23.9c-0.2-2,1-2.9,2-4c6.6-6.9,12.5-14.3,15.8-23.3
	c4.4-11.8,7.5-23.7,5.6-36.2c-1.4-10-6-18.9-12.3-26.9c-2.8-3.6-5.3-7.4-9.3-9.9c-1.5-1-1.2-2.5-1.1-3.9c1.6-20.8,3.5-41.6,6.4-62.3
	c1.9-13.8,3.4-27.6,5.3-41.4c2.3-15.7,4.6-31.3,7-47c2.1-13.6,4.6-27.3,6.3-41.1c1.8-14.8,3.6-29.6,3.6-44.5
	c0.1-4.6-0.3-9.1-1.1-13.6c-0.6-3,0.8-3.2,3.1-2.6c7.8,1.8,15.5,4,23.4,5.3c9.6,1.5,19.3,2.5,29.1,2.8c13.4,0.2,26.8-0.5,40.2-1.2
	c0.8,0,1.5-0.4,1.9,0.4c-1.9,2-3.8,4.1-5.8,6.1c-6.3,6.1-8,13.5-6.5,21.8c0.4,3.5,1.4,6.8,3.1,9.9c5.1,8.8,13.4,11.3,22.3,6.1
	c7.4-4.4,14.7-8.6,22.9-11.2c6.9-2.1,13.7-2.2,19.9,2c5.5,3.6,10.9,7.6,16.4,11.5c5.6,4,13,4.7,19.3,1.9c6.3-2.6,9.7-9.4,7.9-15.9
	c-4.8-17-14.9-29.8-31.2-37.3c-3.1-1.5-6.4-2.6-9.9-4.1c3.8-2.1,7.8-2.6,11.6-3.3c13.7-2.4,27.1-6.4,40.5-10.1
	c15.3-4.1,30.3-9.1,45.2-14.3c17.2-5.9,34.2-12.7,50.2-21.3c8.4-4.5,8-4.4,12.8,3.5c5.9,9.5,11.3,19.2,16.8,28.8l0.8,1.5
	c9.7,17.2,19,34.4,27.8,52.1c6.6,13.7,13.4,27.2,19.9,41c8.3,17.9,16.3,35.8,23.6,54.1c4.9,12.5,10,24.9,14.4,37.6
	c4.4,12.4,8.5,24.9,12.4,37.6c6.3,20.8,11.5,41.8,15.5,63.1c2.8,15.2,4.6,30.6,5.4,46c0.5,10.1,0.4,20.1-0.2,30.2
	c-0.5,8.1-1.8,16.1-3.8,23.9c-1.1,5-2.6,9.9-4.1,14.8c-7.3,22.5-19.2,42.6-34,60.9c-20.5,25.6-45.7,45.6-74,61.9
	c-22.1,12.5-45.7,22.3-70.2,29.1C481.1,726.1,464.7,729.3,448.2,731L448.2,731z M582.9,820.3c-6.8-0.6-13.7-1.1-20.4-2
	c-9.8-1.1-19.5-2.2-29.2-3.8c-6.6-1-13-2.5-19.3-4.6c-7.6-2.5-10.3-9-12.4-15.9c-5.4-16.9-9.4-34.1-10.1-51.9v-11.5
	c-0.1-1.9,0.5-3.1,2.6-3.6c35-9,68.2-24.1,98-44.6c15.7-10.8,30.1-23.3,43.1-37.2c1.2-1.3,2.9-2.1,4.6-2.1
	c13.5-1.4,27.2-0.6,40.5,2.5c0.8,0.2,1.9,0.1,2.1,1c0.4,1.4-1.1,1.4-1.9,1.8c-17.6,9.4-33,22.4-45.2,38.1
	c-8.1,10.4-16.7,20.3-23.8,31.5c-10.7,16.5-17.3,34.6-21.5,53.8c-3.4,15.2-5.3,30.4-4,46.1C586.1,820.3,584.7,820.5,582.9,820.3
	L582.9,820.3z M613.4,822.2c-6.8-0.4-13.4-0.9-20.2-1.1c-2.8-0.1-4.1-1.4-3.9-4.3c0.1-2.6,0-5.3,0-7.9c0.3-19.4,3.6-38.6,9.9-56.9
	c6.5-19.3,17-36.3,30-51.9c8-9.6,15.2-19.9,24.4-28.3c10.4-9.4,21.9-17.5,34.3-23.9c3-1.5,6.3-0.5,9.3,0.1
	c11,2.5,20.3,8.3,28.8,15.5c2.4,2,2.1,3.1-0.9,4.1c-10.5,3.5-20.4,8.4-29.6,14.5c-16,10.2-30.1,22.9-43.1,36.6
	c-12.2,12.9-22.8,26.8-30,43.1c-4.2,9.9-6.6,20.5-6.9,31.2c-0.4,7.9-0.2,15.8,2,23.5C619.3,822.3,619.5,822.5,613.4,822.2
	L613.4,822.2z M657.3,825.6c-10.5-1-21.2-0.8-31.7-2.3c-2.1-0.2-3.1-1.2-3.4-3.2c-1.2-7.3-3.2-14.3-2.5-20.4
	c-0.2-17.3,3.5-32.2,11.5-46c0.5-0.9,1-1.6,1.5-2.4c1-1.5,2-1.5,2.5,0.2c2.3,8,8,12.4,15.7,14.8c6,2,12.2,3.9,18.7,3.1
	c0.9,0,2.1-0.5,2.6,0.5s-0.5,1.6-1,2.4c-9.4,14.8-14,30.5-9.8,47.9C662.8,825.6,662.7,826.1,657.3,825.6L657.3,825.6z M779,809.7
	c-15.4,4.1-30.8,8-46.6,10.8c-14.5,2.5-29.2,4.3-43.8,5.3c-6.1,0.4-12.3,0-18.4,0.1c-2.8,0.1-3.8-1.2-4.4-3.6
	c-5.4-19,0.2-36,10.3-52c0.4-1,1.2-1.8,2.2-2.1c6.8-1.8,10.7-6.9,14.5-12.2c7.5-10.2,14.3-20.7,22.5-30.2
	c10.3-11.7,22.8-20.2,36.1-27.6c3.4-1.8,7.1-2.9,10.9-3.5c3.3-0.6,5.5,0,7.4,2.8c5.5,7.6,9.4,16,13,24.7
	c5.8,13.7,8.4,28.1,11.5,42.2c1.1,4.8,0.9,9.9,1.3,14.8c0,2.5-0.2,5,0,7.5C796.8,797.3,788.5,807.1,779,809.7z"/>
</svg>
