<?xml version="1.0" encoding="utf-8"?>
<!-- Generator: Adobe Illustrator 25.2.3, SVG Export Plug-In . SVG Version: 6.00 Build 0)  -->
<svg version="1.1" id="Слой_1" xmlns="http://www.w3.org/2000/svg" xmlns:xlink="http://www.w3.org/1999/xlink" x="0px" y="0px"
	 viewBox="0 0 864 864" style="enable-background:new 0 0 864 864;" xml:space="preserve">
<style type="text/css">
	.st0{fill:none;}
	.st1{fill:#FF9292;}
	.st2{fill:#008938;}
	.st3{fill:#FFFFFF;}
	.st4{fill:#944933;}
	.st5{fill:#963213;}
	.st6{fill:#F78B34;}
	.st7{fill:#FFD17D;}
</style>
<path class="st0" d="M493.2,647.7c0-6.1,0.1-12.4-1.3-18.4c-5.9-23.4-13.4-46.5-22.3-68.9c-4-10-8.2-20.2-14.2-29.5
	c-1.2-1.7-2.2-4.8-4.6-4s-1.3,3.7-1.3,5.5c0.5,15.4,1.8,30.8,4,46c3.8,26,9.7,51.6,18.9,76.1c2.7,7.3,6.3,14.4,12,19.8
	c1.2,1.3,2.4,2.9,4.4,2.3s2.4-2.7,2.7-4.7C492.9,663.9,493.4,655.8,493.2,647.7z"/>
<path class="st0" d="M301.8,543.1c0-2.6,0.1-5.3,0-8.1s1.4-6.9-2.1-8s-5.1,3.3-6.5,5.9c-17,28.7-19.6,59.9-15.7,92.2
	c0.3,1.8,0.3,4.4,2.5,4.7s2.6-2.3,3.3-4C295,599.5,301.5,572,301.8,543.1z"/>
<path class="st0" d="M459.4,528.4c13.1,25.1,23.3,51.6,30.2,79.1c0.9,3.3,1.4,6.8,3.6,10.2c4.3-8.7,4.6-21.9,0.1-29.8
	c-9.2-16.6-15.8-34.4-19.6-53c-2.4-11.3-2.5-23-3.8-34.5c-0.8-6.3-6.3-8.2-11.5-4.6c-7.6,5.4-9.5,15.8-4.5,23.6
	C455.8,522.4,457.8,525.4,459.4,528.4z"/>
<path class="st0" d="M282.9,544.6c3.4-7.8,8.5-14.5,13.4-21.3c2.1-3,4.4-6.1,3.9-10.1c-0.9-6.5-2.7-12.8-5.5-18.7
	c-1-2.4-3.1-3.7-5.4-2c-11.8,9.1-27.3,15.5-26.1,34.7c0.3,2.9-0.4,6-0.6,9c-1.8,20.5-5.5,40.6-14.8,59.3c-4.7,9.5-6.5,19.2-4.1,29.5
	c1.4,6,0.1,11.4-3,16.5c-1.3,2.2-2.5,4.4-3.8,6.7c-1.6,2.2-1.3,4,1.1,5.6c3.9,2.5,8,4.6,12.8,4.6c7.4,0,20.8-9.7,22.8-16.8
	c0.2-1.2,0.3-2.4,0.1-3.7c-2.5-11.9-2.7-23.8-2.1-35.6C272.8,582.6,274.8,563,282.9,544.6z"/>
<path class="st0" d="M474.8,510.4c1.4,14.8,4.5,29.5,9.1,43.6c2.9,8.9,6,17.8,10.6,26c0.5,0.9,1,2.2,2.4,2c0.6-0.1,1.2-1.3,1.4-2.2
	c1.7-4.8,2.7-9.8,3-14.9c0.4-3.7-1.3-6.8-2.9-9.9c-4.9-9.6-8.7-19.7-11.2-30.2c-1.4-6.4-3.5-12.7-7.3-18c-0.9-1.3-2-3-3.8-2.5
	s-1.3,2.6-1.3,4.2C474.7,509.1,474.7,509.8,474.8,510.4z"/>
<path class="st0" d="M353.1,546.1c1.3-2.9,2.6-6.1,1.4-9.7c-3.9-10.6-9-20.6-15.3-30c-2-3-4.4-3.7-7.8-2.6c-6.4,2-12.3,5.1-18.1,8.3
	c-6.1,3.7-8.2,9-7.6,16.2c1.7,18.2,1.1,36.5-1.8,54.6c-3.3,18.4-10.8,35.4-18.8,52.2c-2,4-3.1,8-1.6,12.4
	c4.4,12,10.7,22.7,21.1,30.4c3.5,2.8,7.7,4.4,12.1,4.7c2.1,0.1,5.2-0.9,8.6-2.7c11.4-6,17-16.7,15.7-29.1
	c-0.9-7.7-1.7-15.4-2.1-23.2C337.7,599.5,341.8,572.2,353.1,546.1z"/>
<path class="st0" d="M408.9,633.5h-0.3c0-5.1,0-10.2-0.1-15.3c-0.3-15.3-1.6-30.4-7-44.9c-0.7-1.6-0.8-4-2.9-3.9s-2,2.8-2.2,4.3
	c-1.8,18-3.5,36-0.1,54c2,10.6,4,21.2,8.1,31.3c0.5,1.3,1.3,3.4,3.1,3.1s1.4-2.6,1.4-4C409,649.9,408.9,641.7,408.9,633.5z"/>
<path class="st0" d="M407.9,535c-2.6,4.8-4.6,9.8-6.1,15c-1.7,5.7-1.4,11.8,0.9,17.2c4.3,10.6,7.2,21.7,8.8,33
	c3,22.3,3.6,44.7,0.6,67c-0.9,8,1.7,14.1,7.2,19.3c3.4,3.1,6.7,7.7,12,6.5s7.3-6.7,8.7-11.6c3-10.4,3.8-21.1,3.7-32
	c0-3.4,0.1-6.8,0-10c-1.7-27.5-8.4-53.9-18-79.6c-3.3-8.6-6.6-17.2-11.7-25.1C411.6,531.1,409.9,531.1,407.9,535z"/>
<path class="st0" d="M391.1,577.7c0.8-6.4,2.1-12.8,3.1-18.8c0-0.8,0.1-1,0-1.4c-3.3-12.8-10.6-23.2-18.7-33.3
	c-0.9-1.2-1.8-0.5-2.9,0.1c-9,5.8-13,16.9-9.7,27c6.5,20.5,6.7,41.2,3,62.1c-2.5,13.7-7.3,26.6-12.8,39.4c-1.6,3.7-2.7,7.4-1.3,11.6
	c4.6,13.5,14,24.9,26.4,32c6.4,3.8,13,2.1,17.8-3.7c7.2-8.6,9.3-17.2,5-28.6C390,636.5,387.2,607.4,391.1,577.7z"/>
<path class="st0" d="M540.6,176.6c0.4-1.4,1.3-3.5-0.5-4.2s-2.6,1.4-3.5,2.6c-2.8,4.4-4.7,9.3-5.7,14.5c-5.6,25.8-5.5,51.8-1.3,77.7
	c6,37.1,18.8,72.6,27.4,109c1.3,5.9,2.1,5.9,7.6,3.4c14.9-7.2,30.4-10.8,47-10.2c10.6,0.3,21.3,0,31.8,0c3.3,0.7,6.6,0.9,9.9,0.4
	c4.3-0.5,7.2-2.4,7-6.8s-3.9-5.1-7.4-5.5h-1.4c-44.5-3.3-78.7-23.4-102.3-61.5c-18-29-18.1-60.8-14.9-93.1
	C535.1,193.8,538.6,185.5,540.6,176.6z"/>
<path class="st0" d="M485.7,501.1c2.7-8.3,4.6-16.7,5.9-25.3c-0.1-2.2,0.5-4.3-1.7-5.1c-2-0.8-4.3-0.2-5.6,1.4
	c-1.4,1.3-2.5,2.9-3.3,4.6c-2.2,4-3.1,8.6-4.3,13c-1.2,5.2,0.7,9,4.3,12.4C483.1,504.2,484.7,504.2,485.7,501.1z"/>
<path class="st0" d="M68.5,359.2c-1.6,0-4.3-0.6-3.9,1.7c0.3,2.1,2.6,3.4,5.2,3.1c2.1-0.1,5.1-0.4,4.7-2.6
	C74.2,358.7,70.8,359.1,68.5,359.2z"/>
<path class="st0" d="M357.4,626.9c5.9-21.7,9-43.7,3.9-66.2c-0.8-3.1-0.8-8.3-4.6-8.5c-2.7,0-3.5,5.1-4.6,8.1
	c-5.6,17.4-7.6,35.2-7.4,56.5c-0.3,8.2,0.4,16.4,2,24.4c0.3,1.3,0.5,3.1,2.2,3.3c1.4,0.1,1.8-1.4,2.5-2.6
	C354,637.2,356,632.2,357.4,626.9z"/>
<path class="st0" d="M230.1,460c5.2,10.4,5.4,10.3,16.2,5.9c3.5-1.4,4.6-3.1,3.3-6.8c-3.6-10.2-10.8-17-20-22.2
	c-3.5-2-7.3-3.8-11.2-4.2c-1.3,0-2.6-0.4-3.3,0.8c-0.9,1.7,0.1,3.3,1.1,4.4C221.5,444.9,226.1,452.3,230.1,460z"/>
<path class="st0" d="M307.8,511.2c6.7-3.4,13.3-6.7,20-10c2.7-1.3,2.7-3.1,0.8-5.2c-4.8-5.6-11-7.8-18.3-7.4c-2.6,0.3-5.4,0.3-8,0.7
	c-2.4,0.4-3.5,1.8-3,4.4c1,5.5,2.5,10.8,4.4,16.1C304.5,511.7,305.7,512.2,307.8,511.2z"/>
<path class="st0" d="M270.1,502.4c5.7-4.2,11.4-8.6,17.2-12.7c3.1-2.1,2.7-4.2,1-6.8c-6-8.9-15-12.8-24.9-15c-3.3-0.8-4.3,1.2-4,5.5
	c2.4,7.8,3.4,17.2,4.8,26.6C265,504.5,267.1,504.6,270.1,502.4z"/>
<path class="st0" d="M360.3,531.4c2.7-3.1,5.5-6.3,8.1-9.4c1.4-1.2,1.6-3.4,0.4-4.8c-0.1-0.1-0.2-0.2-0.2-0.3
	c-5.6-6.5-12.8-10.7-21-13.3c-2.5-0.8-3.1,0.6-3,4c4,7.4,8.8,15.8,13.6,24.2C358.7,533,359.6,532,360.3,531.4z"/>
<path class="st0" d="M246.1,468.3c-7.8,2.4-9.4,4.7-8,12.9c4.6,27.7,0.6,53.9-12.7,78.8c-0.8,1.7-1.4,3.5-1.9,5.3
	c-0.4,1.4-1.1,3.4,0.8,4.2c2.4,0.9,2.7-1.4,3.4-3c7.6-17.5,16.4-34.3,28.1-49.6c3-3.9,5-8.2,4.6-13.2c-0.3-3.7-0.5-7.3-0.8-11
	c-0.6-6.8-1.3-13.6-3.9-20.1C253.8,468.2,250.9,467,246.1,468.3z"/>
<path class="st0" d="M84.6,400.7c-5.4-0.3-10.8,1.3-15.2,4.4c-1,0.8-1.8,2-1.2,3.4s2,1.8,4.6,1.7c4.8-1,9.3-3.1,13.1-6.2
	C88.1,402,86.8,400.7,84.6,400.7z"/>
<path class="st0" d="M394,545.5c1.6,2.7,3.3,2.2,4.4-0.4c2.1-4.4,4.2-8.9,6-13.3c2.7-6.8,1.3-10.7-4.6-14.9
	c-3.3-2.2-6.7-3.5-9.7-3.5c-3.7-0.1-6.1,0.3-8.4,1.6c-2.5,1.6-3.8,3.8-2.2,6.4C384.3,529.6,389.1,537.5,394,545.5z"/>
<path class="st0" d="M253.9,527.3c-0.6,0.8-1.2,1.6-1.7,2.3c-7.2,11.1-12.4,23.1-18.4,34.9c-5.5,11-3.8,20.8,2.1,30.7
	c2.7,4.8,3.5,5,6.3,0c11.1-20.5,14.5-43.1,17.5-63.4c0.3-6.9,0-8.5-1.2-8.2C256.2,523.8,255.2,525.9,253.9,527.3z"/>
<path class="st0" d="M74,381.3c-0.8,0.2-1.6,0.2-2.3,0.3c-2.7,0.4-5.6,1.3-5.1,4.8c0.5,3.8,3.7,3.1,6.3,2.6c0.8,0,1.6-0.2,2.3-0.5
	c2.5-0.9,6.9-1.2,6.5-4S76.9,381.8,74,381.3z"/>
<path class="st1" d="M713.5,318.5c9.4,3.8,19.4,6.1,29.5,6.9c10.2,0.1,17.6-3.6,23.8-10.2c3.8-3.9,3.9-8.1,0.9-12.5
	c-1.1-1.6-2.2-3-3.5-4.4c-8.9-10.3-10.3-10.6-22.5-4.3c-10.8,5.5-21.7,10.6-33.7,12.8c-3.4,0.5-3.3,2.6-2.2,4.8
	C707.4,315,710.2,317,713.5,318.5z"/>
<path class="st2" d="M712.5,412.2c-2,0-2.7,2.1-3.5,3.7c-3.8,6-7.2,12.3-11.1,18.3c-3.5,5.2-8.1,9-14.6,9.8
	c-10.6,1.2-20.2-0.9-28.7-7.7c-10.3-8.2-13.4-19.6-8.2-31.7c1.7-3.8,3.5-7.4,5.3-11.1c1.7-3.5,2.8-7.2,3.3-11
	c0.5-3.7-0.9-4.7-4.6-4.4c-9.5,0.6-18.2,4-26.2,9c-15.3,9.1-25.2,30.7-22.3,48.3c5,29.6,32,52.6,58.6,52.6
	c18.4,0.1,32-3.4,42.7-14.9c5.9-6.4,9.8-14.1,13.1-22.1c4.7-11.6,3.5-23.2-0.7-34.9C715,414.6,714.4,412.3,712.5,412.2z"/>
<path class="st3" d="M746.4,133.6c-11.9-5.4-24.5-7.7-41-7.8c-7-0.4-17.1,2.2-26.9,5.2c-8.1,2.6-10.4,8.7-5.6,15.8
	c11.6,17.4,25.8,31.7,47.1,36.9c12.4,3.1,24.3,3.8,35.1-4.3c3.9-2.9,7.3-6.1,8.5-11.1C766.8,154.2,759.7,139.7,746.4,133.6z
	 M712.6,174.8c-8,0-16.3-9.1-16.3-18c0-9.7,6.5-16.3,16.1-16.2c9.1,0,15.9,7.6,15.8,17.8C728.1,167.2,721,174.9,712.6,174.8z
	 M605.7,226.9c6.5,0,12.4,0.3,17.4-2.1c17.8-8.6,32.5-20.6,39.2-40.2c2.1-6.3,5.2-12.7,3.7-19.8s-3.5-14.2-6.7-20.9
	c-4.3-9.3-10.4-12-20.5-9.8c-12.9,3-24.9,8.9-35.2,17.2c-12,9.5-22.7,20.4-30.8,33.4c-4.4,7.1-5.9,14.6-0.9,22.1
	C580,219,590.5,227.8,605.7,226.9z M628.8,163.4c7.7,0.1,15.7,9.3,15.5,17.8c-0.1,9.8-7.4,17.2-16.7,17s-16.8-7.7-16.7-16.6
	C610.9,171.8,619.3,163.3,628.8,163.4z"/>
<path class="st4" d="M713.9,100.6c3,0.9,6,2,8.9,3.3c20.9,9.9,38,24.7,53,42c12.9,14.8,18.8,32.8,21.8,51.6
	c1.2,8.1,3.5,15.9,6.8,23.4c6.5,14.8,8.1,29.9,2.1,45.3c-1.8,4.4-3.1,9-3.8,13.7c-2.1,12.4-1.3,24.8-1.7,37.1
	c-0.3,6.3-1.6,12-5,17.2c-2.7,4-5.6,8.1-8.7,11.9c-3.8,4.7-4.6,9.5-3,15.1c4.8,17.9,13.8,33,27.7,45.3c2.3,2,4.8,3.8,7.6,5.1
	c14.9,5.7,26.2,4.2,32.2-11.5c2.3-5.8,3.5-11.9,3.5-18.1c-0.1-14.3-1.9-28.6-5.4-42.6c-6-24.9-13.7-49.6-18.7-74.8
	c-7.8-40.3-18.8-79.8-31.3-118.8c-4.8-15-11.2-28.8-23.4-39.2c-13-11-26.8-20.8-44.4-20.9c-3.7,0.1-6.8,0.3-9.9,0.5
	c-4.4,0.2-8.4,2.4-10.8,6C708.8,96.1,709.7,98.9,713.9,100.6z M507.9,447.7c-0.5,16.6-1,33,0.8,49.6c0.7,5.9,3.4,8,9.3,7.4
	c6.3-0.6,12.1-3.7,16-8.6c6.4-7.8,8.8-17.5,11.8-26.8c9-27.9,7.8-56.5,2.3-84.9c-5.1-25.6-12-51-18.9-76.2c-8-28.7-12.8-57.7-9-87.6
	c3.5-27.8,6.4-56,31.8-74.4c2.3-1.8,2.6-4.6-0.3-6.4c-2.2-1.5-5-1.6-7.3-0.3c-5.5,3.3-10.4,7.7-12.3,14c-3.3,12-9.4,22.6-15.4,33.2
	c-1,2-2.7,3.5-4.8,4.3c0.3-2.5,0.6-4.4,0.6-6.4c0.1-1.2,0.3-2.7-1.3-3.3c-1.2-0.3-2,0.9-2.5,2c-3.7,6.7-7.8,12.9-9.8,20.5
	c-7,27.9-8,56.4-6.3,84.8c1.6,24.7,7.2,49,10.7,73.5C507.6,390.6,509,419.2,507.9,447.7z"/>
<path class="st5" d="M657.5,429c5,5.1,11.1,5.6,20.1,5.5c8.9,1.2,14.6-5.2,18-15.1c4.3-12,8.2-24,11.9-36.2c2-6.8,2.6-13.7,3.3-20.6
	c0.1-2.9-0.7-4.6-3.7-5.1c-11.6-2.1-23-2-34.3,1.6c-3.2,0.8-5.5,3.6-5.6,6.9c-0.4,3.4-0.8,6.9-1.4,10.3c-2.3,11.7-6.3,23-11.6,33.7
	C649.9,418.5,651,422.3,657.5,429z M685.6,309.1c-10.3,0.8-20.7-0.7-30.4-4.2c-1.6-0.5-3.8-2.5-5.1-0.1c-1,2,1,3.4,2.6,4.6
	c2.6,2,5.3,3.8,8.2,5.6c10,6,20.6,11.2,31.1,16.5c12.3,6.1,25.2,8.6,40.3,8.6c3.8,0.1,9.3-0.5,14.6-1.2c11-1.6,21.4-4.6,30.9-10.3
	c6.1-3.7,10.4-8.6,10.7-16.3s0.8-15.3,1.2-22.8c0.1-1.8,0-3.8-2.3-3.8c-7.4-0.3-15-1.2-22.3,0.6c-3.9,1-4.4,2.8-2,6.3
	c2.7,3.6,5.6,7.2,8.5,10.8s2.7,7.6,0,11.1c-7.4,9.5-17.9,15-29.6,14.9c-14.6-0.2-28.7-5.5-39.7-15.1
	C697.2,309.9,692,308.7,685.6,309.1z M217.1,657.5c-5.5,0.7-12.9,1.6-20.4,2.3c-3.8,0.5-5.4,2.7-5.2,6.7c0.2,3.1,0,6.3-0.5,9.4
	c-1.2,7-4,13.7-4.8,20.9c-0.5,6.1,0.7,7.2,6.5,4.8c8.4-3.1,15.9-7.8,24.4-10.6c2.2-0.7,3.9-2.3,4.7-4.4c2.6-7,5-14.1,4.8-21.7
	C226.6,658.7,225.3,657.5,217.1,657.5z M116.7,257.8c4.8-4.6,8-10.2,10.3-16.3c2.5-5.9-0.3-11-7-14.4c-7-3.5-11.8-2.6-15.3,3.1
	s-5.1,12.5-5.5,19.4c-0.3,5.1,1.6,9,6.4,11.2C110.1,262.9,113.6,260.8,116.7,257.8z M65.4,692.9c1.6-8.3,1.8-16.8,0.4-25.1
	c-0.4-2.7-2-4-5-3.9c-3.8,0.3-7.6,0.1-11.4,0.1v0.8c-3.5,0-7,0.1-10.4-0.1c-4.2-0.3-5.6,1.4-5.7,5.5c-0.2,10.3-1,20.5-2.5,30.7
	c-0.9,6.4,0.8,8.8,7.2,9.9c3.9,0.8,7.2-0.7,10-3.3c2.9-2.9,6.3-5.2,10-6.9C61.6,699.1,64.5,696.7,65.4,692.9z"/>
<path class="st6" d="M728,589.7c-3.4-1.2-5.7,2.5-8.1,4.7c-4.7,4.4-8.6,9.8-14.4,12.4c-5.3,2.3-6.5,6-6.4,10.8l0.4,29
	c0.4,18.5,3,36.7,6.7,54.7c0.5,2.9,2,3.7,4.6,3.4c7.8-0.7,15.8-1.3,23.6-2.7c7.3-1.4,8-2.2,7.4-9.8c-0.3-2.1-0.3-4.2-0.7-6.3
	c-4.8-29-8.6-58.2-10.6-87.7C730.5,595.2,731.3,590.9,728,589.7z M671.5,515.5c-3.8,0.5-7.3,2-8.1,6.1s2,6.9,5.2,8.7
	c5.6,3.4,7.4,10.7,4,16.3c-0.7,1.1-1.5,2.1-2.4,2.9c-2.2,2-5,3.4-7.4,5.1c-3.1,2.1-3.4,4.7-0.8,7.3c6,6,15.9,5.9,23.4-0.5
	c6.4-5.5,8.6-13,9-22.5c-0.1-1-0.1-3.3-0.5-5.3C691.7,522,681.9,513.9,671.5,515.5z M669.1,124.6c-0.8,5-0.1,5.6,4.4,3.8
	c16.6-6.5,33.7-9,51.3-6.1c5.2,0.8,10.3,1.8,15.5,2.7c0.9,0.1,2.3,0.9,3-0.3c0.8-1.4-0.4-2.3-1.2-3.4c-0.4-0.4-0.9-0.8-1.4-1.2
	c-11.4-8.6-23.6-14.4-38.1-14c-9.9-0.1-19.3,1.7-27.3,8.2C672.1,117.2,669.7,120.3,669.1,124.6z M592.1,153.6
	c9.4-8.4,20.2-14.4,31.3-20c2.2-1.2,4.8-2,6.1-4.8c-19.2-4.4-55.3,21.8-56,44.8c2.6-2.9,4.6-4.7,6.3-6.6
	C583.6,162.2,587.7,157.7,592.1,153.6z M542.2,237.8c0.1,21.5,5.1,42,17.4,60c20.6,29.9,49.6,46.2,85.4,50.5
	c7.6,1,15.2,1.2,22.8,0.5c1-0.1,2.5,0.1,2.9-1.2s-1.2-1.8-2.1-2.4c-2.7-1.6-5.6-3.1-8.5-4.4c-14.9-7.3-30-14.8-43.2-24.9
	c-15.7-12.3-29.4-26-31.2-47.5c-1-11.5,3-20.1,12.8-26.1c4.7-2.7,9.8-4.8,15-6.3c15.5-4.4,28.8-12.7,41.6-22.4
	c19.5-14.9,41-24.3,66.4-23.4c14,0.4,28,0.1,41.9-0.9c7.8-0.4,15.1-0.9,21.9,3.8c1,0.7,2.3,1.4,3.5,0.3s0.4-2.5,0-3.6
	c-4.2-15.5-10.8-30.2-19.7-43.6c-1-1.6-2.1-3.1-4.2-3.6c-0.8,4.3-0.8,4.3,1,9c6,14.8-2.2,31.7-17.5,35.5
	c-14.2,3.4-28.5,1.3-41.4-4.6c-14-6.4-25.2-16.6-34.1-29.1c-3.5-4.6-6-9.8-7.6-15.4c-2.3-10.1-0.5-19.2,6.7-27
	c1.6-1.8,5.5-3.1,4.6-5.4c-1-2.9-5-1.4-7.7-1.7s-5.7,0.5-7-2.7c-1-3-3.1-3.3-5.7-2.9c-15,1.8-29.8,5-43.6,11.2
	c-1.6,0.7-3.7,0.8-4.2,3.1c2,0.4,3.3-0.8,4.6-1.3c1.7-0.8,3.3-0.7,4.3,0.9c1.3,2-0.7,2.7-1.8,3.7c-2.9,1.9-5.9,3.8-8.9,5.5
	c-24.7,14.5-41.2,35-47.9,63.1c-0.7,3.1-1.7,6.1-3,9c-0.4,1-1,2.2-2.3,2.1s-1.6-1.4-1.8-2.5c-0.7-2.5-0.8-5.1-0.3-7.6
	c1.4-10.6,5.2-20.2,10.3-29.5c2.2-4.3,4.7-8.5,7.2-12.8c-0.3-0.1-0.5-0.4-0.9-0.6c-1.3,1.6-3,2.9-4,4.6c-9,13.8-16.5,28.3-19.8,44.7
	C541,206.9,542.1,222.4,542.2,237.8z M594.6,135.7c10.3-7.8,21.7-11.8,34.6-11.1c5.7,0.2,11.3,1.1,16.8,2.7
	c7.3,2.2,11.8,8,15.5,14.2c5,8.1,7,17.2,6.9,26.9c-0.3,19.7-9.1,35.2-23.9,47.6c-12.7,10.7-27.3,15.3-43.7,14.2
	c-21-1.2-38.5-21.3-37.1-41.8C565.2,165.6,577.1,149.2,594.6,135.7z M539.4,701.6c0.9-19.2,2.1-38.4,3.1-57.6
	c0.9-15.5,4.3-30.8,4.3-39.5c0.4-25.5-8.1-40.9-17.6-55.9c-3.4-5.3-7.2-5.2-12-1.2c-3.7,3.3-5.4,7.5-6.5,12
	c-2.1,8.2-2,16.7-3.5,24.9c-3.1,16.6-4.4,33.3-5.1,50.1c-0.6,17.8-2,35.5-2.7,53.3c-0.3,7.4-2.4,14.8-0.3,22.3
	c0.5,2.5,2.5,4.5,5.1,4.8c5.1,1,9.8-0.3,14.1-2.6c4.7-2.8,10-4.3,15.4-4.6C538.2,707.7,539.2,705.7,539.4,701.6z M657,495.1
	c-24.8-3.3-42.8-17.2-56.3-37.9c-14.6-22.5-8.2-48.4,5.1-64.2c3-3.6,6.7-6.8,9.9-10.3c1.6-1.8,4.6-3.8,3.5-6.3s-4.8-1.8-7.3-1.7
	c-14.9,0.9-29.6,4.3-43.5,9.9c-8,3.3-9,5.5-8.8,13.8c0.1,7.6,0,15.1,0,22.9c0,8.1,0.5,16.2-0.1,24.3c-1.8,19.3-7.8,37.2-19.6,53
	c-4.7,6.3-10.4,11.5-18.3,13.8c-2.3,0.9-4.8,0.6-6.8-0.8c-4.8-3.1-8.6-7-10.4-12.5c-1-2.9-1.8-5.8-2.9-8.6c-0.5-1.4-1.2-3.3-3-3.3
	s-2.4,2-2.7,3.4c-0.3,1.1-0.6,2.2-0.6,3.3c-1.6,10.3-0.4,20.6,0.6,30.9c0.5,6.1,1.3,12.3,3.8,18c2.1,5,4.4,5.6,8.7,2.2
	c2.5-1.8,4.7-3.8,7.1-5.8c4.2-3.4,8.4-3,12.7-0.3c2.2,1.4,4.1,3.1,5.6,5.2c11.9,17.1,20,35.8,21.7,56.8c0.4,5.5,2.5,8.6,7,11.1
	c13.2,7.3,27.4,11.1,42.2,12.5c53.1,5.3,94.6-14.2,123.6-59c18.8-29.2,21.7-61.5,15.5-95c-1.4-8.5-4.4-16.6-8.8-24
	c-1.2-1.8-2.5-4-5.1-3.8s-2.7,2.9-3.4,4.7c-2.7,7.5-6.4,14.6-11,21C701,488.3,681.7,498.4,657,495.1z M673.8,570.4
	c-6.4,1.3-15.8-4.4-17.2-10.7c-0.9-3.9,2-6.1,4.8-7.8c12.8-7.6,13.5-11.3,3-21.7c-5.9-5.9-5.3-11.1,1.4-15.7c7.4-5,17.6-3,24.4,4.8
	c4.8,5.8,7.5,13.1,7.6,20.6C697.8,555.4,688.3,567.4,673.8,570.4L673.8,570.4z M236.8,627.9c-0.3-2.1-0.3-4.7-2.5-5.2
	s-3.5,1.8-4.8,3.4c-0.6,0.9-1.1,1.9-1.3,3c-0.5,3.5,0.7,7.1,3.1,9.7c0.5,0.8,1.6,1.1,2.4,0.6c0,0,0.1,0,0.1-0.1c3.1-2.1,3-5.3,3-8.5
	C236.9,629.8,236.9,628.8,236.8,627.9z M230,607.9c0.1-2.6,0.5-6.8-2.1-6.9s-1.2,4-2.2,6.3c0.7,2-0.6,5.5,1.7,5.7
	C230,613.4,229.9,609.8,230,607.9z M213.3,579.2c-8.9,8.8-17.4,17.8-27.8,24.5c-2.7,1.7-3.1,4.3-2,7c2.1,5.2,4.8,10,9,13.8
	c5.1,5,11.1,5.6,17.6,3.3c6.1-2.2,8.9-6.7,9.1-12.9c0.4-10.7,0.5-21.3,2.2-31.7c0.3-2.9,0.5-6-2.4-7.2
	C216.6,575,214.9,577.7,213.3,579.2z M217.9,472.9c0.5,2.1,0.3,5.1,3.7,5.4c1.8,0,5.4-5.5,5-8c-0.2-1.4-0.7-2.8-1.3-4
	c-4.4-9.3-10-18-16.8-25.7c-1.7-2-3.3-4.2-6.3-5.2c-0.1,0.6-0.1,1.1,0,1.7c0.4,1.2,1,2.3,1.7,3.4C210.2,450.4,215,461.4,217.9,472.9
	z M231.1,484.9c-1.3-4.4-3-5-6.9-2.4s-4.3,6.4-4.4,10.4c-0.8,30.3-9.3,57.3-33.2,77.7c-6.3,5.3-6.8,12.1-6,19.5
	c0.4,3,1.8,3.7,4.6,2.1c3.6-2,7-4.4,10.2-7c26.1-21.9,36.4-51,37.6-84.2C233.1,495.6,232.4,490.1,231.1,484.9z M187.5,560.5
	c0.4-0.3,0.7-0.6,1-1c16.3-16.8,21.5-38.2,25.2-60.3c0-2.7-0.5-4.6-1.6-4.8c-1.8-0.3-2.9,1.2-3.8,2.4c-6.1,7-10.3,15.3-14.1,23.6
	c-5.5,12-9.9,24.4-12.3,37.5c-0.4,2-1.4,4.7,0.5,5.6S185.9,561.8,187.5,560.5z M218.3,647.6c3.5-1,4.7-3.5,3.9-6.9s-2.5-5.6-6.3-4.8
	c-1.8,0.3-3.8,0.5-5.6,0.9c-12.9,2.3-22.3-2-28.9-13.3c-1.8-3.1-3.3-6.5-5.1-9.7c-0.6-1.3-1.4-3.3-3.4-2.5s-1.2,2.7-0.8,4.3
	c1.2,5.5,3.4,10.8,5.4,16.2c6.4,16.8,7.3,17.5,26.4,17.5C208.8,649.5,213.6,649,218.3,647.6z M171.8,585.3c-0.1-2.2-1.4-3.4-3.5-2.9
	l-25.1,5.5c-3.1,0.8-2.7,2.5-1.2,4.4c2.8,4.1,6.5,7.5,10.8,9.9c9.4,5.2,19.4-0.8,19.4-12.8C172.2,589,172.1,587.1,171.8,585.3z
	 M64.5,494.3c-0.9,14.9,2.2,28.7,8.1,42c9.1,20.4,23,35.6,44.5,43.1c7.3,2.5,9.3,1,7.2-6.4c-6.3-22.9-6.3-47.2,0-70.1
	c8.1-30.1,23.4-55.2,54-67.7c5.6-2.4,5.6-5.4,0.3-9.3c-30-21.4-62.5-17.2-88.9,5.4C70.5,447.6,63.8,469.9,64.5,494.3z M136.7,487.7
	c-5.8,15.3-8.7,31.5-8.6,47.8c0,14.9,1.4,27.9,5.6,40.6c1.4,4.6,4.2,6.4,8.9,5.9c7.3-0.6,14.5-2.3,21.3-5c6.1-2.6,9.7-7.2,10.6-14
	c3.9-28.3,14-54,34.1-75.1c3.7-3.8,4.4-8.1,3.1-13c-3-11.1-7.7-21.6-14-31.2c-5.1-7.8-7.8-8.8-16.2-4.4
	C160.7,449.8,144.9,465.3,136.7,487.7z M118,584.4c-6.6-1.6-13-4.2-18.9-7.6c-14-8-24.2-19.6-30.9-34.1
	c-5.9-12.9-9.5-26.7-10.7-40.9c-2.2-26.5,3-50.5,22.2-70.4c2.6-2.5,4.7-5.5,6.1-8.8c-5,1-8.2,3.8-11.5,6.1
	c-26.6,20.2-38.1,48.3-41.4,80.7c-0.8,7.8,1.2,14.4,7.6,19.5c5.9,4.7,10.2,10.8,14.2,17.1c7.5,11.7,13.8,24.1,18.9,36.9
	c2.1,5.1,4.6,9.9,9.8,12.4c15,7.4,30.8,12.7,47.9,13.1c3,0,7.3,0.8,8.9-2.1s-2.1-5.5-3.5-8.2C132.8,590.5,126.6,586.3,118,584.4z
	 M45.4,541.4c-9.3-9.3-19.2-9-28.1,0.7c-2.8,3.1-4.8,6.8-6,10.8C9,560.5,9.3,568.2,9.3,576c0.7,21.1,2.6,42.1,5.7,63
	c1,7.2,5.1,11.2,11.8,13.5c12.8,4.3,25.5,3.1,37.8-0.9c8.5-2.6,10.4-5.7,10.4-14.8c-0.1-20.2-2.9-39.9-9.3-59
	C61.2,564.4,55.6,551.6,45.4,541.4z"/>
<path class="st7" d="M841,751.3c-0.4,1.7-1.6,4,0.5,5.1c1.8,1,3.7-0.7,5.1-1.8c6-5.5,7.7-12.5,7.8-20c-0.3-7.2-1.3-13.8-4.2-20.1
	c-2.1-5-5.5-9-10.6-11.1c-1.6-0.7-3.3-1.8-4.8-0.3c-1.3,1.6,0,3.1,0.7,4.4C842.7,721.5,844.8,736.1,841,751.3z M817.5,718.3
	c2.8,12.3,2.2,25.1-1.5,37.1c-0.7,2.2-2,5,0.5,6.7c2.3,1.4,4.7-0.1,6.7-1.3c9.7-5.9,13.8-14.9,14.2-26.1
	c-0.8-11.5-4.3-21.9-13.2-29.9c-2.6-2.5-5.5-4.3-9.3-4.3c-4.4-0.1-5.2,0.9-2.9,4.8C814.6,709.3,816.4,713.7,817.5,718.3z M789,759.6
	c-1,2.3-2.1,5-3.1,7.5c-1.6,3.8,0,4.7,3.7,4.4c9.7-0.8,18.8-9,21.8-20c1.5-6,2.1-12.1,1.8-18.3c0.5-6.7-0.4-13.4-2.9-19.7
	c-3.8-9.4-11.1-14.4-21-15.7c-3.1-0.5-6.4-0.1-8.1,2.7s1.3,4.6,2.6,6.5C795.9,723.5,797.7,741,789,759.6z M708.2,714
	c-5.7,1.2-9.4,4.4-10.2,10.4c-0.7,5.7-1.3,11.4-0.9,17.1c0.3,5,2.5,8.2,7.2,10.3c18.4,7.8,37.5,14,56.9,18.7
	c9.8,2.5,16.1-0.8,20.9-9.7c3.8-7.3,5.7-15.5,5.5-23.8c0.3-9.4-2.3-18.3-8.8-25.7c-3-4-7.8-6.3-12.8-6.1c-8.6,0.3-17.1,1.2-25.6,2.7
	C729.7,710,718.9,711.9,708.2,714z M709.1,742.5c-2.2,0.1-2.7-1.6-2.7-2.7c0-3.1,1-4.8,3.5-5s2.3,1.7,2.3,3.3
	C712.2,740.2,711.8,742.3,709.1,742.5L709.1,742.5z M797.2,301c-0.5-5.5,0.3-11-1.7-16.3c-1.8,9.9-0.8,20-1.4,29.9
	c0,2.2-0.7,4.3-2,6c-13.1,17.4-31.1,24.3-52,24.7c-26,0.4-49.7-7.8-72.2-20.2c-25.8-14.2-46.7-33.8-61.7-59.4c-1-1.8-3.8-4-1.3-5.6
	c2-1.3,3.3,2,4.2,3.6c4.4,8.4,9.8,16.1,17.4,21.9c29.4,22.7,61.7,24,95.5,12.7c6.1-2,11.9-5.5,17.6-8.5
	c13.4-7.4,28.4-11.4,43.7-11.9c11.1-0.3,17-5,19.5-15.9c1.7-7.3,1.4-14.8,0.9-22.2c-0.8-11.7-4.4-22.3-12-31.6
	c-7-8.7-15.4-14.1-27.4-13.4c-13.2,0.6-26.4,0.3-39.5,0.6s-26.6,1.8-39.3,6.7c-10.8,4-20.4,10.3-30,16.6
	c-14.6,9.5-29.2,19.1-46,24.8c-3.8,1.3-7.3,3.3-10.4,5.7c-6.3,5.1-9.4,11.5-8.2,19.7c2,14.9,10.2,26.2,21.2,35.6
	c14.1,12.3,30.5,21,47.2,29.2c26.8,13.2,54.4,21.4,84.7,20.8C768.3,353.9,800.3,337.7,797.2,301z M710.8,250.1
	c10.7-13.2,25.1-19.7,41.2-22.9c8.1-1.6,16.1-2.4,24,0c13.3,4,17.2,14,10.2,25.9c-2.5,4.1-5.9,7.5-10,10
	c-13.7,8.2-29.2,12.7-45.2,13.1c-3.7,0.1-7.4-0.2-11-1C706.9,272.3,702.4,260.4,710.8,250.1L710.8,250.1z M581.9,774.7
	c1.4,0.9,3.1,0.5,4.6-0.1c3.1-1.3,5.6-3.7,7-6.8c4.3-9.9,5-20.2,3.1-30.8c-0.6-3-2.1-5.7-4.3-7.8c-2-2.2-3.4-2.1-3.9,1
	s-0.4,6-0.3,9.8c-0.3,2.6-0.5,5.9-0.8,9.3c-0.5,7.3-3.1,14.1-5.6,21C581.3,771.7,580.4,773.5,581.9,774.7z M559.3,754.1
	c-1.2,6.4-2.5,12.7-4.2,19.1c-1,4,0.8,5.1,4.2,5.5c7,0.9,13.2-2.2,16.8-9.1c5-9,5.5-19.1,5.8-29.1c0-1.8,0-3.8-0.1-5.6
	c-0.5-10.3-7.7-21.4-19.3-20.2c-7.6,0.8-9.3,2.7-6.4,9.7C560,733.6,561.2,744,559.3,754.1z M529.8,714.8c-9.8,1.2-12.7,4.6-10,14.2
	c3.3,11.4,3.1,22.6,0.8,33.9c-0.8,3.9-1.2,7.8-1.6,11.8c-0.5,2.3,0.8,4.6,3,5.3c10.3,4.9,22.6,0.5,27.5-9.8c0.3-0.6,0.5-1.2,0.7-1.8
	c2.9-7.6,3.7-15.4,3.4-23.5c0.1-2.2,0.1-4.4,0-6.7C552,724.5,548.4,712.3,529.8,714.8z M503,723.3c-2,0-4.1,0.1-6.1,0.4
	c-6.1,0.8-10.3,4.2-11.8,10.2c-2.6,11.2-3.1,22.7-1.3,34.1c1.2,8.6,5.5,11.9,13.8,12c9.5,0.3,14.8-3.1,16.8-11.2
	c1.9-7.7,2.7-15.6,2.3-23.5c0-3.1,0.1-5.8,0-8.2C516.5,727.3,512.5,723.4,503,723.3z M284.7,732.8c5.9-4.3,7.2-10.6,6.9-19.1
	c-0.1-2.7,0.4-7.6-3.4-11.2c-0.9-0.9-2.1-2.2-3.6-1.4s-0.9,2.5-0.5,3.9c1.7,4.3,1.2,8.8,0,13c-0.9,3.9-2.6,7.8-3.9,11.8
	c-0.4,1.4-1.4,3.3,0.3,4.3S283.4,733.7,284.7,732.8z M244.5,727.2c-0.3,1.4-0.5,2.8-0.5,4.2c-0.5,3.1,1,4.4,3.9,4.6h5.1
	c5-0.7,11.5-0.1,17.1-3.9c10.6-7.3,10.2-21,6.3-30.3c-3.8-9-12.8-12.3-24.3-9.4c-1.3,0.4-2.7,0.8-4,1.3c-6.5,2.3-7.1,3-5,9.3
	C245.9,711,247.1,718.8,244.5,727.2z M215.6,698.5c-11,3.8-21.1,9.3-31.3,14.8c-6.5,3.5-9.3,8.9-9.8,15.8
	c-0.9,9.3,0.9,11.5,10.1,11.8h7.3c9.1-0.7,19.4-1,29.8-2.1c12.3-1.2,16.7-5.7,17.6-18c0.3-2.2,0.3-4.4,0-6.7
	C238.1,700.4,228.4,694.2,215.6,698.5z M185.2,731.8c-1.2-0.4-3.1-0.3-2.9-2.3c0.4-2.1,2.1-3.7,4.2-3.9c1.8-0.3,2.5,1.2,2.5,2.6
	C189,730.5,187.3,731.2,185.2,731.8L185.2,731.8z M91.7,748.5c1.3-0.1,2.9,0.1,4.2,0c11.4-0.8,14.8-4.3,15.1-15.8v-2.3
	c0-1.7,0-3.5-0.3-5.2c-1-9.9-7.4-16.4-15.8-16.6c-5.6-0.1-6.8,0.5-5.9,6.1c1.6,9.8,0,19.2-1.8,28.7
	C86.3,747.3,87.3,749.1,91.7,748.5z M53.7,709.8c-2.9,2-4.8,5.1-5.2,8.6c-1,6.8,0.4,13.6,0,20.4c-0.9,14.1-0.5,14.8,14.1,14.6
	c3-0.3,6.8-0.3,10.6-1.2c2.7-0.5,5-2.2,6.1-4.7c5-10.1,6.5-20.5,3.7-31.5c-1.2-4.4-3.9-8.4-8.6-9.3
	C67.1,705.4,60.1,705.3,53.7,709.8z M35.1,718c-6.1-1.8-12.3,0.1-15.5,5.1c-3,4.7-5.1,9.9-6,15.4c-2.3,12.5-0.4,14.9,12.1,14.9
	c1.4,0,2.9,0,4.3-0.1c8.8-0.4,12.3-3.9,13.1-12.5c0.3-3.4,0.5-6.9,0.5-10.5C43.6,724.2,40.6,719.9,35.1,718z"/>
<path d="M720,275.1c3.6,0.8,7.3,1.1,11,1c15.9-0.4,31.5-4.9,45.2-13c4.1-2.5,7.6-5.9,10-10c7-11.9,3.1-21.8-10.2-25.9
	c-8-2.4-15.9-1.6-24,0c-16.2,3.1-30.5,9.7-41.2,22.9C702.4,260.4,706.9,272.3,720,275.1z M712.3,140.6c-9.5-0.1-16.1,6.5-16.1,16.2
	c0,8.9,8.4,18,16.3,18c8.4,0.1,15.5-7.6,15.5-16.4C728.3,148.1,721.5,140.6,712.3,140.6z M709.9,734.8c-2.5,0.1-3.5,1.8-3.5,5
	c0,1.2,0.5,2.9,2.7,2.7c2.7-0.1,3.1-2.2,3.1-4.4C712.2,736.5,712.2,734.8,709.9,734.8z M665.9,514.5c-6.8,4.6-7.3,9.8-1.4,15.7
	c10.5,10.3,9.8,14.1-3,21.7c-2.9,1.7-5.7,3.9-4.8,7.8c1.4,6.3,10.8,12,17.2,10.7c14.5-3,24-15,24-30.4c-0.1-7.5-2.8-14.8-7.6-20.6
	C683.5,511.5,673.3,509.6,665.9,514.5z M694.3,539c-0.4,9.4-2.6,17-9,22.5c-7.4,6.4-17.4,6.5-23.4,0.5c-2.6-2.6-2.3-5.2,0.8-7.3
	c2.5-1.7,5.2-3.1,7.4-5.1c5-4.3,5.6-11.8,1.3-16.8c-0.8-1-1.8-1.8-2.9-2.4c-3.3-1.8-6.1-4.4-5.2-8.7s4.3-5.6,8.1-6.1
	c10.5-1.6,20.2,6.5,22.3,18.2C694.2,535.7,694.2,537.9,694.3,539z M627.6,198.1c9.3,0.3,16.6-7.2,16.7-17
	c0.1-8.5-7.8-17.6-15.5-17.8c-9.5-0.1-17.9,8.4-17.9,18.1C610.8,190.4,618.3,198,627.6,198.1z M600.9,230.4
	c16.5,1,31.1-3.5,43.7-14.2c14.8-12.4,23.6-27.9,23.9-47.7c0.1-9.7-2-18.8-6.9-26.9c-3.8-6.3-8.2-12-15.5-14.2
	c-5.5-1.6-11.1-2.6-16.8-2.7c-12.9-0.7-24.3,3.3-34.6,11.1c-17.5,13.4-29.4,29.9-30.8,52.9C562.4,209.1,579.8,229.2,600.9,230.4z
	 M629.6,128.8c-1.3,2.9-3.9,3.6-6.1,4.8c-11.1,5.6-21.9,11.6-31.3,20c-4.4,4.1-8.5,8.6-12.3,13.3c-1.7,1.9-3.7,3.8-6.3,6.6
	C574.2,150.6,610.4,124.4,629.6,128.8L629.6,128.8z M572.7,184.7c8.1-13.1,18.8-23.9,30.8-33.4c10.3-8.3,22.4-14.2,35.2-17.3
	c10-2.2,16.2,0.5,20.5,9.8c3.1,6.7,5,13.7,6.7,20.9s-1.6,13.6-3.7,19.8c-6.7,19.6-21.4,31.6-39.2,40.2c-5,2.4-10.8,2.1-17.4,2.1
	c-15.1,0.9-25.7-7.8-33.9-20.1C566.8,199.3,568.2,191.7,572.7,184.7z M186.5,725.5c-2.1,0.3-3.8,1.8-4.2,3.9c-0.3,2.1,1.7,2,2.9,2.3
	c2.1-0.5,3.8-1.3,3.8-3.7C189,726.7,188.4,725.2,186.5,725.5z M720.4,367.7c0.7-3.5,1.8-5.1,5.6-5.4c14.9-0.7,29.9,0.3,44.2-5.2
	c5.6-2.1,6.9-1,8.6,4.8c3,10.7,7.4,21,13.2,30.6c8.1,13.3,18.1,24.7,33.9,28.9c6.7,1.7,13.4,2.6,19.6-1.2
	c9.3-5.7,15.7-13.8,17.4-24.9c2.5-15.7,0.1-31.2-3.7-46.3c-12.7-49.9-24.5-100-35.1-150.4c-5.1-24.9-12-49.5-23.8-72.2
	c-14-26.8-34.6-44.8-65.8-48.6c-15.1-1.8-23.4,2.5-30.4,16.1c-1.3,2.5-3.4,3.1-5.9,3c-8.6-0.9-17.1-2-25.6-2.6
	c-20-1.6-39.7-0.5-58.5,7.4c-16.9,7.1-32.3,17.4-45.3,30.3c-5.5,5.4-6.8,5.9-11,1.6c-8.2-8.4-22.3-6-28.2,4.8
	c-2.3,4.2-4.8,8.5-6,12.9c-2.6,10.3-8.8,17.7-16.8,24.1c-6.7,5.2-10.7,11.9-13.7,19.7c-6.9,18.9-9.5,38.5-9.9,58.5
	c-0.5,22.6,1.5,45.1,5.9,67.2c6.4,33.7,12.4,67.2,11.1,101.7c0,11,0.4,21.9-1.2,32.8c-0.9,6.4-2.8,8.4-9.1,9.9
	c-2.4,0.6-4.8,1.7-6.9,3c-6,3.8-8.6,9.5-10.2,16.1c-0.5,2.7-0.9,5.9-5.1,5.6c-9.7-0.5-15.8,4.2-19.5,12.9c-2.2,5.1-3.7,5.4-8.5,2.5
	s-9.9-2.5-14.9,0.1c-2.8,1.5-5.3,3.5-7.4,5.9c-7.2,7.3-7.3,7.4-16.2,2.1c-7.5-4.3-14.9-5.4-22.5-0.7c-2,1.6-4.8,1.5-6.6-0.3
	c-2.4-1.8-4.8-3.6-7.3-5.2c-5-3.3-9.8-7.4-15.8-7.4c-8.6-0.1-14.9-4.4-21.1-9.5c-5.5-4.5-12.6-6.5-19.6-5.5c-7.8,1-14.6,0-20.2-6.5
	c-4.4-5.2-10.2-9.4-17.1-10.7c-9.8-2-16.2-6.9-20.8-16.5c-7.3-15.3-21.7-21.3-37.7-23.4c-5.1-0.5-9.9-2.4-14.1-5.4
	c-20.2-14.9-43.1-21-68.1-19.6c-8.6,0.5-16.8,3.3-25.4,3.3c-5.9,0-8.3-2.6-6.4-8c2.2-5.7,0.3-9.8-2.6-14.5
	c-5.2-8.5-7.2-17.5-7.2-27.8c0-9.1-0.9-18.3,0.1-27.4c0.1-1.7-0.7-3.8,0.1-5.1c3.7-6.4,3-13.8,5-20.6c0.7-3.1,2-6.1,3.9-8.6
	c1.4-1.7,2.3-3.8,2.6-6c1.6-6.3,4.4-12.4,9.8-15.7c12.5-7.4,21-18.3,28.1-30.4c2.5-4.2,1.6-8.6-1.6-12.4c-3.4-4.1-7.6-7.4-12.3-9.8
	c-13.3-6.3-26-0.8-28.7,12.4c-1,5.1-1.8,10.3-3.4,15.3c-2.6,8-0.8,14.2,5.5,19.6c1.5,1.4,2.8,3,4,4.7c1.2,1.4,2,3.1,0.3,4.7
	c-1.4,1.3-3,0.4-4.3-0.5c-2.3-1.6-4.7-3.3-7.2-4.7c-2.2-1.4-4.3-0.5-5.9,1.4s-1.3,3.8,0,5.7s3.5,3,5.9,3.8c1.8,0.5,3.6,1.2,5.3,2.1
	c1.7,0.9,2.7,2.6,1.4,4.4s-2.9,1-4.2,0c-2.5-2-5.3-3.5-8.3-4.6c-2.2-0.7-4.6-1.4-5.9,1.2s0.5,4.6,2.6,5.7c2.2,1.4,4.8,2.2,7.3,3.3
	c2.9,1.3,3.7,3.6,2.3,6.4s-3.7,1.7-5.6,0.5c-2.2-1.3-4-3-6.3-4.2s-5-3-6.7,0.1c-1.4,2.7-0.1,5.4,2.5,6.9c2.6,1.8,5.9,2.5,8.7,3.5
	s5.6,2.5,4.2,6.3c-1.2,3.1-4.1,3.8-7.2,2.6c-2.6-1-5.2-2.5-8-3.1s-6-0.9-6.9,2.9s2.1,5,5.1,5.6c3.7,0.8,7.4,1.4,11.1,2.5
	c3.4,1,4.7,5.2,3.1,9.1c-1.4,3.5-3.9,4.4-7.2,2.6c-3.7-1.8-7.7-1.6-11.6-2.4c-2-0.3-4.4-1.3-5.2,1.6c-0.8,2.6,0.7,4.6,3,5.9
	c3.4,2,7.2,2.4,11,2.5c8,0.3,10.6,3.4,9.9,11.1c-0.3,3.1-1.8,3.9-4.4,3.5c-1.4-0.3-2.7-0.8-4-1.4c-5.6-2.2-11.3-2.9-17.1-0.3
	c-2.7,1.3-4.6,3.5-1.8,6.4c3.3,3.1,6.9,5.4,11.8,5.6c3.7,0.1,6.9-1.3,10.3-1.7c4-0.3,7.2,2.2,7.2,5.9c0.1,4.2-3.1,3.8-5.8,4
	c-5.3,0.4-10.8,0.4-15.8,3c-3.1,1.6-6.4,3.4-5.8,7.7c0.9,4.7,5.1,5.2,8.9,5.6c1.2,0,2.2-0.4,3.4-0.4c6.3-0.6,11.6-3.9,17.4-6.3
	c4-1.7,6.4,0.4,6,4.7c-0.3,2.9-1.8,4.8-4.7,5.2c-5,0.6-9.8,1-14.8,1.6c-6.1,0.7-10.6,4-13.7,9.1c-2.4,3.7-1.2,6.3,3,7.7
	c2.5,0.9,5,0.4,7.6,0.4c1.2,0,2.7-0.4,3.4,1c0.7,1.7-0.7,2.7-1.7,3.5c-1.8,1.6-3.8,2.9-5.8,4.3c-26,17.6-40.9,41.6-43.2,73.1
	c-0.5,7.6-0.1,15-0.5,22.4c-0.1,3.1-0.3,6.1-3.8,8.1C5.1,536.9-1,551.4,0.1,569.4c1.6,23.8,5.3,47.3,7.4,71c0.6,6.7,3,11.5,8.6,14.9
	c1.9,1.1,3.8,2.4,5.5,3.8c1.7,1.3,2.7,3.2,2.7,5.3c0.5,15.8-0.3,31.5-6.8,46.3c-2.1,4.7-3.8,9.7-5.6,14.6c-2.4,5.9-4.1,12-5.3,18.3
	c-1.6,10.4,1.4,13.7,11.7,15.3c6.9,1,13.6-0.3,20.4-0.1c15.1,0.4,30.4,1,45.6-1.2c6-0.8,12-1,17.9-2.2c4-0.7,7.5-3.1,9.4-6.7
	c7.2-11.5,5.7-30.4-3.3-40.7c-4.4-5-9.7-7.3-16.6-5.7c-2.8,0.5-5.7,0.6-8.5,0.4c-5.5-0.3-10.8-5-10.2-8.6c1.6-9.5,1.4-19.1,1.6-28.6
	c0.1-4.3-0.5-9.4,2.6-12.8c4.6-5,4.6-10.6,4-16.5c-0.8-10-1.2-20-3.1-29.9c-0.8-4,0.8-5,4.3-3.7s7.5,2.7,11.1,4.2
	c19.6,7.8,39.8,9.4,60.4,6.5c7.4-1,9.8,0,12.9,6.5c3.3,6.8,5.1,14.1,7.7,21c1.6,4.3,2.7,9,6,12.3c4.2,4,4.8,8.9,4.2,14.1
	c-1.3,10.2-3.6,20.3-6.8,30.2c-3.3,11.1-7.7,21.9-9.8,33.4c-2.1,11.8,0,14.4,11.8,14.8c1,0.1,1.9,0.1,2.9,0
	c18.1-0.1,36.3-0.1,54.6-3.5c14-2.6,28.5-0.9,42.7-2.3c7.4-0.8,12.4-3.7,15-11c2.2-6,3.2-12.3,3-18.7c-0.3-8.5-5.2-14.5-13.6-16.2
	c-2.6-0.5-5.4-1.2-7.4-2.8c-10.2-7.2-20.6-6.3-31.3-1.8c-3.2,1.4-6.6,2.2-10.1,2.5c-4.2,0.1-6-1.7-5.4-5.8c1-6.9,2.4-13.7,3.8-20.6
	c0.8-3.5,2.7-4.8,6.1-2.5c4.8,3.5,10.2,3.1,15.5,1.7c4.4-1.2,8.1-3.7,11.6-6.5c1.6-1.3,3.1-2.6,4.7-4c2.6-2.3,4.8-2.5,6.5,1.2
	c1.6,3.3,3.4,6.4,5.1,9.7c5,9.4,11.4,17.6,21.1,22.7c8.9,4.6,17.5,4,25.3-2.3c3.1-2.5,5.8-5.5,8.6-8.2c7.7-7.7,7.7-7.7,12.8,1.8
	c5,9.3,11.4,17.2,20.2,23c9.5,6.3,18,5.5,26.4-2.5c3-2.8,5.5-6.1,7.4-9.8c1.8-3.7,3.9-3.9,6.8-1.2c4.3,4,8.5,8.1,13,11.9
	c5.5,4.3,9.3,3.9,14.2-1c4-3.9,6-9,6.9-14.4c2.9-17.7,3.5-35.8,1.6-53.7c-3.9-36.7-13.6-71.8-33.2-103.7c-1-1.6-2.5-3.1-1.2-5.2
	c3.4-5,6.6-10,12.4-12.9s12-1.7,15.8,3.3c2.5,3.4,2.5,7.6,2.4,11.5c-0.1,17.8,1,35.6,3.3,53.3c3.8,29.9,10.6,59.1,22.2,87.1
	c4,9.5,8.7,18.7,18.4,24c2,1,2.5,3.1,2.9,5.4c0.8,6.4-0.1,12.7-0.3,19c-0.1,4.6-2,9-5.4,12.3c-3.2,3.2-5.1,7.4-5.6,11.8
	c-1.4,11.9-2.1,23.8-0.8,35.6c0.4,3.7,2.1,6.9,5.2,8.6c7,3.7,14.5,6.5,22.3,3c4.3-2,8.1-1.4,12.4-0.1c9,2.9,18,3.7,26.9-0.5
	c2.3-1.1,5-1.3,7.4-0.7c5.6,1.7,11,1,16.5-0.5c3.4-0.9,6.8-1.5,10.3-1.7c10.8-0.9,18.7-7.7,21-18.3c1.4-6.1,1-12.3,1.2-18.5
	c0-11.5-5-19.7-15.5-24.4c-3.5-1.6-6.7-3.9-9.9-5.7c-5.8-3.6-12.6-4.9-19.3-3.7c-9,1.8-9.3,2.9-9.5-8.2c-0.1-1.1-0.1-2.2,0-3.3
	c0.8-15.9,1.4-31.7,2.3-47.7c0.7-10,1.3-20.2,2.7-30.3c0.7-4.4,2.6-5.4,6.4-3.5s7.3,3.1,11,4.7c25.4,11.5,53.7,15,81.1,9.9
	c11-2,20.9-6.5,30.7-11.3c5.7-2.8,7.6-1.6,7.8,4.7c0.8,26.8,3.3,53.5,8.9,79.9c0.8,3.5,0.5,6.4-2,9.1c-2.6,3.1-4.1,7-4.2,11
	c-0.3,4.8-0.4,9.5-0.8,14.2c-0.9,9.5,3.3,15.5,12,18.8c27,10,53.9,21.2,83.9,17.8c5.3-0.7,10.8-0.4,15.3-4.3
	c3.7-3.1,7.8-3.9,12.4-3.4c3.4,0.4,6.8,0.7,9.8-1.3c4.2-2.9,9-3.9,14-4c8.5-0.5,13.8-5,17.5-12.1c6.4-12.8,3.3-36.8-6.3-47.4
	c-3.5-3.8-7-8-13.1-8s-11.7-0.3-17.6-0.5c-7.8-0.2-15.5-0.8-23.2-1.8c-6.9-1-14.2-1.8-20.8,2.6c-3,2.1-6.9,2.2-10.6,2.1
	c-11.9-0.3-12.5,2.5-15.5-12.8c-6.7-35.2-9.7-71-10.6-106.9c-0.2-6.4,1.2-12.8,3.9-18.5c10.4-22.6,17-46.1,13.7-71.5
	c-2.7-21-9.5-40.3-22.7-57.3c-2.9-3.7-5.5-7.4-6.8-11.9c-2.2-7.7-5.8-14.9-10.5-21.3c-2-2.6-2.6-5.9-1.7-9
	C717.2,381.7,719,374.8,720.4,367.7z M99.2,249.7c0.4-6.9,1.8-13.6,5.5-19.4s8.2-6.6,15.3-3.1c6.8,3.4,9.5,8.5,7,14.4
	c-2.3,6.1-5.5,11.8-10.3,16.3c-3.1,3-6.7,5.1-11.1,3.1C100.8,258.7,99,254.8,99.2,249.7L99.2,249.7z M69.8,364c-2.6,0.3-5-1-5.2-3.1
	c-0.4-2.4,2.3-1.7,3.9-1.7c2.2-0.1,5.6-0.5,6,2.2C74.9,363.6,71.9,363.9,69.8,364z M75.2,388.4c-0.7,0.3-1.5,0.5-2.3,0.5
	c-2.6,0.5-5.8,1.2-6.3-2.6c-0.5-3.5,2.3-4.4,5.1-4.8c0.8,0,1.6-0.1,2.3-0.3c2.9,0.5,7.3,0.3,7.7,3.1S77.7,387.5,75.2,388.4
	L75.2,388.4z M87.2,743.3c1.8-9.5,3.4-18.9,1.8-28.7c-0.9-5.6,0.3-6.3,5.9-6.1c8.3,0.1,14.8,6.7,15.8,16.6c0.2,1.7,0.3,3.5,0.3,5.2
	v2.3c-0.4,11.5-3.8,15-15.1,15.8c-1.3,0.1-2.9-0.1-4.2,0C87.3,749.1,86.3,747.3,87.2,743.3L87.2,743.3z M381.8,514.9
	c2.2-1.3,4.7-1.7,8.4-1.6c3,0,6.4,1.3,9.7,3.5c5.9,4.2,7.3,8.1,4.6,14.9c-1.8,4.4-3.9,8.9-6,13.3c-1.2,2.6-2.9,3.1-4.4,0.4
	c-4.8-8-9.6-15.9-14.4-24.2C378,518.7,379.3,516.5,381.8,514.9z M347.5,503.6c8.2,2.6,15.4,6.8,21,13.3c1.4,1.3,1.4,3.5,0.1,4.8
	c-0.1,0.1-0.2,0.2-0.3,0.2c-2.6,3.1-5.4,6.3-8.1,9.4c-0.7,0.7-1.6,1.6-2.2,0.4c-4.8-8.3-9.5-16.7-13.6-24.1
	C344.4,504.2,345,502.8,347.5,503.6z M302.3,489.1c2.6-0.4,5.4-0.4,8-0.7c7.3-0.4,13.5,1.8,18.3,7.4c2,2.1,2,3.9-0.8,5.2
	c-6.6,3.4-13.3,6.6-20,10c-2.1,1-3.3,0.5-4-1.6c-1.9-5.2-3.4-10.6-4.4-16.1C298.8,490.9,300,489.5,302.3,489.1z M263.4,468
	c9.9,2.2,18.9,6.1,24.9,15c1.7,2.6,2.1,4.7-1,6.8c-5.9,4-11.5,8.5-17.2,12.7c-3,2.2-5.1,2.1-5.9-2.4c-1.4-9.4-2.5-18.8-4.8-26.6
	C259.1,469.1,260.2,467.2,263.4,468z M255.6,472.8c2.6,6.5,3.3,13.3,3.9,20.1c0.3,3.7,0.5,7.3,0.8,11c0.4,5-1.6,9.3-4.6,13.2
	c-11.6,15.3-20.5,32.1-28.1,49.6c-0.6,1.6-1,3.9-3.4,3c-1.8-0.8-1.2-2.8-0.8-4.2c0.5-1.8,1.2-3.6,1.9-5.3
	c13.3-24.9,17.2-51.2,12.7-78.9c-1.4-8.2,0.1-10.6,8-12.9C250.9,467,253.8,468.2,255.6,472.8L255.6,472.8z M259.6,531.8
	c-3,20.4-6.4,43-17.5,63.4c-2.7,5-3.5,4.8-6.3,0c-5.9-9.9-7.6-19.7-2.1-30.7c6-11.8,11.2-23.8,18.4-34.9c0.5-0.8,1.1-1.6,1.7-2.3
	c1.3-1.4,2.3-3.5,4.6-3.8C259.6,523.3,259.9,524.9,259.6,531.8L259.6,531.8z M225.7,607.2c1.1-2.2-0.5-6.4,2.2-6.3s2.2,4.3,2.1,6.9
	c-0.1,2,0,5.5-2.6,5.1C225.1,612.7,226.4,609.2,225.7,607.2z M226.6,664.9c0.1,7.6-2.2,14.6-4.8,21.7c-0.8,2.1-2.5,3.8-4.7,4.4
	c-8.5,2.8-16.1,7.4-24.4,10.6c-5.9,2.3-7.1,1.3-6.5-4.8c0.8-7.2,3.7-13.8,4.8-20.9c0.5-3.1,0.7-6.3,0.5-9.4
	c-0.1-3.9,1.4-6.1,5.2-6.7c7.4-0.8,14.9-1.7,20.4-2.3C225.3,657.5,226.6,658.7,226.6,664.9z M195.3,585.2c-3.2,2.7-6.6,5-10.2,7
	c-2.7,1.6-4.2,0.9-4.6-2.1c-0.8-7.3-0.3-14.1,6-19.5c23.9-20.4,32.4-47.4,33.2-77.7c0.1-4,0.6-7.8,4.4-10.4s5.6-2.1,6.9,2.4
	c1.4,5.2,2,10.7,1.8,16.1C231.7,534.1,221.4,563.2,195.3,585.2z M221.5,583.2c-1.7,10.4-1.8,21-2.2,31.7c-0.3,6.3-3,10.7-9.1,12.9
	c-6.5,2.3-12.5,1.7-17.6-3.3c-4.2-3.8-6.9-8.6-9-13.8c-1.2-2.8-0.8-5.4,2-7c10.4-6.8,18.9-15.8,27.8-24.5c1.6-1.4,3.3-4.2,5.9-3.1
	C222.1,577.2,221.8,580.3,221.5,583.2L221.5,583.2z M182,557.8c2.4-13.1,6.8-25.5,12.3-37.5c3.8-8.4,8-16.6,14.1-23.6
	c0.9-1.2,2-2.6,3.8-2.4c1,0.3,1.6,2.1,1.6,4.8c-3.7,22.1-8.9,43.5-25.2,60.3c-0.3,0.4-0.6,0.7-1,1c-1.6,1.3-2.9,3.9-5,2.9
	S181.6,559.7,182,557.8z M215.1,433.5c0.6-1.2,2-0.8,3.3-0.8c3.9,0.4,7.7,2.2,11.2,4.2c9.1,5.2,16.3,12,20,22.2
	c1.3,3.7,0.3,5.4-3.3,6.8c-10.8,4.4-11,4.6-16.2-5.9c-4-7.7-8.7-15.1-14-22.1C215.3,436.8,214.2,435.2,215.1,433.5L215.1,433.5z
	 M202.1,435.3c3,1,4.6,3.3,6.3,5.2c6.8,7.7,12.5,16.4,16.8,25.7c0.6,1.3,1.1,2.6,1.3,4c0.4,2.5-3.1,8-5,8c-3.4-0.3-3.1-3.3-3.7-5.4
	c-2.9-11.5-7.7-22.5-14.1-32.5c-0.7-1.1-1.3-2.2-1.7-3.4C202,436.5,202,435.9,202.1,435.3L202.1,435.3z M197.7,443.7
	c6.3,9.6,11,20.1,14,31.2c1.3,5,0.5,9.3-3.1,13c-20.1,21-30.1,46.7-34.1,75.1c-0.9,6.8-4.4,11.4-10.6,14c-6.8,2.7-14,4.4-21.3,5
	c-4.7,0.5-7.4-1.3-8.9-5.9c-4.2-12.7-5.6-25.7-5.6-40.6c-0.1-16.3,2.8-32.5,8.6-47.8c8.2-22.3,24-37.9,44.8-48.4
	C189.8,434.9,192.6,435.8,197.7,443.7L197.7,443.7z M178.6,425.9c5.4,3.9,5.4,6.9-0.3,9.3c-30.7,12.5-45.9,37.6-54,67.7
	c-6.3,22.9-6.3,47.2,0,70.1c2.1,7.4,0.1,8.9-7.2,6.4c-21.7-7.4-35.5-22.7-44.6-43.1c-5.9-13.3-9-27.1-8.1-42
	c-0.7-24.4,6-46.7,25.2-63C116.1,408.7,148.6,404.5,178.6,425.9L178.6,425.9z M72.8,410.2c-2.6,0.1-3.9-0.1-4.6-1.7s0.1-2.6,1.2-3.4
	c4.4-3.2,9.7-4.7,15.2-4.4c2.2,0,3.5,1.3,1.3,3.3C82.1,407.1,77.7,409.3,72.8,410.2z M43.1,740.8c-0.8,8.6-4.3,12.1-13.1,12.5
	c-1.4,0.1-2.9,0.1-4.3,0.1c-12.5,0-14.5-2.3-12.1-14.9c0.9-5.5,3-10.7,6-15.4c3.3-5,9.4-6.9,15.5-5.1c5.5,1.8,8.5,6.1,8.5,12.3
	C43.6,733.8,43.3,737.4,43.1,740.8z M38,710.8c-6.4-1.2-8.1-3.5-7.2-9.9c1.5-10.2,2.3-20.4,2.5-30.7c0.1-4,1.6-5.8,5.7-5.5
	c3.4,0.3,6.9,0.1,10.4,0.1V664c3.8,0,7.6,0.1,11.4-0.1c3-0.1,4.6,1.2,5,3.9c1.4,8.3,1.2,16.8-0.4,25.1c-0.9,3.8-3.8,6.3-7.3,7.7
	c-3.7,1.7-7.1,4-10,6.9C45.2,710.1,41.9,711.5,38,710.8L38,710.8z M74.3,706.9c4.7,0.9,7.4,4.8,8.6,9.3c2.9,11,1.3,21.4-3.7,31.5
	c-1.2,2.5-3.4,4.2-6.1,4.7c-3.8,0.9-7.6,0.9-10.6,1.2c-14.6,0.1-15-0.5-14.1-14.6c0.4-6.8-1-13.6,0-20.4c0.4-3.5,2.3-6.6,5.2-8.6
	C60.1,705.3,67.1,705.4,74.3,706.9L74.3,706.9z M64.6,651.5c-12.4,4-25.1,5.2-37.8,0.9c-6.7-2.3-10.7-6.3-11.8-13.4
	c-3.1-20.9-5.1-41.9-5.7-63c0-7.8-0.3-15.5,2.1-23.1c1.2-4,3.2-7.7,6-10.8c8.9-9.7,18.8-9.9,28.1-0.7c10.2,10.2,15.8,23,20.4,36.3
	c6.4,19.1,9.1,38.8,9.3,59C75.1,645.7,73.1,648.9,64.6,651.5L64.6,651.5z M140.2,606.5c-1.6,2.9-5.9,2.1-8.9,2.1
	c-17.1-0.4-32.9-5.6-47.9-13.1c-5.2-2.5-7.7-7.3-9.8-12.4c-5.1-12.9-11.5-25.3-18.9-37c-4-6.3-8.4-12.4-14.2-17.1
	c-6.4-5.1-8.4-11.6-7.6-19.5c3.3-32.4,14.8-60.4,41.4-80.7c3.3-2.4,6.5-5.1,11.5-6.1c-1.4,3.3-3.5,6.3-6.1,8.8
	c-19.2,19.8-24.4,43.9-22.2,70.4c1.2,14.1,4.8,28,10.7,40.9c6.8,14.5,17,26.1,30.9,34.1c5.9,3.4,12.3,6,18.9,7.6
	c8.6,2,14.8,6.1,18.7,13.8C138.1,601,141.9,603.5,140.2,606.5L140.2,606.5z M152.9,602.3c-4.3-2.5-8.1-5.9-10.9-10
	c-1.6-2-2-3.7,1.2-4.4l25.1-5.5c2.1-0.5,3.4,0.7,3.5,2.9c0.3,1.8,0.4,3.7,0.5,4.2C172.3,601.5,162.3,607.5,152.9,602.3L152.9,602.3z
	 M177.5,631.8c-2-5.3-4.2-10.7-5.4-16.2c-0.4-1.6-1.1-3.5,0.8-4.3s2.7,1.2,3.4,2.5c1.8,3.1,3.3,6.5,5.1,9.7
	c6.5,11.3,15.9,15.7,28.9,13.3c1.8-0.4,3.8-0.7,5.6-0.9c3.8-0.8,5.5,1.4,6.3,4.8s-0.4,5.9-3.9,6.9c-4.6,1.4-9.5,2-14.4,1.7
	C184.9,649.3,183.9,648.6,177.5,631.8L177.5,631.8z M280.1,729.8c1.3-3.9,3-7.8,3.9-11.8c1.2-4.3,1.7-8.7,0-13c-0.4-1.4-1-3,0.5-3.9
	s2.7,0.5,3.6,1.4c3.8,3.7,3.3,8.5,3.4,11.2c0.3,8.5-1,14.8-6.9,19.1c-1.3,0.9-2.7,2.2-4.3,1.3S279.8,731.2,280.1,729.8L280.1,729.8z
	 M248,693.6c1.3-0.5,2.7-0.9,4-1.3c11.5-2.9,20.5,0.4,24.3,9.4c3.9,9.3,4.3,23-6.3,30.3c-5.6,3.8-12.1,3.3-17.1,3.9h-5
	c-2.9-0.1-4.4-1.4-3.9-4.6c0-1.4,0.2-2.8,0.5-4.2c2.6-8.3,1.4-16.2-1.4-24.3C241,696.7,241.5,696,248,693.6z M239.3,714
	c0.3,2.2,0.3,4.4,0,6.7c-0.9,12.3-5.4,16.8-17.6,18c-10.3,1-20.6,1.4-29.8,2.1h-7.3c-9.1-0.3-11-2.5-10.1-11.8
	c0.5-6.9,3.3-12.3,9.8-15.8c10.2-5.5,20.4-11,31.3-14.8C228.4,694.2,238.1,700.4,239.3,714z M233.8,639.2c-0.8,0.5-1.9,0.4-2.4-0.4
	c0,0,0-0.1-0.1-0.1c-2.5-2.6-3.6-6.1-3.1-9.7c0.2-1.1,0.7-2.1,1.3-3c1.3-1.6,2.6-3.9,4.8-3.4s2.2,3.1,2.5,5.2c0.1,1,0.1,1.9,0,2.9
	C236.8,633.9,236.9,637.1,233.8,639.2L233.8,639.2z M273.9,637.9c0.2,1.2,0.1,2.4-0.1,3.7c-2.1,7.2-15.4,16.8-22.8,16.8
	c-4.8,0-8.9-2.1-12.8-4.6c-2.4-1.6-2.6-3.4-1.1-5.6c1.3-2.2,2.5-4.4,3.8-6.7c3.1-5.1,4.4-10.4,3-16.5c-2.5-10.3-0.6-20,4.1-29.5
	c9.3-18.7,12.9-38.8,14.8-59.3c0.3-3,0.9-6.1,0.6-9c-1.2-19.2,14.4-25.6,26.1-34.7c2.2-1.7,4.3-0.4,5.4,2c2.8,5.9,4.6,12.2,5.5,18.7
	c0.5,3.9-1.8,7-3.9,10.1c-5,6.8-10,13.4-13.4,21.3c-8.1,18.4-10,38-11.1,57.7C271.1,614.2,271.4,626,273.9,637.9L273.9,637.9z
	 M280,629.8c-2.2-0.3-2.2-2.9-2.5-4.7c-3.9-32.2-1.3-63.4,15.7-92.2c1.4-2.6,2.9-6.9,6.5-5.9s1.8,5.2,2.1,8s0,5.5,0,8.1
	c-0.3,28.8-6.8,56.4-18.5,82.6C282.6,627.5,282.2,630.1,280,629.8L280,629.8z M325.4,679.9c-3.4,1.8-6.5,2.9-8.6,2.7
	c-4.4-0.3-8.7-1.9-12.1-4.7c-10.4-7.7-16.7-18.4-21.1-30.4c-1.6-4.4-0.4-8.4,1.6-12.4c8-16.8,15.5-33.8,18.8-52.2
	c3-18,3.6-36.4,1.8-54.6c-0.6-7.2,1.4-12.5,7.6-16.2c5.9-3.3,11.8-6.4,18.1-8.4c3.4-1,5.9-0.4,7.8,2.6c6.3,9.4,11.4,19.4,15.3,30
	c1.2,3.5-0.1,6.8-1.4,9.7c-11.4,26.1-15.4,53.4-14.1,81.5c0.4,7.8,1.2,15.5,2.1,23.2C342.4,663.2,336.8,673.9,325.4,679.9
	L325.4,679.9z M348.9,644.6c-1.7-0.1-2-2-2.2-3.3c-1.6-8-2.3-16.2-2-24.4c-0.1-21.3,1.8-39.2,7.4-56.5c1-3,1.8-8.1,4.6-8.1
	c3.8,0.1,3.8,5.4,4.6,8.5c5.1,22.5,2,44.5-3.9,66.2c-1.4,5.2-3.4,10.3-6,15C350.8,643.1,350.4,644.7,348.9,644.6L348.9,644.6z
	 M396,692.9c-4.7,5.8-11.4,7.4-17.8,3.7c-12.4-7.1-21.8-18.5-26.4-32c-1.4-4.2-0.3-8,1.3-11.6c5.5-12.8,10.3-25.7,12.8-39.4
	c3.7-20.9,3.5-41.6-3-62.1c-3.3-10.1,0.7-21.2,9.7-27c1-0.7,2-1.3,2.9-0.1c8.1,10,15.4,20.5,18.7,33.3c0.1,0.4,0,0.7,0,1.4
	c-1,6-2.4,12.4-3.1,18.8c-3.9,29.6-1,58.7,9.9,86.5C405.3,675.6,403.2,684.2,396,692.9L396,692.9z M407.4,662.2
	c-1.8,0.3-2.6-1.8-3.1-3.1c-4-10.2-6.1-20.8-8.1-31.3c-3.4-18-1.7-36,0.1-54c0.3-1.6,0.3-4.2,2.2-4.3s2.2,2.3,2.9,3.9
	c5.5,14.5,6.8,29.6,7,44.9c0.1,5.1,0.1,10.2,0.1,15.3h0.3c0,8.2,0.1,16.5,0,24.7C408.9,659.6,409.4,661.9,407.4,662.2L407.4,662.2z
	 M413.9,534.8c5.1,7.8,8.5,16.5,11.7,25.1c9.7,25.7,16.3,52.1,18,79.6c0.1,3.3,0,6.7,0,10c0.1,10.8-0.6,21.5-3.7,32
	c-1.4,5-3.3,10.3-8.7,11.6s-8.6-3.4-12-6.5c-5.5-5.2-8.1-11.4-7.2-19.3c3-22.3,2.4-44.7-0.6-67c-1.5-11.3-4.5-22.4-8.8-33
	c-2.3-5.5-2.6-11.6-0.9-17.2c1.5-5.2,3.6-10.2,6.1-15C409.9,531.1,411.6,531.1,413.9,534.8L413.9,534.8z M711.4,92.3
	c2.5-3.6,6.5-5.8,10.8-6c3.1-0.3,6.3-0.4,9.9-0.5c17.6,0.1,31.3,9.9,44.4,20.9c12.1,10.3,18.5,24.1,23.4,39.2
	c12.5,39,23.5,78.4,31.3,118.8c5,25.2,12.7,49.9,18.7,74.8c3.4,13.9,5.2,28.2,5.4,42.6c-0.1,6.2-1.3,12.4-3.5,18.1
	c-6,15.7-17.4,17.2-32.2,11.5c-2.8-1.3-5.3-3-7.6-5.1c-13.8-12.3-22.8-27.4-27.7-45.3c-1.6-5.6-0.8-10.4,3-15.1
	c3.1-3.8,6-7.8,8.7-11.9c3.4-5.2,4.7-11,5-17.2c0.4-12.3-0.4-24.7,1.7-37.1c0.7-4.7,2-9.3,3.8-13.7c6-15.4,4.4-30.5-2.1-45.3
	c-3.3-7.4-5.6-15.3-6.8-23.4c-3-18.8-8.9-36.8-21.8-51.6c-15-17.4-32.1-32.1-53-42c-2.9-1.3-5.9-2.4-8.9-3.3
	C709.7,98.9,708.8,96.1,711.4,92.3z M763.6,168.4c-1.2,5-4.6,8.2-8.5,11.1c-10.8,8.1-22.7,7.4-35.1,4.3
	c-21.3-5.2-35.5-19.6-47.1-36.9c-4.8-7.1-2.5-13.2,5.6-15.8c9.8-3,19.8-5.6,26.9-5.2c16.5,0.1,29.1,2.5,41,7.8
	C759.7,139.7,766.9,154.2,763.6,168.4z M702.6,106.2c14.5-0.4,26.8,5.3,38.1,14c0.5,0.4,1,0.8,1.4,1.2c0.8,1,2,2,1.2,3.4
	c-0.7,1.2-2.1,0.4-3,0.3c-5.2-0.9-10.3-2-15.5-2.7c-17.6-2.9-34.7-0.4-51.3,6.1c-4.6,1.8-5.2,1.2-4.4-3.8c0.5-4.3,3-7.4,6.3-10.2
	C683.4,107.9,692.8,106.1,702.6,106.2L702.6,106.2z M563.9,147.1c1-1.7,2.7-3,4-4.6c0.4,0.3,0.7,0.5,0.9,0.6
	c-2.5,4.3-5,8.5-7.2,12.8c-5.1,9.3-8.9,18.9-10.3,29.5c-0.5,2.5-0.4,5.1,0.3,7.6c0.3,1.1,0.5,2.4,1.8,2.5s2-1,2.3-2.1
	c1.3-2.9,2.3-5.9,3-9c6.7-28.1,23.2-48.6,47.9-63.1c3-1.7,6-3.5,8.9-5.5c1.2-0.9,3.1-1.7,1.8-3.7c-1-1.6-2.6-1.7-4.3-0.9
	c-1.3,0.5-2.6,1.7-4.6,1.3c0.5-2.3,2.6-2.5,4.2-3.1c13.8-6.3,28.6-9.4,43.6-11.2c2.6-0.4,4.7-0.1,5.7,2.9c1.3,3.3,4.4,2.5,7,2.7
	s6.7-1.2,7.7,1.7c0.9,2.2-3,3.5-4.6,5.4c-7.2,7.8-9,17-6.7,27c1.5,5.6,4.1,10.8,7.6,15.4c8.9,12.5,20.1,22.7,34.1,29.1
	c12.9,5.9,27.2,8,41.4,4.6c15.3-3.8,23.5-20.8,17.5-35.5c-1.8-4.7-1.8-4.7-1-9c2.1,0.5,3.1,2.1,4.2,3.6
	c8.9,13.4,15.6,28.1,19.8,43.6c0.4,1.2,1,2.6,0,3.6s-2.5,0.4-3.5-0.3c-6.8-4.7-14.1-4.2-21.9-3.8c-13.9,1-27.9,1.3-41.9,0.9
	c-25.5-0.9-47,8.5-66.4,23.4c-12.8,9.8-26.1,18-41.6,22.4c-5.2,1.5-10.3,3.6-15,6.3c-9.8,6-13.8,14.6-12.8,26.1
	c1.8,21.5,15.5,35.2,31.2,47.5c13.2,10.2,28.3,17.6,43.2,24.9c2.9,1.3,5.7,2.9,8.5,4.4c0.9,0.5,2.3,0.9,2.1,2.4s-1.8,1-2.9,1.2
	c-7.6,0.7-15.3,0.5-22.8-0.5c-35.8-4.3-64.7-20.6-85.4-50.5c-12.3-18-17.2-38.5-17.4-60c-0.1-15.4-1.3-30.9,1.8-46.1
	C547.5,175.4,554.9,160.9,563.9,147.1z M549,296c23.6,38.1,57.8,58.2,102.3,61.5h1.4c3.5,0.4,7.4,0.9,7.4,5.5s-2.7,6.3-7,6.8
	c-3.3,0.5-6.7,0.3-9.9-0.4c-10.6,0-21.3,0.3-31.8,0c-16.6-0.6-32.1,3-47,10.2c-5.5,2.5-6.3,2.5-7.6-3.4
	c-8.6-36.4-21.4-71.9-27.4-109c-4.2-25.9-4.3-51.8,1.3-77.7c1-5.1,2.9-10.1,5.7-14.5c0.9-1.2,1.8-3.3,3.5-2.6s0.9,2.7,0.5,4.2
	c-2,8.9-5.5,17.2-6.4,26.4C530.9,235.2,531,267.1,549,296z M665.7,376.3c0.7-3.4,1-6.9,1.4-10.3c0.1-3.3,2.4-6.1,5.6-6.9
	c11.3-3.5,22.7-3.6,34.3-1.6c3,0.5,3.8,2.2,3.7,5.1c-0.7,6.9-1.3,13.8-3.3,20.6c-3.7,12.1-7.6,24.1-11.9,36.2
	c-3.4,9.9-9.1,16.3-18,15.1c-9,0.1-15.1-0.4-20.1-5.5c-6.5-6.8-7.6-10.6-3.4-19.1C659.5,399.3,663.4,388,665.7,376.3L665.7,376.3z
	 M492.7,288.7c-1.7-28.5-0.8-56.9,6.3-84.8c2-7.6,6.1-13.8,9.8-20.5c0.5-1,1.3-2.2,2.5-2c1.6,0.5,1.4,2.1,1.3,3.3
	c0,2-0.4,3.9-0.6,6.4c2.1-0.8,3.8-2.3,4.8-4.3c6-10.6,12.1-21.1,15.4-33.2c1.8-6.3,6.8-10.7,12.3-14c2.3-1.3,5.1-1.2,7.3,0.3
	c2.9,1.8,2.6,4.6,0.3,6.4c-25.5,18.4-28.3,46.6-31.8,74.4c-3.8,29.9,1,58.9,9,87.6c6.9,25.2,13.8,50.6,18.9,76.2
	c5.5,28.3,6.7,56.9-2.3,84.9c-3,9.3-5.4,18.9-11.8,26.8c-3.9,4.9-9.7,8.1-15.9,8.7c-5.9,0.5-8.6-1.6-9.3-7.4
	c-1.8-16.6-1.3-33-0.8-49.6c1.1-28.6-0.3-57.2-4.4-85.5C500,337.7,494.4,313.4,492.7,288.7L492.7,288.7z M476.6,489.7
	c1.2-4.4,2.1-9,4.3-13c0.8-1.7,1.9-3.2,3.3-4.6c1.3-1.7,3.6-2.3,5.6-1.4c2.2,0.8,1.6,2.9,1.7,5.1c-1.2,8.6-3.2,17.1-5.9,25.3
	c-1,3.1-2.6,3.1-4.7,1C477.4,498.8,475.5,495,476.6,489.7L476.6,489.7z M476,504.2c1.8-0.5,2.9,1.2,3.8,2.5c3.8,5.4,5.9,11.6,7.3,18
	c2.6,10.5,6.3,20.6,11.2,30.2c1.6,3.1,3.3,6.3,2.9,9.9c-0.3,5.1-1.3,10.1-3,14.9c-0.3,0.9-0.8,2.1-1.4,2.2c-1.3,0.3-1.8-1-2.4-2
	c-4.6-8.2-7.7-17.1-10.6-26c-4.7-14.1-7.7-28.8-9.1-43.6c-0.1-0.6-0.1-1.3,0-2C474.8,506.9,474.2,504.9,476,504.2L476,504.2z
	 M458.4,495.8c5.2-3.6,10.7-1.7,11.5,4.6c1.3,11.5,1.4,23.1,3.8,34.5c3.8,18.6,10.4,36.4,19.6,53c4.4,7.8,4.2,21-0.1,29.8
	c-2.2-3.4-2.7-6.9-3.6-10.2c-6.9-27.5-17-54-30.2-79.1c-1.6-3-3.5-6-5.4-8.9C448.9,511.6,450.9,501.3,458.4,495.8L458.4,495.8z
	 M488.8,676.5c-2.1,0.5-3.3-1-4.4-2.3c-5.8-5.5-9.3-12.5-12-19.8c-9.3-24.5-15.1-50.1-18.9-76.1c-2.2-15.2-3.6-30.6-4-46
	c0-1.8-0.9-4.8,1.3-5.5s3.4,2.3,4.6,4c6,9.3,10.2,19.5,14.2,29.5c8.9,22.5,16.4,45.5,22.3,68.9c1.4,6,1.3,12.3,1.3,18.4
	c0.3,8.1-0.3,16.2-1.6,24.2C491.2,673.8,491,675.9,488.8,676.5L488.8,676.5z M516.7,745.1c0.4,7.9-0.4,15.8-2.3,23.5
	c-2.1,8.1-7.3,11.5-16.8,11.2c-8.4-0.1-12.7-3.4-13.8-12c-1.8-11.3-1.3-22.9,1.3-34.1c1.4-6,5.6-9.4,11.8-10.2
	c2-0.3,4.1-0.4,6.1-0.4c9.5,0.1,13.6,4,13.8,13.7C516.9,739.5,516.8,742.1,516.7,745.1L516.7,745.1z M504.1,714.9
	c-2.5-0.4-4.6-2.3-5.1-4.8c-2.1-7.6,0-14.9,0.3-22.3c0.8-17.8,2.1-35.5,2.7-53.3c0.6-16.8,2-33.5,5.1-50.1
	c1.6-8.2,1.4-16.7,3.5-24.9c1.2-4.6,2.9-8.7,6.5-12c4.8-4,8.6-4.2,12,1.2c9.5,15,18,30.4,17.6,55.9c0,8.8-3.4,24-4.3,39.5
	c-1,19.2-2.2,38.4-3.1,57.6c-0.1,4-1.2,6.1-5.7,6.1c-5.4,0.2-10.7,1.8-15.4,4.6C513.9,714.7,509.2,716,504.1,714.9L504.1,714.9z
	 M587.3,749.2c0.3-3.4,0.5-6.7,0.8-9.3c-0.1-3.8-0.4-6.8,0.3-9.8s2-3.3,3.9-1c2.2,2.1,3.7,4.8,4.3,7.8c1.8,10.6,1.2,20.9-3.1,30.8
	c-1.4,3.1-3.9,5.5-7,6.8c-1.4,0.7-3.1,1-4.6,0.1c-1.6-1.2-0.7-3-0.1-4.4C584.3,763.3,586.9,756.6,587.3,749.2L587.3,749.2z
	 M562.4,714.5c11.6-1.2,18.8,9.9,19.3,20.2c0.1,1.8,0.1,3.8,0.1,5.6c-0.3,10-0.8,20.1-5.8,29.1c-3.7,6.9-9.8,10-16.8,9.1
	c-3.4-0.4-5.2-1.4-4.2-5.5c1.7-6.4,3-12.7,4.2-19.1c1.8-10.1,0.7-20.4-3.3-29.9C553.2,717.3,554.9,715.3,562.4,714.5L562.4,714.5z
	 M553.5,738.2c0.1,2.2,0.1,4.4,0,6.7c0.3,8.1-0.5,15.9-3.4,23.5c-3.9,10.7-15.7,16.3-26.4,12.4c-0.6-0.2-1.2-0.5-1.7-0.7
	c-2.2-0.8-3.5-3.1-3-5.3c0.4-3.9,0.8-7.8,1.6-11.8c2.3-11.4,2.5-22.6-0.8-33.9c-2.6-9.7,0.3-13,10-14.2
	C548.4,712.3,552,724.5,553.5,738.2L553.5,738.2z M834.8,703.1c1.6-1.6,3.3-0.4,4.8,0.3c5.1,2.1,8.5,6.1,10.6,11.1
	c2.9,6.3,3.9,12.9,4.2,20.1c-0.1,7.4-1.8,14.5-7.8,20c-1.4,1.2-3.3,2.9-5.1,1.8c-2.1-1-0.9-3.4-0.5-5.1c3.8-15.3,1.7-29.9-5.5-43.7
	C834.9,706.3,833.6,704.7,834.8,703.1L834.8,703.1z M814.8,700.4c3.8,0,6.7,1.8,9.3,4.3c8.9,8,12.4,18.4,13.2,29.9
	c-0.4,11.2-4.6,20.2-14.2,26.1c-2,1.2-4.3,2.7-6.7,1.3c-2.5-1.7-1.2-4.4-0.5-6.7c3.8-12,4.3-24.8,1.6-37.1c-1.1-4.6-3-9-5.5-13.1
	c-2.2-3.8-1.5-4.9,3-4.8L814.8,700.4z M781,700.5c1.7-2.9,5-3.3,8.1-2.7c9.9,1.3,17.2,6.3,21,15.7c2.4,6.3,3.4,13,2.9,19.7
	c0.3,6.1-0.3,12.3-1.8,18.3c-3,11-12.1,19.2-21.8,20c-3.7,0.3-5.2-0.7-3.7-4.4c1-2.5,2.1-5.1,3.1-7.5c8.6-18.5,6.9-36-5.2-52.5
	c-1.2-1.9-4.2-3.6-2.5-6.5L781,700.5z M766,705.3c5-0.2,9.8,2.1,12.8,6.1c6.4,7.4,9,16.3,8.8,25.7c0.2,8.3-1.6,16.4-5.5,23.8
	c-4.8,8.9-11.1,12.1-20.9,9.7c-19.5-4.6-38.5-10.9-56.9-18.7c-4.7-2.1-6.9-5.3-7.2-10.3c-0.4-5.7,0.3-11.4,0.9-17.1
	c0.8-6,4.4-9.3,10.2-10.4c10.7-2.1,21.5-4,32.2-6C748.9,706.4,757.4,705.5,766,705.3z M741.2,685.9c0.4,2.1,0.4,4.2,0.7,6.3
	c0.5,7.6-0.1,8.3-7.4,9.8c-7.8,1.4-15.8,2.1-23.6,2.7c-2.6,0.3-4-0.5-4.6-3.4c-3.7-18-6.3-36.2-6.7-54.7l-0.4-29
	c-0.1-4.8,1-8.5,6.4-10.8c5.8-2.6,9.7-8,14.4-12.4c2.3-2.2,4.7-5.9,8.1-4.7s2.5,5.5,2.6,8.5C732.6,627.7,736.4,657,741.2,685.9
	L741.2,685.9z M730,442.9c2.6-0.3,3.9,2,5.1,3.8c4.4,7.4,7.3,15.5,8.8,24c6.1,33.5,3.3,65.8-15.5,95c-29,44.8-70.5,64.3-123.6,59
	c-14.8-1.4-29-5.2-42.2-12.5c-4.6-2.5-6.7-5.6-7-11.1c-1.7-21-9.8-39.7-21.7-56.8c-1.5-2.1-3.4-3.9-5.6-5.2
	c-4.3-2.7-8.5-3.1-12.7,0.3c-2.3,2-4.6,3.9-7,5.8c-4.3,3.4-6.6,2.7-8.7-2.2c-2.5-5.8-3.3-11.9-3.8-18c-1-10.3-2.2-20.6-0.6-30.9
	c0.1-1.1,0.3-2.2,0.6-3.3c0.4-1.4,0.8-3.4,2.7-3.4s2.5,1.8,3,3.3c1,2.9,1.8,5.8,2.9,8.6c1.8,5.5,5.6,9.4,10.4,12.5
	c2,1.4,4.5,1.6,6.8,0.8c7.8-2.4,13.6-7.6,18.3-13.8c11.8-15.8,17.8-33.7,19.6-53c0.7-8.1,0.1-16.2,0.1-24.3c0-7.7,0.1-15.3,0-22.9
	c-0.3-8.4,0.8-10.6,8.8-13.8c13.8-5.6,28.5-9,43.4-9.9c2.5-0.1,6.1-0.9,7.3,1.7s-2,4.4-3.5,6.3c-3.3,3.5-6.9,6.7-9.9,10.3
	c-13.3,15.8-19.7,41.8-5.1,64.2c13.5,20.6,31.5,34.6,56.3,37.9s44-6.8,58.6-26.5c4.6-6.4,8.3-13.5,11-21
	C727.2,445.8,727.5,443.1,730,442.9z M715.5,416.1c4.2,11.6,5.3,23.2,0.7,34.9c-3.3,8-7.2,15.7-13.1,22.1
	c-10.7,11.5-24.3,15-42.7,14.9c-26.6,0-53.7-23-58.6-52.6c-2.9-17.6,7-39.2,22.3-48.3c8.1-5,16.7-8.4,26.2-9
	c3.7-0.3,5.1,0.8,4.6,4.4c-0.5,3.8-1.6,7.5-3.3,11c-1.8,3.7-3.7,7.3-5.3,11.1c-5.2,12.1-2.1,23.5,8.2,31.7
	c8.5,6.8,18.2,8.9,28.7,7.7c6.5-0.8,11.1-4.6,14.6-9.8c3.9-6,7.3-12.3,11.1-18.3c0.8-1.6,1.6-3.7,3.5-3.7S715,414.6,715.5,416.1
	L715.5,416.1z M659.2,333.8c-16.7-8.2-33.2-17-47.2-29.2c-11-9.4-19.2-20.8-21.2-35.6c-1.2-8.2,2-14.6,8.2-19.7
	c3.1-2.5,6.7-4.4,10.4-5.7c16.7-5.7,31.3-15.3,46-24.8c9.7-6.3,19.2-12.5,30-16.6c12.7-4.8,26-6.1,39.3-6.7s26.4,0,39.5-0.6
	c12-0.6,20.4,4.7,27.4,13.4c7.6,9.3,11.2,19.9,12,31.6c0.5,7.4,0.8,14.9-0.9,22.2c-2.5,11-8.3,15.7-19.5,15.9
	c-15.3,0.5-30.3,4.5-43.7,11.9c-5.7,3-11.5,6.5-17.6,8.5c-33.8,11.4-66.2,10-95.5-12.7c-7.6-5.9-12.9-13.6-17.4-21.9
	c-0.9-1.7-2.2-5-4.2-3.6c-2.5,1.6,0.3,3.8,1.3,5.6c15,25.6,35.9,45.2,61.7,59.4c22.5,12.4,46.2,20.6,72.2,20.2
	c20.9-0.4,38.9-7.3,52-24.7c1.3-1.7,2-3.8,2-6c0.7-9.9-0.4-20,1.4-29.9c2,5.4,1.2,10.8,1.7,16.3c3.1,36.7-28.8,52.9-53.3,53.5
	C713.7,355.2,686,346.9,659.2,333.8L659.2,333.8z M742,329.3c11.8,0.1,22.2-5.4,29.6-14.9c2.7-3.5,2.7-7.4,0-11.1s-5.7-7.2-8.5-10.8
	c-2.5-3.5-2-5.2,2-6.3c7.3-1.8,14.9-0.9,22.3-0.6c2.3,0,2.5,2,2.3,3.8c-0.4,7.6-0.9,15.3-1.2,22.8s-4.6,12.7-10.7,16.3
	c-9.5,5.7-20,8.7-30.9,10.3c-5.3,0.6-10.8,1.3-14.6,1.2c-15.1,0-28.1-2.5-40.3-8.6c-10.5-5.2-21-10.4-31.1-16.4
	c-2.9-1.8-5.6-3.6-8.2-5.6c-1.6-1.2-3.7-2.6-2.6-4.6c1.3-2.4,3.5-0.4,5.1,0.1c9.7,3.5,20.1,5,30.4,4.2c6.4-0.4,11.6,0.8,16.7,5.1
	C713.3,323.8,727.4,329.2,742,329.3z M708,306.7c12-2.2,22.8-7.3,33.7-12.8c12.1-6.3,13.6-6,22.5,4.3c1.3,1.4,2.5,2.9,3.5,4.4
	c3,4.4,2.9,8.6-0.9,12.5c-6.1,6.5-13.6,10.3-23.8,10.2c-10.1-0.8-20.1-3.1-29.5-6.9c-3.3-1.4-6.1-3.5-7.7-6.9
	C704.8,309.4,704.6,307.3,708,306.7z"/>
</svg>
