<?xml version="1.0" encoding="utf-8"?>
<!-- Generator: Adobe Illustrator 25.2.3, SVG Export Plug-In . SVG Version: 6.00 Build 0)  -->
<svg version="1.1" id="Слой_1" xmlns="http://www.w3.org/2000/svg" xmlns:xlink="http://www.w3.org/1999/xlink" x="0px" y="0px"
	 viewBox="0 0 864 864" style="enable-background:new 0 0 864 864;" xml:space="preserve">
<style type="text/css">
	.st0{fill:none;}
	.st1{fill:#FFCF97;}
	.st2{fill:#FFFFFF;}
	.st3{fill:#82C89C;}
	.st4{fill:#684CAE;}
	.st5{fill:#D69061;}
	.st6{fill:#C5E56C;}
	.st7{fill:#9A7469;}
	.st8{fill:#C95031;}
	.st9{fill:#9D3419;}
</style>
<path class="st0" d="M666.5,400.8c1.8-9.3,0.1-10.2-6.2-3c0.6,8.2-4.7,24.5,2.1,29.4C664.7,418.6,665,409.5,666.5,400.8z"/>
<path class="st0" d="M555.4,213.9c2.6-2.4,0.6-7.4,1.4-10.8c0-2.9,1.8-5.9,0.7-8.8c-0.7,0.1-1.8,0.1-2.1,0.7c-1.8,2.9-3.3,6-5,9.1
	C546.4,209.8,551.7,211,555.4,213.9z"/>
<path class="st1" d="M816.9,277c-11.4,0.2-22.1-3.2-32.5-7.6s-21-8.6-31.5-13.1c-13.1-4.2-25.9-13.5-39.4-14.9
	c25.7,25.1,78.6,61.4,115.7,47.7c4.6-1.5-2.4,6.5,9.3,0c-7.8-1.5-13.4-5.6-18.4-10.8C819.2,277.5,818.1,277.1,816.9,277z
	 M770.5,285.8c-24.5-9.1-42.3-26.5-60.7-43.9c-8.2-5-19.8-3.3-28.3,1.1c-7.4,4.5-9.1,11.9-11,19.7c-1.8,7.9,3.3,11.7,7.2,16.5
	c5.5,7,14.4,15,7.1,23.8c-4.9,8.4-12.8,15.1-16.4,24c17.6-7.3,34.8-15.6,52.5-22.6c15.1-4.8,31.6-1.1,47.1-2.5
	c13.3-1.5,27.5-1.1,40.1-4.9c-3.5-2.7-8-1.5-12-2.6C787.7,291.8,779.1,288.7,770.5,285.8z"/>
<path class="st2" d="M798.4,215.6c12.5-10,24.1,11.1,17.4,21.6c0.4,2.8,1,3.5,2.5,1.4C833.3,219.4,805,176.4,798.4,215.6z
	 M724.4,204.5c-8.7,20.9,10,33.8,28.3,35.3c-9.2-9.7-4.9-36.7,12.6-29.6c9.1,4.4,4.9,5,8.2,10.5c0.6-1.9,0.9-3.8,1-5.8
	C763.1,193.4,738,184.8,724.4,204.5z"/>
<path class="st3" d="M801.8,239.4c-0.7,1.7,3.1,4.7,4,4.7c11.8-0.2,11.6-18.9,3.9-25.7c-7.2-7.3-18,8.5-11,13.1
	c3.5-15.2,13.4-14.4,12.8,1.4C810.5,240.7,807.2,242.2,801.8,239.4z M754.9,237.8c10.2,9.1,18.4-5.3,17.4-14.9
	C761.1,198.1,742.8,222.6,754.9,237.8z M767.9,231.8c-0.8,5.1-7,8.8-10.5,3s-4.5-11.6,0-17.2C764.8,209.8,770,226.1,767.9,231.8
	L767.9,231.8z"/>
<path class="st4" d="M691.3,339c5.5-0.7,9.9-1.1,14.7-2.1c-2.6-2.6-5.9-4.2-10.1-3.2c-9.1,2.6-18.5,3.6-27.6,5.9
	C672.8,345.9,684.6,339.1,691.3,339z M634,347c5.1,14,20.3,4.4,29.9,0.8c7.6-3.1-2.2-9.2-5-12.5c-4.4-2.9-8.8-11.8-13.7-6.4
	C641.8,334.7,632.8,339.8,634,347z M656.5,327.2c0.1-0.7,0.2-1.4,0.2-1.9v-6.7c0.1-3.2-0.1-6.4-0.6-9.5
	C647.9,312.7,648.9,323.8,656.5,327.2z M386.1,396.8c44.4,35.7,106.2,45.3,159.7,25.7c16.1-6.5,58.3-23.5,63.1-40
	c0-5.2,3.4-9.8,8.3-11.3c9.6,1.6,11.7-4.5,17.4-9.9c1.8-1.4,2.1-3.6,1.8-5.8c-0.6,0.3-1.2,0.6-1.8,1c-2.3,1.8-4.4,3.7-6.5,5.6
	c-4.5,1.2-8.7,5.4-12.6,2.3c2.6-4.3,21.1-7.1,16.8-13.1c-1.6-2.1-2.8-3-5.6-0.7c-8.3,6.6-16.9,12.9-25.6,19
	C544.2,411.4,466,416,420.4,355.5c-9.3-10.4-32.8-11.4-46.3-17.7c-2.6-0.9-2.8-0.4-2.8,1.8C372.6,357.1,370,386.4,386.1,396.8z"/>
<path class="st5" d="M637.3,586.8c0.5-10.4-0.3-19.5-2.7-26.6c-0.7-3.3-2-6.5-3.9-9.3C625.1,567,628.6,578.1,637.3,586.8z
	 M609.7,639.7l1.5-2.4c2.5-8.7,6.9-4.4,11.5-6.9c2-6.4,5-15.1,5.3-17.4c0.4-16-21.5-14-26.1-0.9C596.5,621.3,591.8,648,609.7,639.7z
	 M613,547.9c-4.2,10.7-2.4,33.6,5.3,42.8c1-1.9,2.3-3.5,2.9-5.5c0.5-1.9,0.8-3.9,0.9-5.9C624.3,569.1,621.1,553.6,613,547.9z
	 M602,566.7c-1-3.8-2.4-15.3-7.2-9.6c-4.1,9.9-1.8,20.7,1.5,30.5C604.5,596.7,601.1,570.5,602,566.7z"/>
<path class="st6" d="M710.5,374.9c-1.3-1.7-1.8-7-2.1-12.8c-0.6-10.5-0.7-23.1-4.2-21.4c-8.3,1.5-16.8,3.7-25.2,4.6
	c-11.1,2.7-20,12-31.6,12.6c-8.5,0.9-10.9,7.7-16,12.2c12,4.3,29.5,4.8,28.9,21.5c15.3-8.3,27.8-23.3,43.9-29.7
	c-3.6,8.7-15.2,11.1-20.6,18.8c6.4-0.4,11.7-5.3,18.2-4.4c-0.8,1.1-1.5,2.8-2.7,3.3c-6.5,2.8-13.1,5.6-20.4,5.4
	c-5.7,1.5-8,4.3-8.1,10.2c-0.8,10.8-2.5,21.5-4.3,32.1c-0.5,3.1,0.8,3.5,2.4,2.8c15.4-4.9,31.2,1.9,46.4,4.4
	c3.2,0.1,7.5,3.7,10.1,1.6c-0.5-6-1-12-1.8-18.1c-3.6-17.7-1.8-36.4-4.8-53.9C715.8,367.7,714.3,372.3,710.5,374.9z M682.4,433
	c-1.8,0.1-14-2.8-10,1.3c4.9,2.1,8.7,3.5,13.3,5.1C686.3,436.4,686.2,433.4,682.4,433z M642.6,312.9c6.7-1.8,36.9-26.9,39.5-19.1
	c-4.8,4.9-13.2,6.5-18.9,10.5c-6.3,5-1.9,14.6-3.5,21.4c-0.2,2.2,0.2,4.4,1.3,6.3c5,8.6,24.4-1.5,33.2-1.8c-1.8-0.6-3.6-1.4-5.3-2.2
	c-0.8-0.4-1.6-0.9-2.2-1.5c4.8-5.1,12.3,4.1,17.9,4.7c8.9,2.9,4.9,25.7,8.9,33.8c6.8-11.9,10.3-25.9,15.9-38.5
	c3.6-5.9,0.7-20.3-8.1-18.3c-19.8,7.4-38.5,19-59.3,23.2c1.6-11.6,22.2-26.5,21-37.7c-0.1-1.5-0.7-3-1.6-4.2
	c-10.8-14-24.6-25.2-37.9-36.9c-7.1-6.7-15.9-11-24.6-15l-1.6,1.7c2.1,1.9,4.2,3.9,6.2,5.9C643.7,261.1,642.2,289.8,642.6,312.9z
	 M609.3,393.1c-0.4-0.4-2.4,0.4-3.3,1.1c-32.8,26.5-73.5,41.4-115.7,42.2c-98.3-2.6-57.6-42.8-107.9,9.8
	c40.9,4.1,90.8,4.8,115.3,43.5c2.3-3.9,0.7-9.7,7.1-11.3c32.9-9.8,62.2-27.7,91.6-44.6c5.7-4.7,14.3-6.2,17.1-12.6
	c0.5-6.1,0.7-12.4,1-18.5C618,396.6,612.1,395.7,609.3,393.1z M499,474.1c-0.8-0.6-1.9-1-2.2-1.7c-7.2-16-21.8-24-35.6-33.2
	c12.6-0.5,20.1,11.6,30.4,17.9C495.1,461.4,500.4,468.4,499,474.1z M484,446.2c-3.2-2.1-6.5-3-8.3-6.4c17,5.6,34,12.5,50.7,19
	C514.1,462.3,495.9,451.1,484,446.2z M613.7,355.4c-7.7-3.1-14.3-11.2-19.9-16.7c-3.2-3.1-4.5,0.7-6.7,1.4
	c3.5,8,12.7,12.5,18.6,18.7C608.6,360.6,612,357.9,613.7,355.4z M585.4,344.9c-2.2-2.2-3.3-2.4-5.2-0.4c-7.9,4.9-15.4,9.3-22.9,13.7
	c-1.9,1.1-3.5,2.1-1,4.4c4.4,4.1,8.5,8.5,12.8,12.7c5.3,5.3,5.5,5.3,12,1.5c7.2-4.1,14.2-8.3,21.1-12.5c2.4-1.5,3-2.1-0.1-4.4
	C596.1,355.4,590.5,350.4,585.4,344.9z M483.5,393.6c29.4,7.6,61.9,2.4,88.3-12.2c-7.7-5.5-14.2-13-21.2-19.5
	c-2.4-2.5,0.3-4.5,2.1-5.6c9.3-5.8,18.8-11.4,28.2-17.1c2.5-1.5,5.2-3.1,7.7-4.6c3.2-1.9,5.3-1.5,7.9,1.7c5,6.1,13.8,11.8,18.3,18.6
	c12.6-7.8,20.1-20.2,30.6-30.1c1.3-1.4,2.2-7.1,1.1-8.9c-3-0.5-5.6,4.5-8.6,5.7c-1.3-19.9,3.2-41.2-6.1-59.9
	c-4-7.5-11.8-13.7-18.3-19.6c-18-14.8-34.6-32.3-53.7-45.5c2.3,20.2-0.7,42.1-11,59.7c-0.8,4.7,5.3,7.8,7.9,11
	c10.7,11.4,29.7,27.3,32.5,42.4c-5.2-1.8-13.6-22.3-17.9-15.6c-0.6,0.7-1.2,1.4-1.8,2.1c-29.2,35.2-60.2,55-104.8,67.4
	c-8.2,2.4-17,3.3-25.2,5.8c-0.2,0.2-0.4,1.5-0.2,1.6C452.9,380.4,466.9,389.6,483.5,393.6z M572,298.1c0.5-0.7,1.2-1.3,1.9-1.8
	c0.7,10.2,0.6,20.6,2.8,30.9c0.2,1.1-0.5,2.3-0.8,3.5c-0.7-1-2.1-1.9-2.3-3c-1.2-5.1-2.1-10.3-3.2-15.7
	C570.2,307.6,569.4,301.7,572,298.1z M397,424.6c3-2.7,6-5.2,9.3-7.5c1.5-1,1.5-0.8-0.1-1.9c-9.4-6.4-18.8-13.1-28.3-19.7
	c-11.2-8.6-4.1-37-13.8-44.8c-6.2-3.7-12.3-7.7-16.5-13.9c-0.2-0.4-2-0.1-2.2,0.2C326.8,375.5,362,412.7,397,424.6z"/>
<path d="M854.7,261.1c-6.7-2.9-13.9-4.4-21.4-1.8c-1.7,0.5-3.6,0.1-5-1.1c8.3-4.5,13.1-8.3,8.8-18c-2.8-7.8-11.5-13.1-11.3-21.8
	c1.2-9.7-6.4-15.6-9.1-23.8c-1.5-22.6-23.2-31.4-40.2-41.4c0.8-1.4,2.4-0.8,3.7-1.2c2-0.2,2.4-2.4,0.8-3.1
	c-10.9-2.8-15-9.7-27.8-4.1c-14.4,9-80.5-51.5-66.2,5.6c-0.2-0.3-0.4-0.6-0.5-0.8c-41.7-10.8-83.5-24-126.8-26.9
	c-38.6,3.5,57.8,86,65.1,97.3c-3.2,1.4-7.8,0.1-10.6,1.9c-1.8,4,2.4,11.8,4.5,15.9c8.7,4,17.5,8.3,24.6,15
	c13.3,11.6,27.1,22.9,37.9,36.9c0.9,1.2,1.5,2.7,1.6,4.2c1.2,11.2-19.4,26.1-21,37.7c20.8-4.3,39.5-15.9,59.3-23.2
	c8.8-2,11.7,12.4,8.1,18.3c-5.6,12.6-9.1,26.6-15.9,38.5c-4-8,0-30.9-8.9-33.8c-5.6-0.6-13.1-9.7-17.9-4.7c0.7,0.6,1.4,1.1,2.2,1.5
	c1.7,0.8,3.5,1.5,5.3,2.2c-8.8,0.2-28.2,10.4-33.2,1.8c-1.1-1.9-1.5-4.1-1.3-6.3c1.6-6.8-2.8-16.4,3.5-21.4
	c5.7-3.9,14.1-5.6,18.9-10.5c-2.6-7.8-32.8,17.3-39.5,19.1c-0.5-23.1,1-51.8-19.1-67.6c-2.1-2-4.1-4-6.2-5.9
	c-12.3-11.5-25.4-22.3-38.1-33.4c-16-11.8-24.2-29.1-33.6,0.3c-14.6-10.8-33.5-32-49.9-11.7c1.8,0.5,3.6,0.7,5.5,0.5
	c-12,12.6-28.5,39.5-34.3,43.9c-27.5,28.8-43.3,39.7-48.9,81.7c-4.8,16.6,6.5,19.9,10.4,33.5c0.1,0.7,0.5,1.4,1,1.9
	c2.4,2.6,8.5,3.7,12.5,3.6c13,0.1,12.3-14,21.9-18.3c29.4-11.7,12.6-37-4.8-51.1c-13.1-5.9,51.9-55.6,57.3-49.4
	c19.5,12.2,36.2,27.5,52.2,44c2.4,2.4,2.7,4.3,0.1,6.8c-32.2,36.7-54.9,52.2-101.9,66.6c-7.6,1.3-29.8,10.9-34.8,5.5
	c-1.7-1.9-3.3-3.9-4.7-5.9c-3.8-5.3-7.6-10.8-14.2-12.6c-14.3-4.5-28.9-8.6-43.3-12.8c-5-3.9-1,13.3-2.8,15.9
	c-6-4-11.1-9.4-16.8-14.2c-8.7-8.7-6.3,13.1-15.2,2.4c-31.8-27.8-51.1-66.1-78.1-97.9c-17.4-18.4-36-36.7-57.6-50.2
	c-14.8-7.7-43.3-32.9-66.6-18.8c-20.1-1-44.1,0.3-46,7.1c-3.4,0.7-6.4,1.8-7,5.8c1,0.3,2,0.5,3,0.5C57,194.7,27.1,228,18.8,244.5
	C6.4,263.7,0.7,286.3,0,309.1c3.3,26.3,9.1,10,14.8-3.6c0.4,0.8,0.9,1.6,1.3,2.4c0.6,1.2,1.2,2.3,1.8,3.5c6.5-4.4,9-12.6,14.2-18.3
	c39.5-33.5,106.7,16.7,139.6,41.8c-3.4,1.7-5.4-1.1-10.1,1.5c6.5,7.4,17.6,9.6,25.5,15.4c27.5,19.2,50.7,44.5,81.1,59.3
	c3.3,1.6,6.5,3.1,9.4,4.5c66.5,30.2,43.5-9.3,52.3,52.2c-7.8,13-18.9-8.4-25.1-13.4c-12.6-6.7-17.4-20.9-25-32.2
	c-0.9-1.5-2.2-2.7-3.7-3.5c-13.1-6.8-39.8,21.2-51.3,26c-8.6,5.3-17.5,10.3-26.4,15c-16.1,0.1-27.8-10.2-44.1,5.4
	c-19.7,21.5,9.1,48.8,32.5,45.7c30.4-1.5,54.7-22.6,74.4-43.8c1.9-1.9,3.3-3.5,5.6-0.6c1.9,2.4,5.4,3.7,1.8,7.7
	c-3.3,5.8-14.8,13.7-9.6,20.5c16.9,23.3,35.9,45,56.8,64.8c5.5,5.1,9.9,12.3,18.2,13.5c16.5,1.6,46.1-16.8,61.7-24.3
	c3.9-2.2,6.1-1.9,9.3,1.9c17.6,17.6,35.8,34.8,52.7,53.2c23.9,25.5,46.5,52.1,67.9,79.6c11.6,14.8,23.6,29.3,31.9,46.4
	c3.6,8.7,16.2,17.1,22.6,7c32.6-33,87.7-157.7,47.5-195.4c-9.6-9.4-26.2-9.3-36-0.2c-13.9,11.9-15,30.5-15.6,47.5
	c-0.5,33.2-1.4,67.5-10.5,99.3c-8.7-14.3-18-28.2-26.7-42.4c-3.8-7.6-5.1-5,1-11.7c7.4-9.3,26.1-35.3,10.9-44
	c-21.2-11.6-28.1-34-34.4-55.8c-3.9-14.5-14.5-27.9-14.5-43c1-7,5.1-8.4,10.8-10.4c19.3-6.8,37.9-15.5,55.5-25.9
	c15-8.6,29.7-17.4,44.6-26.1c1.5-0.6,3.3-0.5,4.7,0.2c7.6,4.3,14.7,9.9,22.7,13c24.3,10.2,46.6,24.3,69.1,37.6
	c-0.8,0.1-1.5,0.3-2.3,0.5c-1.2,0.5-2.3,1.1-3.6,1.7c1.3,0.9,2.5,2.4,3.8,2.4c6,0,10.8,4.8,16.5,0.3c13.7-9.6,4.8-36.6,5.7-51.5
	c-2.1-20.9-4.3-41.9-5.8-63c-8.1-20.9,24.5-45.7,6.1-62.5c25.7-3.5,52.8,2.7,78-6c10-5.9,21.9-3.6,31.9-9.1
	C853.3,288.7,877.3,271.2,854.7,261.1z M695.8,333.8c4.2-1,7.5,0.6,10.1,3.2c-4.8,1-9.1,1.3-14.7,2.1c-6.7,0.1-18.5,6.8-23.1,0.7
	C677.4,337.4,686.8,336.4,695.8,333.8z M656.1,309c0.6,3.1,0.8,6.3,0.6,9.5v6.7c0,0.5-0.2,1.3-0.2,1.9
	C648.9,323.8,647.9,312.7,656.1,309z M659,335.3c2.8,3.3,12.5,9.4,5,12.5c-9.6,3.6-24.8,13.2-29.9-0.8c-1.2-7.1,7.8-12.3,11.2-18
	C650.2,323.5,654.6,332.4,659,335.3z M550.4,204.1c1.7-3.1,3.3-6.2,5-9.1c0.3-0.6,1.4-0.6,2.1-0.7c1.1,2.9-0.7,5.9-0.7,8.8
	c-0.8,3.4,1.2,8.4-1.4,10.8C551.7,211,546.4,209.8,550.4,204.1z M499.3,240.8c3,1.4-17.4,12.7-19.4,15.5c-8,7.4-37.3,27.4-22.4,38.3
	c8.6,6.7,14,15.7,17.7,25.7c2.9,8.5-7.2,14.8-13.9,17.7c-0.1-3.8,4-6.8,1.2-10.5c-9,9.2-11.3,38.1-30.1,25.9
	c-3.8-7.3,1-16.9-2.7-24.3c-3.3,3.7-2.6,8.7-3.3,13.3c-11.7-15.1,0.7-33.6,2.9-49.9c1.9-8.4,6.8-14.6,12.3-20.5
	c14.6-15,28.7-30.4,42.7-46.1c0.1,0.9,0.2,1.8,0.4,2.8s0.3,2,0.5,3c0.7-0.9,1.4-1.7,2-2.6c0.8-1.2,1.5-2.4,2.2-3.7
	c1.2,0.3,2.5,0.4,3.8,0.4c-1.1,2.4-1.2,5.8-1.7,11.4c2.4,4.4,7.4-5.2,10.6-3.6C501.6,236.1,498,238.1,499.3,240.8L499.3,240.8z
	 M516.5,236.3c5.4-4.3,11.6-12.9,8-20.5c-0.7,1.1-1.9,2.1-2.1,3.1c-1.5,6.8-5.7,13.4-11.4,16.8c0.1-0.7,0.4-1.3,0.5-2
	c0-0.7-0.2-1.3-0.4-1.9c-2.8,0.7-4.4,3.9-7.5,3.4c-0.4-3.4,3.9-5.4,2-9c-4.1,0.6-5.1,5.9-9.6,5.6c-0.2-5.8,7.2-7.4,7.9-13.1
	c-2.4,0.8-4.8,1.9-7,3.1c-0.6-1.4-1.2-2.8-1.6-4.2c-0.6,0.2-1.4,0.2-1.7,0.7c-1.3,1.1-2.4,2.4-3.6,3.6c-5.2-1.4,14.3-23.1,20.6-30.3
	c4.2-1.3,9.5-0.7,20.2,7.9c6.2,6.7,27.2,15.6,24.9,25.2C541.8,268.3,553.1,258.6,516.5,236.3L516.5,236.3z M439.5,369.2
	c8.2-2.5,17-3.3,25.2-5.8c44.5-12.5,75.6-32.3,104.8-67.4c0.6-0.7,1.2-1.4,1.8-2.1c4.4-6.7,12.7,13.9,17.9,15.6
	c-2.7-15.1-21.8-31-32.5-42.4c-2.6-3.1-8.8-6.3-7.9-11c10.3-17.6,13.3-39.5,11-59.7c19.1,13.2,35.7,30.6,53.7,45.5
	c6.5,5.9,14.3,12.1,18.3,19.5c9.3,18.7,4.8,40.1,6.1,59.9c3-1.2,5.6-6.2,8.6-5.7c1.2,1.8,0.2,7.5-1.1,8.9
	c-10.5,9.9-18,22.3-30.6,30.1c-4.5-6.9-13.3-12.5-18.3-18.6c-2.6-3.2-4.7-3.6-7.9-1.7c-2.5,1.5-5.1,3.1-7.7,4.6
	c-9.4,5.7-18.9,11.3-28.2,17.1c-1.8,1.1-4.5,3.1-2.1,5.6c7,6.5,13.4,14.1,21.2,19.5c-26.5,14.6-58.9,19.9-88.3,12.2
	c-16.6-3.9-30.6-13.2-44.2-22.8C439,370.7,439.2,369.4,439.5,369.2L439.5,369.2z M587.1,340.1c2.2-0.7,3.6-4.5,6.7-1.4
	c5.6,5.5,12.2,13.6,19.9,16.7c-1.8,2.4-5.1,5.1-8,3.4C599.7,352.6,590.6,348.1,587.1,340.1L587.1,340.1z M602.2,364.1
	c-7,4.2-14,8.5-21.1,12.5c-6.5,3.9-6.7,3.8-12-1.5c-4.3-4.2-8.4-8.6-12.8-12.7c-2.4-2.2-0.8-3.3,1-4.4c7.4-4.4,15-8.8,22.9-13.7
	c1.9-2,3-1.8,5.2,0.4c5.1,5.5,10.7,10.5,16.7,14.9C605.1,362,604.6,362.7,602.2,364.1L602.2,364.1z M374.2,337.8
	c13.6,6.4,37,7.4,46.3,17.7c45.5,60.5,123.8,55.8,180.6,14.1c8.7-6,17.3-12.4,25.6-19c2.7-2.3,3.9-1.4,5.6,0.7
	c4.3,5.9-14.2,8.8-16.8,13.1c3.9,3.1,8-1.1,12.6-2.3c2.2-1.9,4.2-3.8,6.5-5.6c0.6-0.4,1.2-0.7,1.8-1c0.4,2.1,0,4.4-1.8,5.8
	c-5.6,5.5-7.8,11.6-17.4,9.9c-5,1.5-8.4,6.1-8.3,11.3c-4.7,16.5-47,33.5-63.1,40c-53.5,19.6-115.2,10-159.7-25.7
	c-16.2-10.4-13.5-39.7-14.8-57.1C371.4,337.5,371.5,337,374.2,337.8L374.2,337.8z M345.4,337c0.2-0.3,2-0.6,2.2-0.2
	c4.2,6.2,10.2,10.2,16.5,13.9c9.7,7.8,2.6,36.1,13.8,44.8c9.5,6.5,18.8,13.3,28.3,19.7c1.6,1.1,1.5,1,0.1,1.9
	c-3.2,2.3-6.3,4.8-9.3,7.5C362,412.7,326.8,375.5,345.4,337z M20.2,303.7c-0.9-6,5.3-9.4,4.4-15c-2.9,1.3-4.7,4.3-6.1,7
	c-3.1,7.3-10.7,12.2-11.2,20.9c0,0.5-1.1,1-1.8,1.5C-3,258.5,49.9,193,105.6,180.3c3.4,0,6.9,0.1,10.3,0.3
	c6.2-0.4,13.3,4.2,18.9,0.7c-5.4-3-11.4-4.8-17.5-5.3c18.3,0,37,0.9,52.7,4.8c-2.9-3.5-6.7-4.8-10.6-7.2c-1.8-1-5.8-1.9-11.2-2.7
	c2.8,0.1,5,0.2,5.4,0.2c13.9,1.1,24.6,9.3,35.6,16.4c19.8,11.6,37.2,26.4,53.1,42.7c-0.5,2.4-0.9,5.2-0.9,5.4
	c0.1,1.2,0.3,2.4,0.5,3.5c-6.3-6.9-16.4-12.1-14.8,0.1l0.5,2c-3-4-7.3-8.5-8.1-10.4c-1.4-2.2-3.4-4-6-2.4
	c-6.3,5.1,2.4,17.4,3.3,24.4c3.7,6.4,6.8,13,10.7,19.1c-9.7-9.3-22.9-19.8-30.1-28.4c0.1-1.4-0.7-2.7-1.9-3.4
	c-4,3.6-0.3,9.1-0.4,13.9c0.2,1.7,0.5,3.4,1,5c-5.9-7.8-15.1-18.1-16.7-19.4c0,0.2,0,0.5,0.1,0.7c-0.1-0.3-0.2-0.7-0.4-1
	c-7.3,8.6,12.3,36.1,24,47.5c-2.7-0.7-5.5-1.2-6.9-1.7c-25.4-14.3-32.5-9.2-11.2,13c9.4,9.1,21.4,14.8,33.1,20.6
	c-15.4-2.7-33.7-4.8-45.9-13.1c-1.9-1.6-6.4-2.1-8.1-1c-3.1,5.5,3.4,11.3,6.1,15.9c1.8,2.5,2.8,7.8,4.4,12
	C134.8,298.6,49.3,245.8,20.2,303.7z M324,426c-40.8-9.1-78.5-29-109.1-57.6c-12.4-11.4-26.3-20.7-40.4-29.1
	c3.3,0.9,6.4,2.9,9.9,1.8c-1.1-1.1-2.3-2.2-3.5-3.3c-5-8.3-10.6-22.5-14.1-31c16.4,8,34.4,20.6,53.5,15.3l2.8-1
	c2.1,0.9,4.9-0.5,7.1-0.5c-12.3-7.5-26.6-11.5-37.5-21.5c-5.7-5.8-13.7-11.6-16.6-19.2c8,2.2,20,7.9,29.3,9c0.9,0.9,1.9,1.6,3,2.3
	c1.7-3.4-0.6-5.3-2.4-8c-12.8-11.6-20.9-25.9-26.1-41.8c1.3,3,6.2,7.1,7.2,9.4c1.9,2.9,3.7,5.4,5.6,8c0.1,0.2,3.2,3.3,5.6,5.7
	c2.4,4.8,6.1,9,11,9.8c-0.7-2.3-2-4-3.3-6.3c-5.1-5.8-7.2-12.6-9-19.6c-0.1-0.8,0-1.5,0.1-2.3c2.3,5.4,8.5,11.3,10.6,15.9
	c6.5,5,16.6,13.8,24.8,17.1c0.6,0.8,1.2,1.5,1.9,2.2c2.2-3.6-1.9-7.9-3.3-11.3c-7.6-11.4-16.6-24.8-15.2-39
	c3.3,2.1,9.5,11.3,13.2,15.6c0.2,0.4,0.3,0.9,0.5,1.3c0.2,0.7,1.6,0.8,2.4,1.1c1.4-4.8-3.2-9.9-0.6-14.4c3.6,3.8,7.5,7.3,11.5,10.7
	c0.1,0.4,0.2,0.9,0.2,1.3c0.5,0.6,1.1,1.2,1.7,1.7c1.5,0.9,2.9,1.8,4.3,2.8c-0.9-4.1-2.1-11.5-3.7-17.4c4.6,4.8,9.1,9.7,13.5,14.6
	c21.3,27.7,40.2,57.5,64.2,83.2c4.2,5.4,14.2,8.4,15.2,15.6c-7,19.3,1.8,38.4,14.6,52.8c1.6,2,0.6,2.2-0.7,3
	c-8.3,5.5-15.7,12.2-20.9,20.6C329.1,427.2,326.3,426.7,324,426z M176.9,505.5c6.7-3.9,16.8-2.1,21.7-8.5c-6.5-1-12.7,2.7-19,4
	c-11.6,3.5-27.1-4.8-26.8-17.6c10.3,8.3,22.8,11.3,35,5.1c1.4-0.7,2.2-2.6,3.3-3.9c-12.9,2.5-24.7,6.1-35.7-3.9
	c-2.2-1.9-3-4.3-1.9-6.9c4.8-11.4,24.5-17.6,35.2-10.9c4.4,2.9,8.5,1.9,12.6,0.2c6.1,6.2,20.5,0.2,27.5,1.1
	c-4.8,3.6-10.1,6.8-14.6,10.8c-3.5,3.9,3.6,5.6,8.3,3.8c0.8,0.9,1.5,1.8,2.1,2.8c-2.3,0.8-4.8,1.1-7.2,0.9c-2.4-0.7-3.8,1.1-5.3,2.6
	c2.2,1.2,3.8,1.9,6.6,1.6c2.2-0.4,4.8-1,7.3-1.7c0.8,4.1-4.1,4.7-5.6,6c3.4,1.6,7.3-1.9,10.9-2.2
	C221.2,498.2,190.6,510.5,176.9,505.5z M258.6,463.9c-7.8,7.6-14.8,17-24.6,21.7c-0.6,0.2-1.9-0.8-3.6-2.2c5.1-2.2,9.4-5.5,9.7-11
	c-4.4,2.3-8.5,5.9-13,8.1c-1-0.9-2.1-1.9-3.1-2.7c1.4-1,2.2-2.6,2.1-4.4c-3,0.4-5,3-8.2,2c1-3.9,6.1-3.6,8.2-6.3
	c2.7-3.9,8.3-7.8,8.2-12.6c-10.1,2.7-18.9,8.1-29.7,7.6l-2.4-1.6c1.8-0.8,3.6-1.6,5.4-2.4c8.8-1.8,14.3-8.8,21.4-13.1
	c13-7.9,25.5-16.6,38.4-24.8c4.1-2.6,6.3-1.6,9,2.4c2.4,5.6,18.5,23.7,15.4,27.6c-5.2,4.5-10.6,8.7-15.7,13.4
	C269.6,472.1,268.9,451.2,258.6,463.9z M264.7,496c-5.3-4.5-1.1-9.7,2.7-13.9c5.9-4.7,30.2-37.6,35.6-24.1
	c-15.1,9.3-27.6,22.3-36.4,37.6C266.3,496,265,496.3,264.7,496z M348.7,566.7c-6.8,3.1-13.7,4.4-20-1.2
	c-21.1-18.5-39.8-39.8-58.1-61c-3.8-4.5-3.7-5.3,0.2-9.9c9.2-12.6,20.4-26.6,34.3-33.4c0.9,1.6,11.4,9.8,5.8,9.6
	c-0.5,0.1-1,0.2-1.5,0.3c4.3,3.3,10.6,3,15.6,5.4c-4.3,7.2-12.2,13.3-13.7,21.7c9.7-4.1,14-16.5,20.5-24.5c1.3-2,1.4-0.6,1.8-0.1
	c6.1,7.4,12.1,14.8,18.5,22.7c14.4,16,30.3,30.7,45.3,46.1C382.2,552.4,365.2,558.9,348.7,566.7L348.7,566.7z M334.6,467.4
	c-5.2-13.4-6.1-33.5,2.8-45.5c5.5-5.1,10.6-10.7,16-15.7c2.8-1.8,6.2,0.3,8.3,2.5c32,28.8,44.2,6.2,13.1,40.8
	c1.8,0.1,3.6,0.2,6.1,0.3c3.6,2.2,8.2-0.7,11.4,2.1c-1.9,2.3-27.3,11-23.4,4c8.2-9.7,0.2-20.8,7.5-25.1c2.2-1.4,4.9-2.4,5.8-5
	c-4.7-4.2-12.4,5.8-12.5,10c0.2,6.7-0.6,12.8-3.7,19.1s-4.3,13.5,1.1,20c33,41.3,69.9,79.5,103.7,120.1c8.7,10.9,17,22.1,25.7,32.9
	c3.2,3.8-0.3,7.4-1.2,11.3C445.7,578.3,381.9,529.7,334.6,467.4L334.6,467.4z M634.5,560.2c2.4,7,3.3,16.2,2.7,26.6
	c-8.7-8.7-12.2-19.7-6.7-35.9C632.5,553.7,633.8,556.9,634.5,560.2L634.5,560.2z M587.9,562.2c0.1-4.2,2.3-8.5,4-13.1
	c8.7-17.1,28.3-12.3,37.8,0.4c-2.6,2.4-5.1,6.7-5.4,9.1c-3.3-5-4.1-14.8-11.5-14.8c-7.6,3-4.4,12.3-5,19.1c1,9,0.8,17.7,4.2,25.8
	c2,8,12.4,5.6,12.7-2.1c0.5-2,1.3-4.1,1.6-6.1c1.6,3.9,5.9,11.1,10.7,10.2c-4,50.6-36.8,127.5-65.7,146.4
	c5.6-30.7,16.5-60.7,16.3-92.4C587.3,617.5,586.5,589.7,587.9,562.2L587.9,562.2z M622.1,579.4c-0.1,2-0.4,4-0.9,5.9
	c-0.6,1.9-1.9,3.6-2.9,5.5c-7.6-9.2-9.4-32.1-5.3-42.8C621.1,553.6,624.3,569.1,622.1,579.4L622.1,579.4z M579.3,628
	c2.4-22.1-3.5-52.6,7-71.7c-6.8,34.9,1.7,72.3-5,106.3c-1.6-3.2-0.5-8.2-2-10.8C575.2,644.3,579.5,636.6,579.3,628z M540.5,656.9
	c5.8,9.5,11.8,19,18.1,28.2c6.6,8.5,3.8,5.9,3.2,15c6.2-5.1,7.4-15.2,10.7-22.5c2.4-6.4,1.7-13.7,4.7-19.9c0.3,1,0.7,2,1.2,3
	c-0.4,2-0.8,4.1-1.2,6.2c-0.1,0.7,0.2,1.4,0.2,2.1c0.7-0.2,1.3-0.4,1.8-0.7s0.9-0.8,1.5-1.1c0.5,17.7-6,34.7-9.8,51.9
	c-1.9,5.4-1.5,12-4.9,16.7c-12-19.8-24-39.6-39.3-57.2c-4.3-7.4-22.8-22.7-21.5-30C528.8,612.7,517,622.2,540.5,656.9z M552,595.6
	c1.3,1.7,0.4,3.9-0.1,6.1c-3.5,11.6-8.8,25.7-19.5,32.1c-2.1-4.4-7.7-9-5.9-14.1C532,611.2,545.2,603.8,552,595.6z M550.6,594.4
	c-18.9,7-36.9,38.6-48.4,53.2c-1.7,0.2-5.5-6-4.5-7.6c5.6-10.4,12.2-20.3,19.7-29.5c6.5-7.5,13.7-14.2,22.5-19.1
	C544.8,588.6,547.5,592.2,550.6,594.4L550.6,594.4z M502.7,508.8c12.7,25.2,12.5,59.6,37.2,76.9c-2.8,5.6-11.6,7.3-15.7,12.1
	c-10.1,7.7-16.1,20-24.1,28.8c-17.2-23.2-34.9-44.9-54.1-66.6c-21.1-23.4-42.2-46.8-62.5-70.9c-3.3-4.8-25.5-27.2-10.7-26.8
	c8.5-0.4,16.1-2.7,22.3-8.9c1.4-1.2,3.2-1.9,5-1.9C440.4,454,488.7,465.8,502.7,508.8z M614.7,402.7c-0.3,6.1-0.5,12.4-1,18.5
	c-2.8,6.4-11.4,7.9-17.1,12.6c-29.5,16.9-58.8,34.9-91.6,44.6c-6.4,1.6-4.8,7.3-7.1,11.3c-24.5-38.7-74.5-39.4-115.3-43.5
	c50.2-52.5,9.6-12.4,107.9-9.8c42.2-0.8,82.8-15.7,115.6-42.2c0.9-0.7,2.9-1.5,3.3-1.1C612.1,395.7,618,396.6,614.7,402.7
	L614.7,402.7z M619.2,375.1c-2.2,6.2-0.7,12.4-1.6,19.3c-0.5,0-1.2,0.3-1.5,0.2C610.6,389.5,611.2,377.5,619.2,375.1L619.2,375.1z
	 M622.2,427.9c-3.9-1.9-6.5-9.5-4.4-13c7.7-3.9,16.8,3.8,24.9,3.5c-3.5-6.5-12.4-6.7-18.7-8.8c-6.3-0.5-5.5-2.2-5.5-7.8
	c2-14.3,19.7-0.7,28.5-3.9c-3.9-5.2-11.1-4.9-17-5.9c-8.9-0.7-9.8-1.5-9.1-10.2c1.2-11.4,13-6.8,20-4.9c27.6,5.6,8.4,40.1,13.9,58.5
	c2-3.5,1-8.8,5.5-4.4c9.6,7.3,20.7,12.6,32.5,15.3v1.7c-0.7-0.1-1.4-0.2-2.1-0.2c-0.3,1.9,0.7,3.1,2.1,4.1c-0.1,3.5-0.1,6.7,0,7.1
	v1.5c-3.3-1.1-5-3.8-8.9-2.8c0.4,1.1,0.9,2.1,1.3,3.1c0.3,0.7,0.7,1.3,1,2C666.6,448.4,643.9,439,622.2,427.9z M660.3,397.7
	c6.3-7.2,8-6.3,6.2,3c-1.5,8.7-1.8,17.8-4.2,26.3C655.6,422.3,660.9,406,660.3,397.7L660.3,397.7z M682.4,433
	c3.8,0.4,3.9,3.4,3.3,6.4c-4.5-1.6-8.3-3-13.3-5.1C668.4,430.1,680.6,433.1,682.4,433z M726.4,471.7c1,6.7-6.2,8.2-11.8,8.4
	c-0.1-1.9,3-3.8-0.5-4.5c-8.2-2-17.7-4.9-22.3-12.5c5.4-1.3,7,6.1,11.9,5.7c0.2-3.6-3.3-4.9-5.7-7.8c-0.7-1.1-1.5-2.2-2.4-3.1
	c-0.3-0.3-0.7-2.2-1-4.6c0.5,0.3,1,0.7,1.5,1.1c4.2,2.8,7.7,7.2,13.3,5c-2.8-3.3-6.5-4.7-10.2-7c-1.9-1.4-3.5-2.6-5.2-3.7
	c-0.1-0.9-0.2-1.7-0.4-2.4c3.6,0.8,7.1,1.4,10.8,1.8c6.6-0.4,10.7,6,16.3,8.5c-1.5-12.6-19-12.6-28.8-15.3c-3.7-0.7-1.9-3.4-2.1-5.3
	c3.9-3.7,22.9,4,29.4,4.1c3,0.6,6.2,1.1,6.4,4.7C726.2,453.8,726.6,462.8,726.4,471.7L726.4,471.7z M723.4,418.2
	c0.7,6,1.2,12,1.8,18.1c-2.6,2.1-6.9-1.5-10.1-1.6c-15.3-2.4-31-9.3-46.4-4.4c-1.5,0.7-2.8,0.3-2.4-2.8c1.8-10.6,3.5-21.4,4.3-32.1
	c0.1-5.9,2.4-8.8,8.1-10.2c7.3,0.2,13.9-2.6,20.4-5.4c1.2-0.5,1.8-2.2,2.7-3.3c-6.5-0.9-11.8,4-18.2,4.4c5.4-7.8,17-10.1,20.6-18.8
	c-16.1,6.4-28.6,21.4-43.9,29.7c0.6-16.8-16.9-17.2-28.9-21.5c5.2-4.5,7.5-11.3,16-12.2c11.6-0.6,20.5-9.9,31.6-12.6
	c8.5-0.9,16.9-3.1,25.2-4.6c3.5-1.8,3.6,10.8,4.2,21.4c0.3,5.9,0.8,11.1,2.1,12.8c3.8-2.7,5.3-7.2,8.2-10.7
	C721.6,381.8,719.8,400.5,723.4,418.2L723.4,418.2z M826,230.6c2.5,4.7,5,9.4,7.4,14.9c1.5,3.1-8.8,11.4-10.9,11
	c-5.5-3.1-12.7-5.3-16.8-10c8.8-1.1,17.9-4.2,18.5-14.5C824.4,231.5,825.5,231,826,230.6L826,230.6z M798.8,231.6
	c-7-4.7,3.8-20.4,11-13.1c7.6,6.8,7.8,25.5-3.9,25.7c-1,0-4.7-3-4-4.7c5.4,2.8,8.7,1.3,9.8-6.4C812.2,217.2,802.3,216.3,798.8,231.6
	L798.8,231.6z M818.3,238.6c-1.6,2.1-2.1,1.4-2.5-1.4c6.7-10.5-4.9-31.6-17.4-21.6C805,176.4,833.3,219.4,818.3,238.6L818.3,238.6z
	 M798.6,173c8.7,5,11.7,13.6,14.7,22.3c-13.7-1.1-14.7,7.1-18,17.9c-3.6-14.1-1.5-29.7-3.5-44.3C794,170.1,796.2,171.3,798.6,173z
	 M736.8,146.2c0.4,0.1,0.7,0.7,1.1,1.1c-12.3,1.4-24.9,2.4-37,5.7c-3.6,0.7-3.6-1-3.2-3.3c1.5,0.2,3.7,0.3,3.9,0.6
	c5.2-4.3-2.7-5.4,10.2-2.9c-0.9-1.9-2.1-3.6-2.8-5.6c4.4,1.4,7.5,6.2,12.8,4.8c-1.7-2.7-4.6-3.7-6.4-6.2
	C722.6,140.4,729.6,144.6,736.8,146.2z M690.3,132.3c2.1-6,21.1,2.4,24.9,4.8c-4.2,2.6-9.3-0.4-8.5,4.1c-0.9,0.4-1.9,0.6-2.8,0.7
	c-4.1,0.6-3.2,4.1-3.7,6.6c-1,0.1-1.8,0.2-2.4,0.4c0.5-2.4,1.2-5-1.1-6.2c-3,2.4-1,6.7-3.6,9.3C688.5,147.1,690.5,138.6,690.3,132.3
	L690.3,132.3z M593.7,181c0,0.4,0,0.8,0,1.2c-0.4-0.3-0.9-0.6-1.8-1.2c-13.7-15.1-27-30.4-36.8-48.5c-4.2-7.8,9-5.8,13.1-5.6
	c26.3,4,52.3,9.6,78.1,16c1,0.1,2.6,1.6,2.5,2.2c-0.2,4.4,4.1,5.7,6.6,8.3c-7.1,1-13.3-5-20.2-5c0.4,5,7.3,5.8,8.7,10.5
	c-9.5,0.1-18.5-7.1-27.6-9.9c-3.8-2.2-7.4-3.3-11.7-1.8c-0.1,7.8,8,11,13.4,15.2c-5.4-0.6-16.2-3.9-17.2,3
	c0.9,10.3,14,13.7,19.5,21.4c-9.4-2.1-16.2-11.8-26.4-11.4C593.8,177.4,593.7,179.2,593.7,181z M632.6,240.2
	c-5.9-3.9-14.2-7.3-14-15.8c4.9,2.1,8.8-1.6,13.1-2.9c4.4-1.5,8.5-4.6,8.8-9.7c-4.8,2-9.3,9.6-14,3.7c-9.9-12.1-26.9-21.5-30.1-37.4
	c9.2,3,35.4,21.6,42.3,18.1c-4.5-5.5-11.7-8.5-17-13.4c-5.6-5.6-13.7-9.9-17.2-17.1c8.5-1.1,17.2,3.4,25.7,2.8
	c-5.1-7.7-15.5-10.8-21.4-18c14.7,3.6,27.5,13.9,43.4,12.2c0.8,0,1.8-0.9,2.6-1.4c-2.4-3.3-7.4-1.9-9-5.8c7.9-1.5,16.9,5.4,24.2,1.5
	c-5.4-5-14.3-6.2-18.5-12.2c16.3,0.6,32.7,11.7,49,11.8c18.2-5.9,37.8-2.9,55.5-8.8c0.9-0.6,3-0.7,3.6,0c3.2,3.7,6.2-0.2,9.6,1.4
	c-3.5,6,12,9.3,15.8,12.4c5.3,2.8,5.3,2.8,3.7,8.6c1.4,26,0.5,54,12,77.2c-7.7-1.6-4.4-7-11.3-6.8c-5.3,0.9-12.5-2.2-16.2,2.2
	c6.2,0.7,12.7-0.1,19,1.5c-7.2,2.3-16.4,0.6-22.6,5c11,2.6,23.9-3,34.6,1.3c6.7,5.7,13.9,8.6,22.5,10c-13.6,6.8-2.6,13.9-18.7,11.7
	c-32-8.9-60-24.1-91.6-35c-25.4-7.4-49.8-0.6-50.1,30C655.7,257.7,644.5,248.5,632.6,240.2L632.6,240.2z M768.2,302
	c-15.5,1.5-32-2.2-47.1,2.5c-17.7,7.1-34.9,15.4-52.5,22.6c3.6-8.9,11.5-15.7,16.4-24c7.3-8.8-1.6-16.8-7.1-23.8
	c-3.9-4.8-9.1-8.7-7.2-16.5s3.6-15.2,11-19.7c8.4-4.5,20-6.2,28.3-1.1c18.4,17.4,36.3,34.7,60.7,43.9c8.6,2.9,17.1,5.9,25.8,8.7
	c3.9,1.1,8.5-0.1,12,2.6C795.7,300.8,781.4,300.5,768.2,302z M829.3,289.2c-37.2,13.7-90-22.6-115.7-47.7
	c13.5,1.4,26.3,10.6,39.4,14.9c10.5,4.5,21.1,8.6,31.5,13.1s21.1,7.8,32.5,7.6c1.2,0.1,2.3,0.5,3.2,1.3c5,5.2,10.6,9.3,18.4,10.8
	C826.9,295.6,833.9,287.6,829.3,289.2L829.3,289.2z M769.6,240.8c7.2-6.2,6-16.9,8.5-25.9c0-19.5-7.8-60.3-33.5-56.1
	c-33.5,3.9-38.9,10.4-43.7,43.3C698.3,227.4,749,253.9,769.6,240.8z M754.9,237.8c-12-15.2,6.2-39.8,17.4-14.9
	C773.3,232.6,765,246.9,754.9,237.8L754.9,237.8z M773.5,220.7c-3.3-5.6,1-6.1-8.2-10.5c-17.5-7.1-21.8,19.9-12.6,29.6
	c-18.3-1.4-37-14.3-28.3-35.3c13.6-19.6,38.7-11,50.1,10.5C774.4,216.9,774.1,218.8,773.5,220.7L773.5,220.7z M725.3,171.7
	c10.2-1.7,20.3-3.7,30.4-5.3c10.7,2.3,18.4,29,18.8,45.2c-10.9-35.2-72.6-26.1-52.1,17.5c-8.1-6.5-19.3-15-18-26.7
	C707,190,710.1,174.4,725.3,171.7L725.3,171.7z M757.4,217.6c-4.5,5.7-3.5,11.3,0,17.2s9.7,2.1,10.5-3
	C770,226.1,764.8,209.8,757.4,217.6z M601.1,605.4c-7.5,10.9-11.3,25.5-4.6,37.7c3.2,3.8,10.7,3.7,13.1-1.2c3.1-2.5,7.5-5.8,9.7-5.1
	c0.5,0.2,1.1,0.3,1.7,0.2c-0.1,0.5,0.2,0.5,0.7-0.2c2-1,3.5-3.9,3.5-6.5c0.9-1.9,2-4.2,3.3-6.9C641.3,604.2,615,586.9,601.1,605.4z
	 M628,613c-0.3,2.4-3.3,11.1-5.3,17.4c-4.6,2.5-9-1.8-11.5,6.9l-1.5,2.4c-17.9,8.3-13.3-18.4-7.8-27.6
	C606.5,599.1,628.4,597,628,613z M598.2,593.1c9.8,0.7,8.1-12.2,8.1-19.2c-2.2-7.2-3-32.3-14-19
	C588.8,563.5,586.5,590.3,598.2,593.1z M594.8,557.2c4.8-5.8,6.2,5.8,7.2,9.6c-0.8,3.8,2.5,30-5.8,20.9
	C593,577.9,590.7,567.1,594.8,557.2z M573.6,327.6c0.2,1.1,1.6,2,2.3,3c0.4-1.2,1.1-2.4,0.8-3.5c-2.2-10.2-2.2-20.6-2.8-30.9
	c-0.8,0.5-1.4,1.1-1.9,1.8c-2.5,3.6-1.8,9.5-1.6,13.9C571.5,317.4,572.4,322.5,573.6,327.6z M484,446.2
	c11.9,4.9,30.1,16.1,42.4,12.6c-16.7-6.5-33.7-13.4-50.7-19C477.5,443.1,480.8,444,484,446.2z M506.4,571.5
	c1.6,5.2-0.2,13.3,4.4,16.6c1.4-10.3-1.3-21.4-2.7-31.8c-3.9-17.1-2.7-37.5-12.8-52c0.1,7.6,2.5,14.6,3.6,22.6
	C502.5,541.9,504,556.5,506.4,571.5z M461.2,439.2c13.9,9.1,28.4,17.2,35.6,33.2c0.3,0.7,1.4,1.1,2.2,1.7c1.4-5.6-3.9-12.6-7.5-17
	C481.3,450.8,473.8,438.7,461.2,439.2z M325.3,531.9c3.2-6.5,1.6-13.7,2.5-21c1.1-8.6,2.2-16.8,3.3-25c0-1.5-0.1-2.9-0.4-4.4
	C324.6,486.2,321.5,525.3,325.3,531.9z"/>
<path class="st7" d="M526.5,619.8c-1.8,5.1,3.8,9.7,5.9,14.1c10.8-6.4,16-20.5,19.5-32.1c0.5-2.2,1.3-4.4,0.1-6.1
	C545.2,603.8,532,611.2,526.5,619.8z M517.3,610.5c-7.5,9.2-14.1,19.1-19.7,29.5c-1,1.6,2.8,7.8,4.5,7.6
	c11.5-14.6,29.5-46.2,48.4-53.2c-3.1-2.2-5.8-5.8-10.7-3C531,596.3,523.8,603,517.3,610.5z M400.1,451.5c-1.8,0-3.6,0.7-5,1.9
	c-6.2,6.2-13.8,8.5-22.3,8.9c-14.8-0.4,7.4,21.9,10.7,26.8c20.2,24.1,41.3,47.6,62.5,70.9c19.2,21.7,36.9,43.4,54.1,66.6
	c8-8.8,14-21.1,24.1-28.8c4.2-4.8,12.9-6.5,15.7-12.1c-24.8-17.2-24.6-51.6-37.2-76.9C488.7,465.8,440.4,454,400.1,451.5z
	 M508.1,556.3c1.5,10.4,4.2,21.4,2.7,31.8c-4.7-3.3-2.8-11.4-4.4-16.6c-2.4-15.1-3.9-29.7-7.6-44.6c-1.1-8-3.5-15-3.6-22.6
	C505.4,518.9,504.2,539.3,508.1,556.3L508.1,556.3z M496.5,627.9c-8.7-10.8-17-22-25.7-32.9c-33.8-40.6-70.7-78.8-103.6-120.1
	c-5.4-6.5-4.2-13.6-1.1-20s3.9-12.4,3.7-19.1c0.1-4.2,7.8-14.2,12.5-10c-0.9,2.6-3.6,3.6-5.8,5c-7.3,4.3,0.7,15.4-7.5,25.1
	c-3.9,7,21.5-1.8,23.4-4c-3.2-2.8-7.8,0.1-11.4-2.1c-2.5-0.1-4.4-0.2-6.1-0.3c31.1-34.6,18.9-12-13.1-40.8c-2.1-2.2-5.5-4.2-8.3-2.5
	c-5.4,5.1-10.6,10.6-16,15.7c-9,11.9-8,32.1-2.8,45.5c47.3,62.3,111.1,110.9,160.6,171.8C496.2,635.3,499.7,631.6,496.5,627.9z
	 M352,496.3c-6.4-7.9-12.4-15.3-18.5-22.7c-0.4-0.5-0.5-1.9-1.8,0.1c-6.5,8-10.8,20.4-20.5,24.5c1.5-8.4,9.5-14.5,13.7-21.7
	c-5-2.4-11.3-2.1-15.6-5.4c0.5-0.1,1-0.2,1.5-0.3c5.6,0.2-4.8-8-5.8-9.6c-13.9,6.7-25.1,20.7-34.3,33.4c-3.9,4.6-4.1,5.5-0.2,9.9
	c18.3,21.2,37,42.5,58.1,61c6.4,5.6,13.2,4.3,20,1.2c16.5-7.8,33.5-14.3,48.7-24.3C382.4,527,366.4,512.3,352,496.3z M327.8,511
	c-0.9,7.3,0.7,14.5-2.5,21c-3.8-6.6-0.7-45.8,5.4-50.3c0.3,1.4,0.5,2.9,0.4,4.4C330,494.2,328.9,502.3,327.8,511z M303,458
	c-5.4-13.6-29.7,19.4-35.6,24.1c-3.8,4.2-8,9.4-2.7,13.9c0.3,0.3,1.6,0.1,1.8-0.4C275.4,480.3,287.9,467.3,303,458z"/>
<path class="st8" d="M805.8,246.5c4.1,4.7,11.3,7,16.8,10c2.1,0.4,12.3-7.9,10.9-11c-2.4-5.6-4.8-10.3-7.4-14.9
	c-0.5,0.4-1.6,0.9-1.8,1.4C823.6,242.4,814.6,245.4,805.8,246.5z M716.5,237.6c31.5,10.9,59.6,26.2,91.6,35
	c16.1,2.2,5.1-4.8,18.7-11.7c-8.6-1.5-15.9-4.4-22.5-10c-10.7-4.4-23.5,1.3-34.6-1.3c6.2-4.4,15.4-2.7,22.6-5
	c-6.3-1.6-12.8-0.8-19-1.5c3.7-4.5,10.9-1.3,16.2-2.2c7-0.2,3.6,5.2,11.3,6.8c-11.5-23.2-10.7-51.2-12-77.2c1.6-5.9,1.6-5.9-3.7-8.6
	c-3.8-3.1-19.2-6.4-15.8-12.4c-3.5-1.6-6.5,2.3-9.6-1.4c-0.6-0.7-2.7-0.6-3.6,0c-17.7,5.9-37.3,2.8-55.5,8.8
	c-16.3-0.1-32.8-11.2-49-11.8c4.2,6.1,13.1,7.2,18.5,12.2c-7.3,3.9-16.3-3-24.2-1.5c1.6,3.9,6.7,2.6,9,5.8c-0.8,0.5-1.8,1.4-2.6,1.4
	c-15.9,1.8-28.8-8.6-43.4-12.2c5.9,7.1,16.3,10.3,21.4,18c-8.5,0.6-17.3-3.9-25.7-2.8c3.5,7.1,11.6,11.5,17.2,17.1
	c5.2,4.9,12.5,7.9,17,13.4c-6.9,3.4-33.1-15.1-42.3-18.1c3.2,15.9,20.2,25.3,30.1,37.4c4.7,5.9,9.2-1.7,14-3.7
	c-0.3,5.1-4.4,8.2-8.8,9.7c-4.3,1.2-8.2,5-13.1,2.9c-0.2,8.5,8.1,11.9,14,15.8c11.9,8.3,23.1,17.5,33.8,27.4
	C666.7,237,691.1,230.2,716.5,237.6z M744.6,158.8c25.7-4.2,33.5,36.6,33.5,56.1c-2.4,8.9-1.3,19.6-8.5,25.9
	c-20.7,13.1-71.3-13.4-68.7-38.7C705.7,169.2,711.2,162.8,744.6,158.8z M813.3,195.3c-3-8.8-6.1-17.4-14.7-22.3
	c-2.5-1.7-4.6-2.9-6.8-4.1c2,14.6-0.2,30.2,3.5,44.3C798.6,202.4,799.6,194.2,813.3,195.3z M722.4,229.1
	c-20.5-43.6,41.2-52.7,52.1-17.5c-0.4-16.2-8.1-42.9-18.8-45.2c-10.2,1.6-20.3,3.6-30.4,5.3c-15.2,2.8-18.2,18.3-20.9,30.7
	C703.1,214.1,714.3,222.6,722.4,229.1z M721.8,146.7c-5.4,1.4-8.4-3.4-12.8-4.8c0.7,1.9,1.9,3.7,2.8,5.6c-12.9-2.6-5-1.4-10.2,2.9
	c-0.2-0.3-2.5-0.4-3.9-0.6c-0.4,2.2-0.4,3.9,3.2,3.3c12-3.3,24.6-4.2,37-5.7c-0.4-0.4-0.7-1-1.1-1.1c-7.1-1.6-14.2-5.8-21.4-5.6
	C717.2,143,720.1,144.1,721.8,146.7z M719.3,440.2c-6.5-0.1-25.5-7.8-29.4-4.1c0.2,1.9-1.6,4.7,2.1,5.3c9.7,2.7,27.3,2.7,28.8,15.3
	c-5.6-2.5-9.8-8.9-16.3-8.5c-3.6-0.4-7.2-1-10.8-1.8c0.1,0.7,0.2,1.5,0.4,2.4c1.7,1.1,3.3,2.3,5.2,3.7c3.8,2.2,7.4,3.7,10.2,7
	c-5.6,2.2-9.1-2.1-13.3-5c-0.4-0.4-0.9-0.8-1.5-1.1c0.4,2.4,0.7,4.3,1,4.6c0.9,1,1.7,2,2.4,3.1c2.4,2.8,5.9,4.1,5.7,7.8
	c-5,0.4-6.5-7-11.9-5.7c4.7,7.7,14.1,10.5,22.3,12.5c3.5,0.7,0.4,2.5,0.5,4.5c5.6-0.2,12.8-1.8,11.8-8.4c0.2-9-0.2-17.9-0.7-26.9
	C725.5,441.3,722.2,440.8,719.3,440.2z M505.3,648.5c-1.3,7.3,17.2,22.6,21.5,30c15.2,17.6,27.3,37.3,39.3,57.2
	c3.4-4.7,3-11.3,4.9-16.7c3.8-17.2,10.3-34.2,9.8-51.9c-0.5,0.3-0.9,0.7-1.5,1.1s-1.2,0.4-1.8,0.7c0-0.7-0.2-1.4-0.2-2.1
	c0.4-2.1,0.7-4.2,1.2-6.2c-0.5-1-0.9-2-1.2-3c-3,6.2-2.4,13.5-4.7,19.9c-3.3,7.3-4.5,17.4-10.7,22.5c0.5-9.1,3.4-6.5-3.2-15
	c-6.3-9.2-12.3-18.7-18.1-28.2C517,622.2,528.8,612.7,505.3,648.5z M530.8,199.4c-10.7-8.6-16-9.3-20.2-7.9
	c-6.4,7.2-25.9,28.9-20.6,30.3c1.2-1.2,2.4-2.4,3.6-3.6c0.3-0.4,1.1-0.4,1.7-0.7c0.5,1.4,1,2.9,1.6,4.2c2.2-1.3,4.6-2.3,7-3.1
	c-0.7,5.7-8.1,7.3-7.9,13.1c4.5,0.3,5.5-5,9.6-5.6c1.9,3.6-2.4,5.6-2,9c3.1,0.6,4.7-2.7,7.5-3.4c0.2,0.6,0.3,1.3,0.4,1.9
	c-0.1,0.7-0.4,1.3-0.5,2c5.8-3.4,10-9.9,11.4-16.8c0.2-1.1,1.4-2.1,2.1-3.1c3.6,7.5-2.6,16.2-8,20.5c36.6,22.4,25.3,32,39.2-11.7
	C558,214.9,537,206.1,530.8,199.4z M331.5,423.4c5.2-8.4,12.6-15.1,20.9-20.6c1.3-0.8,2.2-1,0.7-3c-12.8-14.3-21.5-33.5-14.6-52.8
	c-1-7.2-11-10.2-15.2-15.6c-23.9-25.7-42.9-55.5-64.2-83.2c-4.4-5-8.9-9.9-13.5-14.6c1.6,5.9,2.8,13.3,3.7,17.4
	c-1.4-1-2.8-1.9-4.3-2.8c-0.6-0.5-1.2-1.1-1.7-1.7c-0.1-0.4-0.1-0.9-0.2-1.3c-4-3.4-7.9-6.9-11.6-10.7c-2.6,4.5,2,9.6,0.6,14.4
	c-0.8-0.4-2.1-0.5-2.4-1.1c-0.2-0.5-0.3-0.9-0.5-1.3c-3.7-4.3-9.9-13.5-13.2-15.6c-1.4,14.2,7.6,27.5,15.2,39
	c1.4,3.4,5.4,7.8,3.3,11.3c-0.7-0.7-1.3-1.4-1.9-2.2c-8.2-3.3-18.3-12-24.8-17.1c-2.1-4.6-8.4-10.5-10.6-15.9
	c-0.1,0.8-0.2,1.5-0.1,2.3c1.8,7,3.8,13.9,9,19.6c1.3,2.3,2.6,4,3.3,6.3c-4.9-0.8-8.6-5-11-9.8c-2.4-2.4-5.5-5.5-5.6-5.7
	c-1.9-2.5-3.6-5.1-5.6-8c-1-2.3-5.9-6.4-7.2-9.4c5.1,15.9,13.2,30.2,26.1,41.7c1.8,2.8,4.1,4.7,2.4,8c-1.1-0.7-2.1-1.4-3-2.3
	c-9.3-1.1-21.3-6.8-29.3-9c2.9,7.6,10.9,13.4,16.6,19.2c10.9,10,25.2,14,37.5,21.5c-2.2,0-5.1,1.4-7.1,0.5l-2.8,1
	c-19.1,5.3-37.1-7.3-53.5-15.3c3.4,8.5,9.1,22.8,14.1,31c1.2,1.1,2.4,2.2,3.5,3.3c-3.5,1.1-6.6-0.9-9.9-1.8
	c14.2,8.4,28.1,17.7,40.4,29.1c30.6,28.6,68.3,48.6,109.1,57.7C326.3,426.7,329.1,427.2,331.5,423.4z M276.2,465.8
	c5.1-4.7,10.5-8.9,15.7-13.4c3.1-3.9-13-22-15.4-27.6c-2.7-4.1-4.8-5-9-2.4c-12.9,8.2-25.4,16.9-38.4,24.8
	c-7.1,4.4-12.6,11.4-21.4,13.1c-1.9,0.8-3.7,1.6-5.4,2.4l2.4,1.6c10.8,0.5,19.6-5,29.7-7.6c0.1,4.8-5.5,8.8-8.2,12.6
	c-2.2,2.7-7.2,2.4-8.2,6.3c3.1,1,5.2-1.6,8.2-2c0.2,1.7-0.6,3.4-2.1,4.4c1,0.8,2.1,1.8,3.1,2.7c4.5-2.2,8.6-5.8,13-8.1
	c-0.3,5.5-4.6,8.8-9.7,11c1.6,1.4,3,2.4,3.6,2.2c9.8-4.7,16.8-14.1,24.6-21.7C268.9,451.2,269.6,472.1,276.2,465.8z"/>
<path class="st9" d="M693.1,152.1c2.5-2.6,0.5-6.9,3.6-9.3c2.2,1.1,1.6,3.8,1.1,6.2c0.6-0.1,1.4-0.2,2.4-0.4c0.5-2.6-0.4-6,3.7-6.6
	c1-0.1,1.9-0.3,2.8-0.7c-0.8-4.5,4.3-1.6,8.5-4.1c-3.9-2.5-22.8-10.9-24.9-4.8C690.5,138.6,688.5,147.1,693.1,152.1z M683.9,457.7
	c3.9-1,5.6,1.8,8.9,2.8v-1.5c-0.1-0.4-0.1-3.7,0-7.1c-1.4-1-2.4-2.2-2.1-4.1c0.7,0,1.4,0.1,2.1,0.2v-1.8c-11.8-2.8-22.9-8-32.5-15.3
	c-4.5-4.4-3.5,1-5.5,4.4c-5.5-18.3,13.7-52.8-13.8-58.5c-7-1.9-18.8-6.5-20,4.9c-0.7,8.7,0.2,9.6,9.1,10.2c5.9,1,13,0.7,17,5.9
	c-8.8,3.3-26.5-10.4-28.5,3.9c0,5.6-0.8,7.3,5.5,7.8c6.3,2.1,15.2,2.3,18.7,8.8c-8.1,0.2-17.2-7.4-24.9-3.5
	c-2.1,3.6,0.5,11.1,4.4,13c21.7,11.1,44.4,20.5,64.1,34.9c-0.4-0.7-0.7-1.3-1-2C684.8,459.7,684.3,458.8,683.9,457.7z M600.8,165.6
	c1-6.9,11.8-3.6,17.2-3c-5.3-4.2-13.4-7.4-13.4-15.2c4.3-1.6,7.9-0.5,11.7,1.8c9.1,2.8,18.2,10,27.6,9.9c-1.3-4.8-8.3-5.6-8.7-10.5
	c7,0,13.1,6,20.2,5c-2.5-2.6-6.8-3.9-6.6-8.3c0.1-0.7-1.5-2.1-2.5-2.2c-25.8-6.4-51.8-12-78.1-16c-4.2-0.2-17.3-2.2-13.1,5.6
	c9.8,18,23.1,33.4,36.8,48.5c0.8,0.7,1.3,0.9,1.8,1.2c0-0.4,0-0.8,0-1.2c0-1.8,0.1-3.6,0.2-5.4c10.2-0.4,17,9.3,26.4,11.4
	C614.8,179.3,601.7,175.8,600.8,165.6z M571.3,737.2c28.9-18.9,61.7-95.8,65.7-146.4c-4.8,0.8-9.1-6.3-10.7-10.2
	c-0.3,2.1-1.1,4.1-1.6,6.1c-0.2,7.7-10.7,10.1-12.7,2.1c-3.4-8.1-3.3-16.8-4.2-25.8c0.5-6.7-2.6-16,5-19.1
	c7.4-0.1,8.2,9.8,11.5,14.8c0.2-2.5,2.8-6.8,5.4-9.1c-9.5-12.8-29-17.5-37.8-0.4c-1.7,4.6-3.9,8.8-4,13.1
	c-1.4,27.5-0.6,55.3-0.4,82.7C587.8,676.6,576.8,706.6,571.3,737.2z M628.4,623.2c-1.3,2.7-2.4,5-3.3,6.9c0.1,2.6-1.5,5.6-3.5,6.5
	c-0.5,0.7-0.7,0.7-0.7,0.2c-0.5,0.1-1.1,0.1-1.6-0.1c-2.2-0.7-6.6,2.6-9.7,5.1c-2.5,4.8-9.9,5-13.1,1.2c-6.7-12.1-2.9-26.8,4.6-37.7
	C615,586.9,641.3,604.2,628.4,623.2L628.4,623.2z M592.2,554.9c11.1-13.4,11.9,11.8,14,19c0,7,1.8,19.8-8.1,19.2
	C586.5,590.3,588.8,563.5,592.2,554.9L592.2,554.9z M619.2,375.1c-7.9,2.4-8.6,14.3-3.1,19.5c0.2,0.1,0.9-0.2,1.5-0.2
	C618.4,387.5,616.9,381.3,619.2,375.1z M581.3,662.6c6.7-34.1-1.9-71.5,5-106.3c-10.4,19.1-4.6,49.6-7,71.7c0.2,8.6-4.2,16.3,0,23.8
	C580.8,654.4,579.8,659.4,581.3,662.6z M491.4,237.2c0.5-5.6,0.6-9,1.7-11.4c-1.3,0-2.5-0.1-3.8-0.4c-0.7,1.3-1.5,2.5-2.2,3.7
	c-0.6,0.9-1.3,1.8-2,2.6c-0.2-1-0.4-2.1-0.5-3s-0.3-1.9-0.4-2.8c-14,15.6-28,31.1-42.7,46.1c-5.6,5.9-10.5,12.1-12.3,20.5
	c-2.2,16.3-14.5,34.8-2.9,49.9c0.7-4.6,0-9.6,3.3-13.3c3.7,7.4-1.1,17,2.7,24.3c18.9,12.2,21.2-16.7,30.1-25.9
	c2.8,3.7-1.3,6.7-1.2,10.5c6.7-2.8,16.8-9.1,13.9-17.7c-3.7-10-9.1-19-17.7-25.7c-14.9-10.9,14.4-30.9,22.4-38.3
	c2.1-2.8,22.4-14.1,19.4-15.5c-1.3-2.7,2.4-4.7,2.8-7.3C498.8,232,493.7,241.6,491.4,237.2z M170.4,320.5
	c-2.7-4.5-9.2-10.4-6.1-15.9c1.6-1,6.1-0.6,8.1,1c12.2,8.3,30.5,10.4,45.9,13.1c-11.7-5.8-23.7-11.5-33.1-20.6
	c-21.3-22.1-14.2-27.2,11.2-13c1.4,0.5,4.2,1,6.9,1.7c-11.7-11.4-31.4-38.9-24-47.5c0.1,0.3,0.2,0.7,0.4,1c-0.1-0.2-0.1-0.5-0.1-0.7
	c1.6,1.3,10.8,11.6,16.7,19.4c-0.5-1.6-0.8-3.3-1-5c0.1-4.7-3.7-10.2,0.4-13.9c1.2,0.7,1.9,2,1.9,3.4c7.2,8.7,20.4,19.1,30.1,28.4
	c-3.9-6.1-7-12.7-10.7-19.1c-0.9-7-9.6-19.3-3.3-24.4c2.6-1.6,4.6,0.2,6,2.4c0.9,1.9,5.1,6.4,8.1,10.4l-0.5-2
	c-1.6-12.1,8.5-7,14.8-0.1c-0.2-1.1-0.4-2.3-0.5-3.5c0-0.2,0.4-3,0.9-5.4c-16-16.2-33.4-31.1-53.1-42.7c-11-7.1-21.7-15.3-35.6-16.4
	c-0.4-0.1-2.6-0.1-5.4-0.2c5.4,0.7,9.4,1.7,11.2,2.7c3.9,2.4,7.8,3.8,10.6,7.2c-15.7-3.9-34.4-4.8-52.7-4.8
	c6.1,0.5,12.1,2.3,17.5,5.3c-5.6,3.4-12.7-1.1-18.9-0.7c-3.4-0.2-6.9-0.3-10.3-0.3C49.9,193-3,258.5,5.5,318.1
	c0.7-0.5,1.8-0.9,1.8-1.5c0.6-8.7,8.1-13.6,11.2-20.9c1.5-2.7,3.2-5.7,6.1-7c0.8,5.6-5.3,9-4.4,15c29-57.9,114.6-5.1,154.5,28.8
	C173.2,328.3,172.2,323,170.4,320.5z M220.4,491c1.4-1.3,6.4-1.9,5.6-6c-2.5,0.7-5,1.3-7.3,1.7c-2.8,0.3-4.4-0.4-6.6-1.6
	c1.5-1.5,2.9-3.3,5.3-2.6c2.4,0.3,4.9,0,7.2-0.9c-0.6-1-1.3-1.9-2.1-2.8c-4.7,1.9-11.8,0.1-8.3-3.8c4.5-4,9.8-7.2,14.6-10.8
	c-7-0.9-21.4,5.1-27.5-1.1c-4.2,1.8-8.2,2.7-12.6-0.2c-10.6-6.7-30.4-0.5-35.2,10.9c-1.1,2.6-0.3,5,1.9,6.9c11,10,22.8,6.4,35.7,3.9
	c-1.1,1.3-1.9,3.3-3.3,3.9c-12.2,6.2-24.7,3.1-35-5.1c-0.2,12.8,15.2,21.1,26.8,17.6c6.3-1.3,12.5-5,19-4
	c-4.9,6.4-14.9,4.5-21.7,8.5c13.7,4.9,44.4-7.4,54.4-16.8C227.7,489.1,223.8,492.6,220.4,491z"/>
</svg>
