<?xml version="1.0" encoding="iso-8859-1"?>
<!-- Generator: Adobe Illustrator 26.0.1, SVG Export Plug-In . SVG Version: 6.00 Build 0)  -->
<svg version="1.1" id="Layer_1" xmlns="http://www.w3.org/2000/svg" xmlns:xlink="http://www.w3.org/1999/xlink" x="0px" y="0px"
	 viewBox="0 0 500 500" style="enable-background:new 0 0 500 500;" xml:space="preserve">
<g id="watermark_1_">
	<g>
		<g id="watermark" style="opacity:0.61;">
			<g>
				<g>
					<g>
						<g>
							<polygon style="fill:#FFFFFF;" points="213.765,461.172 208.204,474.017 205.268,474.017 199.726,461.172 202.938,461.172
								206.846,470.347 210.81,461.172 							"/>
						</g>
						<g>
							<path style="fill:#FFFFFF;" d="M223.507,469.741h-7.469c0.275,1.23,1.321,1.982,2.826,1.982c1.046,0,1.798-0.312,2.477-0.954
								l1.523,1.651c-0.917,1.046-2.294,1.597-4.074,1.597c-3.413,0-5.634-2.147-5.634-5.083c0-2.954,2.257-5.083,5.267-5.083
								c2.899,0,5.138,1.945,5.138,5.12C223.562,469.191,223.526,469.503,223.507,469.741 M216.002,468.071h4.863
								c-0.202-1.248-1.138-2.055-2.422-2.055C217.139,466.016,216.204,466.805,216.002,468.071"/>
						</g>
						<g>
							<path style="fill:#FFFFFF;" d="M224.735,468.934c0-2.973,2.294-5.083,5.505-5.083c2.074,0,3.707,0.899,4.423,2.514
								l-2.22,1.193c-0.532-0.936-1.321-1.358-2.221-1.358c-1.45,0-2.587,1.009-2.587,2.734c0,1.725,1.138,2.734,2.587,2.734
								c0.899,0,1.688-0.404,2.221-1.358l2.22,1.211c-0.716,1.578-2.349,2.495-4.423,2.495
								C227.029,474.017,224.735,471.907,224.735,468.934"/>
						</g>
						<g>
							<path style="fill:#FFFFFF;" d="M242.828,473.393c-0.587,0.422-1.45,0.624-2.331,0.624c-2.33,0-3.688-1.193-3.688-3.542
								v-4.055h-1.523v-2.202h1.523v-2.404h2.863v2.404h2.459v2.202h-2.459v4.019c0,0.844,0.458,1.303,1.229,1.303
								c0.422,0,0.844-0.128,1.156-0.367L242.828,473.393z"/>
						</g>
					</g>
					<g>
						<path style="fill:#FFFFFF;" d="M262.474,463.997v2.643c-0.238-0.018-0.422-0.037-0.642-0.037
							c-1.578,0-2.624,0.862-2.624,2.753v4.661h-2.863v-9.873h2.734v1.303C259.776,464.493,260.951,463.997,262.474,463.997"/>
					</g>
					<g>
						<path style="fill:#FFFFFF;" d="M263.299,472.53l1.009-2.239c1.083,0.789,2.697,1.339,4.239,1.339
							c1.762,0,2.477-0.587,2.477-1.376c0-2.404-7.469-0.752-7.469-5.524c0-2.184,1.762-4,5.413-4c1.615,0,3.267,0.385,4.459,1.138
							l-0.918,2.257c-1.193-0.679-2.422-1.009-3.56-1.009c-1.761,0-2.44,0.66-2.44,1.468c0,2.367,7.468,0.734,7.468,5.45
							c0,2.147-1.78,3.982-5.45,3.982C266.492,474.017,264.437,473.411,263.299,472.53"/>
					</g>
					<g>
						<path style="fill:#FFFFFF;" d="M285.428,469.741h-7.469c0.275,1.23,1.321,1.982,2.826,1.982c1.046,0,1.798-0.312,2.477-0.954
							l1.523,1.651c-0.918,1.046-2.294,1.597-4.074,1.597c-3.413,0-5.634-2.147-5.634-5.083c0-2.954,2.257-5.083,5.267-5.083
							c2.9,0,5.138,1.945,5.138,5.12C285.484,469.191,285.447,469.503,285.428,469.741 M277.923,468.071h4.863
							c-0.202-1.248-1.138-2.055-2.422-2.055C279.061,466.016,278.125,466.805,277.923,468.071"/>
					</g>
					<g>
						<path style="fill:#FFFFFF;" d="M297.007,469.741h-7.469c0.275,1.23,1.321,1.982,2.826,1.982c1.046,0,1.798-0.312,2.477-0.954
							l1.523,1.651c-0.918,1.046-2.294,1.597-4.074,1.597c-3.413,0-5.634-2.147-5.634-5.083c0-2.954,2.257-5.083,5.267-5.083
							c2.899,0,5.138,1.945,5.138,5.12C297.062,469.191,297.025,469.503,297.007,469.741 M289.501,468.071h4.863
							c-0.202-1.248-1.138-2.055-2.422-2.055C290.639,466.016,289.703,466.805,289.501,468.071"/>
					</g>
					<g>
						<polygon style="fill:#FFFFFF;" points="303.208,470.145 301.831,471.503 301.831,474.017 298.969,474.017 298.969,460.401
							301.831,460.401 301.831,468.108 306.016,464.144 309.429,464.144 305.318,468.328 309.796,474.017 306.327,474.017 						"/>
					</g>
					<g>
						<path style="fill:#FFFFFF;" d="M256.601,475.359L256.601,475.359l-2.86-2.86c-0.435,0.508-0.953,0.943-1.534,1.284
							c-0.092,0.069-0.186,0.136-0.283,0.199l3.027,3.027c0.456,0.456,1.195,0.456,1.65,0
							C257.057,476.554,257.057,475.815,256.601,475.359"/>
					</g>
					<g>
						<path style="fill:#FFFFFF;" d="M249.984,463.244c0.221-0.173,0.495-0.281,0.797-0.281c0.042,0,0.083,0.002,0.124,0.006
							c-0.214-0.156-0.478-0.249-0.764-0.249c-0.395,0-0.744,0.18-0.981,0.458c-0.051,0-0.1,0.006-0.151,0.008
							c0.039-0.077,0.064-0.162,0.064-0.255c0-0.234-0.143-0.434-0.346-0.519c0.087,0.126,0.138,0.279,0.138,0.445
							c0,0.122-0.031,0.237-0.081,0.341c-2.811,0.201-5.03,2.539-5.03,5.4c0,2.993,2.426,5.42,5.42,5.42
							c2.993,0,5.42-2.426,5.42-5.42C254.595,465.879,252.593,463.635,249.984,463.244 M247.983,464.656
							c0.435,0,0.844,0.112,1.199,0.309c0.374-0.245,0.82-0.387,1.299-0.387c0.711,0,1.348,0.312,1.784,0.806
							c-0.435-0.379-1.004-0.61-1.627-0.61c-0.449,0-0.87,0.12-1.234,0.329c-0.079,0.046-0.156,0.096-0.229,0.15
							c-0.065-0.048-0.133-0.093-0.204-0.134c-0.369-0.219-0.8-0.344-1.26-0.344c-0.3,0-0.588,0.054-0.854,0.152
							C247.196,464.754,247.578,464.656,247.983,464.656 M251.772,469.098c0.115,0.305,0.181,0.634,0.181,0.979
							c0,1.534-1.244,2.777-2.778,2.777c-1.534,0-2.777-1.243-2.777-2.777c0-0.345,0.066-0.674,0.181-0.979
							c-0.62-0.382-1.035-1.064-1.035-1.846c0-1.197,0.971-2.168,2.168-2.168c0.565,0,1.078,0.218,1.463,0.572
							c0.386-0.354,0.899-0.572,1.464-0.572c1.197,0,2.168,0.971,2.168,2.168C252.807,468.034,252.392,468.716,251.772,469.098"/>
					</g>
					<g>
						<path style="fill:#FFFFFF;" d="M251.666,467.061c0,0.497-0.404,0.901-0.901,0.901c-0.497,0-0.901-0.404-0.901-0.901
							s0.404-0.901,0.901-0.901c0.101,0,0.197,0.017,0.287,0.047c-0.03,0.062-0.045,0.132-0.045,0.204
							c0,0.273,0.221,0.494,0.494,0.494c0.05,0,0.099-0.008,0.146-0.022C251.66,466.941,251.666,467,251.666,467.061"/>
					</g>
					<g>
						<path style="fill:#FFFFFF;" d="M248.255,467.061c0,0.376-0.305,0.681-0.681,0.681c-0.376,0-0.681-0.305-0.681-0.681
							s0.305-0.681,0.681-0.681c0.076,0,0.149,0.013,0.217,0.035c-0.023,0.047-0.034,0.1-0.034,0.155
							c0,0.206,0.167,0.374,0.374,0.374c0.038,0,0.075-0.006,0.11-0.017C248.25,466.97,248.255,467.015,248.255,467.061"/>
					</g>
					<g>
						<g>
							<g>
								<rect x="242.908" y="467.83" style="fill:#FFFFFF;" width="0.616" height="0.616"/>
							</g>
							<g>
								<rect x="254.827" y="467.83" style="fill:#FFFFFF;" width="0.616" height="0.616"/>
							</g>
							<g>
								<path style="fill:#FFFFFF;" d="M255.205,468.082h-0.14c0-3.248-2.642-5.89-5.89-5.89c-3.248,0-5.89,2.642-5.89,5.89h-0.14
									c0-1.611,0.627-3.125,1.766-4.264c1.139-1.139,2.653-1.766,4.264-1.766c1.611,0,3.125,0.627,4.264,1.766
									C254.578,464.957,255.205,466.471,255.205,468.082"/>
							</g>
						</g>
						<g>
							<rect x="248.868" y="461.814" style="fill:#FFFFFF;" width="0.616" height="0.616"/>
						</g>
						<g>
							<rect x="244.95" y="462.052" style="fill:#FFFFFF;" width="8.45" height="0.14"/>
						</g>
						<g>
							<path style="fill:#FFFFFF;" d="M245.174,462.15c0,0.108-0.088,0.196-0.196,0.196c-0.108,0-0.196-0.088-0.196-0.196
								c0-0.108,0.088-0.196,0.196-0.196C245.086,461.954,245.174,462.042,245.174,462.15"/>
						</g>
						<g>
							<path style="fill:#FFFFFF;" d="M253.596,462.15c0,0.108-0.088,0.196-0.196,0.196c-0.108,0-0.196-0.088-0.196-0.196
								c0-0.108,0.088-0.196,0.196-0.196C253.509,461.954,253.596,462.042,253.596,462.15"/>
						</g>
					</g>
				</g>
				<g>
					<path style="fill:#FFFFFF;" d="M314.356,473.409c0,1.559-2.364,1.559-2.364,0C311.993,471.851,314.356,471.851,314.356,473.409
						z"/>
				</g>
				<g>
					<g>
						<g>
							<path style="fill:#FFFFFF;" d="M161.739,466.549l1.772,6.088l1.855-6.088h2.215l-2.823,8.14h-2.33l-0.837-2.396l-0.722-2.708
								l-0.722,2.708l-0.837,2.396h-2.33l-2.839-8.14h2.231l1.855,6.088l1.756-6.088H161.739z"/>
						</g>
						<g>
							<path style="fill:#FFFFFF;" d="M176.713,466.549l1.772,6.088l1.855-6.088h2.215l-2.823,8.14h-2.33l-0.837-2.396l-0.722-2.708
								l-0.722,2.708l-0.837,2.396h-2.33l-2.839-8.14h2.231l1.855,6.088l1.756-6.088H176.713z"/>
						</g>
						<g>
							<path style="fill:#FFFFFF;" d="M191.687,466.549l1.772,6.088l1.855-6.088h2.215l-2.823,8.14h-2.33l-0.837-2.396l-0.722-2.708
								l-0.722,2.708l-0.837,2.396h-2.33l-2.839-8.14h2.231l1.855,6.088l1.756-6.088H191.687z"/>
						</g>
					</g>
					<g>
						<path style="fill:#FFFFFF;" d="M200.908,473.52c0,1.559-2.364,1.559-2.364,0C198.545,471.962,200.908,471.962,200.908,473.52z
							"/>
					</g>
					<g>
						<path style="fill:#FFFFFF;" d="M322.71,473.409c-0.935,0.919-1.919,1.28-3.117,1.28c-2.346,0-4.3-1.411-4.3-4.282
							s1.953-4.284,4.3-4.284c1.149,0,2.035,0.329,2.921,1.199l-1.264,1.329c-0.476-0.428-1.066-0.64-1.623-0.64
							c-1.346,0-2.33,0.985-2.33,2.396c0,1.542,1.05,2.362,2.297,2.362c0.64,0,1.28-0.18,1.772-0.672L322.71,473.409z"/>
					</g>
					<g>
						<path style="fill:#FFFFFF;" d="M331.805,470.472c0,2.33-1.591,4.217-4.217,4.217c-2.626,0-4.201-1.887-4.201-4.217
							c0-2.314,1.609-4.217,4.185-4.217C330.149,466.255,331.805,468.158,331.805,470.472z M325.389,470.472
							c0,1.231,0.739,2.38,2.199,2.38c1.46,0,2.199-1.149,2.199-2.38c0-1.215-0.854-2.396-2.199-2.396
							C326.144,468.077,325.389,469.258,325.389,470.472z"/>
					</g>
					<g>
						<path style="fill:#FFFFFF;" d="M338.572,474.689v-4.332c0-1.068-0.559-2.035-1.658-2.035c-1.082,0-1.722,0.967-1.722,2.035
							v4.332h-2.003v-8.107h1.855l0.148,0.985c0.426-0.82,1.362-1.116,2.133-1.116c0.969,0,1.937,0.394,2.396,1.51
							c0.723-1.149,1.658-1.478,2.708-1.478c2.297,0,3.43,1.412,3.43,3.84v4.365h-2.003v-4.365c0-1.066-0.442-1.97-1.526-1.97
							c-1.082,0-1.756,0.935-1.756,2.003v4.332H338.572z"/>
					</g>
				</g>
			</g>
		</g>
		<g style="opacity:0.61;">
			<g>
				<g>
					<path style="fill:#FFFFFF;" d="M345.988,431.299c-0.006-1.224-0.959-2.121-2.189-2.14c-0.924-0.014-0.832,0.12-0.834-0.867
						c-0.003-1.097-0.007-2.194,0.003-3.292c0.003-0.379-0.112-0.691-0.362-0.976c-2.342-2.668-4.678-5.342-7.019-8.011
						c-0.12-0.137-0.275-0.244-0.414-0.366c-6.214,0-12.427,0-18.641,0c-0.794,0.293-1.14,0.868-1.138,1.709
						c0.01,3.748,0.004,7.496,0.004,11.243c0,0.556-0.003,0.589-0.55,0.551c-1.497-0.102-2.516,0.986-2.497,2.492
						c0.044,3.476,0.013,6.953,0.014,10.429c0.001,1.58,0.867,2.443,2.45,2.449c0.582,0.002,0.582,0.002,0.582,0.6
						c0,2.219-0.001,4.438,0.001,6.657c0.001,1.192,0.58,1.771,1.768,1.771c8.013,0.001,16.027,0.001,24.04,0
						c1.168,0,1.755-0.583,1.757-1.745c0.002-2.256,0-4.512,0.001-6.768c0-0.512,0.002-0.511,0.52-0.515
						c0.271-0.002,0.541,0.008,0.809-0.058c0.996-0.246,1.69-1.044,1.694-2.069C346.003,438.696,346.005,434.997,345.988,431.299z
						 M317.537,417.162c5.337,0,10.674,0,16.01,0c0.548,0,0.554,0.007,0.554,0.561c0.001,2.243-0.001,4.486,0.001,6.73
						c0.001,0.811,0.249,1.059,1.06,1.059c1.91,0.001,3.821,0,5.731,0.001c0.458,0,0.479,0.021,0.481,0.483
						c0.003,0.887,0.002,1.775,0,2.662c-0.001,0.477-0.024,0.498-0.504,0.499c-3.895,0.001-7.79,0-11.684,0
						c-3.882,0-7.765,0-11.647,0c-0.55,0-0.552-0.001-0.552-0.561c-0.001-3.624-0.001-7.247,0-10.871
						C316.987,417.166,316.991,417.162,317.537,417.162z M340.822,451.579c-3.883,0.001-7.766,0-11.65,0c-3.871,0-7.742,0-11.613,0
						c-0.572,0-0.574-0.002-0.574-0.579c-0.001-1.997-0.001-3.994,0.001-5.991c0-0.464,0.023-0.486,0.478-0.487
						c7.803-0.001,15.607-0.001,23.41,0c0.478,0,0.499,0.02,0.499,0.503c0.002,1.997,0.001,3.994,0,5.991
						C341.375,451.574,341.37,451.579,340.822,451.579z"/>
				</g>
				<g>
					<g>
						<rect x="327.418" y="417.053" style="fill:#FFFFFF;" width="1.757" height="1.054"/>
					</g>
					<g>
						<rect x="325.662" y="418.107" style="fill:#FFFFFF;" width="1.757" height="1.054"/>
					</g>
					<g>
						<rect x="327.418" y="419.161" style="fill:#FFFFFF;" width="1.757" height="1.054"/>
					</g>
					<g>
						<rect x="325.662" y="420.215" style="fill:#FFFFFF;" width="1.757" height="1.054"/>
					</g>
					<g>
						<rect x="327.418" y="421.269" style="fill:#FFFFFF;" width="1.757" height="1.054"/>
					</g>
					<g>
						<rect x="325.662" y="422.323" style="fill:#FFFFFF;" width="1.757" height="1.054"/>
					</g>
					<g>
						<rect x="327.418" y="423.378" style="fill:#FFFFFF;" width="1.757" height="1.054"/>
					</g>
					<g>
						<rect x="325.662" y="424.432" style="fill:#FFFFFF;" width="1.757" height="1.054"/>
					</g>
					<g>
						<rect x="327.418" y="425.486" style="fill:#FFFFFF;" width="1.757" height="1.054"/>
					</g>
					<g>
						<rect x="325.662" y="426.54" style="fill:#FFFFFF;" width="1.757" height="1.054"/>
					</g>
					<g>
						<rect x="327.418" y="427.594" style="fill:#FFFFFF;" width="1.757" height="1.054"/>
					</g>
					<g>
						<rect x="325.662" y="428.648" style="fill:#FFFFFF;" width="1.757" height="1.054"/>
					</g>
				</g>
			</g>
			<g>
				<path style="fill:#FFFFFF;" d="M187.637,431.299c-0.006-1.224-0.959-2.121-2.189-2.14c-0.924-0.014-0.832,0.12-0.834-0.867
					c-0.003-1.097-0.007-2.194,0.003-3.292c0.003-0.379-0.112-0.691-0.362-0.976c-2.342-2.668-4.678-5.342-7.019-8.011
					c-0.12-0.137-0.275-0.244-0.414-0.366c-6.214,0-12.427,0-18.641,0c-0.794,0.293-1.14,0.868-1.138,1.709
					c0.01,3.748,0.004,7.496,0.004,11.243c0,0.556-0.003,0.589-0.55,0.551c-1.497-0.102-2.516,0.986-2.497,2.492
					c0.044,3.476,0.013,6.953,0.014,10.429c0.001,1.58,0.867,2.443,2.45,2.449c0.582,0.002,0.582,0.002,0.582,0.6
					c0,2.219-0.001,4.438,0.001,6.657c0.001,1.192,0.58,1.771,1.768,1.771c8.013,0.001,16.027,0.001,24.04,0
					c1.168,0,1.755-0.583,1.757-1.745c0.002-2.256,0-4.512,0.001-6.768c0-0.512,0.002-0.511,0.52-0.515
					c0.271-0.002,0.541,0.008,0.809-0.058c0.996-0.246,1.69-1.044,1.694-2.069C187.652,438.696,187.655,434.997,187.637,431.299z
					 M159.187,417.162c5.337,0,10.674,0,16.01,0c0.548,0,0.554,0.007,0.554,0.561c0.001,2.243-0.001,4.486,0.001,6.73
					c0.001,0.811,0.249,1.059,1.06,1.059c1.91,0.001,3.821,0,5.731,0.001c0.458,0,0.479,0.021,0.481,0.483
					c0.003,0.887,0.002,1.775,0,2.662c-0.001,0.477-0.024,0.498-0.504,0.499c-3.895,0.001-7.79,0-11.684,0
					c-3.882,0-7.765,0-11.647,0c-0.55,0-0.552-0.001-0.552-0.561c-0.001-3.624-0.001-7.247,0-10.871
					C158.636,417.166,158.64,417.162,159.187,417.162z M182.472,451.579c-3.883,0.001-7.766,0-11.65,0c-3.871,0-7.742,0-11.613,0
					c-0.572,0-0.574-0.002-0.574-0.579c-0.001-1.997-0.001-3.994,0.001-5.991c0-0.464,0.023-0.486,0.478-0.487
					c7.803-0.001,15.607-0.001,23.41,0c0.478,0,0.499,0.02,0.499,0.503c0.002,1.997,0.001,3.994,0,5.991
					C183.024,451.574,183.019,451.579,182.472,451.579z"/>
			</g>
			<g>
				<path style="fill:#FFFFFF;" d="M159.779,440.669v-7.897h2.779c0.375,0,0.726,0.061,1.053,0.182
					c0.327,0.121,0.612,0.292,0.855,0.513c0.242,0.221,0.434,0.483,0.573,0.789c0.14,0.305,0.21,0.642,0.21,1.009
					c0,0.375-0.07,0.715-0.21,1.02c-0.14,0.305-0.331,0.568-0.573,0.789c-0.243,0.221-0.528,0.392-0.855,0.513
					c-0.327,0.121-0.678,0.182-1.053,0.182h-1.29v2.901H159.779z M162.58,436.356c0.39,0,0.684-0.111,0.882-0.331
					c0.199-0.22,0.298-0.474,0.298-0.761c0-0.14-0.024-0.276-0.072-0.408c-0.048-0.132-0.121-0.248-0.221-0.347
					c-0.099-0.099-0.223-0.178-0.37-0.237c-0.147-0.059-0.32-0.089-0.518-0.089h-1.312v2.173H162.58z"/>
				<path style="fill:#FFFFFF;" d="M166.308,432.771h1.731l3.177,5.294h0.088l-0.088-1.522v-3.772h1.478v7.897h-1.566l-3.353-5.592
					h-0.088l0.088,1.522v4.07h-1.467V432.771z"/>
				<path style="fill:#FFFFFF;" d="M177.922,436.334h3.872c0.022,0.089,0.04,0.195,0.055,0.32c0.014,0.125,0.022,0.25,0.022,0.375
					c0,0.507-0.077,0.985-0.231,1.434c-0.154,0.449-0.397,0.849-0.728,1.202c-0.353,0.375-0.776,0.666-1.268,0.871
					c-0.493,0.206-1.055,0.309-1.688,0.309c-0.574,0-1.114-0.103-1.622-0.309c-0.507-0.206-0.948-0.492-1.323-0.86
					c-0.375-0.367-0.673-0.803-0.894-1.307c-0.221-0.504-0.331-1.053-0.331-1.649c0-0.595,0.11-1.145,0.331-1.649
					c0.221-0.504,0.518-0.939,0.894-1.307c0.375-0.367,0.816-0.654,1.323-0.86c0.507-0.206,1.048-0.309,1.622-0.309
					c0.64,0,1.211,0.11,1.715,0.331c0.504,0.221,0.935,0.526,1.296,0.915l-1.025,1.004c-0.258-0.272-0.544-0.48-0.861-0.623
					c-0.316-0.143-0.695-0.215-1.136-0.215c-0.361,0-0.703,0.065-1.026,0.193c-0.324,0.129-0.607,0.311-0.85,0.546
					c-0.242,0.235-0.436,0.52-0.579,0.855c-0.143,0.335-0.215,0.708-0.215,1.119c0,0.412,0.072,0.785,0.215,1.12
					c0.143,0.335,0.338,0.62,0.584,0.855c0.246,0.235,0.531,0.418,0.855,0.546c0.323,0.129,0.669,0.193,1.037,0.193
					c0.419,0,0.773-0.061,1.064-0.182c0.29-0.121,0.538-0.278,0.744-0.469c0.148-0.132,0.275-0.3,0.381-0.502
					c0.106-0.202,0.189-0.428,0.248-0.678h-2.482V436.334z"/>
			</g>
			<g>
				<path style="fill:#FFFFFF;" d="M224.019,431.299c-0.006-1.224-0.959-2.121-2.189-2.14c-0.924-0.014-0.832,0.12-0.834-0.867
					c-0.003-1.097-0.007-2.194,0.003-3.292c0.003-0.379-0.112-0.691-0.362-0.976c-2.342-2.668-4.678-5.342-7.019-8.011
					c-0.12-0.137-0.275-0.244-0.414-0.366c-6.214,0-12.427,0-18.641,0c-0.794,0.293-1.14,0.868-1.138,1.709
					c0.01,3.748,0.004,7.496,0.004,11.243c0,0.556-0.003,0.589-0.55,0.551c-1.497-0.102-2.516,0.986-2.497,2.492
					c0.044,3.476,0.013,6.953,0.014,10.429c0.001,1.58,0.867,2.443,2.45,2.449c0.582,0.002,0.582,0.002,0.582,0.6
					c0,2.219-0.001,4.438,0.001,6.657c0.001,1.192,0.58,1.771,1.768,1.771c8.013,0.001,16.027,0.001,24.04,0
					c1.168,0,1.755-0.583,1.757-1.745c0.002-2.256,0-4.512,0.001-6.768c0-0.512,0.002-0.511,0.52-0.515
					c0.271-0.002,0.541,0.008,0.809-0.058c0.997-0.246,1.69-1.044,1.694-2.069C224.034,438.696,224.036,434.997,224.019,431.299z
					 M195.568,417.162c5.337,0,10.674,0,16.01,0c0.548,0,0.554,0.007,0.554,0.561c0.001,2.243-0.001,4.486,0.001,6.73
					c0.001,0.811,0.249,1.059,1.06,1.059c1.91,0.001,3.821,0,5.731,0.001c0.458,0,0.479,0.021,0.481,0.483
					c0.003,0.887,0.002,1.775,0,2.662c-0.001,0.477-0.024,0.498-0.504,0.499c-3.895,0.001-7.79,0-11.684,0
					c-3.882,0-7.765,0-11.647,0c-0.55,0-0.552-0.001-0.552-0.561c-0.001-3.624-0.001-7.247,0-10.871
					C195.018,417.166,195.022,417.162,195.568,417.162z M218.854,451.579c-3.883,0.001-7.766,0-11.65,0c-3.871,0-7.742,0-11.613,0
					c-0.572,0-0.574-0.002-0.574-0.579c-0.001-1.997-0.001-3.994,0.001-5.991c0-0.464,0.023-0.486,0.478-0.487
					c7.803-0.001,15.607-0.001,23.41,0c0.478,0,0.499,0.02,0.499,0.503c0.002,1.997,0.001,3.994,0,5.991
					C219.406,451.574,219.401,451.579,218.854,451.579z"/>
			</g>
			<g>
				<path style="fill:#FFFFFF;" d="M205.111,432.771h1.699l2.967,7.897h-1.644l-0.651-1.886h-3.044l-0.651,1.886h-1.643
					L205.111,432.771z M206.997,437.415l-0.706-1.974l-0.287-0.96h-0.088l-0.287,0.96l-0.706,1.974H206.997z"/>
				<path style="fill:#FFFFFF;" d="M211.331,434.536c-0.125,0-0.245-0.024-0.359-0.072c-0.114-0.048-0.213-0.114-0.298-0.199
					c-0.084-0.084-0.151-0.182-0.198-0.292c-0.048-0.11-0.072-0.232-0.072-0.364s0.024-0.254,0.072-0.364
					c0.048-0.11,0.114-0.208,0.198-0.292c0.084-0.084,0.184-0.151,0.298-0.198c0.114-0.048,0.233-0.072,0.359-0.072
					c0.257,0,0.478,0.09,0.662,0.27c0.184,0.181,0.276,0.399,0.276,0.656s-0.092,0.476-0.276,0.656
					C211.809,434.446,211.589,434.536,211.331,434.536z M210.615,440.669v-5.404h1.445v5.404H210.615z"/>
			</g>
			<g>
				<path style="fill:#FFFFFF;" d="M261.044,431.299c-0.006-1.224-0.959-2.121-2.189-2.14c-0.924-0.014-0.832,0.12-0.834-0.867
					c-0.003-1.097-0.007-2.194,0.003-3.292c0.003-0.379-0.112-0.691-0.362-0.976c-2.342-2.668-4.678-5.342-7.019-8.011
					c-0.12-0.137-0.275-0.244-0.414-0.366c-6.214,0-12.427,0-18.641,0c-0.794,0.293-1.14,0.868-1.138,1.709
					c0.01,3.748,0.004,7.496,0.004,11.243c0,0.556-0.003,0.589-0.55,0.551c-1.497-0.102-2.516,0.986-2.497,2.492
					c0.044,3.476,0.013,6.953,0.014,10.429c0.001,1.58,0.867,2.443,2.45,2.449c0.582,0.002,0.582,0.002,0.582,0.6
					c0,2.219-0.001,4.438,0.001,6.657c0.001,1.192,0.58,1.771,1.768,1.771c8.013,0.001,16.027,0.001,24.04,0
					c1.168,0,1.755-0.583,1.757-1.745c0.002-2.256,0-4.512,0.001-6.768c0-0.512,0.002-0.511,0.52-0.515
					c0.271-0.002,0.541,0.008,0.809-0.058c0.996-0.246,1.69-1.044,1.694-2.069C261.059,438.696,261.061,434.997,261.044,431.299z
					 M232.593,417.162c5.337,0,10.674,0,16.01,0c0.548,0,0.554,0.007,0.554,0.561c0.001,2.243-0.001,4.486,0.001,6.73
					c0.001,0.811,0.249,1.059,1.06,1.059c1.91,0.001,3.821,0,5.731,0.001c0.458,0,0.479,0.021,0.481,0.483
					c0.003,0.887,0.002,1.775,0,2.662c-0.001,0.477-0.024,0.498-0.504,0.499c-3.895,0.001-7.79,0-11.684,0
					c-3.882,0-7.765,0-11.647,0c-0.55,0-0.552-0.001-0.552-0.561c-0.001-3.624-0.001-7.247,0-10.871
					C232.042,417.166,232.047,417.162,232.593,417.162z M255.878,451.579c-3.883,0.001-7.766,0-11.65,0c-3.871,0-7.742,0-11.613,0
					c-0.572,0-0.574-0.002-0.574-0.579c-0.001-1.997-0.001-3.994,0.001-5.991c0-0.464,0.023-0.486,0.478-0.487
					c7.803-0.001,15.607-0.001,23.41,0c0.478,0,0.499,0.02,0.499,0.503c0.002,1.997,0.001,3.994,0,5.991
					C256.431,451.574,256.426,451.579,255.878,451.579z"/>
			</g>
			<g>
				<path style="fill:#FFFFFF;" d="M236.361,440.845c-0.338,0-0.662-0.048-0.971-0.143c-0.309-0.095-0.592-0.239-0.849-0.43
					c-0.257-0.191-0.481-0.425-0.673-0.7c-0.191-0.276-0.342-0.597-0.452-0.965l1.401-0.551c0.103,0.397,0.283,0.726,0.54,0.987
					c0.257,0.261,0.596,0.392,1.015,0.392c0.154,0,0.303-0.02,0.447-0.061c0.143-0.04,0.272-0.099,0.386-0.176
					s0.204-0.175,0.27-0.292c0.066-0.118,0.099-0.254,0.099-0.408c0-0.147-0.026-0.279-0.077-0.397
					c-0.051-0.117-0.138-0.227-0.259-0.331c-0.121-0.103-0.28-0.202-0.475-0.298c-0.195-0.095-0.435-0.195-0.722-0.298l-0.485-0.176
					c-0.213-0.073-0.429-0.173-0.645-0.298c-0.217-0.125-0.413-0.276-0.59-0.452c-0.177-0.176-0.322-0.384-0.436-0.623
					c-0.114-0.239-0.171-0.509-0.171-0.81c0-0.309,0.06-0.597,0.182-0.866c0.121-0.268,0.294-0.503,0.518-0.706
					c0.224-0.202,0.492-0.36,0.805-0.474s0.66-0.171,1.042-0.171c0.397,0,0.74,0.053,1.031,0.16
					c0.291,0.107,0.537,0.243,0.739,0.408c0.202,0.165,0.366,0.348,0.491,0.546c0.125,0.199,0.217,0.386,0.276,0.563l-1.312,0.551
					c-0.074-0.221-0.208-0.419-0.402-0.596c-0.195-0.176-0.462-0.265-0.8-0.265c-0.324,0-0.592,0.075-0.805,0.226
					c-0.213,0.151-0.32,0.348-0.32,0.59c0,0.235,0.103,0.436,0.309,0.601c0.206,0.165,0.533,0.325,0.982,0.48l0.497,0.165
					c0.316,0.111,0.605,0.237,0.866,0.381c0.261,0.143,0.485,0.314,0.673,0.513c0.187,0.199,0.331,0.425,0.43,0.678
					c0.1,0.254,0.149,0.546,0.149,0.877c0,0.412-0.083,0.767-0.248,1.064c-0.165,0.298-0.377,0.542-0.634,0.734
					c-0.258,0.191-0.548,0.335-0.872,0.43C236.986,440.797,236.67,440.845,236.361,440.845z"/>
				<path style="fill:#FFFFFF;" d="M239.516,432.771h1.61l1.633,4.754l0.287,1.015h0.088l0.309-1.015l1.699-4.754h1.61l-2.879,7.897
					h-1.566L239.516,432.771z"/>
				<path style="fill:#FFFFFF;" d="M251.097,436.334h3.871c0.022,0.089,0.04,0.195,0.055,0.32c0.015,0.125,0.023,0.25,0.023,0.375
					c0,0.507-0.078,0.985-0.232,1.434c-0.154,0.449-0.397,0.849-0.728,1.202c-0.353,0.375-0.775,0.666-1.268,0.871
					c-0.493,0.206-1.055,0.309-1.688,0.309c-0.574,0-1.114-0.103-1.621-0.309c-0.507-0.206-0.949-0.492-1.324-0.86
					c-0.375-0.367-0.673-0.803-0.894-1.307c-0.22-0.504-0.331-1.053-0.331-1.649c0-0.595,0.11-1.145,0.331-1.649
					c0.221-0.504,0.518-0.939,0.894-1.307c0.375-0.367,0.816-0.654,1.324-0.86c0.507-0.206,1.047-0.309,1.621-0.309
					c0.64,0,1.211,0.11,1.715,0.331c0.504,0.221,0.936,0.526,1.296,0.915l-1.026,1.004c-0.257-0.272-0.544-0.48-0.861-0.623
					c-0.316-0.143-0.694-0.215-1.136-0.215c-0.36,0-0.702,0.065-1.026,0.193c-0.323,0.129-0.607,0.311-0.849,0.546
					c-0.243,0.235-0.436,0.52-0.579,0.855c-0.143,0.335-0.215,0.708-0.215,1.119c0,0.412,0.072,0.785,0.215,1.12
					c0.143,0.335,0.338,0.62,0.585,0.855c0.246,0.235,0.531,0.418,0.854,0.546c0.324,0.129,0.669,0.193,1.037,0.193
					c0.419,0,0.774-0.061,1.064-0.182c0.29-0.121,0.539-0.278,0.745-0.469c0.147-0.132,0.274-0.3,0.38-0.502
					c0.107-0.202,0.189-0.428,0.248-0.678h-2.482V436.334z"/>
			</g>
			<g>
				<path style="fill:#FFFFFF;" d="M297.3,431.299c-0.006-1.224-0.959-2.121-2.189-2.14c-0.924-0.014-0.832,0.12-0.834-0.867
					c-0.003-1.097-0.007-2.194,0.003-3.292c0.003-0.379-0.112-0.691-0.362-0.976c-2.342-2.668-4.678-5.342-7.019-8.011
					c-0.12-0.137-0.275-0.244-0.414-0.366c-6.214,0-12.427,0-18.641,0c-0.794,0.293-1.14,0.868-1.138,1.709
					c0.01,3.748,0.004,7.496,0.004,11.243c0,0.556-0.003,0.589-0.55,0.551c-1.497-0.102-2.516,0.986-2.497,2.492
					c0.044,3.476,0.013,6.953,0.014,10.429c0.001,1.58,0.867,2.443,2.45,2.449c0.582,0.002,0.582,0.002,0.582,0.6
					c0,2.219-0.001,4.438,0.001,6.657c0.001,1.192,0.58,1.771,1.768,1.771c8.013,0.001,16.027,0.001,24.04,0
					c1.168,0,1.755-0.583,1.757-1.745c0.002-2.256,0-4.512,0.001-6.768c0-0.512,0.002-0.511,0.52-0.515
					c0.271-0.002,0.541,0.008,0.809-0.058c0.996-0.246,1.69-1.044,1.694-2.069C297.315,438.696,297.318,434.997,297.3,431.299z
					 M268.85,417.162c5.337,0,10.674,0,16.01,0c0.548,0,0.554,0.007,0.554,0.561c0.001,2.243-0.001,4.486,0.001,6.73
					c0.001,0.811,0.249,1.059,1.06,1.059c1.91,0.001,3.821,0,5.731,0.001c0.458,0,0.479,0.021,0.481,0.483
					c0.003,0.887,0.002,1.775,0,2.662c-0.001,0.477-0.024,0.498-0.504,0.499c-3.895,0.001-7.79,0-11.684,0
					c-3.882,0-7.765,0-11.647,0c-0.55,0-0.552-0.001-0.552-0.561c-0.001-3.624-0.001-7.247,0-10.871
					C268.299,417.166,268.303,417.162,268.85,417.162z M292.135,451.579c-3.883,0.001-7.766,0-11.65,0c-3.871,0-7.742,0-11.613,0
					c-0.572,0-0.574-0.002-0.574-0.579c-0.001-1.997-0.001-3.994,0.001-5.991c0-0.464,0.023-0.486,0.478-0.487
					c7.803-0.001,15.607-0.001,23.41,0c0.478,0,0.499,0.02,0.499,0.503c0.001,1.997,0.001,3.994,0,5.991
					C292.687,451.574,292.682,451.579,292.135,451.579z"/>
			</g>
			<g>
				<path style="fill:#FFFFFF;" d="M272.966,434.183v1.831h3.165v1.412h-3.165v1.831h3.518v1.412h-5.007v-7.897h5.007v1.412H272.966
					z"/>
				<path style="fill:#FFFFFF;" d="M277.852,440.669v-7.897h2.779c0.375,0,0.726,0.061,1.053,0.182
					c0.327,0.121,0.612,0.292,0.855,0.513c0.243,0.221,0.434,0.483,0.574,0.789c0.14,0.305,0.209,0.642,0.209,1.009
					c0,0.375-0.07,0.715-0.209,1.02c-0.14,0.305-0.331,0.568-0.574,0.789c-0.243,0.221-0.528,0.392-0.855,0.513
					c-0.327,0.121-0.678,0.182-1.053,0.182h-1.29v2.901H277.852z M280.653,436.356c0.389,0,0.684-0.111,0.882-0.331
					c0.199-0.22,0.298-0.474,0.298-0.761c0-0.14-0.024-0.276-0.072-0.408c-0.048-0.132-0.121-0.248-0.221-0.347
					c-0.099-0.099-0.222-0.178-0.37-0.237c-0.147-0.059-0.32-0.089-0.518-0.089h-1.312v2.173H280.653z"/>
				<path style="fill:#FFFFFF;" d="M286.797,440.845c-0.338,0-0.662-0.048-0.971-0.143c-0.309-0.095-0.592-0.239-0.849-0.43
					c-0.257-0.191-0.482-0.425-0.673-0.7c-0.191-0.276-0.342-0.597-0.452-0.965l1.401-0.551c0.103,0.397,0.283,0.726,0.541,0.987
					c0.257,0.261,0.595,0.392,1.015,0.392c0.154,0,0.303-0.02,0.447-0.061c0.143-0.04,0.272-0.099,0.386-0.176
					c0.114-0.077,0.204-0.175,0.27-0.292c0.066-0.118,0.1-0.254,0.1-0.408c0-0.147-0.026-0.279-0.077-0.397
					c-0.051-0.117-0.138-0.227-0.259-0.331c-0.121-0.103-0.279-0.202-0.474-0.298c-0.195-0.095-0.436-0.195-0.723-0.298
					l-0.485-0.176c-0.213-0.073-0.428-0.173-0.645-0.298c-0.217-0.125-0.414-0.276-0.59-0.452c-0.176-0.176-0.322-0.384-0.436-0.623
					c-0.114-0.239-0.171-0.509-0.171-0.81c0-0.309,0.061-0.597,0.182-0.866c0.121-0.268,0.294-0.503,0.518-0.706
					c0.224-0.202,0.493-0.36,0.805-0.474c0.312-0.114,0.66-0.171,1.042-0.171c0.397,0,0.741,0.053,1.031,0.16
					c0.29,0.107,0.537,0.243,0.739,0.408c0.202,0.165,0.365,0.348,0.491,0.546c0.125,0.199,0.217,0.386,0.276,0.563l-1.312,0.551
					c-0.074-0.221-0.208-0.419-0.403-0.596c-0.195-0.176-0.462-0.265-0.799-0.265c-0.324,0-0.592,0.075-0.805,0.226
					c-0.213,0.151-0.32,0.348-0.32,0.59c0,0.235,0.103,0.436,0.309,0.601c0.206,0.165,0.533,0.325,0.982,0.48l0.496,0.165
					c0.316,0.111,0.605,0.237,0.866,0.381c0.261,0.143,0.485,0.314,0.673,0.513c0.187,0.199,0.331,0.425,0.43,0.678
					c0.099,0.254,0.149,0.546,0.149,0.877c0,0.412-0.083,0.767-0.248,1.064c-0.165,0.298-0.377,0.542-0.634,0.734
					c-0.258,0.191-0.548,0.335-0.872,0.43C287.422,440.797,287.105,440.845,286.797,440.845z"/>
			</g>
			<g>
				<path style="fill:#FFFFFF;" d="M321.394,439.168l4.004-4.985h-3.827v-1.412h5.559v1.5l-3.96,4.985h4.004v1.412h-5.779V439.168z"
					/>
				<path style="fill:#FFFFFF;" d="M328.409,432.771h1.489v7.897h-1.489V432.771z"/>
				<path style="fill:#FFFFFF;" d="M331.486,440.669v-7.897h2.779c0.375,0,0.726,0.061,1.053,0.182
					c0.327,0.121,0.612,0.292,0.855,0.513s0.434,0.483,0.574,0.789c0.14,0.305,0.209,0.642,0.209,1.009
					c0,0.375-0.07,0.715-0.209,1.02c-0.14,0.305-0.331,0.568-0.574,0.789c-0.243,0.221-0.528,0.392-0.855,0.513
					c-0.327,0.121-0.678,0.182-1.053,0.182h-1.29v2.901H331.486z M334.288,436.356c0.389,0,0.684-0.111,0.882-0.331
					c0.199-0.22,0.298-0.474,0.298-0.761c0-0.14-0.024-0.276-0.072-0.408c-0.048-0.132-0.121-0.248-0.221-0.347
					c-0.099-0.099-0.222-0.178-0.37-0.237c-0.147-0.059-0.32-0.089-0.518-0.089h-1.312v2.173H334.288z"/>
			</g>
		</g>
		<g style="opacity:0.61;">
			<path style="fill:#FFFFFF;" d="M300.133,433.27h9.067v2.242h-9.067V433.27z M300.133,437.136h9.067v2.243h-9.067V437.136z"/>
		</g>
	</g>
	<g style="opacity:0.61;">
		<path style="fill:#FFFFFF;" d="M156.756,478.878h1.607c1.263,0,2.114,0.812,2.114,1.974c0,1.161-0.851,1.973-2.114,1.973h-1.607
			V478.878z M158.34,482.464c1.049,0,1.725-0.665,1.725-1.612c0-0.947-0.677-1.613-1.725-1.613h-1.167v3.225H158.34z"/>
		<path style="fill:#FFFFFF;" d="M165.139,480.851c0-1.15,0.879-2.007,2.075-2.007c1.184,0,2.069,0.851,2.069,2.007
			c0,1.156-0.885,2.007-2.069,2.007C166.019,482.858,165.139,482.002,165.139,480.851z M168.866,480.851
			c0-0.942-0.705-1.635-1.652-1.635c-0.953,0-1.663,0.693-1.663,1.635c0,0.941,0.71,1.635,1.663,1.635
			C168.162,482.486,168.866,481.793,168.866,480.851z"/>
		<path style="fill:#FFFFFF;" d="M179.596,478.878l-1.331,3.947h-0.44l-1.156-3.366l-1.161,3.366h-0.434l-1.331-3.947h0.429
			l1.139,3.394l1.178-3.394h0.389l1.161,3.411l1.156-3.411H179.596z"/>
		<path style="fill:#FFFFFF;" d="M187.731,478.878v3.947h-0.344l-2.537-3.202v3.202h-0.417v-3.947h0.344l2.543,3.203v-3.203H187.731
			z"/>
		<path style="fill:#FFFFFF;" d="M193.093,478.878h0.417v3.586h2.21v0.361h-2.627V478.878z"/>
		<path style="fill:#FFFFFF;" d="M200.061,480.851c0-1.15,0.879-2.007,2.075-2.007c1.184,0,2.069,0.851,2.069,2.007
			c0,1.156-0.885,2.007-2.069,2.007C200.941,482.858,200.061,482.002,200.061,480.851z M203.788,480.851
			c0-0.942-0.705-1.635-1.652-1.635c-0.953,0-1.663,0.693-1.663,1.635c0,0.941,0.71,1.635,1.663,1.635
			C203.083,482.486,203.788,481.793,203.788,480.851z"/>
		<path style="fill:#FFFFFF;" d="M211.636,481.77h-2.199l-0.474,1.054h-0.434l1.804-3.947h0.412l1.804,3.947h-0.44L211.636,481.77z
			 M211.484,481.432l-0.947-2.12l-0.947,2.12H211.484z"/>
		<path style="fill:#FFFFFF;" d="M217.28,478.878h1.607c1.263,0,2.114,0.812,2.114,1.974c0,1.161-0.851,1.973-2.114,1.973h-1.607
			V478.878z M218.864,482.464c1.049,0,1.725-0.665,1.725-1.612c0-0.947-0.677-1.613-1.725-1.613h-1.167v3.225H218.864z"/>
		<path style="fill:#FFFFFF;" d="M234.041,481.77h-2.199l-0.474,1.054h-0.434l1.804-3.947h0.412l1.804,3.947h-0.44L234.041,481.77z
			 M233.889,481.432l-0.947-2.12l-0.947,2.12H233.889z"/>
		<path style="fill:#FFFFFF;" d="M239.685,478.878h0.417v3.586h2.21v0.361h-2.627V478.878z"/>
		<path style="fill:#FFFFFF;" d="M247.082,478.878h0.417v3.586h2.21v0.361h-2.627V478.878z"/>
		<path style="fill:#FFFFFF;" d="M260.449,479.239v1.551h2.041v0.361h-2.041v1.675h-0.417v-3.947h2.706v0.361H260.449z"/>
		<path style="fill:#FFFFFF;" d="M267.678,478.878h0.417v3.947h-0.417V478.878z"/>
		<path style="fill:#FFFFFF;" d="M273.456,478.878h0.417v3.586h2.21v0.361h-2.627V478.878z"/>
		<path style="fill:#FFFFFF;" d="M283.644,482.464v0.361h-2.791v-3.947h2.706v0.361h-2.289v1.404h2.041v0.355h-2.041v1.466H283.644z
			"/>
		<path style="fill:#FFFFFF;" d="M294.672,479.239v1.551h2.041v0.361h-2.041v1.675h-0.417v-3.947h2.706v0.361H294.672z"/>
		<path style="fill:#FFFFFF;" d="M301.5,480.851c0-1.15,0.879-2.007,2.075-2.007c1.184,0,2.069,0.851,2.069,2.007
			c0,1.156-0.885,2.007-2.069,2.007C302.379,482.858,301.5,482.002,301.5,480.851z M305.226,480.851
			c0-0.942-0.705-1.635-1.652-1.635c-0.953,0-1.663,0.693-1.663,1.635c0,0.941,0.71,1.635,1.663,1.635
			C304.522,482.486,305.226,481.793,305.226,480.851z"/>
		<path style="fill:#FFFFFF;" d="M313.351,482.825l-0.902-1.269c-0.102,0.011-0.203,0.017-0.316,0.017h-1.06v1.252h-0.417v-3.947
			h1.477c1.004,0,1.613,0.507,1.613,1.353c0,0.62-0.327,1.054-0.902,1.24l0.964,1.353H313.351z M313.328,480.231
			c0-0.632-0.417-0.992-1.207-0.992h-1.048v1.979h1.048C312.911,481.218,313.328,480.851,313.328,480.231z"/>
		<path style="fill:#FFFFFF;" d="M322.907,478.878v3.947h-0.4v-3.158l-1.551,2.656h-0.197l-1.551-2.639v3.14h-0.4v-3.947h0.344
			l1.714,2.926l1.697-2.926H322.907z"/>
		<path style="fill:#FFFFFF;" d="M330.744,481.77h-2.199l-0.473,1.054h-0.434l1.804-3.947h0.411l1.804,3.947h-0.44L330.744,481.77z
			 M330.592,481.432l-0.947-2.12l-0.947,2.12H330.592z"/>
		<path style="fill:#FFFFFF;" d="M336.957,479.239h-1.387v-0.361h3.192v0.361h-1.387v3.586h-0.417V479.239z"/>
		<path style="fill:#FFFFFF;" d="M343.063,482.346l0.164-0.321c0.282,0.276,0.784,0.479,1.302,0.479c0.739,0,1.06-0.31,1.06-0.699
			c0-1.083-2.43-0.417-2.43-1.877c0-0.581,0.451-1.083,1.455-1.083c0.446,0,0.908,0.13,1.224,0.35l-0.141,0.333
			c-0.338-0.22-0.733-0.327-1.083-0.327c-0.722,0-1.043,0.321-1.043,0.716c0,1.083,2.43,0.429,2.43,1.866
			c0,0.581-0.462,1.077-1.472,1.077C343.937,482.858,343.356,482.65,343.063,482.346z"/>
	</g>
</g>
<g>
</g>
<g>
	<path style="fill:#010101;" d="M239.852,198.082c-0.454,0.104-0.708,0.567-0.803,0.905c-0.554,3.26-0.653,6.669-0.603,10.128
		c0.056,1.188-0.148,2.912,1.304,3.214c0.705,0.2,1.403,0,1.955-0.454c0.193-3.91-0.123-7.494-0.368-11.242
		c-0.056-0.466-0.148-0.845-0.199-1.035C240.922,198.893,240.629,198.2,239.852,198.082"/>
	<path style="fill:#010101;" d="M272.74,209.567c0.134,1.239,0.785,2.529,1.894,3.155c0.158,0.079,0.4,0.164,0.725,0.201
		c2.921,0.258,5.306-1.28,7.515-3.005c0.252-0.553-0.145-1.256-0.504-1.708c-2.106-0.451-4.113,0.502-6.218,0.652l-0.004-0.003
		l-0.172,0.02c0.221-0.539,0.619-1.708,1.058-3.043c0.268-0.037,0.802-0.063,1.234-0.031c0.432,0.017,0.887,0.056,1.147,0.054
		c1.022,0,2.044,0.085,2.786-0.463c0.123-0.101,0.153-0.235,0.161-0.313c0.026-0.351,0.13-1.032-0.138-1.432
		c-1.257-0.454-2.809-0.251-4.167-0.251l-0.194,0.003l0.65-2.06l2.811-0.101c0.691-0.043,2.61,0.049,3.514-0.701
		c0.1-1.106-0.905-2.107-1.904-2.557c-3.067-0.203-5.978,0.45-8.886,0.8c-0.273,0.044-0.806,0.101-0.806,0.503
		c0.253,1.302,1.552,1.555,2.561,1.804l-0.054,0.15l-0.796,2.431l-0.199,0.006l-0.388,0.033c-0.081,0.011-0.173,0.029-0.262,0.055
		c-0.329,0.105-0.734,0.27-0.609,0.687C274.445,206.357,272.535,207.654,272.74,209.567"/>
	<path style="fill:#010101;" d="M285.673,209.744c0.088,0.189,0.187,0.341,0.263,0.445c-0.519,1.073-0.999,2.223-1.398,3.43
		c-0.584,1.957-1.129,3.931-1.447,6.014c-0.095,0.473-0.242,1.379-0.141,2.178c0.023,0.243,0.068,0.476,0.165,0.695
		c0.502,1.057,1.66,2.21,2.812,2.057c0.35-2.654,0.967-5.207,1.696-7.706c0.39-1.267,0.906-2.761,1.568-4.353
		c1.508,0.263,2.736-0.18,2.736-0.18c3.161-1.106,6.161-4.11,6.851-7.369c0.489-1.996-0.075-3.898-1.294-5.431
		c-0.103-0.112-0.207-0.207-0.274-0.269c-0.342-0.267-0.745-0.431-1.179-0.439c-0.334,0.002-0.778,0.215-1.01,0.339
		c-1.654,0.948-3.098,2.291-4.423,3.842c-0.023,0.029-0.045,0.054-0.068,0.084c-0.786,0.944-1.88,2.376-2.969,4.153
		c-0.3-0.348-0.3-1.07-0.267-1.514c0.352-3.06,3.444-5.109,3.102-8.29c-0.575-0.043-0.954,0.491-1.346,0.86
		c-0.134,0.145-0.286,0.307-0.44,0.483c-2.182,2.724-3.92,5.785-3.435,9.49C285.256,208.758,285.448,209.299,285.673,209.744
		 M291.09,208.496c0.35-0.61,0.707-1.229,1.067-1.846c0.882-1.427,1.897-2.817,3.033-4.098c0.029-0.033,0.059-0.064,0.091-0.099
		c0.024-0.028,0.045-0.054,0.072-0.082c0.235-0.252,0.485-0.501,0.74-0.751c0.063-0.047,0.159-0.102,0.251-0.077l-0.004-0.002
		c0.261,0.048,0.357,0.361,0.446,0.625c0.051,0.197,0.119,0.553,0.119,0.968c-0.019,1.594-0.67,2.987-1.895,4.078
		c-1.198,0.953-2.601,1.701-4.145,1.704C290.942,208.779,291.013,208.639,291.09,208.496"/>
	<path style="fill:#010101;" d="M236.018,194.873c0.006,0.183,0.03,0.419,0.088,0.647c0.034,0.131,0.086,0.277,0.153,0.442
		c0.218,0.465,0.421,0.619,0.774,0.619c0.649,0.054,0.954-1.003,1.157-1.248c1.253,0.397,2.757,0.653,4.117,0.245
		c0.947-0.3,1.758-0.7,2.606-1.251c1.396-0.923,2.669-2.067,3.56-3.571c0.282-0.498,0.417-0.977,0.479-1.292
		c0.146-0.762,0.074-1.443-0.39-1.996c-0.058-0.077-0.13-0.146-0.198-0.211h0.005c0,0-0.411-0.416-0.97-0.588
		c-0.06-0.016-0.118-0.035-0.172-0.048c-0.263-0.06-0.493-0.075-0.636-0.075c-0.053,0-0.106,0.004-0.165,0.009
		c-0.176-0.595-0.893-0.978-0.893-0.978c-0.494-0.269-1.043-0.401-1.542-0.461l-0.065-0.009c-1.201-0.125-2.136,0.03-2.867,0.216
		c-0.587,0.157-1.097,0.377-1.396,0.518c-2.837,1.416-3.931,3.048-4.346,4.007c-0.011,0.025-0.028,0.047-0.039,0.068
		c-0.043,0.111-0.081,0.227-0.113,0.34c-0.054,0.167-0.082,0.292-0.093,0.357c-0.255,1.224,0.035,2.543,0.96,3.467
		C236.031,194.192,236.014,194.538,236.018,194.873 M244.946,188.429c0.116-0.037,0.344-0.111,0.588-0.147
		c0.616-0.056,1.322-0.107,1.537,0.629c0.252,1.303-0.851,2.307-1.809,3.011c-0.448,0.3-0.905,0.499-1.353,0.698
		c-1.403,0.506-2.864,0.754-4.314,0.506C240.839,191.165,242.811,189.257,244.946,188.429 M236.96,190.904
		c0.076-0.272,0.193-0.465,0.225-0.522c0.208-0.351,0.502-0.719,0.803-1.018c0.455-0.453,0.995-0.828,1.573-1.152
		c0.104-0.057,0.263-0.13,0.409-0.185c0.016-0.007,0.033-0.016,0.057-0.022c0.158-0.057,0.496-0.149,0.978-0.101h0.005
		c0.096,0.011,0.2,0.029,0.297,0.055c-1.997,1.322-3.574,3.126-4.064,3.718c-0.054,0.063-0.111,0.128-0.161,0.195
		C236.813,191.639,236.859,191.261,236.96,190.904"/>
	<path style="fill:#010101;" d="M260.727,212.179c0.453-0.052,0.802-0.601,0.954-1.057l0.492-8.12l0.212,0.35
		c1.657,2.659,2.506,5.664,5.117,7.769c0.373,0.243,0.848,0.189,1.256,0.025c0.257-0.091,0.617-0.25,0.914-0.519
		c0.897-0.72,1.37-1.971,1.503-2.971c0.441-3.807-0.507-7.367-2.565-10.323c-0.402-0.578-1.108-1.657-2.011-1.707
		c-0.348,0.152-0.365,0.651-0.299,0.95c0.653,3.298,1.945,6.296,1.955,9.835c0,0.141-0.005,0.379-0.039,0.519
		c-0.046,0.145-0.126,0.265-0.261,0.281c-1.981-2.672-3.325-5.681-5.768-8.119c-0.108-0.099-0.178-0.145-0.221-0.17
		c-0.394-0.175-0.758,0.039-1.032,0.349c-0.073,0.098-0.23,0.313-0.394,0.686c-0.777,1.799-1.137,3.8-1.419,5.801
		c-0.153,1.014-0.6,3.811,0.099,5.363C259.524,211.68,260.074,212.228,260.727,212.179"/>
	<path style="fill:#010101;" d="M243.288,202.308c-0.006,0.195,0,0.703,0.219,1.115c0.181,0.301,0.43,0.575,0.72,0.729
		c0.045,0.02,0.121,0.051,0.209,0.074c1.169,0.246,2.404,0.334,3.642,0.414c0.625,0.044,1.079,0.072,1.079,0.072
		c2.342,0.2,3.445,0.5,3.445,0.5h0.014c0.936,0.26,2.231,0.473,2.488,1.625c0.009,0.051,0,0.081-0.016,0.127
		c-0.788,1.266-3.145,1.698-4.732,1.955c-1.039,0.123-3.668,0.556-4.949-0.497c-0.176-0.152-0.215-0.325-0.22-0.425
		c0-0.023,0-0.051,0.002-0.076v-0.003c0.01-0.178,0.069-0.363,0.187-0.533c0.022-0.022,0.076-0.095,0.172-0.158
		c1.657-0.962,3.769,1.092,5.46,0.889c1.707-0.17,2.258-0.575,2.428-0.944c0.142-0.273,0.076-0.461,0.076-0.461
		c-0.599-0.501-1.948-0.9-3.055-1.1c-1.565-0.225-3.793-0.556-5.36,0.387c-0.028,0.016-0.321,0.205-0.522,0.497
		c-0.302,0.446-0.52,0.983-0.545,1.558c0.003,0.101,0.014,0.25,0.07,0.423c0.804,2.001,2.894,3.062,4.801,3.499
		c2.59,0.416,5.394,0.065,7.309-1.639h-0.002c0.369-0.326,0.566-0.62,0.658-0.78c0.484-0.951,0.628-2.483,0.318-3.671
		c-0.087-0.331-0.234-0.59-0.352-0.756c-1.987-2.627-5.658-1.883-8.76-2.385c-0.388-0.053-0.93-0.146-1.415-0.299
		c-0.295-0.085-0.474-0.165-0.569-0.212c-0.024-0.013-0.052-0.032-0.077-0.045c-0.006-0.005-0.008-0.009-0.008-0.009
		c-0.071-0.052-0.124-0.12-0.152-0.21c-0.007-0.052,0.024-0.082,0.045-0.096c2.693-1.078,5.936-0.934,8.931-1.284
		c0.951-0.141,1.95-0.105,2.607-0.834c0.023-0.021,0.053-0.056,0.091-0.108c0.003-0.003,0.008-0.006,0.008-0.011
		c0.005,0,0.005-0.004,0.005-0.004c0.064-0.086,0.134-0.21,0.186-0.361c0.025-0.079,0.039-0.158,0.045-0.212v-0.034
		c0.004-0.02,0.004-0.032,0.004-0.039v-0.001v-0.007c-0.004-0.062-0.029-0.127-0.087-0.191c-0.033-0.035-0.088-0.066-0.135-0.087
		c-3.807-1.563-9.08-1.107-12.615,0.84C243.857,200.1,243.375,201.136,243.288,202.308"/>
	<path style="fill:#010101;" d="M197.108,187.518c0.269,0.003,0.849,0,1.237-0.061c0.244-0.052,0.463-0.155,0.456-0.417
		c-0.005-0.06-0.02-0.096-0.047-0.134c-0.492-0.621-1.287-0.375-1.826-0.683c-0.016-0.018-0.018-0.04-0.013-0.058
		c0.025-0.041,0.051-0.08,0.086-0.109h-0.006c0.189-0.177,0.51-0.269,0.792-0.33c0.008-0.001,0.104-0.022,0.111-0.026
		c0.053-0.008,0.107-0.019,0.161-0.025c0.063-0.01,0.105-0.014,0.105-0.014c6.229-0.979,12.256,0.167,17.651,2.145
		c6.188,2.522,13.393,6.316,16.288,13.065c0.073,0.179,0.149,0.391,0.224,0.625c0.005,0.022,0.011,0.043,0.017,0.064
		c0.012,0.044,0.023,0.088,0.036,0.129c0.035,0.135,0.062,0.271,0.092,0.404c0.004,0.032,0.014,0.063,0.017,0.096
		c0.449,2.362-0.109,4.964-2.073,6.58c-4.266,3.412-10.335,3.71-15.704,2.708l-0.14-7.607c0.002-0.385,0.005-1.266-0.011-1.673
		c-0.005-0.142-0.002-0.076,0.003-0.217c0.707-0.016,0.911,0,1.149,0.011c2.416,0.109,5.837,0.552,8.369,1.808
		c0.039,0.028,0.104,0.079,0.105,0.168v0.005c0,0.015-0.002,0.03-0.008,0.047c-0.029,0.153-0.096,0.297-0.164,0.42h0.001
		c-0.001,0.005-0.005,0.01-0.008,0.012c-0.03,0.052-0.062,0.102-0.094,0.148c-0.198,0.292-0.324,0.396-0.361,0.423
		c-0.451,0.374-1.111,0.556-1.111,1.132c0.005,0.045,0.018,0.056,0.063,0.085c0.517,0.224,1.121,0.327,1.691,0.335
		c0.077,0,0.38-0.009,0.693-0.168c0.855-0.463,1.844-1.211,2.067-2.151c0.24-0.854-0.041-1.577-0.422-2.246
		c-0.239-0.395-0.602-0.718-0.788-0.867c-2.093-1.591-4.637-2.201-7.272-2.41c-1.575-0.139-2.774-0.126-3.458-0.094h-0.206
		l-0.173,0.009c-0.008,0-0.158,0.015-0.167,0.015l-0.107-4.337c-0.155-1.102-0.752-2.404-1.911-2.807
		c-1.205,2.206-1.233,7.091-1.346,7.473c-0.144,0.031-0.293,0.062-0.436,0.094c-0.79,0.143-1.654,0.33-2.554,0.575
		c-0.753,0.189-1.501,0.399-2.237,0.68c-1.367,0.539-2.729,1.214-3.909,2.352c-0.079,0.084-0.183,0.202-0.265,0.326
		c-0.276,0.434-0.461,1.007-0.36,1.549c0.012,0.054,0.055,0.201,0.137,0.368c2.077,3.543,5.842,6.211,9.363,7.845
		c0.253,1.256,0.253,2.606,1.055,3.514c0.703,0.196,1.483,0.082,2.009-0.052c0.698-0.284,0.655-1.257,0.716-1.926
		c0.054,0.011,0.05,0.011,0.086,0.017c6.117,1.455,12.847,0.902,17.764-2.708c3.076-2.302,4.582-5.698,3.962-9.415h0.003
		c0,0-0.502-5.415-8.133-11.179c-0.048-0.039-0.098-0.077-0.144-0.117c-0.029-0.02-0.058-0.036-0.086-0.058
		c-0.533-0.398-1.104-0.793-1.71-1.191c-2.421-1.602-4.92-2.798-6.91-3.67c-5.887-2.58-14.512-4.408-22.212-2.053
		c-1.113,0.4-1.512,1.466-1.871,2.469c-0.039,0.146-0.092,0.421,0.011,0.591C195.792,187.45,196.457,187.493,197.108,187.518
		 M210.693,210.271c-2.994-1.09-6.136-2.685-8.192-5.558c-0.035-0.058-0.051-0.11-0.062-0.144c0-0.004-0.001-0.007-0.001-0.012
		c0-0.003-0.001-0.007-0.001-0.011c-0.09-0.544,0.553-0.949,0.977-1.092c1.155-0.4,2.41-0.656,3.666-0.854
		c2.19-0.334,3.409-0.394,3.914-0.435C210.995,204.875,210.792,207.519,210.693,210.271"/>
	<path style="fill:#FFFFFF;" d="M161.623,299.581l0.002-0.006c-0.253,0.035-0.502,0.068-0.747,0.098
		C161.364,299.619,161.623,299.581,161.623,299.581"/>
	<polygon style="fill:#010101;" points="381.331,247.873 381.334,298.205 395.922,298.182 395.927,247.873 	"/>
	<path style="fill:#010101;" d="M203.527,241.872c-17.634,0-31.929,12.767-31.929,28.516s14.295,28.517,31.929,28.517
		c17.633,0,31.928-12.768,31.928-28.517S221.16,241.872,203.527,241.872 M203.527,285.831c-9.55,0-17.29-6.914-17.29-15.443
		c0-8.527,7.74-15.442,17.29-15.442c9.548,0,17.289,6.915,17.289,15.442C220.815,278.917,213.075,285.831,203.527,285.831"/>
	<path style="fill:#010101;" d="M136.616,241.873c-17.633,0-31.928,12.768-31.928,28.517c0,15.75,14.295,28.516,31.928,28.516
		c17.634,0,31.928-12.767,31.928-28.516C168.544,254.641,154.25,241.873,136.616,241.873 M136.616,285.831
		c-9.549,0-17.29-6.914-17.29-15.441c0-8.528,7.741-15.442,17.29-15.442c9.549,0,17.29,6.914,17.29,15.442
		C153.905,278.917,146.164,285.831,136.616,285.831"/>
	<path style="fill:#010101;" d="M290.055,241.855c-17.634,0-31.929,12.767-31.929,28.516s14.295,28.517,31.929,28.517
		c17.634,0,31.928-12.768,31.928-28.517S307.688,241.855,290.055,241.855 M290.055,285.813c-9.549,0-17.289-6.914-17.289-15.442
		s7.741-15.442,17.289-15.442c9.548,0,17.29,6.914,17.29,15.442S299.603,285.813,290.055,285.813"/>
	<path style="fill:#010101;" d="M162.061,298.19c-3.797,6.981-16.44,7.48-24.371,7.049c-3.108-0.241-6.674-0.65-6.674-0.65
		c-44.678-5.415-71.79,0.309-71.79,0.309l60.264-71.607l-71.297,0.037v13.338l37.697,0.036L25,317.143l51.33-2.134
		c15.903-0.621,29.52-0.49,36.615-0.272c1.496,0.082,3.515,0.198,5.813,0.351c3.118,0.224,3.338,0.269,5.978,0.47
		c14.14,1.455,21.31,0.355,21.31,0.355C162.307,313.616,162.061,298.19,162.061,298.19"/>
	<path style="fill:#010101;" d="M277.613,229.344l-0.372-0.063c-0.065-0.011-0.325-0.047-0.906-0.047
		c-1.489,0-5.216,0.241-13.474,1.86c-1.127,0.244-2.275,0.454-3.434,0.642c-2.497,0.37-5.484,0.649-6.376,0.729
		c-1.854,0.136-3.88,0.227-6.014,0.234c-2.199-0.007-4.282-0.103-6.18-0.246c-1.021-0.093-3.832-0.365-6.205-0.717
		c-1.161-0.187-2.31-0.398-3.439-0.643c-8.258-1.619-11.986-1.86-13.474-1.86c-0.582,0-0.842,0.036-0.907,0.047l-0.372,0.063
		l-5.606,9.821l1.455-0.093c1.187-0.076,2.38-0.113,3.542-0.113c2.727,0,4.941,0.21,6.527,0.432
		c0.921,0.115,2.214,0.309,3.505,0.576c0,0,2.253,0.468,3.92,0.777c4.58,0.853,7.764,1.199,9.516,1.404l0.018,63.159h0.029h15.347
		h0.029l0.014-63.159c1.747-0.204,4.909-0.616,9.484-1.398c1.416-0.272,3.918-0.792,3.918-0.792c1.425-0.294,2.854-0.49,3.779-0.6
		c1.568-0.209,3.696-0.399,6.285-0.399c1.162,0,2.355,0.037,3.542,0.113l1.455,0.093L277.613,229.344z"/>
	<path style="fill:#010101;" d="M427.982,245.546c0.194-0.011,0.392-0.019,0.591-0.024
		C428.375,245.526,428.178,245.535,427.982,245.546"/>
	<path style="fill:#010101;" d="M467.543,274.02c1.358-1.705,1.812-4.404,1.812-4.404c-4.097,3.795-9.22,5.204-13.324,5.664
		l-0.11-0.008l0.001-20.147v-0.016v-0.017c0-0.001,0.001-0.017,0.002-0.026c-0.043-2.048-0.218-3.562-0.407-4.632
		c-0.982-4.683-4.155-11.668-14.177-14.966c-1.821-0.598-6.595-1.614-12.082-1.707h-0.079c-0.153,0-0.302,0.005-0.453,0.006
		c-0.045,0-0.089-0.002-0.134-0.002h-0.079v0.005c-5.486,0.092-10.261,1.094-12.082,1.693c-10.403,3.424-13.43,10.82-14.283,15.49
		c-0.069,0.457-0.132,0.985-0.185,1.579c-0.073,0.972-0.103,2.316-0.116,3.093l0.011,51.77l14.927,0.029l0.015-23.91
		c9.465-1.383,18.641-0.09,24.058,1.034l0.099,0.019l0.005,22.689l14.958-0.002l-0.002-19.948l0.107,0.02
		C474.209,287.257,475,268.773,475,268.773C473.522,271.089,467.543,274.02,467.543,274.02 M440.852,274.141
		c-14.388-1.653-21.008-0.298-24.045,1.38l0.012-20.636v-0.051l0.005-0.053c0.238-6.709,5.727-8.29,5.796-8.298
		c-0.001-0.013,2.384-0.771,5.366-0.934c0.196-0.011,0.393-0.015,0.592-0.02c3.424-0.09,6.575,0.944,6.574,0.959
		c0.069,0.008,5.559,1.59,5.796,8.298l0.006,0.052v0.052l0.003,19.259L440.852,274.141z"/>
	<path style="fill:#FFFFFF;" d="M401.966,252.527c0.053-0.595,0.116-1.123,0.185-1.579c-0.057,0.312-0.101,0.607-0.141,0.894
		l0.028-0.035C402.009,252,401.986,252.25,401.966,252.527"/>
	<path style="fill:#010101;" d="M378.198,266.286c-1.133-19.026-22.514-23.108-32.848-23.532c-2.046-0.083-4.225-0.12-5.682-0.136
		c-0.134,0.005-0.208,0.008-0.208,0.008c-3.265-0.049-13.595,0.027-13.595,0.027l0.006,60.337l14.337-0.054
		c0,0,0.048-45.866-0.014-48.176c16.673-0.337,20.947,7.374,20.947,7.374s5.089,7.307-0.94,12.926
		c-4.056,3.341-8.195,1.746-8.195,1.746s-1.347-0.263-2.045-1.307c-0.32-0.425-0.627-2.73,2.462-2.408l1.143-4.928
		c0,0-11.416-2.465-12.261,4.851c-1.716,14.858,18.646,13.281,18.646,13.281c15.662-1.421,17.915-13.973,18.23-18.133
		C378.221,267.491,378.218,266.842,378.198,266.286"/>
</g>
</svg>
