<?xml version="1.0" encoding="utf-8"?>
<!-- Generator: Adobe Illustrator 25.2.3, SVG Export Plug-In . SVG Version: 6.00 Build 0)  -->
<svg version="1.1" id="Слой_1" xmlns="http://www.w3.org/2000/svg" xmlns:xlink="http://www.w3.org/1999/xlink" x="0px" y="0px"
	 viewBox="0 0 864 864" style="enable-background:new 0 0 864 864;" xml:space="preserve">
<style type="text/css">
	.st0{fill:none;}
	.st1{fill:#D91F20;}
	.st2{fill:#F6C7AA;}
	.st3{fill:#FFE5EA;}
	.st4{fill:#FFFFFF;}
	.st5{fill:#A6918E;}
	.st6{fill:#EDC2C3;}
	.st7{fill:#FBDFD1;}
	.st8{fill:#F5B1BE;}
	.st9{fill:#E7F0F8;}
	.st10{fill:#EDDFD5;}
</style>
<path class="st0" d="M109.5,437l-7.9,4c-0.5,0.3-1,0.8-1.6,1.1c1,1.3,21.1,1.6,21-0.1C120,437.2,114,435.9,109.5,437z"/>
<path class="st1" d="M681.5,103.1c-51.7,25.2-58.1,90-79,137.6c-9.6,27.9-19,56-27.8,84.3c-2.3,12.4-13.2,30.1-0.4,39.6
	c22.4,14.5,49.6,16.8,73.9,26.6c10.5,3.8,20.5,8.3,31.5,10.5c13.6,4.1,35,10.7,42-6.5c5.4-14.8,9.1-29.7,14.8-44.7
	c15.8-57.2,37.3-113.6,43-173.1C782,122,734.9,81.8,681.5,103.1z M733.1,314c-8.9,25.6-17.4,51.3-26.5,76.8c-0.2,1.7-1.6,2-3.1,1.6
	c16.8-53.6,37.8-106.6,50.2-161.6c8.5-28.1,11.5-57.1,12.5-86.2c0-0.1,0.1-0.3,0.2-0.4c0.3-0.3,0.6-0.7,0.9-1.1
	c0-0.1,0.1-0.1,0.1-0.1c1.1,5.7,1.4,11.5,0.9,17.3C764.6,213,749.2,263.9,733.1,314z"/>
<path class="st2" d="M651.7,396.3c-10.1-3.5-20.1-7-30.2-10.2c-1.2-0.4-3.1-0.9-3.7,1.4c-10.2,36.4-21.5,72.5-31.8,108.9
	c-3.7,12.4-7.6,24.8-11.4,37.4c-0.3,1-0.2,3.1,0.3,3.3c6.4,1.1,33.8,16.4,35.5,7.9c7.1-20.5,11.5-41,19-61.5
	c7.8-26.9,17.9-53.2,25.4-80.4C656.5,398.8,657.1,397.3,651.7,396.3z M615,516.5c-2,5.9-4,11.6-5.8,17.3c-0.2,0.3-0.5,0.6-0.9,0.7
	c1-12.6,7.6-25.5,10.8-38.1c11-32.6,19.7-66.5,32.4-98.3C642.1,438,626.4,476.8,615,516.5z"/>
<path class="st3" d="M500.3,326.3c2.1,2.7,3.3,16.1,7.9,13c2-1.7,5.6-3.5,4.9-6.4c-2.3-5.3-4.9-10.3-7.3-15.5
	C503.3,320.2,498.5,322.7,500.3,326.3z"/>
<path class="st4" d="M397.3,80.1c-2.8-1.4-4.3,1.1-5.7,1.5c11.4,4.4,20.7-4.1,13.5-13c-0.9-1.2-1.7-2.2-2.2-3
	c-0.4,0.4-0.8,0.7-1.1,1.1c-0.7,0.6-1.1,2.6-0.8,2.9c3.2,2.9,0.2,6,0.5,9S398.6,80.5,397.3,80.1z M371.8,81.8
	c-3.6-1.4-7.8-3.7-11.1-0.5c-1.2,2,1.5,5.7-2.7,5.7c-5.7,0.7-10.7-3.8-8.1-10.2c0.6-1.7-0.2-2.9-2.2-3.1s-4-0.3-6-0.5
	c0,0.7,0,1.5-0.1,2.5C343.9,93.7,358.8,92.7,371.8,81.8z"/>
<path class="st3" d="M332.4,243.4c4.6,3.7,14.8,9.8,22.4,14.8c-2.4-4.7-4-9.7-4.7-14.9c-1.7-7.6-2.1-15.6-2.8-23.3
	c-0.2-1.8-0.1-3.6,0.4-5.3c-8.7-2.3-32.1-13.4-38.9-19.7c0.3,10.5,0.4,21.1-0.1,31.5C316.4,230.3,325.3,238.9,332.4,243.4z"/>
<path class="st5" d="M644.6,466.3c2.3,3.5,6.7,9.6,8.4,14.7c1.2-3,2-6.2,2.3-9.4c-2-0.9-4.8-2.3-6.1-2.9
	C647.6,468,646.1,467,644.6,466.3z M629.2,496.9c5.2,5.6,6.8,12.7,6.7,20.2c4.6-4.5,8.4-9.8,11.3-15.6
	C641.6,502.3,633.8,498.1,629.2,496.9z M575.5,521.7c9.3-32.8,19.5-64.5,28.4-97.5c0.8-5.3,6.9-12.5,1.4-16.6
	c-34-24.8-68-24.5-89-69.1c-0.6-1-1.2-3.8-2.9-0.4c-1,2.9-7.2,3-5.4,6.8c3.8,10.8,6.8,21.8,9.6,32.7c6.2,25.5,11.3,51.4,16,77.2
	c2.3,8.9,0.5,19.7,5.9,27.3c10.3,8.4,15.8,20.9,24.2,31.1c2.6,3.5,6.4,6.2,9.8,9.3C574.3,523.3,574.9,523.8,575.5,521.7z
	 M541.5,432.4c-0.6-12.4,5.3-25,14.7-33.8c0.8-0.2,1.3-0.5,1.7-0.6c-1.9,5.1-6.9,8.8-8.9,13.9C545.7,418.3,545.2,426.2,541.5,432.4
	L541.5,432.4z M548.9,448c1.9-5.3,6.2-8.9,9.3-13.5l0.1,0.1c3.7-6,7.3-11.8,10.8-17.6c0.3-0.3,0.5-0.6,0.8-1
	C569.8,423.1,554.9,444.3,548.9,448L548.9,448z M557.7,464.8c2.8-9.6,14.3-14.8,20.5-22.4c4.4-4,6.8-9.9,11.6-13.3h0.1
	C585.9,443.4,567.4,453.7,557.7,464.8L557.7,464.8z M563.4,473.1c4.8-4.6,10.8-7.6,16.6-11.6c4.1-3.1,7.9-6.2,11.7-9.3
	c0.6-0.3,1.3-0.5,2-0.6C589.7,460.2,572.5,471.5,563.4,473.1L563.4,473.1z M309.4,78.3c-3.5,8.7-6.8,7.3-6.4,22.1
	c0.9,24.4,3.1,48.9,5,73.3c0.2,6.5,0.5,12.9,0.7,19.3c4.1,1.5,9.8,5.6,13.2,7.4c6.3,4.1,20.4,7.4,26.5,12.8c3.2-4.5,12-1.9,18.1-0.1
	c-1.5-5.8-6.3-8.9-11.9-10.7c-13.5-5-31.1-14.1-37.8-27.1c11.9,9,22.8,19.6,37.5,24.2c1.6,0.2,8.4,4.3,7.1,0.4
	c-2.9-8.5-10.5-14.7-10.8-24.3c-0.1-5.6-2.9-12.1,0.1-17.2c2.9,6.8,2,14.7,4,21.8c0.4,1.5,5.7,14.8,7,9.8c4-18.3,22.2-14.6,22-24.1
	c0.8-4.5-0.2-9.2,1.4-13.4c1.6-12.7,2.6-24.9,4.7-37.3c5.3-9.8,9.5-2.6,12.5,9.1c3.8,15,5.8,37.4,6,41.1c0.9,16.3,2.6,32.7-1,48.9
	c1.7,7.5,9.2,12.9,13,19.6c0.1,0.4,0.1,0.8,0.2,1.1c21.2,36.2,24.6,78.9,26.2,115.5c0.6,34.4-3.9,69.6,2.7,103.6
	c3.5,17.3,18.6,77,41.9,71.8c6.4-1.7,12.7-3.8,16-10c13.7-27.3-3.8-27-22.6-13.7c-1.7,1-2.3,3.6-4.6,3c0.7-4,8.1-5.6,5.9-10.2
	c-3.2-5.8-8.6,1.1-13.2,0.2c2-3.3,6.9-3.8,9.6-5.9c-0.8-11.8-11.8-2.3-15.1-4.1c2.6-2.4,12.5-3.8,11.1-8c-0.8-2-0.1-5.4-3.8-5
	s-7.5,1.4-11.3,2.3c2.5-3.2,6.4-5,10.5-4.9c2.1,0.2,2.4-0.8,2-2.5c-6.9-19.4,4.8-23.6-18.5-18.4c11.1-8.6,15.8,3.2,14.5-13.9
	c-0.4-0.3-0.9-0.5-1.4-0.5c-3.8,2.1-13.1,3.8-16.4,1c9.4-2.9,18.1,2,17.9-12.3c1.4-4.4-4.4-0.2-6-0.4c-2.7-0.1-6,0.1-8.4-1.4
	c4.5-1.7,14.7,0.7,15.2-5.9c-0.7-2.8,3.5-8.4-1-8.9c-3.3,1.9-13.9,1.3-16.3-1.4c1-0.1,2.3-1,3.1-0.6c3,1.7,6.1,0.5,9.1,0.5
	c8.4,0.7,8.8-9.4,8.7-15.1c-6,2.4-12.9,4.4-18.8,1c11.3-3.5,21,3.4,21.8-14.5c0-0.2-1.4-1.2-1.6-1.1c-5.8,3.3-12.7,3.8-18.9,1.4
	c6.2-4.1,17,1.8,21.3-6c0.4-1.7,5.6-15.7,1.7-13.6c-6.7,0.5-17.2,4.5-22-1.7c7.8,0.2,19.4,3.5,24.8-3.6c1.9-9,5.4-18.1,6-27.2
	c-10.9,4-32.8-1.8-38.2-12.1c10.9,6.4,22.4,12,35.7,10.4c5.3,0,4.3-6.4,5.6-10c1.2-4.6,2.8-9.3,3.6-14c2.2-15.7,5-31.5,6.5-47.4
	c1.1-16.2-2.2-32.4-3-48.6c-1.6-17.5-7.2-34-12.8-50.4c-4.1-14.3-12-26.4-20.5-38.3c-2.5-4-5.7-5.4-10.2-4.9
	c-7.5,1-15.3,0.7-22.4,3.2c-7.5,3.2-15.4,5.3-21.8,10.7c-0.6,0.5-1.7,0.4-2.6,0.5c11.6-13.5,32.9-17.5,50.1-16.6
	c-13.2-14.9-34.4-19.9-53.6-21.1c-3.9-0.4-11.7-2.3-15.6-4.5c-0.7,0.1-1.3-0.4-2-2.2c-0.5-2,0.1-4.1,1.6-5.5
	c2.9-4.2,4.1-9.9,6.6-14.4c2.6-6.6,16.3-1.4,9.8,2.9c-0.6,0.3-1.2,0.7-1.7,1.1c0.5,0.5,1,0.9,1.5,1.5c0.8,0.6,1.5,1.4,2.1,2.2
	c9.6-9.4,22-20.7,33.4-27.2c-12.6,1.1-24.2,9.2-36.1,13.2c-7.7,2.9-14.9-2.9-21.8-5.7c-4.3-2.7-4.6,5.2-8.3,5.4
	c-25.8,1.2-51.6-6.2-77.3-0.9c-18.3,2.5-54.6-26.6-74.9-13.6c24.5,1.9,57.5,37.9,86.7,39.1C310.4,77.9,309.9,78.2,309.4,78.3z
	 M496.5,519.6c0-0.9-0.1-1.8-0.1-3.1c1.3-2.4,2.1-5,3.8-6.5c1.2-1.1,3.7-0.7,5.5-1C506.1,514.2,502.4,520.7,496.5,519.6z
	 M510.4,498.2c-8.6-1.1-12.8,1.1-19.9,5.8c-0.8,0.4-1.6,0.9-2.4,1.4c-0.4,0.1-0.9,0.3-1.4,0.5C489.4,500.3,505.6,492.1,510.4,498.2z
	 M484.1,514.9c1.4-2.3,3.5-4.2,5.6-6.4l-0.1-0.1c8.9-1.9,3,8.3-0.4,10.9C485.7,521.6,482.7,518.3,484.1,514.9z M468.6,457.6
	c1.3-0.1,2.6,0.4,3.9,0.5c-1.1,0.7-2.2,1.3-3.4,1.7c-2.4,0.7-5,1.1-7.7,1.7C462.6,458.1,465.8,458.1,468.6,457.6L468.6,457.6z
	 M501.8,249.1c-1,2.1-2.9,2.7-4.9,4.1v0.1c-15.7,4.6-36.4,6.2-51.5-0.8c7.7-0.7,15.8,1.7,23.6,1.5
	C480.5,255.3,491,251.9,501.8,249.1z M494.5,179.3c-7.1,1.3-14.1,1.2-21.4,2.3c-15.8,3.6-29.6,10.7-44,17.3
	C440.3,187.4,479.8,171.3,494.5,179.3z M481.8,140.9c-4.1,2.3-9.7,0.6-14.4,1.7c-17.9,2.6-34.1,9.6-50.5,17.2
	C423,149.4,470.3,134.6,481.8,140.9z M399.6,92.5c1-0.4,2.2-0.4,3.2,0.1c-0.5,0.4-1,0.7-1.6,1c-9.6,3.3-18.7,7.7-27.3,13.2h-0.1
	C380,98.8,391.1,97.3,399.6,92.5z M385.7,88.6c-0.2,0.6-0.6,1.1-1,1.6c-5.9,2.3-10.7,6-16,9.6c-0.8,0.4-1.3,0.8-1.8,1.1l-0.9,0.4
	C367.9,97,381,88.6,385.7,88.6z M339.9,67c11.6-4.4,21.5,3.7,31.7,7.3c7.5,3.7,5.9-3.2,8-7.9c2.6,4.2,0.4,9-0.6,13.5
	c-1.2,3.7-3.7,3.3-6.6,2.2c-4.1,12.3-29.1,15-31.8,0.9c-0.1-0.9-1.2-6.8-1.6-9.9c-2.6,0-5.2,0.6-7.5,1.8c-0.8,0.4-2.3-0.2-3.5-0.2
	C330.4,70.2,335.6,69.4,339.9,67z M329.3,130.5c-8.1-1.9-15.5-8.2-19-15.6C317,119.8,322.2,126.4,329.3,130.5L329.3,130.5z
	 M402.4,808.6c0.1,0.2,0.1,0.2,0.1,0.4c0.4-0.2,0.9-0.4,1.4-0.6c9.6,0.6,16.9,6.5,19.3,15.9c1.7-2.9,0.8-6.4,1.7-9.5
	c4.8-22.4,29.5-13.6,32.4,4.2c2.3-3,4.2-10.2,7.6-12.9c-5.4-5-12.7-8.1-20.2-7.5C430.5,801.2,416.5,804.7,402.4,808.6z M414.9,83.8
	c-0.2-0.4-0.4-0.7-0.6-1.1c-1.3-2-2.7-4-4.4-5.7c-0.5,1.9-4.3,5.3-2.1,6.6C410.2,83.6,412.7,84.8,414.9,83.8z M397.7,809.3
	c-13.9-0.5-27.9,4.8-41.5-0.2c-2.7,0.4-3.1,4.7-3.5,6.8c-2.4,10.6,24.9,16,32.7,19.2c0.1,0,0.2,0.1,0.3,0.1
	C383.4,826,389.6,813,397.7,809.3z M222.3,447.5c13.3-3.1,28-4.6,40.6-9.6c-3.5-6.2-12.2-9.9-13.8-17.3c19.4,16,40.7,39.7,68.8,35.3
	c-5.3-7.5-13.7-15.7-8.7-25.8c3-6,12.8-9.9,19.2-8.3c11.1,2,26.4,6.6,34.4,15.4c2.3-1.7,4.5-3.5,6.6-5.5
	c-39.1-11.5-36.5-47.5,6.9-31c-4.9-6.9-30.7-21.8-10-25.9c-12.6-3-20.2-4-24.4-17.7c-6.5-21-24-39.8-47.3-39.6
	c-23.3-1.4-43.4,14.3-66.5,16.6c-14.1,4.1-28.8,3.2-43,6.8c-13,3-25.4,8.1-36.7,15.1c-1.1,0.5-2.3,0.6-3.5,0.4
	c13.5-10.2,29.1-16.3,45.7-19.2c-8-2.1-16.5,0.8-24.6,1.7c-11.1,1.5-22.3,5.9-33,7.5l-1.5-0.8c-10.6,20.4-17.8,42.5-17.1,65.6
	c-0.3,8.7,2.3,16.5,5.7,24.5c2,5.7,14.6,8.8,19.7,12.8c8.4,3.2,22.6,3.1,31.3,4.8C188.4,452.3,205.4,451.4,222.3,447.5z
	 M327.2,358.1c-8.6,13.2-24.6,20.4-39.6,23.6c3.8-3.1,9.1-4.1,13.5-6.3C311.3,371.8,318.7,364.4,327.2,358.1L327.2,358.1z
	 M280.5,372.2c-0.8,0.1-1.4,0.2-2,0.3c13.5-8.4,27.7-16.1,39.9-26.4C313.1,355.6,291,368.9,280.5,372.2z M281.1,356.1
	c9.3-6.5,17.5-15,26.8-21.1C301.8,344.8,291.1,350.6,281.1,356.1L281.1,356.1z M296.6,321.7c-9.3,4.3-17.1,10.5-24.8,17.1
	C275.7,329.2,286.7,323.1,296.6,321.7L296.6,321.7z M230,418.1c7.4,7.8,17.1,12,25.5,18.1c-4.4-0.2-7.8-2.6-11.9-4.3
	c-5.6-5.4-13.9-8.4-16.9-15.4C228.5,415.8,229,417.3,230,418.1z M133.2,426.3c-3.8-3.2-7.4-6.1-11-9.1c-0.3-0.2-0.7-0.3-1.1-0.5
	c8.4-1.1,13.6,8.4,17.5,14.3C136.4,430.3,135.2,428,133.2,426.3L133.2,426.3z M127.3,407.9c1.1-0.1,1.9-0.6,2.9,0.1h0.1
	c8.8,4.3,18.7,15.1,18.4,25.1C144,422.8,137.1,413.6,127.3,407.9L127.3,407.9z M328.4,819.7c-5,1.1-9-1.6-13.2-3.2
	c-25.5-9.7-54.5-18.7-81.4-10.4c-14,3.5-26.4,14.5-23.6,30c3.2-8.4,4.4-22.2,15.6-23.5c12.8,2,9.3,20.9,9.2,30.2
	c3.8-6.8,5-14.7,11.4-20.2c7.8-7.8,20-6.4,26.7,2.9c4.6,6,6.9,27.3,2.9,34.8c1.5-0.1,2.9-0.2,4.4-0.3c-1.9-9,2.6-25.3,9-30.6
	c14.8-12,29.2,7.1,24.3,21.4c0.1-0.2,0.2-0.4,0.7-0.6c15-9,18.2-10.8,15.5-28.9C329.8,820.7,328.8,819.6,328.4,819.7z"/>
<path class="st6" d="M422.9,85.6c26.7,4,47.1,21.5,58,45.8c13.8-19,0.5-47,16.5-64.5c0.8-0.7,0.8-3.5,0-4.4
	c-12.5-12.6-34.4-27.9-52.7-21.3c-12.7,5.2-22.1,22.4-35,26.8C413.9,74.3,414.3,84.4,422.9,85.6z M439.6,74.4
	c0.5-0.1,1.2,0.6,1.8,0.9c-3.6,2.2-8.2,0.2-12.4,0.2c-3.3-1.4-6.5-2.6-9.6-3.9c-0.5-0.2-0.8-1-1.2-1.6
	C425.4,71.1,431.8,75.4,439.6,74.4z M273.7,236.4c6.1,4.8,23.2,34.3,28.4,16.7c6.9-28.3,3.5-57.8,2.8-86.6
	c-3.6-25.1-4.7-50.5-3.3-75.8c0.2-2.6,4.2-9.6,7-12.1c-1.2,0.2-2.5,0.2-3.7,0.1c-8.1-1-12.9,9.9-20,12.8
	c-13,7.9-29.1,15.4-44.4,14.7c17.8-5.2,35.8-10.4,51-22.1c1.6-1.7,6.9-4.5,6.1-6.9c-1.4,0.2-3.3-0.2-4.1,0.5
	c-16.2,12.7-41.4,17.1-60.1,8.3c20.6,3.5,39.8,2.3,58.3-8.9c2.5-1.8-0.1-1.9-0.7-2.3c-22.1-10.2-45.6-28.8-69.6-35.2
	c-28.3,11.3-82.6,49.1-63.3,82c10.2,15,28.2,20.2,42.7,29.8c12.4,7.1,4.5,21.5-0.4,31.2C186.3,225.5,256.4,212.4,273.7,236.4z"/>
<path class="st7" d="M640.6,455.8c-0.2,6.6,10.5,9,14.9,13.9c0.8-10.8-1.4-23.7-8-29.2C644.1,436.5,641.9,453.5,640.6,455.8z
	 M637.1,466.4c-8.7,31.5-9.9,25.1,10.7,33.9c1.9-3.9,3.3-8,4.4-12.2c0.4-1.7-0.2-3.8,0.1-5.3C648,477.4,638.8,460.7,637.1,466.4z
	 M616.6,529.7c1.6-0.4,2.9,0.1,4.2-1.1c4.7-3.6,13.3-4.6,13.1-11.9c-0.5-6.4-2.6-12.5-6-17.9C622.5,508,621.3,519.9,616.6,529.7z
	 M508.5,241.8c15.1,9.7,36.2,4.7,46.8-9.3c16.1-18.6,33-79.6,27.8-103.1c-6.1,4.1-7,12.7-10.4,18.8c-3.2,7.9-6.2,16-9.3,24.6
	c-8.7,15.5-19.7,40.5-40.7,38.6c-6.2-3.5-13.2-5.7-17.8-11.5c-0.3-0.5-1.2-0.4-1.8-0.5c-0.1,6.8,2.2,13.6,2.6,20.6
	C507.2,226.2,504,237.1,508.5,241.8z M460,827.6c0.1,1.7,1,5,0.7,7.5c9.1-3.7,14.1-9.8,11.1-19.3c-1.5-3.4-3.6-6.5-6.2-9.1
	c-0.8,1.7-2,4.1-2.3,4.7C459.9,816.3,459.9,822,460,827.6z M430.1,808.3c-5.2,8.8-4.1,22-2,31.7c11.1-0.1,22.2-1.3,30.5-4.1
	c-2.2-5.6-2.5-14.4-4.7-19.3C451.7,806.7,437,797.9,430.1,808.3z M392.2,816.5c-3.9,4.7-3.7,13.2-5.1,19.2c7.6,2.2,23.2,4.3,39,4.4
	c-2.2-1.8-3.3-5.6-3.3-8.3C422.8,817.4,404.4,802.5,392.2,816.5z M381.4,173.7c-7.9,3.5-15.7,9.6-18.1,18.1
	c-2.2,11,14.2,53.1,28.8,44.9c18.3-14,13.5-41.3,14.2-61.9c0.5-4.7-6.2-72.4-13.9-60c-5.9,29.7-2.9,61.6-12.9,90.1
	c0.2-10,2.5-19.9,3.5-29.9C383.1,174.2,383.8,172.6,381.4,173.7z M346,403.6c-6.6,11.9,14.5,22.1,23.4,26.1
	c5.6,2.8,9.9-8.3,13.5-11.5c2.4-3.2,2.9-7.1,4.2-10.5c0.1-0.3,0.2-0.6,0.3-0.8c2.3-6.8,3-16.5-3.3-20.8c-6.1-3.3-14.9-10.6-21.8-6.5
	c-1.6,6.1,9.3,12,12.9,16.3c3.2,3.9,11.9,5.8,11.1,11.5C373.5,404.7,358.2,392.5,346,403.6z M321.6,425.2
	c-16.3,1.1-11.4,21.2-1.7,28.5c11.2,4.1,30.3-6.5,42.5-15.7C349.6,432.7,336.1,422.9,321.6,425.2z M288.6,833.7
	c-3.5,5.3-6,11.3-5.6,17.9c0.1,2.8-0.1,5.5-0.6,8.2c1.9-0.2,3.7-0.3,5.6-0.5c5.3-1.1,24.8-3.9,24.8-10c-0.5-3.6-0.7-7.2-1.4-10.8
	C309.7,827.8,294.2,824.3,288.6,833.7z M245.7,827.2c-5.4,6.5-7.3,14.1-9,21.8c-0.4,1.9-2,5,1.9,6.5c11.8,4.6,24.1,5.4,36.5,4.8
	c-0.1-8.5,1.7-20.8-1.5-28.8C269.9,818.9,253.2,816.2,245.7,827.2z M212.3,837.5c2.1,8.7,15.1,13.6,22.9,16.2
	c-4.5-6.7-0.9-29-5.6-36.5C219.2,808.4,213.5,830.1,212.3,837.5z"/>
<path class="st8" d="M498.5,301.1c-1,5.5-2.1,10.9-3.2,16.4c2.1,0.1,6.2,1.1,10.2-1.1c-2.2-4.5-3.9-9.2-5.1-14.1
	C500.2,301.8,499.1,301.5,498.5,301.1z M440.3,303.5c-1-7.6-2.5-15.2-4.3-22.7c-2-10.4-10-25.1-14.1-37.4c0.2,1.9,0.3,3.8,0.3,5.7
	c2.9,9.6,6.2,28.9,8.5,37.6C432.8,292.5,433.5,301,440.3,303.5z M416.6,303c3.5-0.6,15.2,2.4,14.8-2.7c-2-11.9-8.4-33.6-9.6-47.7
	c-2.4,13.5-15.8,10.4-30-7.4c-2.9-5.1-10.8,10.6-14.2,12.5c-8.1,8.6-14.3,9.3-18.8,5.6c-3.9-1.3-10.2-5.4-16.9-10.1
	c-10-7.1-20.6-15.5-24.3-17c7.3,22.4,15.5,44.6,21.7,67.4c2.6,4.1,8.9,1.1,12.9,1.4c0.5-0.1,1-1.3,1-1.8c-2.2-8.7-4.4-17.2-6.7-25.7
	c-1.5-7.6-6-14.9-5.6-22.7c7,14.7,10.5,31.5,14.1,47.5c0.6,3.5,3,2.3,4.2,2.3c16.6-0.9,33.3-1.3,50-1.5c1.7,0,2.3-0.2,1.8-2.3
	c-2.6-13.6-6.8-27.2-8.8-40.8c5.7,10,6.5,22.8,9.9,34C413.6,297.7,411.1,303.5,416.6,303z M378.5,301c-1.8-11.4-6.1-23-6.3-34.4
	c0.6,0.6,1.2,1.2,1.6,2c1.9,11.5,6.6,22.5,6.5,33.8C379.7,301.9,378.6,301.6,378.5,301z M308.1,317.7c2.3,0.2,1.4-1.5,1.3-2.5
	c-1.1-18-3.7-35.9-7.9-53.5c-0.1-0.6-1.4-1.5-2-1.4c-2.3,0.5-4.6,0.1-6.7-1c5.8,17.2,9,37.9,10.8,55.9
	C303.9,317.8,306.1,317.5,308.1,317.7z M267.5,234.4c-2.8-2.6-5.9-4.6-9.4-6.1c15.2,15.8,25.3,65.5,25.1,87.3
	c6.1-0.9,12.3-0.7,18.3,0.4c0.2,0,0.4,0,0.6,0.1c-2.6-10.5-2.2-22.3-5-33c-1-7.1-5-16.5-4.7-23.9
	C283.4,254.5,274.8,239.7,267.5,234.4z M229,226.7c4.6,0,7.6,2.9,10.7,5.6c19.3,20.2,31.9,58.5,31.5,86.3c3.7-1.4,7.6-2.3,11.5-2.9
	c-6.1-26.4-11.6-65.6-28-88.7c-6.2-2.2-13.1-3.3-19.4-5.1c-2.7-0.8-6.3,0.8-7.2,3.2C227.9,225.5,228.6,226.7,229,226.7z
	 M260.5,321.4c1.7,0,3.4,0.8,4.8-0.4c1.8-0.9,3.6-1.7,5.5-2.3C268.6,312.1,263.6,319.2,260.5,321.4z M230,331.1
	c9.6-3.2,22-2.9,29.4-9.7c1.8-3,3.2-6.2,6-8.4s4-4.1,3-7.9c-2.1-7.8-3.4-15.8-5.5-23.6c-6-18.2-13.3-36.6-27.9-49.8
	c-5.6-5.1-9-5.1-13.9,0.2c-23,24.6-46.2,49.4-65.5,76.9C179.2,305.2,209.9,317.8,230,331.1z M257.7,279.2c0.5,0.2,1,0.5,1.4,0.9
	c-15.5,11.6-22.3,30.7-35.8,44C232.9,307.9,242.6,291.1,257.7,279.2L257.7,279.2z M243.4,250.1c0.8-0.7,1.9-0.9,2.9-0.5
	c-9.7,8.2-18.8,17.1-27.3,26.5c-1.2,1.3-1.4,4.1-1,6.1c1.5,9.2-6.7,12.9-12.7,17.6c-3.3,2.3-6.2,4.7-9.3,7c-0.2,0.1-0.8,0.1-1.1,0.1
	c4.7-8.1,23.6-14.8,21-23.9C214.1,267.8,233.7,258.7,243.4,250.1L243.4,250.1z M204,263.1c8.6-8.4,15.7-19.2,25.7-25.7
	c-11.2,14.6-25.6,27.8-37.3,42.4c-7.8,8.1-13.9,18.1-22.3,25.5C178.3,289.6,192.8,277,204,263.1z M164.1,508c4.1,3,7.5,8.1,13.9,6
	c3.8,2,11.3,2.6,11.7,7.7c0.1,1.4,0.8,2.7,2,3.5c3.2,0.7,29.6,16.8,27.8,11c0.5-15.3,1.4-30.6,2.6-45.9c-0.1-8.6,5.1-18.4,2.2-26.6
	c-7.2-3.2-16.7-2-23.9-5.3c-7.8-3.3-15.6-3.9-23.8-2.9c-5.1,1.3-4.9,7.9-7.5,12.3c-3.2,8.2-6.6,16.3-9.3,24.7
	C156.9,501.3,157.4,503.2,164.1,508z M214.2,464.9c-11.7,24.6-15.1,37.5-5.8,64.3c-4-4.8-5-11.4-7.1-17.2
	C199.5,495.9,202.5,476.1,214.2,464.9L214.2,464.9z M189.2,458.4c-0.3,2-1.8,2.9-3.2,4.4h-0.1c-10.8,12.2-8.6,28.8-10.4,43.9
	c-0.1,1.3-1.1,2.2-1.9,3.2C174.2,492.6,171.8,467.5,189.2,458.4L189.2,458.4z"/>
<path class="st3" d="M158.5,337.5c22.8-7.1,46.8,1.1,69.7-5.9c-7.6-2.2-17.7-8.4-23.7-10.7c-12.9-5.4-41.4-17-53.2-7.2
	c-7.3,10.2-13.9,20.9-19.7,31.9l1.5,0.8C139.3,340,150.2,340.6,158.5,337.5z"/>
<path class="st9" d="M467.7,704.1c-36.7,8.4-74.4,10.2-112,9.3c-5.5-0.1-11-0.3-16.6-0.5c-37.9-2.9-75.6-9.2-111.6-21.9
	c-2.9-0.9-5.3-2.5-5.6-5.8c-1.9-26.3-1-52.7-2.6-79c-0.3-13.3-0.5-26.7-0.6-40c-0.6-6.4-9.1-7.8-14.6-10.8c-0.8-0.4-1.5-0.8-2.1-1.3
	c-7.1-4.7-11.7-6.5-14.4-8c2.7,6.9-9.4,4-13.4,2.1c-9.9-7.1,4.9-11.9-19.5-28.2c-3.8,24.8-1.6,49.3,4.4,73.3
	c7.9,31.7,22.1,62.2,37.3,90.6c9.6,22.4,20.2,44.8,24.9,69c0,0.6,3.5,17.5,3.8,25.7c0.1,2.9,1.4,8.3,0.9,9.1
	c17-1.1,33.8-7.5,51.1-3.2c17.3,2.4,37,14.7,53.9,18c-0.2-1.6-0.2-3.2-0.1-4.7c-0.1-27.9,6.8-58,24.8-79.3c-1.2,4.8-5,8.9-7,13.5
	c12.4-0.1,24.9-6,36-11.4c1.2-0.6,2.6-1.1,3.8-0.4c-6.1,4.1-13.2,7.2-20,10.1c-6,2.1-12.2,3.6-18.5,4.7c-3.4,0.6-4.2,1.4-2.6,4.5
	c5.2,10,5.1,21.2,6,32.1c0.8,7.2,1,14.6,0.5,21.8c13.2-0.8,31.8,0.9,44.6-2.1c11.1-2.6,22.2-6,33.3-9c7.5-2,14.8-5,22.9-2.9
	c0.5,0.2,1.9-1.1,2.1-1.9c2-17.5,9.2-34.2,15.7-50.5c4-7.8,6.7-19.1,12-26.3C478.7,701.8,473.2,703.1,467.7,704.1z M171.4,591.4
	c-3.1,1-6,2-9,2.7c-0.8,0.2-1.8-0.7-2.8-1c23.4-8.5,29.2-15.7,43.6-34.5C199.6,573.5,185,584.5,171.4,591.4z M244,778.4
	c0.7-3,3.7-4.7,5.6-7.4c16.7-15.7,31-33.7,49.7-46.8C281.9,742.3,263.5,762.2,244,778.4L244,778.4z M384.3,732.6
	c-8.4,1.8-17.2,6.4-25.7,3.8c9.1-2.7,19-3.6,28.4-5.4C386,731.5,385.1,732,384.3,732.6z M401.6,774.1c12.5-9.9,27.1-16.7,39.5-27
	l0.1,0.1c5.8-4.8,11.2-9.6,16.8-14.2c0.5-0.4,1-0.5,1.6-0.9C449.2,747.8,419.2,766.4,401.6,774.1L401.6,774.1z M405,791.8
	c-14.8,2.6-36.1,5.7-51.3,2.2c-0.2,2.7-0.6,5.4-1,8.1c-0.4,2-0.7,4.4,2.3,4.8c17,3.2,34.1,0,51-2.7c15.6-1.1,36.7-12.8,50.8-6.2
	c3.8,2.2,1-8,2-10C460.1,770.2,414.8,791.3,405,791.8z M334.8,47.8c9.4,0.7,18.8,1.3,28.2,2c4.7-0.1,10.8,3.2,14.6-0.4
	c2.4-3.3,2.8-7.8,0.8-11.5c-5.4-10.8-9.4-21.8-16.3-31.9c-8-0.8-15.6,4.9-21.4,10.1C335,20.8,319.4,49.2,334.8,47.8z M347.2,5.2
	c-9.7-0.6-19.3,4.7-28.8,6.9c-5.9,2-8,8.7-9,14.2c3.2-1.2,5.3-2.9,8.9-4.4C330.7,20.9,337.8,12,347.2,5.2z M331.2,804.3
	c-4.9,0.2-21.2-6-22.5-6.7c-20-9.7-42.3-14.5-64.5-10.5c-4.2,1.3-25.4,1.4-24.2,6.5c-1.4,38.1,0.4-13.5,85,15.9
	c6.6,0.8,28.8,16.6,27,2.4C331.8,809.4,331.5,806.8,331.2,804.3z M326.4,28.5c2.9-5.2-3.4-3.1-6-2c-8.4,2.6-15.4,6.9-17.6,17
	c-0.7,1.2-1.4,2.5-2,3.8c-0.5,1.2-0.9,2.4-1.1,3.7C331,41.9,317,57,326.4,28.5z M184.7,519.5c-3.5-0.9-9-6-10.5-0.2
	c-2.5,7-2.1,14.2-1.8,21.5c0.4,4.9,5.7,6.2,9.6,7.8c2.6,1.4,4.2-1.5,4.8-3.2c-3.5-2.4-2.6-5.1-0.3-19.6
	C186.8,523.5,188.3,520.9,184.7,519.5z"/>
<path d="M767.8,123c-41.9-53.4-115.7-27.7-136.6,31.2c-20.3,49.4-36.7,100.3-53.8,150.8c-17.2,54-25.4,61.4,35.2,79
	c6,1.7-0.6,10.2-0.8,14.3c-1.3,2.6-1,7.5-3.8,8.7c-7.8-11.6-22.9-14-34.5-20.4c-24.2-10.3-44.9-28.2-56.2-52
	c-27.1-52.8-11.8-36.7-10.8-88.1c0-0.6,1.3-1.7,1.5-1.7c29,17.9,57.4-11.4,65-38.5c3.7-5.9,26.9-96.5,5-76.8
	c-13.7,24.2-29.5,103.1-69.3,70.3c-7.6-4-7.1-12.6-9.1-19.8c-3.8-13.9-7.8-27.8-14.1-40.8c-4.7-6.2,0.1-9.3,2.3-15.4
	c7.8-17.8-1.7-41,12.6-55.7c6.2-7.1-15.2-19.6-20.4-22.8c-14.3-8.6-32.2-13-48.2-6.1c-8.4,3.5-16.6,7.2-24.9,11.1
	c-6,3.7-11.1-2.4-17-3.7c-4.1-1.2-6.6-3.1-8.4-7.5c-4.5-11.4-9.8-22.3-15.2-33.2C363-3.7,351,1.2,343.5,2.2
	c-43.7,11.8-27.2,5.2-45.3,44.6c-1.2,4.3-5,3.2-8.1,1.8c-16.9-5.6-33.1-15-51-16.7c-29.9,2.3-60.9,27.2-78.8,50.1
	c-21.4,27.2-4.4,50.3,22.8,62.7c6.4,3.4,13.5,5.9,18.4,11.7c2.3,2.7,4.3,5.7,2.6,9.6c-15.7,31-11.1,44.3,22.7,54.1
	c1.4,0.5,2.5,0.4,0.5,1.9c-31.7,30.8-60.2,65-86.1,100.9c-17.9,28.4-34.6,63.1-28.8,97.4c0.4,0.9-0.7,2.9-1.7,3.3
	c-1.3,0.6-3.1,0.1-4.7,0.1c-8.9-0.1-32,8.9-22.1,20.2c6.5,6.9,13.9,14.2,24.2,13c8.1-0.8,16.6-1.4,24.2-4.8c3.4-1.5,7.4-1.9,10,0.8
	c-25.1,16.5-46.7,40.6-54.8,70.2c8.7-3.7,15.4-13,26.2-10.7c1.9,0.4,3.8-0.8,4.2-2.7c0-0.1,0-0.2,0-0.3c3.8-16.3,9.9-34.9,27-41.4
	c8.6-3.5,16.9-9.3,25.8-11c-23.7,46.1-26.3,101.1-11.3,150.4c16,54.2,53.1,100.8,61.3,157.3c-0.8,3.9,6.8,25.1,0.4,22.9
	c-7.3-1-2.3,16.9-3.4,21.5c0,1.1-0.6,2.2-1.4,2.9c-11.7,10.7-13.3,26.7,0.9,36c32.5,22.1,83.1,22,112.7-5.4
	c9.1-8.4-0.7-18.8,4.7-25.2c2-4.4-0.9-10.2-0.5-15c0.2-21,1.4-42.6,10.8-61.7c8.8,20.2,3.2,44.3,5.6,65.8c1.3,6.3-4.5,14.6,2.2,18
	c21.6,13,46.5,19.4,71.7,18.2c16.6-1.1,55.7-0.3,50.4-25.5c-1.6-14.9-16.9-12.9-13.9-26.4c0.4-3.7,1.6-7.2-1.4-10.2
	c1-21.2,12.5-42.1,19.5-62.3c1.4-3.7,3-7.1,8.2-6.9c9.8-0.9,19.2-4.9,28.8-7.2c11.5-4.2,40.7-10.3,40.4-25.2
	c-0.5-14.5-1-29-2.1-43.5c-1.4-50.4-9.3-100.3-15.5-150.1c6.1,3.4,8.7,11.1,12.8,16.6c5.2,8.6,11.8,16.3,19.6,22.7
	c1.3,1.1,2.1,2.6,2.2,4.2c-0.6,4-4.7,9.6,1.2,11.7c9.3,3.2,18.3,6.5,27.5,9.5c16.2,4.4,8.3-14,18.2-18.1
	c30.3-7.7,52.4-71.4,28.8-93.4c-3.6-5,7.5-27.9,8.5-35.8c0.9-3.2,2.9-3.4,5.1-2.8c36.2,11.1,59.6,23.3,69.2-24.2
	c17.2-54.6,35-109.1,46.6-165.2h-0.1C784.1,181,786.4,148.4,767.8,123z M513.1,332.9c0.8,2.9-2.9,4.7-4.9,6.4
	c-4.6,3.1-5.8-10.3-7.9-13c-1.9-3.5,2.9-6,5.5-8.9C508.2,322.6,510.9,327.6,513.1,332.9z M505.5,316.4c-4.1,2.2-8.1,1.3-10.2,1.1
	c1.1-5.5,2.3-10.9,3.2-16.4c0.6,0.4,1.7,0.7,1.9,1.2C501.6,307.2,503.3,311.9,505.5,316.4L505.5,316.4z M504.9,199.9
	c4.7,5.8,11.7,8,17.8,11.5c21,1.9,32-23.1,40.7-38.6c3.1-8.7,6.1-16.7,9.3-24.6c3.4-6.1,4.3-14.8,10.4-18.8
	c5.2,23.5-11.7,84.5-27.8,103.1c-10.6,14-31.7,19-46.8,9.3c-4.4-4.7-1.3-15.6-2.8-21.9c-0.5-6.9-2.7-13.8-2.6-20.6
	C503.6,199.5,504.6,199.4,504.9,199.9L504.9,199.9z M497.3,62.5c0.8,0.9,0.8,3.7,0,4.4c-16,17.5-2.7,45.5-16.5,64.5
	c-10.8-24.3-31.2-41.8-58-45.8c-8.6-1.2-9-11.3-13.2-17.6c12.9-4.4,22.3-21.6,35-26.8C462.9,34.6,484.8,49.9,497.3,62.5z M401,69.5
	c-0.4-0.3,0.1-2.3,0.8-2.9c0.4-0.4,0.8-0.7,1.1-1.1c0.5,0.8,1.3,1.8,2.2,3c7.1,9-2.1,17.4-13.5,13c1.4-0.5,2.9-2.9,5.7-1.5
	c1.4,0.4,4.4,1.3,4.2-1.6S404.3,72.3,401,69.5L401,69.5z M409.9,76.9c1.6,1.8,3.1,3.7,4.4,5.7c0.2,0.4,0.4,0.8,0.6,1.1
	c-2.2,1-4.7-0.2-7.1-0.2C405.6,82.3,409.5,78.8,409.9,76.9L409.9,76.9z M362.1,6c6.9,10.2,11,21.1,16.3,31.9
	c1.9,3.7,1.6,8.1-0.8,11.5c-3.8,3.5-9.9,0.3-14.6,0.4c-9.4-0.7-18.8-1.3-28.2-2c-15.4,1.3,0.1-27,6-31.7
	C346.5,10.9,354.1,5.3,362.1,6z M318.5,12.1c9.5-2.2,19-7.5,28.8-6.9c-9.4,6.8-16.6,15.8-28.8,16.7c-3.5,1.5-5.7,3.2-8.9,4.4
	C310.4,20.8,312.6,14.1,318.5,12.1L318.5,12.1z M300.9,47.3c0.6-1.3,1.3-2.6,2-3.8c2.1-10.1,9.1-14.4,17.6-16.9c2.6-1.1,8.8-3.2,6,2
	C317,57,331,41.9,299.7,51C300,49.7,300.4,48.5,300.9,47.3z M299,52c25.7-5.3,51.5,2.1,77.3,0.9c3.7-0.2,4-8.1,8.3-5.4
	c6.9,2.7,14.1,8.6,21.8,5.7c12-4,23.5-12.1,36.1-13.2c-11.4,6.5-23.8,17.8-33.4,27.2c-0.6-0.8-1.3-1.6-2.1-2.2c-0.5-0.5-1-1-1.5-1.5
	c0.6-0.4,1.1-0.7,1.7-1.1c6.5-4.3-7.2-9.5-9.8-2.9c-2.4,4.6-3.7,10.2-6.6,14.4c-1.5,1.4-2.1,3.5-1.6,5.5c0.8,1.7,1.4,2.3,2,2.2
	c4,2.3,11.7,4.1,15.6,4.5c19.2,1.2,40.4,6.2,53.6,21.1c-17.2-0.9-38.5,3.1-50.1,16.6c0.8-0.2,2,0,2.6-0.5
	c6.3-5.4,14.3-7.4,21.8-10.7c7.1-2.5,14.9-2.2,22.4-3.2c4.5-0.5,7.8,0.9,10.2,4.9c8.5,11.9,16.4,24,20.5,38.3
	c5.6,16.4,11.2,33,12.8,50.4c0.8,16.1,4.1,32.4,3,48.6c-1.5,15.8-4.3,31.6-6.5,47.3c-0.8,4.7-2.4,9.4-3.6,14c-1.3,3.6-0.3,10-5.6,10
	c-13.3,1.6-24.8-4-35.6-10.5c5.4,10.3,27.2,16.1,38.2,12.1c-0.5,9.2-4.1,18.2-6,27.2c-5.4,7.1-17.1,3.8-24.8,3.6
	c4.9,6.2,15.4,2.2,22,1.7c3.8-2-1.4,11.9-1.7,13.6c-4.3,7.8-15.1,2-21.3,6c6.2,2.4,13.1,1.8,18.9-1.4c0.2-0.1,1.6,0.8,1.6,1.1
	c-0.8,17.9-10.5,11.1-21.8,14.5c6,3.4,12.8,1.4,18.8-1c0.1,5.7-0.2,15.8-8.7,15.1c-3,0-6.1,1.1-9.1-0.5c-0.8-0.4-2,0.5-3.1,0.6
	c2.5,2.6,13,3.2,16.3,1.4c4.4,0.5,0.3,6.1,1,8.9c-0.5,6.5-10.7,4.1-15.2,5.9c2.4,1.4,5.7,1.2,8.4,1.4c1.6,0.1,7.4-4.1,6,0.4
	c0.2,14.3-8.5,9.4-17.9,12.3c3.3,2.8,12.6,1.1,16.4-1c0.5,0,1,0.2,1.4,0.5c1.3,17.1-3.5,5.3-14.5,13.9c23.3-5.2,11.7-1,18.5,18.4
	c0.4,1.7,0.1,2.7-2,2.5c-4.1-0.1-7.9,1.7-10.5,4.9c3.8-0.8,7.5-1.8,11.3-2.3s3,3.1,3.8,5c1.4,4.1-8.5,5.6-11.1,8
	c3.2,1.8,14.3-7.7,15.1,4.1c-2.8,2.2-7.7,2.6-9.6,5.9c4.6,0.9,9.9-6,13.2-0.2c2.3,4.5-5.2,6.2-5.9,10.2c2.3,0.6,2.9-2,4.6-3
	c18.8-13.2,36.3-13.6,22.6,13.7c-3.3,6.2-9.6,8.3-16,10c-23.3,5.2-38.5-54.5-41.9-71.8c-6.6-34-2.1-69.2-2.7-103.6
	c-1.6-36.6-5-79.3-26.2-115.5c-0.1-0.3-0.1-0.7-0.2-1.1c-3.8-6.7-11.4-12.1-13-19.6c3.6-16.1,1.9-32.5,1-48.9
	c-0.2-3.7-2.2-26.1-6-41.1c-3-11.7-7.1-18.9-12.5-9.1c-2.1,12.3-3.1,24.5-4.7,37.3c-1.6,4.2-0.6,8.9-1.4,13.4
	c0.2,9.5-18,5.8-22,24.1c-1.3,5-6.6-8.3-7-9.8c-2-7.1-1-15-4-21.8c-3,5-0.2,11.5-0.1,17.2c0.4,9.6,7.9,15.8,10.8,24.3
	c1.3,3.9-5.5-0.1-7.1-0.4c-14.7-4.7-25.6-15.3-37.5-24.2c6.7,13,24.2,22.1,37.8,27.1c5.6,1.8,10.4,4.9,11.9,10.7
	c-6.1-1.8-14.9-4.4-18.1,0.1c-6.1-5.4-20.2-8.6-26.5-12.8c-3.4-1.8-9-5.9-13.2-7.4c-0.2-6.4-0.5-12.8-0.7-19.3
	c-2-24.4-4.1-48.9-5-73.3c-0.4-14.8,2.9-13.5,6.4-22.1c0.5-0.1,1-0.4,1.4-0.8c-29.2-1.3-62.2-37.3-86.7-39.1
	C244.4,25.4,280.7,54.5,299,52z M411,300.8c0.5,2-0.1,2.3-1.8,2.3c-16.7,0.2-33.4,0.6-50,1.5c-1.2,0-3.6,1.3-4.2-2.3
	c-3.7-16-7.1-32.8-14.1-47.5c-0.4,7.8,4.1,15,5.6,22.7c2.3,8.6,4.5,17.1,6.7,25.7c0.1,0.5-0.5,1.7-1,1.8c-4-0.3-10.2,2.7-12.9-1.4
	c-6.2-22.8-14.4-45-21.7-67.4c3.7,1.5,14.3,9.9,24.3,17c6.6,4.7,13,8.8,16.9,10.1c4.5,3.6,10.7,2.9,18.8-5.6
	c3.4-1.9,11.4-17.6,14.2-12.5c14.1,17.8,27.5,21,30,7.4c1.1,14.1,7.6,35.8,9.6,47.7c0.5,5.1-11.2,2.1-14.8,2.7c-5.6,0.5-3-5.3-4.5-9
	c-3.5-11.1-4.2-23.9-9.9-34C404.2,273.6,408.4,287.2,411,300.8z M308.8,194.9c6.9,6.3,30.2,17.4,38.9,19.7c-0.5,1.7-0.6,3.6-0.4,5.3
	c0.7,7.8,1.1,15.7,2.8,23.3c0.8,5.2,2.4,10.2,4.7,14.9c-7.6-5-17.8-11.1-22.4-14.8c-7.1-4.5-16-13.1-23.8-16.9
	C309.1,216,309.1,205.4,308.8,194.9z M392.4,114.8c7.6-12.4,14.4,55.3,13.9,60c-0.6,20.6,4.1,47.9-14.2,61.9
	c-14.6,8.1-31.1-34-28.8-44.9c2.4-8.5,10.2-14.6,18.1-18.1c2.4-1.1,1.7,0.5,1.6,1.4c-1,10-3.2,19.9-3.5,29.9
	C389.5,176.4,386.5,144.5,392.4,114.8L392.4,114.8z M430.7,286.7c-2.3-8.7-5.6-28-8.5-37.6c0-1.9-0.1-3.8-0.3-5.7
	c4.1,12.3,12.1,27,14.1,37.4c1.8,7.5,3.2,15.1,4.3,22.7C433.5,301,432.8,292.5,430.7,286.7L430.7,286.7z M200.3,182.5
	c4.9-9.7,12.8-24.1,0.4-31.2c-14.4-9.6-32.5-14.8-42.7-29.8c-19.3-32.9,35-70.7,63.3-82c24,6.3,47.5,24.9,69.6,35.2
	c0.6,0.4,3.2,0.4,0.7,2.3c-18.4,11.2-37.7,12.4-58.3,8.9c18.7,8.8,43.9,4.4,60.2-8.3c0.8-0.7,2.7-0.4,4.1-0.5
	c0.8,2.4-4.5,5.2-6.1,6.9c-15.1,11.7-33.1,16.9-51,22.1c15.3,0.8,31.4-6.8,44.4-14.7c7.1-2.9,11.8-13.8,20-12.8
	c1.2,0.1,2.5,0.1,3.7-0.1c-2.8,2.5-6.8,9.6-7,12.1c-1.4,25.3-0.3,50.7,3.3,75.8c0.8,28.8,4.1,58.3-2.8,86.6
	c-5.2,17.5-22.3-11.9-28.4-16.7C256.4,212.4,186.3,225.5,200.3,182.5z M292.8,259.4c2.1,1.1,4.4,1.5,6.7,1c0.5-0.1,1.8,0.8,2,1.4
	c4.2,17.6,6.8,35.4,7.9,53.5c0.1,1,1.1,2.7-1.3,2.5c-2-0.1-4.2,0.1-4.5-2.4C301.8,297.4,298.6,276.6,292.8,259.4z M302.1,316.1
	c-0.2-0.1-0.4-0.1-0.6-0.1c-6-1.1-12.2-1.2-18.3-0.4c0.2-21.8-9.9-71.5-25.1-87.3c3.5,1.5,6.6,3.5,9.4,6.1
	c7.3,5.3,15.9,20.1,24.8,24.8c-0.3,7.4,3.7,16.7,4.7,23.9C299.9,293.8,299.5,305.6,302.1,316.1z M235.3,221.9
	c6.3,1.8,13.2,2.9,19.4,5.1c16.4,23,21.9,62.3,28,88.7c-3.9,0.5-7.8,1.5-11.5,2.9c0.4-27.8-12.3-66.1-31.5-86.3
	c-3.1-2.7-6.1-5.6-10.7-5.6c-0.4,0-1.1-1.2-0.9-1.7C229,222.7,232.6,221.2,235.3,221.9L235.3,221.9z M270.8,318.6
	c-1.9,0.7-3.7,1.4-5.5,2.3c-1.4,1.1-3.2,0.4-4.8,0.4C263.6,319.2,268.6,312.1,270.8,318.6z M221.2,231.9c5-5.3,8.4-5.3,13.9-0.2
	c14.5,13.3,21.9,31.6,27.9,49.8c2.1,7.8,3.4,15.7,5.5,23.6c1,3.8-0.2,5.8-3,7.9s-4.2,5.3-6,8.4c-7.5,6.8-19.8,6.5-29.4,9.7
	c-20.1-13.2-50.8-25.8-74.3-22.3C175.1,281.3,198.2,256.5,221.2,231.9z M85.3,436c4.6-6.5,30.4-16.2,30.5-4.1
	c0.7,1.8,0.8,1.8-1.7,1.8c-9.3,0.1-19.5,5.6-19,15.9C91.7,447.1,81.1,440.5,85.3,436z M121,442c0.1,1.8-20,1.4-21,0.1
	c0.6-0.3,1-0.8,1.6-1.1l7.9-4C114,435.9,120,437.2,121,442z M122.7,452.2c-6.7-0.2-30.1,6.7-24.7-6.7c0.1-0.4,1-0.9,1.2-0.8
	c7.5,3.5,15.1,1.9,22.8,0.4c2.3-0.6,7.4,1.6,11.9,3.2C130.3,449.4,126.7,452.3,122.7,452.2L122.7,452.2z M115.7,506.6
	c-0.2,1.1-1.9,2.7-2.9,2.6c-8.3-1.1-13.9,4-20.7,7.3c0.3-0.8,0.7-1.6,1.1-2.3c3.3-5,6.6-10.1,9.9-15.1c0.1-0.3,0.8-0.5,0.8-0.8
	c9-4.6,13.9-15.7,23-20.4C123,487.2,117.2,495.9,115.7,506.6L115.7,506.6z M160.1,458c-21.5,8.4-42.8,21-56.5,39.9
	c5.3-17.4,23.7-29.5,37.4-40.9c4.7-5.9,16.6-2,25.1-1.8C164.8,457,162.3,457.2,160.1,458L160.1,458z M139.9,448.6
	c-5.1-4-17.8-7.1-19.7-12.8c-3.5-8-6-15.8-5.7-24.5c-0.8-23.1,6.5-45.2,17.1-65.6c5.9-11.1,12.4-21.7,19.7-31.9
	c11.8-9.8,40.3,1.9,53.2,7.2c6,2.2,16.1,8.5,23.7,10.7c-22.9,7-46.9-1.3-69.7,5.9c-8.3,3.1-19.2,2.5-25.4,9c10.8-1.7,21.9-6,33-7.5
	c8.1-0.9,16.6-3.8,24.6-1.7c-16.6,2.9-32.2,9-45.7,19.2c1.2,0.3,2.4,0.1,3.5-0.4c11.3-7,23.8-12.2,36.8-15.2
	c14.1-3.5,28.9-2.7,43-6.8c23.1-2.3,43.2-17.9,66.5-16.6c23.3-0.1,40.7,18.6,47.3,39.6c4.2,13.7,11.8,14.7,24.4,17.7
	c-20.7,4.1,5.1,19,10,25.9c-43.4-16.5-46,19.5-6.9,31c-2.1,2-4.3,3.8-6.6,5.5c-8-8.8-23.3-13.4-34.4-15.4
	c-6.4-1.6-16.2,2.3-19.2,8.3c-5,10,3.3,18.2,8.7,25.8c-28.1,4.4-49.4-19.3-68.8-35.3c1.6,7.3,10.3,11.1,13.8,17.3
	c-12.6,5-27.3,6.5-40.6,9.6c-16.9,3.9-34,4.7-51.1,5.9C162.5,451.7,148.3,451.7,139.9,448.6L139.9,448.6z M375.2,395.9
	c-3.6-4.3-14.5-10.2-12.9-16.3c6.9-4.1,15.7,3.2,21.8,6.5c6.3,4.3,5.6,14,3.3,20.8c-0.1,0.3-0.2,0.5-0.3,0.8
	c-1.4,3.5-1.8,7.4-4.2,10.5c-3.6,3.2-8,14.3-13.5,11.5c-9-4-30-14.2-23.4-26.1c12.3-11.1,27.5,1.1,40.4,3.8
	C387.1,401.6,378.5,399.7,375.2,395.9L375.2,395.9z M362.3,437.9c-12.2,9.2-31.3,19.9-42.5,15.7c-9.6-7.2-14.6-27.3,1.7-28.5
	C336.1,422.9,349.6,432.7,362.3,437.9L362.3,437.9z M230.5,448.9c-1.8,4.7-2.3,13.1-7.5,12c-8.7-2.6-19.2-1.7-27-6.5
	C207.4,452.5,219.1,451.1,230.5,448.9L230.5,448.9z M159.6,492.6c2.7-8.4,6.1-16.5,9.3-24.7c2.6-4.4,2.4-11.1,7.5-12.3
	c8.2-1,15.9-0.4,23.8,2.9c7.2,3.3,16.7,2,23.9,5.3c2.9,8.1-2.3,17.9-2.2,26.6c-1.2,15.2-2.1,30.6-2.6,45.9
	c1.8,5.8-24.6-10.3-27.8-11c-1.2-0.8-1.9-2.1-2-3.5c-0.4-5-7.9-5.7-11.7-7.7c-6.3,2.1-9.8-2.9-13.9-6
	C157.4,503.2,156.9,501.3,159.6,492.6L159.6,492.6z M186.7,545.5c-0.6,1.7-2.3,4.5-4.8,3.2c-3.8-1.7-9.1-2.9-9.6-7.8
	c-0.3-7.2-0.7-14.5,1.8-21.5c1.5-5.9,7-0.8,10.5,0.2c3.6,1.4,2.1,4,1.7,6.4C184.1,540.3,183.2,543,186.7,545.5L186.7,545.5z
	 M212.3,837.6c1.1-7.5,6.9-29.1,17.2-20.3c4.7,7.5,1.1,29.8,5.6,36.5C227.4,851.2,214.4,846.2,212.3,837.6L212.3,837.6z
	 M275.1,860.3c-12.4,0.6-24.8-0.2-36.5-4.8c-3.9-1.4-2.2-4.6-1.9-6.5c1.7-7.8,3.5-15.4,9-21.8c7.5-10.9,24.2-8.3,27.9,4.4
	C276.8,839.4,275,851.8,275.1,860.3L275.1,860.3z M287.9,859.3c-1.9,0.2-3.7,0.4-5.6,0.5c0.5-2.7,0.7-5.5,0.6-8.2
	c-0.3-6.6,2.1-12.6,5.6-17.9c5.6-9.4,21.1-5.9,22.8,4.8c0.7,3.5,0.9,7.2,1.4,10.8C312.8,855.4,293.2,858.2,287.9,859.3L287.9,859.3z
	 M314.4,850.1c-0.5,0.2-0.6,0.4-0.7,0.6c4.9-14.3-9.6-33.4-24.3-21.4c-6.3,5.3-10.8,21.7-9,30.6c-1.5,0.2-2.9,0.2-4.4,0.3
	c4-7.5,1.6-28.8-2.9-34.8c-6.7-9.3-18.9-10.7-26.7-2.9c-6.3,5.5-7.5,13.4-11.3,20.2c0.1-9.3,3.6-28.2-9.2-30.2
	c-11.2,1.3-12.4,15.1-15.6,23.5c-2.7-15.6,9.6-26.6,23.6-30c26.9-8.3,55.9,0.7,81.4,10.4c4.2,1.7,8.2,4.4,13.2,3.2
	c0.4-0.1,1.4,1,1.5,1.5C332.6,839.3,329.5,841.2,314.4,850.1L314.4,850.1z M304.9,809.6c-84.5-29.4-86.3,22.2-85-15.9
	c-1.2-5,20-5.1,24.2-6.5c22.2-4,44.5,0.8,64.5,10.5c1.4,0.7,17.6,6.9,22.5,6.7c0.3,2.5,0.6,5,0.8,7.6
	C333.7,826.2,311.5,810.3,304.9,809.6L304.9,809.6z M456.7,798.1c-14.1-6.6-35.2,5-50.8,6.2c-16.9,2.7-33.9,5.9-50.9,2.7
	c-3-0.5-2.7-2.8-2.3-4.8c0.4-2.7,0.8-5.4,1-8.1c15.3,3.5,36.6,0.5,51.3-2.2c9.9-0.5,55.2-21.6,53.7-3.8
	C457.7,790.1,460.6,800.3,456.7,798.1L456.7,798.1z M385.4,835.1c-7.8-3.2-35.1-8.6-32.7-19.2c0.5-2.2,0.8-6.5,3.5-6.8
	c13.6,5,27.6-0.3,41.5,0.2c-8,3.7-14.2,16.7-12,25.9C385.6,835.2,385.5,835.1,385.4,835.1L385.4,835.1z M387.1,835.7
	c1.4-6,1.2-14.5,5.1-19.2c12.2-14,30.6,0.9,30.6,15.3c0,2.6,1.1,6.5,3.3,8.3C410.3,840,394.7,837.9,387.1,835.7L387.1,835.7z
	 M428.1,840c-2.1-9.7-3.2-22.9,2-31.7c6.9-10.5,21.6-1.7,23.8,8.2c2.2,5,2.4,13.8,4.7,19.3C450.3,838.7,439.2,840,428.1,840z
	 M471.7,815.8c3.1,9.6-2,15.7-11.1,19.3c0.3-2.6-0.5-5.9-0.7-7.5c-0.1-5.6-0.1-11.3,3.2-16.3c0.3-0.5,1.6-2.9,2.3-4.7
	C468.2,809.3,470.3,812.4,471.7,815.8L471.7,815.8z M464.9,806c-3.4,2.8-5.4,9.9-7.6,12.9c-2.9-17.8-27.5-26.6-32.4-4.2
	c-0.9,3.1-0.1,6.6-1.7,9.5c-2.4-9.4-9.6-15.3-19.3-15.9c-0.5,0.2-0.9,0.4-1.4,0.6c0-0.2-0.1-0.2-0.1-0.4
	c14.1-3.8,28.1-7.3,42.3-10.1C452.2,797.9,459.5,801,464.9,806z M472.3,726.7c-6.5,16.3-13.8,33-15.7,50.5c-0.2,0.8-1.6,2-2.1,1.9
	c-8.1-2-15.4,1-22.9,2.9c-11.1,3-22.2,6.4-33.3,9c-12.8,3-31.3,1.3-44.6,2.1c0.5-7.3,0.4-14.6-0.5-21.8c-0.9-10.9-0.8-22.1-6-32.1
	c-1.7-3.2-0.8-3.9,2.6-4.5c6.3-1,12.5-2.6,18.5-4.7c6.8-2.9,13.9-6,20-10.1c-1.2-0.7-2.6-0.2-3.8,0.4c-11.1,5.5-23.6,11.4-36,11.4
	c2-4.6,5.8-8.7,7-13.5c-18,21.4-24.8,51.5-24.8,79.3c-0.1,1.6,0,3.2,0.1,4.7c-16.9-3.3-36.6-15.6-53.9-18
	c-17.3-4.2-34.1,2.1-51.1,3.2c0.4-0.8-0.8-6.2-0.9-9.1c-0.3-8.2-3.8-25.1-3.8-25.7c-4.7-24.2-15.4-46.5-24.9-69
	c-15.2-28.4-29.4-58.9-37.3-90.6c-5.9-24-8.2-48.6-4.4-73.3c24.4,16.3,9.6,21.2,19.5,28.2c4,1.9,16.1,4.8,13.4-2.1
	c2.7,1.5,7.2,3.2,14.4,8c0.6,0.5,1.4,1,2.1,1.3c5.5,3,14,4.4,14.6,10.8c0.1,13.3,0.3,26.7,0.6,40c1.6,26.3,0.7,52.8,2.6,79
	c0.2,3.3,2.6,4.9,5.6,5.8c36,12.7,73.7,19,111.6,21.9c5.6,0.2,11.1,0.5,16.6,0.5c37.6,0.9,75.3-1,112-9.3c5.5-1,11.1-2.3,16.7-3.7
	C479,707.5,476.3,718.9,472.3,726.7L472.3,726.7z M482.1,708.7c0.8-2,2.3-6,3.1-8.6c22.4-5.8,45.8-14.1,67.6-18.5
	C544.8,697.4,494.7,706.9,482.1,708.7L482.1,708.7z M547.5,583c3.2,30.6,4.3,61.4,6.1,92.1c0.5,2,0.3,4.1-0.6,5.9
	c-1.6-0.1-3.2,0-4.8,0.1c-15.1,2.6-29.8,6.8-44.4,11.2c-17.8,5.2-35.8,9.9-54.1,12.6c-74,12.7-151.9,7.6-223.1-16.7
	c-1.3-0.5-2.5-2.7-2.6-4.1c-1.1-20.2-1.1-40.6-1.5-60.8c-0.2-37.6-3.6-75.3,0-112.8c0.8-13.4,2.4-26.7,4.7-39.9
	c0.4-5.8,4.8-15.3,4.9-21.9c9.6-1.7,18.9-4.3,28-7.8c4.6-1.8,7.7-0.6,11.1,2.1c9,6.9,18.7,12.6,29.8,15.1c23.8,2.9,48.7-5,66.8-20.8
	c15.3-10.3,29.2-29.4,21.8-48.5c-6.2-14.1-22.4-15.5-35.4-20c-12-6-11.1-24.1-20.3-33.6c-5-6.5-10.9-11.7-18.6-14.8
	c-2.3-0.8-3.2-1.9-3.4-4.4c-1.9-17.5-3.2-35.4-8.1-52.3c-1.9-5.6,1-9.6,1.9-14.2c0.9-5.2,1.7-10.5,2.4-15.6c0.1-1.7,0.2-3.4,0.3-5.1
	c11.6,23.5,19.8,51.9,28.8,76.3c0.8,2.3,1.7,2.9,3.8,2.8c10.5-0.5,21.1-1,31.6-1.4c13.5-0.4,26.6-0.8,40.2-1.3
	c7.5-0.7,20.7,2,27.5-0.7c3.8,27.3,3.4,55.1,3.5,82.7c-1.5,24.2-2.1,48.5,3.5,72.2c5.3,18.9,17.6,70.6,41.9,69.8
	c21.2-0.1,38.2-42.2,13.9-38.2c-4.4-0.1-12.9,8.2-15.4,3.1c-7.8-15.9-12.1-33.4-12.6-51.1c-2-41.8,10.5-82.1,19.4-122.6
	c0.7,1.2,2,3,3.8,5.5c8.6,22.5,15.5,45.5,20.6,69.1C533,456.9,540.8,519.9,547.5,583z M573.4,522.5c-3.4-3.1-7.2-5.8-9.8-9.3
	c-8.4-10.2-13.9-22.7-24.2-31.1c-5.3-7.6-3.5-18.4-5.9-27.3c-4.7-25.8-9.7-51.7-16-77.2c-2.9-11-5.8-22-9.6-32.7
	c-1.7-3.8,4.4-3.8,5.4-6.8c1.7-3.5,2.2-0.7,2.9,0.4c21,44.6,55.1,44.3,89,69.1c5.5,4.1-0.7,11.3-1.4,16.6
	c-8.9,33-19.1,64.7-28.4,97.6C574.9,523.8,574.3,523.3,573.4,522.5L573.4,522.5z M620.8,528.5c-1.3,1.2-2.6,0.8-4.2,1.1
	c4.7-9.8,6-21.6,11.3-30.9c3.4,5.4,5.5,11.5,6,17.9C634.1,523.9,625.5,524.9,620.8,528.5L620.8,528.5z M635.9,517
	c0.1-7.5-1.5-14.5-6.7-20.2c4.6,1.2,12.4,5.4,18,4.5C644.4,507.2,640.5,512.5,635.9,517L635.9,517z M652.2,488
	c-1.1,4.2-2.5,8.3-4.4,12.2c-20.5-8.7-19.3-2.4-10.7-33.9c1.7-5.7,10.9,11,15.1,16.3C652,484.3,652.5,486.4,652.2,488L652.2,488z
	 M653,481c-1.7-5-6.2-11.2-8.4-14.7c1.5,0.8,3,1.7,4.6,2.4c1.3,0.6,4.1,2,6.1,2.9C655,474.8,654.2,478,653,481z M655.5,469.7
	c-4.4-4.8-15.1-7.2-14.9-13.9c1.3-2.3,3.5-19.3,6.9-15.4C654.1,446,656.3,458.8,655.5,469.7L655.5,469.7z M654.7,403
	c-7.5,27.2-17.5,53.5-25.4,80.4c-7.5,20.5-12,41-19,61.5c-1.7,8.5-29-6.8-35.5-7.9c-0.5-0.2-0.6-2.3-0.3-3.3
	c3.8-12.6,7.7-25,11.4-37.4c10.4-36.4,21.7-72.4,31.8-108.9c0.6-2.3,2.5-1.7,3.7-1.4c10.1,3.2,20.1,6.8,30.2,10.2
	C657.1,397.3,656.5,398.8,654.7,403z M721.7,395.2c-7,17.2-28.4,10.7-42,6.5c-11-2.2-21-6.6-31.5-10.5
	c-24.3-9.9-51.6-12.1-73.9-26.6c-12.8-9.5-2-27.2,0.4-39.6c8.7-28.3,18.1-56.4,27.8-84.3c20.9-47.6,27.3-112.5,79-137.6
	c53.4-21.3,100.5,18.9,97.9,74.3c-5.7,59.5-27.2,115.9-43,173.1C730.8,365.5,727.2,380.5,721.7,395.2L721.7,395.2z M767.3,143
	c0,0.1-0.1,0.1-0.1,0.1c-0.3,0.4-0.6,0.8-0.9,1.1c-0.1,0.1-0.1,0.2-0.2,0.4c-1,29.1-4,58.1-12.5,86.2c-12.4,55-33.4,108-50.2,161.6
	c1.5,0.3,2.9,0.1,3.1-1.6c9.1-25.5,17.6-51.2,26.5-76.8c16.1-50.1,31.5-101,35.2-153.6C768.7,154.5,768.4,148.7,767.3,143z
	 M608.3,534.5c0.4-0.1,0.7-0.4,0.9-0.7c1.8-5.7,3.8-11.4,5.8-17.3c11.4-39.7,27.1-78.5,36.5-118.4c-12.7,31.8-21.4,65.7-32.4,98.3
	C615.9,509,609.3,521.8,608.3,534.5z M593.6,451.7c-0.7,0.1-1.4,0.3-2,0.6c-3.8,3.1-7.5,6.2-11.7,9.3c-5.7,4-11.8,7-16.6,11.6
	C572.5,471.5,589.7,460.2,593.6,451.7z M589.8,429.1L589.8,429.1c-4.8,3.5-7.3,9.3-11.7,13.3c-6.2,7.6-17.7,12.7-20.5,22.4
	C567.4,453.7,585.9,443.4,589.8,429.1z M569.2,417c-3.5,5.8-7.2,11.7-10.8,17.6l-0.1-0.1c-3.2,4.7-7.5,8.3-9.3,13.5
	c6-3.8,20.9-25,21-32.1C569.7,416.4,569.4,416.7,569.2,417z M557.8,398c-0.5,0.2-1,0.4-1.7,0.6c-9.4,8.8-15.3,21.4-14.7,33.8
	c3.8-6.2,4.2-14.1,7.5-20.5C550.9,406.8,556,403.1,557.8,398z M490.5,504c7.1-4.7,11.3-6.9,19.9-5.8c-4.7-6.1-21,2.1-23.6,7.7
	c0.5-0.1,1-0.3,1.4-0.5C488.8,504.9,489.6,504.4,490.5,504z M496.4,516.6c0,1.3,0.1,2.2,0.1,3.1c5.9,1.1,9.6-5.4,9.3-10.6
	c-1.8,0.3-4.3-0.1-5.5,1C498.5,511.6,497.7,514.2,496.4,516.6z M469,254c-7.8,0.2-16-2.2-23.6-1.5c15.1,7,35.8,5.3,51.5,0.8v-0.1
	c2-1.4,3.9-2,4.9-4.1C491,251.9,480.5,255.3,469,254z M489.2,519.3c3.4-2.6,9.3-12.8,0.4-10.9l0.1,0.1c-2,2.2-4.2,4.1-5.6,6.4
	C482.7,518.3,485.7,521.6,489.2,519.3z M473.1,181.6c7.2-1,14.3-1,21.4-2.3c-14.7-8.1-54.2,8.1-65.4,19.6
	C443.5,192.3,457.3,185.2,473.1,181.6z M481.8,140.9c-11.4-6.3-58.7,8.4-64.9,19c16.4-7.7,32.6-14.7,50.5-17.2
	C472,141.5,477.6,143.3,481.8,140.9z M472.6,458.1c-1.4-0.1-2.6-0.7-3.9-0.5c-2.9,0.5-6,0.5-7.1,3.9c2.6-0.5,5.3-1,7.7-1.7
	C470.4,459.4,471.5,458.8,472.6,458.1z M463.9,569.6c-22.7,0.4-44.2-6.8-65-15.3c-31.3-12.3-56.9-34-83.4-54.1
	c37.7,39,103.4,76.9,159,70.3C471.2,568.9,467.4,569.8,463.9,569.6z M441.2,747.2L441.2,747.2c-12.5,10.2-27.1,17-39.6,26.9
	c17.5-7.8,47.6-26.3,58-42.1c-0.5,0.4-1.1,0.5-1.6,0.9C452.5,737.6,447,742.4,441.2,747.2z M429,75.5c4.2-0.1,8.8,1.9,12.4-0.2
	c-0.6-0.3-1.3-1-1.8-0.9c-7.8,1-14.2-3.2-21.4-4.4c0.4,0.5,0.7,1.4,1.2,1.6C422.5,73,425.7,74.2,429,75.5z M373.9,106.8h0.1
	c8.5-5.5,17.7-9.9,27.3-13.2c0.6-0.3,1.1-0.6,1.6-1c-1-0.4-2.2-0.5-3.2-0.1C391.1,97.3,380,98.8,373.9,106.8z M384.3,732.6
	c0.9-0.6,1.8-1.1,2.7-1.6c-9.4,1.8-19.3,2.7-28.4,5.4C367,739,375.8,734.4,384.3,732.6z M366,101.3l0.9-0.4c0.5-0.4,1-0.7,1.8-1.1
	c5.4-3.5,10.2-7.2,16-9.6c0.4-0.4,0.8-1,1-1.6C381,88.6,367.9,97,366,101.3z M331.6,74.9c2.3-1.2,4.8-1.8,7.4-1.8
	c0.4,3.1,1.4,9,1.6,9.9c2.7,14.1,27.6,11.4,31.8-0.9c2.9,1.1,5.4,1.5,6.6-2.2c1-4.4,3.2-9.3,0.6-13.5c-2.1,4.7-0.5,11.6-8,7.9
	c-10.2-3.6-20.1-11.7-31.7-7.3c-4.4,2.4-9.5,3.2-11.8,7.8C329.3,74.8,330.7,75.4,331.6,74.9z M341.7,73.2c2,0.2,4.1,0.4,6,0.5
	s2.8,1.3,2.2,3.1c-2.6,6.4,2.3,10.9,8.1,10.2c4.2,0.1,1.5-3.7,2.7-5.7c3.3-3.2,7.5-0.9,11.1,0.5c-13,10.8-27.9,11.8-30.2-6.2
	C341.7,74.7,341.7,73.8,341.7,73.2z M372.1,266.6c0.2,11.4,4.5,23,6.3,34.4c0.1,0.6,1.2,0.9,1.8,1.4c0.1-11.3-4.6-22.4-6.5-33.8
	C373.3,267.9,372.8,267.2,372.1,266.6z M287.6,381.7c15-3.2,31-10.5,39.6-23.6h-0.1c-8.4,6.3-15.8,13.7-26,17.3
	C296.7,377.7,291.5,378.6,287.6,381.7z M329.3,130.5c-7.1-4.2-12.3-10.8-19-15.6C313.8,122.3,321.2,128.6,329.3,130.5z M280.5,372.2
	c10.5-3.3,32.7-16.6,37.9-26c-12.2,10.2-26.4,17.9-39.9,26.4C279.1,372.5,279.7,372.4,280.5,372.2z M282.5,571.5L282.5,571.5
	c-10.4-33.3-17.2-67.2-23.9-101.2c-2,8.9,1.6,18.4,2.5,27.3c6.4,33.2,15.3,65.9,28.2,97.2c0.1-0.9,0-1.8-0.2-2.6
	C287,585.3,284.8,578.4,282.5,571.5z M271.9,338.8c7.7-6.5,15.5-12.8,24.8-17.1C286.7,323.1,275.7,329.2,271.9,338.8z M307.9,335.1
	c-9.3,6.1-17.5,14.5-26.8,21.1C291.1,350.6,301.8,344.8,307.9,335.1z M259.1,280.1c-0.4-0.4-0.9-0.7-1.4-0.9
	c-15.1,11.9-24.8,28.7-34.3,44.9C236.9,310.8,243.6,291.7,259.1,280.1z M249.6,771c-1.9,2.6-4.9,4.4-5.6,7.4
	c19.4-16.2,37.9-36.1,55.3-54.2C280.6,737.3,266.3,755.3,249.6,771z M245.7,551.6c0.2-0.6,0.4-1.2,0.4-1.9c-0.8-6.5-1.5-13-2.3-19.8
	c-2.3-25.5,1.3-51.3,5-76.3C240.2,477.6,238.3,527.4,245.7,551.6z M215.9,282.9c2.6,9.2-16.3,15.8-21,23.9c0.4,0,0.9,0.1,1.1-0.1
	c3.1-2.3,6-4.7,9.3-7c6-4.7,14.2-8.4,12.7-17.6c-0.4-2-0.2-4.8,1-6.1c8.5-9.4,17.6-18.3,27.3-26.5c-1-0.3-2.1-0.1-2.9,0.5
	C233.7,258.7,214.1,267.8,215.9,282.9z M243.6,431.9c4.1,1.7,7.5,4.1,11.9,4.3c-8.4-6.1-18.1-10.4-25.5-18.1c-1-0.8-1.5-2.2-3.2-1.5
	C229.8,423.6,238.1,426.5,243.6,431.9z M208.4,529.1c-9.3-26.8-5.9-39.7,5.8-64.3c-11.7,11.2-14.8,31-12.9,47.1
	C203.4,517.8,204.4,524.4,208.4,529.1z M229.7,237.4c-10,6.5-17.2,17.3-25.7,25.7c-11.1,13.9-25.7,26.5-33.8,42.3
	c8.4-7.4,14.5-17.4,22.3-25.5C204.1,265.2,218.5,252,229.7,237.4z M159.6,593c1,0.4,2,1.2,2.8,1c3-0.7,6-1.7,9-2.7
	c13.6-6.9,28.2-17.9,31.8-32.9C188.8,577.3,183,584.5,159.6,593z M185.9,462.7L185.9,462.7c1.5-1.5,3-2.4,3.3-4.4
	c-17.4,9.2-15.1,34.2-15.6,51.4c0.8-1,1.8-1.9,1.9-3.2C177.3,491.6,175.1,474.9,185.9,462.7z M130.3,408L130.3,408
	c-1.1-0.7-1.9-0.2-2.9-0.1c9.8,5.6,16.6,14.9,21.3,25.1C149,423.1,139.1,412.3,130.3,408z M121.2,416.7c0.4,0.1,0.7,0.3,1.1,0.5
	c3.6,3,7.2,5.9,11,9.1c2,1.6,3.2,4,5.5,4.7C134.8,425.1,129.5,415.6,121.2,416.7z"/>
<path class="st10" d="M498.4,325.9c-1.8-2.5-3.1-4.3-3.8-5.5c-8.9,40.4-21.5,80.8-19.4,122.6c0.6,17.7,4.9,35.2,12.6,51.1
	c2.6,5.1,11-3.2,15.4-3.1c24.2-4,7.3,38.1-13.9,38.2c-24.3,0.8-36.7-50.9-41.9-69.8c-5.6-23.7-5-48-3.5-72.2
	c-0.1-27.6,0.2-55.4-3.5-82.7c-6.9,2.6-20,0-27.5,0.7c-13.6,0.5-26.6,0.9-40.2,1.3c-10.5,0.4-21.1,0.9-31.6,1.4
	c-2.1,0.1-3.1-0.5-3.8-2.8c-9-24.4-17.2-52.8-28.8-76.2c-0.1,1.7-0.2,3.4-0.3,5.1c-0.7,5.2-1.5,10.5-2.4,15.6
	c-0.9,4.6-3.8,8.5-1.9,14.2c5,16.9,6.2,34.9,8.1,52.3c0.2,2.6,1.1,3.6,3.4,4.4c7.7,3.1,13.6,8.3,18.6,14.8
	c9.2,9.6,8.4,27.6,20.3,33.6c12.9,4.4,29.2,5.9,35.4,20c7.5,19.1-6.5,38.2-21.8,48.5c-18.1,15.7-43,23.6-66.8,20.8
	c-11.1-2.5-20.9-8.2-29.8-15.1c-3.5-2.7-6.5-3.9-11.1-2.1c-9.1,3.5-18.4,6.1-28,7.8c-0.1,6.6-4.4,16.1-4.9,21.9
	c-2.4,13.2-3.9,26.5-4.7,39.9c-3.6,37.6-0.2,75.2,0,112.8c0.4,20.2,0.4,40.6,1.5,60.8c0.1,1.4,1.3,3.7,2.6,4.1
	c71.2,24.3,149.1,29.4,223.1,16.7c18.4-2.7,36.3-7.4,54.1-12.6c14.6-4.4,29.3-8.6,44.4-11.2c1.6-0.1,3.1-0.2,4.7-0.1
	c0.8-1.9,1-4,0.5-6c-1.8-30.6-2.9-61.4-6.1-92.1c-6.6-63.1-14.5-126.2-28.5-188C513.9,371.5,507,348.3,498.4,325.9z M243.8,529.9
	c0.8,6.8,1.5,13.3,2.3,19.8c0,0.6-0.2,1.3-0.4,1.9c-7.4-24.2-5.5-74,3.1-97.9C245.1,478.6,241.5,504.4,243.8,529.9L243.8,529.9z
	 M289.3,594.8c-12.9-31.2-21.8-64-28.2-97.2c-0.9-9-4.4-18.5-2.5-27.3c6.6,34,13.5,68,23.9,101.2v0.1c2.3,6.9,4.5,13.8,6.6,20.6
	C289.3,593,289.3,593.9,289.3,594.8L289.3,594.8z M315.5,500.2c26.5,20.2,52.1,41.8,83.4,54.1c20.8,8.5,42.3,15.7,65,15.3
	c3.5,0.2,7.3-0.8,10.6,0.9C418.9,577.1,353.2,539.2,315.5,500.2L315.5,500.2z M482,708.7c12.6-1.8,62.7-11.4,70.7-27.1
	c-21.8,4.4-45.2,12.7-67.6,18.5C484.4,702.8,482.9,706.8,482,708.7z M223,460.9c5.2,1,5.7-7.4,7.5-12c-11.4,2.2-23.1,3.6-34.5,5.5
	C203.8,459.2,214.3,458.4,223,460.9z M141.1,456.9c-13.7,11.4-32.1,23.5-37.4,40.9c13.8-18.9,35.1-31.5,56.5-39.9
	c2.1-0.8,4.6-0.9,6-2.8C157.7,454.9,145.8,451.1,141.1,456.9z M99.2,444.7c-0.2-0.1-1.1,0.4-1.2,0.8c-5.3,13.5,18,6.5,24.8,6.7
	c3.9,0.1,7.5-2.7,11.1-3.8c-4.4-1.7-9.6-3.8-11.9-3.2C114.3,446.5,106.7,448.2,99.2,444.7z M104.1,498.2c-0.1,0.3-0.8,0.5-0.8,0.8
	c-3.3,5-6.6,10.1-9.9,15.1c-0.5,0.7-0.8,1.5-1.1,2.3c6.8-3.3,12.3-8.4,20.7-7.3c1,0.1,2.6-1.5,2.9-2.6c1.4-10.6,7.2-19.3,11.4-28.8
	C118,482.5,113,493.6,104.1,498.2z M114.1,433.7c2.5,0,2.4,0,1.7-1.8c-0.1-12-25.9-2.4-30.5,4.1c-4.2,4.5,6.4,11.1,9.7,13.5
	C94.6,439.3,104.8,433.8,114.1,433.7z"/>
</svg>
