<?xml version="1.0" encoding="utf-8"?>
<!-- Generator: Adobe Illustrator 25.2.3, SVG Export Plug-In . SVG Version: 6.00 Build 0)  -->
<svg version="1.1" id="Слой_1" xmlns="http://www.w3.org/2000/svg" xmlns:xlink="http://www.w3.org/1999/xlink" x="0px" y="0px"
	 viewBox="0 0 864 864" style="enable-background:new 0 0 864 864;" xml:space="preserve">
<style type="text/css">
	.st0{fill:none;}
	.st1{fill:#FA6255;}
	.st2{fill:#FBAAA0;}
	.st3{fill:#FFB750;}
	.st4{fill:#9AC0F3;}
	.st5{fill:#E1D9CE;}
	.st6{fill:#767E93;}
	.st7{fill:#4A80BC;}
	.st8{fill:#1C2D47;}
	.st9{fill:#B2A593;}
	.st10{fill:#684CAE;}
	.st11{fill:#D67BFE;}
	.st12{fill:#C5E56C;}
	.st13{fill:#9A7469;}
	.st14{fill:#FFFFFF;}
	.st15{fill:#C95031;}
	.st16{fill:#FFCF97;}
</style>
<path class="st0" d="M626.3,390.5c-5.8-1.7-11.3-5.1-17.2-3c5.3,2.2,10.5,4.6,15.8,6.7c0.9,0.4,2.2,0.1,3.3,0.1
	C627.6,393,627.3,390.8,626.3,390.5z"/>
<path class="st0" d="M157.9,431.9c-0.3-3.8-0.5-7.6-0.9-11.4c-0.3-1.8-0.8-3.5-1.6-5.1c-1.9,26.5-20.5,3.1,3,25.3
	C158.5,437.4,159.2,435.3,157.9,431.9z"/>
<path class="st1" d="M712.9,493c-1.5,2.6-3.1,5.4-4.7,8.1c-0.2,0.3-0.2,0.9-0.3,1.3c3.8-1.5,6-6.2,8.2-9.6
	C715.1,492.7,714,492.8,712.9,493z M698.5,495.5c-9.2-0.8-17.4,15.5-37.9,13.9c-12.6-0.3-15.6-15-10.3-24c1.6-4.5,5.5-8.1,6.6-12.8
	c-10.9,5.4-12.7,15.4-27.5,11.2c-6.3,0.4-39.2-14.7-38.5-7.3c-6.3,24.8,5.8,53.1,19.8,73.6c9.4-3.5,19.6-5.5,28.5-10
	C661.2,528.9,681.9,513.7,698.5,495.5z M642.3,545.3c-7.7,0-20.4,6.8-31.6,10.5C617.6,585.3,631.1,554.7,642.3,545.3z"/>
<path class="st2" d="M747.1,432c-0.2-3.7-0.4-6.9-5.4-5.1C742.9,428.7,745.9,430.3,747.1,432z M725.6,447.8c2.1,0.6,4.2,1.1,6.3,1.5
	c1.2,0.2,2.5,0.4,3.7,0.5c-0.4-2.7-5.1-3.3-7.4-4.6C727.8,445.1,726.5,446.9,725.6,447.8z M618.7,413.2
	c-7.8-6.3-14.8-15.3-24.3-18.7c-16-1.9-34-11.1-49.5-4.7c-9.4,5.3-22.2,7.3-26.4,18.8c-1.9,5.6-9.4,6.7-8.5,13.7
	c-2.9,14.4,8.3,21.1,21.3,20.9c18.6-1.3,37.3-1.9,56-1.6c9.3,0.3,18.2-5.4,27.4-2.5c2.6-0.8,1.7-4.2,2.8-6.7
	c1.3-4.9,5.1-10.2,6-14.6C623.3,416,620.5,414.7,618.7,413.2z M531.2,430c-5,3.4,0-6.6,0.6-8.4C534.1,423.7,533.4,428.2,531.2,430z
	 M535.2,408c-3.8,4.8-6.5,10.4-7.8,16.4c-0.4,1-1,2-1.6,2.9c-5.1-7.3,4.9-25,13.2-26.2C538.9,403.9,537.5,406.5,535.2,408L535.2,408
	z"/>
<path class="st3" d="M697.4,361c0.6,4.4,2.3,10.2,5.9,12.9c2.3-1,10.3,0,7.9-3.7c-2.6-2.9-5-6.1-7.9-8.5
	C702,360.6,699.5,361.1,697.4,361z M697.7,502.3c-10,13.1-24.6,21.2-37.3,31.3c7.5-2,14.6-6.7,21.3-10.7c11.6-7,22.3-14.4,27-28.3
	C702.9,492.8,700.5,498.1,697.7,502.3z M669.5,467.4c-9.8-1.6-23.7,30-13,36.2c3.7,0.5,7.4,1.2,11.1,1.6c0.9,0.1,1.9-0.8,2.9-1.2
	C654.2,496.2,658,477.9,669.5,467.4z M586.7,477.5c3.8-8.1-9-11.1-10.2-3.2c-6,18.7-5.2,40.7,4.1,58.3c3.5,5.9,8.2,11.2,11.8,17.2
	c3.2,5.5,7.8,3.8,12.9,2.6c1.2-0.6,2.4-1.1,3.5-1.6C589.7,537.2,581.5,498.5,586.7,477.5z"/>
<path class="st4" d="M762.5,499.1c-8-1.8-14.6-9-22.4-10c-10.8,0.8-21.1,1.2-25.2,12.9c-1.1,1.4-1.1,1.2,0.7,1.6
	c17.5,3.4,35,7.3,52.5,10.9c8.7,1,25.2,9.6,21.2-6.4C780.3,505.3,771.2,502.5,762.5,499.1z M678,465.5c-8.6,0.3-10.3,12.8-14,19
	c-1.9,4.9,2.4,12.9,8.1,16.8c2.4,1.3,11.9,0.2,13.7-3.8c-3.4-2.2-8.1,1.9-11-1c13.4-6,30.2-5.1,44.8-8.2c19.4-4.1,40.5-4.9,59.3-9.7
	c-0.7-3,1-9.6-2.4-10.5c-13.5-1-25.5-1-39.4-0.9C717.4,465.8,697.7,465.8,678,465.5z M693.8,373.1c-1.9,1.6-4.5,2.1-5.3,4.7
	c0.9-0.2,1.9-0.3,3.7-0.5c2.5-0.9,5.2-1.7,7.7-2.6c0.4-0.2,0.8-0.2,1.1-0.4C698.8,373.4,696.6,370.4,693.8,373.1z M569.2,526.4
	c-0.4,1.2-1.4,2.6-1,3.7c1.8,5.8,4.7,13.2,6.7,19.3c0,0,0.1,0,0.1,0c4.5-0.7,11-0.9,6.6-6.5C577.4,537.3,576.9,527.9,569.2,526.4z
	 M566.4,520.8c1.2,1,4.5,2.2,5-0.2c-1.7-4.6-1-20.4-5.9-21.1c-3.8,2.8,0.3,12.5,0,18C565.8,518.6,565.8,520.2,566.4,520.8z"/>
<path class="st5" d="M737.3,457.2c-4.6,3.2-12.8,1-17.5,4.2c6.2,0.7,12.4,1.1,18.6,1.4c5.3-9.7,16.6-21.5,14.9-32.8
	c-1.6,1.5-3.6,3.9-5.2,5.6C749.7,446.1,739,447,737.3,457.2z M698.9,461.2c8.7,1,17.7,1.6,22.9-4c3-2.4,8.5-2,12.3-2.5
	c-12.8-4.1-12.2-4-20.8,4.9c-1.2-2.8,1.2-4.7,2.5-7.5c8-6.3,14.4-15.9,25.5-16.2c0.7,0,1.6-1,1.9-1.7
	C731.6,421.7,713.9,438.5,698.9,461.2z M522.5,492.7c2.5-4,5.7-8.9,5.8-10.3c0.6-0.9,1.3-1.8,2.1-2.5c0.4-0.3,3.5-2.1,5.8-3.4
	c0.1-1.8,0.4-3.2-2.3-1.9c-7.7,2.8-12.3,9.4-11.4,17.9L522.5,492.7z"/>
<path class="st6" d="M486.8,604.3c-3.6-3-35.3,0.7-24.3,6.8c4.2,0.3,8.6,1.3,12.7,0.6C476.9,611.5,493,605.7,486.8,604.3z
	 M465.5,582.4c0.8,0.9,1.6,1.7,2.4,2.5c1.8-7.9,0.4-16.7-0.6-24.6c-6.2,5.3-5,13.2-2.6,20.8C464.9,581.6,465.2,582,465.5,582.4z"/>
<path class="st7" d="M723.1,384.6c5.9,0.2,4.9,9.6,10.6,11.4c-0.3-9.2,10.7-18.1,7.4-27c-1.4-1-4.5-1.5-5.8-0.6
	c-11.9,6.8-25.3,8-38.5,12c-13.1,2.7-27.4,3.4-39.4,9.1c-12.3,5.6-56.1,53.5-27,58.1c7,1.2,18,6.4,22.3-2.2
	C660.8,411.7,693.3,395.7,723.1,384.6z M631.7,394.8c-1.7,4.9,3.3,10.3,6.6,4c8.5-7.8,16.5-15.6,29.3-17.2c8.8-0.9,15.9-6.4,23-10.8
	c9.4-2.5-6.7-11.4,6.5-14.6c1.5,0.3,3-0.2,4-1.3C680,342,636.8,373.2,631.7,394.8z M540.2,563.5c-6.3-0.5-9,3.1-13.7,6.5
	c-15.2,10.7-33.6,23-53.1,19.3c-9.9-2-17.9,7-26.9,9.6c-4.7,1.6-6.8,3.4-4.7,8.1c2.1,4.2,12,2.1,14.9-0.3c4.4-8.4,24-10.8,31.1-5.7
	c15.5,7.5,54.1-29.3,68.2-38.5C551,561.5,545.4,564.1,540.2,563.5z M550.5,525.5c-0.9,0.4-1.8,0.7-2.7,0.9
	c-15.1,0.9-33.9,1-42.3-14.2c0.2-0.3,0.3-0.6,0.3-1c-0.1,0.3-0.3,0.6-0.4,0.8c-14.3,11-17.4,30.8-22.1,47.2
	c-1.7,4.7-0.6,11-5.5,13.7c-2.8-8.3,3.7-18,4.6-26.7c0.7-3.1,1.5-6.3,2.5-9.3c-4.7,3.9-15.5,4-15.2,9.9c-1.6,8.3,0.6,16,2.5,24.1
	c1.5,4.9-2.1,17.1,6.3,14.8c19.2-0.6,34.9-11.6,49.6-22.3c3.3-1.8,5.2-7.5,10.4-4c5.8-1.1,12.1-1.5,18.2-2.5
	c-4.1-5.9-3.8-17-4.8-22.8C551.6,531.3,551,528.4,550.5,525.5z M539.4,523c2.5,0.3,7.4-0.6,10.8,0.1c-1.2-6.9-2.4-13.8-2.5-20.7
	c3.7-12.8-48.6,2.4-39.1,9.9C517.3,519.4,528.2,523.1,539.4,523z M460.4,587.8c2.9-1.6,0.9-4-0.2-6c-3.5,2.8-7.1,4.5-11.2,7.4
	c-3.8,1.9-7.5,3.9-11,6c-0.9,0.4-1.3,1.5-1.9,2.3c3.5,2.3,5.8-0.9,8.8-2.4C450,592.6,455.2,590.2,460.4,587.8z"/>
<path class="st8" d="M785.3,478.2c10.5,0,26.8-4.2,40.3-4.5c-0.3-2.3-0.6-4.9-0.9-6.1c-0.3-1.5,0.6-2.6-2.2-1.6
	c-11.7,3.4-23,1.6-35.6,2c-3.7-0.8-5.4,0.5-4.7,4.5C782.8,475.1,781,478.9,785.3,478.2z M809.9,512.8c-4.9-0.3-11.2-4.5-15.5-1.1
	c-1,2-3.2,6.6-0.3,7.9c7.1,1.3,14.2,2.6,21.7,4.3c10,1.3,4-4.6,10.6-8.6C821.2,513.5,815.4,514,809.9,512.8z M559.6,501.4
	c-0.8-4.6-4.4-2.5-6.8-2.8c-4.8-1.3,0.8,12.3,1.2,15.2c1,7.7,2.2,15.5,2.9,23.3c0.3,3.8,3.7,7.1,1.8,11.3c2.4,2.1,6.9-0.7,9.8-1
	C565.7,532.6,558.1,517.4,559.6,501.4z M479.5,533.2c2.5-7.1-3.7-13-5.1-19.6c-1-3.4-2.5-4.6-5.9-4.1c-6.2,2-8.6-5.5-14.1-2.7
	c-5,3-9.8,6.3-14.6,9.6c-12.5,8.4-12.5,8.8-5.6,19c1.4,1.7,2.7,3.4,4.9,1.1c4.7-4.7,9.7-9.1,14.5-13.8c11.9-10.1,12.6,10,15.3,17
	C470.6,541.3,476.3,534.3,479.5,533.2z M472,504.6c-1.2-5.4-4.2-5.9-9.1-3.1c-0.8,0.6-1.7,1.2-2.4,1.8
	C463.9,504.7,468.5,505.9,472,504.6z M429.5,600.9c-5.6,3-14,3.5-16.4,10.2c-1.9,5.6-5.1,8-10.3,6.5c-6.5,2.3-11.7,13.5-17.4,19
	c-1.4,1.3-3.3,2.5-4,4.1c-0.5,1.2,0.5,3,0.9,4.6c14.1-16.3,30.5-28,51.7-33.3c3.9-1.3,4.5-3,2.7-7.9
	C435.2,600.2,433.1,599.4,429.5,600.9z M408.8,610.7c0.6-1.3,1.1-2.6,1.3-4c0-1-0.9-2.2-1.3-3.2c-4.1,2-4.6,7.2-6.5,11
	C405.3,613.9,407.2,614.1,408.8,610.7z M378.6,638.3c8.1-7.4,14.4-17.7,20.7-26.8c-9,7.8-16.3,17.8-24.3,26.5
	C376.2,638.3,377.4,638.4,378.6,638.3z"/>
<path class="st9" d="M840.7,512.9c-3.1-3.3-1.9-8.6-6.3-10.9c-4,5.7-2.2,13.5-7.9,18.7c-3.3,10,17.8,8.9,23.6,6.2
	c2-2.1,3.7-4-1.2-3.9c-0.7,0-1.5-1.3-2.2-1.9c2.8-4.3,9.6-2.8,11-8.6c-1.2,0.3-2.3,0.6-3.4,0.8c-1.3,0.2-2.5,0.3-3.8,0.4
	c1.3-4.4,6.2-6.1,8.2-10.1C860.3,491.1,844.2,511.1,840.7,512.9z M827.8,473.6c6.3,0.1,11.8,1.1,15.7,4c0.7,0.5,2.4-0.2,3.6-0.3
	c1-7-7.5-5.4-5.5-12.2c1-7.2,9.9-23,4.8-28.5c-2.5,2.8-2.2,6.9-4.7,9.7c-4.4-4.1,2.2-14-5.6-14.6c-7.9,4,1.5,12.9-0.6,19
	c-3.2-1.6-4.7-4.5-7.5-6.5C824,452.4,830.4,464.6,827.8,473.6z M735,422.6c-0.8,0.9-1.5,1.9-2.3,3c5.1-1.4,10.4-0.6,15.7-0.3
	c0.6-5.2-8.2-6.4-12.2-3.9C735.7,421.8,735.3,422.1,735,422.6z M664.5,463.9c6.8-1.6,13.6-2.8,20.5-3.4c3.8-0.4,8.4,0.2,13.1,0.6
	c6.4-20.4,19.2-27.6,26.6-32.4c2.9-1.9,4.9-3.4,5.4-5.3c0.9-2,2.6-3.6,4.7-4.3c2.8-0.9,2.5-1.1,1-3.2c-10.8-10.2-4.1-18.1-13.6-26
	c-6.8,0.7-15,5-21.2,8c11.6,2.4,19.8,10.3,23.3,21.5c1.6,3.5,0,6.6-3.2,8.8c-12.4,8.5-49.5,5.9-35.8-21c-8.2,3.1-5.1,14.3-12.7,18.6
	c0.7-2.8,1.3-5.6,1.8-8.4c-9,6.9-14.8,18.1-18.3,29c-1.8,5.4,1.7,10.3,3.3,15.2C660.4,464.1,661.4,464.7,664.5,463.9z M696.1,436
	c2.8-0.7,4.6,2.1,7,3c3.4,1.3,2.4,2.3-0.2,3.3c-2.4-1.6-4.6-2.9-6.8-4.4C695.8,437.8,696.1,436.7,696.1,436z M697,442.3
	c3.3,2,3.1,1.9,0.8,4c-2,1.4-2.7,4.8-5.3,5c-0.2-1.3-0.5-3.8-0.5-4.1C694.8,446.5,692.3,440.9,697,442.3L697,442.3z M643.5,369.4
	c4.4-4.4,9.2-8.2,14.5-11.5c-14.4-5.4-28.8-23.7-45.5-21.2c-5.5,0.7-10.8,3.1-16.2,3.4c-9.8,0.7-14.4,8.3-20.6,14
	c-3.1,2.9-2.3,13.5,2.6,17.4c12,15,32.7,7.7,48.3,15.5C630.7,389.9,638.9,372.1,643.5,369.4z M624.5,414c1,2.9,1.6,0.5,1.9,0.2
	c1.8-2.5,3.5-5.1,5.2-7.6c1.6-2.4,1.6-2.3-0.5-3.1c-1.9-1.5-2.5-3.4-5-5c-15.6-5.5-31.8-17.3-48.8-12.6c9.7,3.4,21.2,2.3,28.9,10.5
	C611.7,402.7,619.6,407.7,624.5,414z M534.8,488.9c0.8-6.6,7.4-8.9,9.4-14.7c-1.5,0.8-2.9,1.7-4.2,2.6c-0.8,0.6-2.2,1.3-3.1,2.1
	c-3.1,5.1-10.9,12.9-15.1,16.8C527.3,494.7,535.2,496.4,534.8,488.9z M420.2,530.8c-3.9,5.2-10.2-0.2-14.6,3
	c-3.2,7.5,8.5,12.4,14.8,9.7c1.2-0.4,3,0.8,4.5,1.2c-6.1,5.8-14.4,2.5-21.3,0.1c-1.9,10.2,10.8,6.6,17,6.6c-2,2.5-4.8,4.4-7.9,5.2
	c1.7,1.5,3.2,4.5,4.6,2.6c5.2-5.3,10.4-10.3,15.5-15.6c1.8-5.4-5-10.5-7-15.3C423.8,527.7,421.5,529.8,420.2,530.8z M375.7,643
	c-3.1-2.8-6-1.1-9.3,0.8c-3.7,3.2-18.3,7.4-11.2,13.2c0.2,0.2,0.5,0.3,0.8,0.5c1.3-1.3,2.9-2.4,4.6-3.1c1.7-1.3,2.9-2.7,4.3-3.9
	c0.9-0.6,1.9-1,2.9-1.2c1.2,5.4-5.3,10.3-10.3,9.1c3.3,1.9,6.9,3,10.8,1C373.8,655.9,384.3,649.3,375.7,643z"/>
<path class="st10" d="M225.2,511.8c-8.1-3.2-22.5-17.2-28.8-21.8c-0.2,5.2,0.1,10.5,1.1,15.7c8.4,4.7,24.8,15.2,28.3,22.3
	C226.6,522.8,226.1,517.3,225.2,511.8z M198.9,472c8.3,4.2,14.9,11.8,22.1,17.9c0.5-4.4-0.4-15-4.7-17.6c-6.5-3.8-12.4-8.7-19-13.6
	c-1.2-1.4-2.4-2.7-3.6-4.1C194,461.1,191.3,467.8,198.9,472z M216,547.5c2.2-0.2,2.4-3.7,3.4-6.1c-5.9-3.8-12.5-11.1-18.2-13.8
	C202.3,536,211.3,541,216,547.5z M195,435.2c6.4,5.1,12.6,10.3,18.9,15.5c1.3,1,2.7,0.2,2.4-1.6c-0.2-1.3-0.2-2.8-0.9-3.8
	c-1.5-2.5,0.1-6-3.6-8c-5.5-3.1-10.3-7.2-15.8-11.3C187.7,416,190.6,432.2,195,435.2z M210.1,413.6c0-6.6,0.2-14.9-7.9-18
	c-1-0.3-1.6-1.5-3.2-2.3c-2.5-2-5.1-4-7.7-5.9c-0.5-0.3-1.1-0.6-1.7-0.8C186.9,400.2,201.8,406.1,210.1,413.6z M189.3,351.4
	c-2.4,15.3,6.2,14.9,15,24c-0.3-3-0.5-5.9-0.8-8.8c0-0.1-0.2-0.2-0.6-0.7c0.8-8.5-6.9-11.4-12.6-15.2
	C190.1,350.7,189.3,351.1,189.3,351.4z M193.2,339.9c15.9-12.8,7.2-22.1,0-10C189.3,333.3,184.1,341.7,193.2,339.9z"/>
<path class="st11" d="M224.7,509c-0.9-4.6-1.9-9.3-2.5-13.8c-0.3-1.4-1-2.7-2.2-3.5c-9.4-5.2-17.9-11.8-25.3-19.6
	c-0.4,5-0.2,11.6,2,16C205.2,492.9,217.7,500.9,224.7,509z M225.4,529.7c-1.6-1-4.2-3-5.4-3.5c-5.4-5-15.8-9.9-21.8-16.1
	c0.5,3.2,1,6.3,1.4,9.4c2.2,6.5,10.6,8.1,15.1,12.5c1.5,1.3,4.9,3.8,6.6,6.6C223.2,536,224.6,532.9,225.4,529.7z M218.6,470.4
	c-1.2-18.3-1.7-13.1-15.3-23.6c-3-2.4-6-4.8-8.9-7.2c-0.6-0.5-1.2-0.9-1.9-1.2C187.7,455.7,209.8,459.6,218.6,470.4z M194.4,419.8
	c6.6,4.4,12.3,10.1,19,14.2c0.8-17.9-5.5-16-16.9-26.1c-1.4-1.1-2.8-2.2-4.1-3.3c-0.5-0.3-1.1-0.6-1.7-0.9
	C190.3,408.6,189.6,416.6,194.4,419.8z M205.8,393.4c0.7-0.1,1.4-0.3,2.1-0.3c-1.2-13.1-5.8-16.8-16.8-22.7
	c-0.4-0.4-1.7-0.4-1.8-0.1C186.2,381.4,198.7,387,205.8,393.4z M200.3,347.2c-1-4.8-4.9-2.4-7.6-2.9c-0.8-0.2-1.6,0.6-2.4,1
	c2.6,3.4,6.8,5.3,10.5,7.3C201.4,350.5,200.9,349.8,200.3,347.2z M192.4,325.7c-3.4-1.7-11.8,1.3-8.2,6.3
	C188.3,333.1,189.2,327.4,192.4,325.7z"/>
<path class="st12" d="M216.5,324.7c-2.1-3.4-1-8.9-5.2-10.5c-1.7,3-5,6-4.8,8.8c0.7,9.7-4.7,18.7-2.1,28.5c2.2,10.3,4,20.7,5.5,31.2
	c1.7,11.4,3.2,22.7,4.8,34.1c5.4,30.6,9.1,61.3,14,92c0.7,6.5,3.3,12.9,1.4,19.6c-0.3,1.8,0,3.5,0.7,5.2c2.2,6.3,4.6,12.5,7.3,19.3
	c3.4,6.2,6.2,26.8,12.8,27.8c15-3,38.1-11.2,36.8-30c-9.1-41.3-30.5-80.1-35.4-122.1c0-13.6-0.6-27.2-1.7-40.7
	c-0.3-3.5-0.6-6.9-0.9-10.4c-0.1-10-3.9-20.6-1.4-30.2c0.4,0.5,0.8,1,1.2,1.6c2.4,4,1.9,9.2,2.8,13.7c1.8,11.2,1.2,24.5,3.7,35.2
	c6.8,2,17.1-1.6,21.4-7.8c9.5-9.2-10.8-25.3-15-35.1c-2.1-3.4-4.2-6.8-6.3-10.2c-7.5-11.6-15.6-23-25.8-32.1
	C226.3,320.8,227.1,344.4,216.5,324.7z M236,358.8c6.1,0.9,5.1,22.5,7.5,28.3c0.1,0.4,0.1,0.8,0.2,1.1c0.5,5-2.3,8.1-8.1,8.5
	c-14.4,2.8-16.9-5.3-18.2-15.2c-0.5-3.9-0.9-8.1-1.7-12c-0.3-4-2.2-8.8,3.1-9.3C224.5,359.1,230.2,358.7,236,358.8z M234.9,392.5
	c3.1-0.5,5.6-1.3,3.7-5.9c-2.3-7.6-1.3-16.1-4.8-23.7c-21,1-13.3-1-11.4,22.2C222.1,393.1,228.4,393.4,234.9,392.5z M229,579.8
	c-1.2-14-0.8-28.5-2.4-42.3c-3.6,3.3-4,8.2-6.1,12.5c-5.5,11.7-16.2-11.3-21.1-15c-8.4-18.1-6.3-39.4-9.3-58.9
	c-2.8-33.8-4.7-66.8-4.2-100.8c-1.4-41.6,8-13.8-9.9-52.1c-2.8,4.8,0.3,11.1-3.3,16c-7.5-0.7-28.2-23.7-32.1-14.5
	c-8.2,13.4-11.4,28.3-15.3,43.2c-4.9,13.7-10.7,27.2-16.1,40.8c-5,9.9,24.2,16.8,31.3,17.8c5.6,1,8.9-1.6,9.8-7.2
	c1.7-8,7.1-15.7-1-22.2c-7-6-21.7-18.4-19.3-28.1c7.5,7.2,12.7,17.3,20.6,23.7c-0.4-6.2-6.2-11.2-4.1-17.8c1.2,1.6,3.1,3,3.8,4.8
	c4.1,13.5,7.5,27.2,10.1,41c3.9,25.3,4,51.1,0.2,76.5c-0.3,10.2,0.7,20.3,3.1,30.2c-1.3,7.7-3.9,15.1-5.6,22.7
	c-8.1,36.3,43.5,34.5,67.4,34.2C228.9,584.2,229.1,581.8,229,579.8z M220.4,292.2c0.7-1.9,0.3-3.9-1-5.4c-2.9,3.5-7.2,8.4-7.1,13.1
	c3,8.5,6.1,16.9,9.6,25.8C235.2,298.5,216,309.3,220.4,292.2z M198.9,319.8c5.2,2.5,5.7-3.8,8.7-6c6.2-2.6,2.5-9.4,0.6-13.6
	c-5,4-5.6,14.4-10.4,19.3C198.2,319.5,198.6,319.6,198.9,319.8z M181.6,315l-5.1-7.6c-0.4-0.4-0.9-0.8-1.4-1.1
	c-0.3,6.4-2.8,19,7.5,17.1C189,322.2,183.7,318.1,181.6,315z M163.5,301.6c-6.9-1.4-13.4-4.8-20.2-7.4c-3,0.5,0.3,3.2,0.2,4.8
	c1.2,6.6-1.2,15.4,4,20.4c7.4,4.7,14.6,10,22.5,13.7c1.4-6.5,0.3-12.6,0.6-19.9C171.2,307.6,171.1,303.1,163.5,301.6z"/>
<path class="st13" d="M335.3,682c-9-27.8-18.1-55.7-28.8-82.9c-5.3-10.2-7.3-34.4-23.5-28.3c-8.8,7.8-19.4,11.2-30.3,13.9
	c-14.7,6-13.2-27.9-21-36.3c-3.4,10.2,5.3,31.7-0.5,39.5c-2.9,1-2.2,3.1-1.9,4.7c0.2,3.5,1.5,6.9,1.4,10.4c-0.1,5.2,2.6,3.3,4.7,2.1
	c13.6-6.1,40-28.5,53.9-21.8c-14.6,3.9-27.4,12.3-40.7,19.8c-9.4,7.4-20.9,4.4-16.8,19.5c27,10.4,47.1,32.2,60.9,58.4
	c20.5,37.9,2.1,20.7,40.7,5C336.1,684.7,336,684.6,335.3,682z M288.9,593.3c-6.3-0.1-11.1,3.3-16.6,6c-9.3,3.9-24.6,18.8-32.9,17.5
	c11.1-12.3,27.8-18.1,42-26.2c3.4-1.3,7.9-2.8,10.3,1C290.8,592.3,289.9,593.3,288.9,593.3z M310.5,704.8c-1.4,1.2-2.8,2.3-4.1,3.5
	c3.1,0.6,12.6,2,9-3.9C313.3,701.4,312.3,703.7,310.5,704.8z M290.3,562c-0.6,0.4-1.5,0.8-1.8,1.3c-0.3,0.9-0.5,1.8-0.6,2.8
	c1.1-0.1,2.2-0.5,3.1-1.1C290.7,564,290.5,563,290.3,562z M227.3,615.7c0.3-3.7-2.4-4.4-5.8-5c-11.4-3-23.7-8-31.2-17.2
	c0.4-0.2,0.8-0.3,1.2-0.3c7.9,0,36.4,20.9,35,10.5c-1.4-4,1.7-14.4-3.9-14.8c-10.2-0.4-20.5-1-30.7-1.6c-0.5,0-1.1,0-1.6-0.1
	c-18.2,0.3-23.6-12.8-31.9-6c-6.7,0.9-8.8,4.7-10.2,11.2c-3,20.1-14.4,39.8-12.5,60.3c2.3,10.2,10.4,16.9,16.2,25
	c4.7,6.3,8.9,12.9,13.6,19.3c7.8,8.8,31.6,12.2,40.2,3.5c3.7-9.5-14.5-15.9-7.4-26.8c1-1.8,0.3-4.6,0.5-6.8c-1.2,2-2.6,4-3.7,6.1
	c-0.8,1.6-1.6,3.2-2.2,4.8c-3.2-9.3,5.9-23.6,11.5-31.7c6.5-6.5,12.4-13.7,19.6-19.2C228.8,623.5,227,619.7,227.3,615.7z M186.8,612
	c5-3.8,12.6,2.1,17.9,4c4.7,1.1,9.1,1.9,13.5,2.8c0.9,0.2,1.6,1.4,2.4,2C213.2,626.2,194.1,616.3,186.8,612z M160.2,576.2
	c1.2-2.2-1.6-5.2-3.8-5.6c-0.1,0.6-0.2,1.3-0.2,2.8c-0.8,1.2-1.4,2.5-2.2,3.8C156,576.8,158.4,576.6,160.2,576.2z"/>
<path class="st14" d="M741.7,442.5c3.1-5.1-6.7-0.1-8,0.9C736.6,445.5,739.2,443.8,741.7,442.5z M739.2,407.3
	c-0.1-0.8-0.6-1.5-1.2-2c-2-1.4-4.2-2.7-6.2-4C733.7,405.7,733.1,409.6,739.2,407.3z M707.4,404.5c-10.4-5-24.7,7.7-18.8,18.2
	c3.1,4.4,18.6,8.1,22.9,3.8C707.2,413.3,724.9,416.5,707.4,404.5z M199.7,202.8c0.4,13.4,21.9,12,23.4-0.1c-2.2,1.3-4.6,2.4-7.1,3.3
	C209.5,213,205.9,204.9,199.7,202.8z M150.7,203.6c-5.6,1.1-12.6-0.2-17.4,3c7.6,4,15.6,6.2,24.3,5.4
	C160.1,209.7,152.5,206.1,150.7,203.6z"/>
<path class="st15" d="M397.5,694c4-0.1,8.7,1.3,12.2-1.3c1.4-1.3,3.2-2.7,5-4.2C401.5,687.5,392.8,691.5,397.5,694z M400.3,671.3
	c1.9-2.4,6.5-4.2,8.1-5.1c-4-7.5-12.2-3.9-18.6-2.4c-0.4,0-0.6,1.2-0.4,1.7C393,667.2,397.6,667.5,400.3,671.3z M382.2,698.3
	c-13.3-10.3,6.4-20.6,15.5-24.3c-22.9-15.8-19.9,17.7-43.6,27c-14,3.1-13.7-13.9-18.9-11.1c-3.8,3.4-22.7,7.3-16.4,13.4
	c4.4,6.9,8.6,13.9,12.7,21c2.8,5,4.4,6,9.6,4c11.8-5.2,25.2-8.2,36.1-15.1C355.2,713.3,372.1,701.4,382.2,698.3z M356.3,713.9
	c-6.6,3-12.2,9.1-19.5,9.6c2.7-5.2,8.6-7.1,13.5-10.7c5.2-3.1,22-20.5,26.2-18.1c0.5,2.8-1.4,4.2-3.6,5.4
	C366,703.2,360.9,708.2,356.3,713.9z M260.2,402c-1.2,0-2.5,1.2-3.9,1.8c1.1,0.7,2.4,1.2,3.7,1.5c4.9,2,2.6,17.4-1.3,11.3
	c-0.3-3,1.1-6.3-2.2-7.9c-2.2,2.6-0.9,6.4-1.2,9.6c0.6,7.5-0.2,15.1,1.8,22.3c11-10.9,19.3-24.8,29-37c2.2-3.1,4.5-6.7,5.3-10.3
	c-0.1-2.2-5.8-5.6-7.3-8.3C279,394.3,272.2,403.3,260.2,402z M221.6,159.4c-5.6-10.5,8.4-15.9,3.4-21.7c-7.3-2.9-17.6,11-25.2,14.2
	c8.6,3.2,16.4,8.1,23,14.4C223.6,163.9,222.4,161.6,221.6,159.4z M209.5,294.3c0.8-0.8,1.5-1.7,2.7-3c8.4-14.5,6-18.9,6.5-34.1
	c-7.4,4.6-4.3,15-10.8,20.6C208.2,283.1,206.7,289.3,209.5,294.3z M223,199.5c-0.5-3.5-2.5-7.6-6.6-12.4c-10-16.1-18.1-4.1-18.6,9.2
	c-0.3,3,2.1,3.1,4.7,3C206.4,199.6,218.3,198.5,223,199.5z M202.5,710.7c2.6,1.2,3.1,6-0.2,7.2c-0.5-0.2-0.9-0.6-1.1-1.2
	c-0.8-5.9-4.7-6.8-9.7-6.5c-9.2-2.4-18.9,8.5-10.8,8.9c2.8,3.2-1.2,6,6.5,4.8c2.2-0.8,8.8-0.9,15.2-1.3c7.5-0.4,14.7-1.1,14.1-3.4
	c-1.9-4.1-3.3-11.8-6.4-14.4c-2.2-0.5-4.8,2.4-7.4,3C201.5,708.6,199.9,709,202.5,710.7z M137.1,188.4c-1.9,3.6-3.8,7.1-5.6,10.8
	c-0.4,0.9-0.9,1.7-1.3,2.6c10.4-1.3,20.7-3.4,31.4-2.3c4.6,0,5.6,0.1,6,5.8c2.5-8.1-0.8-15.8-4.9-22.7
	C155.7,175.7,143.5,182.3,137.1,188.4z M160.1,705.4c-5,4.4-9.6,11.7-7.3,18.5c2.9-1.1,2.4-4.1,3.6-6.2c3.2-4.2,5.6-0.5,6.5,2.7
	c0.3,1.1-1.4,2.5-1.9,4.3c11.5,4.8,13.1-7.4,15.6-15.2C176,706,162.6,702.7,160.1,705.4z M152.8,278.9c-0.8-6.2-2.1-12.5-7.2-16.7
	c-9.6-7.6-19-16-30-21.5c0.1-0.1,0.2-0.3,0.3-0.4l0,0c-2.5-5.3,6.9-17.2,12.7-14.4c0,0-0.1,0.1-0.1,0.2c2.8-0.9,5.8,0.3,8.7,0.5
	c8.6,0.9,16.6-4.2,24.7-6.7c4-1.2,8.1-1.8,12.2-0.6c-8.3,6.2-19.8,7.1-29.1,11.9c20.8,11.4,31.1,13.2,54.8,11.7
	c5,0.3,16.2,8.2,15.8-1.9c-0.1-0.4-1.2-1.2-1.7-1c-9.9,3.4-38-1.6-24.9-15.8c4.8-4.9,13.1-7.6,19.9-6.7s12.3,5.5,11.4,15
	c2.6-4.3,9.1-3.9,13.4-5.8h0.1c1.1-0.2,8.4-0.6,13.5-0.8c1.4-8.7-4.4-18.5-10-25.4c-3.8-4.9-7.4-10.1-10.5-15.4
	c-1.9-3.3-3.6-6.8-5.1-10.3c-3.8-9.4-6.9-11.1-16.8-9c-5.1,1.8-13.4,3.7-13-3.7c0.3-5.5,5.5-2.7,8.5-4.9c-14.5-7.5-60.2-7.9-71,6.2
	l-3.7,4.5C114,182,102.9,197,95.7,214c-5.6,12.2,3,16.2,3,25.1c3.2,4.8,10.9,6.8,15.6,10.3c5.3,5.2,13.7,6.9,16.1,14.6
	c2.5,6.4,2.5,14.8,5.4,20.8c9.9,5.8,20.9,11.8,32.3,13.4C160.7,272.2,152.6,287.6,152.8,278.9z M222.2,187.5
	c0.9,1.3,1.7,2.8,2.6,4.3c4.5,6,3.3,16.6-2.4,20.6c-3.9,3.5-8.6,2.3-13.3,1.7c-1.3-0.2-2.5-0.3-3.8-0.3
	C183.1,210.9,196.4,148.3,222.2,187.5L222.2,187.5z M160.6,215.3L160.6,215.3c-8.9,2.3-20,1.5-26.6-5.6c-1.6-1.9-2.5-4.7-6-3.7
	c-0.2,0-1.6-2.6-1.3-3.8c2.9-15.4,13.9-26.5,28.4-26.5c3,0,6.1,0.5,9,1.3C174,187.6,178.9,211.3,160.6,215.3L160.6,215.3z
	 M125,174.2c0.7-1.7,1.6-3.3,2.6-4.9c7.2-10.1,20.9-11.6,32.4-12.4c4.4-0.3,6.2,4.7,9,7.4c-4.1,2.7-9,3.3-14.1,3.3
	c-11.1,0-22.9-2.3-27.7,9.4C124,177.8,124.6,175.7,125,174.2z M145.1,433.6c-3.1-4-8-3-12.4-3.8c-10.3-1.7-19.7-6.7-26.9-14.3
	c-8,11,2.5,18,10.1,24.3c5.9,5.9,12.8,10.6,19.7,16.2c7.2,5.2,14.4,10.3,21.6,15.4c0.4,0.2,1.6-0.3,1.6-0.5
	C159.4,445.5,164.4,450.9,145.1,433.6z M150.5,579.2c5.2-6.5,1.1-16.6,1.9-23.8c0.6-3.2,1.3-6.3,2-9.5c-5.6-0.2-19.6-10.6-24.3-11.8
	c-0.9-0.4-2.6-0.5-2.8-0.3c-1.9,4.9-5.1,2.2-8,1.2c-10.9-3.5-21.8-7.1-32.8-10.8c-1.7-0.6-2.3-1-1.8,1.6c1.1,5.8-0.2,6.3-6,5.1
	c-8.1-1.6-16.2-2.5-24.3-3.7c-3.2-0.3-8.6-2-10.6,1c-0.4,6.1-5.6,4.5-9,5.8c-6.8,3.2-15.2,4.6-21,9c0.7,0.5,1.4,0.9,2.1,1.2
	c1.2,0.4,2.5,0.8,3.7,1.2c-3.2,2.4-8.4,1.9-10.2,5.9c14.9,5.6,1.6,8.9-2.4,16.3c4,0.8,10-2.6,12.4,2c-0.3,3.8-6.4,5.3-7.4,9
	c5.4,0.5,11.2-2.6,15.2,2.6c-1.1,1.6-2.4,3-3.7,4.4c-1.5,1.1-3.1,2.1-4.7,3c7,5.5,15.6,8.7,24.5,9.1c0.9,0,1.7,0.9,2.5,1.5
	c-2.8,3.7-8.3,1.9-11.7,4.6c5.8,3.5,13.9,1.2,20.3,3.8c-3.2,2.6-7,4.4-11,5.4c5.9,5.2,23.7,4,32.1,5.6c16-1.1,26.8-4.4,6.9,10.1
	c14.8,7.1,31.6,8.5,47.4,4.1c6.4-0.8,11.6-36.4,14.7-43.8C145.6,585.2,147.6,581.8,150.5,579.2z M147.7,722.7c0.3-1.9,4-10.1,4.2-12
	C138.3,721.7,144.3,725.2,147.7,722.7z M126.2,160.3c1.6-1.8,5.2-3.1-0.5-4.8c-9.8-3.1-19.2-7.5-28.9-10.9
	c-7.8-1.8-30.1-10.8-33.9-1.8c21.6-0.7,33.5,18.2,51.2,27.3C119.2,171.6,122.3,163.1,126.2,160.3z"/>
<path class="st16" d="M415.7,687.5c5.4-4.8,10.4-10.5,5.8-17.1C419.2,677.2,412.7,683.8,415.7,687.5z M402.4,685.7
	c0,0.1,0.6,0.8,0.9,0.8c5.9,0.2,20.2-16.3,9.3-17.6c-2.9,1-7,3.9-10.3,5.4C404,677.9,404.1,682.1,402.4,685.7z M389.7,698.4
	c-6.6,0.9-11.4,5.8-17.4,8.1c-0.9,0.5-1.7,1.1-2.4,1.8c5.4,3.2,29.5-6,32.9-11C398.5,696.1,394.3,697.8,389.7,698.4z M393.5,689.6
	c1.9-2.2,4.1-4.1,5.5-6.5c0.9-1.6,0.7-3.8,1-5.7C389.8,679.8,368.6,701.5,393.5,689.6z M219.9,237.4c-0.1,0.3-0.1,0.5-0.1,0.8
	c0.2,10.6-12.3,20.9-21.9,23.2c-6.3-0.2-18.1,3.2-22-2.5c4.8-2.1,10.4-0.6,15.5-1c6.6-0.3,13.8-3,18.1-7.6
	c-13.2-10-47.8,9.1-65.2-18.5l-0.3-0.4c-5.1-0.6-10.1-1.3-15.1-2.4c-0.8-0.1-1.3-0.9-1.9-1.5c-0.9,0.8-1.8,1.7-2.6,2.6
	c-2.2,3-4.1,5.6-6.2,8.3l-0.1,0.1c7.2-1.8,22.5,14.7,27.3,17.9c3.9,3.7,6.1,9,9,13.6c4.3,10.2,13.6,8.7,15.7,23.6
	c1.8,9.6,12.9,13.6,17.2,22c2.2,3.7,3.4,6.5,8.3,4.3c0,0,0.1-0.1,0.2-0.1c-0.4-8.3,8.3-17.2,8.2-25.4c0.6-7.2-3.4-14.9,2.8-21.4
	c0.6-0.8,1-1.8,1-2.9c-1.1-9.3,9.1-12.6,14-17.4c3.6-9.1,13-11,19.4-16.6c2.3-1.8,4-4.2,5.1-6.9
	C237.2,231.3,221.2,231.9,219.9,237.4z M226.3,165.9c-1.8,2.7,1.1,19.2,4.5,12.7c-1.7-10.7-0.2-22.6-3.9-32.6
	C223.4,151.8,227.2,159.8,226.3,165.9z M80.4,150.2c-4.1-1.7-13.7-2-18.1-5.1c-0.1,1.5,0.1,3,0.5,4.5C70.3,170,83,188.1,93.5,207
	C123.1,158.7,115.3,184.1,80.4,150.2z M67.5,149.6c1.7,0.6,3.2,1.4,4.6,2.5c3,1.6,4.7,2.9,4.8,6.9c0.2,4.6,5.2,8.9,6.3,13.7
	C75.3,170.7,70.6,156.8,67.5,149.6z"/>
<path d="M853.1,495.6c-0.4,0.2-0.8,0.5-1.2,0.8c-3.6,2.7-6.7,6.4-9.9,9.6c-1-1.2-1.7-2.7-2-4.2c-3.1-8.7-11.3-2.3-11.8,4.2
	c0.7,14.6-71.3-14.9-81.4-16.5c2.9-3.5,7.6-2.1,11.5-2.9c7-0.9,14-1.7,21-2.5c14.2-1.5,28.3-4.8,42.5-5.8c6.2,0.2,13-2.7,18.6,3
	c1.2,1,2.8,1.5,4.4,1.5c2.5,0,5.1-0.9,6.1-2.4c5.4-8.2-7.6-11.2-4.5-18.6c2.3-5.9,4.1-11.8,6-17.8c1.3-4.3-0.8-9.4-4.2-9.8
	c-4.7-0.3-5.3-6.4-10.2-6.8c-12.5-1.1-6.7,8.5-12.5,13.2c-5.9,4.2-1.8,11.8-1.8,17.6c0.9,6.4-5.5,5.1-9.6,5.4
	c-24-0.8-48.2,0.3-72.2-0.6c6.6-4.7,11.3-16.2,14.4-22.1c6.1-15.1-2.8-17.8-10-28.2c-12.7-27.3-14.6-3.9-0.2-37
	c4.9-20-17-10.3-26-5.4c-10,5.5-11.7-30.9-40-22.2c-7.2,2-14,5-20.4,8.8c-11.6-11.6-32.5-26-48.9-24.3c-9.2,1.8-19.7,3.1-28,7.8
	c-18.7,12.7-18.1,29.1,0.9,41.2c-19,0.3-38.5,0.2-55,11.1c-13.9,8.8-30.8,26.5-22.1,44c13.4,16.8,36.1,9.3,54.4,9.4
	c8.9-0.2,17.8,0.3,26.7-0.2c10.9,1.2,25-10.9,32.2,1.7c13.8,10.5,32.3,2.4,32.8,8.1c0.2,3.9,6.9,10.8,2.5,12.9
	c-5.4,3.5-10.8,9.1-17,11.1c-19,0.4-37.1-8.9-55.4-13.5c-12.2-3.1-12.5,16.4-14,24.4c-0.5,4.6-1.5,5.9-5.2,5.4c-8.5-1.1-17-2-25.4-3
	c0.6-8.3,8.7-13.5,12.2-20.8c0.9-1.5,1.2-4.5-1.6-3.1c-5.7,3.8-11.3-0.5-16.7,1.4c-8.5,5.1-19.8,15.8-13.5,26.5
	c-16.2,6.3-27.1,21.2-32.9,37.2c-0.3-3.9-3.2-9-3.8-12.5c-4.3-9.2-4-32.9-19.5-24.8c-15.3,8.2-28.6,19.7-43,29.3
	c-6.7,6.3-18.6-4-18.5,10.4c-0.1,2.6,1.3,5.4-1.6,7.6c-0.8,0.6-0.8,3.1-0.3,4.4c1.3,5.4,6.4,8.9,11.9,8.2c-0.2,4.2,5.5,8.3,8.9,4.7
	c11.4-11.3,22.4-22.7,34.4-33.4c3.7-4.1,6.6-2.1,7.8,2.3c2.2,9.4,6.8,19.8,0.3,28.7c-9.1,12,5.4,19.4-11.7,24.9
	c-8.2,2.8-35.4,24.6-40.7,15.7c-3.1-3.4-6.9-2-9.7,2.1C387,620,371.7,642.3,348,646.1c-4.7,1.3-5.6,3.9-4.3,6.8
	c3.5,7.5,22.6,16.7,29.9,9c0.3-0.3,0.5-0.6,0.8-0.9c21.2-26,42.8-45.3,77.9-48.9c2.4-0.2,5.2-0.2,7.1,1c10.3,6.8,25.8,2.2,34.6-5.3
	c17.8-8,34.8-17,49.4-30.1c8.3-5.1,12.8-15.2,21.6-19c5-1.8,10.2-3.5,15-5.8c6.2-2.8,6.1-3,10.9,1.8c3.9,4.3,10.6,3.8,18.1,1.6
	c-0.4,0.9-0.7,1.8-1,2.7c-1.9,6.5,3.7,17.3,12,15.9c12.1-3.2,16-18.5,24.5-26.7c4.6-6.4,11.7-9.1,18.8-11.5
	c16.1-6.5,30.9-15.6,44-27c6.7-7.4,15.7,0.2,23.6,1c31.6,7.6,64,12.3,95.5,20c8.9,3.5,28.9,4.9,30.5-6.9c-0.2-6.6,5.5-6.1,5.6-17.5
	C867.4,499.2,859.8,491.9,853.1,495.6z M828,444.3c2.8,2,4.3,4.9,7.5,6.5c2-6.2-7.3-15,0.6-19c7.8,0.6,1.2,10.5,5.6,14.6
	c2.6-2.8,2.3-6.9,4.7-9.7c5.1,5.4-3.8,21.3-4.8,28.5c-2,6.8,6.5,5.2,5.5,12.2c-1.2,0.2-3,0.9-3.6,0.3c-3.9-2.9-9.4-3.9-15.7-4
	C830.4,464.6,824,452.4,828,444.3z M787,468c12.5-0.4,23.9,1.4,35.6-2c2.7-1,1.9,0.2,2.2,1.6c0.3,1.2,0.6,3.8,0.9,6.1
	c-13.6,0.3-29.9,4.5-40.3,4.5c-4.4,0.8-2.6-3.1-3-5.7C781.6,468.5,783.4,467.2,787,468L787,468z M776.4,468
	c3.4,0.9,1.7,7.5,2.4,10.5c-18.8,4.9-39.9,5.6-59.3,9.7c-14.6,3.1-31.4,2.2-44.8,8.2c3,3,7.6-1.1,11,1c-1.8,4-11.3,5.2-13.7,3.8
	c-5.8-3.9-10.1-11.9-8.1-16.8c3.7-6.2,5.4-18.7,14-19c19.7,0.3,39.4,0.3,59.1,1.6C751,467,763,467,776.4,468L776.4,468z M670.6,504
	c-1,0.4-2,1.3-2.9,1.2c-3.7-0.4-7.4-1.1-11.1-1.6c-10.7-6.2,3.1-37.7,13-36.2C658,477.9,654.2,496.2,670.6,504z M743.3,434
	c-0.3,0.8-1.2,1.7-1.9,1.7c-11.1,0.3-17.5,9.9-25.5,16.2c-1.3,2.9-3.7,4.7-2.5,7.5c8.6-8.8,8-9,20.8-4.9c-3.8,0.5-9.4,0.2-12.3,2.5
	c-5.2,5.6-14.2,5-22.9,4C713.9,438.5,731.6,421.7,743.3,434z M741.7,426.9c5-1.8,5.2,1.4,5.4,5.1
	C745.9,430.3,742.9,428.7,741.7,426.9L741.7,426.9z M733.7,443.4c1.3-1,11.1-6,8-0.9C739.2,443.8,736.6,445.5,733.7,443.4
	L733.7,443.4z M735.6,449.9c-1.2-0.2-2.5-0.4-3.7-0.5c-2.1-0.4-4.3-0.9-6.3-1.5c0.9-0.9,2.2-2.7,2.6-2.5
	C730.6,446.5,735.2,447.1,735.6,449.9L735.6,449.9z M753.3,430c1.7,11.4-9.6,23.1-14.9,32.8c-6.2-0.3-12.4-0.7-18.6-1.4
	c4.8-3.2,12.9-1,17.5-4.2c1.7-10.2,12.3-11.1,10.8-21.6C749.7,433.9,751.8,431.5,753.3,430z M748.4,425.3
	c-5.3-0.3-10.6-1.1-15.7,0.3c0.8-1,1.6-2,2.3-3c0.3-0.4,0.7-0.8,1.2-1.2C740.2,418.9,749.1,420.1,748.4,425.3L748.4,425.3z
	 M737.9,405.3c0.7,0.5,1.1,1.2,1.2,2c-6.1,2.3-5.4-1.6-7.4-6.1C733.7,402.6,735.9,403.9,737.9,405.3z M703.3,361.6
	c3,2.4,5.3,5.6,7.9,8.5c2.4,3.7-5.6,2.7-7.9,3.7c-3.7-2.6-5.3-8.4-5.9-12.9C699.5,361.1,702,360.6,703.3,361.6z M701,374.4
	c-0.3,0.2-0.7,0.2-1.1,0.4c-2.5,0.9-5.2,1.7-7.7,2.6c-1.8,0.2-2.8,0.3-3.7,0.5c0.9-2.6,3.4-3.1,5.3-4.7
	C696.6,370.4,698.8,373.4,701,374.4z M701,354.8c-1,1.1-2.5,1.6-4,1.3c-13.1,3.2,3,12-6.5,14.6c-7.1,4.4-14.2,9.9-23,10.8
	c-12.8,1.6-20.8,9.4-29.3,17.2c-3.3,6.4-8.3,0.9-6.6-4C636.8,373.2,680,342,701,354.8z M578.1,371.5c-4.8-3.9-5.7-14.5-2.6-17.4
	c6.2-5.6,10.8-13.3,20.6-14c5.4-0.3,10.8-2.7,16.2-3.4c16.7-2.5,31.1,15.8,45.5,21.2c-5.2,3.3-10.1,7.1-14.5,11.5
	c-4.6,2.6-12.8,20.5-17,17.5C610.8,379.2,590.1,386.5,578.1,371.5z M628.1,394.3c-1.1,0-2.4,0.3-3.3-0.1c-5.3-2.1-10.5-4.5-15.8-6.7
	c5.9-2,11.4,1.3,17.2,3C627.3,390.8,627.6,393,628.1,394.3L628.1,394.3z M626,398.5c2.5,1.6,3.1,3.5,5,5c2,0.8,2,0.7,0.5,3.1
	c-1.7,2.5-3.4,5.2-5.2,7.6c-0.3,0.3-0.9,2.7-1.9-0.2c-4.9-6.4-12.8-11.4-18.3-17.6c-7.7-8.2-19.2-7-28.9-10.5
	C594.3,381.1,610.5,393,626,398.5L626,398.5z M617.5,432.4c-1.2,2.5-0.2,6-2.8,6.7c-9.2-2.9-18.1,2.9-27.4,2.5
	c-18.7-0.3-37.4,0.3-56,1.6c-13,0.2-24.2-6.5-21.3-20.9c-0.9-7,6.6-8.1,8.5-13.7c4.1-11.5,16.9-13.5,26.4-18.8
	c15.5-6.4,33.5,2.8,49.5,4.7c9.5,3.4,16.5,12.4,24.3,18.7c1.8,1.5,4.6,2.8,4.9,4.6C622.7,422.2,618.9,427.5,617.5,432.4L617.5,432.4
	z M630.5,447.5c-29.2-4.6,14.6-52.5,27-58.1c12-5.8,26.3-6.5,39.4-9.1c13.2-3.9,26.6-5.2,38.5-12c1.3-0.9,4.4-0.3,5.8,0.6
	c3.2,8.8-7.8,17.8-7.4,27c-5.7-1.8-4.7-11.2-10.6-11.4c-29.8,11.1-62.3,27.1-70.3,60.8C648.5,453.9,637.5,448.7,630.5,447.5
	L630.5,447.5z M711.5,426.4c-4.3,4.4-19.8,0.6-22.9-3.8c-5.9-10.5,8.4-23.1,18.8-18.2C724.9,416.5,707.2,413.3,711.5,426.4
	L711.5,426.4z M656.1,446.2c3.5-10.9,9.3-22.1,18.3-29c-0.4,2.8-1,5.6-1.8,8.4c7.6-4.3,4.5-15.5,12.7-18.6
	c-13.7,27,23.5,29.5,35.8,21c3.3-2.3,4.8-5.3,3.2-8.8c-3.5-11.1-11.8-19.1-23.3-21.5c6.2-3,14.5-7.3,21.2-8
	c9.4,7.9,2.8,15.9,13.6,26c1.5,2.1,1.8,2.4-1,3.2c-2.1,0.7-3.8,2.3-4.7,4.3c-0.5,1.9-2.6,3.5-5.4,5.3c-7.4,4.8-20.2,12-26.6,32.4
	c-4.7-0.5-9.2-1-13.1-0.6c-6.9,0.7-13.8,1.8-20.5,3.4c-3.1,0.8-4.2,0.2-5.1-2.5C657.8,456.5,654.4,451.6,656.1,446.2L656.1,446.2z
	 M565.5,499.5c4.8,0.8,4.1,16.6,5.9,21.1c-0.4,2.4-3.8,1.1-5,0.2c-0.7-0.7-0.7-2.2-0.9-3.3C565.8,512.1,561.7,502.3,565.5,499.5z
	 M533.8,474.5c2.6-1.3,2.4,0.1,2.3,1.9c-2.3,1.3-5.4,3.1-5.8,3.4c-0.8,0.7-1.5,1.6-2.1,2.5c0,1.4-3.3,6.3-5.8,10.3v-0.3
	C521.5,483.9,526.2,477.3,533.8,474.5L533.8,474.5z M537,479c0.9-0.8,2.3-1.5,3.1-2.1c1.3-1,2.7-1.9,4.2-2.6
	c-2,5.8-8.7,8.1-9.4,14.7c0.4,7.4-7.5,5.8-12.9,6.9C526,491.8,533.8,484,537,479z M547.7,502.5c0.1,6.9,1.3,13.8,2.5,20.7
	c-3.3-0.7-8.2,0.2-10.8-0.1c-11.2,0.1-22.1-3.6-30.8-10.7C499,504.9,551.3,489.7,547.7,502.5L547.7,502.5z M463,501.5
	c4.8-2.8,7.9-2.3,9.1,3.1c-3.5,1.3-8.1,0.1-11.5-1.4C461.3,502.6,462.1,502,463,501.5L463,501.5z M432.7,543.5
	c-5,5.3-10.3,10.3-15.5,15.6c-1.5,1.9-3-1.1-4.6-2.6c3.1-0.8,5.9-2.6,7.9-5.2c-6.2,0-18.9,3.7-17-6.6c6.9,2.4,15.2,5.7,21.3-0.1
	c-1.6-0.4-3.3-1.6-4.5-1.2c-6.3,2.7-18-2.2-14.8-9.7c4.4-3.1,10.8,2.2,14.6-3c1.3-1,3.7-3.1,5.4-2.6
	C427.6,533,434.5,538,432.7,543.5L432.7,543.5z M453.6,522.6c-4.8,4.7-9.8,9.1-14.5,13.8c-2.2,2.3-3.5,0.6-4.9-1.1
	c-6.9-10.2-6.9-10.6,5.6-19c4.8-3.3,9.6-6.6,14.6-9.6c5.5-2.8,8,4.8,14.1,2.7c3.3-0.4,4.9,0.8,5.9,4.1c1.3,6.7,7.5,12.5,5.1,19.6
	c-3.2,1.1-8.9,8.1-10.5,6.3C466.2,532.6,465.5,512.5,453.6,522.6L453.6,522.6z M467.3,560.3c1.1,7.9,2.4,16.7,0.6,24.6
	c-0.8-0.9-1.7-1.6-2.4-2.5c-0.3-0.4-0.6-0.8-0.9-1.3C462.4,573.6,461.1,565.6,467.3,560.3L467.3,560.3z M408.8,603.6
	c0.5,1,1.3,2.2,1.3,3.2c-0.3,1.4-0.7,2.7-1.3,4c-1.6,3.3-3.5,3.2-6.5,3.8C404.1,610.7,404.7,605.6,408.8,603.6L408.8,603.6z
	 M399.4,611.6c-6.3,9.1-12.6,19.4-20.7,26.8c-1.2,0.1-2.5,0-3.7-0.3C383,629.3,390.4,619.2,399.4,611.6L399.4,611.6z M368.2,659.5
	c-3.9,2-7.4,0.9-10.8-1c5,1.2,11.5-3.7,10.3-9.1c-1,0.2-2,0.6-2.9,1.2c-1.5,1.2-2.6,2.5-4.3,3.9c-1.7,0.7-3.3,1.8-4.6,3.1
	c-0.3-0.2-0.5-0.3-0.8-0.5c-7-5.9,7.6-10,11.2-13.2c3.3-1.9,6.2-3.6,9.3-0.8C384.3,649.3,373.8,655.9,368.2,659.5L368.2,659.5z
	 M434,612c-21.2,5.3-37.6,17-51.7,33.3c-0.3-1.6-1.3-3.4-0.9-4.6c0.7-1.6,2.6-2.8,4-4.1c5.7-5.5,10.9-16.7,17.4-19
	c5.2,1.5,8.3-0.9,10.3-6.5c2.4-6.8,10.8-7.2,16.4-10.2c3.7-1.6,5.8-0.7,7.2,3.2C438.5,609.1,437.9,610.7,434,612z M436.1,597.4
	c0.6-0.8,1-1.9,1.9-2.3c3.5-2.2,7.3-4.1,11-6c4.1-2.9,7.7-4.6,11.2-7.4c1,2,3.1,4.5,0.2,6c-5.2,2.4-10.4,4.8-15.5,7.3
	C441.9,596.6,439.6,599.8,436.1,597.4L436.1,597.4z M475.3,611.7c-4.1,0.8-8.5-0.3-12.7-0.6c-11-6.2,20.7-9.8,24.3-6.8
	C493,605.7,476.9,611.5,475.3,611.7L475.3,611.7z M487.8,601c-7.1-5.1-26.7-2.7-31.1,5.7c-2.8,2.4-12.7,4.6-14.9,0.3
	c-2.1-4.7-0.1-6.5,4.7-8.1c9-2.5,17-11.6,26.9-9.6c19.5,3.7,37.9-8.5,53.1-19.3c4.6-3.4,7.4-7,13.7-6.5c5.3,0.5,10.8-2.1,15.9-1.1
	C541.9,571.7,503.3,608.5,487.8,601z M538.5,559.5c-5.3-3.5-7.1,2.2-10.4,4c-14.8,10.8-30.4,21.7-49.6,22.3
	c-8.4,2.3-4.8-9.9-6.3-14.8c-1.9-8.1-4.1-15.8-2.5-24.1c-0.3-5.9,10.5-6,15.2-9.9c-1,3.1-1.8,6.2-2.5,9.3
	c-0.9,8.7-7.4,18.3-4.6,26.7c4.9-2.7,3.8-9,5.5-13.7c4.7-16.4,7.8-36.3,22.1-47.2c0.2-0.3,0.3-0.5,0.4-0.8c0,0.4-0.1,0.7-0.3,1
	c8.4,15.2,27.2,15,42.3,14.2c0.9-0.2,1.9-0.5,2.7-0.9c0.5,2.9,1,5.8,1.4,8.7c1.1,5.8,0.7,17,4.8,22.8
	C550.6,558.1,544.3,558.4,538.5,559.5L538.5,559.5z M558.8,548.3c1.8-4.2-1.5-7.5-1.8-11.3c-0.7-7.8-1.9-15.6-2.9-23.3
	c-0.4-2.9-6.1-16.5-1.2-15.2c2.4,0.3,6-1.8,6.8,2.8c-1.5,16.1,6.1,31.2,9,46C565.7,547.6,561.2,550.4,558.8,548.3L558.8,548.3z
	 M575,549.3c0,0-0.1,0-0.1,0c-2-6.1-4.9-13.5-6.7-19.3c-0.4-1,0.6-2.5,1-3.7c7.8,1.5,8.3,10.9,12.4,16.5
	C586,548.5,579.5,548.7,575,549.3L575,549.3z M605.3,552.3c-5,1.2-9.7,3-12.9-2.6c-3.5-6-8.3-11.2-11.8-17.2
	c-9.3-17.7-10.2-39.6-4.1-58.3c1.2-7.9,13.9-4.9,10.2,3.2c-5.2,21.1,3,59.7,22.2,73.3C607.7,551.2,606.5,551.7,605.3,552.3
	L605.3,552.3z M610.7,555.7c11.2-3.7,23.9-10.5,31.6-10.5C631.1,554.7,617.6,585.3,610.7,555.7L610.7,555.7z M639.2,540.1
	c-8.9,4.4-19.1,6.4-28.5,10c-14-20.5-26.1-48.9-19.8-73.6c-0.8-7.4,32.1,7.8,38.5,7.3c14.9,4.3,16.6-5.7,27.5-11.2
	c-1.1,4.7-5,8.3-6.6,12.8c-5.3,9-2.4,23.8,10.3,24c20.5,1.7,28.8-14.7,37.9-13.9C681.9,513.7,661.2,528.9,639.2,540.1L639.2,540.1z
	 M681.7,522.8c-6.6,4-13.7,8.7-21.3,10.7c12.7-10,27.3-18.1,37.3-31.3c2.8-4.2,5.2-9.5,10.9-7.8
	C703.9,508.5,693.3,515.9,681.7,522.8L681.7,522.8z M707.9,502.3c0.2-0.4,0.2-1,0.3-1.3c1.6-2.7,3.2-5.4,4.7-8.1
	c1.1-0.2,2.1-0.3,3.2-0.2C713.9,496.2,711.7,500.9,707.9,502.3L707.9,502.3z M767.9,514.6c-17.4-3.7-34.9-7.5-52.5-10.9
	c-1.8-0.4-1.8-0.3-0.7-1.6c4.1-11.7,14.5-12.1,25.2-12.9c7.9,1,14.4,8.2,22.4,10c8.7,3.3,17.8,6.1,26.7,9.1
	C793.1,524.2,776.6,515.6,767.9,514.6L767.9,514.6z M815.8,523.9c-7.5-1.7-14.6-3-21.7-4.3c-3-1.3-0.8-5.9,0.3-7.9
	c4.2-3.4,10.6,0.9,15.5,1.1c5.4,1.2,11.3,0.7,16.5,2.5C819.8,519.3,825.8,525.2,815.8,523.9L815.8,523.9z M858.8,503.6
	c-2,4-6.9,5.6-8.2,10.1c1.3-0.2,2.5-0.3,3.8-0.4c1.1-0.2,2.2-0.5,3.4-0.8c-1.5,5.8-8.2,4.2-11,8.6c0.7,0.6,1.5,1.9,2.2,1.9
	c5-0.1,3.3,1.8,1.2,3.9c-5.9,2.8-27,3.8-23.6-6.2c5.7-5.2,3.8-13,7.9-18.7c4.4,2.4,3.2,7.6,6.3,10.9
	C844.2,511.1,860.3,491.1,858.8,503.6L858.8,503.6z M702.9,442.3c2.5-1,3.5-2,0.2-3.3c-2.4-0.9-4.1-3.7-7-3c0,0.7-0.3,1.7,0,1.9
	C698.3,439.4,700.5,440.8,702.9,442.3z M697.7,446.4c2.4-2.1,2.5-2-0.8-4c-4.7-1.5-2.2,4.2-5.1,4.9c0,0.3,0.4,2.8,0.5,4.1
	C695,451.2,695.7,447.7,697.7,446.4z M525.7,427.3c0.6-0.9,1.2-1.9,1.6-2.9c1.4-6,4.1-11.6,7.9-16.4c2.4-1.5,3.8-4.1,3.7-6.9
	C530.6,402.3,520.6,420,525.7,427.3z M531.2,430c2.2-1.7,2.9-6.3,0.6-8.4C531.1,423.4,526.1,433.3,531.2,430z M386.1,662.2
	c-1.5,1.2-2.9,2.6-4.1,4.1c-10.7,8.2-14.5,21.7-25.9,29.2c-12.7,8.5-19.7-22.2-25.2-41.4c-1.6-5.7-3.1-10.3-4.5-12.7
	c-8.4-24.6-17.7-49.5-28.8-72.7c-6.9-6-5.4-10-5.1-18c-5.8-19.5-12.2-38.7-18.6-58c-4.1-12.2-8.7-24.1-12.5-36.4
	c-1.6-5.2-5.2-10.3,0.6-16.2c5-6.2,42-46,33-50.7c-23.8-18.9-33.3-50.6-53.8-72.5c-14.1-13.8-18.5-18.3-19.2-39
	c0.1-5.4,5.6-10.6,0.4-16.1c4.1-10,10.1-17.4,20.2-21.8c5.2-3.5,7.8-8,8.4-13c0.5-0.3,0.8-0.7,1.1-1.1c-0.3-0.1-0.7-0.1-1-0.1
	c0.9-10.8-6.2-23.2-13.1-31.3c-6.8-8.6-6.1-7.6-4-18c-1.7-8.9,1.4-46.4-11.5-44.6c-8.3,3.2-20.7,10.9-25.8,18.9
	c-19.6-6.5-42.1-4.8-61.3,2.8c-7.9,3.4-19.3-7.8-27.7-9.6C23,112.2,68,169.3,90.6,208.7c0.7,1.3,1.6,2.9,1.1,4
	c-4,11.3-0.3,21.5,3.7,32c8.6,3,15.6,8.5,23.1,13.2c10.4,5,10.6,17.3,11.4,27.4c0.2,2.1,0.4,3.4,2.8,4c8.4,3.3,6.5,15.8,7.6,23.3
	c-0.6,11.1-9.8,19.5-13.2,30.1c-6.4,26.1-15.2,51.8-27.3,76c-4.6,10.9,2.5,16.9,10.6,22.2c6.6,5.5,12.9,11.5,19.8,16.6
	c8.2,7.1,21,11.1,27.6,19.5c-0.2,6.1-0.9,12.1-1.1,18.1c-0.7,10.7,0,21.3,1.9,31.8c-0.8,4.3-1.7,8.5-2.7,12.8
	c-1.1-2.9-3.5-5.7-6.2-5.5c1.6,13.7-2.7-0.3-16.2-3.7c-11.1-6-8.7,0.7-14.6-0.5c-10.1-3.2-20.2-6.6-30.3-9.8
	c-7.1-2.2-8.6-1.1-8.6,6.2l0.8,0.5c-5.4-1.3-49.5-10.4-42,2.1C22.3,531.2,6,540,4.7,558.4c2.1-1.6,4.7-2.6,7.3-2.8
	c-2.1,6.6-9.5,9.4-12,15.9c4.3,0.3,8.6,0.1,12.9-0.7c-0.8,1.2-1.9,2.3-2.3,3.5c-0.7,2.8-1.3,5.7-1.7,8.6c4.3-0.1,8.3-1.5,12.5-1
	c-17.4,10.4,3.4,13.6,11.8,18.5c-1.3,0.5-2.5,0.9-3.7,1.5c-1,0.7-2,1.4-2.9,2.2c3.8,4.6,10.7,3.5,15.3,6.8c-0.4,0.4-0.9,0.8-1.4,1
	c-1.8,0.7-3.6,1.2-5.4,1.7c14.6,10.4,33.4,9.2,50.6,8.7c-1.8,1.1-3.7,2.1-5.4,3.2c-1.2,0.6-2.4,1.5-3.6,2.2
	c10.2,12.2,43.4,16,55.7,5.7c-0.7,9-4.4,19.2,1.2,27.3c8.5,12.4,18.7,23.7,26.9,36.4c2.7,2.3-2.4,5.1-6.5,8.7
	c-2.9,1.2-12.1,10-12.1,10.1c-6.6,13.2,0.7,12.5,11.4,12.3c5.6,0.4,12.1,3.1,16.9,1.2c7.1-2.7,13.6-0.4,20.3-1.1
	c8-0.9,15.9-1.3,23.9-1.8c4.1-0.2,5.9-0.8,6.6-3.3c-0.3-2-0.7-4.1-1.2-6.1c-0.6-2.1-1.3-4.2-2.2-6.3c-2.4-2.8-4.2-6.9-6.3-9.6
	c1.4-7.1-4.5-10.7-7.5-15.5c-6.9-7.4,4.4-16.1-3.9-20.3c2.3-14.2,15-26.1,26.3-34.7c11.3-5.8,21.5,6.8,30.5,12.1
	c20.3,16.3,33.1,39.3,43.5,62.7c6.5,14.4,16.4,1.2,20.4,7.5l0.5,0.3c1.9,1.8,2.6,4.2,3.2,6.7c1.6,2.2,2.1,5,3.9,7.2
	c1.5,1.9,3.3,3.6,5.4,5.1c2.2,0.1,4.5,0.1,6.7-0.2c3.3-0.4,6.5-1.2,9.5-2.4c1.3-0.5,2.7-0.9,4-1.3c9-5,18.3-9.2,28-12.6
	c1.4-1.3,2.9-2.4,4.5-3.3c1.1-0.6,2.2-1,3.4-1.3c0.7-1.1,1.8-1.9,3.1-2.3c12.2-3.7,18.6-14.8,28.7-21.3
	C442.4,673.3,406.3,646.4,386.1,662.2z M403.2,686.5c-0.3,0-0.9-0.6-0.9-0.8c1.7-3.6,1.7-7.9-0.2-11.4c3.3-1.6,7.4-4.4,10.3-5.4
	C423.4,670.1,409.1,686.7,403.2,686.5L403.2,686.5z M389.8,663.8c6.4-1.5,14.6-5.2,18.6,2.4c-1.7,0.9-6.2,2.7-8.1,5.1
	c-2.7-3.8-7.3-4-10.9-5.8C389.2,665,389.4,663.8,389.8,663.8z M399.9,677.3c-0.3,1.9-0.1,4.1-1,5.7c-1.4,2.4-3.6,4.3-5.5,6.5
	C368.6,701.5,389.8,679.8,399.9,677.3L399.9,677.3z M288.5,563.3c0.3-0.6,1.2-0.9,1.8-1.3c0.3,0.9,0.4,1.9,0.7,3
	c-0.9,0.6-2,1-3.1,1.2C288,565.2,288.2,564.3,288.5,563.3L288.5,563.3z M291.5,393.2c-0.9,3.7-3.1,7.2-5.3,10.3
	c-9.7,12.2-18,26.1-29,37c-1.9-7.2-1.2-14.9-1.8-22.3c0.3-3.2-1-6.9,1.2-9.6c3.3,1.6,1.9,5,2.2,7.9c3.9,6.1,6.2-9.2,1.3-11.3
	c-1.3-0.3-2.5-0.8-3.7-1.5c1.4-0.6,2.6-1.8,3.9-1.8c12,1.3,18.8-7.7,24-17C285.7,387.7,291.4,391,291.5,393.2L291.5,393.2z
	 M255.8,344.4c2.1,3.4,4.2,6.8,6.3,10.2c4.1,9.7,24.5,25.9,15,35.1c-4.3,6.2-14.6,9.7-21.4,7.8c-2.5-10.7-1.9-24-3.7-35.2
	c-0.9-4.5-0.4-9.7-2.8-13.7c-0.4-0.6-0.8-1.1-1.3-1.6c-2.5,9.6,1.3,20.2,1.4,30.2c0.3,3.5,0.6,6.9,0.9,10.4
	c1.1,13.5,1.7,27.1,1.7,40.7c4.9,42,26.3,80.9,35.4,122.1c1.4,18.7-21.8,27-36.8,30c-6.6-1-9.4-21.6-12.8-27.8
	c-2.7-6.7-5.1-12.9-7.3-19.3c-0.7-1.6-1-3.4-0.7-5.2c2-6.7-0.6-13.1-1.4-19.6c-4.8-30.7-8.6-61.4-14-92c-1.6-11.4-3.1-22.7-4.8-34.1
	c-1.6-10.5-3.3-20.9-5.5-31.2c-2.6-9.8,2.8-18.8,2.1-28.5c-0.2-2.8,3.2-5.8,4.8-8.8c4.1,1.6,3.1,7.1,5.2,10.5
	c10.6,19.6,9.8-3.9,13.5-12.3C240.1,321.5,248.3,332.8,255.8,344.4L255.8,344.4z M214.6,532c-4.5-4.5-12.9-6.1-15.1-12.5
	c-0.3-3.1-0.8-6.2-1.4-9.4c6,6.2,16.4,11.2,21.8,16.1c1.2,0.5,3.8,2.5,5.4,3.5c-0.8,3.2-2.2,6.3-4.1,8.9
	C219.5,535.8,216.1,533.3,214.6,532z M219.4,541.4c-1,2.4-1.2,6-3.4,6.1c-4.7-6.6-13.7-11.6-14.9-19.9
	C206.8,530.3,213.5,537.6,219.4,541.4L219.4,541.4z M197.5,505.6c-0.9-5.2-1.3-10.4-1.1-15.6c6.3,4.7,20.7,18.7,28.8,21.8
	c1,5.5,1.5,10.9,0.6,16.1C222.2,520.8,205.9,510.3,197.5,505.6L197.5,505.6z M192.4,325.7c-3.2,1.7-4.1,7.4-8.2,6.2
	C180.6,327,189,324,192.4,325.7L192.4,325.7z M182.7,323.4c-10.3,1.9-7.9-10.8-7.5-17.1c0.5,0.3,1,0.7,1.4,1.1l5.1,7.6
	C183.7,318.1,189,322.2,182.7,323.4L182.7,323.4z M193.1,329.9c7.2-12,16-2.7,0,10C184.1,341.7,189.3,333.3,193.1,329.9L193.1,329.9
	z M207.9,277.7c6.5-5.6,3.3-15.9,10.8-20.6c-0.5,15.2,1.9,19.6-6.5,34.1c-1.2,1.3-1.9,2.1-2.7,3
	C206.7,289.3,208.2,283.1,207.9,277.7L207.9,277.7z M208.2,300.2c1.9,4.1,5.6,11-0.6,13.6c-3,2.2-3.5,8.4-8.7,6
	c-0.4-0.1-0.7-0.2-1.1-0.3C202.6,314.6,203.2,304.3,208.2,300.2L208.2,300.2z M202.9,365.8c0.5,0.5,0.6,0.6,0.6,0.7
	c0.3,3,0.5,5.8,0.8,8.8c-8.8-9.1-17.4-8.7-15-24c0-0.3,0.9-0.7,0.9-0.7C195.9,354.5,203.6,357.4,202.9,365.8L202.9,365.8z
	 M190.3,345.3c0.8-0.4,1.7-1.2,2.4-1c2.6,0.5,6.6-1.9,7.6,2.9c0.6,2.5,1.1,3.2,0.5,5.4C197.1,350.6,192.9,348.8,190.3,345.3
	L190.3,345.3z M189.3,370.3c0.1-0.3,1.4-0.3,1.8,0.1c11,5.9,15.6,9.6,16.8,22.7c-0.7,0.1-1.4,0.2-2.1,0.3
	C198.7,387,186.2,381.4,189.3,370.3L189.3,370.3z M189.6,386.7c0.6,0.1,1.2,0.4,1.7,0.8c2.6,1.9,5.2,3.9,7.7,5.9
	c1.6,0.8,2.3,1.9,3.2,2.3c8,3.1,7.9,11.4,7.9,18C201.8,406.1,186.9,400.2,189.6,386.7L189.6,386.7z M190.6,403.6
	c0.6,0.3,1.2,0.6,1.7,0.9c1.4,1.1,2.8,2.2,4.1,3.3c11.4,10.2,17.7,8.3,16.9,26.1c-6.7-4.1-12.4-9.8-19-14.2
	C189.6,416.6,190.3,408.6,190.6,403.6L190.6,403.6z M196.1,426c5.5,4.1,10.3,8.2,15.8,11.3c3.7,2,2.1,5.5,3.6,8
	c0.7,1,0.7,2.5,0.9,3.8c0.3,1.8-1,2.5-2.4,1.6c-6.2-5.2-12.5-10.4-18.9-15.5C190.6,432.2,187.7,416,196.1,426z M192.4,438.3
	c0.7,0.3,1.3,0.8,1.9,1.2c3,2.4,6,4.9,8.9,7.2c13.6,10.4,14.1,5.3,15.3,23.6C209.8,459.6,187.7,455.7,192.4,438.3L192.4,438.3z
	 M193.7,454.6c1.2,1.4,2.4,2.7,3.6,4.1c6.6,4.9,12.5,9.8,19,13.6c4.3,2.6,5.3,13.3,4.7,17.6c-7.2-6.1-13.8-13.7-22.1-17.9
	C191.3,467.8,194,461.1,193.7,454.6L193.7,454.6z M194.7,472.2c7.4,7.8,15.9,14.4,25.3,19.6c1.2,0.8,1.9,2.1,2.2,3.5
	c0.6,4.5,1.6,9.1,2.5,13.8c-7-8.1-19.5-16.1-28-20.8C194.5,483.8,194.3,477.1,194.7,472.2L194.7,472.2z M221.9,325.6
	c-3.4-8.9-6.6-17.3-9.6-25.8c-0.1-4.7,4.3-9.6,7.1-13.1c1.3,1.5,1.7,3.6,1,5.4C216,309.3,235.2,298.5,221.9,325.6L221.9,325.6z
	 M241.2,235.9c-6.4,5.6-15.8,7.5-19.4,16.6c-4.8,4.9-15.1,8.1-14,17.4c0,1.1-0.4,2.1-1,2.9c-6.2,6.5-2.2,14.3-2.8,21.4
	c0.1,8.2-8.6,17.1-8.2,25.4c-0.1,0-0.1,0-0.2,0.1c-4.8,2.3-6.1-0.5-8.3-4.3c-4.2-8.4-15.3-12.4-17.2-22
	c-2.1-14.9-11.4-13.4-15.7-23.6c-3-4.6-5.2-9.9-9-13.6c-4.7-3.2-20.1-19.6-27.3-17.9l0.1-0.1c2.1-2.6,4-5.3,6.2-8.3
	c0.8-0.9,1.7-1.8,2.6-2.6c0.6,0.6,1.1,1.4,1.9,1.5c4.9,1,10,1.8,15.1,2.4l0.3,0.4c17.4,27.7,52,8.6,65.2,18.5
	c-4.3,4.6-11.5,7.3-18.1,7.6c-5,0.4-10.6-1.1-15.5,1c3.8,5.8,15.7,2.3,22,2.5c9.6-2.3,22.1-12.6,21.9-23.2c0-0.3,0-0.6,0.1-0.8
	c1.3-5.5,17.3-6.1,26.4-8.4C245.3,231.6,243.5,234.1,241.2,235.9L241.2,235.9z M170,333.3c-7.9-3.7-15.2-9-22.5-13.7
	c-5.2-5-2.8-13.8-4-20.4c0.2-1.6-3.1-4.3-0.2-4.8c6.8,2.6,13.3,6,20.2,7.4c7.7,1.5,7.8,6,7.2,11.7
	C170.3,320.6,171.4,326.8,170,333.3z M226.9,146c3.7,10.1,2.2,21.9,3.9,32.6c-3.4,6.5-6.2-10-4.5-12.7
	C227.2,159.8,223.4,151.8,226.9,146z M225,137.6c5,5.8-9,11.2-3.3,21.7c0.8,2.2,2,4.5,1.2,6.9c-6.6-6.4-14.4-11.3-23-14.4
	C207.4,148.7,217.6,134.7,225,137.6z M96.7,144.6c9.8,3.3,19.1,7.8,28.9,10.9c5.8,1.8,2.2,3.1,0.5,4.8c-3.8,2.8-7,11.2-12.2,9.8
	c-17.7-9-29.6-28-51.2-27.3C66.6,133.9,88.9,142.8,96.7,144.6L96.7,144.6z M62.8,149.6c-0.4-1.5-0.6-3-0.5-4.5
	c4.4,3.1,13.9,3.4,18.1,5.1c34.9,33.9,42.7,8.5,13.1,56.8C83,188.1,70.3,170,62.8,149.6L62.8,149.6z M135.8,284.8
	c-2.9-6-2.9-14.4-5.4-20.8c-2.4-7.6-10.8-9.4-16.1-14.6c-4.7-3.5-12.4-5.4-15.6-10.3c0-8.9-8.6-12.9-3-25.1
	c7.3-17.1,18.3-32,30-46.3l3.7-4.5c10.8-14.1,56.4-13.7,71-6.2c-3,2.2-8.2-0.6-8.5,4.9c-0.4,7.4,7.9,5.5,13,3.7
	c9.9-2,13.1-0.4,16.8,9c1.5,3.5,3.2,7,5.1,10.3c3.1,5.4,6.7,10.5,10.5,15.4c5.6,6.9,11.4,16.7,10,25.4c-5.1,0.2-12.4,0.6-13.5,0.8
	h-0.1c-4.3,1.9-10.8,1.4-13.4,5.8c0.9-9.5-4.5-14-11.4-15s-15.1,1.7-19.9,6.7c-13.1,14.1,15.1,19.2,24.9,15.8c0.4-0.2,1.6,0.6,1.7,1
	c0.4,10.2-10.8,2.2-15.8,1.9c-23.7,1.5-34-0.3-54.8-11.7c9.3-4.8,20.8-5.7,29.1-11.9c-4.1-1.2-8.1-0.6-12.2,0.6
	c-8.1,2.5-16.1,7.6-24.7,6.7c-2.9-0.2-5.9-1.3-8.7-0.5c0.1-0.1,0.1-0.1,0.1-0.2c-5.8-2.9-15.1,9-12.7,14.4l0,0
	c-0.1,0.1-0.2,0.2-0.3,0.4c10.9,5.5,20.3,13.9,30,21.5c5.1,4.2,6.5,10.5,7.2,16.7c-0.2,8.7,7.9-6.7,15.3,19.3
	C156.7,296.6,145.6,290.5,135.8,284.8L135.8,284.8z M157.1,471.5c-7.2-5.1-14.4-10.3-21.6-15.4c-6.9-5.6-13.8-10.4-19.7-16.2
	c-7.6-6.3-18-13.3-10.1-24.3c7.2,7.5,16.7,12.5,27,14.3c4.4,0.8,9.3-0.3,12.4,3.8c19.3,17.4,14.3,11.9,13.6,37.5
	C158.7,471.3,157.4,471.7,157.1,471.5L157.1,471.5z M155.5,415.4c0.7,1.6,1.2,3.4,1.6,5.1c0.4,3.8,0.6,7.6,0.9,11.4
	c1.3,3.4,0.6,5.4,0.5,8.8C134.9,418.5,153.5,442,155.5,415.4L155.5,415.4z M156.3,573.4c0.1-1.5,0.2-2.2,0.2-2.8
	c2.1,0.4,4.9,3.4,3.8,5.6c-1.9,0.4-4.2,0.6-6.2,1C154.8,575.9,155.4,574.6,156.3,573.4L156.3,573.4z M129.9,632.8
	c-15.8,4.4-32.6,3-47.4-4.1c19.9-14.5,9.1-11.2-6.9-10.1c-8.4-1.6-26.3-0.4-32.1-5.6c4-1,7.8-2.9,11-5.4c-6.4-2.6-14.5-0.3-20.2-3.8
	c3.4-2.7,8.9-0.9,11.7-4.6c-0.8-0.5-1.7-1.5-2.5-1.5c-8.9-0.4-17.5-3.6-24.5-9.1c1.6-0.9,3.2-1.9,4.7-3c1.3-1.4,2.6-2.8,3.7-4.4
	c-4-5.2-9.7-2.1-15.2-2.6c1-3.7,7.1-5.2,7.4-9c-2.5-4.6-8.4-1.2-12.4-2c4-7.4,17.3-10.7,2.4-16.3c1.8-4,6.9-3.6,10.2-5.9
	c-1.2-0.4-2.5-0.8-3.7-1.2c-0.7-0.3-1.4-0.7-2.1-1.2c5.8-4.4,14.2-5.8,21-9c3.4-1.3,8.6,0.3,9-5.8c2-3.1,7.4-1.3,10.6-1
	c8.1,1.2,16.2,2.1,24.3,3.7c5.9,1.2,7.1,0.7,6-5.1c-0.5-2.6,0.1-2.2,1.8-1.6c10.9,3.7,21.8,7.2,32.8,10.8c2.9,1,6,3.7,8-1.2
	c0.2-0.3,1.9-0.2,2.8,0.3c4.6,1.2,18.7,11.6,24.3,11.8c-0.7,3.2-1.4,6.3-2,9.5c-0.9,7.2,3.3,17.4-1.9,23.8c-2.9,2.6-5,6.1-5.8,9.9
	C141.6,596.4,136.3,632,129.9,632.8z M147.7,722.7c-3.4,2.5-9.4-1,4.2-12C151.7,712.6,148,720.8,147.7,722.7z M160.9,724.7
	c0.4-1.8,2.1-3.2,1.9-4.3c-0.9-3.2-3.2-6.9-6.5-2.7c-1.2,2.1-0.6,5.1-3.6,6.2c-2.3-6.8,2.3-14.1,7.3-18.5c2.6-2.6,15.9,0.6,16.4,4.1
	C174,717.3,172.4,729.5,160.9,724.7z M210.1,704.8c3,2.6,4.4,10.3,6.4,14.4c0.6,2.4-6.6,3.1-14.1,3.4c-6.4,0.4-13,0.5-15.2,1.3
	c-7.7,1.2-3.8-1.7-6.5-4.8c-8.1-0.4,1.6-11.2,10.8-8.9c5-0.3,8.9,0.6,9.7,6.5c0.2,0.5,0.6,1,1.1,1.2c3.3-1.2,2.9-6,0.2-7.2
	c-2.5-1.6-1-2,0.2-2.9C205.2,707.2,207.9,704.3,210.1,704.8L210.1,704.8z M224.1,627.2c-7.2,5.5-13.1,12.7-19.6,19.2
	c-5.6,8.1-14.7,22.4-11.5,31.7c0.6-1.7,1.4-3.3,2.2-4.8c1.1-2.1,2.5-4.1,3.7-6.1c-0.2,2.3,0.5,5.1-0.5,6.8
	c-7.1,10.9,11,17.3,7.4,26.8c-8.6,8.6-32.4,5.2-40.2-3.5c-4.6-6.4-8.9-13-13.6-19.3c-5.8-8.1-13.9-14.8-16.2-25
	c-1.9-20.5,9.5-40.2,12.5-60.3c1.4-6.5,3.4-10.3,10.2-11.2c8.3-6.8,13.6,6.3,31.9,6c0.5,0,1.1,0,1.6,0.1c10.2,0.6,20.5,1.1,30.7,1.6
	c5.6,0.3,2.5,10.7,3.9,14.8c1.4,10.4-27.1-10.5-35-10.5c-0.4,0-0.9,0.1-1.2,0.3c7.5,9.2,19.9,14.2,31.2,17.2c3.4,0.6,6,1.3,5.8,5
	C227,619.7,228.8,623.5,224.1,627.2L224.1,627.2z M225.3,584.2c-23.9,0.3-75.4,2.1-67.4-34.2c1.7-7.6,4.3-15,5.6-22.7
	c-2.3-9.9-3.4-20.1-3.1-30.2c3.8-25.3,3.8-51.1-0.2-76.5c-2.6-13.8-6-27.5-10.1-41c-0.6-1.8-2.6-3.2-3.8-4.8
	c-2,6.6,3.7,11.6,4.1,17.8c-7.9-6.4-13.1-16.6-20.6-23.7c-2.5,9.7,12.3,22.1,19.3,28.1c8.1,6.5,2.7,14.3,1,22.2
	c-0.9,5.6-4.1,8.2-9.8,7.2c-7-1-36.2-7.9-31.3-17.8c5.4-13.6,11.2-27.1,16.1-40.8c4-14.9,7.1-29.8,15.3-43.2
	c3.9-9.1,24.6,13.8,32.1,14.5c3.6-5,0.5-11.2,3.3-16c17.8,38.3,8.5,10.4,9.9,52.1c-0.4,34.1,1.4,67,4.2,100.8
	c3,19.5,0.9,40.8,9.3,58.9c4.8,3.7,15.6,26.7,21.1,15c2-4.2,2.5-9.2,6.1-12.5c1.6,13.9,1.2,28.3,2.4,42.3
	C229.1,581.8,228.9,584.2,225.3,584.2L225.3,584.2z M306.3,708.3c1.4-1.2,2.8-2.3,4.1-3.5c1.8-1.1,2.9-3.4,4.9-0.4
	C318.9,710.3,309.4,708.9,306.3,708.3L306.3,708.3z M292.6,681.1c-13.8-26.2-34-47.9-60.9-58.4c-4.1-15.1,7.4-12.1,16.8-19.5
	c13.3-7.5,26.1-15.9,40.7-19.8c-13.9-6.6-40.4,15.8-53.9,21.8c-2.1,1.2-4.8,3.1-4.7-2.1c0.1-3.5-1.2-6.9-1.4-10.4
	c-0.2-1.7-1-3.7,1.9-4.7c5.8-7.8-2.9-29.3,0.5-39.5c7.8,8.4,6.3,42.3,21,36.3c10.9-2.7,21.5-6.1,30.3-13.9
	c16.1-6.1,18.1,18.1,23.5,28.3c10.7,27.2,19.8,55,28.8,82.9c0.8,2.5,0.9,2.7-1.9,4C294.7,701.8,313.1,718.9,292.6,681.1L292.6,681.1
	z M341.1,728.3c-5.2,2-6.8,1-9.6-4c-4.1-7.1-8.3-14-12.7-21c-6.3-6.1,12.6-10,16.4-13.4c5.2-2.8,4.9,14.2,18.9,11.1
	c23.8-9.4,20.8-42.8,43.6-27c-9.1,3.7-28.8,14-15.5,24.3c-10.1,3.1-27.1,15-5,14.8C366.4,720.1,353,723,341.1,728.3L341.1,728.3z
	 M369.8,708.3c0.7-0.7,1.5-1.3,2.4-1.8c6-2.3,10.8-7.2,17.4-8.1c4.7-0.7,8.8-2.4,13.1-1.2C399.3,702.3,375.2,711.5,369.8,708.3
	L369.8,708.3z M409.6,692.7c-3.5,2.6-8.2,1.2-12.2,1.3c-4.6-2.4,4.1-6.5,17.2-5.5C412.9,689.9,411.1,691.4,409.6,692.7L409.6,692.7z
	 M415.6,687.5c-3-3.7,3.5-10.3,5.8-17.1C426.1,677,421.1,682.7,415.6,687.5L415.6,687.5z M376.5,694.8c-4.2-2.4-21,15-26.2,18.1
	c-4.8,3.5-10.7,5.5-13.5,10.7c7.3-0.5,12.9-6.6,19.5-9.6c4.6-5.8,9.7-10.8,16.6-13.8C375.1,699,377,697.6,376.5,694.8z M281.5,590.7
	c-14.2,8.1-30.9,13.9-42,26.2c8.2,1.2,23.6-13.7,32.9-17.5c5.5-2.7,10.3-6.1,16.6-6c0.9,0,1.8-1,2.9-1.6
	C289.4,587.9,284.8,589.4,281.5,590.7z M215.7,369.4c0.8,3.9,1.2,8.1,1.7,12c1.4,10,3.8,18,18.2,15.2c5.8-0.3,8.6-3.5,8.1-8.5
	c0-0.4-0.1-0.8-0.2-1.1c-2.4-5.8-1.4-27.4-7.5-28.3c-5.8-0.2-11.5,0.3-17.2,1.3C213.5,360.6,215.4,365.4,215.7,369.4z M233.8,362.9
	c3.4,7.6,2.5,16.1,4.8,23.7c1.9,4.6-0.6,5.3-3.7,5.9c-6.5,0.9-12.8,0.6-12.4-7.4C220.4,361.9,212.7,363.9,233.8,362.9z M205.4,213.8
	c1.3,0,2.6,0.1,3.8,0.3c4.7,0.6,9.4,1.8,13.3-1.7c5.7-4,6.9-14.6,2.4-20.6c-0.9-1.6-1.8-3-2.6-4.3
	C196.4,148.3,183.1,210.9,205.4,213.8z M199.7,202.8c6.1,2,9.7,10.1,16.3,3.2c2.4-0.9,4.8-2,7.1-3.3
	C221.6,214.9,200.1,216.2,199.7,202.8z M197.8,196.3c0.4-13.4,8.6-25.3,18.6-9.2c4.1,4.8,6.1,8.9,6.6,12.4c-4.7-1-16.6,0.1-20.4-0.2
	C199.9,199.4,197.6,199.3,197.8,196.3z M218.2,618.9c-4.4-1-8.8-1.8-13.5-2.8c-5.3-1.9-13-7.8-17.9-4c7.4,4.2,26.4,14.2,33.8,8.9
	C219.8,620.3,219.1,619.1,218.2,618.9z M155,175.8c-14.5,0-25.5,11.1-28.3,26.5c-0.3,1.1,1.2,3.8,1.3,3.8c3.5-1,4.4,1.8,6,3.7
	c6.6,7.1,17.7,7.9,26.5,5.6h0.1c18.2-4,13.3-27.7,3.4-38.2C161.1,176.2,158.1,175.8,155,175.8z M157.6,212
	c-8.7,0.9-16.7-1.4-24.3-5.4c4.8-3.2,11.7-1.9,17.4-3C152.5,206.1,160.1,209.7,157.6,212z M167.6,205.2c-0.4-5.6-1.4-5.8-6-5.8
	c-10.7-1.1-20.9,1-31.4,2.3c0.4-1,0.9-1.8,1.3-2.6c1.8-3.7,3.7-7.2,5.6-10.8c6.4-6.1,18.5-12.7,25.5-5.9
	C166.8,189.4,170.1,197.1,167.6,205.2L167.6,205.2z M127.1,177.1c4.8-11.7,16.6-9.4,27.7-9.4c5.1-0.1,10.1-0.6,14.1-3.3
	c-2.8-2.6-4.6-7.7-9-7.4c-11.5,0.8-25.1,2.3-32.3,12.4c-1.1,1.5-1.9,3.1-2.6,4.9C124.6,175.7,124,177.8,127.1,177.1z M72.1,152.1
	c-1.4-1.1-2.9-1.9-4.6-2.5c3.1,7.2,7.8,21.1,15.8,23.1c-1.2-4.8-6.2-9.1-6.3-13.7C76.8,155,75.1,153.7,72.1,152.1z"/>
</svg>
