<?xml version="1.0" encoding="utf-8"?>
<!-- Generator: Adobe Illustrator 25.2.3, SVG Export Plug-In . SVG Version: 6.00 Build 0)  -->
<svg version="1.1" id="Слой_1" xmlns="http://www.w3.org/2000/svg" xmlns:xlink="http://www.w3.org/1999/xlink" x="0px" y="0px"
	 viewBox="0 0 864 864" style="enable-background:new 0 0 864 864;" xml:space="preserve">
<style type="text/css">
	.st0{fill:none;}
	.st1{fill:#C3AD97;}
	.st2{fill:#958386;}
	.st3{fill:#FFFFFF;}
	.st4{fill:#BC8E81;}
	.st5{fill:#FFBE65;}
	.st6{fill:#8D969E;}
	.st7{fill:#575A5D;}
	.st8{fill:#435F89;}
	.st9{fill:#555B60;}
	.st10{fill:#5293BD;}
	.st11{fill:#E69C05;}
	.st12{fill:#FFB965;}
</style>
<path class="st0" d="M313.6,566.1c-0.2-0.1-0.3-0.3-0.4-0.5h-0.4c0.1,0.1,0.2,0.2,0.4,0.4C313.4,566,313.5,566,313.6,566.1z"/>
<path class="st0" d="M263.5,56.2c0.1,0,0.2,0.1,0.2,0.1S263.7,56.1,263.5,56.2z"/>
<path class="st1" d="M439.2,52.7c-0.2-0.3-0.4-0.6-0.5-0.9c3.8-0.8,6.8,3.4,10.4,3.7c-1-4.1-4.3-7.5-5-11.8
	c4.6,1.7,5.6,6.1,6.6,10.5l1.9-0.5c-0.1-0.9-0.1-1.7,0.2-2.5c0.3-0.8-0.4-1.9-0.8-3.1c-0.6-1.7-1.3-3.1-1.7-4.7
	c-0.1-0.7,0-1.3,0.2-2c1.9,1.1,4.6,5.5,4.6,7.6c-1.5,2-0.7,3.8,0,5.5l2.1-0.8c-0.4-1.5-0.2-3,0.5-4.4c0.8-1.8-1.1-4.6,0.3-6.6
	c0.4,0.4,1,0.7,1.1,1.2c0.7,2,1.3,4.1,1.9,6.4c-1.9,1.3-1.3,3.1-1.4,4.7h2.4c0-3.3,1.9-0.1,2-4.7c0-0.1,1.3,0,1.3,0.1
	c0.1,1.5,2.2,3.3-0.5,4.5c-0.5,1.2-0.6,2.5-1.8,3.4l3.5,0.3c0.3-0.4,0.6-0.9,0.8-1.3c3.1-2.5,8.1-2.9,11.9-4.4c5-1.7,7,0.5,10.8,3.1
	c12.8,2.9,24,11,36.3,15.6c8.2,3.6,30,8.2,35.3-1.2c7.3-10.4,9.4-23.6,5.8-35.8c-2.5-9-9.1-16.7-18-19.6c-4.5-1.4-11-2.6-14.5,1.5
	c2.5,1.9,6.4,1,9,2.4c11.2,6.3,14.7,19.8,13.3,31.9c-0.1,8-7.4,22.8-16.6,16.9c0.9-0.8,2-1.3,3.2-1.4c6-0.6,9.3-5.4,10.8-10.5
	c-15,16.3-32.1-4.7-43.2-15.2s-21.7-21.3-33.6-30.9c-10.9-9.4-26.8-2.9-37.7,3.6c-2.5,0.8,2.9,6.1,3.1,8c1.7,4.3,5.3,8.4,5.6,13
	c-5.3-5.9-7.5-14.5-13.1-20.3c-22-19.2-38.6-13.6-60.1,2.5c-24.4,15-58,56-86.4,54.9c-9.2-1.8-16.2-10.9-17.8-19.9
	c-4.2-16.1,9.9-32.1,25-36c16.8-4.1,28.8,7.3,26.9,1.2c-12.6-15.8-45.7-12.9-57.9,3c-12.2,14.4-13.5,29.6-5.1,46.3
	c2.9,6.4,10.4,26.5,17.5,26.9c3.5-0.1,7.1-0.4,10.6-1c32-2.2,95.8-46.4,118.5-38.5c-23.8,1.7-45.1,13.1-66.2,23
	c-19.1,9.2-39.1,15.9-59.9,18.7c25.4,1.3,49.3-10.8,72.4-20c12.2-5,24.2-10.1,36.7-14.2c6.1-1.5,13.1-2.5,17.4-7.3
	c0-0.1,0.1-0.2,0.2-0.2c13.6-3.4,23.8,3.4,36.3,5.2l0.3-2C442.3,55.2,440.7,54,439.2,52.7z M565.2,36.2l0.2-0.6
	c0.4,5.7,1.4,12.2,0.2,17.7c-1.8-3.7-0.7-8.2-1.3-12.4C564.6,39.2,564.9,37.7,565.2,36.2L565.2,36.2z M555.5,24.2
	c3.4,1.9,4.7,7.5,7,11c0.1,1.3,0.2,2.4,0.3,3.4C560.2,34,556.5,29.3,555.5,24.2L555.5,24.2z M558.8,36.1c1.6,1.8,1.3,4.5,2,7
	c-1.8,8.7,2.4,9.8,0.7,15.4c-0.2,1.9-1.4,3.8-1.1,5.8c3-2,3.1-6.5,5.2-9.2c1.2,3.4-3.3,7.7-4.5,10.9c-3,3-6.2,7-10.4,8.1
	c1.5-3.8,11.2-8.3,7.8-13.2c-2,2.7-5.2,9.2-8.3,10.1C565.1,50.1,557.7,59.8,558.8,36.1L558.8,36.1z M500,42.9
	c-8.6,1.5-17.5,1.5-26.1,3.8c-1.8,0.5-3.4,1.1-5,1.5c-0.1,0.1-0.4-0.1-0.6-0.2C472.2,43.2,494.7,39.7,500,42.9z M464.1,43.8
	c3.2-4.8,20.1-10,24.7-6.6C480.1,38.3,472.2,41.2,464.1,43.8L464.1,43.8z M482.1,27c0.7-0.5,1.7-0.4,2.2,0.2
	c-4.5,2.5-9.1,4.7-13.8,7.3c-2.4,1.5-4.8,2.8-7.1,4.1c-0.5,0.2-1,0.3-1.5,0.4C466.4,32.4,475.4,30.7,482.1,27L482.1,27z M467.6,25.4
	c-17.1,3.2-1.8-4.8,1.8-0.4C468.9,25.1,468.4,25.2,467.6,25.4L467.6,25.4z M467.1,18.4c-0.4,0.4-0.7,1-1.1,1.1
	c-1.6,0.6-3.2,1.2-5,1.8c-0.6-0.1-1.2-0.3-1.8-0.6C460.2,19.3,465.5,17.2,467.1,18.4L467.1,18.4z M453.3,17.3
	c0.4-0.3,0.9-0.5,1.4-0.6c-0.1,0.5,0.1,1.1-0.1,1.4c-1,1.3-2.2,2.6-3.4,3.7C451.1,20,451.9,18.3,453.3,17.3z M434,20.8
	c0.5,0.4,1,0.5,1.1,0.8c0.4,1,0.6,2.1,1,3.1c-1.5,0.4-1.8-2.1-2.7-3.1C433.3,21.4,433.5,20,434,20.8z M429,21.4
	c-1.9,0-4.7-2.2-3.9-3.9C427.2,17.4,427.7,20,429,21.4z M420.6,19c0.3,0.4,0.5,0.8,0.8,1.2c-1.7,0.5-3.5-0.3-4.2-1.9
	C418.6,17.4,419.4,18.3,420.6,19z M416.6,22.2c8.8,1.3,18.8,6,24.3,12.8c-7.5-3.2-14.1-8.4-22.1-10.8
	C417.9,23.7,415.2,23.9,416.6,22.2L416.6,22.2z M397.1,13.8c0.5,0,0.9,0.2,1.3,0.3c-0.3,2.7-3.2,0.8-4.9,0.6
	C394.2,13,395.7,14.2,397.1,13.8L397.1,13.8z M270.2,33c1.2-3.2,2.3-6.3,3.5-9.4c0.2-0.6,0.9-1,1.3-1.4c0.7,3.3-1.6,6.2-2.4,9.3
	c-0.9,1.8-0.8,4.3-2.4,5.7C270.1,35.8,270.1,34.4,270.2,33z M272.1,77.2c-3.2-3-4.5-8.2-6.8-12c-1.6-3.8-3.8-7.6-2.8-11.9
	c-0.2-4.1-3.2-8.7-1.5-12.6c3.4,10.3,5,21.4,9.5,31.6c0.6,1.3,1.3,2.5,1.8,3.7C272.5,76.4,272.2,76.9,272.1,77.2L272.1,77.2z
	 M268.8,59.3c-1.1-10.6-5.8-22.6-0.6-32.6c-0.4,12.9-0.1,26.2,4.6,38.5c4.1,6.1,9.3,10.8,13.1,16.8
	C277.9,77.2,270.9,68.8,268.8,59.3L268.8,59.3z M274.6,63.5c-0.1-0.6-0.3-1.1-0.5-1.6c0-0.1,0.3-0.4,0.4-0.6
	c3.5,7.8,10.8,12.2,16.5,18C286.6,79.8,275.4,68.2,274.6,63.5L274.6,63.5z M376.7,47.6c-2.7,1.3-5.2,2.4-7.8,3.5
	c-0.4,0.1-0.8,0.1-1.1,0.3c4.3-5,11.8-6.9,17.9-9.2c16.5-5.5,35.2-4,51.1,2.5C410.5,41.3,403.6,36.9,376.7,47.6z M412.2,30.8
	c-5.2,0.6-10.4,1.6-15.5,2.7c-3.1,0.5-5.7,2.8-8.9,2.2c4.7-4,11.4-4.9,17.3-6.3c11.9-1.3,24.9,0.3,33,9.7
	C429.6,36,421.6,29.7,412.2,30.8z M505.5,64.8c-4.6-2.2-9.2-4.5-13.8-6.8c-0.5-0.2-0.9-0.4-1.3-0.6c1.4,10,3.7,12.6,13.4,15.3
	c6.5,1.9,12.7,5,19.7,5c7.6,0.7,28,8,31.9-0.8C537.7,81.4,521.1,72.4,505.5,64.8z"/>
<path class="st2" d="M481,109.6c-14.9,6.8-35-14.6-46.2,3.8c-1,2.2-2.1,4.3-0.9,6.8c2.6,5,5.4,10,7.7,15.2c6.8,12.9,1.7,23.1,7,19.1
	c16.7-12.5,37.4-4.1,53.4-12.9c-3.1-1.5-6-14.3-4.6-18.5c0-2.4,1.6-5.1,1.7-7.5c0-3.1,1.6-7.3-0.5-9.8
	C491.8,101.4,486.8,107,481,109.6z M460.1,136.8c-12.1,6.4-24.2-17.5-10.6-22.5C462.6,109.5,473.3,130.1,460.1,136.8L460.1,136.8z
	 M483.9,128.4c-6-7.5,3.3-24.7,11.7-16.1C498.6,118.6,493.1,138.1,483.9,128.4L483.9,128.4z"/>
<path class="st3" d="M468.5,87.1c0.2,0.6,0.5,1.2,0.7,1.2c1.3,0.7,2.7,0.8,4.4,1.4c8.3-0.4,11-7.8,8.2-14.9c-0.8-2.6-3.2-2-2.7,0.8
	C481.4,80.7,475.5,89,468.5,87.1z M437.8,86.8c0.4-0.4,0.2-1.3,0.3-1.9c-1.5-0.2-3,0.5-3.8,1.8c-5.9,5.9-16.3-0.3-12.9-8.7
	c2.2-6.1-7.8-3.4-3.6,7.5C422.9,93.3,432.3,93.4,437.8,86.8z"/>
<path class="st4" d="M488.5,101.4c1.5,1.8,4.7,0.3,7.3,0.7c7,2.6,6.1,4.6,5.9,10.8c-0.1,2.7,2.6,1.7,3.6,2.9c3.6-7.6,9-7.4,11.5,0.7
	c1.3,5.3,10.6-0.2,14.3-0.2c2.8-0.2,0.7-1.8,1.5-3.6c2.3,1,1.5,3.7,4.7,2.7c1.8-0.2,4.5,0.7,3.5-2.4c-0.1-0.3,0.2-0.7,0.3-1.1
	c0.3,0.2,0.9,0.4,1,0.6c0.8,4.1,8.7,2,11.9,2.2c-20-24.5-33.2-19.3-59.4-27.7C489.3,90.8,487.7,95.1,488.5,101.4z M495.6,92.4
	c2.6,4.5,7.2,5,11.6,5.7c0.7,0.3,1.4,0.6,2.1,1c-5.2,2.4-14.3-0.4-15-6.8C494.2,91.4,495,91.4,495.6,92.4z M342.4,127
	c0.5-3.4,1.7-6.7,3.7-9.6c5.6-6.8,8.8,4.7,9.6,9.2c0.3,2.7,2.5,2.2,4.5,1.6c15.9-2.7,22.6-34,18.8-47c-3.3,1.9-4.7,5.2-7.2,8.2
	c-7.4,6.8-17.9,5.9-27,8.7c-19.6,4.8-41.9,9.4-55.9,24.9c3.1-0.8,12.8-0.4,13.8-3.2c0.4-1,1.5-1.5,2.4-2.3c-0.3,1-0.5,1.9-0.6,2.9
	c-0.1,0.4-0.9,1.1,0.5,1.1c3.5-0.1,7-0.6,10.4,0.3c0.9,0.3,2.2-1.4,3.2-0.6c0.5,0.4,1,1.3,1.5,1.5c6.8,2.2,13.8,3.9,20.9,5.3
	C341.3,128.3,342.4,127.5,342.4,127z M369,98.1c7.8,0.4,5.4-7.9,8-12.3c1.3,2,0.3,4.5,0.6,7.1c-1,2-1.5,4.3-2.9,5.7
	c-3.2,3.1-9.2,2.4-11.7-0.7C364.9,96.9,367,98.1,369,98.1z"/>
<path class="st5" d="M510.6,562.2c0.3-1.4,0.4-2.9,0.3-4.4c-1-1.8-2.5-2.3-3.7-0.6C506.5,559.5,507.4,566.3,510.6,562.2z
	 M453.2,561.7c-3.7,0.5-5.7,1.6-6.4,4.8c-0.3,3.4-1.7,7.1-0.3,10.3c1,0,1.9,0,2-1.5c1-3.2,0.1-9.1,4.2-10c5.5-1.2,11.9-1.3,16.6-4.6
	C464.5,558,458.5,561.7,453.2,561.7z M459,582.1c2.9,0.2,3.1-2.9,0.4-3.8c-4.3,0.1-8.9,0.2-13.3,0.4c-2.4,0.3-5.2-1.2-7.3,1.5
	C444.1,584.1,452.6,581.6,459,582.1z M448,598.7c6.7-0.3,13.2-2,19.1-5.2c-5.9,1-11.9,0.9-17.7,2c-5.5-0.2,0.7-8.9-3.1-11
	c-0.7-0.3-1.4-0.1-1.5,1.1C445,589.8,440.5,599,448,598.7z M399.7,599.7c3.5,7.5,12.6,9.9,19.6,4.7c3.1-2.4,4.6-10.3,0.6-12.4
	c-0.8,2.5,0,5.2-0.8,7.7c-1.4,5.4-9.6,6.3-14,3c-3.6-2.7-4.1-6.4-2.4-9.5c0.8-1.4,2.2-2.5,2-4.3
	C400.1,588.6,398.3,595.5,399.7,599.7z M355,555.6c-4.5,2-1,8.9,4.3,6C362,558.1,359.2,554.1,355,555.6z"/>
<path class="st6" d="M653.4,357.7c1.9-3.4,0.2-7.4,0.6-11.2c-0.1-6.4,0-13.3-2-19.4c-2.6,3.2,1.4,15-0.5,18.5
	c-2.1-2.4-0.9-6.1-1.6-9c-2.4-10.5-2.2-22.2-8.9-31.1c-17.7-24.5-19.8-27.3-51.2-30.7c-12,0.1-23.9,3.2-35.1,7.1
	c-3.2,1.8,1.2,3.5,1.8,5.3c-1,0.6-1.7-0.2-2.5-0.5c-3.4-0.8-4.7,2.4-5.5,5c-0.2,1.2,2.9,2.5,2.4,4.2c-6.1-3.1-3.4-1.5-7.1,2.9
	c-2.6,2.5,2.9,5.2,2,7.8c-1.1-1.1-2.5-2-3.1-3.3c-0.8-1.5-1.2-0.7-1.7-0.1c-2.9,4.9-5,5-0.3,9.7c-5.2-2.2-4.3-2.8-7.4,2.5
	c-1.7,2-3.8,4.1-1.1,6.8c0.3,0.4,0.1,0.8,0.1,1.2c-3.5-3.1-3.5-1.1-5.7,1.8c-3.3,3.2-1.7,4.1-1.9,7.6c-1.6-1.5-1.1-3.5-3.1-0.9
	c-3.8,4.9-7.3,10-11.2,14.7c-6.4,7.8-13.1,15.4-19.9,23c-1.3,1.5-1.3,2,0.4,3.2c25.2,17.2,53.8,31.7,84.6,34.1
	c8.9-0.4,17.8-0.8,26.7-0.8c5.8-1,11.6-2.2,17.4-3.1c4.5-0.4,0.1-3.3,0.1-5.7c2.1,0,2.8,1.7,3.8,3.3c0.9,1.3,4.4,1.4,5.1,0.1
	c-0.6-1.8-2.7-3.6-2.3-5.7c2.2,0.7,3.1,3.8,5.2,4.8c2.9,1,1.3-3.1,2.2-4.8c0.8,1,1.9,1.7,1.9,3.1c0.6,2.5,8.8-1.7,11-1.7
	c10.3-1.2,1.7-11,0.1-16.4c2.9,0.8,3.4,4.6,5.4,6.5c1-2.7,1.7-6.6,0.4-9.2c-2.3-3.3-6.9-5.6-7.7-9.7c3.8,1.1,5.8,5.7,8.6,8.3
	c3.7-6.1-5.8-8.9-5.8-14.1c3.4,0.9,4.1,4.3,6.1,6.6c0.1-0.1,0.4-0.3,0.3-0.5c-0.6-2.9,1.7-6.1-0.4-9
	C653.3,358.5,653.3,358.1,653.4,357.7z M531,251c-29,11.5-57.9,23.5-87.7,33c-21.3,6.7-43.7,8-65.4,13c-30,6-55.7,25.9-76.3,47.7
	c-5.8,5.5-31.6,39.1-23.9,44.4c14.3,15.7,29.5,30.5,45.5,44.4c1.4-3.5-1.3-7.1,0.3-10.5c4.4,5.6-1.6,13.6,8,16.4l-0.2-1.5
	c-0.1-0.5-0.1-1.1-0.1-1.6c2.2,0.7,1.1,3.5,2,4.7c3.4,2.5,6.4,6.8,10.3,8.1c0-2.9-2-6.1-0.5-8.9c3.6,4.7,0,12.2,8.2,14.5
	c0.8-1.7-0.5-3.6,0.4-5.1c3.1,2.9,0.6,8,6.1,9.6c0.5-2.6-2.6-6-0.8-7.9c3.7,3.4,1.6,10.5,7.6,11.8c1.6,0.8,3-0.1,4-1.4
	c1.7-3.1-4-5.5-3-8.9c3.1,0.4,4.1,7.9,7.3,5.1c1.8-2.3,7.1-4.2,5-7.7c-0.1-0.1,0.2-0.4,0.4-0.4c2.2,2.5,5.7-0.6,7.1-2.5
	c-2.7-1.1-6.5-0.1-8.4-2.4c5-2,9.9,3.4,14.6-2c-0.9-0.2-1.8-0.5-2.6-0.8c-0.5-0.3-0.9-0.7-1.3-1.1c2.6-1.5,5.3,1.5,7.8-0.7
	c21.6-14.9,43.9-29,64.4-45.4c23.1-17.8,42.3-40.2,59.7-63.6c4-4.5,0.2-4.3,1.4-8c2.5,2.7,0.6,4.5,4.5-0.5c1.5-3.5,11.7-13,8-15.6
	c-0.8-1.1-2.4-2.4-1.9-4c2.1,0.3,3.7,5.2,5.7,2.1c2-3.5,4.1-6.8,6.4-10c2.2-2.5,0.1-3.6-1.1-5.7c4.5,1.1,4.7,0.2,6.6-3.4
	c1.6-2-2-2.4-2.6-4.2c2.2-0.9,4.2,2.4,5.7-0.3c2.5-4.2,8-4.5,12.2-5.4c4.5,0-3.1-5.8-3.6-7.3C553.5,260.9,543.7,246.8,531,251z
	 M493.8,70.5c-0.1-0.1-0.4,0-0.5,0.1c-0.6,2-2.2,3.6-0.6,6c2.4,2.8,1.8,8.8,6.1,9.5c15.1,3.3,31.1,4.5,43.6,14.6
	c-1.8-3.5-5.6-5.4-8.5-8.4c-5.3-3.3-9.8-7.7-14.9-11.2C511.3,76,501.4,75.9,493.8,70.5z M490.5,800.5c-2.5,0.6-5.6,0.1-7.8,1.5
	c-4.1,12.2,25.8,15.7,33.8,19.3c1.6,0.5,2.5-0.1,2.9-1.8c1.3-6,6.2-9.6,10.2-13.7l-2.2-0.4c-0.6-0.2-1.2-0.5-1.7-0.8
	c2.9-1.9,6.3,3.2,8.4-1c0.7-1.2,1.7-2.1,2.9-2.6c-8.3-3.4-22.1-2.4-30.7-5.8C502.1,798.4,494.4,799.6,490.5,800.5z M317,154.1
	c18.7,7.5,36.2,17.6,54.3,26.3c29.8,15.1,64.5,23.5,97.7,18.4c14.6-2.2,28.7-6.9,41.7-13.9c9.5-3.1,13.8-10.1,18-18.6
	c0.3-0.8,0.1-1.7-0.4-2.3c-5.5-4-7.5-10.3-10.9-15.7c-9.6,20.9-32.4,35.1-55.4,30.6c-6.6-0.3-15.8-2.4-21.9-5.5l-0.1,0.1
	c-1.4-0.3-2.8,0.5-3.3,1.9c-1.7,1.7-4.4,2.1-6.6,3.2c-4.3,1.5-5.4,1.3-6.8-2.4c-1.4-3.1-9.2-2.4-12.4-4.1c-15-5.5-27.8-15.4-41-24.2
	c-2.8-2.5-6.7-4.7-8.3-8.2c19.4,12.8,37.9,28.6,61.2,33.6c-0.2-2.5,1-6.1-2.5-6.9c-5.7-2.4-11.2-5.4-16.9-7.9
	c-5.3-3.5-23.9-7.4-22.3-14.5c2.2-13.8-0.3-28.2,2.6-41.8c6.6,58.6-20,34.4,38.6,63.2c1.9-16.6,2.4-61.5,25.4-62
	c9.4,0,17.7,5.6,26.8,5.7c4-0.4,7.7-1.9,10.8-4.4c2.6-2,0.7-5.6,0.8-8.4c-1.5-8.5,10.1-8.5,6.1-15.4c-0.7-1.9-1.2-3.8-1.5-5.8
	c1.6-5.4-0.3-11.7-3.2-16.6c-2.9-5.5-6.8-4-11.4-2c-20.9,10.3-10.5,8-11.5,19.1c5.8-4.1,10.6-9.4,17.8-11c0.7-0.1,1.5,0,2.1,0.3
	c3.9,1.6,6.1,7.3,3.9,11.2c-2.6,6.5,0,14-8.2,17.1c-2.7,1.8-12.8-1.8-8.2,4c0.5,0.7,0.7,1.6,0.6,2.4c-2-1.2-4.1-3-3.8-5.7
	c0-0.5-0.2-0.9-0.6-1.3c-6.8-6.6-3.3-15.7-6.5-23.7c-2.9-6.3,2-6.5,4.5-10.1l-3.5-0.3c-0.2,0.1-0.4,0.3-0.6,0.4
	c-0.2-1.2-0.3-2.5-0.4-3.7h-2.4v0.3c-0.1,0.7-0.3,1.4-0.5,2c-0.8-1.1-1.4-2.3-1.8-3.6l-2.1,0.8c0.6,1.3,0.9,2.8,0.7,4.2
	c-1.6-1.2-2.8-3-3.2-5l-1.9,0.5c0.4,1.8,0.9,3.6,1.6,5.3c-3.2-0.4-4.7-4-8.4-3l-0.3,2c0.4,0.1,1,0.1,1.5,0.2
	c2.4,0.2,2.9,3.3,5.5,3.8c4.5,1.8,8.2,9.6,4.9,13.9c-2.5-3.2,0.1-8.9-4.5-11.1c-9.2-5.5-19.9-7.1-30.1-9.8
	c-10.6-2.5-20.9,4-28.2,11.2c-6,5.8,2.8,11.9,4.5,17.7c-3.5-1.3-5.2-5.2-7.4-8c-4.7-6.8,0.6-9.7,4.3-14.8
	c-16.3,5.2-31.9,12.6-47.8,18.9c-11.8,5-24.6,7.9-33.8,17.4c-6.1,5.7-13.9,10.2-18.5,17.1c19-13.1,42.3-18,64.6-22
	c11.5-0.9,16.2-10.7,20.3-20c0.2,0.4,0.7,1,0.6,1.3c-1.4,3.1,0.6,5.3,1.7,7.9c1.1,2.2,0.1,5.2,0.8,7.7c2-0.8,2-3.8,4.5-4
	c0,0.5-0.1,1.1-0.3,1.5c-3.8,4.1-4.5,9.3-5.4,14.3c-0.1,0.4-0.2,0.8-0.3,1.3c-1.2,6.4-3.5,12.5-6.8,18c-2.7,5-16.3,15-20,7.1
	c-1-3.6-1.4-7.3-4.2-9.9c-6.1,2.5-2.5,14.9-10.3,12.4c-2.5-0.4-5.7-2.4-7.9-0.3c-5.4,6.9-10.2,14.2-15.4,21.1
	C315.1,152.7,315.3,153.4,317,154.1z M479.6,98.3c-0.1,0.1-0.1,0.2-0.5,0.3C472.2,98.3,470.6,93.7,479.6,98.3z M411.2,105.7
	c-1.1-0.1-2.1-0.8-2.5-1.8c0.5-0.1,1.1-0.2,1.6-0.3c6.2,1.3,11.9-0.8,17.8-1.3C423.5,106.8,417,105.7,411.2,105.7L411.2,105.7z
	 M463.7,94c2,2.2,3.9,4.2,5.7,6.2c0.1,0.3,0.3,0.7,0.3,1c-2.6-1.5-12.6-8.7-12.8-11.2C459.7,89.8,461.4,92.7,463.7,94z M462.7,99.3
	c-12.6-9.9-24.8,3.6-35.8,9.4c4.1-7.1,12.8-10.7,20-14.1C453,91.9,459.5,93,462.7,99.3L462.7,99.3z M446.1,79.1
	c2,1.2,9.2-0.6,7.6,2.9c-2.8,7.4-9.2,2.6-12.1,8c-4.8,8.9-16.4,12.2-25.8,9.1c-5.9-2.2-9-6.6-10.7-12.2c-0.9-3.3,0.4-6.8-2.2-9.7
	C416.3,56.3,430,74.2,446.1,79.1z M487.4,185.4c12.4-4.6,21.5-13.8,32.5-20.1c-43.7,46.9-123.5,33-167.2-6.7
	c20.3,12.6,41.2,25.6,64.7,31.2C440.7,194,465.3,194.7,487.4,185.4z M407.5,178.8c9.6,1.9,19.4,3,29.1,3.3
	c9.4,1.2,19.1-1.7,28.2-0.6c-1.6,1-3.3,1.2-5.3,1.8c-24.5,1.5-50.2,1.3-72.6-9.9c-12-7.8-27-13.4-36.1-24.4
	C369.2,159.7,386.3,174.3,407.5,178.8L407.5,178.8z M440.7,159.9c9.6-6.8-4.6-31.1-8.9-39.2c-1.7,1.3-1.4,3.6-1.9,5.4
	c-0.9,4.9-1.8,9.9-2.7,14.8c-1.7,11.8-3.8,24.3-1.1,36.1c7.8-1,13.3-8.9,21-9.6c-1.2,2.3-4,3.6-6.2,5.2c10.6,0,22.8,7,33.4,4.5
	c22.4-1.6,41.4-20.7,44.5-42.6c-40,30.3-47.8-3.9-90.6,39.3C430,168.8,436.9,163.8,440.7,159.9z M503.3,117.3
	c-0.9-0.2-1.8-0.3-2.7-0.1c-2.4,6.8,2.2,12.7,4.8,18.7c0.6,1.1,0.7,3.2,3.2,2.6c1.5-1.3,4.7-1.7,3.4-4.3
	C509.3,128.6,509,120.8,503.3,117.3z M502.7,140.6c0.9,1.1,2.4,0.2,3.3-0.3c-3.8-4.1-4.8-9.4-7.4-14
	C499.5,131.2,500.5,137.3,502.7,140.6z M391.4,291.6c7.8-0.6,15.6-1.9,23.3-3.1c1.1-0.2,2.3-0.3,2.7-1.5
	c-13.6-4.8-19.6-18.9-27.5-29.8c-6.9-15-24.9-10.6-37.7-6.9c17,7.5,6.9,20.7,14.7,16.8c2.9-0.8,9.5-3.4,11.9-2
	c-2.7,2.6-7.3,1.1-10.2,3.3c2,1.7,5,0.6,7.3,1.4c5.5,1.3,10.3,3.7,13.5,9.1C392.5,283.5,389.3,291.1,391.4,291.6z M349.8,799.1
	c-5.9,0.1-11.7-1.2-17.6-1.9c-0.8-0.1-2.2-0.4-2.6,0.1c-1.9,2-4.3,2.7-6.8,3.6c-7.6,3.4-17.1,7.1-20.7,14.9c9.2-3,13.8,4.5,16.1-0.4
	c1.4-1.7,2.7-4.1,4.9-4.6c0.3,2.8-2.7,4.7-4.1,6.9c3.5,0.2,7,0.6,10.5,1.1c4.9,2,10.1,3.6,13.9,7.7c0.6,0.7,1.6,0.7,2.2,0.2
	c0.2-0.2,0.4-0.4,0.5-0.7c3.8-6,6.6-12.5,10.1-18.7c1.3-2.4,0.8-5.5,3.1-7.6C359.9,797.5,351.3,799.6,349.8,799.1z M318.8,609.6
	c2.9-6.8,0.7-7.3-4.3-11.5c-8-7.3-15.8-14.2-26.8-16.8c-1.3-1-16.6-2.8-12.7,0.4c13.3-0.3,23.1,8.4,30.7,18.3
	C309.1,603,313.7,612.5,318.8,609.6z"/>
<path class="st7" d="M535.9,805.2c0.8,2.1,4.4,1.8,6.2,3c10.5,4.3,20,10.4,30,15.4c-1.5-3.5-4.3-5.7-6.6-8.9
	C560.3,810.5,540.1,795.5,535.9,805.2z M531,808.5c-4.7,2.6-7.5,7.2-9.8,11.9c-2.4,3.2,18.6,4.4,21.5,5.4c4.7,1.6,9.6,0.9,14.5,1.3
	c0.6-0.1,1.3,0.1,1.8,0.4c3.2,2.1,8.4,0.1,11.9-0.7C565.6,822.3,537.1,806.5,531,808.5z M520.8,520c-0.7,3.3-1.2,6.6-2.5,9.8
	c1.3,9.1,0.6,17.8,0.7,27.3c0,5.6-0.8,11.2-0.8,16.8c0.5,4.2-0.7,8.5-3.4,11.8c4.7-1.3,4.4-6.4,5.5-10.4c1.5-7.3,2.6-14.7,4-22.1
	c1.8-9.3,3.1-18.6,4.1-28.1c-0.3-3.5,2.9-9-1-11.2C520.1,509.5,523.4,513.3,520.8,520z M515.9,567.3c-26,23.1-18.3-1-19.5-20.2
	c0-1.6,0.1-3.4-1.7-4.6c-0.8-0.9,0.3-1.8,1-1.5c4.3,2.8,2.5,7.5,2.9,12.1c0.1,6.1,0.3,12.1,0.5,18.1c0.1,3.1,1.3,3.9,4,2.3
	c4.3-3,9.8-5,12.7-9.4c1.3-9.6,0.1-19.8,0.6-29.5c-1.4-10.4-14.1,0.9-19.4,2.4c-5.2,1.9-6.9,6.9-6.3,12.1
	c0.5,13.6,0.5,27.2,0.5,40.8c0,3.8,0.6,4.3,4.3,4.5c7.1-0.7,11.9-7.5,17.9-10.7C518.1,579.8,515.7,572.6,515.9,567.3z M504.5,556.6
	c7.4-12.4,14.6,10.7,3.1,9.7C504.4,564.9,504,559.8,504.5,556.6z M488.5,582.3c-0.4-9.2,1.5-18.6-0.3-27.6c-2.3,3.2-6.5,3.7-10,6
	c-7.5,2.9-14.9,6.4-23.1,6.9c-4,0.2-3.4,4.5-4,7.3c1.1,2.7,6.1,0.6,8.5,1.1c5.1-0.5,5.7,7.8,0.4,8.4c-10.7,1.7-10.3-3.4-10.5,8.4
	c12.5,0.5,24.4-3.5,35.9-7.7C486.8,584.8,488.4,584.4,488.5,582.3z M442,587.3c2.1-5-5.2-0.7-5.9-7.3c0-5.5,7.4-1.6,7.3-6.2
	c0-0.3,0.1-0.5,0.3-1.2c1.3-3.3,0.3-5.7-3.3-4.7c-3.6,0-11.7-3.2-14.3-1.3c-1.5,6.8-2.5,13.7-4.1,20.6c-1.3,4.7,5.7,3.2,8.5,4.5
	C441.2,592.8,440.9,596.5,442,587.3z M419.2,590.2c1.4-8.3,2.9-16.7,4.8-25c1.7-6.4-4.2-6.1-8.3-7c-2.8-0.5-3.6,0.2-4.1,2.7
	c-0.8,5-1.6,10-2.6,15.2c-0.6,3.3-1.1,6.6-1.9,9.9s-0.3,4.5,2.9,5.4S418.4,595.3,419.2,590.2z M409.1,564.1c0.6-2.4-0.5-2.9-2-3.5
	c-6.1-2.1-12.1-4.2-18.2-6.2c-1.3-0.4-2.9-0.6-2.7,1.7c-0.5,5.5-2,10.4-2.9,16.2c0,2.1-1.9,5.2,0.1,6.8
	C410.8,586.8,402.8,591.5,409.1,564.1z M357.2,590.4c20.3,7.4,20.1-1.9,23.9-18.6c0.9-5.4,1.5-10.8,2.7-16
	c0.3-4.3,5.7-17.7,0.5-19.3c-11.3-3.2-32.3-15.8-35.6,2.9c-1.2,6.1-2.8,12-4.2,18s-1.2,6.4,2,9c5.7,3.4,12.9,4.1,19.2,6
	c3.1,0.8,4.8,0.3,6.4-2.4c4.4-6.1,2.4-30.3,10.5-30.5c-1.7,4.3-3.8,8.5-4.3,13.4c-2.2,7.8-0.9,25.3-13.6,21.8
	c-7.4-2.2-15.8-2.1-21.7-7.9C338.6,585.1,341.3,584.2,357.2,590.4z M360.3,564.1c-3.1,1.8-7.2,0.8-9-2.4c-1.1-1.8-1.2-4.1-0.3-6
	C356.5,547,368.4,557.5,360.3,564.1L360.3,564.1z M373.1,576.2c1.5,2,0.2,4.1,0,6.4c-0.6,1.7-1,8.3-3.1,4.5
	C370.5,583.5,370.4,579,373.1,576.2L373.1,576.2z M345.4,533.7c-1.9-0.7-3.5-2.2-5.2-3.3c-0.4,8.1-3.3,19.3-5,27
	c5.5,2.4,5.2,1.9,8.1-7.1C343.6,547,349.5,534.6,345.4,533.7z M340.7,826.9c-5.9-3.6-17-8.8-23.7-6.1c-2.8,4.5-5.9,8.8-8.2,13.5
	c-1.3,2.9-14,28-8.2,26.9c9.1-2.5,17.7-5.9,24.6-12.6c6.1-5.3,11.6-11.1,16.6-17.5C343.7,828.8,343.6,828.8,340.7,826.9z M329.2,572
	c2.5-10.5,4.7-21,7.2-31.4c0.1-0.2,0.1-0.3,0.1-0.5c0.5-2.2,1-4.3,1.6-6.4c0.1-0.2,0.7-2.4,1.3-4.1c-1.5-2.5-0.9-6.2-1.3-9
	c0.1-4.3-2-4.7-5.4-5.1c-6-2.4-6.9,4.8-9.2,8.9c-4.2,11.8-11.5,28.3-9.6,40.7c1.9-7.5,4.7-14.9,6.4-22.6c1.4-7.4,10.9-6.4,15.1-2
	c-0.8,0.2-2.1,0.8-2.4,0.6c-1.3-1.5-3-1.1-4.5-1.1c-3.5-0.3-4.5,0.4-5.5,3.1c-2.4,8.5-5.6,16.8-6.8,25.4c-0.2,1.3-1,3.3-2.4,3.7
	c-0.4-1.7-0.5-3.5-0.3-5.2c-0.1,0.2-0.3,0.3-0.5,0.4c-1.9,4.3-2.2,13,4.1,13.4c2.2,0.2,4.4,0.6,6.6,1.3
	C328.2,583.3,327.8,574.7,329.2,572z M314.1,820.3c0.6-0.9,0.6-1-0.4-1.2c-4-0.9-7.9-2.7-12-0.9c-3.9,1.7-4.8,9.2-6.1,13
	c-2.2,7.8-1.9,15.9-0.4,23.8c0.2,1.2-0.1,2.5,1.2,3.1c3.5-10,6.6-19.6,11.9-29.1C310.2,826.2,312.1,823.2,314.1,820.3z"/>
<path class="st8" d="M627.9,255.1c-15.8-32.8-21.9-47.7-45.6-60.7c-7.8-4.1-15.8-7.7-24.1-10.6c-9.8-4.2-5.5-2.9-8.5,10.6
	c-1,8-2.7,15.9-4,23.8c-0.6,6.7-7,2.7-11.2,2.9c-15.5-1.1-25.8,3.6-34.9,16.1c-4.5,4.6-2.6,11.4-4.1,17.2c0.2,1.8-2.7,9.4,0.8,7.8
	c10.8-4.4,21.6-8.8,32.6-12.9c9.4-4.8,18.4,2.4,25.1,8.6c1.1-5.4-7.1-15.8,0.9-18.1c5.7-0.4,11.4-1.2,17-2.2
	c5.2-1.2,5.4,0.8,6.6,5.1c1.1,3.8,1.8,7.7,2.6,11.5c4.9,16.7-9.7,19.8,1.1,18.4c15.6,0.4,11.2,0.2,13.1-15.7
	c0.2-10.5-2.4-20.7-4.4-31c-1.5-10.1-6.9-19.3-10-28.8c4.3,2.5,5.6,9.1,7.8,13.3c3.3,9.6,6.6,19.4,7.6,29.7c0.6,2.9-0.3,6.2,1.1,8.8
	c2-5,1.7-11,2.4-16.4c1-5.5-0.8-11.9,1.5-17.1c0.4,0.7,1,1.3,1,2c0,6.4,0.3,12.8-0.2,19.1c-2.1,11.6-4,23.2-5.7,34.9
	c-0.1,0.5,0.6,1.2,1.1,1.5c5.7,0.6,11.4,2.9,17.2,4c15.9,3.8,35.3,32.8,36.1,48.8c1.7-1.8,4.7-4.1,5-6.6c-1.3-5.3-4.1-10.1-6.1-15.2
	C643,287.3,635.7,271.1,627.9,255.1z M495.8,379c0.2,37.1,1.5,75.2-7.8,111.6c-3.5,17-9,33.3-13.6,50c-1.6,5.5-3.4,11-5,16.5
	c-0.3,1.3,0.6,2.7,1.9,3c0.4,0.1,0.9,0.1,1.3-0.1c3.2-1.8,14.7-4.7,15.8-7.5c0.7-5.3-0.9-12.3,4.5-15.5c7.5-3.7,14.7-10.9,23.7-8.5
	c1.5,0.5,1.2-0.8,1.2-1.6c1.1-10.9,3.3-21.7,6.5-32.2c10.8-31.7,28.4-60.6,51.6-84.7c-9.2-1.9-18.1-2.7-27.3-5.7
	C529.6,399.1,512.5,389.1,495.8,379z M477.9,268.8c4.5-0.1,9.1-3.2,13.4-4.7c1.9-1.3,1.3-3.4,1.6-5.3c0.3-4.8,2.4-10,1.1-14.7
	c-3.4,3.1-4.3,8.7-7.9,11.5c2.9-12.3,13.6-20.8,21.5-30.1c9.1-9.1,23-6.5,34.5-5.9c0.4,0,1-0.8,1-1.3c1.3-10.8,4-20.6,5.2-31.7
	c0.2-3.6,2-8.4-0.5-11.4c-2.6-1.6-5.7-4.6-8.8-4.6c0.9,2,8.4,4.3,6.5,6.4c-4.9,5.9,0.8,8.2-9.2,6.6c-3.4,0.2-1.8-4.6-3.5-6.6
	c-2-3.2-2-3,1.7-3.9c1.2-0.4,2.1-1.3,2.6-2.4c0.9-2.3-1.7-2.2-2.7-3.1c-0.6-0.4-3.5-1.7-3.5-0.3c-5.9,9.6-11.4,19.3-16.8,29.2
	C500.7,220,488,243.8,477.9,268.8z M531.8,185.4c0.7-3.6,3,3.6,6.6,3.8c1.8,0.5,2.9,2.2,0.6,4c-2.9,1.6-0.1,9-4.1,6
	c-1.1-0.9-2.7-1.1-4-0.4c-3.8,0.9-1.3-4.5-4.7-8.4C524.3,187.6,531,189.3,531.8,185.4L531.8,185.4z M522.4,203.7
	c4,0.9,3.2-5.7,5.8-2.6c1.1,2,3,3.4,5.2,4c3.5,1.5-3,6.2-1.5,9.6c-1.8,1.4-3.5-2.7-7.3-0.4c-0.3,0.1-1.5-0.8-1.5-1.1
	C524.7,210,517,203.6,522.4,203.7L522.4,203.7z M515.5,639.9c-0.8,1.9,0.1,3.6,0.1,6c1.1,8.5,0,17.8,2.8,25.9c2.7,1.5,6.8-1,7-4.1
	c0.4-6.1,1.2-12.2,1.3-18.2C526.8,645,521.7,647.9,515.5,639.9z M525,643.9c2.2,1,0.1-16.6-0.5-18.2c-1-2.2,1.2-5.2-2.4-4.8
	c-2.9,0-5.9-0.1-8.9,0.1C514.5,632.3,512.2,638.4,525,643.9z M509,616c-8.2-1.7-9.6-11.4-9.9-18.4c-0.1-0.9-0.2-1.3-1.2-1.2
	c-10.3,1.6-8.3-3-9.6-10.5c-4.3,3-9.9,4-14.7,6c-1.4,0.5-2.7,0.9-4.1,1.2c-0.4,1-0.9,2-1.5,2.9c-0.4,4.6-14.9,1.9-16,5.5
	c-2.7,17.5-6.1,35.1-13.8,51.3c-1.1,2.6-2.4,5.4-5.3,6.4c-2.4,1.1-4.5,2.8-7.2,2.7c-0.7-0.1-1.4-0.3-2.1-0.5c0.3-0.7,1-1.2,1.7-1.3
	c5.6-1,10.2-4.9,12-10.3c4-11,7.9-21.9,9.8-33.4c1.6-5.3,1-11.6,4.4-16.1c-13.5,1.5-6.8-3.1-12.5-4.6c-5-0.3-10.4-2.5-15.2-1.8
	c2.7,5-0.8,11.8-5.5,13.7c-12.1,7.3-30.2-9.4-17.3-19.9c-5-2.7-10.9-3.6-16.1-5.7c-8.2-4.4,0.6,11.9-16.3,13.3
	c-5.2,0.2-9.8-1.8-14.4-3.7c-3.6-1.5-3.6-1.8-5.5,1.3c-5.3,8.8-15.8,14.7-26.1,13.7c0.2,0.1,0.4,0.3,0.4,0.5
	c-0.4,0.8-0.9,1.6-1.3,2.4c4.1,2.9,12.6,1,14.6,6.2c1.1,16.7,0.7,33.4-1.1,50c-0.2,1.9-0.4,3.8-0.6,5.7c-1,11.5-10.9,4.5-17.1,8
	c-0.5,4.6,0.6,9.1,1.1,13.7c1.6,21,6.3,41.5,9.8,62.2c-0.1,0.2-0.1,0.4-0.1,0.6c0,1.9,0.2,3.7,0.8,5.5c0.5,2,0.8,4,0.8,6
	c0.3,4.8,0.3,9.5-0.1,14.3c-0.2,2.3-0.8,5,0.8,6.4c0.2,0.2,0.5,0.4,0.8,0.5c0.3,0.1,0.6,0.3,0.9,0.3c0.6,0.1,1.3,0.2,1.9,0.3
	c0.3,0,0.6,0.1,0.8,0.2c1.7,0.8,3.8,0,5.5,0.3c5.3,1.3,10.8,1,15.9-0.8c1.2-0.3,2.4-0.5,3.6-0.5c0.5-9.2,1.8-18.3,3.8-27.2
	c5.1-23.4,14.6-45.6,27.9-65.4c5.8-8.3,12.5-18.6,21-25.1c3.7-3,8.1-5.2,12.8-6.2c-1.1,2.2-4.9,2.9-4.9,5.4
	c6.3,6.2,9.8,14.5,14.8,21.7c18.8,30.7,36.1,63.2,43.4,98.8c6,5,17.3-0.4,24.4-2c3-0.9,3.9-3.1,2.2-5.2s-0.4-4.8-1.8-7.2
	c-1.1-2-0.3-5.2-0.3-7.9c-0.8-13.4,2.6-26.3,5.7-39c1.9-11.4,5.5-22.6,5.8-34.2c0.1-8.2,0.1-16.5,0-24.7
	c-0.8-14.9-1.8-29.8-3.5-44.6C510.3,623,511.4,617.3,509,616z M340.6,758.8c-4.7-10.2-9.1-20.5-13.5-30.8c-0.6-2.5-2.6-6.2-1.5-8.6
	c2.5,2.1,2.7,5.4,3.7,8.2c7,16.5,14.4,32.7,22.4,48.7C349.9,779.7,341.9,760.7,340.6,758.8z M349.4,668.8c-1-0.5-1.9-0.7-2.8-1.1
	c-0.2-0.1-0.3-0.5-0.5-0.8c0.8-0.6,1.9-0.6,2.8-0.1c10.3,0.8,20.7,0.4,30.9,0c3.8-0.4,7.5-1.7,11.2-1.1c0.6,0.1,1.3,0.3,1.9,0.5
	C383.4,671,360.1,671.1,349.4,668.8L349.4,668.8z M398.9,662.2c-2.2-0.1-4.5-0.3-6.6-0.8c-10.8-2.2-25.6-8.4-31.9-10.5
	c-5.9-4.1,0.4-2.9,3.3-1.2c8.2,3.4,16.6,6.2,25.1,8.3c4.4,1.4,9.9,0.8,13.6,3.7C401.3,662.1,400.1,662.3,398.9,662.2L398.9,662.2z
	 M420.7,662.4c3.9-12.8,8.2-25.6,11.3-38.7c1.5-7.5,2.7-14.9,4-22.4c-0.2-1.4,0.3-2.9,1.2-4c2.7,4.1-2.5,21.2-3.4,27
	C432.3,631.4,426.3,660.1,420.7,662.4L420.7,662.4z M438.7,659.8c10.7-5.2,21.5-9.8,32.3-15.1c1.3,3.2-32.6,18.4-32.4,15.2
	c0.1,0.1,0.3,0.2,0.5,0.2C439,660,438.9,659.9,438.7,659.8L438.7,659.8z M450.8,667.7c-4-0.8-7.9-1.4-11.9-2
	c-0.4-0.2-0.7-0.4-1.1-0.6c2.4-2.7,8.8,0.2,12.2,0.1c10.1,1.2,20.5-0.5,30.4,0.1C472.9,669.9,459.9,667,450.8,667.7L450.8,667.7z
	 M488.8,784.6c6.1-19.2,10.8-39.2,16.3-58.1C507.8,731.1,493.7,784.5,488.8,784.6L488.8,784.6z M509.3,589.5c-2.5,1.9-8,3.6-7.9,7.2
	c0.6,5.2,1,16.5,8.4,16.5c-1.9-4.9-0.5-10.1-0.9-15.6c0.1-2.4,0.3-4.9,0.4-7.3V589.5z M480.1,795.5c-2.3,7.6,29.2-0.7,27.3-6.4
	c-3.6,1.5-6.8,2.9-10.7,4.4C491.6,795.2,484.9,793.3,480.1,795.5z M492.8,444.2c0.8-15.4,1-30.8,1-46.2c-0.1-6.6-0.3-13.1-0.5-19.6
	c-0.3-2.5-3.2-3.4-5-4.8c-3.1-0.4-7.2,6.2-6.8,9.9c1.3,19.6-1.1,38.4-1.1,58.2c-2.9,22.6-4.7,45.8-11.9,67.8
	c-5.5,16.4-8.7,33.9-15.9,49.5c3.6,0.2,7.3-1.1,11-1.5c1.6-0.2,3.2-0.3,3.9-2.2c2.7-8.7,5.1-17.4,7.6-26.2
	C483.6,501.4,491,473.3,492.8,444.2z M343.1,529.8c1.9,0.8,4.5,4.1,6.4,1.7c7.2-10.7,24.6,0.3,34.4,2.4c11.1,2.6-0.2,16.5,4.9,17.8
	c5.3,1,17.9,7.8,21.8,6.2c2.3-4.2,6.9-1.2,10.6-1c5.3,0.6,3.7,4.3,6.5,6.1c4,1.2,8.2,1.5,12.2,2.3c4,1.1,5.9-2.8,8.5-5
	c0.1-0.1,3.3-3.7,3.3-3.8c3.8-12,7.7-24,11.4-36c14-45,17-92.3,16.8-139.1c-29,25.7-62.2,46.3-93.6,68.5c-5.7,4-11,8.6-15.8,13.6
	c-2.5,2.9-4,3.4-7.3,1.6c-4.7-3.5-10.1-5.5-14.7-9.3c-17.8-11.5-32.6-25.9-48.4-40c-3.5-2.2-8.8-12.1-12.9-10
	c7.9,8.9,12.5,20.2,20,29.5c0.6,0.8,0.8,0.6,1-0.3c13.9,19.5,28,40.3,47.1,55.5c2.9,2.9,8.4,3.9,9.3,8.3
	c-15.9-6.3-35.6-30.5-45.4-44.8c-0.3,0.1-0.4,0.1-0.6,0.2c8,13.7,15.3,28.2,18.5,43.9c3.1,8,1.8,16.6,3.2,25
	C340.6,525.5,340.4,528.2,343.1,529.8z M345.3,474.7c-5.4-5.4-13.3-9.5-16.8-16.3c2.9,0.2,4.7,3.4,7.1,5
	c11.2,9.6,22.5,19.2,34.9,27.4c5.1,3.4,10.5,6.3,15.8,9.4c2.7,1.7,6,2.4,7.5,5.4c-6.2-0.9-11.4-5.5-17.2-8.2
	C365.7,490.5,355.2,483,345.3,474.7L345.3,474.7z M415.6,595.6c-5.2-1.7-15.2-5.3-10,4.4c1.9,2.7,7.5,3,9.5,1.2
	C416.5,599.7,418.7,596.6,415.6,595.6z M328.8,237.3c27,23.7,2.2,14.6,37.4,7.3l2.4-0.4c7.3-1,15.9,0.6,20,6.9
	c8,12.6,15,26.7,28.7,34c5,4.1,19.6-2.7,26-3.7c9.7-2.5,19.2-5.6,28.5-9.4c8.5-2.1,4.7-8.3,8.7-15c0.4-3.6,8.5-13.6,3.6-15.2
	c-5.2-2.5-10.2-5.2-15.2-8s-10-5.7-15-8.3c-46.9-24.2-93.8-48.8-141.4-71.5c-0.2-0.1-0.4-0.4-0.4-0.5c1.1-1.3-0.1-1.4-0.9-1.2
	c-4.8,0.9-6.6,6.4-9.6,9.8c-1.7,2.5-1.5,2.9,1.1,4.9c15.6,16.2,31.7,32.1,46.3,49.4c5.8,6.6,11.5,13.2,17.2,19.9c1,1.2,2,0.7,2.7,0
	c26.6-31,43.7-26.9,78.1-11.5c6.9,3.5,13.8,7,20.7,10.5c0.2,0.2,0.4,0.4,0.5,0.6c-18.9-6.6-36.7-17.7-57.1-20.3
	c-13.5-2.1-25.2,6.8-34.4,15.6c-2.6,1.5-5.7,7.9-8.9,8.6c-1.1,0.2-2.2-0.1-3.2-1.6c-19.5-24.2-40.5-47.2-62.9-68.7
	c-1.3-1.5-2.4-2-4.1-0.4c-1,1.3-6.3,2.6-3.6,4.5c2.5,2.5,11,4.7,8.2,9.2c-3.6,4.7-7.8,8.9-13.2,11.7c-16.7,7.8-34.1,1.7-41.7,23.3
	c-2.7,7.1-14.4,2-17.7,7.1c-4,5.6-9.9,9.7-12.7,16.1c14-15,34.2-23.8,54.7-25.6C293.3,212.7,312.6,224.3,328.8,237.3z M327.1,182
	c-0.7-2.8-3.5-2.2-4.1-4.9c1.8-2.9,3.4-5.5,5-8.4c3.6,5,8.4-1.5,7.5,5.2c-0.2,1.6-0.1,3.3,0.2,4.8c1.3,3.7-2.9,2.1-4.6,4.1
	C329,184.9,327.5,184.6,327.1,182z M340.6,196c-0.3,0.6-1.1,0.9-1.7,1.3c-0.5-2.2-1.7-4.2-3.4-5.6c-2.8-1.5-2.9-2.7-0.3-4.5
	c2.2-1.7,1.5-4.3,2.5-6.5c0.5,0.4,1.1,0.8,1.5,1.3c1.2,0.9,2.7,1.2,4.1,0.9c4.7-1.1,1.8,4.8,2.9,7.3
	C348.1,195.2,341.7,192.1,340.6,196L340.6,196z M356.5,206.3c-2.6-0.4-3.2,2.1-5,2.9c-2.4,1.8-1.1-4.4-5.3-5.2
	c-1.5-0.4-1.6-2.7-0.2-3.5c2.8-1.7,2-4.6,3.1-7c0.4,0.2,1,0.4,1.3,0.6c0.8,0.6,1.4,1.4,2.3,2c1.3,0.2,5.7-1.5,5.1,0.6
	c-0.3,2.3-1.5,4.8,0.1,7.2C358.4,204.7,358.5,206.6,356.5,206.3L356.5,206.3z M368.5,221c-2.8-0.3-3.2,2.1-4.9,3.6
	c-0.4-0.5-1-1-1.1-1.5c0.4-4.9-7.3-4.8-4.1-7.9c1.9-1.8,3.4-3.6,3.2-6.5c0,0,1.1-0.3,1.3-0.1c2.9,4.3,9.3-2.2,7,5.4
	C369.6,216.5,372.6,221.4,368.5,221L368.5,221z M359.8,791.1c-5.7,3.2-26.9,1.1-30.4-0.5c0.1,0.1,0.2,0.2,0.2,0.3
	c-5.3,3.2,8.4,4.1,10,4.7c5.1,1.5,10.2,0.6,15.4,0.8c2.9-0.3,5.6-0.1,4.8-4.1C359.8,792,359.8,791.5,359.8,791.1z M328.2,604.3
	c5.9-1.1,20.9-8.7,18.7-15.9c-4.6-2.2-9.4-4-8.4-10.1c0.9-4.4,1.3-8.9,2.3-13.3c0.6-2.3,0.3-3.6-2.2-4.3c-1.3-0.4-2.5-1-3.6-1.7
	c-2.7,8.6-2.7,18.5-7.9,26c-0.2,0.3-0.2,0.7-0.1,1.1c0.8,3.8-1.6,7.3-1.9,11.1c-0.6,2.8-3.4,6.1-1.6,8.8
	C324.4,603.9,326.5,604.8,328.2,604.3z M331.8,673.2c0.3-7.2,2.3-14.3,2.3-21.5c-1-5.4,0.2-10.7,0.4-16c0-1.2-0.1-2.4-0.1-3.6
	c-4,3.3-14.8,8-17.6,10c-6.4,2.4-4.4,8.8-5.4,14.2c-0.1,1.3-0.1,2.9-2.2,2.5c0.8-2.9,0.3-6.6,0.4-9.7c1-5,0-8.2-1.6-13.2
	c-2.4,3.9-1.1,10.3-1.9,15c0.6,7.5-3.2,19.8,6.2,22.8C316.7,675.4,330.2,679.4,331.8,673.2z M320.2,637.5c3.9-1.5,9.6-5.9,14.1-7.1
	c-0.2-4.5-0.4-9.1-0.2-13.7c0.3-2.6-16.3-4.1-19.1-4.8c-4.5-1-4.6,10.3-6,13.5c-1.5,5.3,0.8,10.2,2.4,15.1
	C312,643.7,318.2,637.9,320.2,637.5z M274.6,389.4c-2.8-3.6,0.5-8.4,1.9-12c12.6-25.9,33-47.3,56.7-63.3c7.4-5,15-9.5,23-13.5
	c-2-0.4-3.9,0.3-6.4,0.3c-8.9-1.1-17.8-2.9-26.4-5.4c-10-2.7-0.6-16.8,2-22.6c15-24.6,26.6-11.9-3.6-38.3
	c-24.7-20.4-56-21.2-83.8-6.3c-10.3,4.9-18.4,13.3-25.6,21.9c-2.9,6.2-4.4,13-4.4,19.9c-0.3,5.6,0.3,11.3,1.6,16.8
	c5,21.9,20.6,41.1,32.1,60.1c9,13.1,16.9,27,23.3,41.6c1.7,2.5,3.1,11.6,5.9,11.7c5.2,1.1,10.5,2.5,15.9,2.7
	C283.6,397.9,278.5,394,274.6,389.4z M300.9,303.2c11.1-2.9,22.2-2.7,33.6-2.7c3.1,0.2,6.4,0.2,9.3,1.5c-13.8,1.7-28.4-0.1-42.2,3.3
	c-1,0.7-2.2-0.4-3.4-0.6C299.1,304.3,299.9,303.8,300.9,303.2z M234.5,315.7c-5.7-9.8-11.5-19.5-16.3-29.8c-0.1-0.3-0.2-0.5-0.3-0.8
	c-0.5-2,0.7-3.9,1.8-5.4c7.8-11.1,17.3-21.2,29.6-27.3c24-11.6,16.8-4.1,27.2,17.7c2.7,9,9,18.4,7.4,27.7
	c-3.4,9.1-6.6,18.2-11.7,26.5c-0.4,1.1-1.1,2-2.1,2.5c-2.8,1.5-7-0.2-10.2-0.1C250.8,325,238.9,326,234.5,315.7L234.5,315.7z
	 M263.3,338.7c0.8-3.5,4.4-5,6.9-7.5c0.7-0.5,1.4-1,2.1-1.4c12.8-8.5,27.2-13.5,42.2-16.8c4.4-0.5,14-4.9,16.9-1.5
	c-20.7,4.6-42.5,9.4-60.3,21.9C268.4,335,266.8,338.7,263.3,338.7L263.3,338.7z M233.3,220.4c10.4-1.5,10.5,1.8,14.2-9.1
	c6.7-13.8,21.8-14,34.9-16.8c3.8,0,23.2-12.1,16.4-15c-3.4-1.3-9.2-8.6-12.5-5.7c-0.6,0.5-0.7,1.4-0.2,2c0.1,0.1,0.2,0.2,0.4,0.3
	c9.2,12-13.8,19-17.1,7.1c0.2-2.1-11.8,2.1-13.8,2c-15.9,2.9-24.7,17.9-26.7,33C227.9,221.4,230.8,220.7,233.3,220.4z"/>
<path d="M657.5,322.4c1.5-1,1.2-2.8,0.7-4c-8-21-17.3-41.6-26.8-61.9c-10.1-18-16.8-38.9-31.9-53.5c-13.1-11-29-17.6-45-22.8
	c-1.8-0.6-3.6-1.6-3.5-3.9c-0.2-4.6-8.4-6.2-11.7-8.8c-3.2-1.7-6.2-3.9-10-3.8c-4-4.6-6.8-10.9-10.3-16.1
	c-2.9-5.4,4.3-11.1,1.2-17.4c-9.1,9.4-5.2,1.5-11.7-9.8c-2.7-3.2,1.9-11,4.8-6c2.4,6.4,5.9,8.2,12.2,5.8c4.5-1.1,9.2-1.8,13.8-2.6
	c4-1.3,3.3,0.4,5.5,3.1c0.7-0.7,0.8-1.8,0.3-2.6c-1.5-2,8.2-0.6,9.4-1c7.3,1-6.4-13.1-7.6-15.2c-7.1-9-17.7-14.6-25.8-22.3
	c8.9-0.3,28.2,8.3,35.3-0.3c3.3-4.1,6.3-8.3,9-12.7c10.8-18,5.3-48.1-17.2-54c-4.7-1.6-14.8-2-15.2,4.5c0.5,3.1,6.6,1.5,9.3,3.3
	c18.7,9.6,18.4,49-8.9,36.5c-17-11.2-30-27.5-45.1-41c-13-13.3-24.1-16.9-41.4-8.8c-2.6,1.1-4.9,2.5-7.1,4.3
	c-1.9,1.5-2.4,1.7-4.2,0.1c-19.7-17.9-40.2-13.6-59.8,1.7c-12.7,9.1-24.6,19.1-36.6,29c-13.7,10.3-27.2,23.2-44.4,26.8
	c-11.9,2.2-19.2-8.4-21.7-18.7c-3.7-14.3,7.8-26.5,20-32.1c6.2-1.6,12.7-1.9,19.1-1c3.1,0.5,6.1,2,9.2,2.8c7.1,0.4,2.9-6-0.1-8.6
	c-12.4-9.3-30.1-8.9-44.2-3.7c-17.3,7.5-29.8,31.3-22.5,49.5c16.7,42.3,18,46.9,62.6,33.2c-0.4,1-0.6,2.1-1.7,2.6
	c-11.9,7.8-22.2,17.8-30.4,29.4c-4,5.9,12.8-0.4,14.9,1.8c-0.3,0.2-0.7,0.3-0.9,0.6c-0.5,0.8-0.8,1.7-1.2,2.6c1,0.5,1.9-1,2.4-1.6
	c1.7-3.9,10.2-1.8,14-2c4,0.4-0.6,3.5,1.3,5.5c1.5-1.4,0-4.9,3.1-4.4s6.1,0.7,9.2,1.3c2.2,0.5,2.7,2.5,1,4.2
	c-4.7,5.1-8.9,10.6-12.4,16.6c-2.4,4.2-8.7,0.6-11.3,5.2c-2.2,3.2-5.7,6.7-6.7,10.5c-0.6,3.5-3.4,4.8-5.9,6.6
	c-3.9,3.4-4.9-2.6-6.8,0.6c-3.1,6.4-11.5,0.3-15.1,7.3c-1.2,1.9-3,2.3-4.7,2.6c-15.8,1.8-31.6,8.9-36.4,25.1
	c-1,4.3-5.6,12.2-3.3,16.1c1.9,1.5,1.9,1.4,0.4,3.2c-11.9,12.6-21.4,28.1-21.6,46c1.4,47.8,46.2,82.2,60.4,126.5
	c0.8,6.4,8.5,5.5,13.3,7.2c2.7,0.8,5.4,0.1,7.4,3.8c14.9,26.1,35.5,49.8,44.8,78.8c2.5,7.8,4.1,15.9,6.1,23.9
	c0.5,2.1-0.5,2.9-2.6,2.2c-3.5-1-6.9-2-9.4,1.8c-5.9,10.5-8.8,22.5-12.5,33.9c-2.1,8.9-2.5,18.1-3.1,27.1c-1,6.1,5.6,7.6,10.4,8.2
	c4,0.5,5.4,1.8,4.6,4.8c-1,3.3-1.7,6.7-2.6,10c-0.2,0.6-0.4,1.5-0.7,1.6c-0.7,0.1-1.4-0.1-1.9-0.6c-11.4-10.4-23.1-22-39.7-21.6
	c-2.8,0-5.8,0.1-8.3-2.6c-5.7-5.8-13.9-8.1-21.8-6.3c2,2.8,8.2,1.1,7.9,5.9c-10.8-3.3-21.3,2.6-28.2,10.5c1.1-0.2,2.1-0.4,3.2-0.6
	c0.5-0.1,1.1-0.1,1.7-0.2c-2.2,4.5-5.9,8.2-6.8,13.4c-0.3,2.8-2.3,5.9-1.1,8.5c1.9-1.1,1.1-4.2,3.7-4.5c0.5,6.6-2.8,15.1,2.9,20.3
	c2.2,3.1,2.1,7.5,3.6,11c2.2,5.8,6.4,12.2,12.6,14.2c0.1-1.9-6.6-15.4-1-10.1c1.6,1.3,2.7,4.4,5,4.2c0.1,0,0.2-0.6,0.1-0.8
	c-4-6.8-3.5-14.9-4.2-22.4c2.4-2.2,3.1,5.9,5.4,6.3c-1.6-12-0.3-21.7,7.1-31.8c4.7-3.1,1.3,8,4.1,9.6c1.4-5,3.4-9.7,5.8-14.3
	c2.3-4.4,3.8-5.3,8.5-4.3c13.8,2.4,21.4,15.2,30.5,24.5c1.7,3.7-2.2,7.7-2.7,11.4c-2,7.5-2.7,15.4-3.4,23.1
	c0.1,7.7-3.9,27.9,4.3,31.6c2.2,0.8,5.5,1.7,6.3,4c1.3,26.3,5.6,52.5,11.2,78.1c2.4,11,4.3,22.7,0.5,33.6c-0.6,1.8-1,3.3,0.8,4.8
	c1.8,3.5-8.5,4.7-10.8,6.3c-20.4,7.3-27.6,32.4-24.3,52c1.6,3.5,2.3,11.3,7.5,10.6c5.2-0.9,10.3-2.6,15-5
	c20.3-11.7,36.4-31.8,44.1-54c0.8-2.9,0.5-6.2,3-8.5c1.7-12.1,1.3-24.8,4.6-36.8c8.4-32.7,23.7-65,49.1-87.9
	c1.7-1.7,2.8-1.5,4.1,0.4c4.4,6.9,8.9,13.7,13.1,20.7c15.9,25.6,30.2,52.1,39.1,81c2.4,4.2,4.7,27.5,8.3,26.7
	c0.2,0.1,0.4,1.2,0.4,1.8c-0.3,3.3-0.7,6.7,2.5,9c13.1,8.1,28.9,11.2,43.9,14.4c15.6,2.5,31.7,6.8,47.5,3.5c2.2-1.3,0.6-4.6-0.2-6.4
	c-8.4-16-26.5-23.8-43.8-25.4c-6.5-0.4-16.1-3.4-23.1-2.9c2-1.6,2.8-4.3,2-6.7c-12.8-36.6,12.4-72.8,7.5-109.9
	c-1.4-6.4,9.1-1,10.1-7.1c0.8-4.9,1.4-9.9,1.7-14.9c0.2-11.3-1-22.6-1.7-33.8c-0.2-3.1-0.8-3.6-4-3.6c-2.9-0.6-9.1,1.6-10.6-1.5
	c-0.5-5.9-0.6-11.8-1-17.6c-2.7-16.5,5.7-6.6,9.4-16.3c3.4-12,4.7-24.5,7-36.8c1.4-9.5,2.2-19,3.6-28.4c0.8-4.7-3.2-6.3-6.5-8.1
	c-6.4-1.8,9.8-34,11.5-39.5c7.7-16.8,18.4-32.1,29.8-46.7c3.6-4.4,7.3-8.6,11.2-12.9c0.8-0.9,1.8-1.5,2.9-1.7
	c22.9-1,45.6-4.7,67.5-11.2c6.4-1.2,5.2-6.1,5.9-10.9c1.5-8.5,2-17.5,2.9-26c-0.6-7.8-0.6-15.5-1.2-23.3
	C655.5,332.5,651.7,326.3,657.5,322.4z M266.4,592.4c-0.3-1.1-1-2.7-2.1-3.1c-6.9-0.2-8.8,8.4-11.2,13.4c-2,4.3-1.2,9-2.2,13.5
	c-1.1-1.2-0.7-7.9-3.3-4.7c-1.1,7.6-0.9,15.4,0.7,23c-0.4-0.2-1-0.3-1.2-0.6c-0.6-1-1.1-2-1.7-3.1c-1.8-1.3-2.4-0.4-2.2,1.1
	c0.3,2.8-0.8,5.7,1.3,8.2c0.1,0.1-0.3,0.6-0.4,0.9c-6.1-6.5-7.4-15.8-9.2-24.2c-0.4-3.9,1.4-7.7-0.1-11.5c-1.1,3-1.9,6.1-2.4,9.3
	c-0.6-4,0.3-8.3,0.6-12.3c-0.9-2.7,1-4.9,1-7.4c-1.5,0.4-2.6,2-3.5,3.2c0.6-6.2,6.7-11.2,10.4-16.2c-0.4-0.1-0.7-0.1-1.1-0.1
	c-1,0.1-2.2,0.1-3.2,0.3c5-3.1,10.3-5.7,16.3-5.5c2,0,4,1.1,5.8-0.8c0.9-0.3,3,1.3,4.3-0.1c-0.2-0.5-0.5-0.9-0.8-1.3
	c-0.8-0.8-1.6-1.4-2.5-2.1c4.6,0.5,8.8,2.8,11.6,6.4C273.2,583.3,267.6,587.9,266.4,592.4L266.4,592.4z M541.2,181.9
	c0,0.1-0.1,0.4-0.1,0.6c-0.8-2.7-3.1-1-4.7-1.6c-0.6-0.4-0.2-2.1-0.6-2.9s-1.9-1.3-2.4-2.4c1.4-1.1,3.4-1,5.1-1.4
	c1.2,0.7,2.5,1.3,3.9,1.7C544.7,178,540.4,176.4,541.2,181.9z M530.9,167.3c0-1.4,2.9-0.2,3.5,0.3c1,0.9,3.6,0.8,2.7,3.1
	c-0.5,1.1-1.5,2-2.6,2.4c-3.7,1-3.6,0.8-1.7,3.9c1.7,1.9,0.1,6.8,3.5,6.6c10,1.7,4.3-0.7,9.2-6.6c1.9-2-5.6-4.3-6.5-6.4
	c3.1,0,6.2,3.1,8.8,4.6c2.5,2.9,0.7,7.8,0.5,11.4c-1.3,11.1-4,20.9-5.2,31.7c-0.1,0.5-0.6,1.3-1,1.3c-11.5-0.6-25.4-3.2-34.5,5.9
	c-7.9,9.3-18.6,17.8-21.5,30.1c3.6-2.9,4.5-8.4,7.9-11.5c1.3,4.7-0.9,9.9-1.1,14.7c-0.2,1.9,0.3,4-1.6,5.3
	c-4.3,1.5-8.9,4.6-13.4,4.7c10.1-25,22.9-48.8,36.2-72.3C519.5,186.6,525,176.9,530.9,167.3z M560.9,269c0.5,1.5,8.1,7.3,3.6,7.3
	c-4.2,1-9.8,1.2-12.2,5.4c-1.5,2.7-3.5-0.6-5.7,0.3c0.6,1.8,4.2,2.2,2.6,4.2c-2,3.6-2.2,4.5-6.6,3.4c1.2,2.2,3.2,3.2,1.1,5.7
	c-2.3,3.2-4.5,6.5-6.4,10c-2,3.1-3.6-1.8-5.7-2.1c-0.5,1.5,1.2,2.8,1.9,4c3.6,2.5-6.6,12.1-8,15.6c-4,5-2,3.2-4.5,0.5
	c-1.2,3.7,2.6,3.5-1.4,8c-17.4,23.3-36.5,45.8-59.6,63.6c-20.5,16.4-42.8,30.5-64.4,45.4c-2.5,2.2-5.2-0.8-7.8,0.7
	c0.4,0.4,0.9,0.8,1.3,1.1c0.9,0.3,1.7,0.6,2.6,0.8c-4.7,5.4-9.6-0.1-14.6,2c1.9,2.4,5.7,1.3,8.4,2.4c-1.4,1.9-4.9,5.1-7.1,2.5
	c-0.2,0-0.5,0.2-0.4,0.4c2.2,3.5-3.2,5.4-5,7.7c-3.2,2.8-4.2-4.7-7.3-5.1c-1,3.4,4.7,5.8,3,8.9c-1,1.3-2.3,2.2-4,1.4
	c-6-1.3-4-8.4-7.6-11.8c-1.9,1.9,1.2,5.3,0.8,7.9c-5.5-1.6-3.1-6.7-6.1-9.6c-0.9,1.5,0.4,3.4-0.4,5.1c-8.2-2.2-4.6-9.8-8.2-14.5
	c-1.5,2.7,0.5,5.9,0.5,8.9c-3.9-1.3-7-5.5-10.3-8.1c-0.9-1.3,0.2-4-2-4.7c0,0.5,0.1,1.1,0.1,1.6l0.2,1.5c-9.6-2.8-3.6-10.8-8-16.4
	c-1.6,3.3,1.1,7-0.3,10.5c-16.1-13.9-31.3-28.7-45.5-44.4c-7.7-5.4,18.1-39,23.9-44.4c20.6-21.8,46.2-41.7,76.3-47.7
	c21.7-4.9,44.1-6.2,65.4-13c29.8-9.6,58.7-21.5,87.7-33C543.7,246.8,553.5,260.9,560.9,269L560.9,269z M559,263.5
	c-3.8-5.2-3.2-12.1-5.2-18c-0.6-2.5-0.1-3.3,2.4-3.6l13.8-1.3c1.8-0.1,4.6-1.1,5.7,0.7c0.9,3.8,1.5,7.6,2.3,11.5
	c1.7,6.1,3,12-1.3,17.2c-1,1.6-1.7,3.7-4,4.5c-3.1,1-3.6,1-5.7-1.5C564.6,269.8,561.9,266.5,559,263.5z M342.9,566.8
	c5.9,5.8,14.3,5.7,21.7,7.9c12.7,3.5,11.4-14,13.6-21.8c0.6-4.8,2.7-9,4.3-13.4c-8,0.2-6.1,24.4-10.5,30.5c-1.6,2.7-3.2,3.2-6.4,2.4
	c-6.3-1.9-13.5-2.5-19.2-6c-3.2-2.7-3.4-3.2-2-9s3-12,4.2-18c3.3-18.6,24.3-6.1,35.6-2.9c5.3,1.6-0.1,15-0.5,19.3
	c-1.3,5.2-1.9,10.7-2.7,16c-3.7,16.7-3.5,26-23.9,18.6C341.3,584.2,338.6,585.1,342.9,566.8z M335.3,557.5c1.7-7.7,4.5-18.9,5-27
	c1.7,1.1,3.3,2.6,5.2,3.3c4.1,0.8-1.9,13.3-2,16.6C340.4,559.4,340.8,559.9,335.3,557.5z M383.3,572.2c0.9-5.8,2.4-10.7,2.9-16.2
	c-0.1-2.4,1.5-2.1,2.7-1.7c6.1,2,12.2,4.1,18.2,6.2c1.5,0.6,2.5,1.1,2,3.5c-6.3,27.4,1.7,22.8-25.8,15
	C381.4,577.5,383.3,574.4,383.3,572.2L383.3,572.2z M410.1,591.5c-3.2-0.9-3.8-2.2-2.9-5.4s1.3-6.6,1.9-9.9c1-5.2,1.9-10.2,2.6-15.2
	c0.5-2.5,1.3-3.2,4.1-2.7c4.1,0.9,10,0.6,8.3,7c-1.9,8.3-3.4,16.6-4.8,25C418.4,595.3,413.3,592.3,410.1,591.5L410.1,591.5z
	 M415.2,601.2c-2,1.8-7.6,1.5-9.5-1.2c-5.2-9.7,4.7-6.1,10-4.4C418.7,596.6,416.5,599.7,415.2,601.2L415.2,601.2z M404.8,588.8
	c0.2,1.8-1.1,2.9-2,4.3c-1.7,3.1-1.2,6.8,2.4,9.5c4.5,3.3,12.6,2.4,14-3c0.8-2.4,0-5.2,0.8-7.7c4,2.1,2.5,10.1-0.6,12.4
	c-7.1,5.2-16.1,2.8-19.6-4.7C398.3,595.5,400.1,588.6,404.8,588.8L404.8,588.8z M421.9,587.3c1.5-6.9,2.5-13.8,4.1-20.6
	c2.7-1.9,10.7,1.3,14.3,1.3c3.6-1,4.7,1.4,3.3,4.7c-0.1,0.7-0.3,0.9-0.3,1.2c0.1,4.6-7.3,0.6-7.3,6.2c0.6,6.6,8,2.3,5.9,7.3
	c-1,9.2-0.7,5.5-11.6,4.5C427.6,590.5,420.6,592,421.9,587.3L421.9,587.3z M438.8,580.2c2.1-2.7,4.9-1.3,7.3-1.5
	c4.4-0.2,9-0.2,13.3-0.4c2.7,1,2.5,4-0.4,3.8C452.6,581.6,444.1,584.1,438.8,580.2L438.8,580.2z M444.9,585.6
	c0.1-1.2,0.8-1.4,1.5-1.1c3.8,2.1-2.4,10.8,3.1,11c5.8-1.2,11.8-1.1,17.7-2c-5.9,3.1-12.4,4.9-19.1,5.2
	C440.5,599,445,589.8,444.9,585.6L444.9,585.6z M449.7,592.8c0.1-11.8-0.3-6.8,10.5-8.4c5.3-0.6,4.7-8.9-0.4-8.4
	c-2.4-0.5-7.3,1.7-8.5-1.1c0.5-2.8,0-7.1,4-7.3c8.2-0.5,15.6-4,23.1-6.9c3.5-2.3,7.7-2.8,10-6c1.8,9-0.1,18.4,0.3,27.6
	c-0.1,2-1.7,2.5-2.9,2.9C474,589.3,462.2,593.4,449.7,592.8L449.7,592.8z M452.8,565.4c-4.1,0.8-3.2,6.7-4.2,10
	c-0.1,1.5-1,1.5-2,1.5c-1.5-3.2,0-7,0.3-10.3c0.6-3.2,2.7-4.4,6.4-4.8c5.4,0,11.3-3.8,16.2-0.9C464.7,564.1,458.3,564.3,452.8,565.4
	L452.8,565.4z M467.6,555.4c-0.6,1.8-2.3,1.9-3.9,2.2c-3.7,0.4-7.4,1.7-11,1.5c7.2-15.6,10.4-33.1,15.9-49.5
	c7.2-21.9,9-45.1,11.9-67.8c-0.1-19.8,2.4-38.6,1.1-58.2c-0.5-3.7,3.7-10.3,6.8-9.9c1.7,1.4,4.7,2.3,5,4.8c0.2,6.5,0.4,13,0.5,19.6
	c0.1,15.4-0.2,30.8-1,46.2c-1.8,29.1-9.2,57.2-17.7,85C472.7,538,470.3,546.7,467.6,555.4L467.6,555.4z M389.5,279
	c-3.2-5.4-8-7.8-13.5-9.1c-2.4-0.8-5.3,0.3-7.3-1.4c2.9-2.2,7.5-0.7,10.2-3.3c-2.4-1.4-9.1,1.1-11.9,2c-7.8,3.8,2.4-9.3-14.7-16.8
	c12.8-3.7,30.8-8.1,37.7,6.9c7.9,10.8,14,25,27.5,29.8c-0.5,1.2-1.6,1.3-2.7,1.5c-7.7,1.1-15.5,2.5-23.3,3.1
	C389.3,291.1,392.5,283.5,389.5,279z M361,267.5c-3.5,4.3-11.3,4.7-15.6,8.1c-8.6,3.6-16.7,8.4-24,14.1c3.1-14.3,15.2-33,29.8-37.1
	C358.1,255.6,361.2,259.7,361,267.5z M368.9,271c7,2.1,16.8,2.2,19,11c0.8,2.8,0.3,6,0.2,9c-3.3,3.1-12.1,3.2-16.8,4.9
	c-12.2,4.6-24.9,2.5-37.2,0c-4.3-1.6-9.5-1.3-12.9-3.7C330.4,286.4,359.1,267.9,368.9,271L368.9,271z M469.8,231.5
	c-23.5-12.3-46.6-24.7-70.1-36.7c40.5,12.3,81.9,11.3,118.8-11.8c-9.5,19.1-20.5,37.9-30.5,56.9
	C485.8,241.7,473.3,232.7,469.8,231.5L469.8,231.5z M518.8,134.5c-3.1,21.9-22.1,41-44.5,42.6c-10.6,2.6-22.8-4.5-33.4-4.5
	c2.2-1.6,5-2.9,6.2-5.2c-7.7,0.8-13.1,8.7-21,9.6c-2.7-11.8-0.6-24.3,1.1-36.1c0.9-5,1.8-9.9,2.7-14.8c0.5-1.8,0.2-4.2,1.9-5.4
	c4.3,8,18.5,32.4,8.9,39.2c-3.8,3.9-10.8,8.9-12.5,13.9C471.1,130.6,478.8,164.8,518.8,134.5L518.8,134.5z M499,115.7
	c-0.1,2.3-1.7,5-1.7,7.5c-1.4,4.2,1.5,17,4.6,18.5c-16,8.8-36.7,0.4-53.5,12.9c-5.2,4.1-0.1-6.2-7-19.1c-2.3-5.2-5.1-10.1-7.7-15.2
	c-1.2-2.5-0.1-4.7,0.9-6.8C446,95,466,116.4,481,109.6c5.9-2.6,10.8-8.2,17.6-3.8C500.6,108.4,499,112.6,499,115.7z M506,140.3
	c-1,0.6-2.4,1.4-3.3,0.3c-2.2-3.3-3.2-9.4-4.1-14.3C501.2,130.9,502.2,136.2,506,140.3z M512,134.2c1.3,2.7-1.9,3.1-3.4,4.3
	c-2.5,0.6-2.7-1.5-3.2-2.6c-2.7-6-7.2-11.9-4.8-18.7c0.9-0.2,1.8-0.2,2.7,0.1C509,120.8,509.3,128.6,512,134.2z M554,114.8
	c-3.2-0.2-11.2,1.9-11.9-2.2c-0.1-0.3-0.7-0.4-1-0.6c-0.1,0.4-0.4,0.8-0.3,1.1c1,3.1-1.7,2.2-3.5,2.4c-3.2,1-2.4-1.7-4.7-2.7
	c-0.8,1.8,1.3,3.4-1.5,3.6c-3.8,0-13.1,5.5-14.3,0.2c-2.5-8.1-7.9-8.3-11.5-0.7c-1-1.2-3.8-0.2-3.6-2.9c0.2-6.2,1.1-8.3-5.9-10.8
	c-2.5-0.4-5.8,1.1-7.3-0.7c-0.8-6.3,0.8-10.7,6.1-14.3C520.8,95.5,534,90.3,554,114.8z M534,92.4c2.9,3,6.6,4.8,8.5,8.4
	c-12.5-10.1-28.5-11.3-43.6-14.6c-4.3-0.7-3.7-6.7-6.1-9.5c-1.6-2.4,0-4.1,0.6-6c0.1-0.1,0.3-0.2,0.5-0.1
	c7.6,5.4,17.5,5.4,25.2,10.6C524.1,84.7,528.7,89.1,534,92.4z M523.4,77.7c-7,0.1-13.2-3.1-19.7-5c-9.7-2.8-12-5.3-13.4-15.3
	c0.4,0.3,0.9,0.5,1.3,0.6c4.6,2.3,9.2,4.5,13.8,6.8c15.6,7.5,32.2,16.5,49.9,12.1C551.4,85.7,531,78.4,523.4,77.7z M320,122.9
	c-0.6-0.2-1-1-1.5-1.5c-1-0.8-2.4,0.8-3.2,0.6c-3.4-0.9-6.9-0.4-10.4-0.3c-1.4,0-0.6-0.8-0.5-1.1c0.1-1,0.4-2,0.6-2.9
	c-0.8,0.8-2,1.3-2.4,2.3c-1,2.8-10.7,2.4-13.8,3.2c14-15.5,36.3-20.1,55.9-24.9c9.1-2.8,19.6-2,27-8.7c2.5-3,3.9-6.2,7.2-8.2
	c3.8,13-2.9,44.2-18.8,47c-1.9,0.6-4.2,1.1-4.5-1.6c-0.8-4.5-4-16.1-9.6-9.2c-2,2.9-3.2,6.1-3.7,9.6c0,0.5-1,1.3-1.5,1.2
	C333.8,126.9,326.8,125.1,320,122.9z M316.1,151.3c5.2-6.9,10.1-14.2,15.4-21.1c2.2-2,5.4-0.1,7.9,0.3c7.8,2.5,4.1-9.9,10.3-12.4
	c2.8,2.7,3.3,6.4,4.2,10c3.7,7.9,17.3-2.1,20-7.1c3.3-5.5,5.6-11.6,6.8-18c0.1-0.4,0.2-0.8,0.3-1.3c0.9-5,1.5-10.3,5.4-14.3
	c0.2-0.5,0.3-1,0.3-1.5c-2.4,0.1-2.4,3.1-4.5,4c-0.7-2.4,0.3-5.4-0.8-7.7c-1.1-2.6-3.1-4.8-1.7-7.9c0.1-0.3-0.4-0.8-0.6-1.3
	c-4.1,9.3-8.7,19.1-20.3,20c-22.4,4-45.6,8.9-64.6,22c4.6-6.9,12.4-11.4,18.5-17.1c9.2-9.5,22-12.4,33.8-17.4
	c15.9-6.3,31.5-13.8,47.8-18.9c-3.8,5.1-9,8-4.3,14.8c2.2,2.8,3.9,6.7,7.4,8c-1.7-5.7-10.5-11.9-4.5-17.7
	c7.3-7.2,17.6-13.7,28.1-11.2c10.2,2.7,20.9,4.3,30.1,9.8c4.6,2.2,2,7.8,4.5,11.1c3.3-4.3-0.5-12.1-4.9-13.9
	c-2.6-0.5-3.1-3.6-5.5-3.8c-0.5-0.1-1-0.1-1.5-0.2c-12.4-1.7-22.7-8.5-36.3-5.2c-0.1,0.1-0.1,0.2-0.2,0.2
	c-4.2,4.8-11.2,5.8-17.3,7.3c-12.4,4.1-24.5,9.2-36.7,14.2c-23.1,9.2-47,21.3-72.4,20c20.9-2.8,40.8-9.5,59.9-18.7
	c21.2-9.9,42.5-21.3,66.2-23c-22.8-7.9-86.5,36.3-118.5,38.5c-3.5,0.6-7,0.9-10.6,1c-7.1-0.4-14.7-20.5-17.5-26.9
	c-8.4-16.7-7.1-31.9,5.1-46.3c12.2-15.9,45.3-18.9,57.9-3c1.9,6.1-10.1-5.3-26.9-1.2c-15,3.9-29.2,19.8-25,36
	c1.6,9,8.5,18,17.8,19.9c28.4,1.1,62-39.8,86.4-54.9c21.4-16.2,38.1-21.7,60.1-2.5c5.5,5.9,7.8,14.4,13.1,20.3
	c-0.3-4.6-3.9-8.7-5.6-13c-0.2-1.9-5.7-7.1-3.1-8c10.8-6.4,26.8-12.9,37.7-3.6c11.9,9.6,22.6,20.3,33.6,30.9
	c11,10.5,28.2,31.5,43.1,15.2c-1.5,5.2-4.8,9.9-10.8,10.5c-1.2,0.1-2.4,0.6-3.2,1.4c9.2,5.9,16.5-8.9,16.6-16.9
	c1.4-12-2.2-25.6-13.3-31.9c-2.6-1.5-6.4-0.6-9-2.4c3.6-4,10-2.9,14.5-1.5c9,2.9,15.6,10.6,18,19.6c3.6,12.2,1.5,25.4-5.8,35.8
	c-5.3,9.4-27.2,4.8-35.3,1.2c-12.3-4.7-23.5-12.7-36.3-15.6c-3.8-2.5-5.8-4.8-10.8-3.1c-3.8,1.5-8.7,1.9-11.9,4.4
	c-0.2,0.5-0.4,0.9-0.8,1.3c-2.5,3.6-7.5,3.8-4.5,10.1c3.2,8-0.2,17.2,6.5,23.7c0.4,0.3,0.6,0.8,0.6,1.3c-0.3,2.7,1.9,4.6,3.8,5.7
	c0-0.9-0.2-1.7-0.6-2.4c-4.5-5.8,5.5-2.2,8.2-4c8.2-3.1,5.5-10.6,8.2-17.1c2.2-3.9,0-9.6-3.9-11.2c-0.6-0.3-1.4-0.4-2.1-0.3
	c-7.1,1.7-12,7-17.8,11c1-11.1-9.3-8.8,11.5-19.1c4.5-1.9,8.4-3.5,11.4,2c2.9,4.9,4.8,11.2,3.2,16.6c0.3,2,0.8,3.9,1.5,5.8
	c4,7-7.6,6.9-6.1,15.4c-0.1,2.8,1.8,6.3-0.8,8.4c-3.1,2.5-6.8,4.1-10.8,4.5c-9.1-0.1-17.5-5.7-26.8-5.7c-23.1,0.5-23.6,45.5-25.4,62
	c-58.5-28.8-32-4.7-38.6-63.2c-2.9,13.6-0.4,28-2.6,41.8c-1.5,7.1,17,11,22.3,14.5c5.7,2.5,11.2,5.4,16.9,7.9
	c3.5,0.8,2.3,4.4,2.5,6.9c-23.3-5-41.8-20.9-61.2-33.6c1.6,3.4,5.5,5.7,8.3,8.2c13.2,8.8,26,18.8,41,24.2c3.2,1.7,11,1.1,12.4,4.1
	c1.3,3.7,2.5,3.9,6.8,2.4c2.2-1.1,4.9-1.5,6.6-3.2c0.5-1.4,1.9-2.1,3.3-1.9l0.1-0.1c6.2,3.1,15.3,5.2,21.9,5.5
	c23,4.5,45.8-9.8,55.4-30.6c3.4,5.4,5.4,11.7,10.9,15.7c0.6,0.6,0.7,1.5,0.4,2.3c-4.3,8.5-8.5,15.4-18,18.6
	c-13,7-27.1,11.7-41.7,13.9c-33.1,5.1-67.9-3.3-97.7-18.4c-18-8.7-35.6-18.8-54.3-26.3C315.3,153.4,315.1,152.7,316.1,151.3
	L316.1,151.3z M479.1,75.7c-0.5-2.8,2-3.4,2.7-0.8c2.8,7,0.1,14.4-8.2,14.9c-1.7-0.6-3.1-0.7-4.4-1.4c-0.2-0.1-0.5-0.6-0.7-1.2
	C475.5,89,481.4,80.7,479.1,75.7z M284.3,177.3c3.8,3.4,1.4,7.7-2.9,9.1c-3.1,1.3-8.7,0-9.9-4.3
	C270.8,176.1,280.6,173.8,284.3,177.3z M228.9,218.1c1.9-15.1,10.7-30.2,26.7-33c2,0.1,14-4.1,13.8-2c3.4,11.9,26.4,4.9,17.1-7.1
	c-0.7-0.4-0.9-1.3-0.5-1.9c0.1-0.1,0.2-0.3,0.3-0.4c3.3-2.9,9.1,4.3,12.5,5.7c6.8,2.9-12.6,15-16.4,15c-13.1,2.8-28.2,3.1-34.9,16.8
	c-3.7,10.9-3.8,7.6-14.2,9.1C230.8,220.7,227.9,221.4,228.9,218.1z M229.8,224.8c3.3-5.1,15-0.1,17.7-7.1
	c7.6-21.6,25-15.5,41.7-23.3c5.4-2.7,9.6-6.9,13.2-11.7c2.8-4.5-5.6-6.7-8.2-9.2c-2.7-1.9,2.6-3.1,3.6-4.5c1.7-1.6,2.7-1.1,4.1,0.4
	c22.4,21.6,43.4,44.5,62.9,68.7c1.1,1.5,2.2,1.8,3.2,1.6c3.2-0.8,6.3-7.1,8.9-8.6c9.1-8.9,20.9-17.7,34.4-15.6
	c20.4,2.7,38.2,13.7,57.1,20.3c-0.1-0.3-0.3-0.5-0.5-0.6c-6.9-3.5-13.8-7-20.7-10.5c-34.4-15.4-51.5-19.5-78.1,11.5
	c-0.7,0.7-1.7,1.2-2.7,0c-5.7-6.7-11.4-13.3-17.2-19.9c-14.6-17.2-30.7-33.2-46.3-49.3c-2.6-2-2.9-2.4-1.1-4.9
	c2.9-3.4,4.8-8.9,9.6-9.8c0.8-0.2,2-0.1,0.9,1.2c0,0.1,0.2,0.4,0.4,0.5c47.6,22.7,94.5,47.3,141.4,71.5c5.1,2.6,10.1,5.5,15.1,8.3
	s10,5.6,15.2,8c4.9,1.5-3.2,11.6-3.6,15.2c-4.1,6.7-0.3,12.9-8.7,15c-9.3,3.8-18.8,6.9-28.5,9.4c-6.4,1-20.9,7.8-26,3.7
	c-13.7-7.3-20.7-21.4-28.7-34c-4.1-6.3-12.8-7.8-20-6.9l-2.4,0.4c-35.2,7.3-10.4,16.4-37.4-7.3c-16.2-12.9-35.5-24.6-57-21.9
	c-20.5,1.9-40.8,10.6-54.7,25.7C219.8,234.5,225.8,230.4,229.8,224.8z M271.1,400.2c-2.8-0.1-4.3-9.2-5.9-11.7
	c-6.5-14.5-14.3-28.5-23.3-41.6c-11.4-19-27.1-38.3-32.1-60.1c-1.3-5.5-1.9-11.1-1.6-16.8c0-6.9,1.5-13.7,4.4-19.9
	c7.1-8.6,15.3-17,25.6-21.9c27.7-14.9,59.1-14.1,83.8,6.3c30.2,26.5,18.6,13.7,3.6,38.3c-2.6,5.8-12,19.9-2,22.6
	c8.6,2.5,17.5,4.3,26.4,5.4c2.5,0,4.3-0.6,6.4-0.3c-8,4-15.6,8.5-23,13.5c-23.7,16-44.1,37.4-56.7,63.3c-1.4,3.6-4.6,8.4-1.9,12
	c3.8,4.6,9,8.5,12.3,13.5C281.6,402.7,276.2,401.3,271.1,400.2z M337.1,498.1c-3.2-15.7-10.5-30.2-18.5-43.9
	c0.2-0.1,0.3-0.1,0.6-0.2c9.8,14.3,29.5,38.5,45.4,44.8c-1-4.4-6.4-5.4-9.3-8.3c-19.1-15.2-33.2-36-47.1-55.5c-0.2,1-0.5,1.1-1,0.3
	c-7.5-9.3-12-20.7-20-29.5c4.1-2.1,9.4,7.8,12.9,10c15.8,14.1,30.6,28.5,48.4,40c4.6,3.8,10,5.8,14.7,9.3c3.3,1.8,4.8,1.3,7.3-1.6
	c4.8-5,10.1-9.6,15.8-13.6c31.4-22.2,64.6-42.8,93.6-68.5c0.1,46.9-2.8,94.1-16.8,139.1c-3.6,12-7.6,24-11.4,36
	c0,0.1-3.2,3.8-3.3,3.8c-2.7,2.3-4.5,6.2-8.5,5c-4-0.8-8.2-1.2-12.2-2.3c-2.8-1.8-1.2-5.5-6.5-6.1c-3.7-0.1-8.3-3.2-10.6,1
	c-4,1.6-16.5-5.3-21.8-6.2c-5.1-1.4,6.2-15.2-4.9-17.8c-9.8-2-27.2-13.1-34.4-2.4c-1.9,2.4-4.6-1-6.4-1.7c-2.6-1.6-2.4-4.3-2.8-6.7
	C338.9,514.7,340.2,506.1,337.1,498.1z M313.2,565.6c0.1,0.2,0.2,0.4,0.4,0.5c-0.1-0.1-0.2-0.1-0.4-0.1c-0.2-0.2-0.3-0.4-0.4-0.4
	H313.2z M323.6,581.9c-2.1-0.7-4.3-1.2-6.6-1.3c-6.2-0.4-6-9-4.1-13.4c0.2-0.1,0.4-0.2,0.5-0.4c-0.1,1.7,0,3.5,0.3,5.2
	c1.5-0.4,2.2-2.4,2.4-3.7c1.1-8.7,4.4-17,6.8-25.4c1-2.7,2-3.4,5.5-3.1c1.5,0.1,3.2-0.3,4.5,1.1c0.3,0.3,1.5-0.3,2.4-0.6
	c-4.2-4.4-13.7-5.4-15.1,2c-1.7,7.7-4.5,15.1-6.4,22.6c-1.9-12.4,5.4-28.9,9.6-40.7c2.3-4.1,3.2-11.2,9.2-8.9
	c3.4,0.4,5.5,0.8,5.4,5.1c0.4,2.8-0.1,6.4,1.3,9c-0.6,1.7-1.3,3.9-1.3,4.1c-0.6,2.2-1.1,4.3-1.6,6.4c-0.1,0.2-0.1,0.3-0.1,0.5
	c-2.5,10.5-4.6,21-7.2,31.4C327.8,574.7,328.2,583.3,323.6,581.9L323.6,581.9z M325,597.2c0.3-3.8,2.8-7.3,1.9-11.1
	c-0.1-0.4,0-0.8,0.1-1.1c5.2-7.5,5.2-17.4,7.9-26c1.1,0.7,2.4,1.3,3.6,1.7c2.5,0.8,2.7,2,2.2,4.3c-1,4.4-1.4,8.9-2.3,13.3
	c-1,6.1,3.8,7.8,8.4,10.1c2.2,7.1-12.8,14.7-18.7,15.9c-1.7,0.5-3.8-0.4-4.8,1.7C321.6,603.3,324.4,600,325,597.2L325,597.2z
	 M305.6,600c-7.5-9.9-17.4-18.6-30.7-18.3c-4-3.2,11.4-1.5,12.7-0.4c11,2.7,18.9,9.5,26.8,16.8c5,4.2,7.2,4.7,4.3,11.5
	C313.7,612.5,309.1,603,305.6,600z M309,625.4c1.3-3.1,1.5-14.5,6-13.5c2.8,0.8,19.5,2.2,19.1,4.8c-0.2,4.6,0.1,9.2,0.2,13.7
	c-4.5,1.1-10.3,5.5-14.1,7.1c-2,0.4-8.2,6.2-8.8,2.9C309.7,635.6,307.4,630.7,309,625.4z M312.4,673.6c-9.5-3-5.6-15.2-6.2-22.8
	c0.7-4.7-0.5-11.1,1.9-15c1.6,5,2.6,8.2,1.6,13.2c-0.1,3.1,0.5,6.8-0.4,9.7c2.1,0.4,2-1.2,2.2-2.5c1-5.4-1.1-11.8,5.4-14.2
	c2.8-2,13.6-6.7,17.6-10c0.1,1.2,0.1,2.4,0.1,3.6c-0.1,5.3-1.3,10.7-0.4,16c0,7.2-2,14.3-2.3,21.5
	C330.2,679.4,316.7,675.4,312.4,673.6L312.4,673.6z M296.4,858.2c-1.3-0.6-1-2-1.2-3.1c-1.5-8-1.8-16.1,0.4-23.8
	c1.3-3.8,2.2-11.3,6.1-13c4.1-1.8,8,0,12,0.9c1,0.2,1,0.3,0.4,1.2c-2,2.9-3.9,5.9-5.8,8.9C303,838.6,299.9,848.2,296.4,858.2
	L296.4,858.2z M341.8,831.1c-4.9,6.4-10.5,12.2-16.6,17.5c-7,6.7-15.6,10.1-24.6,12.6c-5.7,1.2,6.9-24,8.2-26.9
	c2.4-4.7,5.4-9,8.2-13.5c6.6-2.7,17.7,2.5,23.7,6.1C343.6,828.8,343.7,828.8,341.8,831.1L341.8,831.1z M356.1,807.1
	c-3.5,6.2-6.3,12.7-10.1,18.7c-0.3,0.8-1.2,1.3-2,1c-0.3-0.1-0.5-0.2-0.7-0.5c-3.8-4-9-5.6-13.9-7.7c-3.5-0.5-7-0.9-10.5-1.1
	c1.5-2.2,4.5-4.1,4.1-6.9c-2.2,0.5-3.5,2.9-4.9,4.6c-2.3,5-6.9-2.5-16.1,0.4c3.6-7.8,13.1-11.5,20.7-14.9c2.4-0.9,4.9-1.6,6.8-3.6
	c0.4-0.4,1.8-0.2,2.6-0.1c5.9,0.8,11.7,2,17.6,1.9c1.5,0.5,10.1-1.6,9.3,0.5C356.9,801.6,357.3,804.7,356.1,807.1L356.1,807.1z
	 M355,796.5c-5.2-0.2-10.3,0.7-15.4-0.8c-1.7-0.6-15.3-1.5-10-4.7c0-0.1-0.1-0.2-0.2-0.3c3.6,1.5,24.7,3.6,30.4,0.5
	c0,0.4,0,0.9-0.1,1.3C360.6,796.4,357.9,796.2,355,796.5z M559.2,827.5c-0.6-0.3-1.2-0.5-1.8-0.4c-4.8-0.5-9.8,0.2-14.5-1.3
	c-2.9-1-24-2.2-21.5-5.4c2.2-4.8,5-9.3,9.8-11.9c6.1-2,34.6,13.8,40,18.4C567.6,827.7,562.4,829.7,559.2,827.5L559.2,827.5z
	 M565.5,814.7c2.4,3.2,5.2,5.4,6.6,8.9c-10.1-5-19.6-11.1-30-15.4c-1.8-1.2-5.3-0.9-6.2-3C540.1,795.5,560.3,810.5,565.5,814.7
	L565.5,814.7z M537.2,801c-1.2,0.5-2.2,1.5-2.9,2.6c-2.1,4.2-5.5-1-8.4,1c0.6,0.2,1.1,0.6,1.7,0.8l2.2,0.4c-4,4.1-8.9,7.7-10.2,13.7
	c-0.4,1.7-1.3,2.2-2.9,1.8c-8-3.6-37.9-7.1-33.8-19.3c2.2-1.4,5.2-0.9,7.8-1.5c3.8-0.9,11.5-2.1,15.9-5.2
	C515.1,798.7,528.8,797.7,537.2,801L537.2,801z M480.1,795.4c4.9-2.2,11.5-0.3,16.6-2c4-1.5,7.1-2.9,10.7-4.4
	C509.3,794.8,477.8,803.1,480.1,795.4L480.1,795.4z M526.6,649.4c-0.1,6-0.9,12.1-1.3,18.2c-0.1,3.1-4.2,5.5-7,4.1
	c-2.8-8-1.7-17.4-2.8-25.9c0-2.4-0.9-4.1-0.1-6C521.7,647.9,526.8,645,526.6,649.4L526.6,649.4z M522.2,620.8
	c3.6-0.4,1.4,2.7,2.4,4.8c0.6,1.6,2.6,19.1,0.5,18.2c-12.8-5.4-10.5-11.5-11.7-23C516.4,620.8,519.3,620.8,522.2,620.8L522.2,620.8z
	 M511.1,625.6c1.7,14.8,2.7,29.7,3.5,44.6c0.1,8.2,0.1,16.5,0,24.7c-0.3,11.6-4,22.8-5.8,34.2c-3.1,12.7-6.5,25.6-5.7,39
	c0,2.7-0.8,5.9,0.3,7.9c1.5,2.4,0.1,5,1.8,7.2s0.8,4.3-2.2,5.2c-7,1.6-18.3,7-24.4,2c-7.2-35.6-24.5-68.1-43.4-98.8
	c-5-7.2-8.5-15.5-14.8-21.7c0-2.5,3.8-3.2,4.9-5.4c-4.7,1-9.1,3.2-12.8,6.2c-8.5,6.6-15.2,16.8-21,25.1
	c-13.3,19.9-22.8,42.1-27.9,65.4c-2,9-3.3,18.1-3.8,27.3c-1.2,0-2.4,0.2-3.6,0.5c-5.1,1.9-10.6,2.2-15.9,0.8
	c-1.8-0.3-3.8,0.5-5.5-0.3c-0.3-0.1-0.5-0.2-0.8-0.2c-0.6-0.1-1.3-0.2-1.9-0.3c-0.3-0.1-0.6-0.2-0.9-0.3c-0.3-0.1-0.5-0.3-0.8-0.5
	c-1.7-1.5-1-4.2-0.8-6.4c0.4-4.8,0.4-9.5,0.1-14.3c-0.1-2-0.3-4-0.8-6c-0.6-1.8-0.9-3.6-0.8-5.5c0-0.2,0-0.4,0.1-0.6
	c-3.5-20.7-8.2-41.2-9.8-62.2c-0.5-4.6-1.7-9.1-1.1-13.7c6.2-3.4,16.1,3.5,17.1-8c0.3-1.9,0.5-3.8,0.6-5.7c1.8-16.6,2.2-33.3,1.1-50
	c-2-5.2-10.5-3.3-14.6-6.2c0.4-0.8,0.9-1.6,1.3-2.4c-0.1-0.2-0.2-0.4-0.4-0.5c10.4,1,20.9-4.9,26.1-13.7c1.9-3.1,1.9-2.7,5.5-1.3
	c4.6,1.8,9.2,3.9,14.4,3.7c16.9-1.4,8.2-17.7,16.3-13.3c5.2,2.2,11.1,3.1,16.1,5.7c-12.8,10.5,5.2,27.2,17.3,19.9
	c4.7-1.9,8.2-8.7,5.5-13.7c4.8-0.8,10.2,1.5,15.2,1.8c5.7,1.5-1,6.1,12.5,4.6c-3.4,4.5-2.8,10.8-4.4,16.1c-2,11.6-5.9,22.5-9.9,33.5
	c-1.8,5.4-6.4,9.4-11.9,10.3c-0.8,0.1-1.4,0.6-1.7,1.3c0.7,0.2,1.4,0.4,2.1,0.5c2.7,0.1,4.8-1.7,7.2-2.7c2.9-1,4.2-3.8,5.3-6.4
	c7.7-16.2,11.1-33.8,13.8-51.3c1.1-3.6,15.6-1,16-5.5c0.6-0.9,1.1-1.9,1.5-2.9c1.4-0.3,2.8-0.7,4.1-1.1c4.8-2,10.3-3.1,14.7-6
	c1.3,7.5-0.7,12.1,9.6,10.5c1-0.1,1.1,0.3,1.2,1.2c0.3,7,1.7,16.6,9.9,18.4C511.4,617.3,510.3,623,511.1,625.6L511.1,625.6z
	 M509.8,613.1c-7.3,0.1-7.8-11.2-8.4-16.5c-0.1-3.6,5.4-5.3,7.9-7.2v0.7c-0.1,2.4-0.3,4.9-0.4,7.3
	C509.3,603,507.8,608.2,509.8,613.1L509.8,613.1z M495.4,594.2c-3.7-0.2-4.3-0.6-4.3-4.5c0.1-13.6,0-27.2-0.5-40.8
	c-0.6-5.2,1.1-10.2,6.3-12.1c5.3-1.5,18-12.8,19.4-2.4c-0.4,9.8,0.8,19.9-0.6,29.5c-2.9,4.4-8.5,6.4-12.8,9.4c-2.7,1.6-4,0.8-4-2.3
	c-0.1-6-0.3-12-0.5-18.1c-0.3-4.6,1.5-9.3-2.9-12.1c-0.8-0.2-1.8,0.6-1,1.5c1.7,1.2,1.7,3,1.7,4.6c1.2,19.2-6.5,43.3,19.5,20.2
	c-0.2,5.4,2.2,12.6-2.6,16.3C507.2,586.8,502.5,593.5,495.4,594.2L495.4,594.2z M527.4,513.9c3.9,2.2,0.7,7.7,1,11.2
	c-1,9.5-2.2,18.8-4.1,28.1c-1.3,7.3-2.5,14.8-4,22.1c-1.2,4-0.9,9.1-5.5,10.4c2.7-3.3,3.9-7.6,3.4-11.8c0-5.6,0.8-11.2,0.8-16.8
	c-0.1-9.6,0.6-18.2-0.7-27.3c1.3-3.1,1.8-6.4,2.5-9.8C523.4,513.3,520.1,509.5,527.4,513.9L527.4,513.9z M524.3,494.7
	c-3.2,10.5-5.4,21.3-6.5,32.2c-0.1,0.8,0.3,2-1.2,1.6c-9-2.4-16.2,4.8-23.6,8.5c-5.4,3.2-3.8,10.2-4.5,15.5
	c-1,2.8-12.6,5.7-15.8,7.5c-1.3,0.4-2.7-0.2-3.2-1.5c-0.1-0.4-0.2-0.9-0.1-1.3c1.5-5.5,3.3-11,5-16.5c4.6-16.7,10.1-33.1,13.6-50
	c9.4-36.4,8.1-74.5,7.8-111.6c16.6,10.1,33.7,20.1,52.7,25.3c9.2,3,18,3.8,27.3,5.7C552.7,434.1,535.1,463,524.3,494.7L524.3,494.7z
	 M653.9,367.9c0.1,0.1-0.2,0.3-0.3,0.5c-2-2.3-2.7-5.7-6.1-6.6c0,5.2,9.5,8,5.8,14.1c-2.8-2.6-4.8-7.1-8.6-8.3
	c0.8,4.1,5.4,6.4,7.7,9.7c1.3,2.6,0.6,6.5-0.4,9.2c-2-1.9-2.5-5.7-5.4-6.5c1.6,5.4,10.1,15.2-0.1,16.4c-2.2,0.1-10.3,4.2-11,1.7
	c0-1.3-1.1-2.1-1.9-3.1c-0.9,1.7,0.6,5.7-2.2,4.8c-2.1-1-2.9-4.1-5.2-4.8c-0.4,2,1.7,3.9,2.3,5.7c-0.7,1.3-4.2,1.1-5.1-0.1
	c-1-1.6-1.7-3.3-3.8-3.3c0,2.4,4.5,5.4-0.1,5.7c-5.8,1-11.6,2.1-17.4,3.1c-8.9,0.1-17.8,0.4-26.7,0.8c-30.8-2.4-59.4-16.9-84.6-34.1
	c-1.7-1.1-1.7-1.7-0.4-3.2c6.8-7.6,13.5-15.2,19.9-23c4-4.7,7.5-9.8,11.2-14.7c2-2.6,1.5-0.6,3.1,0.9c0.3-3.5-1.4-4.5,1.9-7.6
	c2.3-2.9,2.3-4.8,5.7-1.8c0.1-0.4,0.2-0.8-0.1-1.2c-2.7-2.8-0.6-4.8,1.1-6.8c3.1-5.3,2.2-4.6,7.4-2.5c-4.7-4.7-2.5-4.9,0.3-9.7
	c0.5-0.6,0.9-1.4,1.7,0.1c0.6,1.3,2,2.2,3.1,3.3c1-2.6-4.6-5.2-2-7.8c3.7-4.3,1-5.9,7.1-2.9c0.5-1.7-2.7-3-2.4-4.2
	c0.8-2.5,2.1-5.8,5.5-5c0.8,0.2,1.6,1,2.5,0.5c-0.6-1.8-5-3.5-1.8-5.3c11.2-3.9,23.1-7,35.1-7.1c31.4,3.4,33.5,6.2,51.2,30.7
	c6.8,8.9,6.6,20.6,8.9,31.1c0.7,2.9-0.5,6.6,1.6,9c1.9-3.4-2.1-15.3,0.5-18.5c2,6.1,1.9,13,2,19.4c-0.4,3.8,1.3,7.7-0.6,11.2
	c-0.1,0.4-0.1,0.8,0.1,1.2C655.5,361.8,653.2,365,653.9,367.9z M650.6,325.8c-0.8-16-20.2-45.1-36.1-48.8c-5.7-1.1-11.4-3.5-17.2-4
	c-0.5-0.3-1.2-1-1.1-1.5c1.7-11.7,3.6-23.3,5.7-34.9c0.5-6.3,0.2-12.8,0.2-19.1c0-0.7-0.6-1.3-1-2c-2.3,5.2-0.5,11.5-1.5,17.1
	c-0.8,5.4-0.5,11.4-2.4,16.4c-1.4-2.6-0.5-5.9-1.1-8.8c-1-10.3-4.3-20.1-7.6-29.7c-2.2-4.2-3.5-10.8-7.8-13.3
	c3.1,9.4,8.5,18.6,10,28.8c2,10.3,4.6,20.5,4.4,31c-1.8,15.9,2.5,16.1-13.1,15.7c-10.8,1.4,3.8-1.7-1.1-18.4
	c-0.8-3.8-1.5-7.8-2.6-11.5c-1.3-4.3-1.4-6.3-6.6-5.1c-5.6,1.1-11.3,1.8-17,2.2c-8,2.3,0.2,12.7-0.9,18.1
	c-6.6-6.2-15.7-13.4-25.1-8.6c-11,4.1-21.8,8.5-32.6,12.9c-3.4,1.6-0.6-6-0.8-7.8c1.5-5.8-0.4-12.6,4.1-17.2
	c9.2-12.4,19.5-17.2,34.9-16.1c4.2-0.2,10.5,3.8,11.2-2.9c1.3-7.9,3-15.8,4-23.8c3-13.5-1.3-14.8,8.5-10.6c8.3,3,16.3,6.5,24.1,10.6
	c23.7,13,29.8,27.9,45.6,60.7c7.8,16,15.2,32.2,21.6,48.9c2,5,4.8,9.9,6.1,15.2C655.4,321.6,652.4,324,650.6,325.8z M565.6,53.3
	c1.2-5.5,0.2-12-0.2-17.7l-0.2,0.6c-0.3,1.5-0.6,3-0.9,4.7C564.9,45.2,563.8,49.6,565.6,53.3z M558.6,60.9c3.4,4.8-6.4,9.4-7.8,13.2
	c4.1-1.1,7.4-5.1,10.4-8.1c1.3-3.2,5.7-7.5,4.5-10.9c-2.2,2.8-2.2,7.3-5.2,9.2c-0.3-2,0.8-3.9,1.1-5.8c1.7-5.7-2.5-6.7-0.7-15.4
	c-0.8-2.5-0.5-5.2-2-7c-1,23.7,6.4,14-8.5,34.9C553.3,70.1,556.5,63.6,558.6,60.9z M562.5,35.1c-2.4-3.5-3.6-9.1-7-11
	c1,5.2,4.7,9.8,7.3,14.4C562.7,37.5,562.7,36.5,562.5,35.1z M530.9,198.8c1.3-0.6,2.9-0.4,4,0.4c4.1,3,1.3-4.4,4.1-6
	c2.2-1.8,1.2-3.5-0.6-4c-3.6-0.2-5.9-7.4-6.6-3.8c-0.8,3.9-7.5,2.2-5.6,5C529.6,194.2,527.1,199.6,530.9,198.8z M529.6,190
	c1.5,0.8,2.9-2,4.4,0c2.3,1.3,4,0.5,1.8,3.5c-0.4,1,0.4,2.7-0.1,3.9c-0.9-1.5-2.6-2.1-4.3-1.6c-1.9-0.4,0.3-3.8-3.1-4.6
	c-0.2-0.1-0.3-0.4-0.4-0.7C528.5,190.4,529.2,189.9,529.6,190z M523.1,213.2c0,0.2,1.2,1.2,1.5,1.1c3.8-2.3,5.5,1.8,7.3,0.4
	c-1.5-3.4,4.9-8.1,1.5-9.6c-2.2-0.6-4.1-2-5.2-4c-2.5-3.2-1.8,3.4-5.8,2.6C517,203.6,524.7,210,523.1,213.2z M523,206.6
	c-0.2-0.1-0.2-0.6-0.4-0.9c2.4-0.1,4.3-1.7,6.4-0.1c0.9,0.8,3,0.1,3.1,1.7c-1.7,1-2.3,2.2-2,3.9c0,0.4,0,0.9-0.1,1.3
	c-1-1.1-3.2-1.1-4.5-0.7C523.5,213.1,526.6,208.2,523,206.6z M417.5,189.9c-23.5-5.7-44.4-18.7-64.7-31.2
	c43.7,39.7,123.5,53.6,167.2,6.7c-11,6.3-20.1,15.5-32.5,20.1C465.3,194.7,440.7,194,417.5,189.9z M507.6,566.3
	c11.5,1,4.3-22.1-3.1-9.7C504,559.8,504.4,564.9,507.6,566.3z M507.2,557.3c1.1-1.7,2.7-1.2,3.7,0.6c0.1,1.5,0,3-0.3,4.4
	C507.4,566.3,506.5,559.5,507.2,557.3L507.2,557.3z M509.3,99.1c-0.7-0.4-1.4-0.7-2.1-1c-4.4-0.8-9-1.2-11.6-5.7
	c-0.6-1-1.3-1-1.3-0.1C495,98.7,504,101.4,509.3,99.1z M488.9,784.6c4.8-0.2,18.9-53.6,16.3-58.1C499.6,745.4,495,765.5,488.9,784.6
	z M483.9,128.4c9.2,9.6,14.7-9.8,11.7-16.1C487.2,103.7,477.9,120.9,483.9,128.4z M468.9,48.2c1.6-0.5,3.2-1,5-1.5
	c8.6-2.3,17.5-2.3,26.1-3.8c-5.3-3.2-27.7,0.3-31.7,5.1C468.5,48.1,468.7,48.3,468.9,48.2z M464.1,43.8c8.2-2.6,16-5.5,24.7-6.6
	C484.2,33.9,467.3,39,464.1,43.8z M462,39c0.5-0.1,1-0.2,1.5-0.4c2.3-1.3,4.7-2.6,7.1-4.1c4.6-2.5,9.3-4.7,13.8-7.3
	c-0.6-0.6-1.5-0.7-2.2-0.2C475.4,30.7,466.4,32.4,462,39z M450,665.2c-3.4,0.1-9.8-2.9-12.2-0.1c0.3,0.3,0.7,0.5,1.1,0.6
	c4,0.6,7.9,1.3,11.9,2c9.1-0.7,22.1,2.2,29.6-2.5C470.5,664.6,460.1,666.3,450,665.2z M479.1,98.6c0.3-0.1,0.4-0.2,0.5-0.3
	C470.6,93.7,472.2,98.3,479.1,98.6z M471,644.8c-10.7,5.3-21.6,9.9-32.3,15.1c0.1,0.1,0.3,0.2,0.4,0.2c-0.2,0-0.4-0.1-0.5-0.2
	C438.4,663.2,472.4,648,471,644.8z M469.8,101.1c-0.1-0.3-0.2-0.7-0.3-1c-1.9-2-3.8-4-5.7-6.2c-2.3-1.3-4-4.2-6.7-4.1
	C457.2,92.5,467.1,99.6,469.8,101.1z M467.6,25.4c0.8-0.1,1.3-0.2,1.8-0.4C465.8,20.6,450.5,28.6,467.6,25.4z M465.9,19.6
	c0.5-0.2,0.8-0.8,1.1-1.1c-1.5-1.3-6.9,0.9-7.9,2.4c0.6,0.3,1.2,0.4,1.8,0.6C462.7,20.8,464.3,20.2,465.9,19.6z M449.4,114.3
	c-13.6,5-1.5,28.9,10.6,22.5C473.3,130.1,462.6,109.5,449.4,114.3z M465.2,50.3c0-0.1-1.3-0.2-1.3-0.1c-0.1,4.6-2,1.5-2,4.7
	c0,1.2,0.2,2.5,0.4,3.7c0.2-0.1,0.4-0.2,0.6-0.4c1.2-0.9,1.3-2.3,1.8-3.4C467.4,53.6,465.2,51.8,465.2,50.3z M387,173.4
	c22.3,11.2,48.1,11.4,72.6,9.9c2-0.6,3.7-0.8,5.3-1.8c-9.2-1.1-18.8,1.8-28.2,0.6c-9.8-0.3-19.5-1.4-29.1-3.3
	c-21.2-4.5-38.3-19.1-56.6-29.8C360,160,375.1,165.5,387,173.4z M461,50.2c-0.6-2.3-1.1-4.3-1.9-6.4c-0.1-0.4-0.7-0.8-1.1-1.2
	c-1.4,2,0.4,4.7-0.3,6.6c-0.7,1.4-0.8,2.9-0.5,4.4c0.3,1.3,0.9,2.5,1.7,3.6c0.3-0.6,0.4-1.3,0.5-2V55
	C459.6,53.3,459.1,51.5,461,50.2z M455.1,48.9c0.1-2-2.7-6.5-4.6-7.6c-0.2,0.7-0.2,1.3-0.2,2c0.4,1.5,1.1,2.9,1.7,4.7
	c0.3,1.2,1.1,2.4,0.8,3.1c-0.3,0.8-0.3,1.7-0.2,2.5c0.4,2,1.6,3.8,3.2,5c0.2-1.4-0.1-2.9-0.7-4.2C454.5,52.7,453.7,51,455.1,48.9z
	 M454.7,16.7c-0.5,0.1-1,0.3-1.4,0.6c-1.4,1-2.2,2.8-2.1,4.5c1.2-1.1,2.4-2.4,3.4-3.7C454.8,17.8,454.6,17.2,454.7,16.7z M447,94.6
	c-7.2,3.4-15.9,7-20,14.1c11-5.7,23.2-19.3,35.8-9.4C459.5,93,453,91.9,447,94.6z M415.8,99.1c9.4,3.1,21-0.2,25.8-9.1
	c2.9-5.4,9.3-0.6,12.1-8c1.5-3.5-5.7-1.7-7.6-2.9c-16.1-5-29.8-22.8-43.2-2c2.6,2.9,1.3,6.4,2.2,9.7
	C406.8,92.5,409.9,96.9,415.8,99.1z M421.5,78.1c-3.4,8.4,7,14.6,12.9,8.7c0.7-1.4,2.2-2.1,3.8-1.8c-0.1,0.6,0.1,1.5-0.3,1.9
	c-5.5,6.6-14.9,6.4-19.9-1.3C413.7,74.6,423.7,72,421.5,78.1L421.5,78.1z M407,77.4c1.5-2.4,6.5-3.8,9.4-2.7
	c-3.1,5.3-1.9,12,2.7,15.9c9.6,7,15.2,1.6,22.1-3.9c-5.8,10.3-18.8,15.2-29.1,7.7C407.1,89.5,406.2,83.7,407,77.4z M444.2,43.7
	c0.6,4.3,4,7.7,5,11.8c-3.6-0.3-6.6-4.5-10.4-3.7c0.1,0.3,0.2,0.6,0.5,0.9c1.5,1.3,3.1,2.5,4.9,3.8c3.6-1,5.2,2.6,8.4,3
	c-0.7-1.7-1.2-3.5-1.6-5.3C449.8,49.7,448.8,45.3,444.2,43.7z M437.2,597.4c-1,1.1-1.4,2.6-1.2,4c-1.3,7.5-2.5,14.9-4,22.4
	c-3.1,13.1-7.4,25.9-11.3,38.7c5.5-2.4,11.5-31,13.1-38.1C434.7,618.5,440,601.5,437.2,597.4z M436.1,24.7c-0.3-1-0.6-2.1-1-3.1
	c-0.1-0.3-0.7-0.4-1.1-0.8c-0.5-0.8-0.6,0.6-0.6,0.8C434.3,22.6,434.6,25.1,436.1,24.7z M429,21.4c-1.3-1.4-1.9-4-3.9-3.9
	C424.4,19.2,427.2,21.4,429,21.4z M418.8,24.3c8,2.4,14.5,7.5,22.1,10.8c-5.5-6.8-15.5-11.5-24.3-12.8
	C415.2,23.9,417.9,23.7,418.8,24.3z M421.4,20.2c-0.2-0.4-0.5-0.8-0.8-1.2c-1.3-0.7-2-1.6-3.4-0.7C418,19.9,419.7,20.7,421.4,20.2z
	 M410.2,103.6c-0.5,0.1-1.1,0.1-1.6,0.3c0.5,1,1.4,1.7,2.5,1.8c5.8,0.1,12.4,1.1,16.8-3.4C422.1,102.8,416.5,104.9,410.2,103.6z
	 M405,29.4c-5.9,1.5-12.6,2.3-17.3,6.3c3.2,0.6,5.9-1.7,8.9-2.2c5.1-1.2,10.3-2.1,15.5-2.7c9.4-1.1,17.5,5.2,25.9,8.3
	C429.9,29.7,416.9,28.1,405,29.4z M385.8,42.2c-6.1,2.3-13.6,4.2-17.9,9.2c0.3-0.1,0.7-0.1,1.1-0.3c2.5-1.2,5.1-2.2,7.8-3.5
	c26.9-10.8,33.8-6.3,60.2-2.9C421,38.3,402.3,36.7,385.8,42.2z M363.6,649.7c-2.9-1.8-9.2-2.9-3.3,1.2c6.3,2.1,21.2,8.3,31.9,10.5
	c2.2,0.5,4.4,0.8,6.6,0.8c1.2,0.1,2.3-0.1,3.5-0.5c-3.7-2.9-9.2-2.3-13.6-3.7C380.2,655.9,371.8,653.1,363.6,649.7z M398.4,14.2
	c-0.4-0.2-0.9-0.3-1.3-0.3c-1.3,0.4-2.9-0.9-3.6,1C395.1,14.9,398.1,16.8,398.4,14.2z M379.9,666.9c-10.2,0.4-20.5,0.8-30.9,0
	c-0.9-0.6-2-0.5-2.8,0.1c0.1,0.3,0.3,0.7,0.5,0.8c0.9,0.4,1.8,0.6,2.8,1.1c10.7,2.3,33.9,2.1,43.5-2.5c-0.6-0.2-1.3-0.4-1.9-0.5
	C387.4,665.3,383.6,666.5,379.9,666.9z M393.9,505.5c-1.5-3-4.9-3.7-7.5-5.4c-5.4-3.1-10.7-6.1-15.8-9.4
	c-12.4-8.2-23.7-17.8-34.9-27.4c-2.4-1.5-4.2-4.7-7.1-5c3.5,6.8,11.4,11,16.8,16.3c9.9,8.3,20.4,15.8,31.4,22.6
	C382.6,500,387.7,504.6,393.9,505.5z M374.7,98.5c1.4-1.4,1.9-3.6,2.9-5.7c-0.3-2.6,0.6-5-0.6-7.1c-2.6,4.4-0.2,12.8-8,12.3
	c-2,0-4-1.2-6-0.3C365.5,100.9,371.5,101.6,374.7,98.5z M373.1,582.7c0.2-2.4,1.5-4.4,0-6.4c-2.7,2.7-2.6,7.3-3.1,10.9
	C372.1,590.9,372.5,584.3,373.1,582.7z M370,213.9c2.3-7.6-4.1-1-7-5.4c-0.2-0.2-1.3,0.1-1.3,0.1c0.2,2.9-1.3,4.7-3.2,6.5
	c-3.1,3.1,4.6,3,4.1,7.9c0.1,0.5,0.7,1,1.1,1.5c1.7-1.5,2.1-3.9,4.9-3.6C372.6,221.4,369.6,216.5,370,213.9z M367.6,218.8
	c-3.8-1-2.2,4.5-4.3,2c0.5-2.3-0.6-3.3-2.2-3.8c-0.4-0.1-0.7-0.3-1-0.5c5.9-4.7-0.1-5.4,7.8-3.9
	C365.9,217.3,370.2,218.9,367.6,218.8L367.6,218.8z M351,555.7c-1.5,3.3,0,7.2,3.3,8.7c1.9,0.9,4.2,0.8,6-0.3
	C368.4,557.5,356.5,547,351,555.7z M359.4,561.6c-5.3,2.9-8.7-4-4.3-6C359.2,554.1,362,558.1,359.4,561.6L359.4,561.6z M357.9,204
	c-1.6-2.4-0.4-4.9-0.1-7.2c0.6-2.1-3.8-0.3-5.1-0.6c-0.9-0.6-1.5-1.4-2.3-2c-0.3-0.2-0.9-0.4-1.3-0.6c-1.1,2.4-0.3,5.4-3.1,7
	c-1.4,0.8-1.3,3.1,0.2,3.5c4.2,0.8,2.9,7.1,5.3,5.2c1.8-0.8,2.4-3.4,5-2.9C358.5,206.6,358.4,204.7,357.9,204z M354,204.3
	c-1.8-0.1-1.2,2.4-2.5,3.1c-1.2-2-0.2-4.5-3.7-4.5c-0.3,0-0.6-0.5-0.9-0.8c0.3-0.2,0.6-0.6,0.9-0.7c3.6-0.4,1-5,3.4-3.4
	c4.2,1.7,4.9-2.6,3.8,4.3C355.5,203.6,355.9,204.4,354,204.3L354,204.3z M325.6,719.4c-1.1,2.4,0.8,6.1,1.5,8.6
	c4.4,10.3,8.8,20.6,13.5,30.8c1.3,1.9,9.3,20.8,11.2,17.5c-8-15.9-15.4-32.2-22.4-48.7C328.3,724.8,328.1,721.5,325.6,719.4z
	 M346.2,190.3c-1.1-2.6,1.9-8.5-2.9-7.3c-1.4,0.3-3,0-4.1-0.9c-0.5-0.5-1-0.9-1.5-1.3c-1,2.2-0.3,4.8-2.5,6.5
	c-2.5,1.8-2.5,2.9,0.3,4.5c1.7,1.4,3,3.4,3.4,5.6c0.6-0.4,1.3-0.8,1.7-1.3C341.7,192.1,348.1,195.2,346.2,190.3z M342.7,191.7
	c-1.9,0.6-3.1,0.5-4.1-0.9c-0.7-0.5-2.4-0.3-3.3-0.9c0.3-0.4,0.5-1.1,0.9-1.3c2.7-0.4,1.9-2.9,2.8-4.8c0.8,1.6,3.1,1.9,4.7,1.5
	c0,0.5-0.1,1.1-0.2,1.6C341.4,188.9,346.8,192.3,342.7,191.7z M301.5,305.4c13.8-3.4,28.4-1.6,42.2-3.3c-2.9-1.3-6.2-1.3-9.3-1.5
	c-11.4,0.1-22.5-0.2-33.6,2.7c-1,0.6-1.8,1-2.7,1.5C299.3,305,300.5,306,301.5,305.4z M335.7,178.9c-0.4-1.6-0.5-3.2-0.2-4.8
	c1-6.7-3.8-0.2-7.5-5.2c-1.6,2.9-3.2,5.4-5,8.4c0.6,2.7,3.4,2.1,4.1,4.9c0.4,2.7,1.9,2.9,4,1C332.7,181,336.9,182.6,335.7,178.9z
	 M331.3,179.7c-0.8,0.6-1.7,1.8-2.7,2.2c-0.5-4.5-0.1-2.9-3.8-4.7c0.2-0.4,0.4-1,0.8-1c2.5-0.1,2.9-2.9,2-4.3c0.1,0,0.2,0.1,0.4,0.1
	c1.5,0.7,2.8,2.2,4.6,1.1c0.8,1.4,0.3,2.3,0.1,3.5C333.4,178.3,333.3,179.4,331.3,179.7z M314.5,312.9c-15,3.4-29.4,8.3-42.2,16.8
	c-0.7,0.5-1.4,0.9-2.1,1.4c-2.5,2.5-6.1,4.1-6.9,7.5c3.5,0.1,5.1-3.6,7.8-5.3c17.8-12.5,39.7-17.3,60.3-21.9
	C328.5,308,318.9,312.4,314.5,312.9z M274.5,61.3c-0.1,0.2-0.4,0.5-0.4,0.6c0.1,0.5,0.3,1,0.5,1.6c0.8,4.7,12,16.3,16.5,15.8
	C285.4,73.5,278,69.1,274.5,61.3z M270.3,326.6c1-0.5,1.7-1.4,2.1-2.5c5.1-8.2,8.2-17.4,11.7-26.5c1.6-9.4-4.7-18.7-7.4-27.7
	c-10.5-21.8-3.2-29.3-27.2-17.7c-12.3,6.1-21.8,16.2-29.6,27.3c-1.1,1.5-2.3,3.4-1.8,5.4c0,0.3,0.1,0.6,0.2,0.8
	c4.8,10.4,10.6,20.1,16.3,29.8c4.4,10.3,16.3,9.3,25.6,10.9C263.4,326.5,267.5,328.1,270.3,326.6z M254,323.1
	c-5.6-1.2-12.9-0.8-15.8-6.6c-5.7-10.1-11.4-20.1-16.8-30.4c-2-12.4,29.6-33.9,40.9-36.3c2.7-0.9,3.5-0.6,4.4,1.9
	c4.1,10.3,8.3,20.4,12,30.7c1.5,4.3,4.3,8.8,3.1,13.6c-2.7,9.7-7.1,18.1-11.5,27C268.5,327.2,258,323,254,323.1z M277.6,291.3
	c-3.6-11.5-8.4-22.4-13.1-33.5c-0.5-1.6-2.1-2.6-3.8-2.2c-0.1,0-0.3,0.1-0.4,0.2c-13.7,4.4-25.4,13.4-33.2,25.5
	c-2.5,4.2,3.8,11.1,5.1,15.6c5.4,7.6,8.5,23.6,20.6,20c5.9-5.5,12.7-9.5,19.8-13.1C275.9,301.9,278.9,294.8,277.6,291.3z
	 M243.7,273.4c2-1.9,2.3-1.7,3.8,0.5c3.1,4.4,3.4,14.1-0.4,17.5c-2.4,0.1-5.3-4.6-7.8-6.3C239.7,280.9,240.1,276.6,243.7,273.4
	L243.7,273.4z M250,311.4c-7.3,4.6-15.1-16.1-16.8-21.4c-0.3-0.8-0.7-1.1,0.6-1.5c1.1-0.3,0.9-0.2,1.3,0.8c1,2.8,2.4,5.5,3.7,8.2
	c2.2,4.7,5.6,8.7,9.9,11.5C249.7,309.6,250.8,310.4,250,311.4z M264.3,299c-1.7,1.1-3.2,2.4-4.8,3.5c0.4,0.1,0.8,0.1,1.2,0
	c0.6,0,1.1-0.1,1.7-0.2c-2.2,2.8-7.6,4.6-10.4,2c-5.8-3.7-11.3-9.5-13.1-15.9l0.2-1.2c8.4,16,17.6-8.1,9-14.8
	c1.9-1.3,6.6,3.2,6.2-0.4c-0.4-1.3,0.7-1.8,1.4-2.5c2.6,2.6,1.1,7,2.8,10.1c2,4.9,4.7,9.6,7.1,14.3
	C267.1,297.1,267.1,297.1,264.3,299z M258.5,275.6c4.1,1.2,8.1,10.8,7.9,15.1c-0.6-0.4-1.2-0.6-1.5-1.1c-0.8-1.6-1.5-3.2-2.3-4.9
	C261.2,281.2,259.1,278.9,258.5,275.6L258.5,275.6z M260.5,271.1c-0.8-0.9-1.2-2.1-1.3-3.3c3.7,0.3,7.3,9.5,10.1,12.6
	c1.6,5.1,3.3,9.8,4.8,14.6c0.3,1.6-1,3.2-2.6,3.8C269.3,288.8,267.7,279,260.5,271.1L260.5,271.1z M272.7,31.6
	c0.8-3.1,3.1-6,2.4-9.3c-0.5,0.4-1.1,0.8-1.3,1.4c-1.2,3.1-2.3,6.2-3.5,9.4c-0.2,1.4-0.1,2.8,0.1,4.2
	C271.9,35.9,271.8,33.3,272.7,31.6z M268.2,26.8c-5.2,10-0.6,22,0.6,32.6c2.1,9.4,9.1,17.8,17.1,22.8c-3.8-6.1-9-10.7-13.1-16.8
	C268.1,53,267.8,39.7,268.2,26.8z M261.1,40.9c-1.7,3.8,1.3,8.5,1.5,12.6c-1,4.3,1.1,8,2.8,11.9c2.2,3.8,3.5,9,6.8,12
	c0.1-0.4,0.4-0.9,0.3-1.2c-0.5-1.2-1.1-2.3-1.8-3.7C266,62.2,264.4,51.2,261.1,40.9z M263.5,56.2c0.2-0.1,0.2,0,0.2,0.1
	S263.6,56.2,263.5,56.2z M256,318c0.7,2.2,6.4,1.5,8.7,2.4c2.2,0.4,3.5-0.8,4.5-2.8c0.8-3.1,3.4-6.2,2.8-9.3
	C265.6,309,260.4,313.7,256,318z M264,318.3c-1.5-0.8-3.6,0.1-4.9-1.1c3.3-2.5,6.7-4.6,10.4-6.5c-0.1,0.7-0.2,1.3-0.2,2
	C267.4,314.7,267.5,319.6,264,318.3L264,318.3z"/>
<path class="st9" d="M399.7,194.8c23.5,12,46.5,24.4,70.1,36.7c3.5,1.2,16,10.3,18.2,8.5c10-19,21-37.8,30.5-56.9
	C481.6,206.1,440.3,207.1,399.7,194.8z M441.2,86.7c-6.8,5.5-12.4,10.9-22.1,3.9c-4.6-4-5.8-10.7-2.7-15.9c-2.9-1.1-7.9,0.3-9.4,2.7
	c-0.7,6.2,0.2,12,5.2,17C422.4,101.9,435.4,97.1,441.2,86.7z M334.1,295.8c12.4,2.5,25.1,4.6,37.2,0c4.7-1.6,13.5-1.8,16.8-4.9
	c0.1-3,0.6-6.2-0.2-9c-2.2-8.7-12-8.9-19-11c-9.8-3.1-38.5,15.4-47.7,21.1C324.6,294.5,329.7,294.2,334.1,295.8z M321.3,289.7
	c7.3-5.7,15.4-10.5,24-14.1c4.3-3.4,12.2-3.8,15.6-8.1c0.2-7.8-2.9-12-9.8-14.9C336.5,256.7,324.4,275.4,321.3,289.7z M259.6,572.1
	c0.8,0.7,1.6,1.3,2.5,2.1c0.3,0.4,0.6,0.9,0.8,1.3c-1.3,1.3-3.4-0.3-4.3,0.1c-1.9,1.9-3.8,0.8-5.8,0.8c-6-0.2-11.3,2.5-16.3,5.5
	c1-0.1,2.2-0.2,3.2-0.3c0.4,0,0.7,0.1,1.1,0.1c-3.7,5-9.8,10-10.4,16.2c1-1.2,2-2.8,3.5-3.2c-0.1,2.5-1.9,4.7-1,7.4
	c-0.3,4-1.1,8.4-0.6,12.3c0.6-3.2,1.4-6.3,2.4-9.3c1.5,3.8-0.3,7.7,0.1,11.5c1.9,8.4,3.2,17.7,9.2,24.2c0.1-0.3,0.5-0.8,0.4-0.9
	c-2-2.5-1-5.4-1.3-8.2c-0.1-1.5,0.4-2.4,2.2-1.1c0.6,1,1.1,2.1,1.7,3.1c0.2,0.3,0.8,0.4,1.2,0.6c-1.6-7.6-1.8-15.4-0.7-23
	c2.6-3.2,2.2,3.5,3.3,4.7c1-4.5,0.2-9.2,2.2-13.5c2.4-5,4.3-13.6,11.2-13.4c1.1,0.3,1.8,2,2.1,3.1c1.2-4.5,6.9-9,4.8-13.8
	C268.4,574.9,264.2,572.6,259.6,572.1z"/>
<path class="st10" d="M259.1,317.2c1.3,1.2,3.4,0.3,4.9,1.1c3.4,1.3,3.4-3.6,5.2-5.6c0-0.7,0.1-1.3,0.2-2
	C265.9,312.6,262.4,314.7,259.1,317.2z"/>
<path class="st10" d="M266.4,290.7c0.2-4.3-3.8-13.9-7.9-15.1c0.6,3.3,2.8,5.7,4.1,9.1c0.8,1.6,1.5,3.3,2.3,4.9
	C265.1,290,265.8,290.3,266.4,290.7z"/>
<path class="st11" d="M258.4,279.5c-1.7-3.1-0.2-7.5-2.8-10.1c-0.7,0.8-1.8,1.3-1.4,2.5c0.4,3.6-4.3-1-6.2,0.4
	c8.6,6.7-0.6,30.8-9,14.8l-0.2,1.2c1.9,6.4,7.3,12.2,13.1,15.9c2.9,2.6,8.2,0.8,10.4-2c-0.5,0.1-1.1,0.2-1.7,0.2
	c-0.4,0.1-0.8,0.1-1.2,0c1.6-1.1,3.1-2.4,4.8-3.5c2.8-1.9,2.8-1.9,1.1-5.2C263.1,289,260.4,284.4,258.4,279.5z"/>
<path class="st12" d="M572.8,274.5c2.3-0.8,2.9-2.9,4-4.5c4.3-5.2,2.9-11.1,1.3-17.2c-0.8-3.8-1.4-7.6-2.3-11.5
	c-1.1-1.9-3.9-0.8-5.7-0.7l-13.8,1.3c-2.5,0.3-3,1.1-2.4,3.6c2,5.9,1.3,12.8,5.2,18c2.9,3,5.5,6.2,8.2,9.5
	C569.2,275.5,569.8,275.5,572.8,274.5z M542.4,175.8c-1.4-0.4-2.7-1-3.9-1.7c-1.7,0.4-3.7,0.3-5.1,1.4c0.5,1,2,1.4,2.4,2.4
	s0.1,2.6,0.6,2.9c1.6,0.6,3.9-1.1,4.7,1.6c0-0.2,0.1-0.4,0.1-0.6C540.4,176.4,544.7,178,542.4,175.8z M531.5,195.9
	c1.6-0.5,3.4,0.1,4.3,1.6c0.5-1.2-0.3-2.9,0.1-3.9c2.2-3,0.4-2.2-1.8-3.5c-1.5-2-2.9,0.8-4.4,0c-0.4-0.1-1,0.4-1.5,0.6
	c0.1,0.3,0.2,0.6,0.4,0.7C531.7,192.1,529.6,195.4,531.5,195.9z M525.6,211.8c1.2-0.4,3.5-0.4,4.5,0.7c0.1-0.4,0.1-0.8,0.1-1.3
	c-0.2-1.7,0.4-2.9,2-3.9c-0.1-1.6-2.2-1-3.1-1.7c-2.1-1.6-4.1,0.1-6.4,0.1c0.1,0.3,0.2,0.8,0.4,0.9
	C526.6,208.2,523.5,213.1,525.6,211.8z M368,212.6c-7.8-1.5-1.9-0.8-7.8,3.9c0.3,0.2,0.6,0.4,1,0.5c1.6,0.5,2.6,1.5,2.2,3.8
	c2,2.5,0.5-2.9,4.3-2C370.2,218.9,365.9,217.3,368,212.6z M351.2,197.9c-2.4-1.6,0.2,3.1-3.4,3.4c-0.3,0.1-0.6,0.4-0.9,0.7
	c0.3,0.3,0.6,0.8,0.9,0.8c3.5,0,2.5,2.5,3.7,4.5c1.3-0.7,0.8-3.1,2.5-3.1s1.5-0.6,0.9-2C356.1,195.4,355.4,199.6,351.2,197.9z
	 M343.5,186.9c0.2-0.5,0.3-1.1,0.2-1.6c-1.6,0.4-3.9,0.2-4.7-1.5c-0.9,1.9-0.1,4.4-2.8,4.8c-0.4,0.1-0.6,0.8-0.9,1.3
	c0.9,0.6,2.5,0.4,3.3,0.9c1,1.4,2.2,1.5,4.1,0.9C346.8,192.3,341.4,188.9,343.5,186.9z M332.4,173.1c-1.8,1.1-3.1-0.4-4.6-1.1
	c-0.1,0-0.2-0.1-0.4-0.1c1,1.4,0.6,4.3-2,4.3c-0.3,0-0.5,0.6-0.8,1c3.7,1.8,3.3,0.2,3.8,4.7c1-0.4,1.9-1.7,2.7-2.2
	c2-0.4,2.1-1.4,1.3-3.1C332.7,175.4,333.2,174.5,332.4,173.1z M281.5,186.4c4.3-1.4,6.7-5.7,2.9-9.1s-13.6-1.2-12.8,4.9
	C272.8,186.4,278.3,187.8,281.5,186.4z M270.4,323.1c4.5-8.9,8.8-17.3,11.5-27c1.1-4.8-1.6-9.3-3.1-13.6c-3.7-10.3-7.9-20.5-12-30.7
	c-1-2.5-1.7-2.8-4.4-1.9c-11.4,2.5-43,24-40.9,36.3c5.4,10.2,11.1,20.3,16.8,30.4c2.9,5.7,10.2,5.4,15.8,6.6
	C258,323,268.5,327.2,270.4,323.1z M252.6,316.8c-12.1,3.6-15.2-12.4-20.6-20c-1.3-4.5-7.6-11.4-5.1-15.6
	c7.8-12.1,19.6-21.1,33.3-25.4c1.6-0.7,3.4,0,4.1,1.6c0.1,0.1,0.1,0.3,0.2,0.4c4.7,11.1,9.6,22,13.1,33.5c1.3,3.6-1.7,10.6-5.1,12.4
	C265.3,307.3,258.5,311.3,252.6,316.8z M264.6,320.5c-2.2-0.9-8-0.2-8.7-2.4c4.4-4.3,9.6-9,15.9-9.7c0.6,3.1-2,6.2-2.8,9.3
	C268.2,319.7,266.9,320.9,264.6,320.5L264.6,320.5z M274.1,294.9c-1.5-4.8-3.2-9.5-4.8-14.6c-2.7-3.1-6.4-12.2-10.1-12.6
	c0,1.2,0.5,2.4,1.3,3.3c7.2,8,8.8,17.7,11,27.7C273,298.1,274.4,296.5,274.1,294.9z M248.8,308.9c-4.3-2.9-7.7-6.9-9.9-11.5
	c-1.3-2.7-2.7-5.4-3.7-8.2c-0.4-1-0.3-1.1-1.3-0.8c-1.3,0.4-0.9,0.7-0.6,1.5c1.7,5.4,9.5,26,16.8,21.4
	C250.8,310.4,249.7,309.6,248.8,308.9z"/>
<path class="st10" d="M247.1,291.5c3.8-3.4,3.4-13.1,0.4-17.5c-1.5-2.2-1.7-2.4-3.8-0.5c-3.6,3.2-4,7.5-4.5,11.7
	C241.8,286.9,244.7,291.5,247.1,291.5z"/>
</svg>
