<?xml version="1.0" encoding="utf-8"?>
<!-- Generator: Adobe Illustrator 25.2.3, SVG Export Plug-In . SVG Version: 6.00 Build 0)  -->
<svg version="1.1" id="Слой_1" xmlns="http://www.w3.org/2000/svg" xmlns:xlink="http://www.w3.org/1999/xlink" x="0px" y="0px"
	 viewBox="0 0 864 864" style="enable-background:new 0 0 864 864;" xml:space="preserve">
<style type="text/css">
	.st0{fill:#734C4D;}
	.st1{fill:#6C5454;}
	.st2{fill:#FFFFFF;}
	.st3{fill:#FBEFCD;}
	.st4{fill:#F0C080;}
	.st5{fill:#5874BD;}
	.st6{fill:#2F1717;}
	.st7{fill:#F9E675;}
	.st8{fill:#555368;}
</style>
<path class="st0" d="M456.3,285.2c-4.3,3.9-9.5,6.5-15.1,7.7c-0.4,0.1-1,0.7-1,1c2.9,4.4,0.2,13.5,7.9,9.6
	c16.9-9.6,41.3-26.5,33.3-48.8c-2.6,3-3.2,6.6-5.3,10.4c-1.7,3.9-8.9,10.4-0.4,10.3c-12.2,4.7-11,10.8-17.1,19.3
	C455.4,293.1,460.6,282.1,456.3,285.2z M438.1,299.4c0-5.8-1.1-6.4-7-7.2c-12-0.8-22.1-7.6-33.4-11.1c-5-3-17-6.4-22.6-11
	c-1.5,6.9,1.7,12,8.6,15.1c16.8,7.2,32.9,19.3,51.8,19.8C437.6,304.4,438.6,301.5,438.1,299.4z M415.3,298.6
	c-5.4-2.9-7.8-9.5-14.7-10.5c-2.5-0.7-5.4-0.7-7.3-2.5c2.4-2.4,5.7-0.7,8.9-0.7l0.1,0.1c4.8-0.5,12.5,7.9,13.4,11.5
	C415.7,297.2,415.5,297.9,415.3,298.6z"/>
<path class="st1" d="M449,218.6c-15.3-14.9,9.5-31,15-9.5c2.1-7-4-11.1-10.3-12.9C437.9,194.3,438.4,221.9,449,218.6z M394.3,216.2
	c2.3-12.5-20.5-9-21.5,1.9c-0.2,3.3-1.2,9.5,3,11c0-3-0.6-4.9-0.9-8.4C375.4,210.4,389.1,207.4,394.3,216.2z"/>
<path class="st2" d="M475.8,194.3c-1.3-9.9-13.7-16.8-23-15.4c-9.7,2.9-18.1,11.6-17.8,24.2c1.4,5.4,1.4,12.3,7,15.3
	c-1.6-7.7-7-16.3,1.6-22.2c11.3-7.6,26.4,1.9,23.8,15.2C472.1,207.5,477.1,201.1,475.8,194.3z M392.4,207.2
	c-5.7-11.5-17.7-16.2-30.7-13.3c-10.7,4-17.8,12.9-15.6,24.6c1,11.2,14.7,8.3,22.6,9.7c2.8-2.3,0.7-7.6,1.4-10.9
	C370.8,209.1,383.9,202.1,392.4,207.2z"/>
<path class="st3" d="M539.7,469.4c13.3-13.3,25.8-27.3,37.4-42.1c8.8-8.8,0.8-15.6,3.4-28.2c0.1-9.2,3.2-18.2,8.9-25.5
	c19.6-28.3,22.3-74.9,1.6-103.2c-26.1,8.8-53.9,17.3-65.5,21.1c-6.9,1.9-14.1,2.8-21.1,3.8c-4.1,0.6-9.1-1.1-12.2,2.7
	c-11.9,15.6-28,33-49.7,29.1c-3.1-0.9-6.4-0.7-9.5,0.4c-19.8,6.3-44.4,6.3-61.9-5.8c-6.4-5.2-12.1-11.5-17.7-17.8
	c-5.2-4.2-9.1-19.1-16.4-17.6c-10.4-2.8-21.6-6-32-9.7c-6.2-0.5-12.5-1.3-18.6-2.4c-7.3,2.8-14.3,6.3-20,11.8
	c-15.2,15.8-38.2,29.3-38.1,53.7c-1.6,18.4-4,37.6,8.6,52.7c22.1,30.2,57.4,46.6,85.7,69.9c12.6,14.7,27.3,29,37.1,45.5l-1,4.3
	C422.9,527,488.8,518.8,539.7,469.4z M494,480.6c-1.7,1-3,1.6-4.8,2.7v0.1c-32,9.2-64.6,25.3-98.2,20.4c14.9-3.6,30.6-4.3,45.5-8.8
	C455.6,491.4,475,480.9,494,480.6z M486.7,457.3c-21,9.2-43.7,22.5-67.3,19.6c-3.9-1-32.3-4.4-29.9-8.3l0.1-0.1
	c17.6,1.9,34.5,8.1,51.8,1.7C456.5,466.7,471.3,458.5,486.7,457.3L486.7,457.3z M397.2,401.5c9.5,3.6,19,6.4,29.1,6
	c18.8,0.3,31.8-15,47.9-21c-4.5,7.1-13.2,11.2-20,16.1c-18.5,13.8-37.5,10.1-57.8,2.6c-2.3-0.9-4.5-2-6.6-3.2
	c-0.7-0.5-1.4-1.1-2-1.8C391.1,398.8,394.2,400.6,397.2,401.5L397.2,401.5z M563.4,249.9c-0.6-0.2-1.2-0.3-1.8-0.4
	c-16,9.3-37.5,19.6-47.8,25.9c-10.7,0.3-13.5,10.1-17,17.5c19.7-0.5,57.7-14.2,91.4-26C581.6,259.1,573,253.2,563.4,249.9z
	 M498.8,279.7c-4,0.2-10,1.3-12.5-2.3c5.4-3.5,14.7,2.4,17.8-4.9c0.4-1,1.6-1.6,2.3-2.4c-0.9,8.1,28-9.8,49.3-21.5
	c-7.1-0.9-14.2-1.3-21.3-1.2c-17.7,11.1-35.4,20.9-42.6,20.4c4.6-5.1,12-5.6,18.4-8.4c2.7-1,10.2-5.9,19.2-12
	c-6.3,0-12.6,0.1-19-0.1c-7.7-1-9.5,10.4-16.9,10.4c0.7-4.9,6-6.8,8.4-10.9c-4.3-1.4-15-3.5-24.6-6.3c19.4,16,15.8,31.2-15.6,61.2
	c-5,4.9-11,8.4-18,9.6c-4.4,0.9-2.1,5-4,7C460.4,335.7,489.9,296,498.8,279.7z M349.5,290.9c9.4,15,22.6,28.8,40.9,32
	c15,1.2,32.5,5.5,45.1-4.7c1.5-1.7,1.7-6.7-2.2-6.6c-16.7-2.6-30.5-13.2-46.1-19.2c-27-9.6-21.2-26.6-9.2-43.3
	c-10,3.4-27.6,5-34.3,7.6c5.1,4.1,13.1,4,17.5,9c-4.3,2.4-12.3-3.3-16.7-5c-1.6-1-3.2-2-4.8-3c-1.2,0.4-2.5,0.9-3.9,1.2
	c17.3,9.7,33,21.6,37.8,31.8c-6-3-10.6-7.9-16.4-11.2c-2.8-1.7-6.4-2-9.4-3.3c-4.3-1.5-7.8-5.3-12.4-5.5c0.1,0.8-0.1,1.8,0.4,2.2
	c4.3,3.6,7,8.5,10.1,13c6.7,4.4,24.8,6.1,29.5,12.9C366.3,300.7,358.5,291.1,349.5,290.9z M329.9,260.1c-3.6,0.9-6.1,1.5-5.1,2
	c7.6,2.8,20.4,11.8,28.3,13.1C346.1,269.2,338.2,264.4,329.9,260.1z M310,265.9c-5.1,2.1-10.5,3.7-15.8,5.6c4.4,1,8.3,1.8,11.4,2.7
	c11.2,1.6,22.6,6.3,33,10.1c0.1-0.7,0.5-1.7,0.3-1.9C331.8,273.2,324.5,260.7,310,265.9z"/>
<path class="st4" d="M535.5,666.9c4.1,7.1,11,10.4,18.7,11.7c12.6,2.3,16.4,2.3,24.7-10.6c30.4-52.3,15.2-22,57.6-21.2
	c13.6-0.8,26.3,2.9,38.3,8.8c2.7,1.2,5.1,1.5,7.3-1.1c13-14.8,28.3-27.9,36.8-46c15.6-27.4,10.4-64.1-21.7-76
	c-37.8-19.9-51.3-21.8-93.4-21.8c-32.9-2.3-72.8-18.1-99.1,10.1c-12.1,14-27.4,27-36.1,43.3c-1.3,5.7-1.1,11.6-2.7,17
	c-3.2,11.5,1.9,19.7,9.2,27.2c4.4,5,8.8-2.3,11.7-5.4c3.7-4.6,3.1-10.7,4.7-16c3.6-11.8,7.7-23.1,17.9-30.9
	c2.5-2.1,17.8-9.4,13.1-0.5c-15.3,6.3-22.7,20.8-26,36.3c0.3,3.9,3,8,3,11.9c-0.4,18.8,12.4,31.4,26.1,42.3
	c0.1-20.9,2.1-48.6,25.5-56.5c1.9-0.7,2.7,0.1,3,2.2c0.5,3.7-2.4,3.7-4.9,5.1c-13,8.3-17.1,23.3-17.5,37.8
	C532.2,645.3,530.4,657.2,535.5,666.9z M643,212.6c-0.8,4.5-7.8,9.2-12.8,10.1c-4.4,0-7.7-1.3-10-3.5c-22,9.6-41.9,18.9-47.6,23.7
	c-0.5,0.4-1.1,0.6-1.7,0.9c-1.4,0.9-2.9,1.9-4.5,2.9c1.7,0.5,3.2,1.1,4.8,1.7c8.8,3.5,16.5,9.2,22.4,16.6c4.4-1.5,8.7-3,12.9-4.4
	c-11.9-12.7,6.3-47.3,17.2-18.6c0.9,4.1,1.4,8.4,1.4,12.6c3.7-1.1,7.2-2.1,10.4-2.9c3.3-4.6,9.3-6.4,14.6-4.4c1.5-0.5,3-0.9,4.8-1.4
	c0.1-4.2,0.3-8.3,0.7-12.2c1-9.7,0.5-19.5-1.7-29c-3.6,1.6-7.2,3.1-10.9,4.7C643.1,210.4,643,211.5,643,212.6z M652,270.5
	c2.3-6.8,2.6-14.4,2.9-21.9l-3.7,0.8C652.7,255.1,649.7,265.8,652,270.5z M631.7,179.8c0.4,0,4.3,5.6,4.7,6c0,0.1-0.1,0.2-0.2,0.3
	c4.1,5.3,6.3,12.2,6.8,19.1l10-4.4c-3-10.9-9-20.7-17.4-28.3c-2.3,1.9-4.8,3.9-7.3,5.9C629.3,178.8,630.4,179.4,631.7,179.8z
	 M631.2,262.9c0.3-2.9,1.2-5.7,2.4-8.3c-1.2,0.5-2.5,1.1-3.9,1.7c-0.1,0.1-0.3,0.3-0.4,0.4c-0.2,0.1-0.5,0.2-0.8,0.2
	c-1.2,0.5-2.5,1-3.8,1.6c-1,5-4.3,8.3-11.7,6c-0.8-0.3-1.6-0.5-2.3-0.8c-4.6,1.6-9.5,3.4-14.4,5c13.6,20,15,48.5,10.5,72.4
	c-3.7,29.3-29.1,42.7-22.6,76.2c30.2-41.3,63.2-86.4,67.2-139.1C643.7,294.2,627,274.3,631.2,262.9z M594.8,152.1
	c-15,12.1-27.7,26.8-42.2,38.9c0,0.2,0,0.3-0.1,0.4c-0.2,3.1-2.5,5.7-5.6,6.4c-5.6,6.8-11.7,13.5-12.7,14.9
	c-8.3,10.4-16.3,21.1-25,31.3c8.4,0.6,17.1,0,25.8-0.3c13.8-9.4,29.7-20.2,38.1-24.1c7-6.6,14.1-13.4,21.2-19.8
	c2.6-1.6,14-11,26.8-21c0.1-0.1,0.2-0.3,0.3-0.4c3.6-2.9,7.3-5.7,11-8.6c-9.6-8.1-20.5-16.6-32.3-23.3
	C598.2,148.2,596.4,150.1,594.8,152.1L594.8,152.1z M599.6,177.7c-0.7,5.6-5.6,7.3-11,6.5c-7-2.9-7.1-8.2-1-11.9
	C591.7,170.7,600.9,171.2,599.6,177.7L599.6,177.7z M540.5,243.5c7.1-0.2,14.2,0.4,21.2,1.8c3-1.6,5.6-2.9,7.9-3.9
	c1.8-2,3.8-3.7,6.1-5.1c5.5-2.4,22.6-10.7,42.2-19.8c-4.7-7.4-3.6-20-0.8-29.1c-14.3,11.2-29,22.5-39.8,30.7c0.2,0,0.4-0.1,0.6-0.1
	c-1.7,1.1-4.2,3-7.3,5.1c-2.3,1.7-4.3,3.2-5.8,4.4l0.9-0.9C558.7,231.4,549.8,237.4,540.5,243.5z M487.7,71.7
	c-5.7,13-4.8,27.7-8.4,41.2c-0.4,2-0.3,2.6,1.6,3.4c5.1,1.3,12.4,9,16.4,2c3.7-7.7,5.4-15.8,6.4-24.9c-1.5-8.3,2.7-21.4-8.2-24.5
	C491.5,68,489.8,68,487.7,71.7z M255.8,166.3c-2.9,6.8-12,17-15.6,20.7c-5.3,4.1-10.9,8.4-18.3,4.2c-0.3,0.3-0.6,0.6-0.8,1
	c0.2,2.6-0.4,5.1-1.6,7.4c22.9,5.7,51,15.6,65.8,22l-0.1,0.1c20,7.7,36.3,20.5,53.8,32.1c8.8,0.8,29.2-5.8,40.5-7
	c1.6-2.3,3.4-4.4,5.2-6.6c1-2.3,6.2-5.7,3.9-7.9c-12,0.2-23.9-0.4-35.8-1.6c-15-2.4-13.1-25.7-3.9-34.1
	c16.8-16.4,51.6-4.2,48.3,21.2c-0.5,19.5-15.6,32.6-21.5,50.1c20.9,5.6,45.5,21.6,67.4,17.1c19-5.3,24.8-14.6,34.9-30.6
	c4-6.4-11.6-12.6-15.4-17.1h-0.1c-8.9-7.5-19.6-11.4-27-20.4c-3.6-6.3-4.9-13.7-3.8-20.9c1.9-10,9.4-18.3,21.6-21.1
	c5.6-1.4,11,1.9,16.2,5.1c25.7,17.6-1.3,40.9-21.9,42.4c8.4,4.4,15.6,8.4,21.5,12.4c13.8,4.5,34.5,12.6,41.5,3.8
	c5.4-3,7-9.7,10.7-14.4c3.5-3.9,13-16,21.5-26.2c-0.4,0-1-0.1-1.4-0.1c-7-2.9-7.2-8.3-1-11.9c3-1.2,8.7-1.2,11,1.3
	c4.7-5.8,12.1-10.3,16.9-15.4c5.7-4.4,17.9-16.6,29.2-26.9c-10.1-5.6-20.8-9.7-31.4-11c1.3,2.2,6.3,4.4,3.4,6.9
	c-3.3-0.8-7.8-0.1-9.6-3.5c-5.5-10.3-31.4-5.1-42-7c-10.2-2.2-30.4-1.3-38.1-8.5c-0.5-0.5-1-1.1-1.4-1.6c-1.1-1.6-3.5-3.3-5.3-3.3
	c-12.6-0.7-18.6-14.1-27.7-21c-4.4-4.1-8.8-8.3-15.6-8.9c-12.7-3.6-24.5-11.6-36.8-17.2c-51.7-21.2-86.6,38-113.7,72.4
	C273.9,151.1,265.8,162.6,255.8,166.3z M548.6,146.5c5,4.9,11,18.3,1.8,20.5c-7.6,2.5-13.2-3.4-16.2-11.6
	C532.8,143.7,539.5,139.9,548.6,146.5L548.6,146.5z M509.1,172.1c9-3.7,13.9,0.9,11.5,9.8c-2.4,5.1-11.2,13-15.7,6
	C500.6,182.3,503.5,176.4,509.1,172.1z M500.2,224.8c1.9-4.7,9.1-12.5,13-7.1c3.7,4.3,1.4,9.6-3.2,14
	C502.7,236,498.4,232.7,500.2,224.8z M425.3,118.6c11.8-0.7,23.6,2.3,33.6,8.7c5.9,3.8,12.4,6.3,19.8,5h0.3c1.2,0,2.5,0.8,3.8,1.2
	c-6.7,6.3-16.3,2.6-23.7-0.6h-0.1c-10.7-7.5-22.5-7.2-29.9-7.7c-4.8-0.3-7.7-0.9-7.1-4.1C421.8,118,423.6,118.7,425.3,118.6
	L425.3,118.6z M421,136.6c0.5,0.1,0.9,0.4,1.1,0.8c2.8,17.1,2.3,34.8,8,51.5c0.2,2.3-1,4.4-1.2,6.6c-0.8-1.2-1.5-2.6-2-4
	C425.2,189.1,416.3,136.6,421,136.6z M394.1,118.5c3.7-0.3,5.6,7.6,8,10.6C402.1,142.6,391.1,122.3,394.1,118.5L394.1,118.5z
	 M399.3,205c-4.5-4.9-4.3-12.4-6-18.6c-1.7-14.9-6.7-28.4-13.1-41.9h0.1c-0.1-1.1-0.2-2.3-0.2-3.4C395,158.1,397.3,183.4,399.3,205z
	 M341.9,152.3c9.1-3,17.2-7.5,23.8-14.6c1.6-1.7,3.2-2.6,5.7-2c2.4,1.5,4,3.4,1.3,5.3c-9.6,6.7-19,14.3-30.6,16.8
	c-12.7,2.2-15.5,14.1-24.2,21.3C320.2,166.8,329.6,155.3,341.9,152.3L341.9,152.3z M306.6,152.6c1.9,3-0.9,7.6-4.7,7.9v-0.1
	C298.4,156.4,302.3,149,306.6,152.6L306.6,152.6z M293.1,171.6c-0.1,4.4,1.1,9-3.2,12.5l-0.1-0.1
	C280.1,188.1,288.3,169.4,293.1,171.6L293.1,171.6z M250.8,228.1c7.7,1.3,17,3.6,19.2,4.9c3.4,1.1,6.4,2.2,9.4,3.3
	c0.2,0.1,4.8,1.7,9.7,3.5c11,2,27.2,8.4,42.8,16.7c1.6-0.4,3.3-0.7,4.9-1c-16.1-10.2-32.2-20.5-49.1-29.3c-8-4.1-16.8-6.6-24.7-11
	s-16.7-3.9-24.8-7c-2.7-1.3-11.7-3.4-20.8-5.7c-8.6,8.8-29.2,10.1-40.5,14.4c20.7,2.5,43.1,6.3,51.7,7.2
	C236.3,224.2,243.8,225.3,250.8,228.1z M251.9,213.6c5.7-1.2,8.6,6,12.4,9.4c1,6.6-8,4.8-10.8,0.7c-0.4-0.4-0.5-0.4-0.5-0.5
	c-0.6-1.2-6.2-3.6-3-6.9C249.3,215.8,249.7,215.1,251.9,213.6z M320.5,747.2c-0.4-0.7-1-1.4-1.5-2.2c-0.3-0.5-0.6-1-1-1.4
	c-6.1,10.5-11.5,21-23.6,26.5c-1.4,1.1-2.4,2.6-2.7,4.3c-1.6,10.5-9.2,15.2-17.8,19.5c11.8,1.1,24.6-1,36.8-0.9
	c6.4-2.1,18.4-8.7,19.2-15.9C330.5,766.3,326.8,756.8,320.5,747.2z M287,767.5c-0.1-1,1.4-2.6,2.4-3c15-4.8,21.5-19.8,27.7-32.8
	c13.8-30.5-14.3-63.8-44.5-68.2c-22.9-5.1-39.6,10.5-55.4,24.3c-6.5,5-14,9.2-22.1,11.1c-15.2,12-32.4,21.9-42.3,39.5
	c-6.6,8.3-25.1,62-5.3,59.6c15.1-0.8,29.5-0.8,44.9-1.2c20.1-0.8,40.3-1.8,60.4-1.8c6.2,0.1,11.9-0.9,17.2-4.1
	C279.2,785.6,288.2,780.4,287,767.5z M184.6,787.5L184.6,787.5c-4.1-5-7.9-9.8-13.8-12.4c-0.7-0.2-1-1.3-1.6-2
	c9.6-1.7,22.7,13.4,23.6,22.5C188.7,794.9,187.5,790.5,184.6,787.5L184.6,787.5z M234.9,758.7c-4.2-6.4-8.8-12.8-16.4-15.9
	c-0.6-0.2-0.8-1.2-1.2-1.8c13.6-2.7,20.1,16.6,28.2,24.9c3.8,8.8,10.5,16.3,11.5,25.7C247,783,242.9,769,234.9,758.7L234.9,758.7z
	 M251,702.9c-4.1-0.4-8.3-0.1-12-1.9c8.9-3.5,18.6-0.8,27.9,1c17.7,6.3,29.3,20.2,42.1,33c1,1.1,2.5,2.8,1.1,4.1
	c-11.8-7.4-20.7-20.4-33.8-27C268.5,707.1,260.4,703.2,251,702.9z M175.6,232.5c21-2.1,42.3,4.1,63,7.2c25.2,5.6,50.8,9.6,74.6,19.6
	c1.3,0.6,6.4-0.3,12-1.4c-11.5-5.5-23.4-10.1-34.4-15.6c-10.7-3-25.7-8-30.4-8.8c-0.1,0-2.6-0.7-5.8-1.6
	c-10.6-0.5-21.1-5.3-31.8-6.6c-7.8-1.6-32.3-3.4-53.2-5.3c-7.2,3.1-13.8,7.3-19.5,12.6h9.6C164.8,230.7,170.4,230.7,175.6,232.5z
	 M196.5,423.8c3.1,2.9,6.3,5.7,9.6,8.5c41.9,36.1,96.6,66.8,152.7,79.8l1-4.3c-16.6-12.3-27.7-32.7-43.5-47
	c-26.4-17.3-53.4-35-76.1-57.4c-1.4-1.4-2.7-2.9-4-4.4c-11.1-13-18.9-29.7-14.9-47c3.6-14,2.9-30.9,14-41.4
	c17.1-18.5,28.2-29.6,44.4-37.7c-10.2-1.9-20.5-4-27.5-5.3c6.9,7.7-16.5,21.8-13.3,2c2.7-4.1-0.4-3-2.4-3c-19.2-2.4-38.1,2.3-57,5.4
	c5.1,2.2,5.5,8,5.3,12.6c-0.2,14.8-9.1,33.4-25.2,20.8c-9.1-8.1-8.8-24.8,0.7-31.8c-3.4,0.4-6,0.6-6.7,0.7l0.1,0.1
	c-6.9,1.2-13.4,2.3-20.1,3.1c-1.1,0.2-2.4-0.4-3.7-0.4c5.5-2.8,21.9-4.8,35.1-5.8c1.4-0.5,2.9-0.7,4.4-0.8
	c21.5-3.8,42.4-7.6,64.5-7.1c6.2-1,5.2,2.8,8.9,2.7c5.4-4.4,11.2-0.7,16.9-0.9c3.2,0.4,15.1,2.3,26.8,4.6c7.9-3.2,16.1-5.8,24.4-7.8
	c-18.3-9-40.4-10.8-60.2-16.2c-16.4-4-33.2-7-50-8.8c-6.4,0.2-16.8-3.9-21.7,0.3c-4.6,7.4-9.1,14.8-17,19.2
	c-8.8,5.6-18.7-5.9-14.2-13.8c1.8-3.5,4.6-6.5,8-8.5l-7.8,0.3c-11.1,11.1-18.6,25.8-22.5,41.6c-6.2,24.8-3.7,52.5,6.6,74.5
	c4.4,8.5,10.1,16.4,14.8,24.7c5,9,13.1,14.4,21,20.4C178.5,403.8,187.8,413.8,196.5,423.8z M198.5,241.8c2.2-0.4,11.4-2.3,13.9,8
	c0.1,0.1,0.1,0.3,0.1,0.4C206.6,265.8,187.6,246.9,198.5,241.8L198.5,241.8z M145.9,351.6c-10.4-4.7-15.4-29.2-4.6-35.1
	c6.4-1.5,8.6,11.9,12.5,16h-0.1C156.9,341.4,161.3,358,145.9,351.6z M218.9,431.5c-3.5,1.6-7.1,0.4-10.2-2.1
	c-5-4.1-8.7-11.7-8.2-16.7c0.7-4.9,0-10.8,3.6-14.4c0.2-0.1,0.3-0.3,0.4-0.4c0,0.3,0.1,0.4,0.1,0.7c4,2.5,10.4,10,14,17.4
	C221.8,422.4,223,428.5,218.9,431.5L218.9,431.5z M229,400c0.5,0.8,0.9,1.7,1.3,2.5h-0.1c7.9,7-0.6,21-8.6,12
	C214.5,407.8,222.9,390.1,229,400z M227.4,315.3c-9,40.5-25.6,7.5-16.5-8.7C216.8,297.8,232.4,304.7,227.4,315.3L227.4,315.3z
	 M226.3,274.2c-2.4,6.8-5.3,13-10.7,17.8c-6.4,5.5-21,2.9-19.1-7C199.7,266.1,229.9,265.9,226.3,274.2L226.3,274.2z M181.3,341.3
	c3.2-10.6,16.1-16.4,21-6.3c2.9,7.9,5.2,15.7,4.6,24.4C200.7,385.8,174.1,357.7,181.3,341.3L181.3,341.3z M185.2,381.6
	c1.2,0.1,2.4,0.2,3,0.8c2.7,4.1,6,8,6.6,13.1c-1.7,24.7-14.8,9.6-19-4.4C173.6,383,180.9,377.7,185.2,381.6L185.2,381.6z
	 M251.6,167.4c-3.9,0.4-7.8-0.4-11.2-2.4c-19.8-12.9-15.5-48.6-40.3-55.1c-0.3,25.7,7.2,51.2,18.8,74.2
	C225.1,194.8,241.6,176.5,251.6,167.4z"/>
<path class="st5" d="M813,543.6c-15.3,35.2-79.9-12.1-96.5-29.3c-6.3-8.5-29.9-22.1-15.1-32.1c32.4-19.9,27.6-23.3,66.3-17.3
	c-19.7-33.8-53.1-55.1-79.4-83.1c-5.7-6.4-37-35.7-43.8-25.2c-8.5,15.8-19.5,30.7-26.3,47.4c6.8-4.7,9-15.6,19-15
	c17.8-0.9,34.2,6.4,48.3,16.6c11.5,7.6,29.2,12,29.5,28.4c3.3,10.4-4.6,11.8-8.8,20c-5,7.4-10,2.4-14.4-3.2
	c-2.2-2.8-4.3-5.8-6.1-7.3c-12.1-12.1-29-19.5-45.9-21.5c-18.5,1.5-18.1,1.5-22.2-16.9c-16.9,28.8-32.5,59.3-49.7,88.3
	c-1.6,1.8-2.3,4.9,0.1,6.1c23.1,4.8,46.5,6,70.2,6.4c29.8,4.9,2.8-12.4,48.1-50.6c0.5-0.3,1.1-0.4,1.7-0.4c2.8,0,5.2,3.1,1.7,5.6
	c-14.8,10-24,25.2-29.1,42.2c-2,6.4-2,6.3,4.1,8.7c15.4,6.2,30.6,13,45,21.2c11,6.9,18.8,17.9,26.8,28.1c2.8,4.4,1,10.8,6.6,13.3
	c7,6.3,19.8,9.8,20,20.8c1,20.6,30.3,12.3,37.6,49.4c0.7,3.7,2.9,8,0.2,11.5c-4.6-7.4-4.6-16.9-9.7-24.4
	c-7.9-18.1-27.8-14.6-32.4-29.9c1-16.2-17-17.4-25-27.8c0.9,35.9-25.1,62.3-48,86.5c-5.7,10.2-28.8-10.6-48.2-6.7
	c-8.8,0.7-17-0.7-24.8-5.1c-2.5-1.3-3.9-1.6-4.2,2.4c-0.7,8.8-2.3,17.5-3,26.3c-2.6,44-2.6,62,27,96.5c8.6,13.4,25.2,12.1,39,15.4
	c4.3,1.5,123-6,146.2-0.6c0.6-0.9,1.6-1.6,2.6-1.9c12.8-5.7,23.2-15.7,29.4-28.3c19.3-42.5-0.8-88.4-10.9-130.6
	C829.4,599.8,824.9,569.5,813,543.6z M631.4,417.2c4.8-0.4,9.6-0.4,14.4,0c23.4,1.3,38.7,18.4,54.3,33.5c13.7-13.3,12.3-22-3.6-32.4
	c-19.8-10.9-41.8-29.8-65.5-20.9c-3.7,4.7-9.2,8.8-5.6,16C626.5,415.9,628.2,417.5,631.4,417.2z M639.9,353.5
	c2.3-3.4-1.8-6.7-4.3-3.6c-4.5,7.6-8.8,15.3-13.4,22.8c-19,31.3-41.6,60.5-65.7,87.9c-14.8,14.5-28.9,31-47.8,40
	c-9.2,4.3-18.6,8.3-28.2,12.1c-14.7,6.1-30.1,10-45.9,11.6c-3.7,0.4-3.3,1.9-2.4,4.2c4.3,12.6,10.1,25.4,14.6,37.8
	c-0.4,9,10.4,35.9,17.8,39.3c-1.6-6.2-6.4-11.4-5.6-18.2c2.4-12.5,1-25.8,10.4-35.8c22-27,46.5-58.9,85.5-53.6
	c3,0.1,4.4-1.2,5.7-3.6c10.2-18.9,20.3-36.5,31.1-55.3C607.5,410.5,623.8,382,639.9,353.5z M609.3,781.4c-1.5,2.8,0,2.3,1.7,2.3
	h22.8C615.7,760.5,621.1,757.3,609.3,781.4z M604.6,741.2c-2.1-5.6-3.2-11.4-4.9-18c0-2.6,0.1-5.3,0-8c-0.2-0.6-0.5-1.2-0.9-1.7
	c-14.5,15.8-32.2,32.6-55.4,33.4c-6.3,0.9-29.6,1.3-29.2,9.3c2.4,9.8,8.3,18.4,12.5,27.6c3,6.3,28.8,0.4,36.5,1.5
	c3.8-0.1,2.6-3.5,2.9-6c1.1-17.5,29.5-13.1,30.5,2.8c1,3.7,5.3,1.6,6.2-0.4c2.2-7.2,5.4-13.9,9.7-20.1
	C614.1,754.5,606.5,747.8,604.6,741.2z M527.4,743c15-2.3,30.7-2.3,43.3-11.5c9.9-7.3,21.7-16.5,27.4-27.3
	c0.5-20.4,4.3-41.1,5.2-61.3c-13.9,11-15.7,34.5-33,41.5c-18.9,5-44.4-6.4-43.4-28.8c-0.1-1.5-0.8-2.9-2-3.8
	c-17.9-11-30.3-26.4-31.7-47.9c-4.9,7.3-13.4,17.7-22.2,8.4c-1.2-1.1-2.9-1.6-4.5-1.3c-9.7,3.1-9.7-10.2-15.3-14.3
	c-2.2,3.5,0.6,8.1,1,11.9c4.7,12.5-6.6,12.4-14.9,15.3c-3.9,1.1-3,5.7-0.4,7.7c44.7,36.5,41.6,67.4,40.3,120.4c0,11,0.1,21.9,0,32.9
	c0,2.2,0.3,3,2.7,2.9c45.8-3.9,47.3,11,29-28.3C503.7,747.5,518.9,745.2,527.4,743z M386.8,735c0.6-35.8-3.7-73.1,15-105.2
	c3-7.6-7.2-14.1-10.4-20.3c-3.4-4-7.4,3.1-15.2-2.1c-18-8.5-33.7-20.8-50.3-31.5c-24.9-12.3-49.4-25.8-69-46
	c-18.3-17.8-33.6-38.4-48.4-59.1c-1.8-2.4-4.2-4-6.8-3c-12.4,3.5-20.7,13.7-24.5,25.7c-5.1,12-2.4,18.4,4.6,28.9
	c15.8,31,24.9,64.6,39.5,96.1c4.4,10.1,9,20.1,17.6,27.5c3.7,3.7,9,6.1,11.3,10.8c-45.1-13.7-56.1-124.1-93.4-160
	c-2.8-2.5-19.6-21.4-21.8-16.3c-18.3,19.7-33.4,42.8-46.7,65.9c26.2-6.8,52.4,9.5,71.2,27c28.8,41.5-88.7,119.2-111.8,66.4
	c-10,23-16.9,47.8-29.7,69.2C11.9,719.1,8,730.6,6.8,742.6H6.7c-2.3,19.8,0.9,40.5,4,59.2c24,1,48.3-1.7,73.2-1.3l10.5-0.8
	c6.7-0.3,6.7-0.3,6.7-7.2c-3.7-35.9,12.3-71.2,40.7-93.3c-15.9,3-30.6,12.4-47.4,13.1c-13-3.7-25.2,1.7-32.6,13
	c-9.9,12.4-10.3,31-22,41.5c-0.1-1-0.1-2,0-3c5.7-10,8.9-21.5,13.3-32.2c3.3-10.8,12.4-19.1,22.9-22.7c4.3-1.5,8.8-2.1,13.3-1.7
	c25.8,4,54-20.1,80.3-16.4c32.2,8.8,39.2-1.1,61.7-21.5c5.6-5.1,12.3-8.7,19.6-10.7c40.8-10.8,90.5,34.4,72.9,77.2
	c-0.6,1.1-0.3,3.2,0.4,4.6c8.3,15.4,22.9,40.6,1.9,52c10.9,1,22.5-1.1,33.7-0.8c6-1.2,25.4,1.7,27.8-3.1
	C385.9,770.6,384.5,752.9,386.8,735z M80.7,702.2c-2.1,0.5-4.1,1.1-6.1,1.8c-10,3-19.2,7.3-26.4,15.2c-7,7.5-19.7,22.7-29.4,24.8
	c8.3-9.8,18.6-18.2,26.3-28.9c5.5-6.4,12.5-10.2,20.4-12.2c6.7-1,23-8.3,27.8-5.1C89.9,700.8,84.9,700.5,80.7,702.2z M399.2,528.5
	c2.4-6.7-12.2-4-16.2-5.7c-10-1.5-20.1-2.5-30-5c-41.9-10.3-79.3-32.2-116.2-54.2c-17.5-12-34-25-49-40c-1.1,6.1,4.9,10.9,7.3,16
	c22.9,35.8,47.1,71.4,80.4,98.5c15.1,14.1,34.3,22.3,52.4,31.8c18.4,10.8,34.1,26.7,54.9,32.8c6.3,1.7,2.1-14,4.2-17.8
	C390.5,566,394.9,547.3,399.2,528.5z M158.1,491.5c2.9,1.4,8.7,13.8,11,10.9c1.7-15,10.2-30.8,23.8-38.3c5.8-3-5-9.6-7.2-12.2
	c-5.7-4.3-6.9-3.7-10.3-0.6C167.7,458.5,149.4,481.5,158.1,491.5z M198.5,456.3c0-4.5-4.2-7-6.1-11.6c-1.8-2.4-3.8-4.7-5.6-7.2
	c-0.9-1.6-1.8-3.4-2.4-5.1c-2.4,5.2-8.7,7.2-10.4,12.4C185.2,439.3,190.6,451.1,198.5,456.3z M147.2,736.4
	c8.6-16.9,25.1-28.7,41-38.3c-8.7-1.8-24.5-6.3-32.5-2.1c-9.5,6.9-18.5,14.2-25.9,23.4c-18.2,21-25.3,48.5-22.9,75.8
	c-0.9,8.6,19.3,2.3,25.1,3.7c5.7-0.3,1-6.6,1.3-9.8C131,770,138.9,753.5,147.2,736.4z M151.2,477.9c2.4-10.4,11.7-17.3,15.4-27
	c-10.4,7.4-19.3,17.1-28.5,25.9C144.8,477.9,149.6,489.1,151.2,477.9z"/>
<path class="st6" d="M649.5,249.8c-1.2,0.5-2.5,0.8-3.8,0.8c-1.1,0.3-2.1,0.4-2.8,0.6c-10.4,3.6-10.3,22.3-0.6,27.5
	c10.5,4.5,5.5-21,7.5-29C649.7,249.7,649.6,249.8,649.5,249.8z M633.7,187.2c-4.8,0.3-12.5-6.5-13.2,0.4c-2.2,8.5-3.1,19.8,3.2,26.3
	c5.3-2.4,10.6-4.8,15.9-7.1C639.5,199.9,635,193.7,633.7,187.2z M639,211.2c0-0.1,0-0.1,0.1-0.2l-12.3,5.2c0.4,0.3,0.9,0.4,1.3,0.7
	C632.5,219.4,637.8,214.9,639,211.2z M621,255.8c0.1-0.3,0.2-0.4,0.3-0.7c0.4-7.6-0.3-17.4-7.9-21.7c-4.4,2.8-4.9,8.3-6.4,12.8
	c-2.1,4.7,1.3,10.1,5.5,12.4C615.4,257.5,618.2,256.7,621,255.8z M587.7,176.7c0.9,3.1,2.3,3,3.3,3.1c0.7,0,4.2-2.1,4.8-2.4
	c-1.5-0.8-3.1-1.5-4.8-1.9C590.1,175.4,589.1,176.1,587.7,176.7z M551.6,161.9c0.3-1-4.3-7.8-4.6-8.4c-0.6-1.5-2-2.4-3.7-4l-2.4-1.9
	c-3.3,3.3-1.7,9.2-1.1,10.8C540,159.2,546.8,168.4,551.6,161.9z M544,189.3c-1-0.1-1.9,0.4-3.3,1c0.9,3.1,2.3,3.1,3.3,3.1
	c0.7,0,4.2-2,4.8-2.3C547.3,190.3,545.7,189.6,544,189.3z M509.8,186.9c1.6-0.6,4.5-4.5,4.8-4.8c1-0.8,3-1.7,3.6-3.6L517,175
	c-3.6-2-7.3,2.8-8.4,3.6c-0.3,0.3-2.5,3.2-2.4,4.8C506.3,184.7,508.6,187.4,509.8,186.9z M508.5,226.6c0.4-0.4,1.6-5,1.7-5.6
	c-1.8,0.8-3.5,1.8-5,3c-0.8,1.1-1.4,2.3-1.6,3.6C506.7,228.8,507.6,227.4,508.5,226.6z M476.5,93.4c1.5-11,6.8-36.7,22.2-26.2
	c1.2-4-5.2-6.9-8.6-5.7c-7.6,2.5-11.9,8.6-17.1,14.7c-7.7,6.6-15.5,13-26.6,12.1c-0.5-0.1-1.1,0.5-1.8,0.7c7.3,7.4,16.6,13,24,20.3
	C476.5,115,474.7,97.7,476.5,93.4z M263,154.5c6.5-6.8,11.2-15.3,16.7-23c1.1-1.6,1-2.4-1.1-3.3c-21.9-7.3-43.7-14.9-65.6-22.3
	c-1.7-0.2-5.5-2.3-4.5,1.2C231.5,114.4,230.8,183,263,154.5z M255,220.4c0.6,0.2,4.6,3.6,5.2,3.6c0.7-5.3-4.4-6.2-7.8-6.9
	C253.5,218.5,254.1,220.2,255,220.4z M245,273.9c0.9-0.4,1.9-0.6,2.5-1.3c0.4-0.5,1.1-3.5,1.6-5.4c-1-0.2-2-0.4-2.8-0.4
	C242.9,267.1,245.3,271.5,245,273.9z M223.7,401.3c-0.1,3.6-0.4,7.4,3.1,9.8C228.9,408.7,227,399.7,223.7,401.3z M220.3,306.1
	c-1.9-0.8-4.4-0.5-5.6,2.5c-2.4,5.5-3.7,20.6,4.4,20.5C222.9,322.8,229.4,310.3,220.3,306.1z M220,280.3c0.4-0.7,0.8-1.3,1.1-2
	c1.1-1.6,2.4-3.1,3.5-4.7C191.4,266.2,199.8,310.2,220,280.3z M217,420.8c-1.7-5.6-9.2-12.6-11.9-18.9
	C199.3,414.3,217.8,440.5,217,420.8z M204.4,253.1c1.4-0.2,5.4-3.1,7.2-3.5C198.1,241.1,195.1,249.3,204.4,253.1z M203.4,358.5
	c0.4-6.8-2.1-13.7-3-20.5c-1.1-5.4-4.4-6.4-9-3.6c-7.9,4.6-9.6,15-3,22.3C192.6,363,200.8,369.7,203.4,358.5z M186.2,402.5
	c8.2,2.4,4.3-12.9,0.1-16.9c-1.8,0.9-4.8,3-5.5,2.6C174.6,384.3,183.3,401.9,186.2,402.5z M172,305.1c7.6-4.5,7.5-12.8,9.2-20.4
	c2.2-9.2,1.6-8.7-6.5-10c-4.4-0.4-8.8-0.1-12.8,2.7C153.2,284,159.3,306.9,172,305.1z M154.8,252.5c5.4,6.9,18.6-13.6,22.4-17.5
	c-1.7-0.2-3.5-0.2-5.3-0.4C160.7,236.8,146.9,240.6,154.8,252.5z M143.2,318.8c-5.5,2.3-4.1,9.6-3.5,14.1c-0.6,9.2,14,21,13.4,12.5
	c-0.9-4.4-2-8.8-3.5-13C147.4,328.1,146,322.5,143.2,318.8z"/>
<path class="st7" d="M576.2,774.1c-3,0.7-4.8,4.3-4.4,8c1,5.1,5.4,2.6,9.2,3.1c2.4-0.2,4.8-0.6,7.2-0.8
	C596.6,783,583.2,771.2,576.2,774.1z M468.2,768.4c-9.4,2-79.8-4.8-75.8,4.1c0.4,2.7,2.4,3,4.4,3.1c22.8,0.5,44.2,1,67.2,0.8
	c2.9-0.4,8,1.7,7.7-3.1C471.6,770.9,471.6,768.4,468.2,768.4z M84.4,628.4c6.7-1.8,18.5-0.1,19.2-8.4c4-13.8,0.8-14.3-11.8-18.7
	c-7.9-3.1-12.4,5.3-18.1,9.3c-4.8,5,3.2,10.1,4.7,14.9C79.7,628.4,81.8,628.8,84.4,628.4z"/>
<path class="st8" d="M707.7,485.2c-14.1,7.2,9.9,18.8,14.3,25.8c12.3,14,77.8,60.5,86.3,27.8c0.3-5.7-4.3-10.3-6.5-15.3
	c-7.3-12.6-14.5-25.2-22-37.8c-0.5-1-2.4-2.2-3.3-2c-5.3,1-10.3,8.7-15.5,3.8c-3.7-3.5-4.1-10.2,1-11.9c0.8,4.4-1.5,11.2,5.6,9.6
	c-0.3-6.8-6.4-9.8,2-13.2C736.8,464.3,734.1,467.6,707.7,485.2z M751.9,481.4c1.8,0.5,3.3,1.8,4,3.6h0.1c1.9,2.2,3.7,4.2,5.5,6.4
	c0.3,0.3-0.1,1.3-0.1,2.1c-4.3-0.9-6.4-6.4-9.6-9.2C751.4,483.6,751.8,482.4,751.9,481.4z M755.7,494.6c0.9-0.6,2.1-0.5,3.2-0.6
	c0.3,0,0.8,0.9,0.8,1.2c-1.6,4-7.2,4.9-11,3c5.2,14.4-11,13-14.8,3c-1.6,5.4-3.6,7.4,1.7,11.4c1.6,1,3.9,5.3,1.7,5.3
	c-0.6-0.1-1.2-0.2-1.7-0.5c-4.8-4.8-9.6-9.3-13.9-14.2c-2.2-6.1,6.7-9.6,10.8-4.7c0.5-8.7,5.2-9.2,11.7-5.4c-0.9-2.6-3-4.3-2.4-7.2
	C747.8,486.7,748.5,498.9,755.7,494.6z M770.2,477.2c0.8,0.3,1.6,0.5,2.4,0.6c-0.6,0.6-1.2,1.2-1.7,1.8c-0.4,0.7-0.9,1.5-1.2,2.2
	c6.7,1.1,7-4.2,2.8-7.7c-0.6-0.5-2.5,0.6-4.3,1.5C767.1,478.3,769.5,476.7,770.2,477.2z M737.2,495.3c0.1,1.6-0.5,3.7,0.3,4.8
	c1.5,2,3.8,3.5,6.6,5C750.6,503.4,741.2,494.3,737.2,495.3z M727.9,505.7c0.7-0.7,1.3-1.4,1.9-2.3c0.3-0.3,0.3-0.8,0.3-1.8
	c-1.6-0.1-3.2-0.3-4.8-0.4C726.3,502.7,727.1,504.2,727.9,505.7z M452.1,654.9c-7.6-9.1-18.9-15-23.8-26c-0.3-1-2.2-1.9-3.4-1.9
	c-4.8,1.1-17-2.3-17.3,4.7c-0.2,2.1-0.4,4.7-1.7,6c-23,32.4-8.4,79.7-14.9,116.6c-1.1,4.9,0.4,8.5,4.1,8.6h73.1
	c2.4,0,3.6-0.9,3.6-3.7c-0.2-12.1-0.2-24.2-0.1-36.4C473,698.7,468.6,674.1,452.1,654.9z M421.9,683.6c-4.4-8.1-12.6-38.4-7.6-46.3
	c5.4,11.5,2.8,25.5,7.7,37.6v0.1c0.4,2.5,0.8,4.8,0.9,7C422.9,682.6,422.1,683.1,421.9,683.6L421.9,683.6z M447.7,677.2
	c-2-8.1-6.6-14.2-11.9-20.3c-3.3-6.1-9.8-11.7-10.4-18.6h0.1c2.3-3.7,2.6,0.3,2.9,0.6c2.2,3.4,3.8,7,6.1,10.3
	C437.7,656.5,454,669.7,447.7,677.2z M456.3,782.1c-20.5,1-43.1-3.3-62.6,0.8c-1.6,8.6,3.9,9,10.6,7.2c10.6-0.3,21.1-0.6,31.7-0.9
	c10.7-0.2,21.3-0.5,32.1-0.8c1.7,0.6,3.2-1.8,3.3-3C468.7,780.6,461,783,456.3,782.1z M416.9,621.5c9.1-0.9,18.1-2.9,26.8-6
	c3-2,2.5-5.4,2.4-9.1c-1.7-14.6-4.1-29.3-8.1-43.4c-3.6-11.8-7.8-23.4-12-35c-3.5-4.9-11.4-2.5-16.6-2.7c-7,1.7-5.7,15.4-8.1,21.3
	c-3.3,21.4-15,45.1-1.5,65.1C403.6,617.8,407.9,622.6,416.9,621.5z M63.2,648.3c25.5,10.5,51.9-7,71.6-22.7
	c4.6-5,10.5-10.8,15.3-17.1c6.7-8.9,11.1-18.9,6.4-29c-15.2-16.5-36-29.2-59.2-28.6c-7.4,0.3-13.6,3-16.8,10.4
	c-1,2.3-2.1,4.8-3.1,7.1c-7.3,16.7-14.5,33.3-21.7,50.1C49.4,629.5,50.6,641.8,63.2,648.3z M153.4,592.3c0.4,0.7,0.4,1.9,0.5,2.9
	c-2.5-0.4-4.5-1.6-7.2-0.6c0.8,0.8,1.4,1.7,2,2.7c0.7,1.1,1.4,2.3,2,3.5c-1.3-0.1-2.6-0.3-3.8-0.6c-0.9-0.2-1.6-0.4-2.5-0.7
	c-1,4.1,1.5,4.6,3.5,7.4c-0.9,0.3-2,1.3-2.7,1c-4-0.9-5.1-3.1-4.9-5.7c0.1-2.6,1.6-5.7,3.1-8.3C146.1,589.4,150.9,588.7,153.4,592.3
	L153.4,592.3z M144.1,587.5c-4.4,4.9-13.9-2.9-9.2,10.3h0.1c0.8,1.5,1.6,2.8,2.2,4c-8.6-1.1-9.2-7.8-6.3-12.4
	C133.5,585.3,139.2,582.7,144.1,587.5L144.1,587.5z M122.4,592.6c0.1-0.3,0.3-0.4,0.3-0.7c2.2-4.4,4.5-8.8,7-13.2
	c1-0.5,2.1-0.9,3.2-1.2c0.4,1.5-1.7,6.4-4.3,10.9c-2.2,3.9-4.7,7.4-6.2,7.3C122.5,594.6,122,593.4,122.4,592.6L122.4,592.6z
	 M118.5,570.8c0,2.7-1,5.3-2.8,7.3l0.1,0.1c-7.2,9.5-0.6,5.2,4.2,12.3c-2.8,3.3-5.9-1.4-8.9-2.1c-3-1.7-3.6-4.1-1.8-6.9
	c0.4-0.5,0.7-1,1-1.5C112.5,576.5,114.1,572.1,118.5,570.8L118.5,570.8z M80.1,569.6c1.3-3.2,3.4-6.2,4.8-9.4c1.8-3.6,5-3.6,8.2-2.6
	c3.5,1,6.3,5.8,4.3,9c13.1-5.4,14.4,5,10.5,12.2c-2.9,5.5-8.8,9-14.7,1.7c-1.5-3.3-0.8-6,0.9-8.6c0.3-0.5,0.5-1,0.6-1.6
	c-11,3.2-7.2-5.7-15.7,6.7C78.7,574.5,79.1,571.9,80.1,569.6L80.1,569.6z M65.3,610.4c6.3-5.7,12.5-11.4,19.1-16.6
	c1-0.9,4,0.3,5.8,1c25.7,10.7,23.4,3.8,18,31.7c-2.8,9.1-19.1,4.5-26.3,8.4c-3.9,0.4-5.8-1-7.3-4.3C72.9,624.3,64,616.2,65.3,610.4
	L65.3,610.4z M106.1,572.3c-1.2-9-11.7,0.4-9.3,6.4C101.2,584.3,106.1,576.5,106.1,572.3z M93.1,566.3c2.6-3.9-1.7-4.2-4.7-4.7
	c-0.6,1.6-1.1,3.1-1.7,4.7C88.8,566.8,91.1,569.1,93.1,566.3z"/>
<path d="M852.6,654.1c-11.1-35.6-19-72.6-31.4-107.8c-21.4-39-43.1-78.6-69.5-114.4c-24.5-21.4-49-43.1-71.8-66.2
	c-28.3-27.7-49.8-8-31.4-45c8.3-23.6,9.8-48.9,12.6-73.5c3.3-0.8,5.7-1.3,5.9-1.4c5.5-1.2,10.9-2.5,16.7-3.9
	c9.1-0.9,17.8-4.3,26.9-5.6c7.8-1.3,16.1-0.8,23.4-4.6c-19.4,0.2-39,4-57.9,8.5c-1.7,0.7-7.8,2.1-14.5,3.8c2.1-16,1.2-29.7-2.2-41.8
	c14.4-6.2,26.3-11.4,30.7-14.1c-4.9,0-17,4.4-31.8,10.4c-3.8-11.1-10-21.3-18.1-29.8c9.5-7.9,17.3-14.6,21.3-18.9
	c-2.8,0.2-12.7,7.2-24.1,16c-9-8.9-20.2-16.6-33-23.6c1.9-1.8,3.9-3.7,5.7-5.6c4.3-3.6,8.5-7.3,12.6-11c-7.1,1.7-12.4,5.7-16.4,11.5
	c-0.1,0-0.1,0.1-0.1,0.1c-1.4,1.1-2.8,2.4-4.3,3.6c-4.7-2.4-9.6-4.9-14.6-7.1c-14.4-6.7-30.3-7.3-45.9-8.9
	c-4.7-1.8-45.2,2.1-38.3-5.7c10.4-16.9,10.4-77.2-21.4-59.8c-13.6,12.1-26.7,28.9-47.1,22.6c-11-2.5-20.6-7.6-30.3-12.9
	c-27.4-18.4-62.2-7.9-84.1,14c-12.1,11.4-22.4,24.6-32.5,37.7c-2.1,2.7-4,3-6.6,2.1c-15-3-86.6-41.2-87.2-13c1.3,14,2.3,28,5.5,41.7
	c-0.1,12.7,19.9,35.9,13.8,46.4c-2.8-0.6-5.5-1.1-8-1.6c-6.2-2.3-13.9-1.1-20.4-2.7c-26.8-5.1-54.3-5.5-81.3-1.4
	c0.3,0.6,0.7,1.3,1,1.3c13.9-0.1,27.6-3.4,41.5-1.6c18.2,1.5,36.4,4.9,54.6,5.7c2.7,0.9,6.1,2,9.8,2.9c-1.2,0.7-2.4,1.3-3.7,1.7
	c-14.4,4.1-29.1,7.1-42.2,13.1c-3.4-0.3-6.6-0.5-9.6-0.7c-0.4-0.2-0.7-0.3-1.1-0.3c-7-0.1-14.1-0.1-21.5-0.1
	c-5.9,1.2-11.2,2.5-16.8,3.6c10.3,0.6,20.8-0.4,31.2-0.9c3.4,0.5,7.5,1,11.9,1.5c-6.5,3.6-12.3,8.3-17.1,13.8
	c-6.6,0.1-11.7,0.3-12.5,0.5c-5.5,1.6-12.5,0.4-17.2,3.9c0.6,0.3,1.2,0.5,1.9,0.6c6.6-0.7,13.2-1.4,20-2.4c2-0.3,3.9-0.4,5.9-0.4
	c-0.1,0.1-0.1,0.2-0.2,0.3c-32.8,39.1-29.8,98.4-0.4,138.2c8.9,27.1,62.1,36.2,36.7,60.5C103.4,489.8,66.5,568,36.6,652.4
	C6.2,733-8,713,4.6,807.5c15.2,0.2,30.4,0.2,45.4-0.1c129.1-5.5,259.1-7.9,388.5-12.5c45.1-1.1,90.1-2.8,135.2-4
	c30.5-0.3,61.2-4.5,91.3,2.3c0.2,0,0.3,0.1,0.5,0.1c0.3-0.2,0.7-0.2,1-0.2c0,0.1,0.1,0.2,0.2,0.3l4,0.3c4.8,0.3,9.6,0.4,14.4,0.7
	c0.5-0.4,109.4,2.1,132.3-1.4v0.2c0.1,0.1,0.3,0.2,0.3,0.3c1.1-0.2,2.3-0.4,3.5-0.4c0.6-0.6,1.2-1,2-1.3
	c24.4-11.5,37.8-35.5,40.6-61.8C865.2,703.8,859.6,678.9,852.6,654.1z M772.5,474.1c4.3,3.5,3.9,8.8-2.8,7.7
	c0.3-0.7,0.8-1.5,1.2-2.2c0.5-0.6,1.1-1.3,1.7-1.8c-0.8-0.1-1.6-0.3-2.4-0.6c-0.7-0.4-3.1,1.1-2-1.6
	C769.9,474.7,771.8,473.6,772.5,474.1L772.5,474.1z M767.5,485.1c-7,1.6-4.8-5.2-5.6-9.6c-5,1.7-4.7,8.4-1,11.9
	c5.1,4.9,10.2-2.9,15.5-3.8c0.9-0.2,2.8,1,3.3,2c7.5,12.5,14.7,25.1,22,37.8c2.2,5,6.9,9.7,6.5,15.3c-8.5,32.7-74-13.7-86.3-27.8
	c-4.3-7-28.4-18.6-14.3-25.8c26.4-17.6,29.1-20.9,61.8-13.2C761,475.3,767.1,478.4,767.5,485.1L767.5,485.1z M584.3,417.1
	c-6.5-33.5,19-46.9,22.6-76.2c4.5-23.8,3-52.4-10.5-72.4c5-1.6,9.8-3.4,14.4-5c0.7,0.3,1.5,0.5,2.3,0.8c7.4,2.3,10.6-1,11.7-6
	c1.3-0.5,2.6-1,3.8-1.6c0.3,0,0.5-0.1,0.8-0.2c0.2-0.1,0.3-0.2,0.4-0.4c1.4-0.5,2.7-1.1,3.9-1.6c-1.3,2.6-2.1,5.4-2.4,8.3
	c-4.2,11.5,12.4,31.3,20.3,15.2C647.5,330.8,614.4,375.8,584.3,417.1L584.3,417.1z M531.9,634.6c0.3-14.5,4.5-29.5,17.5-37.8
	c2.4-1.4,5.4-1.4,4.9-5.1c-0.3-2.1-1.1-2.9-3-2.2c-23.4,7.9-25.4,35.7-25.5,56.5c-13.7-10.9-26.5-23.5-26.1-42.3
	c-0.1-3.9-2.8-8-3-11.9c3.3-15.6,10.7-30,26-36.3c4.7-8.9-10.5-1.6-13,0.5c-10.2,7.7-14.4,19-17.9,30.9c-1.6,5.3-1,11.4-4.7,16
	c-3,3-7.3,10.3-11.7,5.4c-7.3-7.6-12.4-15.7-9.2-27.2c1.6-5.4,1.4-11.3,2.7-17c8.7-16.3,24-29.3,36.1-43.3
	c26.3-28.2,66.2-12.4,99.1-10.1c42.1,0,55.7,1.9,93.4,21.8c32.2,11.9,37.3,48.6,21.7,76c-8.5,18.1-23.8,31.2-36.8,46
	c-2.2,2.6-4.6,2.3-7.3,1.1c-12.1-5.9-24.8-9.6-38.3-8.8c-42.4-0.8-27.1-31-57.6,21.2c-8.3,12.9-12.1,12.9-24.7,10.6
	c-7.7-1.3-14.6-4.6-18.7-11.7C530.4,657.2,532.2,645.3,531.9,634.6z M554.9,498c-39-5.3-63.5,26.6-85.5,53.6
	c-9.3,10-8,23.2-10.4,35.8c-0.9,6.8,4,12,5.6,18.2c-7.4-3.4-18.3-30.4-17.8-39.3c-4.5-12.4-10.4-25.2-14.6-37.8
	c-0.9-2.3-1.3-3.7,2.4-4.2c15.8-1.6,31.3-5.5,45.9-11.6c9.6-3.8,19-7.8,28.2-12.1c19-9,33-25.5,47.8-40
	c24.1-27.5,46.7-56.6,65.7-87.9c4.6-7.5,8.9-15.2,13.4-22.8c2.5-3,6.7,0.3,4.3,3.6c-16.1,28.5-32.4,57-48.2,85.7
	c-10.8,18.8-21,36.4-31.1,55.3C559.3,496.8,557.8,498.1,554.9,498L554.9,498z M382.9,602.8c-20.8-6.1-36.5-22-54.9-32.8
	c-18.1-9.5-37.2-17.7-52.4-31.8c-33.3-27.1-57.5-62.7-80.4-98.5c-2.4-5.1-8.4-9.9-7.3-16c15,15,31.5,28,49,40
	c36.9,22,74.3,43.9,116.2,54.2c9.9,2.4,20,3.5,30,5c4,1.7,18.5-1,16.2,5.7c-4.4,18.8-8.7,37.6-12.3,56.5
	C384.9,588.8,389.1,604.4,382.9,602.8L382.9,602.8z M401.3,546.7c2.4-5.9,1-19.7,8.1-21.3c5.2,0.2,13.1-2.2,16.6,2.7
	c4.2,11.6,8.4,23.1,12,35c4.1,14.1,6.4,28.8,8.2,43.4c0.1,3.7,0.5,7.1-2.4,9.1c-8.7,3.1-17.6,5.1-26.8,6c-9,1-13.3-3.7-17.1-9.8
	C386.3,591.7,397.9,568,401.3,546.7L401.3,546.7z M607,246.2c1.6-4.5,2-10,6.4-12.8c7.6,4.3,8.3,14,7.9,21.7
	c-0.1,0.3-0.2,0.4-0.3,0.7c-2.8,0.9-5.7,1.7-8.6,2.8C608.2,256.3,604.9,250.9,607,246.2z M642.3,278.7c-9.7-5.1-9.8-23.9,0.6-27.5
	c0.7-0.2,1.7-0.4,2.8-0.6c1.3,0,2.6-0.2,3.8-0.8c0.1,0,0.2-0.1,0.3-0.1C647.7,257.6,652.8,283.2,642.3,278.7L642.3,278.7z
	 M652,270.5c-2.3-4.7,0.7-15.4-0.8-21.1l3.7-0.8C654.6,256.1,654.3,263.7,652,270.5z M655.7,233.6c-0.4,3.9-0.6,8-0.7,12.2
	c-1.7,0.4-3.3,0.9-4.8,1.4c-5.3-2-11.3-0.2-14.6,4.4c-3.2,0.8-6.7,1.7-10.4,2.9c0-4.2-0.5-8.5-1.4-12.6c-11-28.7-29.1,5.9-17.2,18.6
	c-4.2,1.5-8.4,3-12.9,4.4c-5.9-7.4-13.7-13.1-22.4-16.6c-1.6-0.6-3.1-1.2-4.8-1.7c1.7-1,3.1-2,4.5-2.9c0.6-0.2,1.1-0.5,1.7-0.9
	c5.7-4.8,25.6-14,47.6-23.7c2.3,2.2,5.6,3.5,10,3.5c5-0.9,12-5.6,12.8-10.1c0.1-1.1,0.2-2.2,0.2-3.3c3.7-1.6,7.3-3.1,10.9-4.7
	C656.1,214.1,656.7,223.9,655.7,233.6z M458.6,294.7c6.2-8.5,5-14.6,17.1-19.3c-8.4,0.1-1.3-6.4,0.4-10.3c2.1-3.8,2.7-7.5,5.3-10.4
	c8,22.3-16.4,39.2-33.3,48.8c-7.7,3.9-5-5.1-7.9-9.6c0-0.3,0.6-0.9,1-1c5.6-1.2,10.8-3.9,15.1-7.7
	C460.6,282.1,455.4,293.1,458.6,294.7z M443.7,311.4c7-1.1,13-4.7,18-9.6c31.3-30,35-45.2,15.6-61.2c9.7,2.8,20.4,4.9,24.6,6.3
	c-2.4,4.1-7.6,6-8.4,10.9c7.4,0,9.1-11.3,16.9-10.4c6.4,0.2,12.7,0.1,19,0.1c-9,6.1-16.5,11-19.2,12c-6.4,2.8-13.8,3.2-18.4,8.4
	c7.2,0.4,25-9.3,42.6-20.4c7.1-0.1,14.2,0.3,21.3,1.2c-21.3,11.6-50.2,29.6-49.3,21.5c-0.8,0.8-1.9,1.5-2.3,2.4
	c-3,7.3-12.4,1.4-17.8,4.9c2.5,3.6,8.5,2.5,12.5,2.3c-8.9,16.3-38.4,56-59.1,38.6C441.6,316.3,439.3,312.2,443.7,311.4z
	 M570.6,223.1c3.1-2.2,5.7-4,7.3-5.1c-0.2,0-0.4,0.1-0.6,0.1c10.9-8.2,25.6-19.5,39.8-30.7c-2.8,9.1-3.9,21.7,0.8,29.1
	c-19.6,9-36.7,17.3-42.2,19.8c-2.3,1.4-4.3,3.2-6.1,5.1c-2.3,1-5,2.4-7.9,3.9c-7-1.4-14.1-2-21.2-1.8c9.3-6,18.2-12,25.1-16.9
	l-0.9,0.9C566.3,226.3,568.3,224.8,570.6,223.1z M513.7,275.5c10.3-6.4,31.8-16.6,47.8-25.9c0.6,0.1,1.2,0.2,1.8,0.4
	c9.7,3.3,18.2,9.2,24.8,17.1c-33.8,11.8-71.8,25.5-91.4,26C500.2,285.5,503,275.7,513.7,275.5L513.7,275.5z M623.7,213.8
	c-6.3-6.4-5.4-17.8-3.2-26.3c0.7-6.9,8.4-0.1,13.2-0.4c1.2,6.5,5.7,12.7,5.9,19.5C634.3,209,629,211.4,623.7,213.8L623.7,213.8z
	 M639.1,211c-0.1,0-0.1,0.1-0.1,0.2c-1.2,3.7-6.5,8.2-10.9,5.7c-0.4-0.3-0.9-0.4-1.3-0.7L639.1,211z M653,200.8l-10,4.4
	c-0.5-7-2.7-13.8-6.8-19.1c0.1-0.1,0.2-0.2,0.2-0.3c-0.4-0.4-4.3-6-4.7-6c-1.2-0.4-2.3-1-3.4-1.3c2.5-2,5-4,7.3-5.9
	C644,180.2,650,190,653,200.8z M600.2,146.5c11.7,6.7,22.7,15.2,32.3,23.3c-3.7,2.9-7.4,5.7-11,8.6c-0.1,0.1-0.3,0.2-0.3,0.4
	c-12.8,10.1-24.2,19.4-26.8,21c-7.1,6.4-14.3,13.1-21.2,19.8c-8.4,3.9-24.3,14.7-38.1,24.1c-8.6,0.3-17.3,0.9-25.8,0.3
	c8.7-10.2,16.6-21,25-31.3c1-1.4,7.1-8.1,12.7-14.9c3.1-0.6,5.3-3.2,5.6-6.4c0.1-0.1,0.1-0.2,0.1-0.4c14.5-12.1,27.2-26.8,42.2-38.9
	V152C596.5,150,598.3,148.2,600.2,146.5L600.2,146.5z M544,193.5c-1-0.1-2.4,0-3.3-3.1c1.4-0.6,2.3-1.1,3.3-1c1.7,0.4,3.3,1,4.8,1.8
	C548.2,191.4,544.7,193.4,544,193.5L544,193.5z M503.8,93.5c-1,9.1-2.7,17.2-6.4,24.9c-4,7-11.2-0.7-16.4-2c-1.9-0.8-2-1.4-1.6-3.4
	c3.6-13.6,2.7-28.3,8.4-41.2c2.1-3.7,3.8-3.7,7.8-2.8C506.4,72,502.2,85.1,503.8,93.5L503.8,93.5z M446.3,88.3
	c11.1,0.9,18.9-5.5,26.6-12.1c5.2-6.1,9.6-12.2,17.1-14.7c3.4-1.1,9.8,1.7,8.6,5.7c-15.4-10.5-20.7,15.2-22.2,26.2
	c-1.7,4.3,0,21.6-8,15.9c-7.4-7.3-16.7-13-24-20.3C445.2,88.8,445.8,88.2,446.3,88.3z M393.1,70c12.3,5.6,24.1,13.6,36.9,17.2
	c6.8,0.6,11.1,4.8,15.6,8.9c9.1,7,15.1,20.3,27.7,21c1.8,0,4.2,1.7,5.3,3.3c0.4,0.5,0.9,1,1.4,1.6c7.7,7.2,27.9,6.4,38.1,8.5
	c10.6,1.9,36.5-3.4,42,7c1.7,3.4,6.3,2.7,9.6,3.5c3-2.4-2.1-4.7-3.4-6.9c10.6,1.3,21.3,5.4,31.4,11c-11.3,10.3-23.6,22.5-29.2,26.9
	c-4.8,5.1-12.2,9.6-16.9,15.4c-2.3-2.5-8-2.5-11-1.3c-6.3,3.6-6,9,1,11.9c0.4,0,1,0.1,1.4,0.1c-8.5,10.2-18,22.3-21.5,26.2
	c-3.7,4.6-5.3,11.4-10.7,14.4c-7,8.8-27.6,0.7-41.5-3.8c-5.9-3.9-13-7.9-21.5-12.4c20.6-1.5,47.6-24.8,21.9-42.4
	c-5.1-3.2-10.6-6.5-16.2-5.1c-12.2,2.9-19.6,11.1-21.6,21.1c-1.1,7.2,0.2,14.6,3.8,20.9c7.3,9,18.1,12.9,27,20.4h0.1
	c3.7,4.4,19.4,10.7,15.4,17.1c-10.1,16-15.9,25.3-34.9,30.6c-21.9,4.4-46.5-11.5-67.4-17.1c5.8-17.5,21-30.6,21.5-50.1
	c3.3-25.4-31.5-37.6-48.3-21.2c-9.2,8.4-11.1,31.7,3.9,34.1c11.9,1.3,23.9,1.9,35.8,1.7c2.3,2.3-3,5.7-3.9,7.9
	c-1.8,2.2-3.6,4.4-5.2,6.6c-11.2,1.1-31.7,7.7-40.5,7c-17.6-11.6-33.8-24.4-53.8-32.1l0.1-0.1c-14.9-6.4-43-16.3-65.8-22
	c1.2-2.3,1.8-4.8,1.6-7.4c0.2-0.4,0.5-0.7,0.8-1c7.4,4.3,13-0.1,18.3-4.2c3.6-3.7,12.7-13.9,15.6-20.7c10-3.7,18.1-15.2,23.6-23.8
	C306.4,108,341.4,48.8,393.1,70z M443.5,196.2c-8.6,5.9-3.2,14.5-1.6,22.2c-5.6-3-5.6-9.9-7-15.3c-0.3-12.6,8.2-21.3,17.8-24.2
	c9.4-1.4,21.7,5.5,23,15.4c1.3,6.8-3.7,13.2-8.4,17.1C470,198.1,454.8,188.7,443.5,196.2L443.5,196.2z M453.7,196.2
	c6.3,1.8,12.3,5.9,10.3,12.9c-5.5-21.5-30.3-5.4-15,9.5C438.4,221.9,437.9,194.3,453.7,196.2L453.7,196.2z M345.8,285.7
	c-3.1-4.5-5.8-9.4-10.1-13c-0.4-0.4-0.3-1.4-0.4-2.2c4.6,0.2,8.2,4,12.4,5.5c3,1.3,6.6,1.6,9.4,3.3c5.8,3.3,10.4,8.2,16.4,11.2
	c-4.8-10.2-20.5-22-37.8-31.8c1.4-0.4,2.7-0.8,3.9-1.2c1.6,1,3.2,2.1,4.8,3c4.4,1.7,12.4,7.4,16.7,5c-4.4-5-12.4-5-17.5-9
	c6.7-2.5,24.3-4.2,34.3-7.6c-12,16.7-17.8,33.8,9.2,43.3c15.6,6,29.4,16.6,46.1,19.2c3.9-0.1,3.7,4.9,2.2,6.6
	c-12.6,10.2-30.1,5.9-45.1,4.7c-18.3-3.2-31.5-17-40.9-32c9,0.3,16.8,9.8,25.8,7.7C370.6,291.8,352.5,290.2,345.8,285.7L345.8,285.7
	z M338.8,282.3c0.3,0.3-0.2,1.2-0.3,1.9c-10.4-3.8-21.8-8.5-33-10.1c-3.1-0.9-7-1.7-11.4-2.7c5.3-1.8,10.7-3.5,15.8-5.6
	C324.5,260.7,331.8,273.2,338.8,282.3L338.8,282.3z M330,260.1c8.3,4.3,16.2,9,23.1,15.1c-7.9-1.3-20.7-10.4-28.3-13.1
	C323.8,261.6,326.4,261,330,260.1L330,260.1z M435.5,305c-18.9-0.4-35-12.5-51.8-19.8c-6.9-3.1-10.1-8.3-8.6-15.1
	c5.6,4.5,17.6,8,22.6,11c11.3,3.5,21.4,10.4,33.4,11.1c5.8,0.8,7,1.4,7,7.2C438.6,301.5,437.6,304.4,435.5,305z M375.8,229.1
	c-4.2-1.5-3.1-7.6-3-11c1-10.9,23.7-14.4,21.5-1.9c-5.2-8.9-18.9-5.8-19.4,4.4C375.2,224.2,375.8,226.1,375.8,229.1z M368.8,228.2
	c-7.9-1.5-21.7,1.5-22.6-9.7c-2.3-11.7,4.9-20.6,15.6-24.6c13-2.9,25,1.8,30.7,13.3c-8.4-5.1-21.6,1.9-22.3,10.1
	C369.4,220.6,371.5,225.9,368.8,228.2L368.8,228.2z M213,105.9c21.9,7.4,43.7,15,65.6,22.3c2.2,0.9,2.3,1.7,1.1,3.3
	c-5.5,7.7-10.2,16.3-16.7,23c-32.2,28.5-31.5-40.1-54.5-47.4C207.5,103.6,211.2,105.7,213,105.9z M200.1,109.9
	c24.8,6.5,20.4,42.3,40.3,55.1c3.4,1.9,7.3,2.7,11.2,2.4c-9.9,9.1-26.4,27.4-32.7,16.7C207.3,161.1,199.8,135.6,200.1,109.9
	L200.1,109.9z M217.3,202.7c9.1,2.3,18.1,4.4,20.8,5.7c8.1,3,17,2.5,24.8,7s16.7,7,24.7,11c17,8.8,33,19.1,49.1,29.3
	c-1.6,0.3-3.2,0.6-4.9,1c-15.6-8.3-31.8-14.7-42.8-16.7c-4.9-1.7-9.5-3.4-9.7-3.5c-3-1.1-6-2.2-9.4-3.3c-2.2-1.3-11.5-3.6-19.2-4.9
	c-7-2.9-14.4-3.9-22.4-3.9c-8.5-0.9-31-4.7-51.7-7.2C188.1,212.8,208.7,211.4,217.3,202.7L217.3,202.7z M169.7,219.9
	c21,1.9,45.4,3.7,53.2,5.3c10.6,1.3,21.1,6.1,31.8,6.6c3.2,1,5.7,1.6,5.8,1.6c4.7,0.8,19.7,5.8,30.4,8.8c11,5.6,23,10.2,34.4,15.6
	c-5.6,1.1-10.7,2-12,1.4c-23.8-10-49.4-14-74.6-19.6c-20.7-3.1-42-9.3-63-7.2c-5.1-1.8-10.7-1.8-15.8,0h-9.6
	C155.9,227.2,162.5,222.9,169.7,219.9L169.7,219.9z M177.1,235c-3.7,3.8-17,24.4-22.4,17.5c-7.8-11.9,5.9-15.7,17.1-17.8
	C173.6,234.8,175.4,234.8,177.1,235z M167.8,395.7c-7.8-6-15.9-11.4-21-20.4c-4.7-8.4-10.4-16.2-14.8-24.7
	c-10.3-21.9-12.8-49.7-6.6-74.5c3.9-15.8,11.4-30.4,22.5-41.6l7.8-0.3c-3.4,2.1-6.2,5-8,8.5c-4.5,7.9,5.4,19.4,14.2,13.8
	c7.8-4.4,12.4-11.8,17-19.2c5-4.3,15.3-0.2,21.7-0.3c16.8,1.8,33.6,4.7,50,8.8c19.7,5.4,41.9,7.1,60.2,16.2
	c-8.3,2-16.4,4.6-24.4,7.8c-11.7-2.3-23.6-4.2-26.8-4.6c-5.7,0.2-11.5-3.5-16.9,0.9c-3.6,0.1-2.7-3.7-8.9-2.7
	c-22.2-0.5-43.1,3.3-64.5,7.1c-1.5,0.1-3,0.3-4.4,0.8c-13.1,1-29.6,3-35.1,5.8c1.3,0.1,2.6,0.6,3.7,0.4c6.7-0.9,13.2-1.9,20.1-3.1
	l-0.1-0.1c0.7-0.1,3.3-0.4,6.7-0.7c-9.5,7-9.8,23.7-0.7,31.8c16.1,12.6,25.1-6,25.2-20.8c0.2-4.6-0.3-10.4-5.3-12.6
	c18.9-3.1,37.8-7.7,57-5.4c2,0.1,5.1-1,2.4,3c-3.2,19.8,20.2,5.7,13.3-2c7,1.3,17.3,3.4,27.5,5.3c-16.3,8.2-27.3,19.2-44.4,37.7
	c-11.1,10.5-10.4,27.4-14,41.4c-4,17.3,3.7,34,14.9,47c1.3,1.5,2.6,3,4,4.4c22.7,22.4,49.8,40.1,76.1,57.4
	c15.8,14.3,26.9,34.7,43.5,47c-9.8-16.4-24.5-30.8-37.1-45.5c-28.3-23.3-63.6-39.8-85.6-69.9c-12.6-15.1-10.3-34.3-8.6-52.7
	c-0.1-24.4,22.9-37.9,38.1-53.7c5.7-5.6,12.7-9,20-11.8c6.2,1.1,12.4,1.9,18.6,2.4c10.4,3.7,21.6,7,32,9.7
	c7.2-1.6,11.1,13.4,16.4,17.6c5.6,6.4,11.2,12.6,17.7,17.8c17.5,12.1,42.1,12.1,61.9,5.8c3.1-1.1,6.4-1.2,9.5-0.4
	c21.7,3.8,37.8-13.6,49.7-29.1c3-3.8,8.1-2.1,12.2-2.7c7-1,14.3-1.9,21.1-3.8c11.6-3.8,39.4-12.4,65.5-21.1
	c20.7,28.4,18,75-1.6,103.2c-5.6,7.3-8.8,16.2-8.9,25.5c-2.6,12.6,5.4,19.4-3.4,28.2c-11.6,14.8-24.1,28.8-37.4,42.1
	c-51,49.4-116.8,57.6-180.9,42.7c-56.1-13-110.8-43.7-152.7-79.8c-3.3-2.8-6.4-5.7-9.6-8.5C187.8,413.8,178.5,403.8,167.8,395.7z
	 M249.2,267.2c-0.5,1.9-1.2,4.9-1.6,5.4c-0.6,0.7-1.6,0.9-2.5,1.3c0.3-2.4-2.2-6.8,1.4-7.1C247.2,266.9,248.2,267,249.2,267.2z
	 M174.7,274.7c8.1,1.3,8.7,0.8,6.5,10c-1.7,7.7-1.6,15.9-9.2,20.4c-12.7,1.7-18.8-21.1-10.1-27.7
	C165.9,274.6,170.2,274.3,174.7,274.7L174.7,274.7z M184.4,432.4c0.7,1.8,1.5,3.5,2.4,5.1c1.7,2.5,3.7,4.9,5.6,7.2
	c1.9,4.6,6.1,7,6.1,11.6c-7.9-5.1-13.3-17-24.5-11.6C175.7,439.6,182.1,437.6,184.4,432.4L184.4,432.4z M175.6,451.4
	c3.4-3,4.5-3.7,10.3,0.6c2.3,2.6,13.1,9.1,7.2,12.2c-13.7,7.5-22.1,23.2-23.8,38.3c-2.4,3-8.2-9.5-11-10.9
	C149.4,481.5,167.7,458.5,175.6,451.4L175.6,451.4z M166.6,450.9c-3.7,9.7-13,16.6-15.4,27c-1.6,11.1-6.4,0-13.1-1.1
	C147.3,468,156.2,458.3,166.6,450.9L166.6,450.9z M55.6,618.6c7.2-16.8,14.4-33.4,21.7-50.2c1-2.3,2.1-4.8,3.1-7.1
	c3.2-7.4,9.4-10.1,16.8-10.4c23.2-0.6,44,12.1,59.2,28.6c4.8,10.2,0.4,20.2-6.4,29c-4.8,6.3-10.7,12.2-15.3,17.1
	c-19.7,15.7-46.1,33.2-71.6,22.7C50.6,641.8,49.4,629.5,55.6,618.6L55.6,618.6z M132,799c-5.8-1.5-26,4.9-25.1-3.7
	c-2.4-27.2,4.7-54.7,22.9-75.8c7.4-9.2,16.4-16.5,25.9-23.4c8-4.2,23.8,0.3,32.5,2.1c-15.9,9.6-32.4,21.4-41,38.3
	c-8.3,17-16.2,33.5-13.9,52.7C132.9,792.4,137.7,798.7,132,799z M252.9,795c-20.1,0-40.3,1-60.4,1.9c-15.4,0.4-29.8,0.4-44.9,1.2
	c-19.8,2.4-1.3-51.3,5.3-59.6c9.9-17.6,27-27.5,42.3-39.5c8.1-1.9,15.6-6.1,22.1-11.1c15.8-13.8,32.5-29.5,55.4-24.3
	c30.3,4.3,58.4,37.7,44.5,68.2c-6.3,13-12.8,28-27.7,32.8c-1,0.3-2.5,2-2.4,3c1.2,12.9-7.7,18.1-16.9,23.4
	C264.8,794.1,259,795.1,252.9,795L252.9,795z M310.8,793.2c-12.2-0.1-25,2-36.8,0.9c8.5-4.3,16.2-9,17.8-19.5
	c0.3-1.7,1.3-3.3,2.7-4.3c12.1-5.5,17.5-16,23.6-26.5c0.4,0.4,0.7,0.9,1,1.4c0.5,0.8,1,1.5,1.5,2.2c6.4,9.6,10,19.1,9.6,30
	C329.1,784.4,317.1,791,310.8,793.2L310.8,793.2z M359.7,791.7c-11.1-0.3-22.8,1.8-33.7,0.8c21-11.4,6.4-36.6-1.9-52
	c-0.6-1.4-1-3.5-0.4-4.6c17.7-42.9-32.1-88-72.9-77.2c-7.3,2-14,5.6-19.6,10.7c-22.4,20.3-29.5,30.3-61.7,21.5
	c-26.3-3.7-54.5,20.4-80.3,16.4c-4.5-0.3-9.1,0.2-13.3,1.7c-10.5,3.6-19.6,11.9-22.9,22.7c-4.4,10.7-7.6,22.2-13.3,32.2
	c-0.1,1-0.1,2,0,3c11.8-10.4,12.1-29,22-41.5c7.4-11.3,19.6-16.8,32.6-13c16.8-0.7,31.5-10.1,47.4-13.1
	c-28.4,22.2-44.4,57.4-40.7,93.3c0,6.9,0,6.9-6.7,7.2L84,800.5c-24.9-0.3-49.2,2.3-73.2,1.3c-3.1-18.7-6.3-39.5-4-59.2h0.1
	c1.1-11.9,5-23.4,11.4-33.5c12.8-21.5,19.7-46.3,29.7-69.3c23,52.8,140.6-24.9,111.8-66.4c-18.8-17.6-45-33.8-71.2-27
	c13.3-23.1,28.4-46.2,46.7-65.9c2.2-5.1,19,13.7,21.8,16.3c37.3,35.8,48.4,146.3,93.4,160c-2.4-4.7-7.6-7.1-11.3-10.8
	c-8.6-7.4-13.2-17.4-17.6-27.5c-14.6-31.5-23.7-65.1-39.5-96.1c-7.1-10.5-9.7-16.9-4.6-28.9c3.8-11.9,12.2-22.2,24.5-25.7
	c2.6-1,5,0.6,6.8,3c14.8,20.8,30.1,41.4,48.4,59.1c19.6,20.2,44.1,33.7,69,46c16.6,10.7,32.3,23,50.3,31.5
	c7.8,5.2,11.8-1.9,15.2,2.1c3.2,6.3,13.5,12.8,10.4,20.3c-18.7,32.1-14.4,69.4-15,105.2c-2.4,17.9-0.9,35.7,0.7,53.6
	C385.1,793.3,365.7,790.5,359.7,791.7L359.7,791.7z M468.1,788.5c-10.8,0.3-21.4,0.6-32.1,0.8c-10.5,0.3-21,0.6-31.7,0.9
	c-6.7,1.8-12.2,1.4-10.6-7.2c19.5-4.1,42.1,0.2,62.6-0.8c4.7,0.9,12.4-1.5,15,3.4C471.3,786.6,469.8,789,468.1,788.5L468.1,788.5z
	 M464.2,776.5c-23,0.2-44.4-0.3-67.2-0.8c-2.1-0.1-4.1-0.4-4.4-3.1c-4.1-8.9,66.4-2.1,75.8-4.1c3.4,0,3.4,2.4,3.6,4.9
	C472.1,778.2,467,776,464.2,776.5L464.2,776.5z M471.8,759.3c0,2.8-1.1,3.7-3.6,3.7h-73.2c-3.7-0.1-5.2-3.7-4.1-8.6
	c6.5-37-8.1-84.2,14.9-116.6c1.3-1.3,1.6-3.9,1.7-6c0.3-7,12.5-3.6,17.3-4.7c1.2,0,3.1,1,3.4,1.9c5,11,16.3,16.9,23.8,26
	c16.4,19.1,20.9,43.8,19.6,68C471.6,735.1,471.6,747.2,471.8,759.3L471.8,759.3z M480,787.8c-2.4,0.1-2.7-0.7-2.7-2.9
	c0.1-11,0-21.8,0-32.9c1.3-53,4.4-83.9-40.4-120.5c-2.5-2-3.5-6.6,0.4-7.7c8.3-2.9,19.6-2.8,14.9-15.3c-0.4-3.8-3.2-8.4-1-11.9
	c5.6,4.2,5.6,17.5,15.3,14.3c1.6-0.3,3.3,0.2,4.5,1.3c8.8,9.3,17.3-1.1,22.2-8.4c1.4,21.5,13.7,37,31.7,47.9c1.2,1,1.9,2.3,2,3.8
	c-1,22.3,24.5,33.7,43.4,28.8c17.4-7,19.1-30.5,33-41.5c-1,20.2-4.7,40.9-5.2,61.3c-5.7,10.8-17.5,20-27.4,27.3
	c-12.6,9.2-28.4,9.2-43.3,11.5c-8.4,2.3-23.6,4.5-18.4,16.5C527.3,798.8,525.8,783.8,480,787.8z M588.2,784.4
	c-2.4,0.2-4.8,0.6-7.2,0.8c-3.8-0.5-8.3,2-9.2-3.1c-0.3-3.7,1.4-7.3,4.4-8C583.2,771.2,596.6,783,588.2,784.4L588.2,784.4z
	 M596.6,782.1c-1-15.9-29.4-20.3-30.5-2.8c-0.3,2.5,1,5.9-2.9,6c-7.7-1-33.5,4.8-36.5-1.5c-4.2-9.1-10.1-17.8-12.5-27.6
	c-0.3-8,23-8.4,29.2-9.3c23.2-0.8,40.9-17.6,55.4-33.4c0.4,0.5,0.7,1.1,0.9,1.7c0.1,2.7,0,5.4,0,8c1.7,6.6,2.8,12.4,4.9,18
	c1.9,6.6,9.5,13.3,7.8,20.3c-4.2,6.2-7.5,12.9-9.7,20.1C601.9,783.7,597.5,785.8,596.6,782.1L596.6,782.1z M611,783.8
	c-1.7,0-3.1,0.4-1.7-2.3c11.8-24.1,6.4-20.9,24.4,2.3H611z M849.8,757.8c-6.2,12.6-16.6,22.5-29.4,28.3c-1.1,0.3-2,1-2.6,1.9
	c-23.2-5.4-141.9,2.1-146.2,0.6c-13.8-3.3-30.4-2-39-15.4c-29.7-34.4-29.7-52.4-27-96.5c0.6-8.8,2.3-17.5,3-26.3
	c0.3-4,1.7-3.7,4.2-2.4c7.7,4.4,16,5.8,24.8,5.1c19.4-3.9,42.4,16.9,48.2,6.7c22.9-24.2,48.9-50.5,48-86.5c8.1,10.4,26,11.7,25,27.8
	c4.6,15.3,24.5,11.8,32.4,29.9c5,7.6,5,17,9.7,24.4c2.7-3.5,0.5-7.7-0.2-11.5c-7.3-37-36.5-28.8-37.6-49.4c-0.2-11-13-14.4-20-20.8
	c-5.7-2.5-3.8-8.9-6.6-13.3c-8-10.2-15.8-21.2-26.8-28.1c-14.3-8.3-29.6-15-45-21.2c-6.1-2.4-6.1-2.3-4.1-8.7
	c5.1-17,14.3-32.2,29.1-42.2c3.6-2.4,1.1-5.6-1.7-5.6c-0.6,0-1.2,0.2-1.7,0.4c-45.3,38.2-18.4,55.5-48.1,50.7
	c-23.7-0.4-47-1.6-70.2-6.4c-2.4-1.2-1.7-4.3-0.1-6.1c17.2-29,32.8-59.5,49.7-88.3c4.1,18.4,3.7,18.4,22.2,16.9
	c17,2,33.8,9.4,45.9,21.5c1.8,1.6,3.9,4.5,6.1,7.3c4.4,5.6,9.4,10.6,14.4,3.2c4.2-8.2,12.1-9.6,8.8-20c-0.3-16.4-18-20.8-29.4-28.4
	c-14.1-10.3-30.4-17.5-48.3-16.6c-10-0.6-12.3,10.3-19,15c6.7-16.7,17.8-31.6,26.3-47.4c6.8-10.5,38,18.9,43.8,25.2
	c26.3,28,59.8,49.3,79.4,83.1c-38.7-6-33.9-2.6-66.3,17.3c-14.8,10,8.9,23.6,15.1,32.1c16.5,17.2,81.1,64.5,96.5,29.3
	c11.9,25.9,16.4,56.2,25.9,83.6C849,669.5,869.1,715.3,849.8,757.8L849.8,757.8z M631,397.5c23.8-9,45.8,10,65.6,20.9
	c15.9,10.4,17.2,19,3.6,32.4c-15.6-15.1-30.9-32.2-54.3-33.5c-4.8-0.4-9.6-0.4-14.4,0c-3.2,0.3-4.9-1.3-6-3.7
	C621.7,406.3,627.2,402.2,631,397.5z M761.4,493.4c0-0.8,0.3-1.7,0.1-2.1c-1.7-2.2-3.6-4.2-5.5-6.4h-0.1c-0.7-1.7-2.2-3.1-4-3.6
	c-0.1,1-0.5,2.2-0.1,2.8C755,487.1,757.2,492.5,761.4,493.4z M741.8,485.9c-0.6,3,1.6,4.6,2.4,7.2c-6.5-3.8-11.2-3.3-11.7,5.4
	c-4.1-4.9-13-1.4-10.8,4.7c4.3,4.9,9.1,9.4,13.9,14.2c0.5,0.3,1.1,0.5,1.7,0.5c2.2,0-0.2-4.3-1.7-5.3c-5.3-4-3.3-6-1.7-11.4
	c3.7,10.1,20,11.4,14.8-3c3.8,1.8,9.5,1,11-3c0-0.4-0.5-1.2-0.8-1.2c-1.1,0.1-2.3,0-3.2,0.6C748.5,498.9,747.8,486.7,741.8,485.9z
	 M729.8,503.4c-0.6,0.8-1.2,1.6-1.9,2.3c-0.9-1.5-1.7-3-2.5-4.4c1.6,0.1,3.2,0.3,4.8,0.4C730.1,502.6,730.1,503.2,729.8,503.4z
	 M744.2,505.2c-2.8-1.6-5.1-3-6.6-5c-0.9-1-0.3-3.1-0.3-4.8C741.2,494.3,750.6,503.4,744.2,505.2L744.2,505.2z M587.5,172.3
	c-6.2,3.7-6,9,1,11.9c5.5,0.8,10.3-0.9,11-6.5C600.9,171.2,591.7,170.7,587.5,172.3z M591,179.8c-1-0.2-2.4,0-3.3-3.1
	c1.4-0.6,2.3-1.2,3.3-1.1c1.7,0.4,3.3,1.1,4.8,1.9C595.2,177.7,591.7,179.8,591,179.8L591,179.8z M550.4,167
	c9.2-2.3,3.2-15.6-1.8-20.5c-9.1-6.6-15.8-2.8-14.4,9C537.2,163.6,542.8,169.5,550.4,167z M540.8,147.5l2.4,1.9
	c1.7,1.6,3.1,2.5,3.7,4c0.3,0.6,4.9,7.5,4.6,8.4c-4.9,6.5-11.7-2.7-11.9-3.6C539.1,156.7,537.5,150.8,540.8,147.5L540.8,147.5z
	 M520.6,182c2.4-9-2.5-13.6-11.5-9.8c-5.6,4.3-8.5,10.2-4.3,15.8C509.4,195,518.1,187.1,520.6,182z M508.7,178.6
	c1-0.8,4.8-5.6,8.4-3.6l1.1,3.6c-0.6,1.8-2.6,2.8-3.6,3.6c-0.3,0.3-3.2,4.2-4.8,4.8c-1.2,0.5-3.5-2.3-3.6-3.6
	C506.1,181.8,508.3,178.8,508.7,178.6L508.7,178.6z M510,231.7c4.6-4.4,7-9.7,3.2-14c-3.9-5.4-11.1,2.4-13,7.1
	C498.4,232.7,502.7,236,510,231.7z M505.3,223.9c1.5-1.2,3.2-2.2,5-3c-0.2,0.7-1.3,5.2-1.7,5.6c-0.9,0.9-1.8,2.2-4.9,0.9
	C503.9,226.1,504.5,224.9,505.3,223.9z M391,503.9c33.6,4.9,66.2-11.2,98.2-20.4v-0.1c1.7-1,3-1.7,4.8-2.7
	c-19,0.3-38.4,10.8-57.5,14.4C421.6,499.6,405.9,500.2,391,503.9z M429.2,125.2c7.4,0.4,19.2,0.2,29.9,7.7h0.1
	c7.4,3.2,17,6.9,23.7,0.6c-1.3-0.4-2.6-1.2-3.8-1.2h-0.3c-7.5,1.3-13.9-1.1-19.8-5c-10-6.4-21.7-9.4-33.6-8.7
	c-1.7,0.1-3.6-0.6-3.3,2.5C421.4,124.4,424.4,124.9,429.2,125.2z M389.9,401.9c2.1,1.2,4.3,2.3,6.6,3.2c20.3,7.5,39.2,11.1,57.8-2.6
	c6.8-4.9,15.5-9,20-16.1c-16.1,6-29.1,21.3-47.9,21c-10.2,0.4-19.7-2.4-29.1-6c-3-0.9-6.1-2.7-9.3-1.4
	C388.4,400.8,389.1,401.4,389.9,401.9z M428.4,638.8c-0.3-0.3-0.6-4.3-2.9-0.6h-0.1c0.5,6.9,7,12.5,10.4,18.6
	c5.3,6.2,9.9,12.3,11.9,20.3c6.3-7.5-10-20.7-13.2-28.1C432.2,645.9,430.6,642.2,428.4,638.8z M389.5,468.5L389.5,468.5
	c-2.4,4,25.9,7.5,29.8,8.4c23.7,2.9,46.4-10.4,67.3-19.6c-15.4,1.1-30.2,9.4-45.4,13C424,476.6,407.1,470.5,389.5,468.5z
	 M428.9,195.4c0.3-2.3,1.4-4.3,1.2-6.6c-5.7-16.7-5.2-34.3-8-51.5c-0.3-0.4-0.7-0.7-1.1-0.8c-4.7,0,4.2,52.5,5.9,54.9
	C427.4,192.9,428.1,194.2,428.9,195.4z M422,674.9c-4.9-12.1-2.3-26.1-7.7-37.6c-5,7.9,3.1,38.2,7.6,46.3c0.3-0.5,1-1,1-1.6
	c-0.1-2.3-0.5-4.5-0.9-7L422,674.9z M402.3,284.9L402.3,284.9c-3.2-0.1-6.6-1.7-9,0.6c1.9,1.8,4.8,1.8,7.3,2.5
	c6.9,1,9.3,7.7,14.7,10.5c0.2-0.7,0.3-1.4,0.4-2.2C414.8,292.9,407.1,284.4,402.3,284.9z M402.1,129.1c-2.4-3-4.3-11-8-10.6
	C391.1,122.3,402.1,142.6,402.1,129.1z M380.2,144.5c6.4,13.6,11.4,27.1,13.1,41.9c1.7,6.3,1.5,13.7,6,18.6
	c-2-21.7-4.3-46.9-19.2-63.9C380.1,142.2,380.1,143.4,380.2,144.5L380.2,144.5z M342.2,157.8c11.7-2.5,21-10.1,30.6-16.8
	c2.7-1.9,1.1-3.8-1.3-5.3c-2.5-0.6-4.2,0.3-5.7,2c-6.6,7.1-14.7,11.7-23.8,14.6c-12.4,3-21.7,14.5-23.9,26.8
	C326.7,171.9,329.5,160,342.2,157.8z M309,735c-12.8-12.8-24.4-26.6-42.1-33c-9.3-1.8-19.1-4.5-27.9-1c3.7,1.8,7.9,1.5,12,1.9
	c9.4,0.3,17.6,4.3,25.4,9.1c13,6.6,21.9,19.7,33.8,27C311.5,737.7,310,736.1,309,735z M301.9,160.5c3.8-0.3,6.6-4.9,4.7-7.9
	C302.3,149,298.4,156.4,301.9,160.5L301.9,160.5z M289.8,184.1L289.8,184.1c4.4-3.5,3.2-8.1,3.3-12.4
	C288.3,169.4,280.1,188.1,289.8,184.1z M253,223.2c0,0.1,0.2,0.2,0.5,0.5c2.8,4.1,11.7,5.9,10.8-0.7c-3.7-3.4-6.6-10.6-12.4-9.4
	c-2.2,1.5-2.6,2.2-2,2.7C246.8,219.5,252.4,222,253,223.2z M260.3,224c-0.6,0-4.6-3.4-5.2-3.6c-1-0.2-1.6-1.9-2.6-3.3
	C255.8,217.8,261,218.7,260.3,224L260.3,224z M217.3,741c0.4,0.6,0.6,1.7,1.2,1.8c7.6,3.1,12.2,9.5,16.4,15.9
	c8,10.3,12.2,24.3,22.1,32.8c-1-9.4-7.6-16.9-11.5-25.7C237.4,757.6,230.9,738.3,217.3,741z M221.6,414.5c8,9,16.5-5,8.6-12h0.1
	c-0.4-0.9-0.8-1.7-1.2-2.5C222.9,390.1,214.5,407.8,221.6,414.5z M223.7,401.3c3.3-1.7,5.1,7.4,3.1,9.8
	C223.3,408.7,223.6,405,223.7,401.3z M210.9,306.6c-9.1,16.2,7.6,49.2,16.5,8.7C232.4,304.7,216.8,297.8,210.9,306.6z M219.2,329.1
	c-8.2,0.1-6.8-15-4.4-20.5c1.2-3,3.6-3.3,5.6-2.5C229.4,310.3,222.9,322.8,219.2,329.1z M215.6,292c5.4-4.8,8.3-11,10.6-17.8
	c3.7-8.3-26.5-8.1-29.7,10.8C194.6,294.9,209.3,297.5,215.6,292z M224.6,273.6c-1.1,1.6-2.4,3.1-3.5,4.7c-0.4,0.7-0.7,1.3-1.1,2
	C199.8,310.2,191.4,266.2,224.6,273.6L224.6,273.6z M204.7,398.6c0-0.3-0.1-0.4-0.1-0.7c-0.2,0.1-0.3,0.3-0.4,0.4
	c-3.6,3.6-3,9.6-3.6,14.4c-0.5,5,3.2,12.6,8.2,16.7c3.1,2.5,6.7,3.7,10.2,2.1c4.1-3,3-9.1-0.2-15.5
	C215,408.6,208.7,401.1,204.7,398.6z M205.1,401.9c2.7,6.3,10.2,13.3,11.9,18.9C217.8,440.5,199.3,414.3,205.1,401.9L205.1,401.9z
	 M212.5,250.2c0-0.2,0-0.3-0.1-0.4c-2.5-10.3-11.7-8.4-13.9-8C187.6,246.9,206.6,265.8,212.5,250.2z M211.6,249.6
	c-1.8,0.4-5.8,3.3-7.2,3.5C195.1,249.3,198.1,241.1,211.6,249.6z M206.9,359.5c0.6-8.8-1.7-16.5-4.6-24.4c-4.9-10.2-17.8-4.4-21,6.3
	C174.1,357.7,200.7,385.8,206.9,359.5z M191.5,334.4c4.6-2.8,7.8-1.8,9,3.6c0.9,6.8,3.4,13.7,3,20.5c-2.6,11.1-10.8,4.4-15-1.8
	C181.8,349.5,183.6,339,191.5,334.4L191.5,334.4z M194.8,395.5c-0.6-5.1-3.9-9-6.6-13.1c-0.5-0.6-1.7-0.7-3-0.8
	c-4.4-3.9-11.6,1.4-9.4,9.5C180,405.1,193.1,420.2,194.8,395.5z M180.8,388.2c0.7,0.4,3.7-1.7,5.5-2.6c4.2,4,8.1,19.3-0.1,16.9
	C183.3,401.9,174.6,384.3,180.8,388.2L180.8,388.2z M169.2,773c0.5,0.7,0.9,1.8,1.6,2c5.9,2.6,9.7,7.5,13.9,12.4h-0.1
	c2.9,3,4.1,7.4,8.3,8.1C191.9,786.5,178.8,771.4,169.2,773z M153.8,332.4c-3.9-4.1-6.1-17.5-12.5-16c-10.8,5.9-5.7,30.4,4.6,35.1
	C161.3,358,156.9,341.4,153.8,332.4L153.8,332.4z M139.7,332.9c-0.6-4.5-2-11.8,3.5-14.1c2.8,3.7,4.3,9.3,6.4,13.6
	c1.4,4.3,2.6,8.6,3.5,13C153.7,353.9,139.1,342.1,139.7,332.9z M140.3,602.1c-0.3,2.6,0.9,4.9,4.9,5.7c0.7,0.3,1.8-0.7,2.7-1
	c-2-2.8-4.5-3.3-3.5-7.4c0.9,0.3,1.6,0.5,2.5,0.7c1.3,0.3,2.5,0.5,3.8,0.6c-0.6-1.2-1.3-2.4-2-3.5c-0.6-1-1.2-1.9-2-2.7
	c2.7-1,4.7,0.2,7.2,0.6c-0.2-1-0.1-2.2-0.5-2.9c-2.5-3.7-7.3-3-10,1.5C142,596.5,140.4,599.5,140.3,602.1z M130.9,589.4
	c-3,4.6-2.4,11.2,6.3,12.4c-0.6-1.2-1.4-2.5-2.2-4h-0.1c-4.7-13.2,4.8-5.5,9.2-10.3C139.2,582.7,133.5,585.3,130.9,589.4z
	 M128.8,588.3c2.5-4.4,4.6-9.4,4.3-10.9c-1.1,0.3-2.2,0.7-3.2,1.2c-2.5,4.4-4.9,8.8-7.1,13.2c-0.1,0.3-0.3,0.4-0.3,0.7
	c-0.4,0.8,0.1,2,0.2,3C124.1,595.7,126.6,592.2,128.8,588.3z M111.1,588.4c3,0.7,6.1,5.4,8.9,2.1c-4.8-7-11.4-2.8-4.2-12.3l-0.1-0.1
	c1.8-2,2.7-4.6,2.8-7.3c-4.4,1.3-6,5.7-8.3,9.2c-0.3,0.5-0.6,1-1,1.5C107.5,584.3,108.1,586.8,111.1,588.4z M94.7,570.2
	c-0.1,0.6-0.3,1.1-0.6,1.6c-1.7,2.6-2.3,5.3-0.9,8.6c5.9,7.3,11.8,3.8,14.7-1.7c3.8-7.1,2.5-17.6-10.5-12.2c2-3.1-0.8-7.9-4.3-9
	c-3.2-1-6.3-1-8.2,2.6c-1.4,3.2-3.5,6.2-4.8,9.4c-1,2.3-1.4,4.8-1.2,7.3C87.4,564.5,83.6,573.4,94.7,570.2z M106.1,572.3
	c0.1,4.2-4.9,12-9.3,6.4C94.3,572.8,104.8,563.3,106.1,572.3z M88.4,561.6c3,0.5,7.3,0.8,4.7,4.7c-2,2.8-4.3,0.5-6.4,0
	C87.3,564.7,87.8,563.2,88.4,561.6z M82,634.8c7.2-3.9,23.6,0.7,26.3-8.4c5.4-27.8,7.7-21-18-31.7c-1.8-0.7-4.8-1.8-5.8-1
	c-6.6,5.2-12.9,11-19.1,16.6c-1.3,5.8,7.6,13.9,9.3,20.1C76.1,633.9,78.1,635.3,82,634.8z M73.8,610.6c5.7-4,10.2-12.4,18.1-9.3
	c12.5,4.4,15.8,4.9,11.8,18.7c-0.7,8.3-12.5,6.6-19.2,8.4c-2.6,0.3-4.7,0-5.9-3C77,620.7,69,615.5,73.8,610.6L73.8,610.6z M65.5,703
	c-7.9,2.1-15,5.8-20.4,12.3c-7.7,10.7-17.9,19-26.3,28.9c9.6-2.1,22.4-17.3,29.4-24.8c7.1-7.9,16.3-12.2,26.4-15.2
	c2-0.7,4-1.3,6.1-1.8c4.3-1.7,9.2-1.5,12.7-4.4C88.5,694.7,72.2,701.9,65.5,703z"/>
</svg>
