<?xml version="1.0" encoding="utf-8"?>
<!-- Generator: Adobe Illustrator 25.2.3, SVG Export Plug-In . SVG Version: 6.00 Build 0)  -->
<svg version="1.1" id="Слой_1" xmlns="http://www.w3.org/2000/svg" xmlns:xlink="http://www.w3.org/1999/xlink" x="0px" y="0px"
	 viewBox="0 0 864 864" style="enable-background:new 0 0 864 864;" xml:space="preserve">
<style type="text/css">
	.st0{fill:none;}
	.st1{fill:#A2A3A6;}
	.st2{fill:#5EB4E1;}
	.st3{fill:#F9D6AC;}
	.st4{fill:#685C60;}
	.st5{fill:#8D1230;}
	.st6{fill:#C8A488;}
	.st7{fill:#313451;}
	.st8{fill:#FFFFFF;}
	.st9{fill:#BD6B3C;}
	.st10{fill:#DE9C66;}
</style>
<path class="st0" d="M482.1,404.2c7.6,22.6,15,45.3,23.1,67.6c1.4,2.8,1,6.9,4.2,8.3c1.5-3.3-0.3-7.2-0.3-10.8
	c-0.8-5.6-1.4-11.2-2.1-16.8c-2.4-24.3-7-48.3-13.5-71.8c-1.2-2.6-1.2-5.9-4.3-7c-0.9,3.7,1.2,7.2-0.9,10.8
	C486.2,391,480.9,397.3,482.1,404.2z"/>
<path class="st1" d="M569.7,458c0.5,0,1.3-2.1,2.1-3.7c0.5-4.6-3-3.9-4.1,0c-0.6,1.4,0,2.9,1.4,3.5C569.2,457.9,569.5,458,569.7,458
	z"/>
<path class="st1" d="M568.6,476.1c-3.3-0.1-2.9,3.5-2.8,6.1C569.5,486.9,571.9,477.7,568.6,476.1z"/>
<path class="st2" d="M415.5,264.7c1.5,3.5-0.5,6.5-2.1,9.3c-2.3,5.2-6.1,9-10.1,12.7c-0.1,0.3,0.2,0.8,0.3,0.8
	c6.5-0.5,13,0.2,19.5-0.1c-0.3-0.7-0.4-1.4-0.5-2.2c-1.5-2.2-3.2-4.4-4.6-6.7c-0.4-0.7,0.1-1.9,0.2-2.9c1.3,1.4,1.9,3.5,3.8,4.5
	c0.5-1.3-0.1-2.5-0.5-3.7c-1.7-6.7-2.3-14-4.8-20.4c-2.8,3.5-5.4,7.2-9.2,9.9c-3,3.2-7.9,5.5-8.8,10.2c3.7-1.2,6.6-6.1,10.6-5
	c-2.2,3.4-6.8,4.5-9.9,7.2c0.4,0.2,0.9,0.3,1.4,0.5c0.6,0.2,1.2,0.2,1.7,0.4c-3.4,2.8-7.1,5.2-10.2,8.3
	C404.2,289.4,410,272.3,415.5,264.7z"/>
<path class="st3" d="M365.9,209.2c7.4-5.4,17.3-9.3,19.9-18.8c0.6-7.2,3.7-14.1-0.9-20.6c-5.5-7.6-8.4-18-14.9-24.5
	c-1.1,8.1,1,16.4-9.5,19.2c-2.4,0.4-4.4,2-5.5,4.1c-3.6,6.7-6.4,14.1-14.6,16.7c-8.1,1.4-5.9-4.4-10.1-7.2c-0.2,0.1-0.5,0.1-0.8,0.1
	c0.7,6.1-5.9,21.3-3.7,25.3c0.3-0.4,0.5-0.9,0.8-1.4s0.7-0.8,1.1-1.2c0.9,6.1,6.8,8.3,11.4,11.6c3.1,1.4,6,5,9.5,4.2
	c-1.8-3.4-3.7-6.5-4.1-10.5c1.1,0.3,2.3,0.4,2.9,1.5C351.4,213.8,360.4,211.7,365.9,209.2z M323.1,173.9c6.5,3.5,10,0.9,14.5-4.1
	c3.5-3-2.8-4.2-1.5-7.4c1.9,0.8,4.1,3.2,6,3.5c6.8-2.2,20.5-1.7,23.7-9c0.8-4.1,1.4-9-0.1-13c1.1-4.2-0.6-3-3.7-3.7
	c3.4-2.3,3.4-3.7,2.1-7.4c-0.8,0.6-1.6,1.1-2.5,1.6c-0.6,0.3-1.4,0.4-2,0.7c-0.2-4.4,4.6-2.8,2.8-6.8c-2.5-5.9-5.4-11.7-12.2-13.7
	c2.1,14.8-0.7,45.1-20.1,46.8h-0.5c-0.8,0-1.6-0.1-2.4-0.1c-6.8-0.5-14.9-3.4-19.9-7.5c1.4,3.5,2.5,7.1,3.4,10.8
	C313.3,169.6,318,172.1,323.1,173.9z"/>
<path class="st4" d="M343.2,137.3c5,3.3,4-11.5,4.7-14.2c0.1-1.7,1-3.6-0.5-5.2c-6.3,12.4-15.3,32.9-31.1,29.4
	c-2.4-0.3-5.3-2.8-7.5-1.9c0.2,1.8,4.1,5.7,5.6,5.5c1.9-0.1,3.7,0.8,4.7,2.5c5.2,7.5,15.7,6.4,20.8-0.5c3.4-2.7-3.1-11.5-0.3-17.7
	C341,131.6,342.6,135.8,343.2,137.3z"/>
<path class="st5" d="M310.7,364.3c7.3-12.8,12.7-26.8,19.1-40.1c1.4-3.2,4.2-6.1,3.5-10c-3.9-18.8-1-38.3-1.8-57.3
	c-5.1,5.5,3.8,22.6-17.8,6.8c-5.2,10.9-11.1,21.5-14.1,33.3c0.1-0.2,0.1-0.3,0.5-0.5c5.7,0.3,19.5-6.1,22.2,0.3
	c0.6,3.5-1,6.7-3.4,7.1c-5.5,0.8-11,1.6-16.4,2.7c-0.9,0.2-2.8-0.6-3,1.2c-0.6,8.1,2.1,15.9,3,23.7
	C303.4,342.6,305.8,354.3,310.7,364.3z"/>
<path class="st1" d="M322.9,461.6c-1.4,3.3-0.3,6.3,1.6,8.8c4.7,5.8,9.1-2.1,7.7-6.9C331.5,459.7,324.7,456.9,322.9,461.6z"/>
<path class="st1" d="M322.3,377.9c-0.5-3.3-1.2-6.5-2-9.7c-6.6-4.1-6.1,10.3-1.4,11.6C320.2,380.4,322.4,379.5,322.3,377.9z"/>
<path class="st1" d="M301.6,303.7c5.1-0.8,10.4-2.2,15.6-3c1.5-0.3,2.4-1.3,1.9-2.6c-3.6-2.6-12.1,1.2-16.9,1.5
	c-2.3-0.3-3.7,0.7-3.4,3.1C299,305,300.7,303.5,301.6,303.7z"/>
<path class="st6" d="M354.1,84.7c1.4-5.3,0.2-10.1-3.4-14.6c-9-9.7-15.7-3.4-19.3,6.7c2.5-0.1,9.9-1,11.4,1c2.1,4.1,4.6,6.9,2.7,12
	C348.4,88.5,352.5,87.5,354.1,84.7z M298.2,94.7c-13.7-4.1-13.4,0.8-7.7,11.6c2.8,2.5,5.7,4.8,9.8,3.9c0.6-0.2,1.2-0.5,1.7-0.9
	c-5.7-3.7-8.8-7.3-3.7-13.4C298.4,95.7,298.3,94.7,298.2,94.7z"/>
<path class="st7" d="M461.4,155.4c8.1,1.9,16.1,4.4,23.9,7.4c0.2-0.1,0.3-0.1,0.8-0.2c4.6,6.5-6.4,1.7-8.9,1
	c-5.5-1.9-11.1-3.6-16.5-5.6c-7.4-2.7-7.8,10-7.2,14.8c1.2,4.1-4.4,5.4-6.2,2c-0.9-1.9-1.7-1.4-2.8-0.3c-2.5,3.6-7.2,3.8-10.2,6.6
	c-4.7,5.1-9.2,10.2-13.9,15.3c-5.2,5.4-5.3,13.5-8.1,20.3c-3.4,7.9-4.2,29.1-12.5,31.1c-7,2.3-13.6,5.9-20.3,9
	c-0.6,0.3-2.2,1.7-1.8,1.6c5.5-0.1,16.4,20.8,19.6,14.6c5.4-6.9,12.2-12.7,18.2-19.1c1.4-1.6,2.8-1.7,3.6,0.1
	c2.2,5.5,3.7,11.2,4.6,17.1c0.5,3,1.4,6.2,1,9.2c-0.6,2.8,2.5,10.1,5.7,6.9c0.2,0.3,1,1.4,1.7,2.5c0.1-0.1,0.1-0.2,0.1-0.4
	c4.7,3.9,2.9,29,4.2,36.8c0,2.3-1,4.1-3.5,4.5c-12.3,1.9-24.7,3.2-37.2,2.6c-3.1,0.2-5.9-2.1-6.3-5.1c-1.9-11.5-3.4-23-4.7-34.6
	c-0.3-2.7,0.8-4.4,3.5-5.3c3.3-1,4.1-4.5,6.2-6.7c0.2-0.3-0.3-1.2-0.5-1.9C374,298.6,354.3,319,336.1,340
	c-5.7,5.9-9.7,13.3-16.7,17.9c-3.2,4.4-8.6,8.6-8.2,14.6c3.2,31.5,6.2,62.9,6.9,94.6c1.3,11.5,8.2,21.3,12.4,31.9
	c7.3,17.8,14.8,35.7,24.7,52.3c10.8,13.6,19.7,36.7,40.8,25.2c21.3-9,42-19.3,62-30.8c3.7-1.2,6.8-3.9,8.6-7.5
	c5.4-5.2,9.6-16.3,17.2-17.5c10.4-0.7,20.8-3.2,29.8-8.8c6.5-5,2.3-8.1-1.5-12.6c-4.2-15.7-12.1-30.2-16.7-45.7
	c-5.3-15.3-10.3-30.6-14.1-46.3c-0.4-0.8-1.2-0.8-1.5,0c-0.2,3.4-3.2,6.4-1.1,10.1c-0.2,0-0.3,0.1-0.5-0.1c-0.3,0-0.7,0-1-0.1
	c0.4,0.1,0.7,0.3,1,0.6c-1,1.6-1.4,1.7-3.4,0.8c0.3-0.1,0.5-0.1,0.7-0.1c-0.4-0.1-0.7-0.3-1-0.6c-0.4-0.3-0.7-0.6-1-1
	c3.5-13.1,10.9-25.4,12.9-38.9c0.4-16.6-7.9-30.8-14.5-45.5c-12.6-24.5-20.7-52.3-15.5-80c2.5-18.1,6.6-36.2,15.9-51.9
	c0.2-0.2,0.3-0.4,0.5-0.6c0.6-0.5,1-1.2,1-2c0.1-2.8,4.5-4.7,6.8-4.7c0.2,0,0.3,0,0.5,0.1c0.1,0.1,0.2,0.2,0.3,0.3
	c-18.7,20.6-27.7,69.8-21.4,96.9c5,24.2,18.2,45.6,27.6,68.4c3.5,10.2,9.7,19.1,12,29.7c4.5,14.8,6.5,30.2,8.5,45.5
	c1.9,16.6,5.7,33.3,5.2,50c1,3.4-1.1,16.1,4.5,13.4c19.3-6.1,41.7,0.7,59.5,9c0.2-0.2,0.5-0.2,0.8-0.2c0.1,0.6,0.1,1.3,0.1,1.9v0.6
	c0.2-0.1,0.5-0.1,0.7-0.3s0-0.5,0-0.7c0.2,0.1,0.5,0.3,0.5,0.3c-0.2,2.4-2.9,0.6-4.4,0.7c-0.7-0.1-1.8-0.7-1.9-0.6
	c-2.6,3.8,1.9,4,4.8,3.7c4.7-0.1,6.2-1.7,6.2-6.3c0.9-23.7,1.2-47.3,0.5-71c-0.1-24.4-1.5-48.8-1.7-73.1c-0.4-18.6-7-36-11.9-53.8
	c-4.1-14-7.9-28.1-12.5-42c-7.9-22.2-16.2-44.4-25-66.2c-0.6-7.2,3.2-16.8-3.1-21.9c-14.1-9-30.9-12.2-45.4-20.1
	C477.5,153.8,468.3,152.2,461.4,155.4z M318.1,364.3c2.6,0.2,5.9,2.5,6.2,4.6c0.3,4.6,3.4,11.3-2.3,13.7
	C312.3,385.8,308,367.4,318.1,364.3z M324.3,474c-8.8-5.2-4.6-23,6.1-16.8C338.9,462.4,334.9,478.2,324.3,474z M456.7,455
	c4.4-1.1,15.5-11.3,17.5-4c0.8,4.3,6.8,10.8,1.6,14c-9.9,5.3-20.2,10.1-30.7,14.2c-5.7,3.7-8.1-5.7-10.5-9.2c-1-2.2,0.6-4,2.8-5.2
	C443.9,461.8,450.3,458.4,456.7,455z M574.3,450.9c1.9,5.8-1.4,14.1-8.6,8.2C561.1,452.9,569.5,442.4,574.3,450.9L574.3,450.9z
	 M568.6,472.8c10,1.1,2.2,21.3-4.8,11.7C561,480.1,562.3,472.2,568.6,472.8L568.6,472.8z M500,177.1c8.7-3.9,18.3-4.8,27.1-0.1
	c1.3,0.7,0.9,3-0.2,3.5c-1,0.2-2,0.2-3,0c0.4-0.3,0.8-0.6,1.3-0.8c0.4,0.1,0.8,0.2,1.2,0.2c-7-3.5-15-4.3-22.2-1.2
	c-0.9,0-1.8-0.1-2.6-0.1c-0.4,0.1-0.7,0.1-1.1,0.1c-0.6-0.2-0.4,0-0.5-0.4C499.8,178,499.8,177.5,500,177.1z M515.5,588.1
	c-9.4,10.1-14.6,3.8-19.9,7c-5,4.2-8.8-3.9-10.3-7.6c-3-7,1.5-11.1,2.5-17.3c-1.8,1.2-2.7,4-5.4,3.4c-3.9-1.2-8-2.1-11.4-4.1
	c-9.5-5.1-8.8-15.5-8.8-24.6c-7.7,7.7-18.5,12.1-27.8,17.6c-15.1,7-30,15.2-45.9,20.2c-27.3,7.6-52.4-64-62.1-83.7
	c-4.3,20.4-3.2,42.1-7.2,62.8c-0.6,8.8-5.3,24-16.7,17.8c-4.5-2-8.2-5.3-12.9-7c1.7,21.9,7,43.7,9.9,65.5c2.5,12.6,6.1,25,9.2,37.4
	c1.5,6.3,5.4,11.2,9.6,15.9c11.7,14,25.7,25.8,37.2,39.9c2.4,4.2,11.1,11,10.2,15.3c-4.4-1.7-6.1-7.3-9.7-10.1
	c3.7,9,5.3,29.9,14.9,32.8c6.2,1.6,13.7,5.5,19.9,2.7c-6.6-3-15.2-1.6-21.4-5.4c2.6-1.8,6.1-0.3,9-0.4c11.7,1.1,24,4.2,35.5,0.7
	c3.8-0.7-1.2-11.9-1.2-15c-6.6-31-11.1-62.5-13.5-94.1c2.5-3.1-0.8-5.5-2.1-8.1c-1-2.4-2.7-2.6-4.8-1.6c-4.8,2-9.9,3-14.6,5
	c-11.7,4.1-21.4,12-31.3,18.7c0-5.4,9.3-9.3,13.1-12.6c9.1-5.5,18.9-11.1,29.8-12.4c0.3,0,0.7-0.8,1-1.2c-22.2-4.3-45.4-6-68.3-6
	c-8.6-4.3,11-2.9,13.1-3.1c15.5,0.3,31.1,1.3,46.4,4.2c2,1,25.5,3.9,20.4,7.2c-3.7,0.1-1.2,2.1-0.7,2.8c5.8,8.1,10.6,16.9,15.9,25.3
	c12.4,18,25.8,35.6,39.3,52.8c6.2,7.9,13.7,15,20,22.7c3.5,7,6.9,14,9.9,21.2c0.1,0.2,0.2,0.4,0.4,0.6c0.2,1.1,0.6,2.2,1.1,3.2
	c1.1,2.4,1.8,4.8,2.7,7.2c0.1,0.7,0.4,1.4,0.8,2.1c0.2,0.3,0.3,0.7,0.5,1c1.4,2.6,1.1,5.3,2,8.1c0.6,1.9,3.7,4.6,3.7,5
	c0.6,0.1,1.3,0.2,2,0.4c0-0.4,9-5.2,11.6-6.5c7.5-3.7,18.5-5.3,24.3,1.8c-3,0.7-5.9-1.5-9-1.4c-0.1,3.8,7,5.2,9.5,3.6
	c1.4-2.1-0.3-5.3-0.5-7.6c-4.5-20.4-6.9-41.3-10.8-61.8c-1.4-15.3-2.7-30.8-4.2-46.2C519,650.6,520.5,618.8,515.5,588.1z
	 M461.7,468.7c4-1.9,7.9-4.1,11.9-5.9c2.8-1.9-0.3-4.8-1.1-7.4c-0.3-1.7-1.4-5.8-3.8-3c-3.5,2.1-7.4,3.8-11,5.8
	c-4.8,2.5-9.5,5.1-14.4,7.3c-8.1,3.2-6.3,3.8-2.5,10.3C442.6,480,457.9,469.6,461.7,468.7z M454.3,462.1c-0.1,0.1-0.1,0.2-0.3,0.2
	C453.9,462.1,454.1,462.1,454.3,462.1L454.3,462.1z M392.7,293.7c11.8-1.4,24.6,0.2,36-3l2.8-0.2c-0.8-0.3-1.7-0.3-2.6,0
	c-2.7-1.5-5.8-0.1-8.8-0.3c-9.4,0.1-18.8-0.1-28.1,0.1c-1.8-0.1-4.4,0.5-4.5,2.6c0.8,11.7,3,23,4.9,34.5c-0.8,5.5,31.9,1.4,36.5,1
	c3.6-0.6,4.4-1,4.2-4.7c-0.2-6.5-0.6-13-1-19.5c0.2-3.2-0.8-6.8-0.8-10.1c-1-0.1-2.1-0.1-1.9,0.1c-12.2,0.8-24.4,2.3-36.6,2.2
	c-1.2,0.1-3.1,0.9-3-1.5C389.8,292.7,391.9,293.7,392.7,293.7z M413.1,204.4c-6.4,5.4-8.3,14.2-11.5,21.7c-3.2-1.8-0.9-3.7-1.7-6.8
	c-3.1,4.6-6.1,9.6-12.2,9.9c-2.6,0.3-4.6,2.4-4.8,5c-3.7,10.8-11.7,19.9-16.9,30c-15.4,29.8-34.5,59.3-46,90.2
	c19.4-22.4,38.6-45.9,60.4-66.5c16-16.1,14.7-7-4.3-28.1c-0.1-0.3-0.3-0.5-0.5-0.7c-0.1-0.1-0.5-2.6-0.5-2.8
	c0.2,0.3,0.2-1.2,0.1-1.3C416.6,235.2,392.9,253.7,413.1,204.4z M313.2,571.5c5.7-18,5.2-37.3,7.1-56c0.4-6.2,1.7-12.2,3.8-18
	c0.6-1.5,0.6-3.2-0.1-4.7c-9.8-15.5-9.2-33.5-10.5-51.1c-1.3-17.2-1.9-34.6-4.1-51.8c-0.7-7.8-1-15.7-0.8-23.5
	c-9.4-15.6-18.6-31.5-24.1-49c-2.5-7-4.5-14.2-6.6-21.5c-1.3-8.4-11.1-24.8-2.1-30.7c9.5-6.6,9.3-3.6,0.8-11.4
	c-2.2-4.4,3-10.4,4.1-15.1c2.9-8.6,8.5-16.2,12.6-23.9c-1-1.7-3.5-3.4-5.2-2c-3.5,7.1-7.2,14.2-10.5,21.5
	c-6.3,14.2-11.7,28.8-16.1,43.6c-0.4,1.2-0.8,1.4-1.6,1.1c-2.1-1.2-0.3-4.3,0-6.1c7.4-21.3,14.9-42.3,26.6-61.9
	c-2.7,0.1-5.8-2.4-6.4,1.7c-14.2,21.1-25.8,44.4-32.4,69c-9,27.7,2.1,56.9,10.4,83.5c4.6,14.8,10.3,29,15.9,43.5
	c3.5,10.6,10.3,20.6,10,32.2c0.2,16.1,1.2,32.4-1.8,48.4c-2.5,12.7-5.8,25.3-9.2,37.8c-1.2,4.2-1.8,8.6-0.9,12.6
	c3.4,11.5,10.2,22.6,20.1,29.7C298.1,573.4,310,583.4,313.2,571.5z M283.7,263.3c-4.7,3-10.5,6.7-8.3,13.1c3.2,11,6.4,21.9,9.9,32.8
	c4.6,12.1,7.4,25.8,14.5,36.7c-0.8-8.7-6.8-16.7-7.7-25.7c-3.4-17-8.5-34.8-5-52c1.9-8.6,4.7-17,7.2-25.4c0.3-1.2,1.1-2.3,2.1-3
	c1.2-0.8,1.7-2.2,1.3-3.6c-1.8-8.6,5.5-13.3-3-20.3c-0.2,0-0.3,0-0.5-0.1c0.2,0.1,0.4,0.3,0.5,0.6c-3.3,10.3-10.4,20.2-14.3,30.6
	c-2.4,3.5-1.3,7.1,2.4,8.6C285.9,257.6,288.2,259.6,283.7,263.3z M281.1,449.8c0-9.6-1-18.3-5.2-27.3c-6.3-12.8-10.4-26.8-16-39.9
	c-13.2,22.6-27.3,44.8-44.6,64.6c-5,4.4,3.2,9,5.8,4.1c-1.5-0.2-3.1-0.1-4.3-1.2c2.8-2.9,13.6-0.6,17.7-0.2c6.8,0.6,13.5,2,19.9,4.3
	c7.9,3.8,17.3,5.7,23.6,11.9c-1.1,1-2.5,1.9-3.1,3.4C285.1,472,279.9,455.5,281.1,449.8z"/>
<path class="st8" d="M535.4,498.9c-6.5,0.6-17.1-3.1-15.8,7.2c0,0.8,0.6,2.1,2.2,1.4c8.2-0.5,16.5,0.2,24.6,1.9
	c5.2,1.2,10.5,1.9,15.7,3.1s6.9,0.2,7-4.5C569.5,502.2,541.2,500.3,535.4,498.9z M336.3,312.6c13.9-26.8,28.4-53.7,45-79.1
	c-6.3,2.6-11,7.4-18.2,9c-8.5,2.9-16.8,6.4-25.3,9.6c-2,0.8-3.4,2.1-3.4,4.5C335.4,275.1,332.9,294.5,336.3,312.6z M352.5,167.2
	c-2.7-0.5-3.5,2.1-5.7,3.7c-3.4,2.7-5.6,2.6-4,7.5C345.5,177.9,351.7,169.9,352.5,167.2z M338.3,175.7c4.3-6.4-1.2-3.5-3,0.5
	c0.5,1.2,0.6,2.7,1.4,3.2c1.3,0.5,4.1,1.4,4.9-0.3c-1-0.5-1.9-1.1-2.8-1.7C338.6,177.2,336.1,177.1,338.3,175.7z M333,93
	c1.1,0.1,2.1,0.3,3.2,0.5c0.2,0,0.4-0.2,0.6-0.3c-0.3-0.1-0.6-0.1-0.7-0.3c-4.3-6.1-3.3-8.8,1.4-14.3C328.7,77.1,327.6,88,333,93z
	 M296.9,315c-2.3-18,1.4-24.6,8-41c5-11.5,11-11,0.3-21c-3-2.8-5.1-6.6-5.8-10.6c-0.1-0.9-0.6-1.6-1.4-2.1c-6.1,17.8-11.5,37-7.5,56
	c0.9,7.8,2.3,15.5,4.1,23.1c1.7,4.5,1.8,14,5.1,16.8C301.1,329.4,297,321.9,296.9,315z M298.4,102.3c0.6,3.3,3.4,5,5.7,3
	c-2.5-3.8,0-5.7-0.2-9C301,94.7,298.1,99.8,298.4,102.3z M270.4,464c-14.3-5.8-29.9-12-45.4-11.4c-18,13.2-4.1,5,15.6,13.1
	c6.8,2.2,13.4,5.6,19.7,8.8c1.9,1,3,1.3,4.5-0.1C267,471.4,278.2,466.5,270.4,464z"/>
<path d="M697.5,591.8c-1.4,0.7-1.4,2.4-2.8,3.1c-0.9-2.3,0.8-4.6,0.6-6.9c-0.5-10.2-5.6-21.4-15.1-26.2
	c-6.8-3.7-10.8-10.9-17.1-15.5c-2.7-2.5-5.7-4.6-8.5-7c-1.5-1.4-2-3.9-4.1-4.9c-1.3,7.7-1,15.5,1,23.1c0.4,2.7,0.8,7.5-0.8,6.7
	c0.8,23.7,24.3,30,28.9,69.7c3.1,25.3-3.9,56-24.4,72.6c-17.2,11.4-48.8-10.8-65.2-19.5c-24.5-17-46.5-37.3-66.3-59.5
	c-1.2-1.5-2-3.3-2.1-5.3c-0.8-10.9-0.6-21.8-2.8-32.6c-1.2-5.3-1.4-12.1,1.9-16.6c4.1-1.4,8.4-2.5,12.5-3.7c2.5-0.3,0.2-2.5,1.7-3.5
	c4.4,0.9,8.9,0.9,13.3-0.1c11.2-2.7,15.8-10.6,14.4-21.3c0.5-3.5-6.7-8.8-1.5-10.5c8.4-2.8,9.4-8.2,7.8-15.3
	c-1.5-9.4,17.6,2.1,17.7-10.8c0.5-7.9,1-15.9,1-23.8c-0.2-31.4-0.2-62.9-1.5-94.3c-1.2-17.2,0.5-34.9-3.7-51.6
	c-8.4-32.8-17.9-65.3-30-96.8c-4.8-13.8-10.6-27.4-15.2-41.2c-2.5-13.9,3.5-23.1-13.1-29.1c-5.3-3.2-26.2-8.7-27.6-13.3
	c2.7-13.9,16.3-30.9,3.5-43.4c-0.9-0.9-1.6-2-2.1-3.2c4.2,0.2,8.8,1,12.4-1.6c-2.2-2.8-10.1-3-10.2-6.9c0.7-0.1,1.6-0.4,1.9-0.1
	c2.6,2.4-0.6-5.2,0.1-6.2c1.6-10-7.3-15.6-9.2-24.8c-3.4-22.6-28.9-28.3-44.8-40.4c-10.1-6.5-18.8-17.7-31.6-18.6
	c-23.3-0.5-47.1,0.5-70-4.6c-20.5-3.3-52.7-15.2-70.1-0.3c-18.2,17.2-4.9,42.8-15.7,60c-10.3,13.1-23.9,25.5-19,43.6
	c2.2,13.7,8.8,27.5,5.5,41.5c-0.1,11.1-17.1,32.7-0.6,17.8c-0.3,2.7,1.6,6.6-1.7,8c-10.6,5.7-22.9,10.7-30.8,20
	c10.8-4.8,19.7-13.2,30.9-17.7c4.4-1.7,5.2,6,7.7,8.4c1.1,3.1,7.9,6,3.7,9.1c-13.4,11.4-32,26.4-39.1,42.5
	c12.3-15.2,26.6-29.1,41.7-42c1.4-1.3,2.5-0.8,3.8,0.3c8.4,7.7,19.5,8.1,8.6,20.6c-14,24.3-32.8,60-30.8,88.5
	c1.8,17.1,5.4,34,10.9,50.3c1.9,6.3,4.3,12.5,6.3,18.8c1,4.4-3.1,8.1-5,11.8c-13.4,19.1-25.3,39.1-40.9,56.6
	c-7.3,7.5,5.1,8.4,1.4,13.3c-1,1.2-0.8,3.5-1.7,4.7c-21.5,24.1-46.2,2.5-44.5,46.8c0.4,3.6,3,7.4,2.7,11.1c-3.3,7-6.6,14.6-1.9,22.2
	c5.7,7.7,13.4,20.3,24.6,15.4c4.1-1.1,9.1,0.2,10.6-5c0.5-0.9,1.3-1.5,2.2-1.8c9.8-0.8,16.4-9.6,21.4-17.2c1.4-2.9,0.2-4.8-2.8-4.6
	c-2,0.2-2.1-2.8-2.4-4.4c-3.8-13.1-21.5-5,10-19.6c4.5-2.5,0.6,9.9,7.2,14.4c5.5,8.2,6.8,6.3,14.2,2.3c14.4-2.7,18.1-23.9,10.5-34.3
	c-2.6-4.1-7.2-7-9.3-11.4c3.6-0.1,7.2,3.5,10.5,0.8c3.7-3.8,7.5-6.2,13.1-5.7c6.1-3.4-1.2,22.4-1.7,25.7
	c-5.8,29.2-17.4,43.3,7.5,68.4c1.3,1.2,2,2.9,1.9,4.7c3.2,28.8,8.1,57.5,14.6,85.8c1.7,6.6,3.3,13.3,5.1,19.9
	c1.6,5.3,4.4,10.2,8.2,14.1c10.2,11.6,20.6,22.9,31.9,33.5c9.1,8.6,9.7,23.4,13.7,35c2.7,13.5,18.1,17,29.9,16
	c0.1-0.2,0.2-0.3,0.3-0.5c-4.3,9.9-16.8,13.1-26.6,15.8c-22.4,7.2-44.5-3.1-67-5.3c-12-1.5-23.6,3.4-35,6.8
	c-12.4,5.5-24.9,14.8-29.6,28c-1.4,4.5-0.8,6.8,2.8,8c12.4,1.7,25.4,0.8,38-0.1c24.1-1.9,48.2-3.2,72.2-6.3
	c23.2-2.9,47-3.6,69.5-10.5c5.9-1.7,3.7-5.7,3-10c-2-9.2-3.9-18.3-5.2-27.6c-0.3-1.9,0.5-3,2.6-3.7c4.7-1.4,5.2-2.3,4.1-7.3
	c-1.3-5.9-3-11.8-4.1-17.8c-4.3-20.9-6.5-42-9.5-63.1c-0.5-7.9-3.5-16.1-2.5-23.9c2.2,0.6,2.3,3,3.4,4.7c3.5,5.9,6.8,12,10.6,17.8
	c17.1,24.6,34.6,49.1,56,70.2c8.8,15.7,14.6,33.3,22.1,49.8c1,2.2,2.6,3.3,4.7,2.8c-0.3,3.2,1.4,8.3,1.2,10.2
	c-0.2,8.6,0.8,17.3-0.9,25.7c-2.8,29,51.2,25.2,69.9,23.8c12.8-1.2,25.8-2.6,37.4-8.5c2.4-1.1,2.3-2.3,1.5-4.5
	c-3-5.7-1.2-12.8-5.7-17.5c-3.4-4.5-8.5-5.9-13.3-7.5c-19.2-7-40.6-11-57-23.7c3-2.2,7.9,0.4,7.2-5.5c-1.5-11.5-4.6-22.7-5.7-34.4
	c-5.6-30-10.2-60.9-10.1-91.5c7.5,3.2,12.8,10.8,19.9,15.1c23.2,16.6,49.1,30.1,77.1,36c24.3,4.8,39,11.3,55.5-12.5
	c14.5-19.5,16.8-45.9,15.3-69.4C688.8,622.8,700.8,607.9,697.5,591.8z M673.6,603.4c-2.2-4.4-5.4-10.6-8.8-17.3
	c0.1,0.1,0.2,0.2,0.3,0.3c1.1-5.6-7.5-11.7-7-18c2.7,3.2,3.4,8.5,7.3,10.4c-3.6-12-12.8-23.2-12.1-36.4c3.2,2.4,3.8,6.8,5.7,10.2
	c5.7,11.3,9.5,24.4,16.5,34.9c0.6-0.8,0.8-1.9,0.5-2.8c-4.6-12.6-10.1-24.9-15.9-37.1c8.7,6.8,16.9,15.5,21.7,25.7
	c2.6,4.6,3.4,10.2,6.6,14.4c2.5-6.3-5.9-16.4-7.5-22.2c10.1,6.7,12.4,20.6,11.2,32c-0.5,5.9-4.7,12.1-3.5,17.9
	c3.3-4.7,3.4-11.2,6.3-16.2c0.8,6.3-2.5,12.2-3.6,18.3c-1.1,3.6-1.3,7.4-2.8,10.8C677,621.8,679.2,613.5,673.6,603.4z M542,537.8
	c2.3,4,9.7-1,9.5,4.6c-0.1,1.1,0.6,2.2,0.9,3.4c1.1-2,1.9-4.1,1.2-6.3c0.7-1.1,1.7-4.6,3.4-3c13.2,21.3-14.8,35.7-25.9,21.5
	c-3.6-6-9.3-12.3-5.5-19.6c0.1-0.3,0.1-0.7,0.2-1c0.5-1.7,0.9-3.1,0-4.6c-0.3,0.3-0.6,0.6-1,0.9c-1.9,2.3-2.1,6.2-3,9
	c-1,7.2,4,12.7,7.6,18.1c8.9,8.1-24.3,16.1-30.6,1.6c-3.2-8.2-5.9-23.5,2.9-29.1c1.5-1.1,3-2.4,4.3-3.8c0.8-0.9,1.2-2,1.2-3.2
	c-4.4,1.7-7.6,6.1-11.4,8.8c-4.3,3.9-1.9,16.5-2.1,22.4c2.4,5.4-1.2,6.5-5.1,8.8c-5,2.3-3.8-2.3-7.9-4.1c-0.1,3,1.9,5.5,3.9,7.5
	c-6,2.5-6.9-5.7-10.8-7.9c-0.5,2,0.8,3.7,1.3,5.6c-4.6-0.5-8.4-7.3-9.3-11.9c-2.5-12.8,7.6-21,14.8-30c1.1-1,2.5-1.7,4.1-1.9
	c6.8-0.3,13.5-1.7,19.8-4.3c5.6-2.3,10.8-5.4,15.5-9.3c14.8-1,29.2,3.1,43.7,5.5c3.6,0.7,3,3.9,3.4,6.1
	C568.7,532.2,549.2,536.2,542,537.8z M516.8,577.8c-1.3,5.8-3.9,11-10.2,12.4c-2.9,1.4-13-2-12.8,1.7c-0.1,1.4-1.2,1.9-2.6,0.5
	c-3.7-3.5-4.5-10.7-2.7-15.5c1.7-4.1,2-10.1,7.2-11.1c0.8-0.2,2.2,1,3.1,1.9c4.3,4.5,9.8,5.9,15.7,6.2
	C518.3,574.2,517.1,576.7,516.8,577.8L516.8,577.8z M562,512.5c-5.2-1.2-10.4-1.9-15.7-3.1c-8.1-1.8-16.3-2.4-24.6-1.9
	c-1.6,0.8-2.2-0.5-2.2-1.4c-1.3-10.2,9.3-6.5,15.8-7.2c5.8,1.4,34,3.3,33.7,9.1C569,512.7,567.3,513.7,562,512.5L562,512.5z
	 M530.1,177.5c6.3,5.2,2.5,14.8,3.1,21.9c8.8,21.8,17.2,44,25,66.2c4.6,13.9,8.4,28,12.5,42c4.8,17.7,11.5,35.2,11.9,53.8
	c0.2,24.4,1.5,48.8,1.7,73.1c0.6,23.7,0.4,47.3-0.5,71c0,4.6-1.5,6.3-6.2,6.3c-2.9,0.3-7.5,0.1-4.8-3.7c0.1-0.1,1.3,0.5,1.9,0.6
	c1.5-0.1,4.2,1.7,4.4-0.7c0-0.1-0.3-0.3-0.5-0.3c0,0.3,0.1,0.5,0,0.7s-0.5,0.2-0.7,0.3v-0.6c-0.1-0.6-0.1-1.3-0.1-1.9
	c-0.3,0-0.5,0.1-0.8,0.2c-17.9-8.2-40.2-15-59.5-9c-5.6,2.6-3.5-10-4.5-13.4c0.5-16.7-3.3-33.5-5.2-50c-2-15.3-4-30.7-8.5-45.5
	c-2.3-10.6-8.5-19.5-12-29.7c-9.4-22.8-22.6-44.1-27.6-68.4c-6.3-27.1,2.7-76.3,21.4-96.9c-0.1-0.1-0.2-0.3-0.3-0.3
	c-0.1-0.1-0.3-0.1-0.5-0.1c-2.3,0-6.6,1.9-6.8,4.7c0,0.8-0.4,1.5-1,2c-0.1,0.2-0.3,0.4-0.5,0.6c-9.4,15.7-13.5,33.9-15.9,51.9
	c-5.2,27.7,2.9,55.5,15.5,80c6.6,14.7,14.9,28.9,14.5,45.5c-2,13.5-9.4,25.7-12.9,38.9c0.3,0.4,0.6,0.7,1,1c0.3,0.3,0.6,0.5,1,0.6
	c-0.3,0.1-0.5,0.1-0.7,0.1c1.9,1,2.3,0.8,3.4-0.8c-0.3-0.3-0.6-0.5-1-0.6c0.3,0.1,0.7,0.1,1,0.1c0.2,0.2,0.3,0.1,0.5,0.1
	c-2.1-3.7,0.9-6.8,1.1-10.1c0.3-0.8,1.2-0.8,1.5,0c3.9,15.7,8.8,31,14.1,46.3c4.6,15.5,12.5,30,16.7,45.7c3.9,4.6,8,7.6,1.5,12.6
	c-9,5.7-19.3,8.1-29.8,8.8c-7.5,1.2-11.7,12.4-17.2,17.5c-1.7,3.5-4.8,6.2-8.6,7.5c-20,11.5-40.7,21.8-62,30.8
	c-21.1,11.5-30-11.6-40.8-25.2c-9.9-16.6-17.4-34.5-24.7-52.3c-4.1-10.6-11.1-20.4-12.4-31.9c-0.6-31.7-3.7-63.1-6.9-94.6
	c-0.4-5.9,5-10.2,8.2-14.6c7-4.6,11-12,16.7-17.9c18.2-21,38-41.5,57.8-60.6c0.2,0.7,0.7,1.6,0.5,1.9c-2.1,2.3-2.9,5.7-6.2,6.7
	c-2.6,0.9-3.8,2.6-3.5,5.3c1.3,11.5,2.8,23.1,4.7,34.6c0.4,3.1,3.1,5.4,6.3,5.1c12.5,0.5,24.9-0.7,37.2-2.6c2.5-0.4,3.5-2.2,3.5-4.5
	c-1.3-7.7,0.5-32.8-4.2-36.8c-0.1,0.1-0.1,0.3-0.1,0.4c-0.7-1-1.5-2.1-1.7-2.5c-3.2,3.2-6.3-4.1-5.7-6.9c0.4-3-0.5-6.1-1-9.2
	c-0.9-5.9-2.4-11.6-4.6-17.1c-0.8-1.7-2.2-1.6-3.6-0.1c-6,6.4-12.8,12.2-18.2,19.1c-3.2,6.3-14.1-14.6-19.6-14.6
	c-0.4,0.1,1.2-1.3,1.8-1.6c6.7-3.1,13.3-6.8,20.3-9c8.3-2,9-23.3,12.5-31.1c2.8-6.8,2.9-15,8.1-20.3c4.8-5,9.2-10.2,13.9-15.3
	c3-2.8,7.7-3,10.2-6.6c1-1.2,1.9-1.7,2.8,0.3c1.8,3.4,7.4,2.1,6.2-2c-0.6-4.8-0.2-17.5,7.2-14.8c5.4,2,11,3.7,16.5,5.6
	c2.5,0.7,13.5,5.5,8.9-1c-0.5,0.1-0.6,0.2-0.8,0.2c-7.8-3-15.8-5.5-23.9-7.4c7-3.2,16.2-1.6,23.4,2
	C499.3,165.2,516,168.5,530.1,177.5L530.1,177.5z M489.2,373.7c3,1.1,3.1,4.4,4.3,7c6.6,23.5,11.1,47.6,13.5,71.9
	c0.7,5.6,1.4,11.2,2.1,16.8c0,3.5,1.9,7.5,0.3,10.8c-3.2-1.4-2.8-5.5-4.2-8.3c-8.1-22.3-15.5-45-23.1-67.6c-1.2-7,4.1-13.3,6.2-19.7
	C490.4,380.9,488.3,377.4,489.2,373.7z M282.8,255.5c-3.7-1.5-4.8-5.1-2.4-8.6c3.9-10.4,11-20.2,14.3-30.6c-0.1-0.2-0.3-0.4-0.5-0.6
	c0.1,0,0.3,0.1,0.5,0.1c8.5,7,1.2,11.7,3,20.3c0.4,1.3-0.1,2.8-1.3,3.6c-1,0.7-1.8,1.8-2.1,3c-2.5,8.4-5.3,16.8-7.2,25.4
	c-3.5,17.2,1.6,35.1,5,52c1,9,6.9,17,7.7,25.7c-7.1-10.9-9.9-24.6-14.5-36.7c-3.4-10.9-6.6-21.9-9.9-32.8
	c-2.2-6.4,3.6-10.1,8.3-13.1C288.2,259.6,285.9,257.6,282.8,255.5z M299.1,158.1c3.7,2.8-4.3,2.2-5.1,1.1
	c-10-5.5-10.6-10.7-15.9-19.7c-2.1,3,1.7,5.1,1.2,8.2c-3.4-1.2-3.9-5.1-4.5-8.1c-2.9-11.4,4.9-30.5,7.2-43.7c0.3-1.5,0.4-3,0.5-4.5
	c4.1-6,7-13.7,17.1-12.6c0.8,0,7.8,0.4,11.7,0.2c0.1,2.8,1.6,5.4,3.9,7c-2-15-0.6-10.9,9.7-20.7c7.9-9,9.7-11.5,20.8-4.8
	c1.1,0.8,2.2,1.5,3.4,2.2c7.2,4.8,14.6,9.2,22.2,13.4c0.5,0.3,1.1,0.4,1.7,0.5c2.2,3.7,8.2,10.6,8.5,11.7c1.9,5.7-2.5,11.2-0.6,16.5
	c3.1-3,1.5-7.9,3.4-11.4c3,5.2,4.3,11.3,6.6,16.9c0.2,2.8-12.6,8.4-15.4,9.6c0.4-1.3,0.4-2.8-0.1-4.1c-0.4,0.4-1.1,1-1.1,1.4
	c0.2,6.2-6.2,7.2-9.7,10.6c-2.5-7-6.4-12.8-13.8-15c-8.2-6.7-20-16-28.4-26.2c1.3,0.2,2.6-0.6,3-1.9c0.4-0.3,0.8-0.5,1.2-0.7
	c-0.6,7.2,2.8,13.1,10.6,10.1c4.7-1.4,9.5-2.4,13.9-4.8c10.6-5.6,5.1-19-3.4-24.6c-3.2-2-6.6-3-9.9-2.2c-5.8,1.7-6.6,8.4-9.5,12.7
	c-3.1,3.7-6.4,7.2-9.9,10.4c1.1,0.1,2.2,0.5,3.2,0.7c2.5,5.1,9.9,13.7,12.9,16.8c4.2,3.5,14.4,6.4,12.3,13.2
	c-6.5,6-9.6,18.1-16.4,23.7c-5.4,6-12.2,5.7-19.2,3.3c-5.8-0.9-6.1-5.5-6.9-9.8c-0.7-13,11.1-23.6,7.7-36.9c-4.2,0.1-5.1-0.8-4.6-5
	c-0.4-0.4-1-0.6-1.5-0.4c-4.3,1.3-8.2,0.2-12.2-1.1c-3.5-1.4-11.1,1.6-11.1,5.6c0,0.6,0.2,1.2,0.5,1.7c10.8,11.7-5.3,24.8,8.1,36.9
	c3.9,4.6,10.3,7.9,11,14.5c0.3,3.2,2.7,6.4,1.7,9.7c-1.2-0.3-2.5-0.5-3.8-0.8c0.2-0.5-2.2-3.2-2.6-2.3
	C298.2,156.4,298.4,157.7,299.1,158.1z M281.7,87.2L281.7,87.2c-5.7-2.1-13.4-6.1-8.7-12.9c1.7-2.1,3.4-5.2,6.3-5.3
	C277.9,80.8,275.6,74.5,281.7,87.2z M284.2,78.6c-1.3,1.3-2.1,2.1-3.3,3.4c-1.2-3.4-1.2-8.4,1.6-10.9c0.8,1.3,0.9,3,1.7,4.1
	C285.5,76.6,285.4,77.5,284.2,78.6z M288.8,78.5c-0.2,0.5-0.5,1.1-0.8,1.6c-0.2,0.4-0.5,0.7-0.8,0.9c-1.3,1.6-1.7,2.8-3.5,3.3
	C284,81.8,286.3,79,288.8,78.5z M398.4,111c3.7-1.3,6.9-4.1,11-4.3c0,1.2,0.3,2.6-0.4,3.6c0.2,0.5,0.5,1,0.8,1.5
	c2.9-3.2-0.2-6.5,4.5-7.8c0.2-0.1,0.9,0.1,0.9,0.2c0,0.8,0.2,1.9-0.2,2.4c-2.8,4-2.3,9-3.3,13.5c-4.1,3.5-11.5,2.1-15.9,5.7
	c-4.1,1.6-1.6-5.4-1.9-7.6C393.8,113.5,393,113,398.4,111z M439.2,116.2c-7.7,2.4-16.4,2-24.4,3.7c-1-4.8,2.3-8.9,2.6-13.3
	c0.2-6.4,5.8-4.9,9-6.8c2.8-0.9,6.5-3.3,8.9-0.6c5.9,5.3,11.9,9.7,16.2,16.2c-10.5,4-17.9-9-28.4-7.6
	C426.1,112.2,435.4,112.2,439.2,116.2z M410.5,125.6c-0.1,1.6,0.3,2.3-0.9,2.9c-0.2-0.4-0.6-0.8-0.6-1c0.2-1.2,0.5-2.5,0.9-3.7
	C410.1,124.4,410.3,125,410.5,125.6z M406.2,125.4c0.3,4.4-2.1,8.6-3.1,12.9c-0.8,2.3-0.9,4.9-2.5,6.8c-0.3-0.8-0.7-1.6-1-2.4
	c-0.3-4.8-0.6-9-1-13.4C398.4,126.1,403.7,126.2,406.2,125.4z M396.2,134.7c-0.3,0.2-0.6,0.4-1,0.6c-0.5-1.9-1-3.7-1.3-5.7
	C396.8,125.9,396.2,133.1,396.2,134.7L396.2,134.7z M396.3,143.6c-3.1-0.1-8.2,1.4-6.4-3.7c0.9-3.2-0.2-7,1.7-9.9
	c0.3,0.5,0.5,1,0.6,1.6c0.3,1.7,0.5,3.5,0.8,5.2C394.6,139.2,396.3,140.8,396.3,143.6L396.3,143.6z M391.2,116.2
	c-0.6,4.3,1,9.5-2.8,12.1c-4.9,1.6-9.7,3.7-14.8,4.7c0.3-4.5-0.3-9.3,4.8-11.4c3.9-1.9,7.8-4,11.5-6.2
	C391.6,114.3,391.2,115.3,391.2,116.2L391.2,116.2z M348.5,216.9c-3.5,0.7-6.4-2.9-9.5-4.2c-4.5-3.3-10.4-5.6-11.4-11.6
	c-0.4,0.4-0.8,0.8-1.1,1.2s-0.5,0.9-0.8,1.4c-2.2-3.9,4.5-19.1,3.7-25.3c0.3-0.1,0.5-0.1,0.8-0.1c4.3,2.8,2.1,8.6,10.1,7.2
	c8.2-2.6,11-10,14.6-16.7c1.1-2.2,3.1-3.7,5.5-4.1c10.6-2.8,8.5-11.1,9.5-19.2c6.5,6.5,9.4,16.9,14.9,24.5
	c4.6,6.5,1.5,13.5,0.9,20.6c-2.6,9.5-12.5,13.4-19.9,18.8c-5.5,2.5-14.5,4.6-18.7-1.4c-0.6-1-1.8-1.2-2.9-1.5
	C344.8,210.4,346.6,213.4,348.5,216.9z M338.8,177.4c0.9,0.7,1.8,1.2,2.8,1.7c-0.8,1.7-3.6,0.8-4.9,0.3c-0.8-0.5-0.9-2.1-1.4-3.2
	c1.7-4,7.3-6.9,3-0.5C336.1,177.1,338.6,177.2,338.8,177.4z M346.8,171c2.1-1.7,3-4.2,5.7-3.7c-0.8,2.7-7,10.7-9.7,11.2
	C341.2,173.5,343.5,173.7,346.8,171L346.8,171z M385.8,166.5c-3.7-6-7-12.2-10.5-18.2c-3-4.3,4.5-2.1,6.6-2.6c4.6,0,4.6,0,4.6,4.4
	c-0.1,3.5-0.4,6.6-0.5,9.6C385.8,162.1,387.3,164.6,385.8,166.5L385.8,166.5z M387.1,140.7c0,3.8-2.5,2.2-5.1,2.3
	c-4.4-0.5-10,1.4-13.2-1c-0.1-1.3,0.1-2.7,0.6-3.9c0.4-0.5,1.1-0.5,1.6-0.1c0.3,0.2,0.4,0.6,0.4,1c0,0.5,1,1,1.5,1.5
	c1-5.1-0.3-4.3,4.7-6c2-0.4,11.7-6.2,10.9-1.7C387.9,135.4,387.4,138,387.1,140.7L387.1,140.7z M366.2,131.8c0.3-2.1,3.2-5,5.5-5.3
	c0.1,0.6,0.1,1.2,0.2,1.7c-1.1,2.9,0.8,6.8-2.8,7.5C366.3,136,367.1,133.2,366.2,131.8z M339.9,152.8c-5.1,6.8-15.7,7.9-20.8,0.5
	c-1-1.7-2.8-2.6-4.7-2.5c-1.5,0.2-5.4-3.7-5.6-5.5c2.2-1,5.2,1.6,7.5,1.9c15.8,3.5,24.8-16.9,31.1-29.4c1.4,1.6,0.6,3.6,0.5,5.2
	c-0.7,2.8,0.3,17.5-4.7,14.2c-0.6-1.5-2.2-5.7-3.6-2.2C336.9,141.3,343.4,150.1,339.9,152.8L339.9,152.8z M342.8,77.7
	c-1.4-1.9-8.8-1.1-11.4-1c3.6-10.1,10.4-16.4,19.3-6.7c3.6,4.6,4.7,9.3,3.4,14.6c-1.6,2.8-5.7,3.8-8.6,5.1
	C347.4,84.6,344.8,81.8,342.8,77.7L342.8,77.7z M337.5,78.6c-4.6,5.5-5.6,8.2-1.4,14.3c0.1,0.2,0.5,0.3,0.7,0.3
	c-0.3,0.1-0.5,0.3-0.6,0.3c-1-0.2-2.1-0.4-3.2-0.5C327.6,88,328.7,77.1,337.5,78.6L337.5,78.6z M304.1,140.8c-0.7,1-1.2,2.2-1.4,3.5
	c-3.5-5.9-7.8-11.3-12.7-16c-2.9-6.7-1.5-13.3,0-19.9c8.9,9.2,13.4,2.3,20.2-5.3C309.9,115.9,296.6,128,304.1,140.8L304.1,140.8z
	 M302,109.3c-0.5,0.4-1.1,0.7-1.7,0.9c-4.1,0.8-7-1.4-9.8-3.9c-5.7-10.8-6-15.7,7.7-11.6c0.1,0,0.3,1,0.1,1.2
	C293.2,102,296.2,105.6,302,109.3z M304.1,105.3c-2.4,2-5.1,0.4-5.7-3c-0.3-2.4,2.6-7.6,5.5-6C304.1,99.6,301.6,101.4,304.1,105.3
	L304.1,105.3z M303.7,162.2c0.2-0.4,0.6-0.7,1-0.8c2.3-0.3,4.4,4.9,2.8,6.2c-4.2,1.6-8.3,5.5-12.8,5.5c0.3-0.3,0.6-0.6,1-0.8
	c0.4-0.4,0.9-0.7,1.4-1C300.6,169,305.9,167.2,303.7,162.2L303.7,162.2z M307.3,153.8c5,4.1,13.1,7,19.9,7.5
	c0.8,0.1,1.5,0.1,2.4,0.1h0.5c19.4-1.8,22.1-32,20.1-46.8c6.8,2,9.7,7.9,12.2,13.7c1.8,4-3,2.4-2.8,6.8c0.6-0.3,1.4-0.4,2-0.7
	c0.9-0.4,1.7-1,2.5-1.6c1.4,3.6,1.4,5.1-2.1,7.4c3.1,0.7,4.8-0.5,3.7,3.7c1.5,4,0.9,9,0.1,13c-3.2,7.2-16.9,6.8-23.7,9
	c-1.9-0.3-4.1-2.6-6-3.5c-1.4,3.1,5,4.4,1.5,7.4c-4.5,5-8.1,7.6-14.5,4.1c-5.1-1.8-9.8-4.2-12.4-9.4
	C309.8,160.9,308.6,157.3,307.3,153.8L307.3,153.8z M322.1,176.4c1.8,0.4,3.6,1.3,5.5,1.7c-2.8,6.1-3.9,15.6-5.2,21.5
	c-0.6,2.6,2.1,12.2,5.7,9c2.8,0.1,2.7,6.6,7.9,7.1c4.9,0.3,11.9,7.3,15.5,1.6c3.1-4.3,13.1-2.2,17.6-4.8c0.6-4.8,5.5-4.7,8.2-7.1
	c8.6-6.8,11.9-10.4,11.4-21.9c1.3,1.4,1.5,3.4,2.5,5c2.4-4.7-0.6-9.7-1.2-14.5c-1.5-7.4-0.6-15-0.8-22.4c0.3-1.5-0.3-4.4,1.7-4.8
	c2.8,0.1,6.4-1,8.2,1.8c1.4,1.7,2.7,1.8,3.6-0.1c1.5-3.9,26.5,2.6,31.3,3.2c4.8,1.1,4.7,1.3,4.8,6.6c0.3,25.7-29.5,36.4-36.7,58.9
	c-0.5-1.2-0.2-2.4-0.8-3.6c-4.8,3.6-6.3,10.9-12.3,13c1.8-6,8-12,7.3-18.2c-6.8,8.5-9.7,20.4-20.6,25c-14.1,9.4-33.9,8.6-45.3,21.8
	c1.2-12.7,15-18.6,24.2-25.4c3.7-3.5,10.4-5,11.5-10.3c-12.2,7.2-25.3,15-34.7,25.8c-4.7,5-3.2,12.4-4.8,18.4
	c-6.1-7.2-7-17.5-6.8-26.8c-1.6-3.6-0.4-6.8,1.5-9.9c1.7-4.1,8.6-8.9,7.4-13.2c-6.6,6.9-15.6,17-14.6,27.1c1.2-2.2,2.2-4.4,3.5-6.6
	c-1.9,12,1,23.9,9.4,32.8c-7.5-0.8-13.3-7.4-16.5-13.8c-3.9-5.7-2.8-13.5-6.6-19c-2.3,4.4,2.3,9.6,1.5,14.1
	c-19-25.3,21.9-51.1,16.2-69.9c-3.2,3.8-3,9.6-5.6,13.8c-5.1,9.4-11.2,18.2-15.8,27.9c-1-4.3-4-7.5-7.6-9.9c-7-2.8,22-31,26-34
	C319.7,175.9,321,176,322.1,176.4L322.1,176.4z M453.1,155.6c-0.3,0.5,1.9-0.2,0.4,1.5c-2.3,2.9-4.6,11.9-2.5,15.4
	c0.2,0.2-0.4,1.4-0.6,1.4c-6.6-1.9,1.4-10.8-2.4-14.5c-0.4,0.4-0.9,0.8-0.9,1.3c-0.6,6.3-3.5,13-9.7,15.4c0.3-0.9,0.5-1.9,0.8-2.8
	C446.5,158.4,433.3,150.1,453.1,155.6L453.1,155.6z M375,256.2c0,0.2,0.5,2.7,0.5,2.8c0.2,0.2,0.4,0.4,0.5,0.7
	c19,21.1,20.4,12,4.3,28.1c-21.8,20.6-41,44.1-60.4,66.5c11.5-30.9,30.6-60.4,46-90.2c5.1-10.1,13.2-19.2,16.9-30
	c0.2-2.6,2.2-4.7,4.8-5c6.2-0.3,9.2-5.3,12.2-9.9c0.8,3-1.4,5,1.7,6.8c3.2-7.4,5.1-16.3,11.5-21.7c-20.2,49.3,3.5,30.9-38,50.6
	C375.3,255,375.2,256.5,375,256.2z M334.3,256.5c0-2.3,1.4-3.7,3.4-4.4c8.5-3.2,16.8-6.7,25.3-9.6c7.2-1.6,11.9-6.4,18.2-9
	c-16.5,25.4-31,52.3-45,79.1C332.9,294.5,335.4,275.1,334.3,256.5L334.3,256.5z M294.7,319.3c-1.8-7.6-3.2-15.3-4.1-23.1
	c-4-19,1.4-38.2,7.5-56c0.8,0.4,1.3,1.2,1.4,2.1c0.7,4.1,2.8,7.9,5.8,10.7c10.6,10.1,4.7,9.5-0.3,21c-6.6,16.3-10.3,23-8,41
	c0.1,7,4.2,14.4,2.9,21.1C296.5,333.3,296.4,323.8,294.7,319.3L294.7,319.3z M302.2,299.6c4.8-0.4,13.3-4.1,16.9-1.5
	c0.5,1.4-0.3,2.3-1.9,2.6c-5.2,0.8-10.5,2.2-15.6,3c-1-0.2-2.6,1.3-2.8-1C298.5,300.3,299.9,299.3,302.2,299.6L302.2,299.6z
	 M299.4,307.7c0.2-1.9,2.1-1,3-1.2c5.5-1.1,11-1.9,16.4-2.7c2.5-0.4,4.1-3.5,3.4-7.1c-2.6-6.3-16.5,0-22.2-0.3
	c-0.4,0.2-0.5,0.3-0.5,0.5c3-11.8,8.8-22.4,14.1-33.3c21.6,15.8,12.7-1.2,17.8-6.8c0.8,19-2.1,38.5,1.8,57.3c0.7,3.9-2.1,6.8-3.5,10
	c-6.4,13.3-11.8,27.3-19.1,40.1c-5-10-7.3-21.7-8.2-32.8C301.6,323.6,298.9,315.8,299.4,307.7L299.4,307.7z M400.9,278.7
	c-0.5-0.1-0.9-0.3-1.4-0.5c3-2.8,7.7-3.8,9.9-7.2c-4.1-1-6.9,3.9-10.6,5c0.8-4.6,5.7-7,8.8-10.2c3.8-2.7,6.4-6.4,9.2-9.9
	c2.5,6.4,3,13.7,4.8,20.4c0.4,1.3,1,2.5,0.5,3.7c-1.9-0.9-2.5-3-3.8-4.5c-0.1,1-0.6,2.2-0.2,2.9c1.4,2.3,3,4.5,4.6,6.7
	c0.1,0.7,0.3,1.5,0.5,2.2c-6.4,0.3-13-0.4-19.5,0.1c-0.1,0-0.4-0.6-0.3-0.8c3.9-3.7,7.8-7.5,10.1-12.7c1.6-2.8,3.6-5.8,2.1-9.3
	c-5.5,7.6-11.2,24.6-23.1,22.6c3.2-3,6.8-5.5,10.2-8.3C402,278.9,401.5,278.9,400.9,278.7L400.9,278.7z M392.7,296.4
	c12.3,0.1,24.4-1.4,36.6-2.2c-0.2-0.2,0.9-0.1,1.9-0.1c0.1,3.3,1,6.8,0.8,10.1c0.4,6.5,0.8,13,1,19.5c0.2,3.7-0.6,4.1-4.2,4.7
	c-4.6,0.5-37.3,4.5-36.5-1c-1.9-11.5-4.1-22.8-4.9-34.5c0.1-2.1,2.7-2.7,4.5-2.6c9.4-0.1,18.7,0.1,28.1-0.1c3,0.1,6.1-1.2,8.8,0.3
	c0.8-0.3,1.7-0.3,2.6,0l-2.8,0.2c-11.3,3.2-24.2,1.6-36,3c-0.8,0.1-2.9-1-3,1.2C389.6,297.3,391.5,296.4,392.7,296.4L392.7,296.4z
	 M501.1,135.8c-1.9,5.1-3.7,10.2-5.5,15.5c-1.1,1.9,0,7.9-3.8,6.1c-3.3-1.9-6.9-3.3-9.9-5.5s-4.2-6.4-7.9-7.7
	c0.2,1.1,0.7,2.1,1.4,2.9c1.1,1.4,2.6,2.4,3.5,3.9c-6.9,0.8-14.3-2.2-20.5,2.9c-0.9,0.4-2,0.5-3,0.1c-4.5-1.6-10.8-1.1-13.9-4.7
	c-3.7-10.1-6.8-22-17.5-27c0.6,1.4,1.2,3.2,2.4,4.4c6.2,5.9,9.5,13.3,11.9,21.4c0.1,0.3-0.7,1.3-1,1.3c-10.7-1.4-21.3-3.7-32-4.7
	c-1.4-4,3.5-11.4,5.9-14.8c2.3-4.7,2.2-7.3,8.3-7.6c1.5-0.1,3-0.2,4.5-0.5c5.7-1,11.3-2.9,17.2-3.2c4.6,0.1,10.6-2.4,14.1,1.5
	c2.9,3.3,4.5,8.2,7.5,11.3c0.5,0.4,1,0.9,1.5,1.2c-1.4-5.2-5.2-9.6-7.1-14.6c13-1.2,26.2-0.4,39.3-1
	C504.5,118.1,503.3,130,501.1,135.8z M250.3,170.2l-0.8,0.9c-1.9-2.4,1.9-5.7,0.4-8.2c-1.8,1.6-1.9,4.4-4.2,5.6
	c15.7-40-13.7-60.2,5.4-84c7.7-8.6,15.7-17.8,17-29.7c1.3-2.7,1.6-5.8,1-8.8c0-2-0.1-3.9-0.1-6c-0.1-6.5,0.3-13,2.6-19.1
	c6.7-20.3,26.6-18.3,44-16.4c13.9,2.7,28.3,4.8,42,7.9c-7.5,2.3-15.6,2.4-22.6,6.6c-4.8,3-11.1,4.9-13.9,10.1
	c1.2-0.3,2.7-0.4,3.6-1.2c9.2-8.1,21.1-10.3,32.4-13.3c6.3-2.8,12.6-0.9,19-0.4c2.6,0.2,5.3,0.3,7.9,0.6c1.2,0.1,2.9-0.8,3.4,1.3
	c6.2-1.3,13-0.7,19.5-0.8c5.4-0.6,10.9-0.1,16.1,1.6c4.3,1.4,8.2,3.7,11.5,6.7c7.3,5.7,14.3,11.5,22.5,16c13.9,8,33.2,16.4,33.4,35
	c1.2,5.7,8.5,11.3,8.9,17.3c-2.3-1-2.9-3.7-5.3-4.6c-0.7,2.4,9.9,11.5,3,9.5c-0.6,1.4,2.8,7.7-0.6,5.7c-7.7-4.4-11.5-13.1-18.4-18
	c-0.3,2,0.8,3.7,2.1,5.3c0.6,0.9,1.4,1.7,1.9,2.6c3.7,4.4,7.3,9.2,12.6,12c2.5,1.4,5.5,1.8,7.5,3.9c-6.8,2.1-11.5-4.2-17.4-5
	c1.9,5.1,10.4,5.5,12.1,11.3c-11.2,0.6-22.4,0-33.7,0.3c-3.2-0.3-7.4,1.7-9.9-0.7c-4.5-6.7-10.2-12.5-16.9-17.1
	c6.3-3.3,15.1-2.1,20.9-6.5c-8.8-1.3-17.1,4.6-25.7,3.9c-4.1-0.7-8.4-5.2-12.4-2.7c2.4,3.2,7.4,1.6,9.9,4.5
	c-2.9,1.9-6.6,1.9-9.8,3.2c-3,2.3-1.3-11.1-9.3-19.5c-3.9-3.7-7.3-8.4-10.8-12.9c-5.4-6.9-11.2-13.4-20.4-14
	c-0.9-0.1-1.8-0.2-2.8-0.1c-3.3-0.5-7,0.2-10-1.2c6.6-4.6,8.1-15.1,0.5-20.4c-7.3-6.3-28.5-6.3-25.1,7.5
	c4.4,10.4-12.3,0.8-17.7,16.6c-1.1,3-2.8,5.7-1.8,9c3.9-4.8,5.1-12.4,10.8-15c3.6-0.8,7.2-2.8,10.8-1.5c5.5,2.2,10.7,6,16.8,6.6
	c24.8,0.9,31.9,2.9,43.9,25.7c3,4.4,2.9,11.5,7.4,14.5c-0.2-4.4-3.8-8.4-3.3-12.8c3,2.9,9.9,18.4,4.1,20.1c-0.3,0-1.2-0.8-1.3-1.4
	c0-2.5-7.1-16.9-9.5-15.6c1.8,4.7,9.6,14.3,6,19.2c-3.6,1.8-7.4,3.5-11.1,5.2c-2.5,1.2-3.2,0.8-3.5-2c-1.4-5.1-4.8-9.7-6.8-14.7
	c-3.7-5.5-7.6-10.8-11.8-15.9c0.1,0,0.2-0.1,0.3-0.1c-0.6-0.5-1.2-1-1.8-1.5c-0.2-0.2-0.5-0.4-0.8-0.6c-9.4-7-20.6-11.7-30-18.6
	c-9.2-5.6-14.1,3.2-20,8.6c-1.4,3-4.8,3.9-7.1,6.1c-2.2,1.8-3.6,4.4-3.8,7.3c-5.4-1-16.3-1-19.1-1.5c-5.5,0.8-7.6-3.3-9.6-7.6
	c-0.3-0.4-0.6-0.9-0.9-1.2c-5.9-6.3-15.2,8.4-12.3,14.4c0.9,3,7.9,7.3,12,6.4c-0.2,0.7-0.3,1.4-0.4,2.1c0,0.8,0,1.6,0.1,2.4
	c-1.3,3.4-2.4,7-3.2,10.6c-4.5-1.4-2.8,1.9-9.9-0.3c-2.8-0.3-5.8-1.2-8.5,0.7c-3.9,3.1-7.7,7.9-6.9,13.2c3-1.7,3-5.5,5-8
	c3.5-6.2,10.7-3.3,16.6-3c1.7-0.3,2.5-1.2,3.6-2.2c-1.9,7.5-3.4,15.9-5.1,19.8c-2.6,7.7-2.3,15.4,1.6,22.6
	c4.5,6.1,11.9,10.2,17.5,15c-12.6,3.5-25.4,7.4-37.5,12.9c-4.1,1.7-1.6-3-3.2-4.9C251,169.6,250.6,169.9,250.3,170.2z M345.3,35.4
	c3.7,3.5,11.9,2.1,8.1,9.7c-1.3,3.7-1.2,3.3-4.9,2c-3.5-1.2-4.2-3.3-3.7-6.5c-0.8-1.7-1.1-3.5-0.9-5.3c1.4-7.5,16.7-5.6,22.1-1
	c4.6,3.4,2.9,11.5-0.1,15.9c-0.6,1-2.1,2.2-3.1,2.1c-3.3-0.7-7.5-0.7-10.1-3.2C362.1,44.5,354.2,31,345.3,35.4L345.3,35.4z
	 M255.3,177c0.2-0.1,0.4-0.2,0.6-0.4c-1,5.4,1.7,10.2,2.3,15.3C255.3,190.8,248.5,175.5,255.3,177L255.3,177z M261.4,191.5
	c-0.8-5.8-7.9-16.2,1.2-18.1c10.6-3.6,21-7.7,31.7-10.2c2.2-0.4,4.6,1.1,6.4-1.3c3.4,4.4-3.3,6.3-6.1,8.4
	c-3.9,5.7-10.3,9.2-16.3,12.4c-0.1-0.4-0.3-0.8-0.2-1.2c0.3-1.5,0.6-2.9,1-4.3c2-4.1,2.1-7.4,7.6-5.5c1.5,0.1,4.2,0.7,4.9-1
	c-0.1-0.5-0.4-0.9-0.9-1c-4.2-0.7-9.8-2.8-12.1,2.1c-3.2,4-1.7,10-5.2,13.6C271.1,186.5,262.5,195.7,261.4,191.5L261.4,191.5z
	 M270.4,197.3c-1.4,2.3,0.5,4.4-3,2.1c-3.8-2.5-3.6-3.5,0-6.3c12-8.8,24.8-16.9,38.9-21.9c0.6-0.3,1.5-0.3,1.9-0.8
	c3.4-2.5,5.9,3,8.9,3.9c-5.9,5.5-11.5,11.3-17.2,17c-3.3,4.8-6.6,9.1-9.9,13.4c-1.5,1.9-1.9,3.3-4.4,0.5c-3.6-3.9-7-7.8-8.2-13.3
	c-0.2-0.9-1.5-1.6-2.3-2.4c-0.5,1-1.4,2.1-1.2,3c0.1,6.5,1.8,10.1,5.1,15.5C275,206.1,273.7,200.4,270.4,197.3L270.4,197.3z
	 M283.5,207.3c-0.5,0-1.2,0.2-1.4,0c-1.4-2.5-4.8-4.6-4.5-7.7c0.4,0.3,0.8,0.6,1.2,0.9c0.3,0.4,0.5,0.8,0.7,1.3
	C281,203.9,283.1,205,283.5,207.3L283.5,207.3z M224.1,533.4c1.7,2.6-10.4,11.4-12.4,14.2c-8.5,3.2-15.3-0.5-21.6-5.1
	c-3.4-2.5-4.6-7.6-8-10.1c-0.8,9.1,9.4,16.2,17.3,18.5c4.2,0.6,0.2,5.9-2.7,5c-4.8-0.6-10.8,3.7-14.5-0.9
	c-10.8-9.2-18.3-19.6-9.6-33.1c2.8,3.6,6.1,7.5,10.1,9.7c2.8,1.5,6.1,1.9,9.2,1.1c7-1.9,19.1-3.5,17.5-13.3
	C222.8,520.3,216.5,533.8,224.1,533.4z M210.9,514.5c-0.5,0-0.9-0.3-1.2-0.7c-0.1-3.5-2.3-5.9-4.6-8.2c-5.1-5.3,14.6-13.2,18.6-12.2
	c-0.3,0.6-0.6,1.1-1,1.6c-2.7,5-8.4,7.7-7.8,13.7C215,510.2,212.3,514.1,210.9,514.5z M232.9,502c-4.6,3.4-9.9,6.6-15.7,7.4
	c-0.2,0.1-0.4,0.2-0.5,0.5c-0.1-6.1,5.9-9.5,8.6-14.5C229.9,490.5,239,495.6,232.9,502L232.9,502z M264.5,499.1
	c0.6,8.6-2.2,19.1-11.7,21.2c-3.2,0.7-6,6.1-9.1,2.3c-7.6-7-6.8-17.6-5.7-27c0.3-5.2,5-7.6,8.3-11.1c-0.4-0.1-0.8-0.1-1.2-0.1
	c-5.1,0-6.7,8-11.4,7.4c-11.3-4-21.9-0.3-30.6,7.5c-3,2.2-3.7-3.2-5.9-4.5c-0.7,9.1,13.2,15,8.9,24.5c-1.6,2.9,1.8,5.5-2.5,6.6
	c-7.2,2.6-16.4,6.6-22.9,0.4c-5-4.9-9.9-10.5-10.1-17.9c-0.6-10.6,0.8-25.1,13.6-27c39.6-6.8,12.1-27.7,59.2-11.4
	c3.6,0.6,4.7,3.2,6.4,5.3c0.6,1,1.4,1.9,2.1,2.8C256.8,484.8,264,490.5,264.5,499.1L264.5,499.1z M264.8,474.4
	c-1.5,1.4-2.6,1-4.5,0.1c-6.4-3.2-12.9-6.6-19.7-8.8c-19.7-8.1-33.6,0.1-15.6-13.1c15.5-0.6,31.1,5.6,45.4,11.4
	C278.2,466.5,267,471.4,264.8,474.4L264.8,474.4z M274.9,469.4c0.6-1.5,2-2.3,3.1-3.4c-6.3-6.2-15.7-8.1-23.6-11.9
	c-6.4-2.3-13.1-3.8-19.9-4.3c-4.2-0.4-14.9-2.7-17.7,0.2c1.2,1.2,2.8,1,4.3,1.2c-2.6,5-10.8,0.3-5.8-4.1
	c17.2-19.8,31.4-42,44.6-64.6c5.6,13.1,9.7,27.1,16,39.9c4.2,9,5.2,17.7,5.2,27.3C279.9,455.5,285.1,472,274.9,469.4L274.9,469.4z
	 M271.9,539.8c-0.9-3.9-0.3-8.3,0.9-12.6c3.4-12.5,6.7-25.1,9.2-37.9c3-16,1.9-32.3,1.7-48.4c0.3-11.5-6.5-21.5-10-32.2
	c-5.5-14.4-11.3-28.7-15.9-43.5c-8.2-26.6-19.3-55.8-10.4-83.5c6.6-24.6,18.2-47.9,32.4-69c0.6-4.1,3.7-1.6,6.4-1.7
	c-11.7,19.6-19.1,40.6-26.6,61.9c-0.3,1.9-2.1,4.9,0,6.1c0.8,0.3,1.2,0.1,1.6-1.1c4.4-14.9,9.8-29.5,16.1-43.6
	c3.2-7.3,6.9-14.4,10.5-21.5c1.7-1.4,4.2,0.3,5.2,2c-4.1,7.7-9.7,15.3-12.6,23.9c-1.1,4.6-6.3,10.7-4.1,15.1
	c8.5,7.7,8.7,4.8-0.8,11.4c-9,5.9,0.8,22.2,2.1,30.7c2.1,7.3,4.1,14.5,6.6,21.5c5.5,17.5,14.7,33.4,24.1,49
	c-0.2,7.9,0.1,15.7,0.8,23.5c2.3,17.2,2.8,34.6,4.1,51.8c1.4,17.6,0.7,35.6,10.5,51.1c0.7,1.5,0.7,3.2,0.1,4.7
	c-2.1,5.8-3.4,11.8-3.8,18c-1.9,18.7-1.4,38-7.1,56c-3.2,11.9-15.1,1.9-21.2-2.1C282.1,562.3,275.3,551.3,271.9,539.8L271.9,539.8z
	 M414.1,804.4c0.5,3.8,0.5,3.2-4.2,4.8c-27.9,6.9-57.1,7.6-85.6,11.5c-18.1,2.1-36.5,3-54.8,4.1c-8.1-0.6-30.3,2.9-35.5-1.3
	c0.5-0.6,1-1.7,1.4-1.7c3.6,2.1,9.6-6.5,9-9.3c-3.5,1.3-4.1,6.2-8.1,7.1c1.3-9.5,18.1-22.7,27-24.7c-5.2,5.5-10.8,10.5-14,17.6
	c-2.4,3.7,1,8.8,4.8,7.5c2.3-2.3,6.4-4.5,6.5-8.1c-3,1.7-5,5-8.5,5.6c0.5-7.9,6.1-13.6,11.7-18.7c9.4-9.2,23-11.8,35.6-9.4
	c29.8,4.6,60.4,14.3,87.2-5.8c12.3-11.2-2.6-12.8,18.7-12.4c2.3-0.3,3.2,0.4,3.5,2.6c0.6,5.4,1.5,10.8,2.5,16.2
	C412.3,794.9,413.5,799.6,414.1,804.4z M542.9,811.8c16.9,8.5,35.8,11.9,52.9,19.5c9.3,4.8,1.9,10.5,5.3,16.6c1-1.3,1.2-2.8,2.2-4.2
	c2.2,1.6,0.5,4.3,2.6,6c-0.2,3.4-5.5,4.1-8,5.5c-14.9,4.1-30.3,6.3-45.7,6.5c-16.2,0.3-32.1-1.8-42.4-8c-6.4-3.4-8-10.5-6.5-17
	c-0.1-1.7-0.1-3.4-0.2-5.3c-0.3-9.2-0.3-20.4-2.4-28.8c0.2-0.1,0.4-0.2,0.5-0.3c4.9-3.3,10.3-5.9,15.9-7.6c4.7-1.3,4.6-1.4,7.3,2.1
	C529.4,803.2,535.7,808.4,542.9,811.8L542.9,811.8z M524.3,727.8c3.9,20.5,6.3,41.3,10.8,61.8c0.1,2.3,1.9,5.5,0.5,7.6
	c-2.5,1.5-9.6,0.2-9.5-3.6c3.1-0.1,6,2.1,9,1.4c-5.8-7.1-16.8-5.5-24.3-1.8c-2.6,1.3-11.6,6.1-11.6,6.5c-0.7-0.2-1.4-0.3-2-0.4
	c0-0.4-3.1-3-3.7-5c-0.9-2.8-0.6-5.4-2-8.1c-0.1-0.3-0.3-0.7-0.5-1c-0.4-0.6-0.7-1.3-0.8-2.1c-0.9-2.4-1.6-4.8-2.7-7.2
	c-0.5-1-0.9-2.1-1.1-3.2c-0.2-0.2-0.3-0.4-0.4-0.6c-3-7.2-6.4-14.2-9.9-21.2c-6.3-7.7-13.8-14.8-20-22.7
	c-13.5-17.2-26.8-34.8-39.3-52.8c-5.3-8.4-10.1-17.2-15.9-25.3c-0.5-0.7-3-2.6,0.7-2.8c5.1-3.2-18.4-6.2-20.4-7.2
	c-15.3-2.9-31-3.9-46.4-4.2c-2.1,0.2-21.7-1.2-13.1,3.1c22.9,0,46.1,1.7,68.3,6c-0.3,0.5-0.7,1.2-1,1.2
	c-10.9,1.3-20.6,6.9-29.8,12.4c-3.8,3.4-13.1,7.2-13.1,12.6c10-6.7,19.7-14.6,31.3-18.7c4.8-1.9,9.9-3,14.6-5c2.1-1,3.8-0.8,4.8,1.6
	c1.2,2.6,4.5,5,2.1,8.1c2.3,31.7,6.8,63.1,13.5,94.1c-0.1,3,5,14.3,1.2,15c-11.5,3.5-23.8,0.5-35.5-0.7c-2.9,0.1-6.4-1.4-9,0.4
	c6.2,3.8,14.8,2.4,21.4,5.4c-6.1,2.8-13.6-1.1-19.9-2.7c-9.6-2.8-11.2-23.7-14.9-32.8c3.7,2.8,5.4,8.3,9.7,10.1
	c0.9-4.3-7.8-11.2-10.2-15.3c-11.4-14-25.4-25.8-37.2-39.8c-4.3-4.7-8.1-9.5-9.6-15.9c-3.1-12.4-6.7-24.8-9.2-37.4
	c-2.8-21.8-8.2-43.5-9.9-65.5c4.6,1.6,8.4,5,12.9,7c11.4,6.2,16.1-9,16.7-17.8c4-20.7,2.9-42.4,7.2-62.8
	c9.7,19.7,34.8,91.3,62.1,83.7c15.9-5,30.8-13.2,45.9-20.2c9.3-5.5,20.1-9.9,27.8-17.6c0,9.1-0.6,19.5,8.8,24.6
	c3.4,2,7.5,2.8,11.4,4.1c2.6,0.6,3.5-2.1,5.4-3.4c-1,6.3-5.5,10.4-2.5,17.3c1.5,3.7,5.3,11.9,10.3,7.6c5.2-3.2,10.5,3.1,19.9-7
	c5.1,30.6,3.5,62.4,4.7,93.5C521.6,697,522.9,712.5,524.3,727.8L524.3,727.8z M688.5,656.4c-0.9,16.9-3.7,34.6-13.5,48.9
	c-13.1,17-19.4,20.5-40.4,15.9c-18.6-3.1-36.6-8.7-53.5-16.9c-20.9-9.3-39.5-23.3-56.5-38.4c-3-6.1-0.6-14.1-1.3-20.8
	c0.3-4.5-1.2-9.3,0.1-13.6c25.1,27,52.2,53.2,85.7,69.4c11.8,6,24,13.5,37.7,11.4c6.1-0.8,11.7-3.2,15.5-8.6
	c16.5-18,21.7-42.5,21.2-66.4c0.5-2.3-3.2-9.6-0.4-10C691.6,634,688.1,646.6,688.5,656.4L688.5,656.4z M577.4,840.2
	c3.3,3.2,3.9,9.4,8.3,11.3c-3.6-16.6-26.2-38.2-43.2-27.1C559.5,824.6,566.2,826.1,577.4,840.2z M574.3,450.9
	c-4.7-8.5-13.2,2-8.6,8.2C572.9,465,576.2,456.7,574.3,450.9z M567.7,454.3c1-3.9,4.6-4.6,4.1,0c-0.7,1.7-1.6,3.7-2.1,3.7
	c-1.5-0.3-2.4-1.6-2.2-3.1C567.5,454.7,567.6,454.5,567.7,454.3z M568.6,472.8c-6.3-0.6-7.6,7.4-4.8,11.7
	C570.8,494.1,578.6,473.9,568.6,472.8z M568.6,476.1c3.4,1.6,0.9,10.8-2.8,6.1C565.7,479.6,565.2,476,568.6,476.1L568.6,476.1z
	 M511.3,831.1c19.1-7.1,28.3,11.5,40.7,21.7c-2.1-7.1-9.2-11.5-13.7-17.3C531.6,829.4,517.9,821,511.3,831.1z M500.4,178.8
	c0.4,0,0.7,0,1.1-0.1c0.8,0,1.7,0.1,2.6,0.1c7.2-3.2,15.2-2.3,22.2,1.2c-0.4,0-0.8-0.1-1.2-0.2c-0.5,0.2-0.9,0.4-1.3,0.8
	c1,0.2,2,0.2,3,0c1.1-0.5,1.5-2.8,0.2-3.5c-8.8-4.6-18.4-3.7-27.1,0.1c-0.2,0.4-0.3,0.8-0.1,1.2C500,178.8,499.7,178.6,500.4,178.8z
	 M424.5,53.3c-8.1-1.2-20.4,4.8-20.8,13.3c0.6-0.5,1.2-1,1.8-1.4c0.3-0.3,0.6-0.6,0.8-1c14.2-20,39.3-0.5,52.3,11.4
	c6.8,5.4,11.7,13.3,19.6,17.1c-0.2-0.2-0.3-0.4-0.5-0.6C463.7,76.2,446.4,57.1,424.5,53.3z M434.6,470.1c2.4,3.5,4.8,12.9,10.5,9.2
	c10.5-4.1,20.7-8.9,30.7-14.2c5.2-3.2-0.8-9.7-1.6-14c-2-7.3-13.1,2.9-17.5,4c-6.4,3.4-12.8,6.8-19.3,9.9
	C435.2,466.1,433.6,467.8,434.6,470.1z M443.4,465.4c4.9-2.2,9.7-4.8,14.4-7.3c3.6-2,7.5-3.7,11-5.8c2.4-2.8,3.5,1.2,3.8,3
	c0.8,2.6,3.9,5.5,1.1,7.4c-4.1,1.9-7.9,4-11.9,5.9c-3.8,0.9-19.1,11.3-20.9,7.1C437,469.2,435.2,468.7,443.4,465.4L443.4,465.4z
	 M415.7,24c23,8.7,40.7,27.8,53.3,49c2.1,2.8,3.9,6.5,6.9,8.6c0.6-1.3,0.1-2.4-0.7-3.6c-8.4-14.1-17.8-27.3-29.9-38.5
	C436.3,33.1,427.6,22.6,415.7,24z M463.4,136.7c-0.9-0.8-1.7-1.4-2.5-2c1,5.7,6.3,11,11.7,12.8c-0.3-0.4-0.5-1-0.8-1.4
	C469,143,466.3,140,463.4,136.7z M454.3,462.1c-0.1,0-0.3,0-0.3,0.2C454.2,462.3,454.2,462.1,454.3,462.1z M379.7,48.5
	c-0.3,0.2-0.3,0.9-0.5,1.4c2.3,0.8,5.4-1.5,7-2.8c13.8-18,14.6-28.6,40.9-25.6c-1.3-1.1-2.8-1.9-4.5-2.5c-7-2.3-16.1,0.8-21.7,5.6
	C392,31.4,390,43.2,379.7,48.5z M422.9,50.8c-0.4-0.2-0.9-0.7-1.3-0.6c-2.2,0.1-4.4,0.3-6.9,0.5c-6.1,1.3-9.1,6.4-13.2,10.4
	c-0.3,0.4-0.1,1.4-0.1,2.1C409,54.2,411.8,53.7,422.9,50.8z M405.3,188.4c-0.1,0.8,0.6,1.7,1,2.6c3.3-4.4,2.8-10.6,2.1-16.2
	c-1.5-8.4-4.8-18.2-12.5-22.3C402.2,164.1,409.5,174.4,405.3,188.4z M405.9,101.8c0-1.3,0.9-2.8-0.1-3.9c-3.1-6.7-6-12.8-13.1-16.4
	c1,1.8,2.3,3.4,3.7,4.9C401,90.8,402.5,96.8,405.9,101.8z M399.5,191.1c0,1.7-0.5,3.4,1.5,4.1c2.6-11.9-0.7-26.1-7.8-35.9
	c-0.1,1.2-0.8,2.4,0.1,3.5C397,171.7,399.9,180.9,399.5,191.1z M385.7,32.7c3-2.8,6.1-5.4,9.3-7.9c0.1-0.4,0.3-0.8,0.3-1.2
	c-8.9,2.2-18.2,14.2-21.7,22.4C378.8,44.2,381.4,36.3,385.7,32.7z M330.4,457.2c-10.7-6.2-14.8,11.7-6.1,16.8
	C334.9,478.2,338.9,462.4,330.4,457.2z M324.5,470.3c-1.9-2.5-3-5.5-1.6-8.8c1.8-4.7,8.6-1.9,9.3,1.9
	C333.6,468.2,329.2,476.1,324.5,470.3z M322.1,382.6c5.7-2.4,2.6-9.1,2.3-13.7c-0.4-2.1-3.6-4.4-6.2-4.6
	C308,367.4,312.3,385.8,322.1,382.6z M318.9,379.8c-4.6-1.4-5.2-15.7,1.4-11.6c0.8,3.2,1.5,6.4,2,9.7
	C322.4,379.5,320.2,380.4,318.9,379.8L318.9,379.8z M310.7,22c1.7-5.6,5.6-9.4,10.8-12c0.6-0.3,1-1.1,1.4-1.7
	c-6.8-0.8-14,8.2-15.1,14.8c-0.5,7.9-1.5,21,2.8,27.6C311.7,41.3,308.4,31.4,310.7,22z M317,34.6c-4.4,4.6-3,11.9-4.1,17.5
	c-1,2.4,0.9,12.8,3.6,12.1c-0.7-9.2-2.5-18.5,1.1-27.3C317.8,36.3,317.2,35.4,317,34.6z M279.7,799.6c-9,5.2-16.1,13.2-20.4,22.7
	c1.9-0.3,3.4-2.3,4.5-3.5c3.8-6.4,9.2-11.8,15.6-15.7c19.9-12.5,43.4-3.2,62.7,5.1C328.7,793.6,297.2,789.9,279.7,799.6z
	 M311.2,70.4c-3.2-4.7-9.5-6.9-13.7-10.8c-6.2-4.7-10.4-10.8-14.9-17.2c-4.2-6.2-5.5-13.5-8.1-20.4
	C270.4,38.5,296.2,66.9,311.2,70.4z M294.2,73.4c-6.2-6.4-13.2-11.5-17.2-20.1c-2.8-6-3.3-12.1-5.1-18.3c-0.8,1.5-1.2,3.2-1.1,4.9
	c0,7.7,5.8,19,12.4,26.3C286.8,70.4,290.8,73.2,294.2,73.4z M277.3,815.1c-1.4,0.2-5.2,5.2-5.2,1.9c0.3-2.1,0.5-4.1,0.9-6.1
	c-7.5,7.4-1.2,14.8,5,5.2C278.7,814.7,277.8,814.8,277.3,815.1z M273.3,59.6c1,2,2.7,3.6,4.7,4.4c-1.9-4.6-4.5-8.8-7.7-12.6
	c-0.2,0.6-0.3,1.3-0.1,2C271.1,55.3,272.2,57.3,273.3,59.6z M265.6,86.4c0.8,0,1.5,0.1,2.2,0.3c0.6,0.1,1.2,0.3,1.8,0.3
	c-1.4-4.7-9.9-1.9-9.9,2.6c0.3-0.1,0.6-0.1,1-0.3C262.3,88.4,263.9,87.4,265.6,86.4z M267,135.1c0.8-2.1,2.5-3.7,2.2-5.9
	c-8.5,7.2-16.4,23.4-12.8,34.6C259,154.1,259.8,143.3,267,135.1z M260.8,95.5c5.1-2.2,8.7,2.6,11.7,5.9c-7-16.4-16.5-7.5-23.3,3.7
	c-0.5,1.1-0.6,2.3-0.4,3.5C253.3,104.7,254.9,97.8,260.8,95.5z"/>
<path class="st9" d="M688.5,628.2c1.5-3.4,1.7-7.2,2.8-10.8c1.1-6.1,4.5-12,3.6-18.3c-2.9,5-3,11.5-6.3,16.2
	c-1.2-5.8,3-12.1,3.5-17.9c1.2-11.3-1.2-25.3-11.2-32c1.6,5.9,9.9,15.9,7.5,22.2c-3.2-4.1-4.1-9.8-6.6-14.4
	c-4.8-10.1-13-18.9-21.7-25.7c5.7,12.2,11.2,24.5,15.9,37.1c0.3,1,0.1,2-0.5,2.8c-6.9-10.4-10.7-23.5-16.4-34.9
	c-1.9-3.4-2.5-7.9-5.7-10.2c-0.7,13.3,8.5,24.4,12.1,36.4c-3.9-1.9-4.6-7.2-7.3-10.4c-0.6,6.3,8.1,12.4,7,18
	c-0.1-0.1-0.2-0.2-0.3-0.3c3.4,6.7,6.6,12.9,8.8,17.3C679.2,613.5,677,621.8,688.5,628.2z M457,118c1.9,5.1,5.7,9.4,7.1,14.6
	c-0.5-0.4-1-0.8-1.5-1.2c-3.1-3.1-4.6-7.9-7.5-11.3c-3.5-3.9-9.5-1.4-14.1-1.5c-5.9,0.2-11.5,2.2-17.2,3.2c-1.5,0.2-3,0.4-4.5,0.5
	c-6.1,0.3-6,2.9-8.3,7.6c-2.5,3.4-7.4,10.8-5.9,14.8c10.7,1,21.3,3.3,32,4.7c0.3,0,1.1-1,1-1.3c-2.3-8.1-5.7-15.5-11.9-21.4
	c-1.2-1.2-1.8-3-2.4-4.4c10.7,5,13.8,16.9,17.5,27c3.2,3.6,9.5,3.1,13.9,4.7c1,0.4,2.1,0.4,3-0.1c6.2-5.2,13.6-2.1,20.5-2.9
	c-1-1.5-2.5-2.6-3.5-3.9c-0.7-0.8-1.2-1.8-1.4-2.9c3.7,1.2,5,5.6,7.9,7.7s6.6,3.6,9.9,5.5c3.8,1.9,2.7-4.1,3.8-6.1
	c1.8-5.2,3.6-10.4,5.5-15.5c2.3-5.8,3.4-17.7-4.8-18.8C483.2,117.6,470,116.7,457,118z M460.9,134.8c0.8,0.6,1.5,1.2,2.5,2
	c2.9,3.2,5.6,6.3,8.4,9.4c0.3,0.4,0.5,1,0.8,1.4C467.2,145.8,461.9,140.5,460.9,134.8L460.9,134.8z M437.4,175.9
	c6.2-2.3,9.1-9.1,9.7-15.4c0-0.4,0.5-0.8,0.9-1.3c3.7,3.7-4.3,12.6,2.4,14.5c0.3,0,0.8-1.2,0.6-1.4c-2.1-3.4,0.1-12.4,2.5-15.4
	c1.5-1.7-0.6-1-0.4-1.5c-19.8-5.5-6.6,2.8-15,17.5C437.9,174,437.6,175,437.4,175.9z M451.5,115.4c-4.3-6.4-10.3-10.8-16.2-16.2
	c-2.5-2.7-6.1-0.3-8.9,0.6c-3.2,1.9-8.8,0.3-9,6.8c-0.3,4.4-3.6,8.6-2.6,13.3c8-1.7,16.6-1.3,24.4-3.7c-3.8-4-13-4.1-16.1-8.4
	C433.6,106.5,441,119.4,451.5,115.4z M395.6,125.8c4.5-3.6,11.9-2.2,15.9-5.7c1-4.6,0.5-9.5,3.3-13.5c0.5-0.5,0.2-1.6,0.2-2.4
	c0-0.1-0.7-0.3-0.9-0.2c-4.6,1.3-1.5,4.6-4.5,7.8c-0.3-0.5-0.6-1-0.8-1.5c0.6-1,0.4-2.4,0.4-3.6c-4.1,0.2-7.2,3-11,4.3
	c-5.4,2-4.6,2.5-4.6,7.3C394,120.4,391.6,127.4,395.6,125.8z M409.6,128.5c1.2-0.6,0.8-1.3,0.9-2.9c-0.2-0.6-0.4-1.2-0.6-1.8
	c-0.4,1.2-0.7,2.4-0.9,3.7C408.9,127.7,409.4,128.1,409.6,128.5z M399.5,142.8c0.3,0.8,0.7,1.6,1,2.4c1.6-1.9,1.7-4.5,2.5-6.8
	c1-4.3,3.4-8.4,3.1-12.9c-2.5,0.7-7.8,0.6-7.7,4C398.9,133.8,399.3,138,399.5,142.8z M392.2,131.6c-0.1-0.6-0.3-1.1-0.6-1.6
	c-1.9,2.9-0.8,6.6-1.7,9.9c-1.8,5,3.3,3.6,6.4,3.7c0-2.8-1.7-4.4-3.3-6.8C392.8,135.1,392.6,133.4,392.2,131.6z M393.9,129.6
	c0.3,1.9,0.8,3.8,1.3,5.7c0.4-0.1,0.7-0.3,1-0.6C396.2,133.1,396.8,125.9,393.9,129.6z M292.5,210.4c3.6,2.3,6.6,5.6,7.6,9.9
	c4.6-9.7,10.6-18.6,15.8-27.9c2.6-4.2,2.4-10,5.6-13.8c5.6,18.8-35.3,44.6-16.2,69.9c0.8-4.5-3.7-9.7-1.5-14.1
	c3.7,5.5,2.6,13.3,6.6,19c3.2,6.4,9,13,16.5,13.8c-8.3-8.8-11.3-20.8-9.4-32.8c-1.4,2.2-2.3,4.4-3.5,6.6c-1-10.1,7.9-20.2,14.6-27.1
	c1.3,4.3-5.6,9.1-7.4,13.2c-1.9,3-3.2,6.3-1.5,9.9c-0.2,9.2,0.8,19.6,6.8,26.8c1.7-6.1,0.1-13.5,4.8-18.4
	c9.4-10.8,22.5-18.6,34.7-25.8c-1.2,5.3-7.9,6.8-11.5,10.3c-9.1,6.8-23,12.7-24.2,25.4c11.4-13.2,31.2-12.4,45.3-21.8
	c10.9-4.6,13.8-16.5,20.6-25c0.7,6.2-5.5,12.2-7.3,18.2c6-2.1,7.5-9.5,12.3-13c0.6,1.2,0.3,2.4,0.8,3.6c7.2-22.5,37-33.2,36.7-58.9
	c-0.1-5.3,0-5.5-4.8-6.6c-4.8-0.5-29.8-7-31.3-3.2c-0.9,1.9-2.2,1.7-3.6,0.1c-1.8-2.8-5.4-1.7-8.2-1.8c-2,0.3-1.4,3.3-1.7,4.8
	c0.2,7.4-0.7,15,0.8,22.4c0.6,4.8,3.5,9.8,1.2,14.5c-0.9-1.7-1.2-3.6-2.5-5c0.5,11.5-2.8,15-11.4,21.9c-2.6,2.4-7.5,2.3-8.2,7.1
	c-4.5,2.6-14.5,0.6-17.6,4.8c-3.6,5.6-10.6-1.4-15.5-1.7c-5.2-0.4-5-7-7.9-7.1c-3.6,3.2-6.4-6.4-5.7-9c1.2-5.9,2.3-15.5,5.2-21.5
	c-1.9-0.4-3.7-1.3-5.5-1.7c-1.2-0.4-2.4-0.3-3.5,0.1C314.6,179.4,285.6,207.6,292.5,210.4z M408.4,174.9c0.7,5.6,1.2,11.7-2.1,16.2
	c-0.3-0.9-1.1-1.9-1-2.6c4.1-14-3.2-24.3-9.4-35.8C403.6,156.7,406.9,166.4,408.4,174.9z M393.2,159.2c7.1,9.8,10.5,24,7.8,35.9
	c-1.9-0.6-1.5-2.3-1.5-4.1c0.4-10.2-2.5-19.3-6.3-28.4C392.4,161.7,393.1,160.4,393.2,159.2z M279,208.1c-3.3-5.5-5-9-5.1-15.5
	c-0.1-0.9,0.8-2,1.2-3c0.8,0.8,2.1,1.5,2.3,2.4c1.2,5.5,4.6,9.4,8.2,13.3c2.5,2.8,2.9,1.4,4.4-0.5c3.4-4.3,6.6-8.6,9.9-13.4
	c5.7-5.7,11.4-11.5,17.2-17c-3-1-5.5-6.4-8.9-3.9c-0.5,0.5-1.3,0.6-1.9,0.8c-14.1,5-26.9,13-38.9,21.9c-3.6,2.8-3.8,3.8,0,6.3
	c3.4,2.3,1.5,0.3,3-2.1C273.7,200.4,275,206.1,279,208.1z M297,171.2c-0.5,0.3-0.9,0.6-1.4,1c-0.4,0.3-0.6,0.6-1,0.8
	c4.4,0,8.6-3.9,12.8-5.5c1.6-1.3-0.5-6.5-2.8-6.2c-0.4,0.1-0.8,0.4-1,0.8C305.9,167.2,300.6,169,297,171.2z M300.4,157.9
	c1.3,0.3,2.6,0.6,3.8,0.8c1-3.3-1.4-6.4-1.7-9.7c-0.6-6.6-7-9.9-11-14.5c-13.4-12.1,2.7-25.2-8.1-36.9c-0.3-0.5-0.5-1.1-0.5-1.7
	l-0.8,0.1c-2.3,13.2-10.1,32.2-7.2,43.7c0.6,3,1.1,6.9,4.5,8.1c0.5-3-3.3-5.2-1.2-8.2c5.3,9,5.9,14.2,15.9,19.7
	c0.8,1.1,8.8,1.7,5.1-1.1c-0.7-0.4-0.9-1.6-1.3-2.5C298.2,154.7,300.6,157.4,300.4,157.9z M278.5,171.9c2.3-5,7.9-2.8,12.1-2.1
	c0.5,0.1,0.8,0.5,0.9,1c-0.6,1.7-3.4,1-4.9,1c-5.5-1.9-5.6,1.4-7.6,5.5c-0.3,1.4-0.7,2.8-1,4.3c-0.1,0.3,0.1,0.8,0.2,1.2
	c6-3.3,12.5-6.7,16.3-12.4c2.8-2.1,9.5-3.9,6.1-8.4c-1.7,2.4-4.2,0.8-6.4,1.3c-10.8,2.5-21.1,6.6-31.7,10.2
	c-9.1,1.9-2.1,12.3-1.2,18.1c1.2,4.2,9.7-5,11.9-6C276.8,181.9,275.3,175.9,278.5,171.9z M287.1,81c0.3-0.2,0.6-0.5,0.8-0.9
	c0.3-0.5,0.6-1,0.8-1.6c-2.5,0.5-4.8,3.3-5.2,5.7C285.4,83.8,285.8,82.5,287.1,81z M277.6,199.6c-0.3,3,3,5.2,4.5,7.7
	c0.2,0.2,0.9,0,1.4,0c-0.3-2.2-2.4-3.4-3.9-5.5c-0.2-0.5-0.4-0.9-0.7-1.3C278.4,200.2,278,199.9,277.6,199.6z M254.4,174.2
	c12.1-5.5,24.8-9.4,37.5-12.9c-5.5-4.8-13-8.9-17.5-15c-3.9-7.3-4.2-14.9-1.6-22.6c1.7-3.9,3.2-12.2,5.1-19.8
	c-1.1,1-1.9,1.9-3.6,2.2c-5.9-0.3-13.1-3.2-16.6,3c-2,2.4-2.1,6.3-5,8c-0.8-5.2,3-10.1,6.9-13.2c2.6-1.9,5.6-1,8.5-0.7
	c7.1,2.2,5.4-1.2,9.9,0.3c0.8-3.6,1.9-7.1,3.2-10.6c-0.1-0.8-0.1-1.6-0.1-2.4c0.1-0.7,0.2-1.4,0.4-2.1c-4.1,1-11.1-3.4-12-6.4
	c-2.9-6,6.4-20.7,12.3-14.5c0.4,0.4,0.7,0.8,0.9,1.2c2,4.3,4.1,8.4,9.6,7.6c2.8,0.5,13.7,0.6,19.1,1.5c0.2-2.8,1.6-5.5,3.8-7.3
	c2.3-2.2,5.7-3.2,7.1-6.1c5.9-5.3,10.8-14.2,20-8.6c9.5,6.9,20.6,11.6,30,18.6c0.3,0.2,0.5,0.4,0.8,0.6c0.6,0.5,1.2,1,1.8,1.5
	c-0.1,0-0.2,0.1-0.3,0.1c4.2,5.1,8.1,10.4,11.8,15.9c1.9,5,5.4,9.6,6.8,14.7c0.3,2.8,1,3.2,3.5,2c3.7-1.7,7.5-3.4,11.1-5.2
	c3.6-4.8-4.2-14.4-6-19.2c2.4-1.3,9.5,13.1,9.5,15.6c0.1,0.6,1,1.4,1.3,1.4c5.7-1.7-1.1-17.2-4.1-20.1c-0.5,4.3,3,8.4,3.3,12.8
	c-4.4-3-4.3-10.1-7.4-14.5c-12-22.8-19.1-24.8-43.9-25.7c-6.1-0.7-11.3-4.4-16.8-6.6c-3.7-1.2-7.2,0.8-10.8,1.5
	c-5.7,2.6-7,10.2-10.8,15c-1-3.3,0.7-6,1.8-9c5.4-15.8,22.1-6.2,17.7-16.6c-3.4-13.8,17.9-13.8,25.1-7.5c7.6,5.3,6.1,15.8-0.5,20.4
	c3,1.5,6.7,0.8,10,1.2c0.9,0,1.9,0,2.8,0.2c9.2,0.7,15,7.2,20.4,14.1c3.5,4.5,6.8,9.2,10.8,12.9c8,8.4,6.3,21.8,9.3,19.5
	c3.2-1.3,6.9-1.3,9.8-3.2c-2.5-3-7.5-1.4-9.9-4.5c4.1-2.5,8.3,2,12.4,2.7c8.6,0.8,16.9-5.2,25.7-3.9c-5.8,4.4-14.6,3.2-20.9,6.5
	c6.7,4.6,12.4,10.4,16.9,17.1c2.5,2.4,6.8,0.4,9.9,0.7c11.2-0.3,22.5,0.3,33.7-0.3c-1.7-5.7-10.3-6.2-12.1-11.3
	c5.9,0.8,10.6,7.1,17.4,5c-2.1-2.1-5.1-2.4-7.5-3.9c-5.3-2.8-8.9-7.6-12.6-12c-0.5-0.8-1.2-1.7-1.9-2.6c-1.3-1.7-2.5-3.4-2.1-5.3
	c6.9,5,10.7,13.6,18.4,18c3.4,1.9,0-4.3,0.6-5.7c6.9,2-3.7-7.1-3-9.5c2.4,0.8,3,3.6,5.3,4.6c-0.4-6-7.7-11.6-8.9-17.3
	c-0.2-18.6-19.5-27-33.4-35c-8.2-4.6-15.2-10.4-22.4-16.1c-3.3-3-7.2-5.3-11.5-6.7c-5.2-1.7-10.7-2.2-16.1-1.6
	c-6.5,0.1-13.3-0.5-19.5,0.8c-0.5-2.1-2.1-1.2-3.4-1.3c-2.6-0.2-5.3-0.4-7.9-0.6c-6.4-0.5-12.7-2.4-19,0.4
	c-11.3,3-23.3,5.2-32.4,13.3c-0.9,0.8-2.4,0.8-3.6,1.2c2.7-5.2,9-7.1,13.9-10.1c7-4.1,15.1-4.3,22.6-6.6c-13.7-3.2-28.1-5.2-42-7.9
	c-17.5-1.9-37.3-3.9-44,16.4c-2.4,6.2-2.7,12.7-2.6,19.1c0,2.1,0.1,4,0.1,6c0.6,3,0.3,6-1,8.8c-1.3,11.9-9.3,21.1-17,29.7
	c-19.1,23.9,10.3,44-5.4,84c2.2-1.1,2.4-4,4.2-5.6c1.5,2.5-2.4,5.7-0.4,8.2l0.8-0.9c0.3-0.3,0.6-0.6,1-0.9
	C252.9,171.2,250.4,175.9,254.4,174.2z M269.1,129.2c0.3,2.2-1.4,3.8-2.2,5.9c-7.2,8.2-7.9,19-10.6,28.8
	C252.7,152.6,260.6,136.5,269.1,129.2z M405.8,97.9c1,1.1,0.1,2.6,0.1,3.9c-3.4-5-4.9-11.1-9.5-15.4c-1.4-1.5-2.6-3.1-3.7-4.9
	C399.8,85.1,402.7,91.2,405.8,97.9L405.8,97.9z M401.5,61.2c4.1-4.1,7.2-9.1,13.2-10.4c2.5-0.1,4.7-0.4,6.9-0.5
	c0.4-0.1,0.9,0.4,1.3,0.6c-11.1,2.9-13.9,3.4-21.5,12.4C401.4,62.6,401.1,61.5,401.5,61.2z M478.2,92.8
	c-7.9-3.8-12.8-11.7-19.6-17.1c-13-11.9-38-31.5-52.3-11.4c-0.2,0.4-0.4,0.7-0.8,1c-0.6,0.4-1.2,0.9-1.8,1.4
	c0.3-8.5,12.7-14.6,20.8-13.3c21.9,3.7,39.2,22.9,53.2,38.9C477.9,92.4,478,92.6,478.2,92.8z M445.4,39.4
	c12.1,11.2,21.5,24.4,29.9,38.5c0.8,1.2,1.4,2.3,0.7,3.6c-3-2.1-4.8-5.7-6.9-8.6c-12.6-21.1-30.3-40.2-53.3-48.9
	C427.6,22.6,436.3,33.1,445.4,39.4z M401,24.5c5.5-4.8,14.6-7.9,21.7-5.6c1.6,0.5,3.1,1.4,4.5,2.5c-26.3-3-27.1,7.6-41,25.6
	c-1.6,1.3-4.6,3.7-7,2.8c0.1-0.5,0.2-1.2,0.5-1.4C390,43.2,392,31.4,401,24.5z M395.3,23.5c-0.1,0.4-0.2,0.8-0.3,1.2
	c-3.3,2.4-6.4,5.1-9.4,7.9c-4.3,3.6-6.9,11.5-12,13.4C377.1,37.8,386.4,25.8,395.3,23.5L395.3,23.5z M316.5,64.2
	c-2.7,0.7-4.6-9.7-3.6-12.1c1.1-5.6-0.3-12.9,4.1-17.5c0.2,0.8,0.8,1.7,0.6,2.3C314,45.7,315.8,55,316.5,64.2z M307.7,23
	c1.1-6.5,8.4-15.6,15.1-14.8c-0.4,0.6-0.8,1.4-1.4,1.7c-5.2,2.6-9.1,6.5-10.8,12c-2.3,9.4,1,19.3-0.1,28.6
	C306.1,44.1,307.2,31,307.7,23z M274.6,22c2.6,6.8,3.8,14.1,8.1,20.4c4.5,6.3,8.7,12.4,14.9,17.2c4.2,3.9,10.5,6.1,13.7,10.8
	C296.2,66.9,270.4,38.5,274.6,22L274.6,22z M271.8,35c1.9,6.2,2.3,12.3,5.1,18.3c4,8.6,11,13.7,17.2,20.1c-3.4-0.3-7.4-3-11-7.2
	c-6.6-7.3-12.4-18.6-12.4-26.3C270.6,38.2,271,36.5,271.8,35L271.8,35z M270.4,51.4c3.1,3.8,5.7,8.1,7.6,12.6
	c-2.1-0.8-3.8-2.4-4.8-4.4c-1-2.3-2.1-4.3-3-6.3C270.1,52.7,270.1,52,270.4,51.4L270.4,51.4z M269.7,87c-0.6-0.1-1.2-0.2-1.8-0.3
	c-0.7-0.2-1.5-0.3-2.2-0.3c-1.7,1-3.3,2-4.9,3c-0.3,0.1-0.6,0.1-1,0.3C259.8,85.1,268.2,82.3,269.7,87z M248.9,108.5
	c-0.3-1.2-0.1-2.4,0.4-3.5c6.8-11.2,16.2-20.1,23.3-3.7c-3-3.3-6.6-8.1-11.7-5.9C254.9,97.8,253.3,104.7,248.9,108.5z M255.9,176.5
	c-0.1,0.2-0.3,0.4-0.6,0.4c-6.8-1.4,0,13.9,2.9,14.8C257.5,186.8,254.8,181.9,255.9,176.5z"/>
<path class="st10" d="M683.4,637.2c0.5,23.9-4.7,48.4-21.2,66.4c-3.7,5.5-9.4,7.8-15.5,8.6c-13.7,2.1-25.9-5.4-37.7-11.4
	c-33.5-16.2-60.6-42.4-85.7-69.4c-1.3,4.3,0.2,9.1-0.1,13.6c0.8,6.7-1.7,14.6,1.3,20.8c17.1,15.2,35.7,29.1,56.5,38.4
	c16.9,8.2,35,13.8,53.5,16.9c21,4.6,27.3,1.1,40.4-15.9c9.7-14.2,12.6-32,13.5-48.9c-0.4-9.8,3.1-22.3-5.5-29.2
	C680.2,627.5,683.9,634.9,683.4,637.2z M524.5,796.8c-2.8-3.5-2.6-3.4-7.3-2.1c-5.7,1.7-11,4.3-15.9,7.6c-0.2,0.1-0.3,0.2-0.5,0.3
	c2.1,8.3,2.1,19.6,2.4,28.8c0.1,1.9,0.1,3.7,0.2,5.3c-1.5,6.5,0.1,13.7,6.5,17c10.3,6.2,26.2,8.3,42.4,8c15.5-0.2,30.8-2.4,45.7-6.5
	c2.5-1.4,7.8-2.1,8-5.5c-2.1-1.7-0.4-4.4-2.6-6c-1,1.3-1.2,2.9-2.2,4.2c-3.5-6.1,3.9-11.8-5.3-16.6c-17.2-7.6-36-11.1-52.9-19.5
	C535.7,808.3,529.4,803.2,524.5,796.8z M585.7,851.5c-4.4-1.9-5-8.1-8.3-11.3c-11.2-14-17.9-15.6-34.9-15.8
	C559.6,813.3,582.1,834.9,585.7,851.5z M552.1,852.8c-12.5-10.2-21.6-28.8-40.8-21.7c6.6-10.1,20.2-1.7,27,4.3
	C542.9,841.3,550,845.7,552.1,852.8L552.1,852.8z M563.5,515.9c-14.5-2.4-28.9-6.5-43.7-5.5c-4.6,3.9-9.9,7-15.5,9.3
	c-6.3,2.5-13,4-19.8,4.3c-1.5,0.2-2.9,0.8-4.1,1.9c-7.2,9-17.2,17.2-14.8,30c0.9,4.6,4.6,11.4,9.3,11.9c-0.5-1.9-1.8-3.6-1.3-5.6
	c3.9,2.2,4.8,10.4,10.8,7.9c-1.9-2-3.9-4.6-3.9-7.5c4.1,1.8,3,6.4,7.9,4.1c3.9-2.3,7.5-3.4,5.1-8.8c0.2-5.9-2.2-18.4,2.1-22.4
	c3.8-2.8,7-7.1,11.4-8.8c0,1.2-0.4,2.3-1.2,3.2c-1.3,1.4-2.8,2.7-4.3,3.8c-8.8,5.6-6.1,21-2.9,29.1c6.2,14.5,39.5,6.5,30.6-1.6
	c-3.6-5.4-8.6-11-7.6-18.1c0.9-2.8,1.1-6.7,3-9c0.3-0.3,0.7-0.7,1-0.9c0.9,1.5,0.5,2.9,0,4.6c-0.1,0.3-0.1,0.7-0.2,1
	c-3.8,7.3,1.9,13.6,5.5,19.6c11.1,14.1,39.1-0.2,25.9-21.5c-1.7-1.7-2.7,1.9-3.4,3c0.7,2.2-0.1,4.3-1.2,6.3c-0.3-1.2-1-2.3-0.9-3.4
	c0.3-5.7-7.2-0.6-9.5-4.6c7.2-1.7,26.6-5.6,24.9-15.9C566.6,519.8,567.2,516.6,563.5,515.9z M498.9,567.8c-0.8-0.9-2.3-2.1-3.1-1.9
	c-5.2,1-5.5,7-7.2,11.1c-1.8,4.8-1,12,2.7,15.5c1.4,1.3,2.5,0.9,2.6-0.5c-0.3-3.7,9.9-0.3,12.8-1.7c6.2-1.5,8.9-6.6,10.2-12.4
	c0.3-1.2,1.5-3.7-2.2-3.8C508.7,573.7,503.2,572.3,498.9,567.8z M409,774c-0.3-2.2-1.3-3-3.5-2.6c-21.3-0.3-6.4,1.3-18.7,12.4
	c-26.8,20.1-57.5,10.5-87.2,5.8c-12.6-2.4-26.2,0.2-35.6,9.4c-5.6,5.1-11.2,10.8-11.7,18.7c3.6-0.6,5.5-3.9,8.5-5.6
	c-0.1,3.5-4.2,5.7-6.5,8.1c-3.9,1.2-7.3-3.9-4.8-7.5c3.3-7.1,8.8-12.1,14-17.6c-8.9,2-25.7,15.2-27,24.7c3.9-0.9,4.6-5.7,8.1-7.1
	c0.6,2.9-5.4,11.5-9,9.3c-0.3,0-0.8,1-1.4,1.7c5.2,4.2,27.4,0.7,35.5,1.3c18.2-1.2,36.6-2,54.8-4.1c28.4-3.9,57.6-4.7,85.6-11.5
	c4.7-1.6,4.6-1,4.2-4.8c-0.6-4.8-1.8-9.5-2.6-14.2C410.5,784.7,409.6,779.4,409,774z M278.1,816.1c-6.2,9.6-12.5,2.2-5-5.2
	c-0.4,2.1-0.6,4-0.9,6.1c-0.1,3.2,3.7-1.7,5.2-1.9C277.8,814.8,278.7,814.7,278.1,816.1z M279.5,803c-6.4,3.9-11.8,9.3-15.6,15.7
	c-1.1,1.3-2.6,3.2-4.5,3.5c4.3-9.5,11.4-17.5,20.4-22.7c17.5-9.7,49-5.9,62.4,8.5C322.9,799.8,299.4,790.5,279.5,803z M389.9,115.3
	c-3.7,2.3-7.5,4.4-11.5,6.2c-5.1,2.1-4.6,6.9-4.8,11.4c5.1-1,9.9-3.1,14.8-4.7c3.8-2.6,2.1-7.7,2.8-12.1
	C391.2,115.3,391.6,114.3,389.9,115.3z M377.7,134.5c-5,1.7-3.7,0.8-4.7,6c-0.5-0.4-1.5-1-1.5-1.5c0.1-0.6-0.4-1.2-1-1.3
	c-0.4,0-0.7,0.1-1,0.4c-0.5,1.3-0.7,2.6-0.6,3.9c3.2,2.4,8.8,0.5,13.2,1c2.6-0.1,5.1,1.5,5.1-2.3c0.3-2.7,0.8-5.4,1.5-8
	C389.4,128.3,379.7,134,377.7,134.5z M381.9,145.7c-2.2,0.5-9.7-1.7-6.6,2.6c3.5,6.1,6.8,12.2,10.5,18.2c1.5-1.9,0-4.4,0.3-6.8
	c0.1-3,0.3-6.1,0.5-9.6C386.5,145.7,386.5,145.7,381.9,145.7z M371.9,128.2c-0.1-0.6-0.1-1.2-0.2-1.7c-2.3,0.4-5.2,3.2-5.5,5.3
	c0.9,1.4,0.1,4.1,2.8,3.9C372.8,135,370.8,131.1,371.9,128.2z M352.7,49c2.6,2.5,6.8,2.5,10.1,3.2c1,0.1,2.5-1.1,3.1-2.1
	c3-4.4,4.6-12.5,0.1-15.9c-5.4-4.6-20.8-6.5-22.1,1c-0.2,1.8,0.1,3.7,0.9,5.3c-0.6,3.2,0.2,5.3,3.7,6.5c3.7,1.3,3.6,1.7,4.9-2
	c3.8-7.5-4.4-6.1-8.1-9.7C354.2,31,362.1,44.5,352.7,49z M294,90.4c4,1.3,7.9,2.4,12.2,1.1c0.6-0.1,1.1,0,1.5,0.4
	c-0.5,4.3,0.3,5.2,4.6,5c3.4,13.3-8.4,23.9-7.7,36.9c0.8,4.3,1.1,8.9,6.9,9.8c7,2.4,13.7,2.7,19.2-3.3c6.8-5.6,9.9-17.7,16.4-23.7
	c2.1-6.8-8.1-9.7-12.3-13.2c-3-3.1-10.4-11.7-12.9-16.8c-1-0.2-2.1-0.6-3.2-0.7c3.5-3.3,6.8-6.8,9.9-10.4c2.9-4.3,3.7-11,9.5-12.7
	c3.3-0.8,6.8,0.2,9.9,2.2c8.5,5.6,14.1,19,3.4,24.6c-4.5,2.4-9.2,3.4-13.9,4.8c-7.9,3-11.3-3-10.6-10.1c-0.4,0.2-0.8,0.4-1.2,0.7
	c-0.4,1.3-1.7,2.1-3,1.9c8.4,10.3,20.2,19.6,28.4,26.3c7.4,2.1,11.4,8,13.8,15c3.5-3.4,10-4.4,9.7-10.6c0-0.4,0.7-0.9,1.1-1.4
	c0.5,1.3,0.6,2.8,0.1,4.1c2.7-1.2,15.6-6.8,15.4-9.6c-2.3-5.5-3.5-11.7-6.6-16.9c-1.9,3.5-0.3,8.4-3.4,11.4
	c-1.9-5.3,2.6-10.8,0.6-16.5c-0.3-1.2-6.3-8-8.5-11.7c-0.6-0.1-1.2-0.3-1.7-0.5c-7.6-4.2-15.1-8.5-22.2-13.3
	c-1.2-0.7-2.3-1.5-3.4-2.2c-11.2-6.7-13-4.3-20.8,4.8c-10.4,9.8-11.7,5.7-9.7,20.7c-2.4-1.6-3.8-4.2-3.9-7
	c-3.9,0.2-10.9-0.2-11.7-0.2c-10.1-1.1-13.1,6.6-17.1,12.6c-0.1,1.5-0.2,3-0.5,4.5l0.8-0.1C282.9,91.9,290.5,88.9,294,90.4z
	 M290,108.3c-1.5,6.5-2.9,13.2,0,19.9c4.9,4.8,9.2,10.2,12.7,16.1c0.2-1.3,0.7-2.4,1.4-3.5c-7.5-12.8,5.8-24.9,6.1-37.7
	C303.4,110.6,298.9,117.5,290,108.3z M282.5,71.2c-2.8,2.5-2.8,7.5-1.6,10.9c1.2-1.3,2-2.1,3.3-3.4c1.2-1.1,1.3-2.1,0.1-3.4
	C283.5,74.2,283.3,72.4,282.5,71.2z M273,74.3c-4.6,6.8,3,10.8,8.6,13l0.1-0.1c-6.1-12.7-3.8-6.4-2.5-18.2
	C276.4,69.2,274.7,72.2,273,74.3z M249.7,475.5c-1.7-2.1-2.8-4.7-6.4-5.3c-47.1-16.3-19.6,4.6-59.2,11.4
	c-12.8,1.9-14.2,16.4-13.6,27c0.1,7.3,5,13,10.1,17.9c6.5,6.2,15.8,2.2,22.9-0.4c4.3-1,1-3.7,2.5-6.6c4.3-9.5-9.6-15.4-8.9-24.5
	c2.2,1.3,2.9,6.6,5.9,4.5c8.6-7.8,19.2-11.5,30.6-7.5c4.7,0.6,6.3-7.4,11.4-7.4c0.4,0,0.8,0.1,1.2,0.1c-3.3,3.5-7.9,5.9-8.3,11.1
	c-1.2,9.4-1.9,20,5.7,26.9c3.1,3.8,5.9-1.7,9.1-2.3c9.5-2.1,12.4-12.6,11.7-21.2c-0.5-8.6-7.6-14.3-12.7-20.8
	C251,477.4,250.3,476.5,249.7,475.5z M225.3,495.3c-2.7,5-8.8,8.5-8.6,14.5c0.1-0.2,0.3-0.4,0.5-0.5c5.9-0.8,11.1-3.9,15.7-7.4
	C239,495.6,229.9,490.5,225.3,495.3z M191.8,532.6c-3.1,0.8-6.4,0.4-9.2-1.1c-4-2.1-7.3-6.1-10.1-9.7c-8.7,13.5-1.2,23.9,9.6,33.1
	c3.7,4.6,9.7,0.3,14.5,0.9c2.9,0.9,6.9-4.4,2.7-5c-7.9-2.2-18.1-9.3-17.3-18.5c3.4,2.5,4.6,7.6,8,10.1c6.3,4.6,13.1,8.2,21.6,5.1
	c2.1-2.8,14.1-11.6,12.4-14.2c-7.7,0.5-1.4-13.1-14.8-14.1C211,529.1,198.9,530.7,191.8,532.6z M223.7,493.4
	c-4.1-1-23.7,6.9-18.6,12.2c2.3,2.3,4.5,4.7,4.6,8.2c0.3,0.4,0.7,0.7,1.2,0.7c1.4-0.4,4.1-4.3,3.9-5.9c-0.6-5.9,5.1-8.7,7.8-13.7
	C223,494.5,223.4,493.9,223.7,493.4z"/>
</svg>
