<?xml version="1.0" encoding="utf-8"?>
<!-- Generator: Adobe Illustrator 25.2.3, SVG Export Plug-In . SVG Version: 6.00 Build 0)  -->
<svg version="1.1" id="Слой_1" xmlns="http://www.w3.org/2000/svg" xmlns:xlink="http://www.w3.org/1999/xlink" x="0px" y="0px"
	 viewBox="0 0 864 864" style="enable-background:new 0 0 864 864;" xml:space="preserve">
<style type="text/css">
	.st0{fill:none;}
	.st1{fill:#ED9F8C;}
	.st2{fill:#716667;}
	.st3{fill:#FFFFFF;}
	.st4{fill:#F0CA8A;}
	.st5{fill:#B9BFC5;}
	.st6{fill:#FFBD66;}
	.st7{fill:#E9A256;}
	.st8{fill:#827573;}
	.st9{fill:#C22A38;}
</style>
<path class="st0" d="M432.7,741.7c-3-9.1-7.9-17.3-11.4-26.5c-2.2-2.3-2.3,3.9-2.9,5c-1.7,7.3-3.4,14.5-5.1,21.8
	c-3.1,16.7-5.8,33.5-2.5,50.6c2.5,10.6,4.7,22,10.3,31.3c0.4-7.9,4.2-15.2,6.5-22.7C432,781.7,433.3,761.7,432.7,741.7z"/>
<path class="st0" d="M479.6,507.8c-0.3-0.5-0.5-1.2-0.8-1.7c-0.8-1.2-1.6-2.3-2.6-3.8c-0.5-0.1-1-0.3-1.5-0.5
	c-1,2.5,1.1,4.2,2.6,5.8C477.8,508,478.8,507.8,479.6,507.8z"/>
<path class="st0" d="M366.9,382.9c-4.1,3.4-9.1,5.7-11.3,10.8c-0.1,0.1-0.1,0.3-0.1,0.4c0.1-0.2,0.1-0.3,0.4-0.4
	c7.8,0.1,8.6-2,13.5-7.2c1.2-0.8,1.9-1.5,1.2-2.9c-0.7-1.2-2.3-1.6-3.5-0.9C367.1,382.8,367,382.8,366.9,382.9z"/>
<path class="st0" d="M493.2,459.2c-1.7,1.2-3.9,1-2,3.3c1.5,2.3,3.1,4.4,4.9,6.5c1.3,2.4,2-6.1,2.5-7c1-2.8-6.3-14.7-8.4-17.2
	C488.1,449.7,499.2,455.8,493.2,459.2z"/>
<path class="st0" d="M490.9,499.8c-1.3-2.2-2.8-4.3-4.4-6.3c-10.5,3.9-0.6,7.1,4.8,7.2C491.2,500.4,491,500.1,490.9,499.8z"/>
<path class="st0" d="M361.4,526.2c-1.2,1.7,0.1,3.5-0.3,5.2c-0.6,2.5-1.3,4.9-2.3,7.3c-0.7,2.1-2.5,3.8-2.1,6.1
	c3.4-1.8,4.4-5.8,7-8.9C364.9,534,363,527.6,361.4,526.2z"/>
<path class="st0" d="M357.4,523.9c-3.1,1-5.2-1.8-5.5,2.8c-0.9,3.2-3.8,8.3-7.3,10.5c0.9-0.1,1.7-0.3,2.5-0.5
	C349.9,537.1,364.6,523.3,357.4,523.9z"/>
<path class="st0" d="M340.6,321.1c-6.2,3.6,2.4,8.6,4.3,12.3c11.2,12.5,21.5,25.8,31.6,39.1c2.4,3.3,5.5-0.8,8.8,2.5
	c1.3,1,2.1,0.5,2.7-0.5c5.2-8.2,13.2-15.5,13.2-26c0.6-16.5-3.9-33.5-15-46c-0.5-0.5-1.7-1.2-2.4-1c-4.1,1.5-8.8,0.5-12.8,2.9
	C360.3,308.7,350.5,314.9,340.6,321.1z"/>
<path class="st1" d="M460.4,146c-2.7-0.3-5.4-0.7-8-1.4c-2-0.2-3.9-2.1-5.8-1.4c4.9,3.6,9.6,8.6,15.2,10.9c12.4,0.7,24.9-1,36-6.4
	C483.5,142.1,474.6,146.6,460.4,146z"/>
<path class="st2" d="M426.3,101.8c3.2,1.3,7.2,6.4,10.6,5.7c0.6-3,1.8-5.9,3.6-8.4c6.1-10.1,12.3-20,21.9-27.2
	c39.5-32.7,35.3,9.9,84.5-69.5c-1-1.2-3,0.8-3.7,1.5c-24.3,34.7-26.8,35.5-67.2,47.5c-10.8,2.8-19.8,9.4-28.9,15.5
	c-11.2,7.4-17.9,19.6-21.8,32C424.8,100.2,424.9,101,426.3,101.8z M394.2,92.3c5.1,5.2,9.8,11,14.6,16.3c1-12.5,1.6-25.6,7.6-36.9
	c1.4-4,8.7-8.8,8.3-12.4c-2.2-7.4-4.7-15.6-2.3-23.4c2.7-7.6,7.9-14.8,16-17.2c-4-1.9-8.5-1-13,0.3c-8.7,4.3-12.7,13.9-13,23.2
	c0.4,2.9-1.3,10.7,3,10.5c2.2-0.2,5.7,0.5,6.1,3c-19.4-6.3-30.2,18-28.3,34.1C393.2,90.8,393.6,91.7,394.2,92.3z"/>
<path class="st3" d="M409.8,143.1c-2.8-3.4-4.5,5.2-3,6.7c0.3,0.3,0.7,0.5,1.1,0.5c5.2-0.6,10.2-0.9,14.3-4.8c1-1.9,6-8.3,0.8-7.5
	c-0.9,0.9-0.7,2.8-1,3.9C420.1,147.1,412.3,148.1,409.8,143.1z M416.4,139.8c-1.8,0.8-1.4,3.8,1.3,3.1
	C419.8,141.6,418.3,139.6,416.4,139.8z"/>
<path class="st4" d="M400.4,407.6c0.1,1.3,0.1,2.5-0.1,3.8c6.5,3.1,13.5,5.1,20.6,5.8c13.2,1.7,25-4.3,35.9-10.7
	c4.1-5.2-7.9-27.4-10.1-33.6c-2.2-7.3-1.7-23.8,3.2-30.8c-6.3,2-12.9,3.1-19.7,1.8c-5.4-0.4-10.8-2.4-16.2-4.1
	c2.4,6.3-4.9,21-5.9,26.7C404.8,379.9,396.4,393.5,400.4,407.6z M407.5,253.6c-0.5,1-0.8,1.9-1.3,2.7c-0.6,1.1-1.2,2.2-1.9,3.3
	c2.5,4.9,5.2,9.7,7.9,14.5c2.4,4.5,4.5,9.2,6.9,13.6c0.9,1.7,0.8,3.7,3.3,4.9c5.3,2.5,10.8,4.9,15.1,9c0.1,0.1,0.5-0.1,0.5-0.2
	c1.9-4.7,4.4-9.3,8.2-12.7c3.3-2.3-0.1-10.2-2.1-16.3c-2-2.5-5.5-8.4-6.8-10.2c-2.1-6.2-7.4-21.3-8.6-29.3
	c-2.7-14.1-3-45.5-3.6-59.4c-3.2,3.6-6.8,7-9.2,9.7c1.2,8.2-1.3,36.9-1.5,43.4C414.4,236.3,410.2,244.8,407.5,253.6z M414.5,182.5
	c-3.9,0.8-10.3-2.1-10.8-5.2c-1.9-9,4.8-18.5,1.7-27.1c-5-8.8,7.8-15.1,14.7-17.1c1.9-1.7,3.6-0.7,5.7-0.8c-2.5-1.2-6.3-3.9-7.5-4.3
	c-5-2.8-10,0.1-15.2-0.2c-2.5-0.3-2.8,2.1-4.5,3c0.3,1,0.6,2.6,0.6,2.8c0.7,4.1,1.3,8.3,2,12.5c0.1,1.4,0.2,2.7,0.3,3.9
	c1.6,5.7-2.6,15.7-4.1,21.1c-0.5,1-15,18.4-15.4,19.3c0,0.1-0.2,0.1-0.5,0.2c-0.1,0.3-0.1,0.7-0.1,1c0.1,9,8,15.9,14.7,8.2
	c2.1-3.6,3.7-7.9,5.6-11.6c1.2,0.3,2.4,0.9,1.7,2.3c-3.7,5-1.9,8.3-7.5,12.5c5.2,2,6.3-4.7,8.4-7.8c2.8-3.7,5.6-7.3,8.8-10.8
	L414.5,182.5z M405.6,131.3c3.2-3.4,10.7-1.9,14.3-0.1c-2.8,1.7-12.5-2.8-12.8,1.5c-0.4,2.6-0.7,5.4-1.9,7.9
	C403.5,137.7,405,134.4,405.6,131.3z M395,309.3c1.5,2.1,1.6,2.3,3.2,0.3c2.5-4.3,12.1-12.7,11.5-17.1c-2.5-7.3-5.2-14.6-8-21.9
	c-2.8,5.3-9.3,12.3-15.1,14.2c-2.3,4-3.3,9.5-3.9,13C387.8,299.4,391.7,305.2,395,309.3z M386.5,171.8c21.6-27.6,0.3-26.8,5-50.1
	c0.7-2.8-2.5-0.9-4.1-2.8c3.2-1.8,6.5,0.4,10-0.4c4.8-0.8,10.4-2.1,14.2-4.3c-9.4-8-15.2-22.1-27.6-25.6c-7.6-1.1-15.1,2.1-19.6,8.3
	c7.2-0.6,14.7-1,21.4,2.1c5.8,3.2,13.1,5.3,17.4,10.3c-0.6,0.1-1.1,0-1.6-0.2c-2.2-0.7-4.2-3.1-8.3-2.6c-12.4-0.1-25-3.1-36.9,1.2
	c7.4-8.5,28-1.6,38-2.9c-10.9-7-26.1-9.2-37.8-2.8c-6.4,3.5-11.1,9.4-13,16.4c-2.3,6.3,5.4,7.3,9.6,9.1c13.2,7.9-6.5,14.9-0.8,22.5
	c2.4,3.1,5,5.9,7.9,8.6c12.7,11.3-6.9,14.2-2.3,22.9c8.9,11.2,5,9.1,3.6,21.1c0.8,3.7,3.9,5.7,6.7,7.7c13.7,9.6-7.6,21.2,1.2,31.4
	c0.6-3.7-1.2-7.9,1.4-11.2c2.1-3.2,4.7-6.1,7.8-8.4c0.5-0.5,1.1-0.9,1.6-1.2c6.6-9.3-6.8-18.7-4.3-29.6
	C376.2,182.5,380,177.6,386.5,171.8z M374.5,177.2c-3,6.2-6,13.2-2.1,19.7c3.6,7.3,10.2,16.5,5.5,24.4c2.3-22.1-15.4-24.4-13.5-39.5
	c2.1-16.7,11.2-13.1-1.5-27.8c-1.6-2.7-0.8-5.5-0.1-8.2c4.4-12.9-10.4-18.6-9.8-27.8c0.3,0.3,0.7,0.6,0.7,0.9c0.3,3,2,5.3,3.7,7.6
	c6.8,7,10,12.4,6.4,22.3c-1.6,4,2.8,7.2,5,10c8.4,7.4-10.5,21.1,0.4,34.9c-1.6-12.6,7.2-22.5,11.4-33.8c4.9-13.2-8.2-20.2-8-32
	c0.5-4.9,4.5-8.6,7.4-12.3c5.1-5,14.1-7.2,21-5c0.6,0.2,1.2,0.4,1.8,0.7c-2.7,1.2-5.9,0.3-8.8,0.6c-9.2,0.3-17.1,6.5-19.5,15.4
	c-1.3,8.4,6.8,13.8,8.3,21.8C385.5,159.4,378,168,374.5,177.2z"/>
<path d="M556.9,458.6c0.1-2.5-0.8-5-2.4-6.9c-0.8-0.7-0.9-1.8-0.2-2.6c0,0,0,0,0,0c0.7-1.8,4.6-5.7,1-6.3c-5-0.4-10.1-3-15-0.7
	c-4.7,3.2-8.3,7.6-11.7,12.1s-8,6-13.3,6.1c-3.8-2.1-0.4-9.7-4.9-11.5c-3.8-2.1-6.3,5-7.9,0.8c-11.6-25-20.5-51.1-29.4-77.2
	c-2.9-11.2-8.6-22.2-9.5-33.7c2.4-7.9,3.1-16.3,2-24.5c-0.2-5.4-2.7-10.3-5.2-15.1c-1.7-3.4,0.4-7.2,1-10.6c2.1-8,2.8-16.3,1.9-24.5
	c-0.2-14.5-8.3-16.6-21-17.6c-4-0.3-2.9-4.5-3.2-7.2c-2.5-11.9-2-23.9-1.3-36c0.5-20.8-1-41.8-3-62.4c8.3,9.3,16,16.4,29.3,16.2
	c12.1,0.2,24.9-1.6,35.6-7.6c4.4-2.6-1-6.4-3.2-8.4c-6.4-5.1-14.9-5.2-22.7-5.6c-6.3,0-12.3-1.7-18.3-2.8c-5.2-1.6-19.4-3.7-18.3-11
	c0.6-12.8,6.1-24.2,14.4-33.7c8.6-12.5,21.1-22.9,35.8-27.3c6.4-0.6,12.5-2.4,18.3-5.2c19.5-9.6,31.8-34,43.6-51.5
	c1.3-2,0.8-3-1.5-3.5c-8.8-0.3-13.4,11.2-18,17.3c-2.8,5.6-7.1,10.3-12.4,13.6c-5,4.1-10.1,8.1-16.5,9.9c-14.1,5-29.1,7.1-42.7,13.4
	C442.8,62.9,430.2,76,424.5,93c-1.9,7.9-4.1,11.4-12.4,13.6c-1-5,1-10,1.5-14.9c0.7-3.7,1-7.4,2.3-10.9c1.9-7.7,8-13.1,11.6-19.6
	c-3.5-12.2-6.5-24.6,3.2-34.9c2.8-4.1,8.4-3.9,11.6-7.4c-5.8-4.8-15.3-5-21.7-1.3C410.1,24.2,409,38.9,410.3,50
	c1.6,6.5-12.5-0.4-18.8,25.2c-4.2,20.3,5.2,10.8-14.4,10.5c-11-0.8-12.5,9.6-20.5,13.4c-8.4,3-14.7,10.1-16.7,18.7
	c-2.8,12.9,18.1,9.6,15,17.9c-2.1,4-8,7.6-6.3,12.7c4.5,15.4,21.1,11.9,6.3,26.3c-4.5,5,4.1,11.2,6.3,15.3c1.4,9-8,12.9,5.3,23.1
	c13.7,8.8-13,21.8,6.6,34.2c-8.9-26.2,20.7-18,8.2-41.5c-0.8-2.7-3.3-6.2-1.9-8.9c0.5,0.5,1.2,0.9,1.2,1.4
	c0.7,8.4,14.3,8.7,20.1,6.2c4.4-1.8,3.6-8.2,7.2-10c0.7,10.8-2.1,21.7-3.2,32.5c-1.2,6.3-2.4,12.7-3.9,19c-0.8,3-3.8,3.7-5.9,5.2
	c-9.9,5.4-17.9,13.1-27.4,19.2c-6.9,3.8-12.1,9.6-17.8,15c-10.4,10.1-23.1,17.5-34.5,26.4c-3.7,2.9-9.5,7-7.9,12.3
	c7.6,15.4,22.7,25.1,34.8,36.7c6.5,5.3,13.3,10.1,19.8,15.3c1.2,0.9,1.2,1.6-0.1,2.5c-2.4,1.4-4.5,3.1-6.8,4.6
	c-5.3,3-8.2,15-0.3,15.6c1.2,0,5.6-0.8,4.3,1.7c-3,6-1.6,5.4-8,3.8c-7.9-0.4-3.9,5.6-12.9-2c-1.4,7.5,5.2,13.2,11.4,16.3
	c-1.2,0.8-5.2,1.7-2.8,3.3c1.7,1.3,3.6,2.4,5.5,3.3c1.4,0.5,1.6,1.1,0.5,2c-2.5,2.2-5,4.4-7.6,6.5c-2.4,1.9-2.5,2.3-0.1,4.3
	c4.7,3.4-4,10.2-7.4,11.2c-3.7,2.8,7.1,4.5,2.1,6.8c-1.3,1.5-9.4,3.7-7.2,5.9c2.2,3.4,6,4.2,9.8,4.5c5.9,0.1-4.6,8.5-5.8,10.1
	c-3.6,3.8,5.7,6,8.3,6.1c-1.7,2.8-10.1,4.5-7.4,8.4c5.2,6.8,9.6,1.7,1.2,11c-1,1.3,2.6,2.3,3.5,2.4c1.8-0.1,3.5,0.8,4.5,2.3
	c2.5,3.2-4.6,7.2-6.2,9.9c-3.5,2.8-8,1.6-11.8,2.9c1.4,2.7,5.8,3,5.5,6.5c-0.2,2.1-4.6,0.5-6.2,1.2c1.2,2.1,3.3,3.6,4.5,5.7
	c0.6,1.3,1.6,2.4,2.8,3.2c0.5,0.3,0.5,1.9,0.7,2.9c0,0.9-1.2,1.3-1.9,1.8c1,1.2,2.4,1.2,3.7,1.5c2.3,0.4,3,3.1,5.3,2.7
	c1.7-0.1,2.5,0.3,1.6,2.1c-0.1,0.3-0.1,0.7,0,1c1.8,3.1,7.5,3.7,9.9,1.1c0.5-0.8,1.5-1,2.3-0.6c3,1,7.4,4.7,10.3,3.9
	c2.1-1.2,2.5-1.2,3.9,0.7c6.7,12.5,13,25.2,20.8,37c1.2,1.8,0.6,3.5,0.4,5.3c-0.5,4.9,1.1,9.4,2.7,13.8c1.9,5.1,1,10.6,1.2,15.9
	c-0.1,3.3,1.2,6.9,0.7,10.1c-1.7,9.2,3.9,18.5,3.5,27.8c-4.5,19.3-4.9,39.1-4.5,58.9c0.9,27.1,1.9,54.6-1.9,81.4
	c-0.6,16.3,0,32.7,1.8,48.9c1.4,11.7,19.6,13.8,28.5,10.1c8.3-1.4,8.2-7.4,7.2-15c-1-2.1,8.1-1.2,9.6-1.5
	c16.1-1.7,16-21.7,15.6-34.2c-4.1-36.5-10.8-72.4-15.5-108.7c-1-9.9-1.6-19.8-2.8-29.8c-0.1-3.4-1.5-7.1-0.4-10.4
	c2.1-4.3,4.3-8.5,6.6-12.8c0.6-1.1,0.3-2.5-0.6-3.3c-1.7-1.9-5-1.9-4.5-5c0.3-7.6-0.3-15.2-1.6-22.7c0.1-4.2-2.5-9.2-0.5-12.9
	c5.5-8.3,8.9-17.8,13.8-26.5c9.6-16.5,14.4-35.1,19.4-53.3c0.4-1.1-0.1-2.7,1.7-3.2s3-3.4,4.5-4.1c2.5-1.3,11.5,0.2,10.9-3.5
	c-0.1-2.3,4.9-2.9,6.3-5.2c2.5-3.1,3.2-0.8,6.1-2c-4.2-3.9-4-2.9-0.1-6.8c-0.5-0.5-1.2-0.6-1.9-0.5c-3.3-0.9-4.3-5.1,1.3-3.8
	c-0.5-0.8-0.9-1.6-1.3-2.3c-0.1-0.3-0.4-0.5-0.5-0.8c3.3-0.8,6.8-1.3,9.4-3.9c-3.9-1.2-8.2,0.5-11.9-1.5c6.5-8,0.4-5.2-4.6-10.8
	c-0.2-0.1-0.9-1,0.4-1c2.4,0.4,4-1.2,5.5-1.7c2.7,3,4.6,7.9,9,3.9c1.6-1.3,3.5-7.4,5.8-6.1c7.4,2.4,15,4.8,22.8,4.3
	c3.1-0.2,16.4-0.7,12.3-6.1c-3.6-4.2-8.8-4.1-13.8-4.1c7-9.9,11.3-3.8,20.7-4.4C556.9,461.9,557,462.3,556.9,458.6z M543.6,444.6
	c2.1-1,5.2,0.1,7.7-0.1c1.1,0.1,1.8,0.2,2.5,0.3c-2.4,6.1-5.1,5.1-10.4,3.4C543.3,447.1,543.4,445.9,543.6,444.6L543.6,444.6z
	 M541.2,444.2c0.1,0.9,0.2,1.7,0.2,2.6c0,0.3-0.1,0.6-0.2,0.8c-1.4,2-3.1,1.6-5.1,1.1C537.8,447.3,539.4,445.7,541.2,444.2
	L541.2,444.2z M452.7,250.4c9.2,1,6,13.3,7.2,19.8c0.5,7.4-1.2,14.7-2.8,21.8c-0.3-0.2-1-0.3-1-0.5c-2.4-7.6-4.4-15.3-6.9-22.8
	c-1.5-5.8-2.4-11.1-3.3-16.9C445.2,248.2,450.7,251,452.7,250.4z M442.8,249.7c3.1,10.8,4.9,22.7,8.2,33.7c0.3,1,0.5,1.8-0.5,2.4
	c-0.3-0.2-0.5-0.5-0.7-0.8c-0.4-1.3-0.6-2.5-1-3.9C446.2,270.8,442,260.2,442.8,249.7L442.8,249.7z M416,183.4
	c2.4-2.7,6-6.1,9.2-9.7c0.6,13.9,0.9,45.3,3.6,59.4c1.2,8,6.5,23.1,8.6,29.3c1.3,1.8,4.8,7.7,6.8,10.2c2,6.1,5.4,14,2.1,16.3
	c-3.8,3.4-6.3,8-8.2,12.7c-0.1,0.1-0.5,0.3-0.5,0.2c-4.3-4.1-9.8-6.5-15.1-9c-2.5-1.2-2.4-3.2-3.3-4.9c-2.4-4.5-4.5-9.1-6.9-13.6
	c-2.7-4.8-5.4-9.6-7.9-14.5c0.7-1.1,1.3-2.2,1.9-3.3c0.5-0.8,0.8-1.7,1.3-2.7c2.7-8.9,6.9-17.4,7-26.8
	C414.7,220.4,417.2,191.6,416,183.4z M461.8,154c-5.5-2.3-10.3-7.3-15.2-10.9c1.9-0.6,3.8,1.2,5.8,1.4c2.6,0.6,5.3,1.1,8,1.4
	c14.1,0.6,23-3.9,37.4,1.6C486.7,153,474.2,154.7,461.8,154z M425.3,98.8c4-12.5,10.6-24.7,21.8-32c9.1-6.1,18.1-12.7,28.9-15.5
	c40.4-12,42.9-12.8,67.2-47.5c0.7-0.7,2.7-2.8,3.7-1.5c-49.2,79.4-45,36.9-84.5,69.5C452.7,79,446.6,89,440.5,99
	c-1.8,2.5-3,5.4-3.6,8.4c-3.4,0.8-7.4-4.3-10.6-5.7C424.9,101,424.8,100.2,425.3,98.8z M421.7,55.8c-0.4-2.4-3.9-3.2-6.1-3
	c-4.3,0.1-2.6-7.7-3-10.5c0.3-9.3,4.3-19,13-23.2c4.4-1.2,9-2.1,13-0.3c-8.1,2.4-13.3,9.6-16,17.2c-2.4,7.8,0.1,16,2.3,23.4
	c0.4,3.7-6.8,8.4-8.3,12.4c-6.1,11.3-6.6,24.3-7.6,36.9c-4.8-5.4-9.5-11.1-14.6-16.3c-0.7-0.6-1-1.6-0.8-2.5
	C391.5,73.8,402.3,49.5,421.7,55.8z M376,191.5c-2.5,10.8,10.9,20.3,4.3,29.6c-0.6,0.4-1.1,0.8-1.6,1.2c-3.1,2.3-5.7,5.2-7.8,8.4
	c-2.5,3.3-0.8,7.4-1.4,11.2c-8.8-10.2,12.5-21.8-1.2-31.4c-2.8-2-5.9-4.1-6.7-7.7c1.3-12,5.2-9.9-3.6-21.1
	c-4.6-8.7,15-11.6,2.3-22.9c-2.8-2.7-5.5-5.5-7.9-8.6c-5.7-7.6,14-14.7,0.8-22.5c-4.2-1.8-11.9-2.8-9.6-9.1c1.9-7,6.6-12.9,13-16.4
	c11.7-6.4,26.9-4.2,37.8,2.8c-10,1.3-30.6-5.6-38,2.9c11.9-4.3,24.5-1.2,36.9-1.2c4.1-0.6,6.1,1.9,8.3,2.6c0.5,0.2,1.1,0.3,1.6,0.2
	c-4.3-5-11.6-7.2-17.4-10.3c-6.8-3.2-14.3-2.7-21.4-2.1c4.4-6.2,12-9.5,19.6-8.3c12.5,3.6,18.2,17.6,27.6,25.6
	c-3.8,2.3-9.4,3.5-14.2,4.3c-3.4,0.8-6.8-1.4-10,0.4c1.6,1.9,4.8,0,4.1,2.8c-4.7,23.3,16.6,22.5-5,50.1
	C380,177.6,376.2,182.5,376,191.5z M384.4,177c9.7-8,17.6-23.3,11.9-35.6c-1.9-3.6-3.7-7.4-3.9-11.4c-0.3-2.8,0.5-5.8,1.2-8.6
	c0.1-0.6,1.9-1,2.9-1c2.4,0.4,19.5-3.6,17-6.7c-1.4-1.4-2.8-2.1-3.6-3.6c12.5-0.3,12-9.4,15.6-6.7c3,2.1,6.2,4,9.4,6
	c2.8,2.5-1.7,10.1-0.4,14.3c-0.5,2.2-1.7-1.9-4.1-1.2c14.3,17,39.4,14.3,59.4,17.3c1.7-0.2,13.3,6.4,8.8,7.5
	c-9.6-8.2-24.9-2.5-36-2.9c-6.3-0.7-12.5-1.5-18-5c-0.6-0.6-1.4-0.3-2.1-0.2c3.9,6,9.9,9.9,15.6,14.2c-2.4,0.8-5.4-1.7-7.5-2.7
	c-8.2-5.3-14.3-13.1-20.7-20.2l0.8,2.8c5.5,19.1,4.5,39.6,4.8,59.4c-0.3,13.9-2.8,28-0.4,41.9c1.4,4.4,0.4,9.9,3.9,13.2
	c0.5,0.7,1.5,1.5,1.5,2.3c0,5.9,1.4,11.5,2.5,17.2c0,0.6,0.1,1.2,0.3,1.8c-1.6-2.8-3.8-6.1-4.3-7.4c-3.6-5.9-6.6-23.5-10-30
	c-1.1-14.9-1.6-44.9-3.5-58.1c4.6-5.2,8.6-10.5,7.4-14.3c-2.4,2.2-3,5.9-4.8,8.5c-3.7,5-8.5,9.3-12.8,14c-17.9-1-5.9-18.7-8.1-27.6
	c-0.2-1-0.1-2.5,2.1-2.4c7.2,0.3,15.8-3.4,18.1-10.7c0.6-2.1,0.8-4.3,1.8-6.3c0.2-0.3,0.3-0.6,0.3-1c0-1-1-1.6-2.5-1.6
	c-1.3-1.1-3.6-3.1-3.8-3.2c-2.1-1.2-4.1-2.3-6.3-3.4c-5.2-1.4-10.2,0.1-15.5-0.8c-3-0.4-3,4.2-4.5,6.2c0.5,0.1,0.9,0.1,1.4-0.1
	c-0.6,6,2.1,15,2.9,20.6l0.1-0.1c-1,6.9-2.5,19.6-19.6,37.9C381.5,184.6,380.1,179.5,384.4,177z M421.9,141.9c0.3-1.2,0.1-3,1-3.9
	c5.2-0.8,0.3,5.6-0.8,7.5c-4.1,3.9-9.1,4.2-14.3,4.8c-0.4,0-0.8-0.2-1.1-0.5c-1.5-1.5,0.3-10.1,3-6.7
	C412.3,148.1,420.1,147.1,421.9,141.9L421.9,141.9z M416.4,139.8c1.9-0.1,3.4,1.9,1.3,3.1C415,143.5,414.6,140.6,416.4,139.8
	L416.4,139.8z M404.2,195c-2.1,3.1-3.2,9.8-8.4,7.8c5.6-4.2,3.9-7.4,7.5-12.5c0.8-1.4-0.5-1.9-1.7-2.3c-1.9,3.7-3.4,8-5.6,11.6
	c-6.7,7.7-14.6,0.8-14.7-8.2c0.1-0.3,0.1-0.6,0.1-1c0.3-0.1,0.5-0.1,0.5-0.2c0.4-0.9,14.9-18.3,15.4-19.3c1.5-5.4,5.6-15.4,4.1-21.1
	c-0.1-1.2-0.2-2.5-0.3-3.9c-0.7-4.3-1.3-8.4-2-12.5c0-0.1-0.3-1.7-0.6-2.8c1.6-0.8,1.9-3.2,4.5-3c5.2,0.3,10.3-2.6,15.2,0.2
	c1.2,0.5,5,3.2,7.5,4.3c-2.1,0.1-3.9-0.9-5.7,0.8c-6.9,2-19.6,8.3-14.7,17.1c3,8.6-3.6,18.2-1.7,27.1c0.4,3,6.8,6,10.8,5.2l-1.5,1.8
	C409.9,187.6,407,191.2,404.2,195L404.2,195z M405,242.9c2.3-7.8,3.9-15.8,4.7-23.9c0.5-6.1,0.9-12.2,1.2-18.3
	c0.1-5.6-1.9-11,3.4-15c0.4-0.5,0.8-1,1.3-1.7c-1.4,11.1-0.9,42-3.4,51.1c-1.8,6.9-6.2,16.9-8.1,24.2c-0.9-1.9-1.9-3.8-2.8-5.6
	C400,250.1,404.7,246.6,405,242.9L405,242.9z M398.6,253c7.5,13.4,14.2,27.4,20.7,41.4c0.2,0,0.4-0.1,0.5-0.2
	c5.8,2.7,11.4,5.5,16.3,9.6c3.7,2.9,4.5,8.8,8,11.6c1.4-2.6-1.7-6.5-2.9-9c-4.1-5.5,5.9-16.1,10.6-18.8c3.7,7.4,8.3,15,9.5,23.3
	c0.5,7.7,1.5,15.4-0.6,22.9c-0.5,3-3.4,3.1-5.4,4.1c-15.2,7.6-32.7,3.2-47.9-2.4c-1.8-0.2-3.7-0.8-3.8-2.9
	c-3.9-25.3-12.4-10.4,4.6-32.3c1.2-2.5,5.2-4.6,3.7-7.6c-4.1-11.6-8.4-23-12.7-34.5C398.4,256.2,397.3,254.8,398.6,253z
	 M371.3,410.6c-2.7-2.1-2.7-2.1-0.8-5c1.4-2.3,2.9-4.5,4.4-6.7c0.4-0.6,0.8-1.3,1.9-0.3c2.4,2.1,5,4,7.6,5.7
	c18.7,13.4,44.2,21.1,65.2,8.3c5.9-3.6,15.2-8.2,19-14.5c2,3.2,4,6.3,6.1,9.4C451.1,435.3,397.9,431.8,371.3,410.6z M475.4,408.4
	c1.7,3.3,4,14.8-2.2,14.1c-3-0.1-5.1-1.8-6.9-4C466,415.3,473.7,411.8,475.4,408.4z M453.2,428.5c1.4,2.8,0.3,6.3-2.6,7.7
	c-0.2,0.1-0.4,0.2-0.7,0.3c-5.6,1-9.4-1.6-10.8-6.8c-0.4-1.3,0.1-1.2,1-1.3c7.1-1.1,13.6-3.8,20-7c3.4-1.7,4.3-1.1,4.9,2.8
	c1.2,4.2-2.2,10.5-6.9,7.6c-1.8-1.2-2.8-3.6-5.2-4C453.1,428,453.1,428.2,453.2,428.5z M437.3,430c0.5,5.5-1.2,7.6-6.4,9.1
	c-4.3-0.6-4.4-5.9-5.9-8.9c-2,1.9-1.2,5-4,6.5c-3.6,2.8-9.9,0.9-9.3-4.1c0.1-0.8-0.5-1.6-0.8-2.3c-1.5,5.6-4.1,5.2-9.5,5
	c-4.2-0.3-4.1-5.1-4-8.3c0.4-2.4,14.8,1.9,17.2,2.5c7.4-0.2,14,0.6,21-0.8c0.7-0.2,1.4,0.2,1.6,0.9
	C437.3,429.6,437.3,429.8,437.3,430z M379,427.2c-2.5,0-4.7-0.3-5.4-3.1c-0.4-1.9-1-3.8,0.6-5.5c0.5-0.6,0.7-1.4,0.7-2.1
	c-1.5,0-2.5,1.5-3.9,1.9c-4.5,1.1-9.6-5-4-7.8c0.3-0.3,1.8,0.3,2.4,0.9c4.7,4.4,10.2,7.9,16.1,10.3c1.5,0.9,11.9,2.9,9.6,4.3
	c-5,7.4-14.3,5.6-11.2-4.3C381.6,423.3,382.3,427.2,379,427.2z M383.9,301.5c0.6-0.2,1.8,0.5,2.4,1c11.1,12.5,15.6,29.6,15,46
	c0,10.5-8,17.8-13.2,26c-0.6,1-1.4,1.5-2.7,0.5c-3.2-3.2-6.3,0.8-8.8-2.5c-10.1-13.4-20.5-26.6-31.6-39.1c-2-3.7-10.5-8.6-4.3-12.3
	c9.9-6.2,19.7-12.4,30.5-16.7C375.1,302,379.8,303,383.9,301.5L383.9,301.5z M382.7,297.8c0.5-3.5,1.5-9,3.9-13
	c5.8-1.9,12.3-8.9,15.1-14.2c2.8,7.3,5.5,14.6,8,21.9c0.6,4.3-9,12.8-11.5,17.1c-1.5,2-1.7,1.9-3.2-0.3
	C391.7,305.2,387.8,299.4,382.7,297.8L382.7,297.8z M400,362.5c5.2-7.4,5.9-16.4,4.3-25.1c3,0.5,5.9,1.2,8.8,2.1
	c0.3,8.3-4.3,18.8-6.5,26.5c-3.4,11.8-8.8,22.9-9,35.5c0.6,2.3,0.5,6.7,1.6,9.4c-6.1-3-11.9-6.6-17.4-10.5c-1.5-1.5-5.8-3.2-3.9-5.8
	C385.7,384.1,393.2,373.6,400,362.5L400,362.5z M414,339.8c5.4,1.7,10.8,3.7,16.2,4.1c6.8,1.3,13.4,0.2,19.7-1.8
	c-4.8,7-5.4,23.5-3.2,30.8c2.3,6.3,14.3,28.4,10.1,33.6c-10.9,6.4-22.7,12.4-35.9,10.7c-7.2-0.7-14.1-2.6-20.6-5.8
	c0.1-1.3,0.1-2.5,0.1-3.8c-4-14.1,4.4-27.7,7.7-41.1C409.1,360.7,416.4,346,414,339.8L414,339.8z M459.2,404.5
	c-1.2-21.4-18.6-37.9-8.6-62.7c3.1-1,6.1-2.3,9.2-3.5c-1.9,6.1-5.5,11.9-7.5,17.9c1.7,14.7,8.2,28.4,16,41.1
	C465.1,398.8,462.2,403.6,459.2,404.5L459.2,404.5z M310.2,323.4c-2.3-4.9,6.8-8.4,9.8-11.1c20.3-14,38.4-30.7,58.5-44.7
	c2.4-1,17.8-15.1,18-10.8c1.6,4.4,3.3,8.8,5,13.2l-2.3,1.7c-1,1.5-2.1,2.9-3.2,4.3c-2.8,2.7-5.7,5.1-8.6,7.6c-0.5,0.4-3,2.5-3.1,2.7
	c-1.6,2.8-2.8,5.8-2.1,9.3c0.1,0.7,0.2,1.4,0.2,2.1c-0.3-0.1-0.7-0.2-1-0.2c-9.5,3.1-18.7,7.1-27.4,12c-5.7,3.2-11.2,6.7-16.8,10.1
	c-3.2,1.9-3.4,3.1-1.2,6.2c5.9,8.5,11.7,17.1,18.7,24.7c6.8,7.9,13.2,15.3,20,23c0.9,1,0.8,1.6-0.6,1.9c-2.5,0.3-5.4,2.6-7.8,1
	C346.7,359.6,324.9,344.9,310.2,323.4L310.2,323.4z M355.3,396.8c-3.3-0.2-3.2-2.5-2.8-5.4c2.1-9,23.3-18.5,31.4-14.3
	c1.6,1.1,1.3,2.2,0.8,3.4c-0.8,1-1.6,4-3.1,2.6c-2.8-7.8-5.2-4.4-11.7-3.1c-3.5,0.1-21.3,12.7-13.8,14.8c2.2,0.1,4.5-0.6,6.8-0.2
	C361.5,397.5,357.8,396.8,355.3,396.8L355.3,396.8z M369.5,386.6c-4.9,5.2-5.7,7.3-13.5,7.2c-0.3,0.1-0.4,0.2-0.4,0.4
	c0-0.1,0-0.3,0.1-0.4c2.2-5.1,7.2-7.5,11.3-10.8c1.1-0.8,2.7-0.6,3.6,0.5c0.1,0.1,0.1,0.2,0.2,0.3
	C371.4,385,370.7,385.7,369.5,386.6L369.5,386.6z M345.1,413c-1.5-1.5-2.6-3.6-4.1-5.2h0.4C344.9,408,346.1,410.1,345.1,413z
	 M347.4,413.8c-1-7.8,1.9-7.6,8.3-5.7c2.4-0.1,1.2,2.1,2.2,3.5c2.4-3.2,2.5-7.6,4.1-11.2c1.9-5.2,5.3-9.3,9.3-13
	c4.3-2.5-2.5-5.9,1.9-6.9c4.2-2.1,5.8,1,7.2,4.5c-1.4,4.8-6.1,8.6-8.4,13.2c-2.8,3.7-5.8,6.9-7.7,10.7s-5.3,5.1-8.3,7.2
	C354,417.4,348.5,415.6,347.4,413.8L347.4,413.8z M350,421.6c3.8-1.5,7.2-3.9,10.8-5.8c0.9-0.6,1.5-1.2,2.4,0.4
	c1.2,2.5,3.2,4.5,6.5,4.3c3.2,0.3-0.6,10.3,10.7,8.8c0.6-0.1,1.1,0,1.6,0.3c4.3,3.9,7.4,4.1,12.3,0.8c0.9-0.6,0.8-0.5,0.9,0.4
	c1.1,8.3,8.5,6.3,14.6,5.6c1.3,0.2,1.7,2,3,2.4c-1.7,0.8-3.1-0.1-4.8-0.4c-4,0.7-8.2,0.5-12.1-0.6c-3.5,0.6-4.4-3.4-6.8-2.2
	c-2.8,1.6-4.5-0.6-6.8-1.8c-5.2-0.4-9.5-3-14.3-4.5c-1.2-0.1-2.1-1.7-3.3-2.1c-1.7-0.6-3.5-0.8-4-3C357.6,422.6,353,424,350,421.6
	L350,421.6z M355.7,427c2.8-4.4,3.9,2.2,7.1,2c2.7,0.5,4.3,3,7.2,3.3c1.5,0.3,2.8,1.7,4.3,2.2c2.5,1,5.7,0.9,8.2,2.1
	c2.6,3.4,6.6-0.3,9.4,2.4c4.5,1.9,9.6,3.1,14.5,1.9c5.9,0.8,13.5,0.1,17.8-4.3c0.8-0.3,1.3,0.6,1.5,1.3c2.9,6.3,12.1,2.5,13.4-3.4
	c4.1,6.1,13.5,6.5,16.5-1c0.1-0.2,1-0.3,1.3-0.1c5.6,3.9,11.2-2.9,10.3-8.4c-0.9-4.6,5,4.3,11.8-3.7c-0.9,3.3-6.2,6.1-9.2,8.4
	c0.1-1-0.5-2-1.4-2.5c-0.2,0.6-0.3,1.1-0.4,1.7c-0.2,3.1-1,4.1-3.9,4.5c-0.2,0.1-0.3,0.2-0.4,0.4c-1.5,3-4,2.1-6,3.9
	c-0.8,1.1-2.1,1.7-3.4,1.5c-1.7-0.1-3.2,0.1-4.1,1.9c-2.2,2.1-6.1,1.5-8.8,3c-1.5,0.6-3.4,0-4.9,0.5c-2.4,1.4-5.2,1.2-7.6,2
	c-2.8,3-7.6,0.6-11,1.7c-1.2,1-2.2,0.5-3.4-0.1c-2-1.2-2.1-1.2-3.2,0.1c-2.5,0.6-5.5-0.4-8.2-0.4c-1.7-0.2-3.9,0.2-5.2-0.7
	c-4.5-3-8.9,0.2-13.6-1.4c-3.6,0.3-7.2-0.1-10.7-1.2c-0.4-0.5-1.2-0.5-1.8-0.7c-3-0.9-6-1.6-9-2.5c-1.9-0.5-4-0.3-5.4-2.1
	c-0.2-0.3-0.5-0.6-0.8-0.8c-0.1-0.1-0.2-0.1-0.4-0.2c-1.1-0.1-2.3-0.2-3.4-0.1c-0.2-0.4-0.7-0.5-1.3-0.5
	C338.9,436.8,352.5,434,355.7,427z M478.6,411.6c0.9,0.6,3,1.9,3.2,2.7c-1.3,2.5-2.4,3.5-2.5-0.2C479,413.3,478.8,412.5,478.6,411.6
	L478.6,411.6z M340.9,451.6c-2.8-1.1,6.1-3,8.3-10.8c0.4-1.8,2.2-0.6,3.6-0.9c2.1,3.6,6.8,3.5,11.2,3.9c2.2,0.1,7.4,2.4,9.4,2
	c3.1,4.4,11.6,2,16.4,2.6c3.9-1,22,5.2,22.4,0.8c3.9,3.2,8.7,1.4,13.2,0.8c3.9,0.6,3.4-1.4,6.2-2c2.3-0.4,4.7-1.1,6.9-1.5
	c3.5,0.8,6.3-1.8,9.6-1.8c2.1-0.2,4.3-3.4,6.5-3.6c1.7,0.5,9-3.6,9.7-5c1-2.5,5.1-0.9,5.2-4.3c2.3,0.1,7.6-4.3,8.3-5.6
	c2.1-1.7,3.2-3.4,3-6.1c1.8,3.2,3.6,6.1,6.6,8.2c0.1,0-0.1,1-0.4,1c-3.2,1.3-4.5,4.4-6.8,6.5c-0.3,0.3-0.6,0.5-1,0.7
	c-0.2,0.6-0.7,1-1.2,1.1c-0.9,0.2-1.7,0.7-2.5,1c-0.4,0.1-0.8,0.1-1.2,0.1c-0.7,1.4,0.5,3.7-2,3.4c-0.9-0.3-1.9,0.3-2.2,1.2
	c0,0.1,0,0.2-0.1,0.3c-0.4,1.8-2,3-3.8,2.9c-2.1,0.1-4,2.1-6.4,1.9c-0.1,0-0.4,0.4-0.5,0.5c-0.2,1.7-1.4,1.7-2.6,1.7
	s-2.5-0.1-3.4,1.3c-0.8,1-3.4,0.7-4.5,1.4c-1.7,2-4.1,0.4-5.6,1.7c-0.8,2.5-2.9,1.5-4.1,1.2c-2.7-0.4-4.4,1.6-7.1,1.2
	c-3.3,0.1-6.6-1-9.6,1.5c-1.7,1.4-3.9,2-6.1,1.8c-4.5,2.3-4.1-0.7-7.8,0.5c-3.6-1.3-5.6,1.2-8.5-0.5c-0.4-0.3-1.3,0.3-1.9,0.3
	c-5.1-0.9-10.5-1-15.5-1.6c-3.2-1.2-6.8,0.5-9.6-0.8c-2.2-2.3-5.4-1.6-8-3c-1.1-0.5-2.8,0.1-4.1-0.1c-7-4.9-7-1.5-11.5-4.3
	C346.5,450.1,344.8,454.2,340.9,451.6L340.9,451.6z M342.1,463.1c-2.2-0.8-5.4,0.2-6.9-1.6c0.2-0.3,0.5-0.5,0.8-0.7
	c5.4,0,7.2-7.9,12.4-7.3c2.6,1.9,6.2,0.4,8.5,2.5c3,3.6,10.1,1.4,14.8,4.6c2.7,1.8,5.6,0.3,8.5,0.8c5.7,0.3,13,2.2,18.8,1.7
	c4.3,0.8,8.9-0.3,13.2,0.8c1.9,0.4,4.1-0.3,6-0.8c6.8-2.3,6.5-4,14.6-3.4c2.4-0.4,4.8-0.7,7.2-0.9c1.5-0.1,3,0,4-1.4
	c3.6,0.2,5.8-2.7,9.4-2.4c0.5,0.1,1-0.7,1.5-1c2.5-2.1,6.4-1.9,9.1-3.6c1.9-1.1,4-1.2,5.8-2.3c0.8-0.4,1.3-1,1.6-1.9
	c0.5-3.4,5.3-0.5,4.7-5c0-0.2,5.3-1.8,9.2-6.7c1.8,3.9,3.9,9.7,2,13.9c-1.4,0.5-2.8,1-3.2,2.8c-0.4-0.2-0.7-0.4-1-0.6
	c-2.7,1.2-5.6,2.4-7.4,5c-2.3,0.2-4.2,2.1-6.8,1.6c-0.9-0.1-1.8,0.1-2.4,0.8c-2.8,2.5-7.4,1.6-10.8,3c-2.6,1-3,4.9-6.4,3.6
	c-3-0.2-5,3.2-7.6,4c-2.1-1-3.6,0-5.2,1.4c-3.2-2.1-5.9,3.2-8.8,0.6c-3.1-3.5-5.4,2.9-8.5,0.3c-0.9-0.7-1.7-0.4-2.7,0.3
	c-1.7,0.6-3.7,0.9-5.5,1.6c-0.8,0.2-2.1,0.8-2.5,0.3c-2.1-1.5-4.1,0.5-6.5-0.5c-1.1-0.1-2.5-0.6-3.2-0.1c-2.6,1.5-5.2,0.1-8,0.9
	c-4.2,1.5-6.7-2.6-10.8-2c-3.6,0.7-7.6-2.9-10.8-1.6c-0.5,0.3-1.2,0.4-1.8,0.3c-5.4-1.8-10.3-4-16.1-3.3
	C348.7,467,345.2,463.3,342.1,463.1L342.1,463.1z M340.1,479.2c-3.9-0.1,6.5-7.3,6.3-10.4c0.3-0.9,0.8-1.2,1.6-0.5
	c3.6,1.7,8,1,11.9,2.2c3.7-0.1,7.1,3.3,10.7,1.4c0.2-0.1,0.4-0.1,0.5,0c1.9,2.1,4.8,0.6,7,1.9c0.7,0.4,1.8,0,2.7,0.1
	c3.9,0.5,6.8,3.6,10.8,1.6c2.7,0.1,5.3-0.1,7.9-0.5c2.1-0.4,3.7,1.1,5.8,0.4c1.8-0.4,4.4,0.7,6,0.1c1.4-1.2,3-0.8,4.6-0.8
	c2.1-2.5,5.2,0.5,7.6-1.6c3.6-2.3,5.5,2.8,10-0.5c1.6-1,3.2,0.8,4.8-0.9c1.7-0.9,4.3-0.8,6.1-2c2.1-1.2,3.8-3,6.5-2.4
	c3,0.1,3.5-3.5,8.9-4.6c5-1.7,3.5,1,9.2-2.8c3.6-0.4,6.8-1,9.4-4c1.2-1.3,3.3-3.2,5.9-2.5c2.1-1.3,3.4-4.7,5.7-1
	c0.8,1.5,4.5,5,1,5.3c-3.1,0.1-6,1.5-8.1,3.7c-1.7,1.7-3.9,1.6-5.8,2.5c-3.9,1.4-6,5.7-10,7c-1.6,0.8-3.2,1.1-4.1,2.8
	c-0.1,0.3-0.5,0.3-0.8,0.5c-1.6,0.7-3.4,1-4.6,2.5c-0.5,0.6-1.9,0.4-3,0.6c-2.5,0.1-3.4,3.6-6.2,2.1c-1-0.4-2.1,0-2.5,1
	c-1.9,4.1-7,0-12.6,4c-2.4,0.4-4.9,1.6-7.3,1.7c-1.6-0.5-3.3-0.1-4.5,1c-3.5,3.3-5.9-1.7-8.4,0.2c-4.5,4.2-8.3-2.9-12.3,0.2
	c-2.3,2-3.6-1.5-6.1,0c-2.4,1-5.5,0.2-7.6-1.5c0,0-0.3,0.2-0.3,0.4c-0.1,1.9-1.3,1.6-2.2,0.9c-2.1-2.4-5.7,1.2-7-1.6
	c-1-2-2.2-1.3-3.5-0.6c-2,1-4.8,1.2-6-1.4c-2.5-1-6.5-0.1-9.3-0.3V483c-0.3,0-0.5,0-0.8,0c-0.5-0.1-1.1-0.1-1.6-0.1l-1.2,0.2
	c-0.3,0-0.7,0-1-0.1c-2.4,0.2-4.7-0.4-6.8-1.7c0.1-0.1,0.1-0.3,0.1-0.5C345.3,479.6,342.7,479.7,340.1,479.2L340.1,479.2z
	 M346.8,503.2c-0.9-0.7-3.4-0.6-4.6-1.2c2-2.8,4.5-5.1,6.5-7.8c0.6-0.8,0.6-0.8,1.2,0c2,3.3,5,1.7,7.6,3.5c5.2,5.2,6,0.8,11.2,2.1
	c3.5-1.5,6.5,1.8,9.9,0.7c1.3-0.4,2.2,0.2,3.2,0.7c1.9,1.6,4.1,0,6.3,1c2.8,1.2,5.5-0.5,8.5,0c2.3,0.4,3.8-1.6,6.1-1
	c1.5,0.5,2.9,0.7,4.3-0.5c2.3,0.8,4.9-0.7,7.3,0.8c0.9,0.6,3.1,0.3,4.3-0.4c3,2.8,11.8-2.4,15.4-2.3c2.8,1.2,4.9,0.8,7.2-1.2
	c0.8-0.7,1.6-1.3,2.5-1.9c1.9,0.9,9.2-3.1,10.6-3c2.8,0.4,4.8-2.1,7.5-1.9c1.8-0.1,3.6-2.4,5.2-3.1c6.5-1.9,11.4-7.3,17.9-9.4
	c-3.2,2.9-6.5,8.7-9.7,10c-2.7-0.3-3.9,2.1-6.1,2.8c-1.8,0.5-3.8,1.4-4.8,3.5c-1.6,0.8-3.9,1.2-5.6,2c0.1,0.1,0.4,0.1,0.6,0.2
	c-0.3,0-0.5,0-0.8-0.1c-0.8,0.2-1.5,0.6-2.2,1c0.1,0,0.1,0.1,0.1,0.1s-0.1,0-0.3-0.1c-0.4,0.2-0.3,1.3-0.5,1.4
	c-0.8,0.2-1.9-0.1-2.5,0.5c0.1,0.1,0.2,0.1,0.4,0.2c-0.2,0-0.3,0-0.5-0.1c-4.3-0.1-6.8,5.6-11.5,3.9c0.1-0.1,0.2-0.1,0.3-0.2
	l0.8-0.2c-2.8-0.5-4.8,2.5-7.7,1.1c-1.8-0.2-5.1,0.8-7.2,1.9c0-0.1,0.1-0.2,0.1-0.3c-3.2,1.2-8.1,2.7-11.7,1.9
	c-3.6-0.5-5.4,4.1-9.1,1.8c-5-1.7-2,4.3-10.5,2.1v0.1c-1.7-0.3-3.4-0.5-5.2-0.5c-2.5,0.6-5.2,0.5-7.6-0.5c-0.2-0.1-0.6,0.1-0.9,0.2
	c-2.4,1.9-4.6,0.6-6.7-0.7c-1.1-0.6-0.8-3.6-2.7-2.6c-2.8,1.8-5.2,3.1-8.3,1.2c-3.4-0.4-6.2,1.7-8.5-2.3
	C354.3,502.2,349.1,507.9,346.8,503.2L346.8,503.2z M340.3,519.5c2.8,0.3,6.1,0.7,8.5,2.2c-3.7,0.8-9.4,5.9-12.1,4.5
	c0.5-0.9,1.5-1,2.4-1.7c-2.3,0.5-3.5-2.4-4.9-3.7C336.3,520.6,338.3,520.2,340.3,519.5L340.3,519.5z M336.5,533.6
	c-0.6-0.2-1.1-0.5-1.6-0.8c0.7-0.5,2.5-2.3,0.5-2.3c-1.3,0.3-2.2-0.3-3-1.2c5.8-0.7,11.6-1.2,16.2-5.4c0.4-0.5,0.8-0.9,1.1-1.5
	c1.7,2.3-6.7,8-8.5,8.5c-1,0.2-1.6,1.1-1.5,2.1c0.2-0.1,0.5-0.3,0.7-0.4c0.2,0.2,0.3,0.5,0.5,0.7c0.2,0,0.3-0.1,0.3-0.3v0.3
	c0.3,0.1,0.7,0.2,1,0.3c0.3,0.1,0.6,0.1,1,0.1c1.7-1.7,3.5-3.3,5.5-4.7c-0.2,0.7-0.5,1.3-0.8,2c-0.4,0.5-0.8,0.9-1.3,1.3
	c0,0.2,0.1,0.4,0.2,0.6c-0.4,0.1-0.5,0.3-0.8,0.3c-0.5,0.8-2.3,3.2-3.1,4.5c-1.2,0.1-2.3,0.3-3.5,0.5
	C336.6,538.3,341,534,336.5,533.6L336.5,533.6z M354.7,541c-0.5,1-0.2,2.3-1.2,3.2c0.3,0,0.7,0,1-0.1c0.6,3.1-2.2,5.2-5,3.2
	c-0.8,0-2-0.6-2.1-1.3c0-1.6-1-2.4-2-3.5c-1.9-2.3-4.5-1.2-6.5-2.6c3.3-1.3,7.2-0.5,10.5-1.7c1.5-0.5,2.5-2,4.1-1.4
	c-0.3,0.1-0.7,0.2-1,0.2c-0.1,0-0.3,0.1-0.5,0.1C353.6,538.4,356.6,538.4,354.7,541z M347.2,536.7c-0.8,0.2-1.7,0.4-2.5,0.5
	c3.5-2.2,6.4-7.3,7.3-10.5c0.4-4.6,2.4-1.9,5.5-2.8C364.6,523.3,349.9,537.1,347.2,536.7L347.2,536.7z M356,540.1
	c0.3-2,0.7-2.4-0.4-4.3c0.2-0.1,0.3-0.2,0.4-0.4c1.1-1.2,2.1-2.7,2.8-4.2c0,2.7-1.9,5.3-2.4,8.1C356.2,539.5,356,539.8,356,540.1
	L356,540.1z M356.8,544.7c-0.4-2.3,1.4-4,2.1-6.1c0.9-2.4,1.7-4.8,2.3-7.3c0.3-1.7-0.9-3.6,0.3-5.2c1.6,1.5,3.5,7.8,2.3,9.7
	C361.2,539,360.2,543,356.8,544.7L356.8,544.7z M368.6,527.8c-0.7,0.8-1.9,6.2-3.1,4.3c0-1.5-2.6-6.3-1-6.8
	C366.5,526,370.1,525,368.6,527.8L368.6,527.8z M369.6,535.1c0.3,1.2-0.6,2.7-0.8,4.1C368.9,538.3,368.6,535,369.6,535.1
	L369.6,535.1z M368.8,549.1c-1.2,0-2.5,0.9-3.7,0.7c-2-0.8-5.2-1.4-5.9-3.7c0.3-0.1,0.8,0.1,1-0.1c0.9-2.2,2.1-4.3,3.5-6.2
	c1.9-1.9,2-5.2,4.1-6.6c0,0.3,0,0.7-0.1,1c-0.7,1.9-1.4,3.9-2.3,5.8c0.1,0.2,0.2,0.3,0.3,0.4h-0.3c-0.3-0.4-0.6-0.7-1-1
	c-0.3,0.2-0.3,0.3-0.3,0.4c2,4.6,2-1.4,4.1,6.8c0.2-0.4,0.4-0.8,0.5-1.2C368.8,546.7,371.5,549.2,368.8,549.1L368.8,549.1z
	 M398.9,611.6c-1.1-3.5-2.5-6.8-3.3-10.3c-0.7-3.2,0.3-6.8-0.1-10.1c-5.4-15.9-18.4-28.5-23.6-44.5c-1.1-5.3-0.1-10.6,0.6-15.8
	c-0.1-2.5,2.1-1.8,3.6-2.4c2.3-1.3,3.7,0.5,5.3,1.5c0.4,0.3,0.4,1.7,0.2,2.4c-1.6,6.4-4.5,12.4-6.8,18.5c1.6,0.1,3.2-0.9,3.9,1.1
	c0.8,1.5,4.3,0.4,5.3-1.2c0.2,0.4,0.2,0.9,0.2,1.4c-0.1,0.8,0.8,1.5,1.3,2.3c5.2-5.5,1.3-17.6-0.5-24.2c1-2.2,4.4,0.2,6.3-2.4
	c1.4-0.8,4.6,0.2,4.1,2.5c-0.5,6.1-2.5,11.6-5,17.1c0.4,0,0.8,0.1,1.1,0c2.5-1.5,1.8,2.8,3.9,1.7c0.5-0.2,1.4,0.3,2.1,0.3
	c1.9,0.3,1.5-1.7,3.8-0.1c0.9,0.3,2.1-0.2,3-0.6c3.1-0.1,1.4-1.5,0.4-3.3c0.9,0.3,2.3,0.1,1.6-1.2c-2.5-4.6-5.3-9.2-6.3-14.5
	c-0.4-5,6.6-1.4,7,1.9c1,4.5,5.4,8.7,5.2,13.2c-3.6,30.8,3.5,63-5.6,93c-1.3,3.2-7,0-7-2.7c0.1-6.1-0.8-12.5-0.5-18.5
	c2.1,1.7,5.1,3.8,7.8,2.2C402.9,616.2,400.6,617.7,398.9,611.6L398.9,611.6z M381.4,543.4c0.4,0.7-0.9,1.7,0.2,1.7
	c1.7-0.1,3.6-0.1,2.9-2.5c0.1-2.1-1.3-4.9-0.1-6.8c1.6,4.7,2,9.8,1.2,14.7c-1.9-3,0.3-2.2-4.3-2.3c0.1,0.1,0.1,0.3,0.2,0.4
	c0.1,0.1,0.3,0.2,0.4,0.3c-1.8-0.2-3.5-0.1-2.5-2.6c0.2-0.2,0.4-0.5,0.4-0.8c1-2.4,1.4-5,2.3-7.3C382.9,542,380.8,541.9,381.4,543.4
	z M397.8,529.7c1.7,5,4.5,9.8,4.9,15l-0.8-0.6c-0.1,0.3-0.2,0.6-0.3,0.9c0.1,0.2,0.2,0.3,0.4,0.4c0.1,0.3,0.2,0.3,0.3,0.4
	c-0.1,0-0.2,0-0.3-0.1c0-0.1-0.2-0.1-0.2-0.1c-0.3,0.1-0.5,0.1-0.5,0.1c-0.5-0.1-1.1-0.2-1.6-0.1c-1.1,0-1,0.1-0.1,0.5
	c-1.6,0.5-3.1-0.2-4.5-0.4c-1.7-2.3,1.9-7.7,2.1-10.7C397.7,533.3,396.8,531.2,397.8,529.7L397.8,529.7z M413.8,532.3
	c2.1,1.9,5.1,2.9,7.6,4.4c-0.3,0-0.7,0.1-1,0.2c-0.2,0.1-0.3,0.3-0.5,0.6c0.3,0.1,0.5,1,0.8,1.7c-0.8,0-1.6,0.1-2.3,0.1
	c0.5,2.5-1.8,1.7-2.8,2.5c-0.3,0.1-0.3,0.5-0.4,0.8c0,0.2,0.2,0.3,0.3,0.4h-0.3c-3.2-4.6-6.1-9.4-7.2-15c0.4,0.1,0.8,0.1,1,0.3
	c0.4,0.6,0.8,1.2,1.1,1.9C411.7,530.4,412.6,531.3,413.8,532.3L413.8,532.3z M411,525.3c1.9-0.8,2.2-0.7,2.2,1.4
	c0,1.5-0.1,2.6-0.1,3.7C412.3,528.9,408.5,526.8,411,525.3L411,525.3z M399.7,642.5c-0.4-3-0.3-3,2.5-1.9c5.2-0.1,2.5,3.4,2,6.6
	c-0.8,3.1-0.1,6.5-1.7,9C400.3,652.2,400.7,647,399.7,642.5z M398.1,839.4c-0.6-11.7-1.3-23.2-1.9-34.8c-1.3-6.4,6.6-5.1,10.8-5
	c4.5,0.4,4.1,8.7,5.9,12.1c3.1,7.4,5.2,14.5,8.8,21.6c-19.7-1.9-20.3-3.7-22.5,16.7C397.3,846.8,398.5,842.9,398.1,839.4z
	 M417.9,837.8c-0.3-1.1-0.8-2.2-1.4-3.2c4.2,0.1,5.8-0.4,7.6,3.8c0.8,3,7.6,8.1,2.5,10.1C415.4,852.6,423.4,848.5,417.9,837.8
	L417.9,837.8z M418.3,848.4c0.3,3-1,2.4-3.7,2.4c-3-0.8-14.1,0.8-13.4-2.9c0.3-7,0.6-15.2,9.8-13.8
	C416.8,832.7,417.9,844.3,418.3,848.4z M426,817.2c2.8-2.5,6.3-1.6,9.6-1.6c-3.1,6.7-3.7,14.4-3.7,21.8c-0.1,1-0.5,1-1,0.5
	C424.1,833.1,422.1,824.8,426,817.2L426,817.2z M421,824c-5.6-9.2-7.7-20.7-10.3-31.3c-3.3-17-0.6-33.8,2.5-50.6
	c1.7-7.3,3.4-14.5,5.1-21.8c0.5-1.2,0.7-7.4,2.9-5c3.6,9.2,8.4,17.4,11.4,26.5c0.6,20-0.6,40-5.2,59.6
	C425.2,808.8,421.4,816,421,824z M420.5,860.2c-8.1,1.9-21.5,1.4-21.4-9.3c4.2,2.1,9.3,2.3,14.2,2.3c5,0.1,10-0.9,14.6-3
	c0.4-0.2,1.2-0.6,1,0.5C429.5,858.1,426.1,857.6,420.5,860.2L420.5,860.2z M429.8,842.6c-2.5-0.9-3.2-4.3-4.5-6.3
	c0.6-1.7,2.8,2.2,3.8,2.6c5.4,4,13.4,1.7,18-2.4c1.8-1.6,3-3.9,5.2-5C449.7,841.5,439,844.6,429.8,842.6L429.8,842.6z M450.6,829.9
	c-3.5,5.1-8.4,7.7-14.5,8.6c-4.1,1.2-1.7-5.4-2.3-7.7c0.7-3.3,1.6-17,6.3-15.3c4.8,1.1,9.2,3.6,12.6,7.2
	C453.4,825.4,452,827.8,450.6,829.9L450.6,829.9z M450.6,786.1c1.1,9.8,2.6,19.5,2.6,29.3c0,2,1.2,4,0.2,5.9
	c-9.8-13.3-27.6-4.3-26-8.8c1.9-7.3,3.6-14.7,5.2-22.1c1.6-12.5-1.1-13,12.5-11C448.4,780.1,450.3,781.7,450.6,786.1L450.6,786.1z
	 M444.3,748.1c1.1,10.5,3.7,20,4.6,30.4c-7.6-4.8-15.2,0.3-14-3.7c1-12.4,1-24.8,0-37.1c-2.8-8.1-15-24.5-12.5-32.5
	c4.1-12.3,7.4-25.4,13.1-36.9C436.7,695,440.4,721.6,444.3,748.1L444.3,748.1z M439.7,647.2c2.5,1.6,2.3,1.9,0.5,5.4
	c-10.5,20-17.6,41.8-23.6,63.5c-7.2,26.1-13.8,53.6-8.1,80.6c-1.1,2.2-7.2-0.8-10.3,1.3c-1,0.5-1.5-0.1-1.2-1.2
	c1.9-9.8,1.4-19.8,1.9-29.7c0.5-22.6-0.8-45.2,0-67.8c1.9-19.2,4.3-37.8,8.8-56.4c0.3-2.7,2.1-2.1,3.4-1.9c4.9,0.3,9.8,0.9,14.7,1.4
	C430.7,642.8,435.5,644.5,439.7,647.2z M467.5,524.4c-5.6,20.1-11.9,40.4-21.3,59.1c-4.1,7.9-9.8,15.2-12,23.9
	c-0.6,1.2-0.8,2.1,0.1,3.2c1.7,6.1,1,13,1.9,19.2c-0.4,1.6,2.4,14.8-0.7,12.5c-8.1-4.2-17.4-2.7-26.2-3.9c-0.1,0-0.4-0.5-0.3-0.8
	c1.8-5.4,3-10.9,3.6-16.5c1.3-24.7-0.8-49.7,1.6-74.4c-0.2-2.8,1.9-1.4,3.8-1.5c-0.2-0.3-0.4-0.7-0.5-1.1c-0.1-0.5-0.2-0.9-0.1-1.4
	c1.5,0.3,2.7,1,4.1,1.3c-2.1-5.2-1.2-2.1,2-4.1c-0.2-0.3-0.5-0.5-0.8-0.6c0.8-0.6,1.5-1.6,2.3-1.7c0.6-0.1,1.1-0.2,1.7-0.4
	c-2.2-2.6-6-3.1-9-4.7c-2.2-0.8-2.5-2.5-2.3-4.8c-0.4-4.5,3.7-7.2,7.9-6.5c3.7,2.5,9.1,15.3,14.1,12.1c1.8-1.1,3.8-1.5,5.9-1.4
	c-0.5-2-3.2-1.6-3.8-3.7c3.4-1.2,7.2-0.5,10,1.8c-1.5-5.9-9.1-7.1-14-9.6c-1.2-0.4-3-1.6-4.6-2.3c0.8-0.4,1.5-1,2.3-1.3
	c2.2-0.9,4.4-1.5,6.7-2.3c2.7-1,3.3,0.6,4.4,2.6c2,2.8,4.6,9.6,8.5,9c0.6-0.6,1-2.8,1.9-3.5c1.6,0.3,3.5,2.5,5.5,2.2
	c-0.4-2.2-2.7-2.3-4.2-3.5c2.4-1.4,5.5,1.3,8.3,0.5c-1.7-1.7-17.6-10.2-13.2-11.6c2.1-0.5,4.6-3.6,6.4-0.9
	C460.9,518.2,469.8,518.9,467.5,524.4z M434.6,528.1c-0.2-2.5-3.5-3.5-5-5.4c-0.1-0.3-0.2-0.3-0.4-0.4h0.4c3.2,2.7,10.3,4.5,2.8-0.4
	c-0.1-0.1-0.2-0.2-0.3-0.3c3.4,1.4,7.2,2.3,10.3,4.3c-3,0.1-5.6,0.3-5,4c0,0.4,0,1.2-0.1,1.2c-0.9,0.3-2.4,0.8-2.7,0.3
	c-2.3-2.2-4.3-4.7-6.5-7.1c-1.2-1.7-4.2-4.7-0.5-5.2h0.1c0.7,1.4,0.3,4.1,0.4,4.8C430.3,525,432.2,528.8,434.6,528.1L434.6,528.1z
	 M451.4,516.8c-0.1-0.3-0.3-0.6-0.5-0.9c1.7,1,3.2,2.1,4.6,3.5c-0.5,0.2-1.1,0.3-1.5,0.6c-0.3,0.1-0.5,0.3-0.7,0.5
	c0.1,0.3,0.2,0.3,0.4,0.4h-0.4c-1.5,0.8-1.7,3.8-3.4,1.7c-1.5-0.9,0.1-1.7,0.5-2.8c1-0.4,1.5-1.6,1.1-2.6
	C451.5,517,451.5,516.9,451.4,516.8z M447.3,515.4c-0.4-0.8-2.1-1.2-2.9-1.9c0.8-1,2.5-0.3,3.2,0.3c0.8,1.4,1.4,2.9,1.8,4.5
	C448.4,517.6,447.7,516.6,447.3,515.4z M462.4,507.5c-1-0.8-2.5-1.6-2.4-2.2c0.2-1.6,1.9-0.5,2.9-0.9c1.8-0.8,3-0.5,3.9,1.5
	c0.6,2.2,3.6,3.7,3.2,6.1c-0.3-0.2-0.5-0.3-0.8-0.5L462.4,507.5z M467.1,513.7c-1.3-2-3.9-2.7-5.6-4c0.1-0.1,0.1-0.2,0.2-0.2
	c0.3,0.2,0.6,0.3,0.9,0.5C463.9,511.4,467.1,511.8,467.1,513.7L467.1,513.7z M485.9,512c-1,0.1-2,0.1-3,0.1l2,1.8
	c0.2,0.3,0.4,0.7,0.5,1.1c-1.9,0-4.8-0.1-6.1-1.3c0.4-0.4,0.8-0.7,1.3-1c0.3-0.1,0.7-0.2,1-0.3c-1-1.1-3.2,1.2-4.4,1.5
	c0.4,0.2,1.1,0.3,1.7,0.6c0.6,0.4,1.1,0.9,1.5,1.5c-2.8,1.9-9.6-3.7-7.1,2.5c-1.1,0.2-2.3,0-3.3-0.5c0.2,0.4,0.3,0.8,0.3,1.2
	c0.1,0.5,0.1,0.9,0.1,1.4c-2.9-2.6-5.7-5.4-8.5-8c1.6,0.5,3,1.6,4.5,2.1c1.6,1.1,1.3-3.4,5-1.2c0.6,0.8,1.7,1.1,2.6,0.6
	c-0.2-0.5-0.4-0.9-0.6-1.3c-0.8-0.9-2.1-1.4-1.7-2.9c-0.1-0.2-0.2-0.3-0.4-0.4h0.4c0.9,1.1,1.9,2.1,3,3c0.6,0.4,1.2,0.8,1.9,1.1
	c0.2-0.3,0.3-0.7,0.2-1c-1.2-1.5-2.2-3.2-3.6-4.3c-2-1.4-2.1-4.3-4.8-5c-0.1,0-0.1-1-0.1-1.4c4-1.1,5.4,5,7.8,7.2
	c3.5,1.7,8.2,0.9,11.9,2.3C487.1,511.5,486.5,511.9,485.9,512z M474.7,501.8c0.5,0.2,1,0.3,1.5,0.5c1,1.5,1.9,2.5,2.6,3.8
	c0.3,0.5,0.5,1.2,0.8,1.7c-0.8,0-1.8,0.2-2.3-0.2C475.8,506,473.7,504.3,474.7,501.8z M492.8,506.4c-0.4-0.1-0.7-0.1-1.1-0.3
	c1.4,3.1,0.9,4.2-3.1,3.6c-2.5-0.3-4.9-0.9-7.2-1.9c0.1-0.3,0.2-0.6,0.4-0.8c2.1-1.6-3.2-4.1-3.6-5.9c3.1,1.5,5.5,4.4,8.6,5.8
	c3.8-2.5-6.5-5.4-7.4-7.6c4,0.9,7.6,4.6,12.3,3c0.7-0.2,1.4,0.1,1.8,0.6c-0.2,0.1-0.4,0.4-0.7,0.5c-0.5,0.1-1,0.2-1.5,0.2
	c1,1,2.1,1.4,3.1,2.3C493.9,506.3,493.4,506.4,492.8,506.4L492.8,506.4z M486.5,493.5c1.6,2,3.1,4.1,4.4,6.3c0.2,0.3,0.3,0.7,0.4,1
	C485.9,500.6,476,497.4,486.5,493.5L486.5,493.5z M495.6,501.1l-2.1-0.2c-0.5-0.8-0.8-1.6-1-2.5c0.7,0.4,1.5,0.9,2.1,1.5
	C494.9,500.2,495.3,500.7,495.6,501.1L495.6,501.1z M497.5,492c-0.4,0.3-0.9,0.5-1.4,0.7c-0.6,0-1.2-0.1-1.7-0.2
	c0.3,0.5,0.6,0.9,0.9,1.4c0.1,0.2,0.2,0.4,0.3,0.6l-1.7-0.2c-0.5-0.3-1.1-0.5-1.7-0.7c-0.3,1,1.7,3.4,0.3,3.2
	c-2.5-0.6-1.3-3.2-1.5-5C491.4,488.1,495.6,491.2,497.5,492L497.5,492z M491.9,482c0.4,0.6,0.7,1.2,0.7,1.9c0.4,0.5,0.5,1.1,0.3,1.6
	c-0.4,1.3-1.2,2.5-2.2,3.4c0,0.1-0.1,0.1-0.1,0.2h-0.1l-0.3,0.3c-0.8,0.8-1.9,1.3-3,1.4c-1.4,0.6-2.7,1.3-3.9,2.1
	c-1.4,1.1-2.1,2.7-3.7,3.4c-1.8,2.4-5.1-0.3-7.6,2.9c-1.9,1.3-3-1.2-5.6,1.3c-2.8,2.5-7.4,0.8-9,4.5c-2.7,2.6-7.6,1.9-9.8,5.4
	c-5.5,2-12,1.9-16.6,5.6c-1.6,1.5-3.2,0.5-4.7,0.8c-0.4,0-1,0-1,0.3c-1.8,3.7-6.1,1.3-8.8,4.1c-1.3,0.9-2.8,1.5-4.4,1.6
	c-3,0.1-5.4,5.1-8.5,3c-3.3-2.8-5.5,3.4-8.4,0.2c-1.4-1.7-3.6-1.4-5.4,0.3c-1.7,2.5-3.1-0.4-5.4,1c-3.2,2.2-4.8-2.9-7.9-1.2
	c-1.1,0.5-2.3,0.8-3.6,0.8c-6.1-3.2,0.8-3.9-9.9-3.1c-0.7,0-1.4-0.4-1.9-1c-2.1-3.3-7.7,0.2-10.4-2.3c0.2-2.8-1.9-1.9-3.2-2.1
	c-1.6-0.6-7.4-0.5-3.9-2.6c2.3-2.2,5.1-3.9,5.9-7.3c0.2-0.8,4.8-1.9,5.2-1.2c0.5,3.2,4.2,4.3,7.2,4s6.8,2.1,9.9-0.2
	c1-0.8,1.6-0.1,2.5,0.4c5.6,4.2,7.7,1.3,13.8,2.6c3.5-1.8,6.1,0.3,9-0.7c1.7,1.6,5.9,1.2,7-0.6c1-1.4,2-1.2,3.5-0.9
	c3.5,1.1,6.1-1.5,9.2-1.7c3.4-0.4,8.5,0.4,10.3-3c1.2,0.6,3.5,0.9,4.1,0.4c3-1.8,6.6-1.1,9.9-2c7.2,2.2,9-6,11.2-3.6
	c0.1,0,0.3-0.1,0.4-0.1c0.8,1.7,4.1-2,5.2-2.6c2.5-2,5.8-1.7,8.3-3.5c-0.2-0.1-0.2-0.2-0.1-0.4c0,0,0,0,0,0
	c5.5-3.5,11.6-5.5,15.7-10.6c1.8-1.1,4.7-4.9,4.5-7.2c0.1-0.1,0.4-0.1,0.5-0.1C488.3,477.6,490.8,480.1,491.9,482L491.9,482z
	 M489.5,474.7c-1.5-0.4-2.8-0.4-3.9,0.7c-2.3,1.2-4.9,2-7.3,3c-0.2,0.1-0.5,0.1-0.6,0.3c-1.2,2.6-4.5,2.4-6.3,4.5
	c-1,1.1-3.2,1.2-4.8,1.9c-1.9,0.8-3.8,3.1-5.8,3.2c-2.3-0.7-3.5,1.6-5.4,1.7c-2.2-0.1-4.4,1.5-6.3,2.2c-2.3-0.8-3.6,1.2-5.3,2
	c-0.1,0.1-0.2,0.1-0.3,0.2c-3.2,1.2-5.6,2.8-9.6,1.6c-3.8,0.2-8.7,4.2-11.8,2.6c-1.1,0-2.2,0.2-3.3,0.4c-0.3-0.2-0.7-0.4-0.9-0.2
	c-2,1.2-4.5-1.4-6.3-0.3c-0.8,1.5-1.6,0.5-2.1,0.2c-2.2-1.4-4.3,0.6-6.8-0.1c-2.9-2.1-4.2,3-7.2,0.8c-1-0.8-2.5-0.7-3.4,0.2
	c-1.6,1.1-4.4-0.5-6.1-1c-2.4,3.2-4.9-2.2-7.5-0.5c-1.6,0.5-3.3,0.2-4.6-0.8c-1.2-0.6-2.6-0.6-3.9-0.1c-1.6,0.4-3.6-0.2-5.2,0.1
	c-2.8,0.8-4.6,0.4-6.3-2.1s-5,0.4-6.9-2.6c-0.9-1.3-2.7-1.6-4-0.7c-0.1,0-0.1,0.1-0.2,0.1c-1.4,1-6.7-0.4-7.5-1.9
	c1-3.1,5-4.6,6.8-7.5c1.2,3,6.5,2.9,9.6,1.9c0.2-0.1,0.5-0.1,0.7-0.1c3.3,2.1,7.4-0.5,10.6,1.8c4.1,3.1,6-0.3,8.7,1
	c1,1.3,2,1.8,3.7,1.2c2.2-1.1,4.5,1.5,6.6,1c1.1-1.2,2.1-0.4,3.2-0.2c2.3,0.6,5.1-0.1,7.4,0.3c1.4,0.6,3.1,0.4,4.3-0.5
	c3.6-2,6.5,3.5,11.6,0.1c0.7-0.4,1.6-0.4,2.4,0c2.5,1.3,4.5,0.5,6.8-0.6c5.1-1.1,10.3-1.7,15-4.1c3.2-1,6.8,0.5,9.4-2.1
	c0.7-0.5,1.5-0.9,2.3-1c1.8,0.1,3.6-0.7,4.8-2.1c2.3-0.9,5.4-1.5,7.6-3c1.5-0.5,2.8-0.9,3.7-2.4c2.9-1.9,7-3,9.2-6
	c2.8-3.8,8.3-2.2,10.8-6.3c0.2-0.3,0.9-0.5,1.5-0.7c2.5-1.7,2,5.4,7.2,8.9C497.2,472.1,491.8,475.9,489.5,474.7L489.5,474.7z
	 M498.6,461.9c-0.5,0.9-1.2,9.4-2.5,7c-1.8-2.1-3.4-4.2-4.9-6.5c-1.9-2.3,0.3-2.1,2-3.3c6-3.4-5.2-9.5-3-14.4
	C492.3,447.2,499.6,459.2,498.6,461.9L498.6,461.9z M490.4,440.8c-1.5-3-2-6.6-4.9-8.6c2.8-0.8,6.2-2,3.1-5.3
	c-2.1-2.2-3.8-4.8-5.7-7.1c-2.3-2.8,3.6-4.9-0.2-7.7c-8.3-6-11.5-16-17-24.3c-4-9.4-8-17.9-10.9-27.5c-0.8-2.1,0-3.8,0.8-5.6
	c2-4.1,2.6-9,5.5-12.5c9.9,34.8,21.9,69.4,36.9,102.5c2.3,4.8,4.1,10,8.2,13.6c2.8,2.4,1.3,5.2,0.8,8.1
	C500.3,458.8,495.3,449.5,490.4,440.8L490.4,440.8z M503.8,477.7c-1.7,1-4-2.3-4.2-3.5c0-4.1,0.3-8.1,0.9-12.1
	c1.9,1.1,2.5,3.4,4.1,5c1.4,1.5,1.3,3.2,0.8,5c3-0.2,6.9-19.9,2.2-18.9c0.1,0.3,0.3,0.6,0.4,0.9c0.4,1.1,0.8,2.1,1.2,3.2
	c-3.2,0.8-6.4-6.1-0.5-6.5c4.5,0.4,2.8,11.3,1.9,14.4C510,470.2,506.7,473.9,503.8,477.7L503.8,477.7z M541.1,469.8
	c0.8,0.5,5.8,2.9,3.4,3.5c-1.8,0.6-3.7,1-5.7,1.3C539.2,472.3,537.8,468.1,541.1,469.8L541.1,469.8z M531.2,465.1
	c-1.3,2-3.5,1.1-5.2,2.4c2.8,2.7,8.8-0.3,10.7,2.9c0.3,1,0.2,3,0.6,4.4c-6,0.8-12.1,0.2-17.9-1.6c-7.6-2.6-10-0.8-6.7-9.9
	c0.9-2.9,4.1,2.1,12.8-3.5c3.2-3.1,6.1-5.6,8.7-9c2.5-1.1,5.7,0,8.3-0.1c9.7,0,3.3,2.5,7,9.6C541.1,458.6,537.3,457.7,531.2,465.1
	L531.2,465.1z M552.1,460.5c-2.8-0.3-2-5.4-2.1-7.3c-0.1-1.5,0.6-1.5,1.6-1c1.9,0.9,2.1,2.9,2.7,4.6
	C555.2,458.8,554.3,460.6,552.1,460.5L552.1,460.5z M416.8,628.1c0.3,0.3,0.4,0.8,0.8,0.9c1.2,0.6,2.3,1.2,3.6,1.9
	c2.8,0.6,6-0.5,6-3.8c-0.5,0.1-1,0.3-1.4,0.6C423.2,631,419.8,627.2,416.8,628.1z M407,132.7c0.3-4.3,10,0.2,12.8-1.5
	c-3.6-1.8-11-3.3-14.3,0.1c-0.6,3-2.1,6.3-0.4,9.2C406.4,138.2,406.6,135.3,407,132.7z M374.4,127.2c2.4-8.9,10.3-15.1,19.5-15.4
	c2.9-0.3,6.1,0.6,8.8-0.6c-0.6-0.3-1.2-0.5-1.8-0.7c-6.9-2.2-15.9,0-21,5c-2.9,3.7-6.9,7.4-7.4,12.3c-0.2,11.8,12.9,18.7,8,32
	c-4.2,11.3-13,21.2-11.4,33.8c-10.9-13.9,8.1-27.5-0.4-34.9c-2.3-2.8-6.6-6-5-10c3.6-9.9,0.4-15.3-6.4-22.2
	c-1.7-2.3-3.4-4.6-3.7-7.6c0-0.3-0.4-0.6-0.7-0.9c-0.6,9.2,14.2,14.9,9.8,27.8c-0.8,2.7-1.6,5.5,0.1,8.2
	c12.6,14.7,3.5,11.2,1.5,27.8c-1.9,15.1,15.8,17.4,13.5,39.5c4.7-7.9-1.9-17.1-5.5-24.4c-3.9-6.6-0.9-13.5,2.1-19.7
	c3.5-9.2,11-17.9,8.2-28.2C381.1,141.1,373.1,135.6,374.4,127.2z"/>
<path class="st5" d="M466.3,418.5c1.8,2.2,3.9,3.9,6.9,4c6.2,0.6,3.9-10.8,2.2-14.1C473.7,411.8,466,415.3,466.3,418.5z
	 M449.7,412.7c-21,12.8-46.5,5-65.2-8.3c-2.7-1.7-5.2-3.7-7.6-5.7c-1.1-1-1.5-0.3-1.9,0.3c-1.5,2.1-3,4.4-4.4,6.7
	c-1.9,2.9-1.9,2.9,0.8,5c26.6,21.1,79.9,24.7,103.5-3c-2.1-3.1-4.1-6.3-6.1-9.4C464.9,404.5,455.5,409,449.7,412.7z M458.1,431.7
	c4.7,2.8,8.1-3.4,6.9-7.6c-0.6-3.9-1.5-4.5-4.9-2.8c-6.3,3.2-12.9,5.9-20,7c-0.8,0.1-1.3,0-1,1.3c1.4,5.2,5.2,7.9,10.8,6.8
	c3-1.1,4.6-4.3,3.5-7.3c-0.1-0.2-0.2-0.5-0.3-0.7c-0.1-0.3-0.2-0.5-0.3-0.8C455.3,428,456.3,430.5,458.1,431.7z M414.6,429.5
	c-2.4-0.6-16.8-4.9-17.2-2.5c-0.1,3.2-0.2,8,4,8.3c5.4,0.2,8,0.6,9.5-5c0.3,0.8,0.9,1.5,0.8,2.3c-0.5,5,5.7,7,9.3,4.1
	c2.8-1.5,2-4.6,4-6.5c1.5,3,1.6,8.3,5.9,8.9c5.2-1.4,6.9-3.6,6.4-9.1c0.1-0.7-0.5-1.4-1.2-1.4c-0.2,0-0.3,0-0.5,0
	C428.7,430.1,422,429.3,414.6,429.5z M395.1,426c2.2-1.4-8.1-3.4-9.6-4.3c-6-2.4-11.4-5.9-16.1-10.3c-0.6-0.5-2.1-1.2-2.4-0.9
	c-5.6,2.8-0.5,8.9,4,7.8c1.4-0.3,2.4-1.9,3.9-1.9c0.1,0.8-0.2,1.5-0.7,2.1c-1.6,1.7-1,3.6-0.6,5.5c0.8,2.8,3,3.1,5.4,3.1
	c3.3,0,2.6-3.9,5-5.5C380.8,431.7,390.2,433.5,395.1,426z"/>
<path class="st6" d="M508.7,450.8c-5.9,0.4-2.7,7.3,0.5,6.5c-0.4-1.1-0.8-2.1-1.2-3.2c-0.1-0.3-0.3-0.6-0.4-0.9
	c4.7-1,0.8,18.7-2.2,18.9c0.6-1.8,0.6-3.4-0.8-5c-1.5-1.5-2.2-3.9-4.1-5c-0.6,4-0.9,8.1-0.9,12.1c0.2,1.2,2.5,4.5,4.2,3.5
	c3-3.9,6.2-7.5,6.8-12.5C511.4,462.1,513.2,451.2,508.7,450.8z M362.7,394.7c-2.2-0.4-4.5,0.3-6.8,0.2c-7.5-2.1,10.3-14.6,13.8-14.8
	c6.5-1.3,9-4.7,11.7,3.1c1.5,1.4,2.4-1.6,3.1-2.6c0.6-1.2,0.8-2.3-0.8-3.4c-8.1-4.3-29.3,5.3-31.4,14.3c-0.5,2.9-0.5,5.2,2.8,5.4
	C357.8,396.8,361.5,397.5,362.7,394.7z"/>
<path class="st7" d="M542.5,450.9c-2.7,0.1-5.8-1-8.3,0.1c-2.5,3.4-5.5,5.9-8.7,9c-8.7,5.6-11.9,0.5-12.8,3.5
	c-3.3,9.1-1,7.2,6.7,9.9c5.8,1.8,11.9,2.4,17.9,1.6c-0.3-1.4-0.2-3.5-0.6-4.4c-1.9-3.2-7.9-0.2-10.7-2.9c1.7-1.3,3.9-0.4,5.2-2.4
	c6.1-7.4,9.9-6.5,18.3-4.7C545.8,453.3,552.2,450.9,542.5,450.9z M541.2,447.7c0.1-0.3,0.2-0.5,0.2-0.8c0-0.9-0.1-1.7-0.2-2.6
	c-1.8,1.5-3.4,3-5.1,4.5C538.1,449.3,539.8,449.7,541.2,447.7z M506.2,458.3c-4.1-3.6-5.9-8.8-8.2-13.6c-15-33.1-27-67.7-36.9-102.5
	c-2.9,3.5-3.5,8.5-5.5,12.5c-0.8,1.8-1.5,3.4-0.8,5.6c2.9,9.6,6.9,18,10.9,27.5c5.5,8.3,8.8,18.3,17,24.3c3.8,2.8-2.1,4.9,0.2,7.7
	c1.9,2.3,3.6,4.9,5.7,7.1c3.1,3.3-0.3,4.5-3.1,5.3c2.9,2,3.4,5.6,4.9,8.6c4.9,8.8,9.9,18,16.5,25.6
	C507.5,463.5,509,460.7,506.2,458.3z M401.2,151.2l-0.1,0.1c-0.8-5.6-3.5-14.6-2.9-20.6c-0.4,0.1-0.9,0.2-1.4,0.1
	c1.5-2,1.5-6.6,4.5-6.2c5.3,0.8,10.3-0.7,15.5,0.8c2.2,1.2,4.3,2.3,6.3,3.4c0.1,0.1,2.5,2.1,3.8,3.2c1.5,0,2.5,0.6,2.5,1.6
	c0,0.4-0.1,0.7-0.3,1c-1,2.1-1.2,4.2-1.8,6.3c-2.3,7.3-11,11-18.1,10.7c-2.1-0.1-2.3,1.4-2.1,2.4c2.2,8.9-9.9,26.5,8.1,27.6
	c4.3-4.7,9.1-9,12.8-14c1.8-2.7,2.5-6.3,4.8-8.5c1.2,3.8-2.8,9.2-7.4,14.3c1.9,13.2,2.4,43.2,3.5,58.1c3.4,6.6,6.4,24.2,10,30
	c0.5,1.4,2.7,4.6,4.3,7.4c-0.2-0.6-0.3-1.2-0.3-1.8c-1.1-5.7-2.5-11.3-2.5-17.2c0-0.8-1-1.6-1.5-2.3c-3.5-3.4-2.5-8.8-3.9-13.2
	c-2.4-13.9,0.1-28,0.4-41.9c-0.3-19.8,0.6-40.3-4.8-59.4l-0.8-2.8c6.4,7.1,12.5,14.9,20.7,20.2c2.1,1,5.2,3.4,7.5,2.7
	c-5.6-4.3-11.7-8.2-15.6-14.2c0.8-0.1,1.5-0.3,2.1,0.2c5.5,3.5,11.7,4.3,18,5c11.1,0.4,26.3-5.3,36,2.9c4.5-1.1-7.1-7.7-8.8-7.5
	c-20-3-45.1-0.3-59.4-17.3c2.4-0.7,3.6,3.4,4.1,1.2c-1.4-4.1,3.1-11.8,0.4-14.3c-3.2-2-6.4-3.9-9.4-6c-3.6-2.8-3.1,6.4-15.6,6.7
	c0.9,1.5,2.2,2.2,3.6,3.6c2.5,3.1-14.6,7.1-17,6.7c-1-0.1-2.8,0.4-2.9,1c-0.7,2.8-1.5,5.8-1.2,8.6c0.3,4,2.1,7.7,3.9,11.4
	c5.7,12.3-2.2,27.6-11.9,35.6c-4.3,2.6-3,7.6-2.9,12.2C398.7,170.9,400.1,158.1,401.2,151.2z M469.9,512c0.5-2.4-2.5-3.9-3.2-6.1
	c-0.8-2.1-2.1-2.3-3.9-1.5c-1,0.4-2.7-0.8-2.9,0.9c-0.1,0.6,1.4,1.4,2.4,2.2l6.7,4C469.3,511.7,469.6,511.8,469.9,512z M457.2,509.5
	c-1.8-2.7-4.3,0.4-6.4,0.9c-4.5,1.5,11.4,10,13.2,11.7c-2.9,0.8-5.9-1.9-8.3-0.5c1.5,1.2,3.8,1.3,4.2,3.5c-1.9,0.3-3.9-1.9-5.5-2.2
	c-0.8,0.7-1.2,2.8-1.9,3.5c-3.9,0.6-6.5-6.2-8.5-9c-1.1-2-1.7-3.7-4.4-2.6c-2.3,0.8-4.5,1.4-6.7,2.3c-0.8,0.3-1.5,0.9-2.3,1.3
	c1.6,0.7,3.5,1.9,4.6,2.3c4.9,2.5,12.5,3.7,14,9.6c-2.8-2.3-6.6-3-10-1.8c0.6,2.1,3.2,1.7,3.8,3.7c-2-0.2-4.1,0.3-5.9,1.4
	c-5,3.2-10.3-9.6-14.1-12.1c-4.2-0.6-8.3,2-7.9,6.5c-0.3,2.2,0.1,4,2.3,4.8c3,1.6,6.8,2.1,9,4.7c-0.5,0.2-1.1,0.3-1.7,0.4
	c-0.8,0.1-1.5,1.1-2.3,1.7c0.3,0.1,0.6,0.4,0.8,0.6c-3.2,2-4.1-1.2-2,4.1c-1.5-0.3-2.7-1-4.1-1.3c0,0.5,0,0.9,0.1,1.4
	c0.1,0.4,0.3,0.8,0.5,1.1c-1.9,0.1-4-1.2-3.8,1.5c-2.4,24.7-0.3,49.7-1.6,74.4c-0.6,5.6-1.8,11.1-3.6,16.5c-0.1,0.3,0.2,0.8,0.3,0.8
	c8.8,1.2,18.1-0.3,26.2,3.9c3.1,2.3,0.3-11,0.7-12.5c-0.8-6.3-0.2-13.2-1.9-19.2c-1-1.1-0.8-2.1-0.1-3.2c2.3-8.8,7.9-16,12-23.9
	c9.4-18.7,15.6-39,21.3-59.1C469.8,518.9,460.9,518.2,457.2,509.5z M421.1,630.9c-1.2-0.7-2.4-1.2-3.6-1.9c-0.3-0.1-0.5-0.6-0.8-0.9
	c3-0.9,6.5,2.9,9-0.4c0.4-0.3,0.9-0.5,1.4-0.6C427.1,630.4,423.9,631.5,421.1,630.9L421.1,630.9z M459.8,338.3
	c-3,1.2-6.1,2.5-9.2,3.5c-10,24.8,7.4,41.3,8.6,62.7c3-1,5.9-5.7,9-7.2c-7.8-12.7-14.3-26.4-16-41.1
	C454.2,350.2,457.9,344.5,459.8,338.3z M456.1,291.5c0.1,0.3,0.7,0.4,1,0.5c1.5-7.2,3.3-14.4,2.8-21.8c-1.2-6.5,2.1-18.7-7.2-19.8
	c-2,0.6-7.5-2.2-6.8,1.4c1,5.8,1.9,11.1,3.3,16.9C451.7,276.2,453.7,283.9,456.1,291.5z M432.7,790.4c-1.6,7.4-3.2,14.8-5.2,22.1
	c-1.6,4.5,16.2-4.5,26,8.8c1-1.9-0.2-3.9-0.2-5.9c0-9.8-1.5-19.6-2.6-29.3c-0.3-4.4-2.3-5.9-5.4-6.7
	C431.6,777.4,434.3,777.9,432.7,790.4z M404.1,259.2c1.9-7.2,6.3-17.3,8.1-24.2c2.5-9,2.1-40,3.4-51.1c-0.5,0.6-1,1.2-1.3,1.7
	c-5.2,4.1-3.3,9.4-3.4,15c-0.3,6.1-0.7,12.3-1.2,18.3c-0.8,8.1-2.4,16.1-4.7,23.9c-0.4,3.7-5,7.3-3.7,10.7
	C402.2,255.4,403.2,257.3,404.1,259.2z M399.1,850c2.2-20.3,2.8-18.5,22.5-16.7c-3.5-7-5.6-14.2-8.8-21.6
	c-1.8-3.5-1.4-11.7-5.9-12.1c-4.2-0.1-12.1-1.5-10.8,5c0.6,11.6,1.3,23.2,1.9,34.8C398.5,842.9,397.3,846.8,399.1,850z M413.2,530.4
	c0-1,0.1-2.1,0.1-3.7c0-2.1-0.4-2.2-2.2-1.4C408.5,526.8,412.3,528.9,413.2,530.4z M381.9,400.3c5.5,4,11.4,7.5,17.4,10.5
	c-1.1-2.7-1-7-1.6-9.4c0.2-12.5,5.6-23.7,9-35.5c2.1-7.7,6.8-18.2,6.5-26.5c-2.9-1-5.8-1.7-8.8-2.1c1.6,8.8,0.9,17.7-4.3,25.1
	c-6.8,11.1-14.3,21.6-22,32C376.1,397.2,380.4,398.8,381.9,400.3z M399.2,616.6c-0.3,6.1,0.6,12.4,0.5,18.5c-0.1,2.7,5.6,5.9,7,2.7
	c9-30,1.9-62.2,5.6-93c0.3-4.5-4.2-8.7-5.2-13.2c-0.4-3.3-7.4-6.9-7-1.9c1,5.3,3.8,9.9,6.3,14.5c0.7,1.2-0.7,1.5-1.6,1.2
	c1,1.9,2.7,3.2-0.4,3.3c-0.8,0.4-2.1,1-3,0.6c-2.3-1.5-1.9,0.5-3.8,0.1c-0.8-0.1-1.6-0.5-2.1-0.3c-2.1,1.1-1.4-3.2-3.9-1.7
	c-0.3,0.1-0.7,0-1.1,0c2.5-5.5,4.5-11,5-17.1c0.5-2.3-2.7-3.3-4.1-2.5c-1.9,2.6-5.3,0.2-6.3,2.4c1.9,6.6,5.8,18.7,0.5,24.2
	c-0.5-0.8-1.4-1.5-1.3-2.3c0-0.5-0.1-0.9-0.2-1.4c-1,1.6-4.5,2.7-5.3,1.2c-0.7-2-2.2-1-3.9-1.1c2.3-6.1,5.1-12.1,6.8-18.5
	c0.2-0.8,0.2-2.1-0.2-2.4c-1.6-1-3-2.8-5.3-1.5c-1.5,0.6-3.7-0.1-3.6,2.4c-0.8,5.2-1.7,10.5-0.6,15.8c5.2,16,18.1,28.6,23.6,44.5
	c0.5,3.3-0.5,6.9,0.1,10.1c0.8,3.5,2.2,6.8,3.3,10.3c1.7,6,4,4.5,8.1,7.2C404.3,620.4,401.3,618.3,399.2,616.6z M374,375.4
	c1.4-0.4,1.5-0.9,0.6-1.9c-6.8-7.7-13.2-15.2-20-23c-7-7.6-12.8-16.2-18.7-24.7c-2.2-3.1-2-4.3,1.2-6.2c5.6-3.4,11.1-6.9,16.8-10.1
	c8.7-4.9,17.9-8.9,27.4-12c0.3,0,0.7,0.1,1,0.2c0-0.7-0.1-1.4-0.2-2.1c-0.6-3.5,0.5-6.5,2.1-9.3c0.1-0.2,2.5-2.3,3.1-2.7
	c2.9-2.5,5.8-4.9,8.6-7.6c1.2-1.3,2.3-2.8,3.2-4.3l2.3-1.7c-1.7-4.4-3.4-8.8-5-13.2c-0.3-4.3-15.6,9.8-18,10.8
	c-20.1,14.1-38.2,30.7-58.5,44.7c-3,2.7-12.1,6.2-9.8,11.1c14.7,21.6,36.5,36.2,56,53C368.6,378,371.4,375.7,374,375.4z M356.1,416
	c3-2.1,6.4-3.4,8.3-7.2s5-7,7.7-10.7c2.3-4.6,7-8.4,8.4-13.2c-1.5-3.5-3-6.5-7.2-4.5c-4.4,1,2.4,4.3-1.9,6.9c-4,3.6-7.4,7.7-9.3,13
	c-1.6,3.6-1.7,8.1-4.1,11.2c-1-1.4,0.1-3.6-2.2-3.5c-6.4-1.9-9.2-2.1-8.3,5.7C348.5,415.6,354,417.4,356.1,416z M364.5,525.4
	c-1.6,0.5,1,5.2,1,6.8c1.2,1.9,2.4-3.5,3.1-4.3C370.1,525,366.5,526,364.5,525.4z"/>
<path class="st8" d="M551.5,452.2c-1-0.5-1.7-0.6-1.6,1c0.1,1.9-0.6,7,2.1,7.3c2.2,0.1,3.1-1.6,2.1-3.6
	C553.6,455.1,553.5,453.1,551.5,452.2z M553.9,444.9c-0.8-0.1-1.5-0.2-2.5-0.3c-2.5,0.2-5.6-0.9-7.7,0.1c-0.2,1.2-0.3,2.4-0.1,3.6
	C548.8,450,551.5,451,553.9,444.9z M544.4,473.3c2.5-0.6-2.6-3-3.4-3.5c-3.2-1.7-1.9,2.5-2.3,4.8
	C540.7,474.3,542.6,473.9,544.4,473.3z M440.2,815.5c-4.7-1.7-5.6,12-6.3,15.3c0.6,2.3-1.7,8.9,2.3,7.7c6.1-0.9,11-3.5,14.5-8.6
	c1.4-2.1,2.8-4.5,2.1-7.2C449.4,819.1,445,816.6,440.2,815.5z M431,838c0.5,0.4,1,0.4,1-0.5c0-7.4,0.6-15.1,3.7-21.8
	c-3.3,0-6.8-1-9.6,1.6C422.1,824.8,424.1,833.1,431,838z M426.5,848.5c5.1-2-1.7-7-2.5-10.1c-1.8-4.3-3.4-3.8-7.6-3.8
	c0.6,1,1.1,2.1,1.4,3.2C423.4,848.5,415.4,852.6,426.5,848.5z M411,834.1c-9.2-1.4-9.5,6.8-9.8,13.8c-0.6,3.7,10.4,2.1,13.4,2.9
	c2.8,0,4.1,0.6,3.7-2.4C417.9,844.3,416.8,832.7,411,834.1z M341.4,407.7H341c1.4,1.7,2.5,3.7,4.1,5.2
	C346.1,410.1,344.9,408,341.4,407.7z"/>
<path class="st9" d="M491,491.8c0.2,1.8-1,4.4,1.5,5c1.4,0.3-0.6-2.2-0.3-3.2c0.6,0.2,1.1,0.4,1.7,0.7l1.7,0.2
	c-0.1-0.2-0.1-0.4-0.3-0.6c-0.3-0.5-0.5-0.9-0.9-1.4c0.6,0.1,1.1,0.2,1.7,0.2c0.5-0.2,0.9-0.4,1.4-0.7
	C495.6,491.2,491.4,488.1,491,491.8z M492.5,498.4c0.2,0.9,0.5,1.8,1,2.5l2.1,0.2c-0.3-0.5-0.6-0.9-1-1.3
	C493.9,499.3,493.2,498.8,492.5,498.4z M486.8,461c-0.5,0.2-1.2,0.3-1.5,0.7c-2.4,4.1-8,2.5-10.8,6.3c-2.3,3-6.3,4.1-9.2,6
	c-0.9,1.5-2.3,1.9-3.7,2.4c-2.2,1.6-5.3,2.1-7.6,3c-1.2,1.4-3,2.1-4.8,2.1c-0.8,0.1-1.6,0.5-2.3,1c-2.5,2.6-6.2,1-9.4,2.1
	c-4.7,2.4-9.9,3-15,4.1c-2.2,1-4.3,1.9-6.8,0.6c-0.7-0.4-1.6-0.4-2.4,0c-5.1,3.4-8-2.1-11.6-0.1c-1.3,0.9-2.9,1.1-4.3,0.5
	c-2.3-0.3-5.1,0.3-7.4-0.3c-1.1-0.2-2.1-1-3.2,0.2c-2.1,0.5-4.4-2.1-6.6-1c-1.7,0.5-2.7,0.1-3.7-1.2c-2.7-1.2-4.6,2.1-8.7-1
	c-3.2-2.3-7.3,0.4-10.6-1.8c-0.2,0-0.5,0-0.7,0.1c-3,1-8.3,1.2-9.6-1.9c-1.8,2.9-5.8,4.4-6.8,7.5c0.8,1.5,6.1,2.8,7.5,1.9
	c1.2-1,3-0.8,4,0.4c0,0.1,0.1,0.1,0.1,0.2c1.9,3,5.3,0.1,6.9,2.6s3.4,2.9,6.3,2.1c1.6-0.4,3.6,0.3,5.2-0.1c1.2-0.5,2.7-0.5,3.9,0.1
	c1.3,1,3,1.3,4.6,0.8c2.6-1.6,5.1,3.7,7.5,0.5c1.7,0.5,4.5,2.1,6.1,1c0.9-0.9,2.4-1,3.4-0.2c3,2.1,4.3-2.9,7.2-0.8
	c2.5,0.6,4.5-1.4,6.8,0.1c0.5,0.3,1.3,1.3,2.1-0.2c1.8-1.2,4.3,1.5,6.3,0.3c0.2-0.1,0.6,0,0.9,0.2c1.1-0.3,2.2-0.4,3.3-0.4
	c3.1,1.6,8-2.4,11.8-2.6c4.1,1.2,6.5-0.4,9.6-1.6c0.1-0.1,0.2-0.1,0.3-0.2c1.7-0.8,3-2.8,5.3-2c1.9-0.7,4.1-2.3,6.3-2.2
	c1.9-0.1,3-2.4,5.4-1.7c2-0.1,3.9-2.3,5.8-3.2c1.6-0.8,3.8-0.8,4.8-1.9c1.9-2.1,5.1-1.9,6.3-4.5c0.1-0.2,0.4-0.3,0.6-0.3
	c2.4-1,5-1.8,7.3-3c1.2-1.1,2.4-1,3.9-0.7c2.3,1.1,7.7-2.6,4.5-4.8C488.8,466.5,489.2,459.4,486.8,461z M492.8,503.6
	c0.3-0.1,0.5-0.4,0.7-0.5c-0.4-0.5-1.1-0.8-1.8-0.6c-4.8,1.6-8.3-2.1-12.3-3c0.9,2.3,11.2,5.2,7.4,7.6c-3.2-1.4-5.5-4.3-8.6-5.8
	c0.4,1.8,5.6,4.3,3.6,5.9c-0.2,0.2-0.4,0.5-0.4,0.8c2.3,0.9,4.8,1.5,7.2,1.9c4,0.5,4.5-0.5,3.1-3.6c0.4,0.1,0.7,0.2,1.1,0.3
	c0.5,0,1.1-0.2,1.6-0.3c-1-0.9-2.1-1.2-3.1-2.3C491.8,503.8,492.3,503.7,492.8,503.6z M487.1,477.4c-0.1,0.1-0.3,0.1-0.5,0.1
	c0.1,2.4-2.8,6.1-4.5,7.2c-4.1,5.1-10.3,7.2-15.7,10.6c-0.1,0.1,0,0.3,0.1,0.4c0,0,0,0,0,0c-2.5,1.9-5.9,1.5-8.3,3.5
	c-1.2,0.6-4.4,4.3-5.2,2.6c-0.1,0-0.3,0-0.4,0.1c-2.1-2.4-4,5.8-11.2,3.6c-3.2,0.9-6.8,0.2-9.9,2c-0.7,0.5-2.9,0.2-4.1-0.4
	c-1.9,3.3-7,2.5-10.3,3c-3.2,0.1-5.8,2.8-9.2,1.7c-1.5-0.3-2.5-0.5-3.5,0.9c-1.1,1.8-5.4,2.2-7,0.6c-2.8,1-5.4-1.1-9,0.7
	c-6.1-1.3-8.2,1.6-13.8-2.6c-0.9-0.5-1.5-1.2-2.5-0.4c-3,2.3-6.7-0.1-9.9,0.2s-6.8-0.8-7.2-4c-0.5-0.6-5,0.4-5.2,1.2
	c-0.8,3.4-3.6,5.1-5.9,7.3c-3.6,2.1,2.2,2,3.9,2.6c1.4,0.3,3.5-0.6,3.2,2.1c2.7,2.5,8.3-1,10.4,2.3c0.4,0.6,1.1,1,1.9,1
	c10.7-0.8,3.9-0.1,9.9,3.1c1.2,0,2.5-0.3,3.6-0.8c3.2-1.7,4.7,3.4,7.9,1.2c2.3-1.4,3.6,1.5,5.4-1c1.8-1.7,4-2,5.4-0.3
	c2.9,3.2,5.1-3,8.4-0.2c3.1,2.1,5.4-2.8,8.5-3c1.6-0.1,3.1-0.7,4.4-1.6c2.7-2.8,7-0.4,8.8-4.1c0.1-0.3,0.7-0.3,1-0.3
	c1.5-0.2,3,0.7,4.7-0.8c4.6-3.7,11.1-3.6,16.6-5.6c2.1-3.6,7.1-2.8,9.8-5.4c1.5-3.7,6.2-2,9-4.5c2.5-2.5,3.6,0,5.6-1.3
	c2.5-3.2,5.8-0.5,7.6-2.9c1.7-0.8,2.3-2.3,3.7-3.4c1.2-0.8,2.6-1.5,3.9-2.1c1.1-0.1,2.2-0.6,3-1.4l0.3-0.3h0.1
	c0-0.1,0.1-0.1,0.1-0.2c1-0.9,1.8-2.1,2.2-3.4c0.2-0.6,0-1.2-0.3-1.6c0-0.7-0.3-1.4-0.7-1.9C490.8,480.1,488.3,477.6,487.1,477.4z
	 M347.5,481.4c2,1.2,4.4,1.8,6.8,1.7c0.3,0.1,0.7,0.1,1,0.1l1.2-0.2c0.6,0,1.1,0,1.6,0.1c0.3,0,0.5,0,0.8,0v0
	c2.8,0.2,6.8-0.8,9.3,0.3c1.2,2.6,4,2.4,6,1.4c1.3-0.7,2.5-1.4,3.5,0.6c1.2,2.8,4.8-0.8,7,1.6c0.9,0.8,2.1,1,2.2-0.9
	c0-0.1,0.3-0.4,0.3-0.4c2.1,1.7,5.2,2.5,7.6,1.5c2.5-1.5,3.7,2,6.1,0c4-3.1,7.8,4,12.3-0.2c2.5-1.9,4.9,3.1,8.4-0.2
	c1.2-1.1,3-1.5,4.5-1c2.4-0.1,5-1.3,7.3-1.7c5.6-4,10.7,0.1,12.6-4c0.4-1,1.6-1.4,2.5-1c2.8,1.5,3.6-2,6.2-2.1c1-0.3,2.4,0,3-0.6
	c1.2-1.4,3-1.8,4.6-2.5c0.3-0.1,0.6-0.2,0.8-0.5c1-1.6,2.5-2,4.1-2.8c4-1.3,6.1-5.6,10-7c1.9-1,4.1-0.8,5.8-2.5
	c2.2-2.2,5.1-3.5,8.1-3.7c3.4-0.3-0.2-3.8-1-5.3c-2.3-3.6-3.6-0.3-5.7,1c-2.6-0.7-4.8,1.2-5.9,2.5c-2.6,3-5.8,3.6-9.4,4
	c-5.6,3.8-4.1,1.1-9.2,2.8c-5.4,1.1-5.9,4.7-8.9,4.6c-2.8-0.5-4.5,1.2-6.5,2.4c-1.8,1.2-4.4,1.1-6.1,2c-1.6,1.6-3.2-0.1-4.8,0.9
	c-4.5,3.4-6.4-1.7-10,0.5c-2.3,2.1-5.4-1-7.6,1.6c-1.6,0.1-3.2-0.3-4.6,0.8c-1.6,0.6-4.2-0.5-6-0.1c-2.1,0.7-3.7-0.8-5.8-0.4
	c-2.6,0.4-5.3,0.6-7.9,0.5c-4.1,2-7-1-10.8-1.6c-0.9-0.1-2,0.3-2.7-0.1c-2.2-1.3-5.1,0.3-7-1.9c-0.2-0.1-0.4-0.1-0.5,0
	c-3.6,1.9-7-1.4-10.7-1.4c-3.9-1.2-8.3-0.5-11.9-2.2c-0.8-0.6-1.3-0.3-1.6,0.5c0.2,3.1-10.2,10.3-6.3,10.4c2.5,0.5,5.2,0.4,7.5,1.7
	C347.8,481,347.7,481.2,347.5,481.4z M367.4,470c0.6,0.1,1.3,0,1.8-0.3c3.2-1.2,7.2,2.3,10.8,1.6c4.1-0.6,6.6,3.5,10.8,2
	c2.8-0.8,5.4,0.5,8-0.9c0.8-0.5,2.1,0.1,3.2,0.1c2.5,1,4.5-1,6.5,0.5c0.4,0.4,1.7-0.1,2.5-0.3c1.7-0.8,3.8-1,5.5-1.6
	c1-0.7,1.8-1,2.7-0.3c3.2,2.5,5.5-3.8,8.5-0.3c2.9,2.5,5.6-2.7,8.8-0.6c1.5-1.4,3.1-2.4,5.2-1.4c2.6-0.8,4.7-4.2,7.6-4
	c3.4,1.2,3.8-2.7,6.4-3.6c3.5-1.5,8-0.5,10.8-3c0.6-0.6,1.5-0.9,2.4-0.8c2.5,0.5,4.5-1.4,6.8-1.6c1.7-2.7,4.7-3.8,7.4-5
	c0.3,0.2,0.7,0.4,1,0.6c0.3-1.8,1.8-2.4,3.2-2.8c1.9-4.1-0.2-9.9-2-13.9c-3.9,4.9-9.2,6.5-9.2,6.7c0.6,4.5-4.1,1.6-4.7,5
	c-0.2,0.8-0.8,1.5-1.6,1.9c-1.8,1-3.9,1.2-5.8,2.3c-2.7,1.8-6.5,1.5-9.1,3.6c-0.5,0.4-1,1.1-1.5,1c-3.6-0.3-5.7,2.6-9.4,2.4
	c-1,1.4-2.5,1.4-4,1.4c-2.4,0.2-4.8,0.5-7.2,0.9c-8.1-0.5-7.8,1.2-14.6,3.4c-1.9,0.5-4.1,1.2-6,0.8c-4.3-1-8.9,0.1-13.2-0.8
	c-5.9,0.5-13.1-1.4-18.8-1.7c-3-0.5-5.9,1-8.5-0.8c-4.8-3.2-11.9-1-14.8-4.6c-2.3-2.1-5.9-0.5-8.5-2.5c-5.2-0.6-7,7.3-12.4,7.3
	c-0.3,0.2-0.5,0.4-0.8,0.7c1.5,1.9,4.7,0.9,6.9,1.6c3,0.2,6.5,3.9,9.1,3.6C357,466,362,468.2,367.4,470z M349.2,451.5
	c4.5,2.8,4.5-0.5,11.5,4.3c1.4,0.3,3-0.4,4.1,0.1c2.5,1.4,5.8,0.6,8,3c2.9,1.3,6.5-0.5,9.6,0.8c5,0.7,10.4,0.8,15.5,1.6
	c0.6,0,1.5-0.5,1.9-0.3c2.9,1.7,4.9-0.8,8.5,0.5c3.7-1.2,3.2,1.8,7.8-0.5c2.2,0.2,4.4-0.4,6.1-1.8c3-2.5,6.3-1.4,9.6-1.5
	c2.7,0.3,4.4-1.7,7.1-1.2c1.2,0.3,3.4,1.3,4.1-1.2c1.5-1.2,3.9,0.3,5.6-1.7c1.2-0.8,3.7-0.4,4.5-1.4c0.9-1.5,2.1-1.4,3.4-1.3
	s2.4,0,2.6-1.7c0.1-0.2,0.4-0.5,0.5-0.5c2.4,0.1,4.3-1.8,6.4-1.9c1.8,0.1,3.4-1.1,3.8-2.9c0.1-1,0.9-1.7,1.9-1.6
	c0.1,0,0.2,0,0.3,0.1c2.5,0.3,1.3-2.1,2-3.4c0.4,0,0.8-0.1,1.2-0.1c0.9-0.3,1.6-0.8,2.5-1c0.6-0.1,1-0.6,1.2-1.1
	c0.4-0.2,0.7-0.4,1-0.7c2.3-2.1,3.6-5.2,6.8-6.5c0.3-0.1,0.5-1,0.4-1c-3-2.1-4.8-5-6.6-8.2c0.1,2.8-0.9,4.5-3,6.1
	c-0.6,1.4-5.9,5.8-8.3,5.6c-0.1,3.4-4.3,1.7-5.2,4.3c-0.7,1.4-8,5.4-9.7,5c-2.2,0.2-4.4,3.4-6.5,3.6c-3.4,0-6.1,2.6-9.6,1.8
	c-2.2,0.4-4.6,1.1-6.9,1.5c-2.8,0.6-2.3,2.6-6.2,2c-4.5,0.5-9.3,2.4-13.2-0.8c-0.4,4.5-18.5-1.8-22.4-0.8
	c-4.8-0.6-13.3,1.8-16.4-2.6c-2.1,0.4-7.2-1.9-9.4-2c-4.5-0.5-9.2-0.4-11.2-3.9c-1.4,0.3-3.2-0.9-3.6,0.9
	c-2.3,7.8-11.1,9.6-8.3,10.8C344.8,454.2,346.5,450.1,349.2,451.5z M468,501.8c0.1,0.5,0,1.4,0.1,1.4c2.7,0.7,2.8,3.7,4.8,5
	c1.4,1,2.4,2.8,3.6,4.3c0,0.3,0,0.7-0.2,1c-0.7-0.3-1.3-0.7-1.9-1.1c-1.1-0.9-2.1-1.9-3-3h-0.4c0.2,0.1,0.3,0.2,0.4,0.4
	c-0.3,1.5,0.9,2,1.7,2.9c0.3,0.4,0.5,0.9,0.6,1.3c-0.9,0.5-2,0.2-2.6-0.6c-3.7-2.2-3.4,2.3-5,1.2c-1.5-0.5-2.9-1.7-4.5-2.1
	c2.8,2.6,5.6,5.4,8.5,8c0-0.5,0-0.9-0.1-1.4c0-0.4-0.1-0.8-0.2-1.2c1,0.6,2.2,0.8,3.4,0.5c-2.5-6.2,4.3-0.7,7.1-2.5
	c-0.4-0.6-0.9-1-1.5-1.5c-0.6-0.3-1.3-0.4-1.7-0.6c1.2-0.3,3.4-2.6,4.4-1.5c-0.3,0.1-0.6,0.2-1,0.3c-0.5,0.3-0.9,0.6-1.3,1
	c1.4,1.2,4.3,1.3,6.1,1.3c-0.1-0.4-0.3-0.8-0.5-1.1l-2-1.8c1-0.1,1.9-0.1,3-0.1c0.6-0.1,1.2-0.5,1.9-0.7c-3.7-1.4-8.4-0.6-11.9-2.3
	C473.4,506.8,472,500.7,468,501.8z M356.8,506.5c2.3,4,5,1.9,8.5,2.3c3,1.9,5.5,0.6,8.3-1.2c1.9-1,1.6,2,2.7,2.6
	c2.1,1.3,4.3,2.5,6.7,0.7c0.3-0.1,0.7-0.3,0.9-0.2c2.4,0.9,5.1,1.1,7.6,0.5c1.7,0,3.5,0.2,5.2,0.5v-0.1c8.5,2.1,5.6-3.8,10.5-2.1
	c3.7,2.3,5.5-2.3,9.1-1.8c3.6,0.8,8.5-0.6,11.7-1.9c0,0.1-0.1,0.2-0.1,0.3c2.1-1.1,5.4-2.1,7.2-1.9c2.9,1.4,5-1.6,7.7-1.1l-0.8,0.2
	c-0.1,0.1-0.2,0.1-0.3,0.2c4.7,1.7,7.2-4,11.5-3.9c0.2,0,0.3,0.1,0.5,0.1c-0.1-0.1-0.2-0.1-0.4-0.2c0.6-0.6,1.7-0.3,2.5-0.5
	c0.2-0.1,0.1-1.2,0.5-1.4c0.1,0.1,0.2,0.1,0.3,0.1s-0.1-0.1-0.1-0.1c0.7-0.4,1.4-0.8,2.2-1c0.2,0.1,0.5,0.1,0.8,0.1
	c-0.2-0.1-0.5-0.1-0.6-0.2c1.7-0.8,4.1-1.2,5.6-2c1-2.1,3-2.9,4.8-3.5c2.1-0.7,3.4-3.1,6.1-2.8c3.2-1.3,6.5-7.1,9.7-10
	c-6.5,2.1-11.4,7.6-17.9,9.4c-1.6,0.7-3.4,3-5.2,3.1c-2.8-0.1-4.7,2.3-7.5,1.9c-1.5-0.1-8.8,3.9-10.6,3c-0.9,0.5-1.7,1.2-2.5,1.9
	c-2.3,2-4.4,2.4-7.2,1.2c-3.6-0.1-12.3,5-15.4,2.3c-1.2,0.8-3.4,1-4.3,0.4c-2.4-1.5-5,0.1-7.3-0.8c-1.4,1.2-2.8,1-4.3,0.5
	c-2.3-0.5-3.7,1.4-6.1,1c-3-0.5-5.6,1.2-8.5,0c-2.2-1-4.4,0.7-6.3-1c-1-0.5-1.9-1.1-3.2-0.7c-3.4,1.1-6.5-2.1-9.9-0.7
	c-5.2-1.3-5.9,3-11.2-2.1c-2.6-1.8-5.6-0.2-7.6-3.5c-0.6-0.8-0.6-0.8-1.2,0c-2.1,2.7-4.5,5-6.5,7.8c1.2,0.6,3.7,0.5,4.6,1.2
	C349.1,507.9,354.3,502.2,356.8,506.5z M481.9,414.3c-0.3-0.8-2.4-2.1-3.2-2.7c0.1,0.9,0.4,1.7,0.7,2.5
	C479.5,417.8,480.6,416.8,481.9,414.3z M351.7,437.6c0.6,0.1,1.1,0.2,1.3,0.5c1.1,0,2.3,0,3.4,0.1c0.1,0.1,0.2,0.1,0.4,0.2
	c0.3,0.2,0.6,0.5,0.8,0.8c1.4,1.9,3.5,1.6,5.4,2.1c3,0.9,6,1.6,9,2.5c0.6,0.2,1.5,0.2,1.8,0.7c3.4,1.1,7.1,1.5,10.7,1.2
	c4.7,1.6,9-1.6,13.6,1.4c1.2,0.9,3.5,0.5,5.2,0.7c2.7,0,5.7,1,8.2,0.4c1.2-1.2,1.2-1.2,3.2-0.1c1.2,0.6,2.1,1.1,3.4,0.1
	c3.5-1.1,8.2,1.4,11-1.7c2.3-0.8,5.2-0.6,7.6-2c1.5-0.5,3.4,0.1,4.9-0.5c2.7-1.5,6.5-0.9,8.8-3c0.9-1.8,2.4-2.1,4.1-1.9
	c1.3,0.2,2.7-0.4,3.4-1.5c2-1.7,4.5-0.9,6-3.9c0.1-0.1,0.3-0.3,0.4-0.4c2.8-0.5,3.6-1.4,3.9-4.5c0.1-0.6,0.2-1.2,0.4-1.7
	c0.9,0.5,1.5,1.5,1.4,2.5c3-2.3,8.3-5.1,9.2-8.4c-6.8,8-12.7-0.9-11.8,3.7c0.8,5.5-4.7,12.3-10.3,8.4c-0.3-0.2-1.2-0.1-1.3,0.1
	c-3,7.5-12.4,7.1-16.5,1c-1.2,5.9-10.5,9.7-13.4,3.4c-0.2-0.7-0.7-1.6-1.5-1.3c-4.3,4.4-12,5.1-17.8,4.3c-4.9,1.2-10.1,0-14.5-1.9
	c-2.8-2.6-6.8,1-9.4-2.4c-2.5-1.2-5.6-1.1-8.2-2.1c-1.5-0.5-2.8-1.9-4.3-2.2c-2.8-0.3-4.5-2.8-7.2-3.3c-3.2,0.2-4.3-6.4-7.1-2
	C352.5,434,338.9,436.8,351.7,437.6z M461.7,509.5c-0.1,0-0.1,0.1-0.2,0.2c1.8,1.3,4.3,2,5.6,4c0-1.9-3.2-2.3-4.5-3.6
	C462.3,509.8,462,509.6,461.7,509.5z M411.9,292.5c1.5,3-2.5,5.1-3.7,7.6c-17,21.9-8.5,7-4.6,32.3c0.1,2.1,2,2.7,3.8,2.9
	c15.2,5.6,32.7,10,47.9,2.4c2-1,4.9-1,5.4-4.1c2.1-7.5,1.2-15.2,0.6-22.9c-1.2-8.3-5.8-15.9-9.5-23.3c-4.8,2.7-14.7,13.3-10.6,18.8
	c1.2,2.5,4.3,6.4,2.9,9c-3.5-2.8-4.3-8.8-8-11.6c-4.8-4.1-10.5-6.9-16.3-9.6c-0.1,0.2-0.3,0.2-0.5,0.2c-6.5-13.9-13.2-28-20.7-41.4
	c-1.2,1.9-0.1,3.2,0.7,5C403.5,269.5,407.9,280.9,411.9,292.5z M450.5,519.8c-0.5,1.2-2.1,1.9-0.5,2.8c1.6,2.1,1.9-0.9,3.4-1.7h0.4
	c-0.1-0.1-0.2-0.1-0.4-0.4c0.2-0.1,0.4-0.4,0.7-0.5c0.5-0.3,1-0.5,1.6-0.6c-1.4-1.4-2.9-2.6-4.6-3.5c0.2,0.3,0.3,0.6,0.5,0.9
	c0.6,0.9,0.3,2.2-0.6,2.8C450.7,519.6,450.6,519.7,450.5,519.8z M449.8,285c0.2,0.3,0.4,0.6,0.7,0.8c1.1-0.6,0.9-1.4,0.5-2.4
	c-3.3-11-5.1-22.9-8.2-33.7c-0.8,10.5,3.4,21.1,6,31.5C449.1,282.5,449.4,283.7,449.8,285z M447.1,836.4c-4.7,4.1-12.6,6.4-18,2.4
	c-1-0.4-3.2-4.3-3.8-2.6c1.4,2.1,2,5.4,4.5,6.3c9.2,2.1,19.9-1,22.5-11.1C450.2,832.6,448.9,834.8,447.1,836.4z M444.4,513.5
	c0.8,0.6,2.5,1,2.9,1.9c0.4,1.2,1.1,2.2,2.1,2.9c-0.4-1.6-1-3.1-1.8-4.5C446.9,513.2,445.2,512.6,444.4,513.5z M422.4,705.2
	c-2.5,8.1,9.8,24.4,12.5,32.5c1,12.4,1,24.8,0,37.1c-1.2,4,6.3-1.1,14,3.7c-1-10.3-3.5-19.9-4.6-30.4c-3.9-26.5-7.6-53.1-8.8-79.8
	C429.8,679.8,426.5,692.9,422.4,705.2z M411.1,640.8c-1.3-0.1-3-0.8-3.4,1.9c-4.5,18.7-6.9,37.3-8.8,56.4c-0.8,22.6,0.5,45.2,0,67.8
	c-0.6,9.9-0.1,19.9-1.9,29.7c-0.2,1.1,0.3,1.7,1.2,1.2c3.2-2.1,9.2,0.9,10.3-1.3c-5.7-27,0.9-54.5,8.1-80.6
	c6-21.7,13.1-43.4,23.6-63.5c1.9-3.4,2-3.8-0.5-5.4c-4.2-2.6-9-4.3-13.9-4.9C420.9,641.7,416,641.2,411.1,640.8z M427.6,519.1h-0.1
	c-3.6,0.5-0.7,3.5,0.5,5.2c2.1,2.4,4.1,4.9,6.5,7.1c0.3,0.4,1.8-0.1,2.7-0.3c0.1,0,0.1-0.8,0.1-1.2c-0.5-3.7,2-3.9,5-4
	c-3.2-1.9-6.9-2.9-10.3-4.3c0.1,0.1,0.2,0.2,0.3,0.3c7.6,4.9,0.4,3.1-2.8,0.4h-0.4c0.1,0.1,0.2,0.1,0.4,0.4c1.5,1.9,4.8,2.8,5,5.4
	c-2.4,0.8-4.3-3.1-6.5-4.3C428,523.1,428.3,520.4,427.6,519.1z M427.9,850.1c-4.6,2.1-9.6,3.1-14.6,3c-4.9,0.1-10-0.2-14.2-2.3
	c-0.1,10.7,13.3,11.2,21.4,9.3c5.6-2.5,9-2,8.3-9.6C429,849.5,428.3,849.9,427.9,850.1z M409,528.2c-0.2-0.2-0.7-0.2-1-0.3
	c1.2,5.6,4,10.3,7.2,15h0.3c-0.2-0.1-0.3-0.2-0.3-0.4c0.1-0.3,0.1-0.6,0.4-0.8c1-0.8,3.3,0.1,2.8-2.5c0.7,0.1,1.5-0.1,2.3-0.1
	c-0.3-0.7-0.5-1.5-0.8-1.7c0.2-0.3,0.3-0.5,0.5-0.6c0.3-0.1,0.7-0.2,1-0.2c-2.5-1.5-5.4-2.5-7.6-4.4c-1.2-1-2.1-1.9-3.6-2.2
	C409.8,529.4,409.4,528.8,409,528.2z M364.7,427.2c1.2,0.4,2.1,2,3.3,2.1c4.8,1.5,9.1,4.1,14.3,4.5c2.2,1.2,3.9,3.4,6.8,1.8
	c2.4-1.2,3.2,2.8,6.8,2.2c4,1,8.1,1.2,12.1,0.6c1.7,0.3,3.1,1.2,4.8,0.4c-1.3-0.4-1.7-2.2-3-2.4c-6.1,0.8-13.5,2.8-14.6-5.6
	c-0.1-0.9,0-1-0.9-0.4c-4.9,3.4-8.1,3.1-12.3-0.8c-0.5-0.3-1-0.4-1.6-0.3c-11.3,1.5-7.5-8.5-10.7-8.8c-3.2,0.1-5.2-1.9-6.5-4.3
	c-0.9-1.6-1.5-1-2.4-0.4c-3.6,1.9-7,4.3-10.8,5.8c3,2.4,7.6,1,10.8,2.6C361.2,426.5,363,426.6,364.7,427.2z M404.1,647.3
	c0.5-3.2,3.2-6.7-2-6.6c-2.8-1.2-2.9-1.2-2.5,1.9c1,4.5,0.6,9.7,2.8,13.7C404.1,653.8,403.3,650.4,404.1,647.3z M395,545.7
	c1.4,0.2,3,1,4.5,0.4c-1-0.4-1-0.5,0.1-0.5c0.5,0,1.1,0,1.6,0.1c0.1,0,0.2-0.1,0.5-0.1c0,0,0.2,0,0.2,0.1c0.1,0.1,0.2,0.1,0.3,0.1
	c-0.1-0.1-0.2-0.1-0.3-0.4c-0.2-0.1-0.3-0.2-0.4-0.4c0.1-0.3,0.2-0.5,0.3-0.9l0.8,0.6c-0.4-5.2-3.2-10.1-4.9-15
	c-1,1.5-0.1,3.7-0.7,5.4C396.9,538.1,393.4,543.4,395,545.7z M382,538.3c-1,2.3-1.4,4.9-2.3,7.3c0,0.3-0.2,0.6-0.4,0.8
	c-1,2.5,0.7,2.4,2.5,2.6c-0.1-0.1-0.2-0.2-0.4-0.3c-0.1-0.1-0.1-0.3-0.2-0.4c4.6,0.1,2.4-0.7,4.3,2.3c0.8-4.9,0.4-9.9-1.2-14.7
	c-1.2,1.9,0.3,4.6,0.1,6.8c0.7,2.4-1.2,2.4-2.9,2.5c-1.1-0.1,0.1-1-0.2-1.7C380.8,541.9,382.9,542,382,538.3z M368.2,546.6
	c-2.1-8.3-2.1-2.2-4.1-6.8c0-0.1,0.1-0.2,0.3-0.4c0.4,0.3,0.7,0.6,1,1h0.3c-0.1-0.1-0.3-0.2-0.3-0.4c0.8-1.9,1.6-3.9,2.3-5.8
	c0.1-0.3,0.2-0.7,0.1-1c-2.1,1.5-2.3,4.8-4.1,6.6c-1.4,1.9-2.6,4-3.5,6.2c-0.1,0.2-0.6,0.1-1,0.1c0.7,2.3,3.9,2.9,5.9,3.7
	c1.2,0.2,2.5-0.7,3.7-0.7c2.7,0.1-0.1-2.4-0.1-3.8C368.6,545.7,368.4,546.2,368.2,546.6z M369.6,535.2c-1-0.2-0.7,3.1-0.8,4.1
	C369,537.9,369.9,536.4,369.6,535.2z M356,535.5c-0.1,0.2-0.2,0.3-0.4,0.4c1,1.9,0.7,2.3,0.4,4.3c0.1-0.3,0.2-0.6,0.4-0.8
	c0.5-2.8,2.4-5.4,2.4-8.1C358.1,532.8,357.1,534.2,356,535.5z M352,537.1c0.1,0,0.4-0.1,0.5-0.1c0.3,0,0.7-0.1,1-0.2
	c-1.5-0.6-2.5,0.9-4.1,1.4c-3.4,1.1-7.2,0.3-10.5,1.7c2,1.5,4.6,0.3,6.5,2.6c1,1,2,1.9,2,3.5c0.1,0.7,1.4,1.3,2.1,1.3
	c2.8,2,5.6-0.1,5-3.2c-0.3,0.1-0.7,0.2-1,0.1c1-0.8,0.8-2.1,1.2-3.2C356.6,538.4,353.6,538.4,352,537.1z M342.8,537.6
	c0.8-1.3,2.6-3.7,3.1-4.5c0.2-0.1,0.3-0.2,0.8-0.3c-0.1-0.2-0.2-0.4-0.2-0.6c0.5-0.4,0.9-0.8,1.3-1.3c0.3-0.7,0.6-1.3,0.8-2
	c-1.9,1.4-3.8,3-5.5,4.7c-0.3-0.1-0.7-0.1-1-0.1c-0.3,0-0.7-0.1-1-0.3v-0.3c-0.1,0.1-0.2,0.2-0.3,0.3c-0.2-0.2-0.3-0.5-0.5-0.7
	c-0.2,0.2-0.5,0.3-0.7,0.4c-0.1-1,0.5-1.9,1.5-2.1c1.9-0.5,10.3-6.2,8.5-8.5c-0.3,0.5-0.7,1-1.1,1.5c-4.5,4.3-10.4,4.8-16.2,5.4
	c0.8,0.9,1.7,1.6,3,1.2c1.9-0.1,0.1,1.8-0.5,2.3c0.5,0.3,1,0.6,1.6,0.8c4.5,0.4,0.1,4.8,2.8,4.6
	C340.5,537.9,341.6,537.7,342.8,537.6z M339.1,524.4c-0.8,0.6-1.9,0.8-2.4,1.7c2.7,1.4,8.3-3.7,12.1-4.5c-2.5-1.5-5.8-1.9-8.5-2.2
	c-1.9,0.7-4,1.2-6.1,1.4C335.6,522,336.8,525,339.1,524.4z"/>
</svg>
