<?xml version="1.0" encoding="utf-8"?>
<!-- Generator: Adobe Illustrator 25.2.3, SVG Export Plug-In . SVG Version: 6.00 Build 0)  -->
<svg version="1.1" id="Слой_1" xmlns="http://www.w3.org/2000/svg" xmlns:xlink="http://www.w3.org/1999/xlink" x="0px" y="0px"
	 viewBox="0 0 864 864" style="enable-background:new 0 0 864 864;" xml:space="preserve">
<style type="text/css">
	.st0{fill:#767E93;}
	.st1{fill:#6188EA;}
	.st2{fill:#9299AA;}
	.st3{fill:#FBAAA0;}
	.st4{fill:#8464C6;}
	.st5{fill:#FFFFFF;}
	.st6{fill:#FFB750;}
	.st7{fill:#8FB4E5;}
	.st8{fill:#FA6255;}
	.st9{fill:#9C9EA3;}
	.st10{fill:#8EDCDE;}
	.st11{fill:#4A80BC;}
	.st12{fill:#E1D9CE;}
	.st13{fill:#1C2D47;}
	.st14{fill:#B2A593;}
</style>
<path class="st0" d="M627.1,537.5c-2,0.5-2.4,1.7-2,3.3c0.6,6.1,7.1,14.7,2.2,19.9c-6.4,4.1-22.3,15.8-27.7,6
	c-2.1-4.5-4-9.2-6.1-13.6c-1.9-3.7-6.2-2.8-9.6-2c-7.1,0.5-6.8,5.3-9.5,9.3c0.2,0.6,0.4,1.3,0.6,1.9c2.2,6.7,7.6,12.7,7.4,19.9
	c0.5,2.2,1.3,5.9-1.5,6.2c-3.1,0.1-8.3,2-8.9-2.6c-1-5.7-2.6-11.2-4-16.8c-1.2-6.1-1.4-6.4-7.2-7.4h-0.5
	c1.9,12.8,33.6,101.1,44.6,100.9c11.1-3.2,47-18.5,48.9-30c-0.3-27.8-7.5-55-16.3-81.2c-1.6-4.2-3.8-8.3-5.7-12.5
	C630.8,536.8,630.3,536.8,627.1,537.5z M608.6,652.2c-2.2-2.3-1.6-6-2.5-8.9c-2.2-12.8-4.1-25.3-7.7-37.8
	c-5.6-17.4-9.4-36-19.5-51.3c7.7-1,20.8,46.8,23.4,55c2.6,10.8,4.4,21.9,6.5,32.8C608.9,645.3,610.8,649.3,608.6,652.2z"/>
<path class="st1" d="M600.3,563c1.6,3.4,3.6,6.3,7.7,4.7c6.5-2.1,12.7-5.2,18.2-9.1c1.3-1.5,0.8-4.6-0.1-7.9
	C621.1,554,596.8,558.9,600.3,563z"/>
<path class="st2" d="M623,536.7c2-2.1,7.4-2.2,5.8-3.8c-5.7-5.1-9.8-15.2-18.6-13.9C612.4,522.1,619.9,531.6,623,536.7z
	 M615.1,528.4c-5.9,4.6-18.1,8-25,11.3c-1.5,0.4,0,5.2,0.6,8c2.2,0.4,4.1,1.8,5.5,5.2c1,2.2,1.6,6.4,5.1,4.8
	c5.2-1.8,18.7-8.6,24.6-8c-1.2-3.8-2.9-7.9-3.2-10.3c-0.3-0.5-0.4-1.1-0.3-1.6C620.2,536.1,617.6,532.2,615.1,528.4z M609.4,521.3
	c-3.2-3.3-7-0.8-10.7,0.1c-6.8,2.2-13.8,4.2-20.5,6.4c-3.7,1.5,6.4,8,7.6,9.9c3.4,2.3,23.4-10.9,29.3-9.2
	C612.9,525.1,610.8,522.2,609.4,521.3z M588.8,547.7c-4.4-4.7-9.8-13.4-13.7-16.9c-3.1-1.8-6.9,1.4-9.9,2l-0.5,0.2
	c0.1,0.1,0.3,0.2,0.5,0.3c0.3,13.8,5.8,6.1,9.8,14.8C577.7,552,583.5,547.8,588.8,547.7z M574.5,551c-0.3-0.4-0.6-0.8-0.8-1.2
	c-0.2,3.6-1.5,8.2-0.5,9.6c0,0.1,0.1,0.1,0.1,0.1C573.8,556.7,576.2,553.3,574.5,551z M562.5,551c0.6,2.3,1.2,4.4,4.1,3.3
	c1.2-0.3,3.8-0.9,4.4,0c0.5-2.3,1-4.8,1.3-6.7c-0.1-0.1-0.2-0.3-0.3-0.5c-0.7-0.7-4.2-3.5-3.7-1C569.9,551.2,565.7,549.4,562.5,551z
	 M565.4,560c-0.2-0.7-0.1-1.6-0.5-1.8c-5.2-2.5-2.5-7.1-5-10.9c-2.1,0.7,0,4.3-0.6,6.1C559.5,556.8,561.7,560.4,565.4,560z
	 M474,522.5c0.1,0.1,0.3,0.2,0.4,0.5c0.8,0.4,1.5,0.9,2.2,1.4c0.4,0.3,0.8,0.7,1.1,1.1c2.4-4.3-0.1-3.5-3.3-2.9
	C474.3,522.5,474.1,522.5,474,522.5z M478.9,529.2c-0.6-0.5-1.4-1.5-1.9-1.4c-5,0.9-1.8-6.1-6.5-5
	C467,526.4,475.5,531.8,478.9,529.2z M451.3,531.2c0.3-1,0.8-1.9,1.4-2.7c0.9,1.5,0.2,3.3,0.8,5c2.3-1.3,1.6-6.5,2.1-9.5
	c-1.1,0.1-2.1,0.6-2.9,1.4c-1.5,2.8-4,2.2-6.4,2.1c-3.3-0.8,0.3-3.2-4.2-4.9c-1.7,2.7-1.9,7-1.2,9.8c1.3,2.3,5.5,5.5,7.8,2.5
	c-2.4-1.3-6.9-2.6-5.4-6.2C445.5,530.2,448.9,534.6,451.3,531.2z"/>
<path class="st3" d="M596.8,198c-2.8,1.8-2.8,5.3-3.6,8.2s-2.7,5-1.7,8.7c1.4,5,0.7,10.6,1.3,15.9c-0.1,3.2,1.8,7.1-0.3,9.8
	c-4.1-5.3-1.6-19.1-2.6-26.2c0-4.1-6.1,4.6-5,6.1c0.5,7.4-1.3,14.7-1.8,22c0.2,7-2.6,13.4-4.2,20.1c-1.7,7-1.8,14.2-2.2,21.4
	c-1.3,11.1-2.8,21.5-3.1,32.8c-1.9,15-2.4,30.1-1.6,45.2c4,10.8,9,21.4,13.2,32.1c2.6,8.1,8.1,13.5,15.2,17.5
	c13.2,6.6,26.3-4.4,29.8-17c11.3-30.5,11.2-61.2,2.6-92.3C624.7,266.4,610.9,232,596.8,198z M569.7,284.2c-1-10.5-2-21-2.7-31.7
	c-0.3-6.9-0.8-13.8-0.9-20.8c-0.1-0.2-0.7-0.6-0.9-0.6c-5.8,2.7-10.1,8-15.7,10.8c-3.9,2-7,4.9-10.2,7.8c0.3,4.2-0.1,10.5,1.3,11.7
	c2,1.4,1.4,2.9,0.2,4.5c-0.6,0.7-1,1.5-1.2,2.4c-0.2,7.2-0.4,14.3-0.5,21.4c0.8,4.1,5.5,6.6,6.1,10.9l0.4,0.7
	c0.2-0.1,0.3-0.1,0.5-0.3c5.3,9.5,12.1,18,15.4,28.5c3.2,10.1,7.4,29.6,6.9,4C569,316.9,573.3,300.7,569.7,284.2z M549.5,254.3
	c0,4.2,0,8.1-0.1,12.1c-0.1,0.7-0.4,1.3-0.7,1.9c-2.2-3.5-0.6-8.1-1-12.1c0.1-3.5-1-8.9,2.3-11.1
	C550.7,247.9,549.5,251.1,549.5,254.3L549.5,254.3z M449.1,191.4c-3.3,3.1-6.5,3.3-10.4,2.3c-2.9-0.3-8.8-2.5-11.1-0.8
	c1.4,4,10.9,5.3,14.7,6.5c10.1,1.7,16.9-8.6,22.7-15.9c-4.6,2.9-12,4.4-15.6,7.6C449.3,191.3,449.2,191.3,449.1,191.4z"/>
<path class="st4" d="M497.1,170c1.9-0.7,2-1.4,0.6-4.2c-1.5-3.5-3.4-12.4,2.8-11.4c2.1-0.1,5.5,1.8,7-0.1c-0.1-2.7-2.3-3.1-4.3-4
	c-3-2.1-2.9-2-0.2-3.7c9.2-7.5,25,2.1,20.6,13.7c-0.8,3.1,3.4,0.2,5.2-0.3c-3.3-31.8-46.1-18.3-36.9,8.3
	C492.9,170.7,494.4,171.2,497.1,170z M427.8,165.5c1.8,0.6,2.9,0.3,3.4-1c-1.8-1.2-4.7-3.8-5.7-3.6c-4.6,0.8-8.4,2.5-10.7,7.3
	c-3.1,6.9-0.9,14.9,2,21.4c0.1,0,0.2-0.1,0.3-0.1c1.2,0.5,3.5-0.9,5.7-2.1c-0.7-0.2-1.4-0.4-2.1-0.7c-2.9-1.5-8-12.4-2.3-12.5
	c2.1,0.6,4,1.2,6.1,0.3c-0.2-2.2-1.4-3.5-3.1-4.6C417.9,166.3,425.1,164.3,427.8,165.5z"/>
<path class="st5" d="M489,172.8c1.4-0.6,2.3-1.2,1.4-3.2c-4-7.6-1.8-17,3.6-23.3c10.2-13.6,33.9-11.2,36.6,7.2
	c0.1,0.4,0.1,0.9,0.1,1.3c0,1.6-0.5,4-1.4,5c3.8-1.2,7.7-2.3,10.4-6.1c2.1-3.3,3.2-7.2,3.2-11.1c-1.3-9-14.1-16.5-22.3-18.7
	c-16.8-4.9-39.4,4.5-41.9,23c-0.8,8.7-0.3,17.3,4.2,25.1c0.3,0.4,1.4,2.3,2.2,4C486.1,174.8,486.9,173.2,489,172.8z M425,158.9
	c1.4-0.1,1.6-0.3,0.9-1.6c-8.5-16-32.6-6.7-29.5,10.6c0.7,6.3,1,13.2,5.6,17.9c3.3,3.6,9.1,5.6,13.8,4.1c-1.6-1.3-2.6-3.8-3.1-5.5
	C408,174.7,412.6,159.3,425,158.9z"/>
<path class="st6" d="M529.9,509.5c-7.8,4.4-16,7.9-25,9.2c-3.6,1.2-1.4,5-0.7,7.5c25.1-5.8,47.7-19.3,64.7-38.6
	c5.4-6.5,10.2-13.3,15.2-20c1-3.9-4.9-9.4-7.6-12.8c-0.3,2.1-0.8,4.7-1.2,5.1C565.7,480.9,550.2,498.4,529.9,509.5z M479.4,440.4
	c1.1,1,2.9,1.2,4.3,2c3.5,2.2-0.1-7.2,0-8.6c-2.7-10-3.8-20.1-4.8-30.4c-0.9-12.8-2.5-26.1,2.7-38.1c9.2-27.7,28.5-49.3,52.1-65.7
	c1.9-1.4,4-2.5,6.2-3.3c-2.1-2.4-4.3-4-6.6-2.3c-7.1,5.3-14.4,10.5-21,16.4c-21.6,19.4-38.1,48.3-41.2,77.5c2.5-0.2,4.7,0.3,4.7,3.9
	c-0.6,3.9,1.6,9-1.9,11.8c-0.5,0.5-0.7,1.2-0.6,1.8c0.8,4.6,1.8,9,2.5,13.5C477.3,425.8,475.5,434.3,479.4,440.4z M502.2,550
	c-0.3-20.5-2.6-40.9-6.9-61c-8.1,4.9-3.9,9.7-3,17.1c0.3,9.2,6.5,40.6,2,45.9l0.1,1C497.7,552.8,502.2,553.2,502.2,550z
	 M449.6,394.6c-0.2,5.7,1.2,7.1,7,7c3-0.7,17.9,1.4,16.8-2.9c0.1-12,0.9-7.5-11.3-8.3h-10.2C448.9,390.4,448.4,391.2,449.6,394.6z
	 M442.9,449.3c3,1.4,4.7-16.7,5.8-19.3c1.6-8.3,3.9-16.5,5.3-24.8c-4.5-4.5-4.2,1-4.4,4.8c-2.2,8.3-3.6,16.8-5.5,25.2
	C444.1,438.9,439.7,446.9,442.9,449.3z M447.9,383.6c0.5,4.4,4,4.1,7.4,4.2c-4.6-6.3-7.5-27.9-8.7-34.5c-1.9-12.6-1.9-25.3-3.1-38
	c0.4-5.5,1.7-10.8,1.8-16.4c0.6-2.1,1.2-4.2,1.7-6.2c0.1-0.4,0.2-0.9,0.3-1.3c-0.1,0-0.1,0.1-0.2,0.1c-3.7,0.5-4.1,3.5-5,6
	c-2.9,10.4-2.3,21.1-2.1,31.9C441.4,347.6,443,365.9,447.9,383.6z M424.4,36.9c-2.1,0.5-2.5,1.3-2.7,3.1c0.1,8.5-7.2,3.3-8.5,7.1
	c-1.4,11.6-4,33.2,6.6,40.8c9.7,7.4,21.6-11.5,21.9-20.1c2-10.7,2.4-21.6,2.7-32.5c-5.8,4-8.5,3.2-7.8,1.5
	C434.9,35.1,431.1,33.1,424.4,36.9z M439.9,46.9c1.5,5-0.3,10.3-0.2,15.7c-0.2,0.5-0.3,0.8-0.5,1.2c-0.4,0.9-0.8,1.6-1.1,2.4
	c-0.4-0.8-0.6-1.7-0.7-2.6C438.4,58.1,437.9,52.2,439.9,46.9L439.9,46.9z M437.1,71.1c1,2.3-1.1,4.5-1.8,6.9c-1.8,2.1-3.5,4-5.1,6
	c-0.2,0.3-0.7,0.4-1.1,0.6c0.3-2.9,3.2-5,4.4-7.5C434.9,75.3,435.3,72.8,437.1,71.1L437.1,71.1z M428.4,555.9c0.5-0.1,0.9-0.4,1-0.9
	c0.9-16.4,2.7-32.9,7.7-48.7c1.2-2.4-2.4-4.8-6.6-6.7c0.3,4.5-2.7,11.3-3.1,15.5c-1.8,10.1-2.8,19.5-3.8,29.9
	C423,549.2,422,556.2,428.4,555.9z M424,522.8c-0.5-3.8,3.6-10.6-1.1-11.8c-1.5-0.9-3-1.8-4.5-2.7c-0.5-0.3-0.9-0.6-1.4-0.9
	c0.2,4-3.1,9,0.5,12.2C419,520.1,423.7,526.2,424,522.8z"/>
<path class="st7" d="M555.3,326c-1.7-3.9-7.3-23.7-12.6-19.7c-14.5,10.8-21.6,27.7-26.4,44.7c-0.3,4.3,4.4,7.4,6.3,11
	c3.1,5,6.2,9.8,9,14.9s5.1,10.4,7.4,15.6c1.2,4,5.6,13.4,6.1,18.9c3.1-1.6,6.6-2.4,10.1-2.4c-3,4.8-11.9,3.8-12.8,9.8
	c11.1-2.9,20.7,8.9,22.3,19c0.5,2.6,1.3,3.5,3.5,2.1c24.5-16.7,27.2-18.3,13.8-45.8C569.9,372.7,562.8,349.3,555.3,326z
	 M569.5,405.9c-3.5,0.1-7,1.1-10.5,1.2c-4.8-3.1,13.2-4.8,15.2-2.2c0.8,0.3,1.5,0.7,2.2,1.1C574.2,407.5,571.8,405.7,569.5,405.9
	L569.5,405.9z M481.6,275.7c-2.5,5.4,0.6,14.5-5.4,17.6c-15.4,7.2-23.5-1.2-23.5,9.4c0.3,4.2-2.5,10.2,0.6,13.5
	c10.4,6.4,30.6,3.3,37.8-6.6c10.1-10.2,21.4-19.1,35.2-23.5c1.2-0.3,3.1-1.8,3.1-2.6c0.1-7.9,4.4-14.4,9.5-20.1
	c-5.2-2.8-10.4-3.5-16.4-5.1C507.2,254.9,485.5,257.2,481.6,275.7z M500.1,279.5c5.7-2.1,11.3-4.2,17-6c0.5-0.2,1.4,0.4,2.2,0.6
	c-5.5,2.9-11.5,4.4-17,7.2c-5,2-8.9,6.8-14.1,8.1C489.6,284.4,496.2,282.9,500.1,279.5z M451.1,89.9c16.5-10,32.2-21.7,47.4-33.4
	c-13.8-0.4-27.6,1.3-41.2,3.1c-3.8,1-9.8,0.1-12.2,3.5c-0.5,11-5.7,21-15,27c-6.8,5.3-16.1-1.1-18.2-8.2c-3.8-17.5-2-11.8-19.1-6.7
	c-2,0.6-3.3,2.4-3.1,4.5c0.2,7.2,0.1,14.3,0.1,21.4c0.2,2.2,0,4.4-0.4,6.6C408.8,98.9,430.6,94.6,451.1,89.9z M459.3,292.8
	c1.8,0.9,2-1.7,2.9-2.7c2.1-3.2,4-6.8,2.8-11.3c-2.7-4.2,0.3-16.8-7.7-13.9c-8.7,2.2-8.7,14.5-3.5,20.3
	C455.8,287.6,455.8,291.9,459.3,292.8z M460.2,417.1c-1.8,8.9-2.1,18-4.3,27.2c0.2,4,4.1-1,5.9-1.6c1.4-0.9,2.4-2,2.2-3.9
	c-0.7-5.9-1.5-11.7-2.2-17.5C461.6,419.8,461.6,418.1,460.2,417.1z M394.3,453.2c8.3,0.3,10.8,6,13.1,2c1.8-2.3,5-0.5,7.6-2.1
	c7.1-2.6,5.2-18.3,7.7-25c2.3-13-0.9-25.9-1.8-38.8c-1.6-23.7,0.9-47.8,5.1-70.8c-3.1,3.1-4.1,8.1-6,12.1c-3.8,11-7.1,22.3-8.2,33.9
	c-4.8,22.1-3.1,44.9-8,66.9c-1.2-1.1-2-3.8-3.2-1.2c-3.3,5.9-6.6,11.8-9.6,17.9C388.6,452.9,388.9,453,394.3,453.2z M410.5,429.6
	c2.3,0.5,4.4,0.9,6.4,1.4c0.3,0.1,0.5,0.9,0.9,1.3c-2.1,0.8-6.9,0.1-8.5-1.4C409.6,430.4,410,430,410.5,429.6z"/>
<path class="st8" d="M506.7,551.4c31-6.4,58.7-23.5,78.3-48.3c8.6-16.6,13.8-19.2,0.3-35.7c-16.6,30.7-45.6,52.9-79.7,60.7
	c-2.4,0.6-2.1,2.7-1.6,4.6C504.8,536.6,502.8,550.4,506.7,551.4z M567,445.9c-17.3,9.6-34.4,19.3-51.7,28.9
	c-2.9,2.4-19.7,11.7-18.1,14.7c2.1,7.8,3.1,15.8,4.6,23.7c-0.3,8.3,18.8-2.4,22.5-4c24.4-12.6,38.2-32.4,51.3-55.4
	C573.1,451.4,570.5,445.2,567,445.9z M544.5,301.8c-1.2-1.2-2.4-2.9-3.7-4.4c-12.9,10-27.9,20.7-37.7,33.6
	c-11,13.4-21.4,33.6-22.9,51c1.4,20.6,1.6,42.3,8.1,61.8c25.5,13.4,37.1-21.1,55.5-31.7c-2.1-4.2-3-12.4-5.5-14.9
	c-1.2,1.6-0.7,4-1.5,5.7c-2.3,3.9-5,16.1-9.2,16.8c2.8-7.5,5.5-16.2,9-23.2c1.1-0.3,0.7-0.7,0.3-0.8c-5.1,0.5-10.5,9.1-16.7,6.3
	c0.4-0.5,0.8-0.9,1.4-1.2c3.5-1.2,13.6-5.5,13.4-9.6c-0.1-0.4-1.1-0.6-1.7-0.7c-6.2-0.6-10.8-5.9-15.1-9.9
	c-10.7-11.5-5.9-28.1-2.5-41.6C520.7,322.7,529.6,310,544.5,301.8z M534.2,290.9c-6.2-3.1-12.8,2.4-18.5,4.7
	c-32.4,17.9-49.3,55.3-52.5,91c0.6,2.6,4,1.7,7,1.3c-3.3-14.1,7.1-34.7,13.5-46.7C495.6,320.2,515,303.6,534.2,290.9z M482,531.5
	c0.6,6.6,0.4,13.3,0.5,20.1c0,5.2,6.6,1.4,9.8,1.8c0.7-0.2,1.4-0.3,2.1-0.3l-0.1-1c-2.1-2.4-0.6-5.8-1.1-8.7
	c-0.7-15.8-1.4-31.6-4.4-47.1c-4.8,4-5,11-9.5,15.2c-0.5,0.5-0.1,2,0,2.9C481.4,519.7,481,525.5,482,531.5z M473.9,439
	c3.9-1.2-1.3-19.3-1.2-23.5c-2.3-12.2,2.8-11.8-8-11.5c-3.8-0.3-2.3,2.4-2.4,4.8c0.1,8.1,3,15.6,3.4,24
	C467.2,440.3,465.4,441,473.9,439z M447,342.1c1.8,14.7,6.3,31.2,9.2,45.7c0.4,0.1,0.9,0.1,1.2,0.1c4,1.8,2.6-6.5,3.5-8.7
	c-3.5-8.1-7.2-16.1-8.6-25c-2.4-11.4-4.7-22.8-4.4-34.5c-0.4-10.1,3.1-20.3,3.5-30.2c-1.3-0.8-2.3,0.4-3.3,1.2
	c0.3,5-1.7,12.1-2.1,16.5C445,318.9,446.1,330.5,447,342.1z M449.5,451.6c0.8,0.2,2.1,0.6,2.4-1.1c2.3-10.4,4.2-20.3,5.9-31
	c0.9-2.6,4.6-14.8,0.5-15c-1.2,0.1-2.5,0-2.4,2c-1.3,8.1-4.3,15.9-4.9,24.2c-1,4.8-2.1,9.6-3.1,14.4
	C447.4,447.5,445.6,451.7,449.5,451.6z M426.2,415.2c0.2,11.3-3.2,22.7-3.2,33.8c1.7-0.6,5.5-3.2,7.7-3.6c0.4-0.3,0.8-0.5,1.2-0.7
	c3.2-2,6.2,7.2,7.4,1.4c3.1-14.3,7.3-29.1,9.3-43.5c-1.8-5.1-2.1-10.4-2.1-15.8c-1.4-5.5-3.1-11-4.3-16.6
	c-2.6-13.6-4.4-27.3-5.5-41.1c-0.3-8.3,1.1-16.7,0.5-24.9c-6.5,4.8-8.3,12.8-9.4,20.7C422,354.7,425.1,385.1,426.2,415.2z
	 M434.7,556.2c0.6-7.3,1.3-14.7,1.4-21.9c1.3-7.7,3-15.4,5.3-22.9c0.8-2.3,1.2-3.9-2.3-5.3c-0.1-0.1-0.6,0.2-0.7,0.3
	c-1.4,6.1-2.5,12.3-3.4,18.6c-2.3,10.3-1.7,20.8-4.4,31c-0.1,0.1-0.3,0.2-0.2,0.3C432.7,557.9,434.6,557.8,434.7,556.2z M420.7,495
	c-4.1-2.2-2.5,3.3-3.2,5.7c-1.6,5.9,2.6,5.6,6.4,8.7c3.3,3.5,3.4-7.6,5.8-10.2C426.1,497.6,422.2,496.1,420.7,495z M419.2,551.3
	c2.9,2.3,2-12.5,2.8-14.7c0-3.6,2.5-8.1-0.2-11.2c-7.3-6.2-6.6-3.3-7.6,4.3C413.1,543.9,408,540.9,419.2,551.3z"/>
<path class="st9" d="M512.2,669.9c-0.2,9.5,1.5,29.5,12.1,32.5c13.5,2.5,21.2-9.2,25.5-20.1c5.9-11,5.7-26-7.8-31
	C526.9,645.8,512.1,652.4,512.2,669.9z M526.1,653.9c5.2-1.6,12.3-2.3,16.7,1.5c-4.2,0.7-8.6-0.5-13.1,0c-2.8,0.4-5.5,1.9-8.1,1.6
	C521.6,655,524.7,654.7,526.1,653.9L526.1,653.9z M522.7,697.7c-3.3-2.5-3.5-7.5-5.7-11c-2-4-2.3-8.2-2.2-12.8
	c0.3-3.2,0.5-6.3,0.9-9.2c0.3-0.7,0.6-1.4,1.1-2c1.4,2.9-0.3,6-0.3,9.1c-0.1,5,0.7,10,2.4,14.7C520,690.2,522.9,693.8,522.7,697.7
	L522.7,697.7z M408.5,649.4c4.2-12.6-11.1-18.8-21.4-17.3c-13.7,2.9-15.4,19.2-14.3,30.7C373.3,707,404.6,670.8,408.5,649.4z
	 M391.1,673.7c3.8-4.5,6.8-9.6,8.7-15.2c1.4-3.1,1.4-7.2,4.2-9.4c0.2,8.6-7.6,25.4-15.8,28.6C388.7,676.2,389.9,675.1,391.1,673.7
	L391.1,673.7z"/>
<path class="st10" d="M438.7,497.8c0.7-1.7-0.4-2.4-2-3.1c-3.6-0.8-10.7-9.7-5.8-12s3.5-9.6,12.1-12.1c5.3-3.2,29.5-1.2,29.3-7.2
	c-11.5-4-22.6-9.7-34.4-12.3c0.1,0.9-0.4,2,1.2,2.5c8.5,3.5,19.4,6.8,26.8,12.3c-9.6-1.4-19.4-7.8-28.4-11c-2.1,0.3-2.2,3.5-5.7,3.1
	c-0.5,0-1,0.7-1.8,1.3c-3.1,2.3-5,3.2-6.2,3.2c-3.3,2.1-5.2,2.8-6.4,2.6c-2.4,1-4,1.2-5.1,1c-2.1,1.9-3.5,2.5-4.4,2.5
	c-2.2,1.8-4.6,3.3-7.2,4.4c-0.9,1.2-1.9,2.2-3.1,3.1c0,0.1,0.1,0.1,0.1,0.2c-4.5,3-7,4.1-8.3,4c2.6,2.8,6.3,4.6,9,3.1
	c9.8-6.2,20.9-9.1,32.3-10.6c1.6,0,3.8-0.4,5.1,0.9c-4.5,2.5-10.8,1.8-15.8,3.4c-7,1.7-14,3.8-20.1,7.6c7.1,2.5,14.9,3.6,21.6,7.4
	C426.1,493.6,434.7,503.4,438.7,497.8z M430.8,451.9c2.1,4.8,4.1,2.4,5-1.3c1.2-1.8-0.1-2.4-1.2-2.9
	C431.5,446.1,430.6,449.1,430.8,451.9z M424.9,454.4c0.6,3.2,2.2,4.4,5,2.9c1-0.6,0.6-0.6,0.2-1.2c-2.2-3-2.3-7-0.2-10
	C426.5,448.6,424.2,451.4,424.9,454.4z M422,450.8c-3.9,2-2.9,6.9,0,9.5C421.6,457.5,422.7,452.9,422,450.8z M416.1,462.6
	c-0.1-2.1,0.8-5,1.1-6.6c0.1-0.6-0.5-1.2-0.8-1.7C413.1,455.9,413.5,460.5,416.1,462.6z M411,455.7c-4.8,1.5-3.1,6.2-0.2,8.8
	c-0.3-1.8,0.6-4.4,0.8-6.1C411.7,457.6,411.1,456.6,411,455.7z M403.8,463.4c-0.1,2.9,0.5,3.6,2.7,3.9c-0.9-2.2-0.3-6.8-1.2-8.5
	C403.6,460,403.9,461.7,403.8,463.4z M401.2,471.8c0.6-0.5,1.4-1.2,2.5-2.1c-1.7-1.4-2.7-3.5-2.5-5.7
	C400.2,466.6,399.5,468.5,401.2,471.8z M395.8,473.8c0.1-2.7,0.9-6.6,0.1-7.8C393.2,467.5,393.9,471.7,395.8,473.8z M392.6,466.9
	c-0.8,0.7-1.6,1.4-2.3,2.1c-1,2.3,0.2,6.6,2.9,6.5c-1-2.7-0.9-5.1-0.7-8C392.5,467.3,392.5,467.1,392.6,466.9z M383.6,473.8
	c-5,2.7,0.3,14,5.7,10.1c-0.3-0.6-0.6-1.4-1-1.6c-3.3-1.2-4-4-3.9-7.6L383.6,473.8z M387.3,470.6c-2,2.1-1.2,5.1,0.6,7.9
	C387.8,476.1,389,472.1,387.3,470.6z"/>
<path class="st11" d="M592.7,499.5c-5.5,7.4-10.6,15.4-17.9,21.5c-1.9,2.6-11.7,7.4-10.9,10.8c6.9-6.4,20.3-9,28.5-12.2
	c2.3-0.7,2.6-1.6,1.6-3.8c-0.9-2.4-2-4.7-3.2-7c-1.8-2.7,1.2-3.3,1.9-4.9c0.1-0.3,0.7-0.8,0.8-0.6c1.3,0.8,1.5,2.7,2.3,4
	c0.7,2.3,4.4,6.5,5.5,9.6c1.3-0.7,0.2-1.3-0.1-2C598.3,509.7,596.2,504.1,592.7,499.5z M392.9,71.7c3.7-2.2,16.1-3.3,16.3-7.8
	c0.4-5.2,0.6-10.4,1.4-15.6s0.9-4.8,5.7-5.3c3.1-0.3,3.1-0.1,3.2-3.4s0.9-3.9,3.6-4.8c3.1-0.8,6.1-2.7,9.3-3.3
	c2-0.4,3.9,0.9,4.4,2.9c0.1,0.6,0.3,1.1,0.4,1.5c1-1.1,3.3-2.3,6.7-2.9c5.6-0.5,2.1,14.1,2.6,17.8c-0.1,2.5-2,6.9,2.2,6.5
	c15.9-1.7,30.8-4.2,47-3.1c7.1,1.6,10.4-1.5,16.6-4.3c4.8-1.8,9.6-3.7,14.5-5c11.1-2.9,22.8-5.3,34.2-2.6c4.5-0.1,12,5.2,15.6,3
	c-13.6-27.6-46.4-39.1-75.7-40.1c-18.6-1.8-37.5,0.7-55.6,4.5c-23.6,4-50.7,19.9-54.1,45.6c-0.3,5-1,9.7-1.3,14.7
	C389.6,72.4,390.3,72.6,392.9,71.7z M507,575.7c-10-2-19.3-6.1-28.6-10.2c-6.9-3.1-14.7-5.7-20.2-10.9c1.8-0.8,3.3,0.7,5,1.3
	c9.5,4.6,19,9.3,29.2,12.2c6,0.5,19.7,10.4,22.1,1.6c1.3-3.6,9.8-12.1,15.7-15.2c1.7-0.8,3.2-1.3,4.2-1
	c-6.5,6.1-15.5,10.9-19.9,19.2c-1.2,6.6-1.9,13.4-3.1,20.1c-4.6,30-6.8,60.7-3.7,91c1.8,16.3,1.2,32.7,0.5,49.1
	c-0.6,3.2-0.7,5.5,2.4,6.9c5.3,2.7,18.7,6.6,22.7,1.5c4.5-11.9,9.6-23.5,15.3-34.8c9.9-19,19.7-38.1,27.5-58.1
	c1.4-5.3,6.1-12.8,5-18c-4.8-11.4-9.5-22.9-13.5-34.6c-4-12.2-8.5-24.4-8.7-37.3c-3.9-6.2,0.1-9.2-1.4-14c-1.6-2.6-3.3-7.5-6.9-5.2
	c-7.2,4.2-14.6,7.8-22.3,10.8c-8.7,3.5-17.8,5.7-27.2,6.6c-5.5,0.1-19.7,3.1-22.1-3.2c1.8-35.1-1.8-12.5-10.4-26.7
	c-0.7-2-1.9-2.5-4-2.3s-5.1-0.3-7.8-0.1c5.9,7.6-9.2,18.6-15.2,12.6c-3.1-2.7-1.7,6.1-2.3,7.6c-1.2,5.2,2.4,15.8-5.5,15.8
	c-4.4,0-8.8-0.9-12.8-2.9c-1.4-0.7-2.5-1-3.5,0.9c-7.2,12.1-13.7,24.5-19.5,37.3c-3.5,8.3-6.7,16.7-10,25.1c-0.6,2.7-5.6,9.1,0,8.7
	c18.7-0.5,29.8,11,20.2,29.1c-4.6,10.5-10.6,20.7-21,26.4c-7.8,4.4-10.9,0.9-14.2-5.5c-3.9,16.9-9.3,34-14.4,50.9
	c0.3,9.1,16.7,10.3,23.6,9.3c3.1-0.5,5.7-1.2,7.3-4.6c2.6-4.9,5.5-9.7,8.7-14.2c8.2-12.6,17.3-23.9,26.8-35.9
	c13.3-15.5,26.8-30.8,42-44.6c12.9-12.3,25.7-24.8,36.1-39.3c5.3-5.6,5.4-13.6,7.4-20.6C511.2,576.7,510.6,576.5,507,575.7z
	 M537.4,703.1c-7.8,4.1-19,3.5-22.5-5.6c-5.8-13.3-9.2-31.3,0-43.7c8.1-9.3,22.2-9,31.9-2.8C565.6,660.8,552.2,695.3,537.4,703.1
	L537.4,703.1z M505.4,773.2c2.5-6,2.3-14,5.1-19.6c-2.8-2.3-7.3-4.2-6.5,1.8c-1.1,4-2.1,8-3.2,12C500,770.4,503.3,772.1,505.4,773.2
	z M437.3,103.2c9-2.2,18.8-3.7,29-5.2c22.6-2,45.4-1,67.4,4.8c20.7,5.5,41.5,12.9,56.6,28.7c4.7,4.6,8.6,10,11.5,16
	c1.5,3.1,2.3,3.1,4.7,0.5c8.8-15.1,11.2-33.3,10-50.6c-2.7-12.5-12.9-22.3-20.6-32.2c-19.5-20.7-51.2-24.6-76.6-13.5
	c-18.7,7.1-34.1,20.3-50.4,31.5c-9.9,7.3-21.4,10.9-33.1,13.8c-7,1.8-14.1,3.2-21.1,5.1c-15.6,3.5-29.1,11-43,18.8
	c-5.7,5-14.4,8.8-16,16.8c-2.8,15.9,0,23.1,16.5,26.8c5.1,1.3,10.4,2.1,15.6,3.2c4.3,1.2,3.6-1.2,3.5-4.6
	C388.1,123.7,408.6,110.2,437.3,103.2z M388.1,108.3c-1.5-9.1,3.3-20.3-13.9-10.6c-11.6,6.2-14.9,18.9-17.2,31.2c0,0.5,0,1,0.1,1.4
	C366,120.7,376.6,113.7,388.1,108.3z M367.6,749.8c-4.6-1.4-5.3-2.5-5.3,3.1c-0.4,3.1-7.8,13.2-3.2,14c6.3,0.3,14.5,3.1,16.7-5.3
	c1.4-4.1,3.2-8.1,5.3-11.9C377.3,750.6,369.2,750.2,367.6,749.8z"/>
<path class="st12" d="M472.1,144.1c1,4.2,0.3,9.4,3,12.9c1.6-4.6-0.3-9.7,1.4-14.5c1.2-3.8,2.5-7.8,5.1-10.9
	c14.1-17.3,41.9-16.4,57.5-1.6c9.7,8.4,6.9,15.1,2.3,25.1c2.3-0.2,3.5-2.6,5.3-3.7c4.5-2.9,7.4-6.6,6.3-12.4
	c0-8.2-1.3-16.4-3.7-24.3c-1.8-6.2-27.4-8.7-34.5-11.3c-14.2-1.2-33.5-5.6-44,6.3c-0.3,5.7-0.7,11.4-0.5,17.1
	S471.5,138.4,472.1,144.1z M474.8,259.7c-2.4,1.5-5.1,0.3-7.8,0.4c-6.2-0.4,0.5,10.3,0.1,13.8c0.5,2.9,0.6,5.9,0.5,8.9
	c0.5,2.5-2.1,9.5,0.2,10.5c3.3-1.3,9.2-0.7,9.6-5.2c-0.8-19,6.8-32.3,26.7-34.8c1.2-0.2,2.3-0.9,3-2c3.3-9.9,12.4-15.8,18-24.4
	c7.7-9,14-22.5,8-34.1c-4.8-9.3-13.9-17.9-25-18.2c-13-1-24.2,5.5-36.3,8.5c-2,0.5-4.1,0.3-5.7,2.4c-12.6,14.7-18.4,23.3-37.7,11.3
	c-4.4-2.7-7.4,4.2-10.8,6.2c-3.9,3.8-7.7,7.6-10.4,12.6c-16.8,29.4,13.1,34.4,35.5,38.5c8.3,1.1,16.5,2.2,24.8,3.1
	C470.2,258,473.2,257.6,474.8,259.7z M492.1,185.1c2.1-2.4,7.8-2.5,10-0.2c-3.5,0.9-7,1.4-10.6,1.3
	C491.6,185.8,491.8,185.4,492.1,185.1L492.1,185.1z M422.9,211.1c-0.6-1.3,0.5-2.7,0.6-4.1c6,19.7,20.3,1.1,33.4,1.4
	c10.5-0.4,19.7-4.8,27.5-11.8c3.2-2.1,5.1-6.5,8.9-7.7c-2.4,5.2-7.8,8.9-11.6,13.1c-5.7,5.3-13.2,7.4-20.8,8.3
	C448.3,209.2,429.8,228.7,422.9,211.1L422.9,211.1z M484.3,486.1c-0.6-10.5,6.5-19.1,7.5-29.5c-1.6-7.6,1-8.7-7-11
	c-12.4-5.3-21.2-3.6-29.3,7.6c5.7,3.1,11.9,5.4,17.9,8.3c2.5,1.1,2.6,2.7,0.6,4.6c-7,6.1-16.9,4.7-25.5,6.2
	c-14.7,2.5-10.2,14.4-16.9,12.5c7.7,16.6,28.6,5.8,40.5,0.4c-6,7.8-18.4,12-28.2,11.4c-3-0.3-2.8,2-3.5,3.7c-2,5.1,7.8,6,11,6.5
	c8.7,0.5,16.1-5,24.2-6.9c-2.7,4.5-9.4,4.7-12.9,8.7c11.8,8.3,19.1-3.8,23.7-13.4C486.9,492.2,484.5,489,484.3,486.1z M408.7,144.6
	c9.5-0.9,20,7.9,22.7,17c-0.5-10.2-12.3-35.6-14.7-38c-2-3.5-6.8-0.2-9.6,0.7c-10.8,5.3-13.4,18.1-12.5,29.1
	C400.1,150.7,399.7,145.4,408.7,144.6z M367.9,573.9c1.7-3.2,4.4-2.7,0.2-5.7c-0.7-0.6-1-0.8-1.2,0.5c-0.3,6.1-4.5,10.6-7.4,15.7
	c5.8,11.1,24.4,4.4,22.6-8.1c-0.1-1.8-2.1-1-3.1-1.6C375.4,572.4,371.7,573.2,367.9,573.9z M373.2,538.8c-3.8-3.9-4.6-9.3-6.8-14.1
	c-1.4-7-8.7-5.4-14-4.6c-3.2,0.3-5.8,2.6-6.6,5.7c7.7,5.3,13,19.2,8.3,27.4c-0.4,0.9-0.7,1.9-0.9,2.9c2.6,0,5.2,0.1,7.8,0.4
	c1.4,1.1,2.8,2.5,3.9,3.9c1,2.3,6.8,11,9.5,7.4c5.5-6.2,6.1-14.4,6.3-22.3C381.4,541,375.4,541.5,373.2,538.8z M358,558
	c-1,1-3,0.7-4.6-0.1c0,0.2,0.1,0.4,0.1,0.5c2.8,9.3-1.4,19.1-10.5,22.7C362.6,591.7,370.3,558.2,358,558z M338.4,556.5
	c4.1,2.9,5.2,1.6,9.1-0.8c8.7-4,7.2-15.2,2.7-21.8c-0.6-1.5-3.5-4.2-4.8-6.5c-0.9,4.2-0.3,9.5-1.8,13.2
	C340.3,550,326.2,544.7,338.4,556.5z M350.4,557.5c-5.3,0.6-3.1,5.7-11.8,2.3c-1.6-0.8-2.9-1.1-4.6,0.3c-0.5,0.8-6.1,2.8-4.2,0.3
	c1.8-1.2,5.5-2.8,3-5.5c-1.4-1.2-3-7.4-5-3.7c-9,13.5,3.1,35.8,18.6,24C351.3,571,353.9,563.1,350.4,557.5z"/>
<path class="st13" d="M600.4,517.4c-2.5-3-6-9.5-7.2-12.1c-0.4,2.5,1.4,4.8,2.2,7C596.4,515,597.4,519.1,600.4,517.4z M579.2,578.7
	c-2.8-6.3-5.8-12.6-8.5-18.9c-0.2-1.4-0.2-2.8,0.1-4.2c-1,0.9-3.8,1-4.6,1.8c1.6,0.7,1.8,2.6,2.2,4.2c2.7,6.9,4,14.3,5.8,21.4
	c0.5,4.8,2.4,3.4,6.1,2.2c-1.8-1.5-2.3-1.2-4.2-1.6C575.3,581.7,580.8,583.3,579.2,578.7z M562.8,545.6c0.1,0.3,0.3,0.5,0.2,0.7
	c-0.2,0.3-0.4,0.5-0.6,0.8c3.3,1.5,3.7,0.3,2.6-2.8c-1-1.8-1.2-8-2.9-10.4v-0.1c-0.5-0.9-1.6-1.2-2.5-0.8c-2.4,1-4,2.6-3.3,4
	C557.9,538.9,560.3,546.3,562.8,545.6z M552.7,449c2.9-2.1,7.9-3.3,9.5-6.7c0-9.6-6.4-19.7-16.4-21.2c-2.2-0.1-4.6-2.9-6.5-0.8
	c-7.8,7.2-13.8,16-22.5,22.1c-2.3,1.4,2,3.3,2.5,5c3.4,4.2,5,9.3,6.3,14.5c0.7,3.8,5.2-0.8,5.2-2.5c-0.3-2.9-4.2-5.2-1.4-7.6
	c0.5,0.2,1.4,0.3,1.5,0.6c0.5,2.4,2.2,5,0.7,7.3C538.9,456.8,545.8,452.6,552.7,449z M516.3,794.6c-6.5,2-22.1,16-29.2,22.9
	c-0.2,0.6-0.5,1.2-0.6,1.8c-1.1,2.9-0.8,4.2,1.9,5.7c4.5,2.5,8.9,5.1,13.4,7.8c3.4-8.9,20.1-18.1,27.9-21.8c1.9-0.8,3.9-2.2,5.7-1.9
	c4.8,0.4,9.7-0.8,14.1-2.4c-13.2-3.8-20.1-8.5-23.2-14.2C522.6,791.3,519.5,793.4,516.3,794.6z M536.9,811.3
	c-3.6-0.7-16.2,6.4-19.3,9.2c-3.5,3.1-10.3,9.9-15,12.6l8.2,4.9c1.8,1,2.6,0.3,3.1-1.4C517.1,824.6,527.8,818.4,536.9,811.3z
	 M509,742c-2.7-1-2.9,4.2-3.4,5.9c0.7,2.1,5.1,2.1,6.8,3.4c-0.1,0.1-0.1,0.3-0.1,0.4c0.1-0.2,0.3-0.3,0.5-0.4
	c0.7,3.5-1.1,6.8-1.7,10.2c-1.8,4-1,17.7-8.2,13.2c-1.7-0.4-2.6-4-3.4-1c-3.2,12.8-6.4,25.6-10.5,38.1c8.1-8.3,24.4-18.6,28.1-20.3
	c1.2-0.3,5.4-1.4,8-1.4c-3.2-9,1.1-21,4.4-37.5C534.1,738.8,526.9,751.9,509,742z M516.6,372.6c2.8,7.4,10.1,13.2,17.1,15.9
	c-2-5.3-5.5-9.8-8.1-15.3c-3.7-4-5.8-9.8-10.3-12.8C514.3,364.3,515.8,368.6,516.6,372.6z M472.3,520c2-0.3,5.1,0,6-2
	c0.1-1-0.6-1.7-1.9-1.6c-3.5,0.3-7,0.3-10.5,0.5c-1,0.1-2.4-0.4-2.3,1.5C463.9,523.2,469.1,520,472.3,520z M453.2,344.4
	c-0.1,4.4,1.7,8.6,2.7,12.8c1.5,5.6,3,11.2,4.6,16.8c0.1,0.3,0.6,0.5,0.9,0.7c3.2-13.4,5.5-27.2,12.8-39.2c2.9-5.7,7.2-11,9.2-16.8
	C450.8,332.8,448.5,301.1,453.2,344.4z M465.4,514.4c-2.6-1-4-4.4-6.6-5c-7.4,1-8.9-1-6.8,7.7c0.5,2.3,0.6,5,3.9,4.7
	c1.5-0.5,7.1,1.4,5.7-1.5C459.7,515.9,461.2,515.1,465.4,514.4z M445.4,509.4c-2.3,1.2-1.9,5.5-1.9,7.8c0,2.5-0.3,3.6,2.6,5.3h0.3
	c-0.1-0.1-0.2-0.2-0.3-0.5s-0.3-0.1-0.5-0.5c1.8-5.3-2.5-7.6,0.9-9.6c0.3,0.6,0.8,1.2,0.6,1.7c-1.4,4,2.2,7.4,0.4,11.3
	c5.9,1,0.1-10,1.1-13.4C448.7,509.6,446.7,509.8,445.4,509.4z M395.1,487.2c-1.3-0.3-3.2-1.1-3.8-0.6c-1.6,1.6-3.3,1-5,1
	c-3,0.1-6.8-3.8-6.8-6.8c-0.1-1.8,0.3-3.6-0.3-5.3c-1.8,1.9-1.4,4.9-2.6,7.2c-2.2,2.7-2.4,4.2,1.4,4.5c2.8,0.9,5.4,2,8.1,3.3
	c13.7,5.9,7.4,18.8,18.4,1.2C406.3,487.7,397.4,488.3,395.1,487.2z M394.3,464.1c-0.1,0.1-0.2,0.2-0.3,0.2c0.3-0.2,0.5-0.3,0.9-0.4
	c2-1.4,4.2-2.7,6.5-3.7c1.4-4.8-7.6-3.1-10.5-4.1c-3.5-1.4-4.7,2.3-5.4,5S391.9,461.1,394.3,464.1z M384.2,471.3
	c1-2.7,3.7-2.7,5.4-4.2c1.6-1,2.8-1.8,3.8-2.3c-2.2,0.6-6.3-0.3-8-0.1c-2.5-0.3-4.9,6.8-5.2,8.9
	C381.4,473.4,383.6,472.3,384.2,471.3z M358.8,737.1c-1.1-0.8-1.9-1.2-2.4,0.9c-1,3.6-2.1,7.2-3.4,10.7c-3.3,10.6-6.1,16.4-9.8,20.3
	c5.4,6.5,15.2,11,23.2,9.8c3.3-0.8,3.5-5,4.9-7.6c0.5-1-0.1-1.2-1-1.2c-5.5-0.4-13.6,2.3-15.2-5c0.1-0.5-0.1-1.4,0.2-1.7
	c2.2-2,2.3-5,3.4-7.4c1-2.2,2.3-4.6,0.8-7.2c-0.6-1.8,6-4.6,6.5-2.2c0.8,2,5.9,0.7,8,1c2.1-0.1,6.4-1.6,8.5-0.1
	c1.2-2,2.9-3.9,2.4-6.2C375.9,744.1,366.3,742.5,358.8,737.1z M364.8,781.8c-6.1,0.5-11.8-0.5-16.8-4c-1.6-1.5-5.1-4.7-5.9-7.6
	c-5.1,4.6-12.1,6.3-24.7,11.2c-0.9,0.3-1,1.4,0.1,1.8c4.4,1.2,25.7,20.3,24.3,32.6c0.7-0.2,1.3-0.4,1.9-0.7c1.7-0.3,3.6-0.5,5.2-0.8
	l2.5-0.4c1.4-0.2,2.7-0.5,4-1.1c1.6-0.2,3.1-0.9,4.2-2.2c1-1.1,1.4-2.6,1.4-4.1c2.7-7,3-15.4,5.6-22.5
	C367.2,781.5,366.1,781.9,364.8,781.8z M314.6,783.5c-1.2-1.9-9.2,1.3-10.9,2.3c0.4,0.4,0.7,1,1.2,1.1c4.7,1.2,8.1,4.3,11,8
	c1.5,2.7,12.2,18.4,12.9,23.7c2-0.4,3.9-0.9,5.8-1.7c1.4-0.3,2.7-0.6,4-0.8l1.7-0.2c-2.2-4.1-7.4-14.3-7.6-14.7
	C329.1,793.3,321.3,788.8,314.6,783.5z M299.8,786.8c-3,0.5-7.5,0.2-9.7,2.3c0,0.7,0.4,1.3,0.9,1.6c10.6,6.2,19.5,16.3,22.4,28.4
	c0.2,4.6,7.6,1.8,13.3-0.3h0.1c0.3,0,0.5-0.1,0.8-0.1c-4.1-4.6-11.3-20.5-14.1-23.1C309.6,792.1,305.4,787,299.8,786.8z
	 M320.2,815.6c-0.7,0.1-1.6-0.8-1.8-1.6c-0.5-4.2-2.7-7.7-4.8-11.5c-3.2-4.4-7.6-7.6-10.5-12.2C309.3,790.8,324,810.2,320.2,815.6
	L320.2,815.6z"/>
<path d="M546.9,718.9c9.7-19.8,20.6-39,29.1-59.5c2.2-6.2,5.7-12.1,6.9-18.7c2.8-4.5,4.6,3.9,5.9,5.7c4.5,5.7,8.5,21.2,17.3,19.2
	c16.9-6.3,34.1-12.9,47.4-25.5c7.9-7.5,1.8-19.9,1.7-29.3c-5-33.4-12.5-70.3-38.5-93.9c-3.8-4,11.2-11.7,6.8-20
	c-0.5-1.8-0.5-3.8,0.1-5.5c3.2-8-1.1-12-2.1-19.6c-3-2.1-2.4-5.5-3.1-8.4c-1.5-9.5-9.1-15.9-15.5-22.4c-2.9-2.4-6.4-3.8-8.5-7.1
	c-5.7-5-13,9.6-14.7,14.5c-1.9,5.3-5.5-1.7-7.9-2.9c-3-3,5-5.7,6.7-7.2c4.8-2.9,8.7-6.8,12.2-11.1c2-1.9,2.1-6.1,4.8-7.3
	c0.8,0,1.6,0.3,2.3,0.8c4.4,3.6,9.5,3.6,14.5,2.5c12.7-2.4,16.3-16.1,21-26.3c21.6-58.2,6.8-122-6.9-180.4
	c-5.3-20.8-11.1-41.5-20.7-60.8c-2.5-5,4.8-3.6,6.7-10.3c9.1-21.8,14.2-48.7-2.2-68.4c-5-6.6-9.5-13.9-16.2-19.1
	c-4.9-4.6-12.3-7-15.7-12.7c-3.5-9.7-10.6-17.7-18.1-24.6c-30.2-28.3-109.6-25-143.7-5.2c-21,10.9-34.4,34.2-29.8,57.9
	c0.3,5.1,0.3,10.1,0.5,15.1c0.1,3.4-4.7,1.6-6.8,2.4c-25.5,5.6-28.7,37.2-30.1,58.8c0.1,11.2,11.1,17,20.8,18.8
	c6.1,1.2,12.2,2.4,18.4,2.1c1.8-0.1,2.6,0.6,3.1,2.4c0.6,2.7,3.2,5.7,1.6,8.4c-2.4,3.8-5.3,7.2-7.3,11.2c-4,7.8-7.6,17.1-5.9,26.1
	c1.1,6.4,4.2,11.1,9.8,14.2c1.4,3,3.9,6.8,6.9,7.8c4,0.8,5.9,4,9,5.9c9.3,5.9,20.2,9,31,10.5c5.8,1.1,11.6,1.8,17.5,2.1
	c1.8,0.1,3.5,0.8,4.9,2c-11.5,1.8-15.8,11.1-10.9,21.3c1.5,2.7,1.4,2.7-1.4,4.2c-8,2.7-7.4,11.7-13.4,16.6c-8.5,9.2-16,19.9-19.7,32
	c-9.5,27.8-9.9,57.3-11.3,86.4c-0.6,4.5-5.2,7.2-7.6,10.8c-6.5,9.4-11,19.8-14.8,30.4c-5.4,15.8-16,33.1-23.5,48.1
	c-1.3-0.4-2.7-0.6-4.1-0.7c-11.7-3.2-21.1,7.4-25,17.3c-4.6,8.2,2.2,14.9-1.8,21.3c-8.5,10.4-4.8,32.3,11.1,32.3
	c2.2-0.1,4.3,0.7,5.9,2.3c5.6,6.2,13.2-1.8,14.9,4.3c4.2,5,10,6.2,15.8,4.2c7.7-2,11-9.5,9.8-17.1c-0.1-2.1-0.6-2.2-2.5-2.2
	s-4-0.9-5.9-1.4c10.4-9.6,6.8-24,7.7-36.4c4.3-15.3,15.5-27.5,23.9-40.7c2-3.9,8-3.2,8.8,1c-1.8,14.1-4.3,28.1-6.9,42.1
	c-0.6,3.4-2.2,6.8,0.6,10c1.8,2.7,6.1,5,4.1,8.5c-9.8,17.8-19.3,35.8-25.5,55.1c-1.8,5.1-3.9,10.2-5.4,15.5c-0.8,2.5-1.2,5-3.5,6.4
	c-2.9,1.8-4.5,4.6-5.9,7.4c-3.8,8.3-4.4,17.6-2.9,26.4c0.2,10.3-3.3,20.5-5.8,30.3c-6,21.6-11,43.7-19.4,64.6
	c-1.3,3.8-4.1,6.9-7.8,8.5c-10.7,4.5-21.8,8.4-33,11.5c-8.5,2-17.2,4-25.9,4.7c-15.8-0.6-32.1-7.6-47,1
	c-12.1,5.2-20.2,15.4-24.5,27.6c-3.4,15.7,14.7,25.9,27.3,29.9c13.1,4,27.9,6,41,0.9c7.5-3.3,14.2-8.3,21.6-11.9
	c14.9-7.6,31.5-11.5,47.8-15c5.3-1.5,12.8-1,16.7-5.3c4.1-8.3,4.6-17.9,7.3-26.7c5.6-17.5,14.2-33.9,23.1-50
	c20.3-33.4,46.7-62.9,74.7-90c8.3-8.1,17.1-15.6,24.8-24.4c4.4-4.5,7.8-10.4,12.7-14.4c1.8,3.9-0.8,8.7-0.7,12.9
	c-0.5,7-1.2,14.1-1.3,21.2c-1,26.9,3.5,53.6,3,80.5c0.3,11.3-2,22.2-4.4,33.2c-3,22.3-10.6,43.4-17.6,64.6c-0.9,2.7,0.1,5,2.7,6.6
	c8.7,5.2,17.4,10.5,26.1,15.8c15.4,9.5,30.6,20.7,49.3,21.5c15-2.3,30.3-4.5,44.8-9.5c5.4-1.7,9.9-4.6,11-10.8
	c1.9-10.4-2.1-20.9-10.2-27.6c-14.7-12.4-30.3-11.2-48-10.7c-7.7-2.3-15.8-4.1-23-7.9c-15.4-8-6.5-27.6-4.3-40.8
	C533.5,743.1,540.9,731.2,546.9,718.9z M631.8,538.8c1.9,4.2,4.1,8.2,5.7,12.5c8.8,26.1,16,53.4,16.3,81.2
	c-1.9,11.5-37.9,26.8-48.9,30c-11,0.3-42.7-88-44.6-100.9h0.5c5.8,1,6,1.3,7.2,7.4c1.4,5.6,3,11.1,4,16.8c0.5,4.6,5.7,2.7,8.9,2.6
	c2.8-0.3,2-4,1.5-6.2c0.2-7.2-5.2-13.2-7.4-19.9c-0.2-0.6-0.4-1.2-0.6-1.9c2.7-4,2.4-8.8,9.5-9.3c3.4-0.8,7.7-1.8,9.6,2
	c2.2,4.4,4,9.1,6.1,13.6c5.3,9.8,21.3-1.9,27.7-6c4.9-5.2-1.6-13.8-2.2-19.9c-0.4-1.6,0-2.8,2-3.3
	C630.3,536.8,630.8,536.8,631.8,538.8L631.8,538.8z M559.9,547.3c2.5,3.8-0.1,8.4,5,10.9c0.4,0.3,0.3,1.2,0.5,1.8
	c-3.7,0.4-5.9-3.2-6.1-6.6C559.9,551.6,557.8,548.1,559.9,547.3z M504,532.7c-0.6-1.8-0.8-4,1.6-4.6c34-7.9,63.1-30,79.7-60.7
	c13.6,16.5,8.3,19.1-0.3,35.7c-19.7,24.8-47.4,41.8-78.3,48.3C502.8,550.4,504.8,536.6,504,532.7z M622.7,539.5
	c0.3,2.3,2,6.5,3.2,10.3c-5.9-0.6-19.4,6.2-24.6,8c-3.5,1.6-4.1-2.6-5.1-4.8c-1.4-3.4-3.4-4.8-5.5-5.2c-0.6-2.8-2.1-7.6-0.6-8
	c6.9-3.3,19.1-6.7,25-11.3c-5.9-1.7-25.9,11.5-29.3,9.2c-1.2-1.9-11.3-8.4-7.6-9.9c6.8-2.2,13.7-4.2,20.5-6.4
	c3.7-0.9,7.5-3.3,10.7-0.1c1.4,0.9,3.5,3.8,5.7,7.2c2.5,3.7,5.1,7.7,7.4,9.5C622.3,538.4,622.4,539,622.7,539.5L622.7,539.5z
	 M626.1,550.7c1,3.3,1.4,6.4,0.1,7.9c-5.6,3.9-11.7,7-18.2,9.1c-4.1,1.6-6.1-1.3-7.7-4.7C596.8,558.9,621.1,554,626.1,550.7
	L626.1,550.7z M576.1,583.7c2,0.4,2.4,0.1,4.2,1.6c-3.7,1.2-5.6,2.6-6.1-2.2c-1.8-7.1-3.1-14.5-5.8-21.4c-0.3-1.6-0.6-3.5-2.2-4.2
	c0.8-0.8,3.5-0.9,4.6-1.8c-0.3,1.4-0.3,2.8-0.1,4.2c2.7,6.3,5.7,12.6,8.5,18.9C580.8,583.3,575.3,581.7,576.1,583.7L576.1,583.7z
	 M568.3,546.2c-0.6-2.5,3,0.4,3.7,1c0.1,0.2,0.2,0.3,0.3,0.5c-0.3,1.9-0.8,4.4-1.3,6.7c-0.6-0.9-3.1-0.3-4.4,0c-2.9,1-3.5-1-4.1-3.3
	C565.7,549.4,569.9,551.2,568.3,546.2L568.3,546.2z M573.2,559.4c-1-1.4,0.3-6,0.5-9.6c0.2,0.4,0.5,0.9,0.8,1.2
	c1.8,2.3-0.7,5.6-1.2,8.4C573.2,559.5,573.1,559.5,573.2,559.4L573.2,559.4z M575.2,548.1c-4-8.7-9.6-1-9.8-14.8
	c-0.2-0.1-0.3-0.2-0.5-0.3l0.5-0.2c3-0.7,6.8-3.8,9.9-2c3.8,3.5,9.3,12.2,13.7,16.9C583.5,547.8,577.7,552,575.2,548.1L575.2,548.1z
	 M595.4,512.4c-0.7-2.3-2.5-4.5-2.2-7c1.2,2.5,4.7,9.1,7.2,12.1C597.4,519.1,596.4,515,595.4,512.4L595.4,512.4z M601.4,516.8
	c-1.1-3.1-4.8-7.3-5.5-9.6c-0.8-1.3-1-3.1-2.3-4c-0.1-0.1-0.7,0.3-0.8,0.6c-0.7,1.6-3.7,2.1-1.9,4.9c1.2,2.3,2.3,4.6,3.2,7
	c1,2.3,0.7,3.1-1.6,3.8c-8.2,3.2-21.6,5.8-28.5,12.2c-0.8-3.4,9-8.2,10.9-10.8c7.4-6.1,12.4-14.1,17.9-21.5
	c3.5,4.7,5.5,10.3,8.5,15.4C601.5,515.5,602.6,516.1,601.4,516.8L601.4,516.8z M559.6,533c0.9-0.4,2-0.1,2.5,0.8v0.1
	c1.6,2.4,1.9,8.6,2.9,10.4c1,3.1,0.7,4.3-2.6,2.8c0.2-0.2,0.4-0.5,0.6-0.8c0.1-0.1-0.1-0.4-0.2-0.7c-2.4,0.7-4.8-6.7-6.4-8.6
	C555.7,535.6,557.2,534,559.6,533z M628.8,532.9c1.6,1.6-3.8,1.8-5.8,3.8c-3.1-5.2-10.6-14.6-12.8-17.8
	C619.1,517.7,623.2,527.8,628.8,532.9z M604.4,457c0.7-4.7-3-8.4-3-13c4.6,2.8,7.4,8.6,9.5,13.5c0.7,1.6,0.1,3.6,1.3,4.9
	c1.5-1.3-0.1-3.5,1.8-4.8c3.2,5.4,1.4,12.8,5.7,17.7c0.5,5.1-1.6,9.4-2.9,13.7c-0.1,0.6-0.1,1.2-0.1,1.8c3.1-1.7,2.7-5.9,4.8-8.5
	c1.8,3.5-0.8,7.6-1.6,11.1c-0.9,2.7-4,4.6-4.2,7.6c1-0.5,3.8-2.2,4.4-2.1c1.1,1.4-0.7,2.1-1.2,3.2c-0.3,0.6-0.7,1.2-1,1.8
	c0.7-0.4,1.4-0.7,2-1c0.5-0.2,0.9-0.4,1.3-0.7c-0.6,3.2-4,5.3-6.1,7.7c-1.2,1-3.4,0.8-4.6,2.1c0.4,0.2,0.8,0.4,1.2,0.5
	c0.8,0.3,1.6,0.5,2.4,0.7c-1.8,1.8-4.3,1.8-6.6,2.5c-2,0.9-2.9-0.1-3.7-1.6c-2.5-4.8-4.7-9.8-7.9-14c-4.7-6.7,4.9-13.5,1-20.5
	c-2.7-5.1-5.4-10.2-8.5-15c-1.9-4.2-8.3-8.1-8-12.8C595.6,422.6,592.8,442.3,604.4,457z M584.1,467.6c-5,6.7-9.8,13.5-15.2,20
	c-17,19.3-39.6,32.8-64.7,38.6c-0.6-2.5-2.9-6.3,0.7-7.5c8.9-1.3,17.2-4.8,24.9-9.2c20.3-11.1,35.8-28.7,45.3-49.6
	c0.4-0.5,0.9-3,1.2-5.1C579.2,458.2,585,463.7,584.1,467.6L584.1,467.6z M575.7,453.8c-13,23-26.9,42.7-51.3,55.4
	c-3.7,1.6-22.9,12.3-22.5,4c-1.5-8-2.5-16-4.6-23.7c-1.6-3,15.2-12.3,18.1-14.7c17.3-9.6,34.4-19.4,51.7-28.9
	C570.5,445.2,573.1,451.4,575.7,453.8L575.7,453.8z M461.5,520.3c1.4,2.9-4.2,1-5.7,1.5c-3.3,0.3-3.4-2.4-3.9-4.7
	c-2-8.7-0.5-6.6,6.8-7.7c2.7,0.6,4,4,6.6,5C461.2,515.1,459.7,515.9,461.5,520.3z M448.7,535c-2.3,3-6.5-0.1-7.8-2.5
	c-0.7-2.8-0.5-7.2,1.2-9.8c4.5,1.7,1,4,4.2,4.9c2.3,0.1,4.9,0.7,6.4-2.1c0.8-0.8,1.8-1.3,2.9-1.4c-0.5,3,0.1,8.1-2.1,9.5
	c-0.6-1.6,0.1-3.5-0.8-5c-0.7,0.8-1.1,1.7-1.4,2.7c-2.3,3.3-5.7-1-8-2.4C441.8,532.4,446.3,533.7,448.7,535z M427.4,515.1
	c0.3-4.2,3.4-11,3.1-15.5c4.2,2,7.9,4.3,6.6,6.7c-5,15.8-6.8,32.3-7.7,48.7c-0.1,0.5-0.5,0.8-1,0.9c-6.4,0.3-5.4-6.7-4.8-11
	C424.6,534.6,425.6,525.2,427.4,515.1L427.4,515.1z M423.9,509.3c-3.8-3.1-8-2.8-6.4-8.7c0.7-2.4-0.9-8,3.2-5.7
	c1.5,1.2,5.4,2.6,8.9,4.2C427.2,501.8,427.2,512.8,423.9,509.3L423.9,509.3z M430.6,556c2.7-10.2,2.1-20.7,4.4-31
	c0.9-6.2,2-12.4,3.4-18.6c0.1-0.1,0.6-0.4,0.7-0.3c3.6,1.4,3.1,2.9,2.3,5.3c-2.2,7.5-4,15.2-5.3,22.9c-0.1,7.2-0.9,14.6-1.4,21.9
	c-0.1,1.6-2,1.7-4.4,0.1C430.3,556.2,430.4,556.1,430.6,556z M447.6,524.9c1.8-3.8-1.8-7.3-0.4-11.3c0.1-0.5-0.4-1.1-0.6-1.7
	c-3.5,2.1,0.8,4.3-0.9,9.6c0.1,0.3,0.3,0.3,0.5,0.5s0.2,0.4,0.3,0.5h-0.3c-2.9-1.6-2.6-2.7-2.6-5.3c0-2.3-0.4-6.6,1.9-7.8
	c1.3,0.4,3.4,0.2,3.3,2.1C447.6,515,453.5,526,447.6,524.9L447.6,524.9z M465.9,516.8c3.5-0.1,7-0.2,10.5-0.5c1.3-0.1,2,0.6,1.9,1.6
	c-0.9,2-4,1.8-6,2c-3.3-0.1-8.4,3.2-8.7-1.7C463.5,516.5,464.8,516.9,465.9,516.8L465.9,516.8z M477.7,525.4
	c-0.3-0.4-0.7-0.8-1.1-1.1c-0.7-0.5-1.4-1-2.2-1.4c-0.1-0.3-0.3-0.5-0.4-0.5c0.1,0,0.3,0.1,0.4,0.1
	C477.5,521.9,480.1,521.2,477.7,525.4L477.7,525.4z M470.6,522.7c4.7-1,1.5,5.9,6.5,5c0.5-0.1,1.2,0.9,1.9,1.4
	C475.5,531.8,467,526.4,470.6,522.7L470.6,522.7z M462.7,508.6c3.5-4,10.2-4.2,12.9-8.7c-8.1,1.9-15.5,7.4-24.2,6.9
	c-3.2-0.5-13-1.4-11-6.5c0.7-1.7,0.5-4,3.5-3.7c9.8,0.6,22.2-3.6,28.2-11.4c-11.9,5.4-32.8,16.2-40.5-0.4c6.6,2,2.1-9.9,16.9-12.5
	c8.5-1.5,18.5-0.1,25.5-6.2c2-1.8,1.8-3.5-0.6-4.6c-5.9-2.9-12.1-5.2-17.9-8.3c8.1-11.1,16.9-12.8,29.3-7.6c8,2.2,5.3,3.4,7,11
	c-1,10.3-8.1,18.9-7.5,29.5c0.1,2.9,2.5,6.1,2,9.1C481.8,504.8,474.5,516.9,462.7,508.6L462.7,508.6z M461.7,182.8
	c-5.6,1.6-11.2,5.6-15.6,8.4L445,192c-1.8,1.3-3.6-0.1-5.3-0.5c-4.2-1.2-8.3-2.1-12.7-1.2c-0.6,0.1-0.1-1.8,0.1-3.2
	c7.2-2.5,12.4-14.1,23.9-10.5c3.5,0.3,6.9,1.6,10.3,2.6c1.4,1.4,2.5,2.7,5,2.8c-0.1,0-0.1,0.1-0.1,0.2
	C464.6,182.3,463.1,182.5,461.7,182.8L461.7,182.8z M465,183.6c-5.8,7.3-12.6,17.6-22.7,15.9c-3.9-1.2-13.3-2.5-14.7-6.5
	c2.3-1.8,8.2,0.5,11.1,0.8c4,1,7.1,0.7,10.4-2.3c0.1-0.1,0.2-0.1,0.3-0.2C453,187.9,460.5,186.5,465,183.6L465,183.6z M421.2,169.8
	c1.8,1.2,2.9,2.4,3.1,4.6c-2.1,1-4,0.4-6.1-0.3c-5.6,0.1-0.6,11,2.3,12.5c0.7,0.3,1.4,0.5,2.1,0.7c-2.1,1.2-4.4,2.6-5.7,2.1
	c-0.1,0-0.1,0.1-0.3,0.1c-2.9-6.5-5.1-14.5-2-21.4c2.3-4.8,6.1-6.5,10.7-7.3c1-0.1,3.9,2.4,5.7,3.6c-0.5,1.3-1.6,1.7-3.4,1
	C425.1,164.3,417.9,166.3,421.2,169.8L421.2,169.8z M412.6,184.5c0.5,1.7,1.6,4.2,3.1,5.5c-4.7,1.5-10.5-0.4-13.8-4.1
	c-4.6-4.8-5-11.6-5.6-17.9c-3.1-17.3,21-26.6,29.5-10.6c0.7,1.4,0.5,1.6-0.9,1.6C412.6,159.3,408,174.7,412.6,184.5L412.6,184.5z
	 M446.6,174.1c-7.4-1.4-13.7,7-13.2,2.6c1-16.7-2.8-33.4-10.9-48.1c-1.5-2.9-3.4-5.6-5.7-7.9c-0.9-1.2-3.5-1.4-4-2.9
	c17.3-9.3,38.4-14.6,58.3-15.4c-5.9,14.1-2.3,29.6-0.8,44.3c0.3,6.4,3.5,12,6.2,17.7c1.8,3,4.7,9.2,7.7,12.5c-0.6,0.5-1.3,0.8-2,0.9
	C459.5,186.6,471.9,175.6,446.6,174.1L446.6,174.1z M514.8,103.4c7.1,2.7,32.7,5.2,34.5,11.3c2.4,7.9,3.7,16.1,3.7,24.3
	c1.2,5.8-1.8,9.5-6.3,12.4c-1.9,1.1-3,3.5-5.3,3.7c4.6-10,7.4-16.7-2.3-25.1c-15.6-14.8-43.4-15.8-57.5,1.6c-2.6,3.1-3.9,7-5.1,10.9
	c-1.8,4.8,0.1,9.8-1.4,14.5c-2.7-3.5-2-8.7-3-12.9c-0.6-5.7-1.5-11.5-1.8-17.3s0.2-11.4,0.5-17.1
	C481.4,97.8,500.7,102.2,514.8,103.4L514.8,103.4z M482.8,172c-4.6-7.8-5.1-16.5-4.2-25.1c2.5-18.5,25.1-27.9,41.9-23
	c8.2,2.2,21,9.7,22.3,18.7c0,3.9-1.1,7.8-3.2,11.1c-2.7,3.8-6.6,4.8-10.4,6.1c1-1,1.4-3.3,1.4-5c0-0.4,0-0.9-0.1-1.3
	c-2.6-18.4-26.4-20.8-36.5-7.2c-5.4,6.3-7.6,15.6-3.6,23.3c1,2,0,2.6-1.4,3.2c-2.1,0.4-2.9,2-4,3.2
	C484.2,174.4,483.1,172.5,482.8,172z M528.8,159.9c-1.8,0.5-6,3.4-5.2,0.3c4.4-11.6-11.4-21.2-20.6-13.7c-2.7,1.7-2.8,1.6,0.2,3.7
	c2,0.9,4.2,1.4,4.3,4c-1.5,2-4.9,0-7,0.1c-6.2-1-4.3,7.9-2.8,11.4c1.4,2.7,1.3,3.4-0.6,4.2c-2.8,1.2-4.2,0.6-5.2-1.8
	C482.8,141.6,525.5,128.1,528.8,159.9L528.8,159.9z M494.5,172.8c16.5-4.8,33.4-8.9,49-16.2c5.2-2.7,10.5-6.3,11.8-12.5
	c-0.4-10,0-20.1-4.1-29.5c-0.6-1.4,0.1-1.3,0.7-1c9.8,3.1,13.1,3.4,17.9,12.8c4.1,5.7,8.1,11.5,12.5,16.8c3.1,4.4,8.5,7,11.2,11.6
	c-1.8-0.1-3-1.8-4.8-1.1c0.7,3.1,10.4,5,7.2,8.7c0.8,4.2,5.5,11.2,1.8,15.2c-0.6,1.8-0.9,4.4-1.8,6.3c-1,3.3-0.1,6.7-2.2,9.9
	c-2.7,7.1-4,15.2-10.2,20.5c-1.4,1.3-2,3.6-4.5,3.6c-0.2,0.1-0.4,0.3-0.5,0.4c0.5-1.7,1.6-3.1,0.9-4.9c-2.9,1.2-2.9,5.8-5.5,7.2
	c-2.9-0.6-4.4,1.8-6.1,3.3c-8.9,8-19.8,13.2-28.8,21.2c-14.2,14.6-2.7,10.8-30.8,7.5c9-16.4,28.5-28.3,29.5-48.3
	c0.1-11.6-8.1-22.8-18-28.3c-8.3-4.8-17.7-3.3-26.6-1.1C491.3,174.3,493.7,173,494.5,172.8L494.5,172.8z M578.7,224.6
	c0-1.8,1.3-3.3,3.1-3.6c0.9,8.6-0.7,17.4-1,26.1c-0.5,2.7-0.9,5.8-2.4,8.1c-0.1-0.3-0.2-0.7-0.2-1c0.1-1.7,0.3-3.3,0.5-5
	C578.7,240.6,578.7,232.6,578.7,224.6L578.7,224.6z M571,264.4c-1.4-10.6-2.2-21.6-3.3-32.1c-1.5-4.3,4.1-5.6,6.5-8
	c1-0.5,3.1-1.6,2.8,0.6c-0.7,8.3-0.6,16.7-1,25c-1.2,7.2-0.8,14.4-1.3,21.7c-0.6,3.6,0.5,7.8-1.6,10.9
	C570.3,277.2,572.2,270.3,571,264.4z M561.4,329.4c-3.3-10.5-10-19-15.4-28.5c-0.1,0.1-0.3,0.2-0.5,0.3l-0.4-0.7
	c-0.6-4.3-5.2-6.8-6.1-10.9c0.1-7.1,0.3-14.2,0.5-21.4c0.2-0.9,0.6-1.7,1.2-2.4c1.2-1.6,1.8-3.1-0.2-4.5c-1.4-1.2-1-7.4-1.3-11.7
	c3.1-2.9,6.2-5.7,10.2-7.8c5.6-2.9,9.9-8.1,15.7-10.8c0.2-0.1,0.8,0.4,0.9,0.6c0.1,7,0.6,13.9,0.9,20.8c0.8,10.6,1.8,21.2,2.7,31.7
	c3.5,16.5-0.7,32.7-1.4,49.3C568.8,359,564.7,339.5,561.4,329.4L561.4,329.4z M518.2,380.7c4.4,4,8.9,9.3,15.1,9.9
	c0.6,0.1,1.6,0.3,1.7,0.7c0.3,4.1-9.8,8.3-13.4,9.6c-0.5,0.3-1,0.7-1.4,1.2c6.2,2.7,11.6-5.9,16.7-6.3c0.4,0.1,0.8,0.5-0.3,0.8
	c-3.5,7-6.2,15.7-9,23.2c4.2-0.7,6.9-13,9.2-16.8c0.8-1.8,0.3-4.1,1.5-5.7c2.5,2.5,3.5,10.6,5.5,14.9c-18.4,10.6-30,45.1-55.5,31.7
	c-6.5-19.5-6.8-41.2-8.1-61.8c1.6-17.4,11.9-37.6,22.9-51c9.9-12.9,24.9-23.6,37.7-33.6c1.2,1.5,2.4,3.2,3.7,4.4
	c-14.9,8.1-23.8,20.9-28.8,37.3C512.3,352.6,507.5,369.1,518.2,380.7z M525.6,373.2c2.6,5.5,6.1,10,8.1,15.3
	c-7-2.7-14.3-8.5-17.1-15.9c-0.7-4-2.3-8.3-1.2-12.2C519.8,363.4,521.9,369.2,525.6,373.2z M531,452.3c-0.1-0.4-1-0.5-1.5-0.6
	c-2.8,2.4,1,4.8,1.4,7.6c0,1.7-4.5,6.3-5.2,2.5c-1.3-5.2-2.9-10.2-6.3-14.5c-0.6-1.7-4.9-3.5-2.5-5c8.7-6.2,14.8-14.9,22.5-22.1
	c1.9-2,4.3,0.8,6.5,0.8c10,1.5,16.4,11.6,16.4,21.2c-1.6,3.4-6.5,4.6-9.5,6.7c-7,3.6-13.8,7.8-21.1,10.7
	C533.2,457.4,531.4,454.8,531,452.3z M492.7,448.6c6.4,0.9,13.1,0.5,18.8-3.1c4.4-2.9,9.1,9,10.2,12.3c1.4,4.7,2.7,8.5-2.6,10.5
	c-11.8,6.2-21.4,15.6-31.2,24.4C483.1,474,497.9,468.1,492.7,448.6L492.7,448.6z M462.3,408.8c0.1-2.5-1.4-5.1,2.4-4.8
	c10.8-0.3,5.7-0.7,8,11.5c-0.1,4.2,5.1,22.3,1.2,23.5c-8.5,2-6.6,1.2-8.3-6.3C465.2,424.4,462.4,417,462.3,408.8L462.3,408.8z
	 M464,438.8c0.2,1.8-0.9,2.9-2.2,3.9c-1.8,0.6-5.7,5.6-5.9,1.6c2.1-9.2,2.5-18.2,4.3-27.2c1.4,1,1.4,2.7,1.6,4.2
	C462.5,427.2,463.3,433,464,438.8L464,438.8z M473.3,405.3c-0.1-0.7,0.1-1.3,0.6-1.8c3.5-2.8,1.3-7.9,1.9-11.8
	c0-3.6-2.1-4.1-4.7-3.9c3.1-29.2,19.6-58,41.3-77.5c6.6-5.9,13.9-11.1,21-16.4c2.3-1.7,4.5-0.1,6.6,2.3c-2.2,0.8-4.3,1.9-6.2,3.3
	c-23.6,16.4-42.9,38-52.1,65.7c-5.1,12-3.6,25.4-2.7,38.1c1,10.2,2,20.4,4.8,30.4c-0.1,1.4,3.5,10.8,0,8.6c-1.4-0.9-3.2-1-4.3-2
	c-3.8-6.1-2.1-14.5-3.6-21.5C475.1,414.4,474,409.9,473.3,405.3L473.3,405.3z M470.3,387.8c-3.1,0.4-6.4,1.3-7-1.3
	c3.2-35.7,20.1-73,52.5-91c5.7-2.3,12.3-7.8,18.5-4.7c-19.2,12.7-38.6,29.3-50.4,50.2C477.3,353.1,467,373.7,470.3,387.8
	L470.3,387.8z M533,283.5c1.2-3.8,0.2-9.6,4.2-11.7c0.1,0.6,0.1,1.1,0.2,1.7v1.2c-0.8,3.3,0,10.4-2.5,11.9
	C533.3,286.5,532.7,284.8,533,283.5L533,283.5z M538.2,250.7c-0.2,2.5-0.4,5.3-0.4,6c0.3,4.2-8.5,0.1-3.4-2.8
	C535.7,252.9,537,251.8,538.2,250.7L538.2,250.7z M522.7,258.3c5.9,1.6,11.2,2.3,16.4,5.1c-5.1,5.7-9.4,12.2-9.5,20.1
	c0,0.9-1.8,2.3-3.1,2.6c-13.8,4.4-25.1,13.4-35.2,23.5c-7.2,10-27.4,13-37.8,6.6c-3.2-3.3-0.4-9.3-0.6-13.5c0-10.6,8.1-2.1,23.5-9.4
	c6-3.1,2.9-12.2,5.4-17.6C485.5,257.2,507.2,254.9,522.7,258.3L522.7,258.3z M483.4,318.7c-2,5.9-6.3,11.1-9.2,16.8
	c-7.3,12-9.6,25.8-12.8,39.2c-0.3-0.3-0.9-0.5-0.9-0.7c-1.6-5.6-3.1-11.2-4.6-16.8c-1-4.2-2.8-8.4-2.7-12.8
	C448.5,301.1,450.8,332.8,483.4,318.7L483.4,318.7z M462.2,390.4c12.2,0.8,11.4-3.6,11.3,8.3c1,4.3-13.8,2.1-16.8,2.9
	c-5.9,0.1-7.2-1.3-7-7c-1.2-3.5-0.7-4.2,2.2-4.2L462.2,390.4z M449.7,410c0.2-3.8-0.1-9.3,4.4-4.8c-1.4,8.3-3.6,16.5-5.3,24.8
	c-1.1,2.6-2.8,20.6-5.8,19.3c-3.3-2.5,1.2-10.4,1.2-14.1C446,426.9,447.4,418.4,449.7,410L449.7,410z M447.9,445.1
	c1-4.8,2.1-9.6,3.1-14.4c0.6-8.3,3.6-16.2,4.9-24.2c-0.1-2,1.2-2,2.4-2c4.1,0.2,0.4,12.4-0.5,15c-1.6,10.7-3.5,20.6-5.9,31
	c-0.3,1.7-1.6,1.3-2.4,1.1C445.6,451.7,447.4,447.5,447.9,445.1L447.9,445.1z M479.3,511.4c4.6-4.3,4.7-11.2,9.5-15.2
	c3,15.5,3.7,31.3,4.4,47.1c0.5,2.9-1,6.2,1.1,8.7c4.4-5.3-1.7-36.7-2-45.9c-0.9-7.4-5.1-12.2,3-17.1c4.3,20.1,6.6,40.5,6.9,61
	c0,3.2-4.6,2.7-7.8,3c-0.7,0-1.5,0.1-2.1,0.3c-3.1-0.3-9.8,3.4-9.8-1.8c-0.1-6.7,0.2-13.4-0.5-20.1c-1-6.1-0.7-11.8-2.7-17.1
	C479.2,513.4,478.8,512,479.3,511.4L479.3,511.4z M568.2,439.9c-2.2,1.4-3,0.5-3.5-2.1c-1.6-10.2-11.2-21.9-22.3-19
	c0.9-6,9.8-5,12.8-9.8c-3.5-0.1-7,0.7-10.1,2.4c-0.5-5.5-4.9-14.9-6.1-18.9c-2.3-5.2-4.7-10.5-7.4-15.6s-5.9-10-9-14.9
	c-1.8-3.6-6.6-6.7-6.3-11c4.8-16.9,11.9-33.9,26.4-44.6c5.3-4,11,15.8,12.6,19.7c7.5,23.3,14.7,46.7,26.7,68.1
	C595.3,421.6,592.7,423.2,568.2,439.9L568.2,439.9z M630.5,394.6c-3.6,12.6-16.6,23.6-29.8,17c-7.2-4-12.6-9.3-15.2-17.5
	c-4.2-10.7-9.2-21.2-13.2-32.1c-0.8-15.1-0.3-30.2,1.6-45.2c0.3-11.3,1.8-21.7,3.1-32.8c0.3-7.2,0.5-14.4,2.2-21.4
	c1.6-6.7,4.4-13.1,4.2-20.1c0.5-7.3,2.2-14.7,1.8-22c-1.1-1.5,5-10.2,5-6.1c1,7.1-1.5,20.9,2.6,26.2c2.1-2.7,0.1-6.6,0.3-9.8
	c-0.7-5.3,0.1-10.9-1.3-15.9c-1-3.6,1-5.8,1.7-8.7s0.8-6.4,3.6-8.2c14.1,33.9,27.9,68.3,36.3,104.3
	C641.7,333.4,641.8,364.1,630.5,394.6L630.5,394.6z M622.3,216.4c4.5,17.7,7.4,35.7,11.2,53.6c2,10.8,3.7,21.6,5,32.6
	c0.1,2,1,4.2-0.3,6.1c-3.7-2.9-3.1-11.9-4.7-16.4c-6.7-22.7-13.5-45-22.7-66.7c-3.2-7.7-6.8-15.2-10.3-22.9
	c-2.1-3.1-3.6-6.8-2.5-10.6c1.2-5.9,5.4-11.6,3.7-17.9c-1.6-3.5,3.9-2.9,1.8-6.5c-5.9-8.1-0.5-6.8-4.6-11.4
	c-3.7-4.6-7.8-8.8-12.4-12.5c-5.4-5.4-9.4-11.8-13.6-18.2c-0.3-0.7-3.5-6.2-0.8-4.7c19.3,11.3,24.2,18.9,32.4,39.3
	C611.8,178.5,617.7,197.3,622.3,216.4L622.3,216.4z M391.1,55.2c3.4-25.7,30.4-41.6,54.1-45.6c18.1-3.8,37.1-6.2,55.6-4.5
	c29.2,1,62,12.5,75.7,40.1c-3.5,2.2-11.1-3.1-15.6-3c-11.4-2.7-23.1-0.3-34.2,2.6c-5,1.4-9.8,3.2-14.5,5c-6.1,2.8-9.5,5.9-16.5,4.3
	c-16.3-1-31.1,1.4-47,3.1c-4.2,0.4-2.3-4-2.2-6.5c-0.5-3.8,3-18.3-2.6-17.9c-3.5,0.6-5.7,1.8-6.7,2.9c-0.1-0.4-0.3-0.9-0.4-1.5
	c-0.5-2-2.4-3.2-4.4-2.9c-3.2,0.7-6.1,2.5-9.3,3.3c-2.7,0.8-3.4,1.4-3.6,4.8s-0.1,3.1-3.2,3.4c-4.8,0.5-5,0.1-5.7,5.3
	s-1,10.4-1.4,15.6c-0.2,4.5-12.6,5.7-16.3,7.8c-2.6,0.9-3.3,0.7-3.1-1.8C390.2,64.9,390.9,60.2,391.1,55.2z M444.4,35.2
	c-0.3,10.9-0.7,21.8-2.7,32.5c-0.3,8.7-12.2,27.5-21.9,20.1c-10.6-7.6-8-29.2-6.6-40.8c1.3-3.8,8.6,1.4,8.5-7.1
	c0.1-1.8,0.5-2.6,2.7-3.1c6.8-3.8,10.5-1.8,12.2-0.2C435.8,38.4,438.6,39.2,444.4,35.2z M389.8,101.1c0-7.1,0.1-14.2-0.1-21.4
	c-0.2-2.1,1.1-3.9,3.1-4.5c17.1-5.1,15.3-10.8,19.1,6.7c2.1,7,11.5,13.4,18.2,8.2c9.4-6,14.6-16,15-27c2.4-3.4,8.4-2.5,12.2-3.5
	c13.6-1.8,27.4-3.5,41.2-3.1c-15.2,11.7-30.9,23.4-47.4,33.5c-20.6,4.7-42.4,8.9-61.7,17.7C389.9,105.5,390,103.3,389.8,101.1z
	 M374.2,97.8c17.2-9.8,12.4,1.4,13.9,10.6c-11.5,5.3-22.1,12.4-31,22.1c-0.1-0.5-0.1-0.9-0.1-1.4C359.3,116.7,362.6,104,374.2,97.8z
	 M391.2,163.2c0.2,3.4,0.8,5.8-3.5,4.6c-5.1-1.1-10.4-1.9-15.6-3.2c-16.5-3.7-19.4-10.9-16.5-26.8c1.6-8,10.2-11.8,16-16.8
	c13.9-7.8,27.4-15.3,43-18.8c7-1.9,14.1-3.4,21.1-5.1c11.7-2.9,23.2-6.4,33.1-13.8c16.3-11.2,31.7-24.4,50.4-31.5
	c25.4-11.1,57.1-7.2,76.6,13.5c7.7,9.8,17.9,19.6,20.5,32.1c1.2,17.3-1.2,35.4-10,50.6c-2.4,2.6-3.2,2.5-4.7-0.5
	c-2.8-6-6.7-11.4-11.5-16c-15.1-15.8-36-23.3-56.6-28.7c-22-5.9-44.8-6.8-67.4-4.8c-10.2,1.5-20,3.1-29,5.2
	C408.6,110.2,388.1,123.7,391.2,163.2L391.2,163.2z M407.2,124.3c2.8-0.9,7.6-4.2,9.6-0.7c2.4,2.4,14.3,27.8,14.7,38
	c-2.7-9.1-13.2-17.9-22.7-17c-9,0.8-8.7,6.1-14.1,8.9C393.8,142.5,396.4,129.7,407.2,124.3L407.2,124.3z M392.9,231.3
	c-0.8-2.2-1.8-4.3-3-6.4c-2.3-2.8-4.8-6.2-4.6-10c-4.3-10.9,6.3-23.3,9.9-33.2c2-1.2,2.9,1.9,3.5,3.3c1.4,4.5,5.3,5.9,9.2,7.1
	c5.7,2.4,11.3-0.7,16.9-0.6c-0.7,5.5-9.5,9.7-13,14.4c-7.7,8.7-15.7,22-9.2,33.4C398.6,238.3,394.5,235.6,392.9,231.3z M442.9,254.3
	c-22.4-4.1-52.3-9.1-35.5-38.5c2.7-5.1,6.5-8.9,10.4-12.6c3.4-2,6.4-8.9,10.8-6.2c19.4,11.9,25.1,3.4,37.7-11.3
	c1.6-2.1,3.8-1.9,5.7-2.4c12-3.1,23.3-9.6,36.3-8.5c11,0.3,20.2,8.9,24.9,18.2c6,11.5-0.3,25.1-8,34.1c-5.7,8.5-14.7,14.5-18,24.4
	c-0.7,1.1-1.8,1.8-3,2c-19.9,2.5-27.5,15.8-26.7,34.8c-0.5,4.5-6.3,3.9-9.6,5.2c-2.4-1,0.3-8-0.2-10.5c0.2-3,0-6-0.5-8.9
	c0.4-3.5-6.2-14.1-0.1-13.8c2.6-0.1,5.3,1.1,7.8-0.4c-1.6-2.1-4.6-1.8-7.1-2.4C459.5,256.4,451.2,255.4,442.9,254.3L442.9,254.3z
	 M457.3,264.8c8-2.9,5,9.8,7.7,13.9c1.2,4.5-0.7,8-2.8,11.3c-0.9,1-1,3.6-2.9,2.7c-3.5-0.9-3.5-5.2-5.5-7.6
	C448.6,279.4,448.5,267,457.3,264.8L457.3,264.8z M448.2,290.8c1-0.8,2-2,3.3-1.2c-0.4,9.8-3.9,20.1-3.5,30.2
	c-0.3,11.7,2,23.1,4.4,34.5c1.4,8.8,5.1,16.8,8.6,25c-0.9,2.1,0.5,10.5-3.5,8.7c-0.4-0.1-0.9-0.1-1.2-0.1c-2.9-14.5-7.4-31-9.2-45.7
	c-0.9-11.6-2-23.2-0.9-34.8C446.5,302.9,448.4,295.8,448.2,290.8L448.2,290.8z M442,297.5c0.9-2.5,1.3-5.5,5-6
	c0.1,0,0.1-0.1,0.2-0.1c-0.1,0.4-0.2,0.9-0.3,1.3c-0.5,2-1,4-1.7,6.2c-0.1,5.6-1.4,10.9-1.8,16.4c1.2,12.7,1.2,25.4,3.1,38
	c1.2,6.6,4.2,28.2,8.7,34.5c-3.4-0.1-6.9,0.2-7.4-4.2c-4.9-17.7-6.5-36-8-54.3C439.8,318.6,439.2,307.9,442,297.5z M437.2,304.2
	c0.6,8.2-0.9,16.6-0.5,24.9c1.1,13.8,2.9,27.5,5.5,41.1c1.2,5.6,2.9,11.1,4.3,16.6c0,5.4,0.3,10.6,2.1,15.8
	c-2,14.3-6.2,29.1-9.3,43.5c-1.2,5.7-4.2-3.4-7.4-1.4c-0.4,0.2-0.8,0.4-1.2,0.7c-2.2,0.5-6,3.1-7.7,3.6c0-11,3.4-22.5,3.2-33.8
	c-1.1-30.1-4.2-60.5,1.6-90.4C428.9,317,430.8,309,437.2,304.2L437.2,304.2z M435.7,450.6c-0.9,3.6-2.9,6.1-5,1.3
	c-0.1-2.8,0.8-5.7,3.8-4.2C435.7,448.2,437,448.8,435.7,450.6L435.7,450.6z M430.1,456.1c0.4,0.6,0.8,0.6-0.2,1.2
	c-2.8,1.5-4.4,0.3-5-2.9c-0.7-3,1.6-5.8,5-8.3C427.8,449.2,427.9,453.2,430.1,456.1L430.1,456.1z M391,448.1
	c3-6.1,6.3-11.9,9.6-17.9c1.2-2.7,2,0.1,3.2,1.2c4.9-22,3.2-44.8,8-66.9c1.1-11.7,4.4-22.9,8.2-33.9c1.9-3.9,2.9-9,6-12.1
	c-4.2,23.1-6.7,47.1-5.1,70.8c1,12.9,4.2,25.8,1.8,38.8c-2.5,6.6-0.6,22.4-7.7,25c-2.5,1.7-5.7-0.1-7.6,2.1c-2.3,4-4.8-1.8-13.1-2
	C388.9,453,388.6,452.9,391,448.1L391,448.1z M422,460.3c-2.9-2.6-3.9-7.5,0-9.5C422.7,452.9,421.6,457.5,422,460.3z M417.2,456.1
	c-0.3,1.6-1.2,4.5-1.1,6.6c-2.6-2.1-3-6.7,0.3-8.3C416.8,454.9,417.3,455.5,417.2,456.1L417.2,456.1z M410.8,464.5
	c-2.9-2.6-4.6-7.3,0.2-8.8c0.2,0.9,0.8,1.9,0.6,2.7C411.3,460.1,410.4,462.8,410.8,464.5L410.8,464.5z M406.5,467.3
	c-2.2-0.3-2.7-1-2.7-3.9c0.1-1.7-0.2-3.5,1.4-4.6C406.1,460.5,405.5,465.1,406.5,467.3L406.5,467.3z M390.9,456.1
	c3,1,11.9-0.7,10.5,4.1c-2.2,1.1-4.4,2.3-6.5,3.7c-0.3,0.1-0.6,0.2-0.9,0.4c0.1,0,0.2-0.1,0.3-0.2c-2.5-3-9.8-0.4-8.9-3.1
	S387.4,454.7,390.9,456.1L390.9,456.1z M403.7,469.7c-1.1,0.9-1.9,1.6-2.5,2.1c-1.6-3.3-1-5.1-0.1-7.8
	C401,466.2,402,468.3,403.7,469.7L403.7,469.7z M395.9,473.8c-2-2.1-2.7-6.3,0.1-7.8C396.7,467.2,395.9,471.1,395.9,473.8
	L395.9,473.8z M385.4,464.7c1.8-0.3,5.8,0.7,8,0.1c-1,0.5-2.2,1.3-3.8,2.3c-1.7,1.5-4.4,1.6-5.4,4.2c-0.5,1-2.7,2.1-4,2.4
	C380.5,471.6,382.8,464.5,385.4,464.7L385.4,464.7z M393.3,475.5c-2.7,0.1-4-4.2-2.9-6.5c0.7-0.7,1.5-1.4,2.3-2.1
	c-0.1,0.2-0.1,0.4-0.1,0.6C392.4,470.3,392.2,472.7,393.3,475.5L393.3,475.5z M388.3,482.4c0.5,0.2,0.7,1,1,1.6
	c-5.4,3.9-10.7-7.4-5.7-10.1l0.8,1C384.3,478.4,385,481.1,388.3,482.4L388.3,482.4z M387.3,470.7c1.7,1.5,0.5,5.5,0.6,7.9
	C386.1,475.8,385.3,472.7,387.3,470.7L387.3,470.7z M331.8,526.6c6.9-12.6,17.7-18.4,30.2-9.2c-1.6,0.8-3.3,0.1-5-0.1
	c-5.1-1-12,3.8-13.6,8.9c-1.8,8.3,1.6,17.7-10.2,19.8c-0.5,0-1.2-0.3-1.4-0.7C330.2,539.2,327.7,532.3,331.8,526.6L331.8,526.6z
	 M345.4,527.4c1.2,2.3,4.1,5,4.8,6.5c4.4,6.6,5.9,17.7-2.7,21.8c-3.9,2.5-5,3.7-9.1,0.8c-12.2-11.8,1.9-6.5,5.3-15.8
	C345.2,536.8,344.6,531.6,345.4,527.4L345.4,527.4z M327.8,551.2c2-3.7,3.6,2.5,5,3.7c2.5,2.7-1.2,4.2-3,5.5c-2,2.5,3.7,0.5,4.2-0.3
	c1.6-1.4,3-1.1,4.6-0.3c8.7,3.3,6.5-1.8,11.8-2.3c3.5,5.6,0.9,13.5-3.9,17.7C330.9,587,318.8,564.8,327.8,551.2L327.8,551.2z
	 M343,581.2c9.1-3.6,13.3-13.3,10.5-22.7c-0.1-0.2-0.1-0.3-0.1-0.5c1.6,0.7,3.5,1,4.6,0.1C370.3,558.2,362.6,591.7,343,581.2
	L343,581.2z M378.9,574.6c1,0.6,3.1-0.1,3.1,1.6c1.8,12.4-16.8,19.2-22.6,8.1c2.9-5.2,7-9.6,7.4-15.7c0.2-1.3,0.5-1.1,1.2-0.5
	c4.2,3,1.5,2.5-0.2,5.7C371.7,573.2,375.4,572.4,378.9,574.6L378.9,574.6z M374.6,567.8c-2.7,3.7-8.5-5-9.5-7.4
	c-1.1-1.4-2.5-2.8-3.9-3.9c-2.6-0.3-5.2-0.4-7.8-0.4c0.1-1,0.4-2,0.9-2.9c4.7-8.2-0.6-22-8.3-27.4c0.8-3.1,3.5-5.4,6.6-5.7
	c5.3-0.8,12.6-2.4,14,4.6c2.1,4.8,3,10.2,6.8,14.1c2.1,2.7,8.1,2.2,7.6,6.7C380.6,553.4,380.1,561.6,374.6,567.8L374.6,567.8z
	 M395.7,504.7c-6.8,11.2-13.8,22.7-15.4,35.7c-9.9-2-9.7-14.8-14.4-21.9c-1.4-3-3.9-5.5-6.9-6.9c5.4-5.7,10.5-20.6,15.5-22.4
	c8,1.8,15,5.4,20.3,11.9C395.6,502,396.7,503,395.7,504.7L395.7,504.7z M404.4,491.7c-10.9,17.6-4.7,4.8-18.4-1.2
	c-2.6-1.2-5.3-2.3-8-3.3c-3.8-0.3-3.6-1.8-1.4-4.5c1.2-2.3,0.8-5.3,2.6-7.2c0.6,1.7,0.3,3.5,0.3,5.3c0,3,3.8,7,6.8,6.8
	c1.7,0,3.4,0.6,5-1c0.6-0.5,2.5,0.4,3.8,0.6C397.4,488.3,406.3,487.7,404.4,491.7L404.4,491.7z M399.7,484.8
	c6.1-3.8,13.2-5.9,20.1-7.6c5.1-1.6,11.3-0.9,15.8-3.4c-1.2-1.3-3.5-0.9-5.1-0.9c-11.3,1.5-22.5,4.3-32.3,10.6
	c-2.7,1.5-6.4-0.3-9-3.1c1.4,0.1,3.9-1,8.3-4c0-0.1,0-0.1-0.1-0.2c1.2-0.9,2.2-1.9,3.1-3.1c2.6-1.1,5.1-2.5,7.2-4.4
	c0.9,0.1,2.3-0.6,4.4-2.5c1,0.2,2.7-0.1,5.1-1c1.2,0.2,3.1-0.5,6.4-2.6c1.2,0,3.1-0.9,6.2-3.2c0.7-0.6,1.2-1.3,1.8-1.3
	c3.5,0.3,3.6-2.9,5.7-3.1c9,3.3,18.8,9.6,28.4,11c-7.4-5.5-18.2-8.8-26.8-12.3c-1.6-0.5-1-1.6-1.2-2.5c11.8,2.6,22.9,8.3,34.4,12.3
	c0.1,6-24,4-29.3,7.2c-8.6,2.5-7.1,9.9-12.1,12.1s2.2,11.2,5.8,12c1.6,0.6,2.7,1.4,2,3.1c-4,5.5-12.6-4.2-17.4-5.6
	C414.6,488.4,406.8,487.3,399.7,484.8L399.7,484.8z M417,507.5c0.5,0.3,0.9,0.6,1.4,0.9c1.5,0.9,3,1.8,4.5,2.7
	c4.7,1.2,0.6,8,1.1,11.8c-0.3,3.3-5-2.7-6.5-3.2C414,516.5,417.2,511.5,417,507.5z M414.1,529.8c1-7.6,0.3-10.5,7.6-4.3
	c2.7,3.1,0.2,7.6,0.2,11.2c-0.9,2.2,0.1,17-2.8,14.7C408,540.9,413.1,543.9,414.1,529.8L414.1,529.8z M387.1,632.1
	c10.3-1.4,25.5,4.7,21.4,17.3c-3.9,21.3-35.2,57.6-35.7,13.4C371.7,651.3,373.4,635,387.1,632.1L387.1,632.1z M309.4,824
	c-13.7,4.4-25.1,13.4-38.2,19c-8.8,2.3-18.4,1.7-27.4,0.4c-5.7-2.3,8.3-24.4,12.2-27c5.5-6.2,12.5-7.8,19.6-10.3
	c-15.8-4.6-34,18.3-36.4,32.6c-0.7,7.4-16.8-4.1-19.9-6.1c-2-1.8-5.6-4-4.6-7.2c4.4-10,12.5-18.4,21.5-24.6
	c5.9-3.7,12.2-6.7,19.4-6.8c0.7,0,1.3-0.8,2-1.1c-10-4-23.4,5.3-31.2,11.4c-5.5,4.6-9.7,10.3-13.4,16.4c-0.3,0.6-1.2,0.8-1.8,1.2
	c-2.9-4.5,0.6-9.6,2.9-13.5c5.8-11,17.6-19.7,30.2-20.5c10.4-0.4,20.8,0.5,31.1,1.6c9.5-0.3,18,6.1,24.6,12.3
	C303.1,804.7,316,821.3,309.4,824z M326.7,818.9L326.7,818.9c-5.7,2-13.2,4.8-13.4,0.3c-2.9-12.1-11.7-22.2-22.4-28.4
	c-0.6-0.4-0.9-1-0.9-1.6c2.2-2.1,6.7-1.8,9.7-2.3c5.6,0.3,9.8,5.3,13.6,8.9c2.9,2.7,10,18.5,14.1,23.1
	C327.2,818.8,327,818.8,326.7,818.9L326.7,818.9z M338.6,816.2c-1.4,0.2-2.7,0.5-4,0.8c-1.9,0.7-3.8,1.3-5.8,1.7
	c-0.6-5.3-11.4-21-12.9-23.7c-2.9-3.7-6.3-6.7-11-8c-0.5-0.1-0.9-0.7-1.2-1.1c1.7-1,9.7-4.2,10.9-2.3c6.7,5.3,14.5,9.8,18.2,17.8
	c0.1,0.4,5.3,10.5,7.6,14.7L338.6,816.2z M366.5,784c-2.6,7.1-2.9,15.4-5.6,22.5c0.1,1.5-0.4,3-1.4,4.1c-1.1,1.2-2.6,2-4.2,2.2
	c-1.3,0.6-2.6,0.9-4,1.1l-2.5,0.4c-1.6,0.3-3.5,0.5-5.2,0.8c-0.6,0.3-1.2,0.5-1.9,0.7c1.4-12.3-19.9-31.4-24.3-32.6
	c-1-0.4-1-1.4-0.1-1.8c12.6-4.9,19.6-6.6,24.7-11.2c0.8,2.9,4.4,6.1,5.9,7.6c5,3.5,10.8,4.4,16.8,4
	C366.1,781.9,367.2,781.5,366.5,784z M375.8,761.5c-2.2,8.4-10.4,5.6-16.7,5.3c-4.6-0.8,2.8-11,3.2-14c0-5.6,0.7-4.4,5.3-3.1
	c1.7,0.5,9.8,0.8,13.6-0.2C379,753.4,377.2,757.4,375.8,761.5L375.8,761.5z M382.3,747.5c-2.1-1.4-6.5,0.1-8.5,0.1c-2-0.3-7.1,1-8-1
	c-0.5-2.4-7,0.4-6.5,2.2c1.5,2.5,0.2,5-0.8,7.2c-1.1,2.5-1.2,5.4-3.4,7.4c-0.3,0.3-0.1,1.2-0.2,1.7c1.6,7.2,9.8,4.6,15.2,5
	c1,0,1.5,0.3,1,1.2c-1.4,2.5-1.6,6.8-4.9,7.6c-8,1.1-17.8-3.3-23.2-9.8c3.7-3.9,6.5-9.8,9.8-20.3c1.3-3.5,2.5-7.1,3.5-10.7
	c0.5-2.2,1.3-1.8,2.4-0.9c7.5,5.4,17.1,7,25.9,4.2C385.1,743.6,383.5,745.5,382.3,747.5L382.3,747.5z M503,600.9
	c-10.4,14.5-23.2,27-36.1,39.3c-15.2,13.8-28.7,29.1-42,44.6c-9.4,12-18.6,23.3-26.8,35.9c-3.2,4.5-6.1,9.3-8.7,14.2
	c-1.6,3.4-4.2,4.1-7.3,4.6c-7,1-23.3-0.2-23.6-9.3c5.1-16.9,10.5-34,14.4-50.9c3.3,6.5,6.4,9.9,14.2,5.5c10.5-5.7,16.5-15.9,21-26.4
	c9.6-18-1.5-29.6-20.2-29.1c-5.6,0.3-0.6-6.1,0-8.7c3.3-8.4,6.5-16.8,10-25.1c5.8-12.8,12.3-25.3,19.5-37.3c1-1.9,2.1-1.6,3.5-0.9
	c4,1.9,8.5,2.8,12.9,2.7c7.9-0.1,4.3-10.7,5.5-15.8c0.6-1.5-0.8-10.4,2.3-7.6c6,6,21.2-5,15.2-12.6c2.6-0.1,5.6,0.5,7.8,0.1
	s3.3,0.3,4,2.3c8.7,14.3,12.2-8.3,10.4,26.7c2.4,6.2,16.6,3.3,22.1,3.2c9.3-0.9,18.5-3.1,27.2-6.6c7.7-3,15.2-6.6,22.3-10.8
	c3.7-2.3,5.3,2.5,6.9,5.2c1.5,4.8-2.5,7.8,1.4,14c0.1,12.8,4.6,25,8.7,37.3c4,11.7,8.7,23.2,13.5,34.6c1.1,5.3-3.7,12.7-5,18
	c-7.8,20-17.6,39.2-27.5,58.1c-5.7,11.4-10.8,23.1-15.4,35c-4,5.1-17.4,1.2-22.7-1.5c-3.1-1.4-3-3.7-2.4-6.9
	c0.8-16.4,1.3-32.7-0.5-49.1c-3.1-30.3-0.9-60.9,3.7-91c1.2-6.7,1.8-13.4,3.1-20.1c4.5-8.3,13.4-13.1,19.9-19.2
	c-1-0.3-2.5,0.2-4.2,1c-5.9,3.1-14.4,11.6-15.7,15.2c-2.3,8.9-16.1-1-22.1-1.6c-10.2-2.9-19.7-7.5-29.2-12.2c-1.6-0.6-3.2-2.1-5-1.3
	c5.5,5.3,13.3,7.8,20.2,10.9c9.3,4.1,18.6,8.3,28.6,10.2c3.6,0.8,4.2,1,3.3,4.6C508.4,587.3,508.2,595.3,503,600.9z M500.9,767.4
	c1.1-4,2.1-8,3.2-12c-0.9-6,3.6-4.1,6.5-1.8c-2.7,5.7-2.6,13.6-5.1,19.6C503.3,772.1,500,770.4,500.9,767.4L500.9,767.4z M510.9,838
	l-8.2-4.9c4.7-2.7,11.5-9.6,15-12.6c3.1-2.8,15.7-9.9,19.3-9.2c-9.1,7.1-19.8,13.3-22.9,25.3C513.4,838.3,512.6,839,510.9,838
	L510.9,838z M573.7,808.4c13.3,1.1,27.9,5.1,35.9,16.5c1.8,2.9,5.5,11.9,3.5,14.9c-2.9-1.2-3.6-5.2-6.1-7c-7-6.8-15.8-14.3-26-14.3
	c3.7,3.6,9.3,4.5,13.6,7.4c6.6,3.7,10.9,9.7,15,15.8c1.8,2.6,2.7,6.4-1.2,8c-9.4,3.8-19.3,6.2-29.4,7.3c-1.1,0.1-1.7-0.1-2-1.6
	c-1.1-5.9-3.3-11.5-6.6-16.5c-4.6-6.8-16.2-15.5-24.4-13c2.3,2.6,6.3,2.2,9.2,3.8c7.5,3.5,12.2,10.9,15.4,18.3
	c0.8,3.3,4.4,11.1-1.5,11.1c-4.6,0.5-9.3,0.6-13.9,0.5c-12.7-1.4-23.2-9.9-34.2-15.7c-2.8-1.6-6.3-3.3-4.4-6.8
	c3.1-7.5,8.4-13.8,15.2-18.3C543.7,809.1,558.7,807.2,573.7,808.4L573.7,808.4z M549.6,806.5c-4.4,1.6-9.3,2.8-14.1,2.4
	c-1.8-0.3-3.8,1-5.7,1.9c-7.8,3.7-24.5,13-27.9,21.8c-4.5-2.6-8.9-5.2-13.4-7.8c-2.7-1.5-3-2.7-1.9-5.7c0.2-0.6,0.5-1.2,0.6-1.8
	c7.1-6.9,22.7-20.8,29.2-22.9c3.2-1.2,6.3-3.3,10-2.3C529.4,798.1,536.2,802.7,549.6,806.5L549.6,806.5z M529.8,752.5
	c-3.3,16.4-7.7,28.4-4.4,37.5c-2.6-0.1-6.8,1.1-8,1.4c-3.8,1.7-20.1,12-28.1,20.3c4.1-12.5,7.2-25.3,10.5-38.1
	c0.8-3.1,1.7,0.6,3.4,1c7.2,4.6,6.4-9.1,8.2-13.2c0.6-3.4,2.3-6.7,1.7-10.2c-0.2,0.1-0.4,0.2-0.5,0.4c0-0.1,0-0.3,0.1-0.4
	c-1.8-1.3-6.1-1.3-6.8-3.4c0.5-1.7,0.6-6.8,3.4-5.9C526.9,751.9,534.1,738.8,529.8,752.5L529.8,752.5z M602.3,609.2
	c-2.6-8.1-15.7-56-23.4-55c10.2,15.3,14,33.9,19.5,51.3c3.6,12.5,5.5,25,7.7,37.8c0.8,2.9,0.3,6.7,2.5,8.9c2.2-2.9,0.3-6.8,0.2-10.2
	C606.8,631.1,604.9,620,602.3,609.2z M559,407.1c3.5-0.1,7-1.2,10.5-1.2c2.3-0.2,4.8,1.6,7,0.1c-0.7-0.4-1.5-0.8-2.2-1.1
	C572.2,402.3,554.2,404.1,559,407.1z M514.9,653.7c-9.2,12.4-5.8,30.4,0,43.7c3.5,9.1,14.7,9.7,22.5,5.6
	c14.9-7.8,28.2-42.2,9.5-52.1C537.1,644.8,523,644.4,514.9,653.7z M542,651.3c13.6,5,13.8,20,7.8,31c-4.4,10.9-12,22.5-25.5,20.1
	c-10.6-3.1-12.3-23.1-12.1-32.5C512.1,652.4,526.9,645.8,542,651.3z M547.7,256.1c0.4,3.9-1.2,8.6,1,12.1c0.4-0.6,0.6-1.2,0.7-1.9
	c0.1-4,0.1-7.9,0.1-12.1c0-3.2,1.2-6.3,0.5-9.2C546.7,247.2,547.8,252.6,547.7,256.1z M542.8,655.4c-4.4-3.8-11.5-3.1-16.7-1.5
	c-1.4,0.8-4.5,1.1-4.5,3.1c2.5,0.3,5.3-1.2,8.1-1.6C534.2,654.9,538.5,656.1,542.8,655.4z M516.9,662.6c-0.5,0.6-0.8,1.3-1.1,2
	c-0.4,3-0.7,6.1-0.9,9.2c-0.2,4.6,0.2,8.8,2.2,12.8c2.1,3.5,2.3,8.5,5.7,11c0.2-3.9-2.7-7.4-3.7-11.3c-1.7-4.7-2.5-9.7-2.4-14.7
	C516.6,668.6,518.3,665.5,516.9,662.6z M519.2,274.1c-0.8-0.3-1.6-0.9-2.2-0.6c-5.7,1.9-11.3,4-17,6c-3.8,3.3-10.5,4.9-11.9,9.8
	c5.2-1.3,9.1-6.1,14.1-8.1C507.7,278.5,513.8,277,519.2,274.1z M492.1,185.1c-0.2,0.3-0.4,0.7-0.6,1.1c3.6,0.1,7.2-0.4,10.6-1.3
	C499.9,182.5,494.2,182.7,492.1,185.1z M493.4,188.9c-3.8,1.2-5.7,5.5-8.9,7.7c-7.8,7-17,11.3-27.5,11.8
	c-13.1-0.3-27.4,18.3-33.4-1.4c-0.2,1.4-1.3,2.8-0.6,4.1c6.8,17.6,25.3-1.9,38-0.9c7.6-0.9,15.1-2.9,20.8-8.3
	C485.6,197.8,491,194.1,493.4,188.9z M439.3,63.8c0.1-0.3,0.3-0.7,0.5-1.2c-0.1-5.4,1.7-10.8,0.2-15.7c-2,5.2-1.6,11.1-2.4,16.7
	c0.1,0.9,0.3,1.8,0.7,2.6C438.5,65.4,438.9,64.7,439.3,63.8z M429.1,84.7c0.4-0.2,0.9-0.3,1.1-0.6c1.7-1.9,3.4-3.9,5.1-6
	c0.6-2.4,2.7-4.6,1.8-6.9c-1.8,1.6-2.2,4.1-3.6,6C432.3,79.7,429.3,81.7,429.1,84.7z M417.7,432.3c-0.3-0.5-0.5-1.2-0.9-1.3
	c-2-0.5-4.1-1-6.4-1.4c-0.5,0.4-0.9,0.8-1.3,1.3C410.8,432.5,415.6,433.1,417.7,432.3z M404,649.1c-2.8,2.2-2.9,6.3-4.2,9.4
	c-1.9,5.6-4.8,10.8-8.7,15.2c-1.2,1.4-2.4,2.4-2.9,4C396.4,674.5,404.2,657.7,404,649.1z M303.2,790.4c2.9,4.6,7.3,7.8,10.5,12.2
	c2.1,3.8,4.2,7.3,4.8,11.5c0.2,0.7,1,1.6,1.8,1.6C324,810.2,309.3,790.8,303.2,790.4z"/>
<path class="st14" d="M572.1,121c-2.7-1.6,0.5,4,0.8,4.7c4.1,6.3,8.1,12.7,13.6,18.1c4.6,3.7,8.8,7.9,12.4,12.5
	c4.2,4.6-1.3,3.3,4.6,11.4c2.2,3.6-3.4,3-1.8,6.5c1.7,6.3-2.5,11.9-3.7,17.9c-1,3.8,0.5,7.4,2.5,10.6c3.5,7.6,7.1,15.2,10.3,22.9
	c9.2,21.8,16,44,22.7,66.7c1.6,4.6,1,13.5,4.7,16.4c1.2-1.9,0.3-4,0.3-6.1c-1.3-11-3-21.8-5-32.6c-3.8-17.9-6.7-35.9-11.2-53.6
	c-4.6-19.2-10.5-37.9-17.8-56.2C596.3,139.9,591.4,132.3,572.1,121z M597.1,479.6c3.8,7-5.7,13.7-1,20.5c3.2,4.2,5.3,9.2,7.9,14
	c0.8,1.5,1.8,2.5,3.7,1.6c2.3-0.7,4.8-0.8,6.6-2.5c-0.8-0.3-1.6-0.4-2.4-0.7c-0.4-0.1-0.8-0.3-1.2-0.5c1.2-1.3,3.4-1,4.6-2.1
	c2-2.4,5.5-4.5,6.1-7.7c-0.4,0.3-0.9,0.5-1.3,0.7c-0.7,0.3-1.3,0.6-2,1c0.3-0.6,0.7-1.2,1-1.8c0.5-1,2.3-1.8,1.2-3.2
	c-0.6-0.1-3.4,1.6-4.4,2.1c0.2-3.1,3.3-4.9,4.2-7.6c0.8-3.5,3.4-7.7,1.6-11.1c-2.1,2.6-1.8,6.8-4.8,8.5c0-0.6,0-1.2,0.1-1.8
	c1.3-4.3,3.3-8.5,2.9-13.7c-4.3-4.9-2.5-12.2-5.7-17.7c-1.9,1.3-0.3,3.5-1.8,4.8c-1.2-1.3-0.7-3.3-1.3-4.9
	c-2.2-4.9-4.9-10.7-9.5-13.5c0,4.6,3.7,8.3,3,13c-11.6-14.7-8.8-34.4-23.8-5.2c-0.3,4.6,6.1,8.6,8,12.8
	C591.7,469.4,594.4,474.5,597.1,479.6z M516.6,837c-2,3.5,1.6,5.2,4.4,6.8c11,5.8,21.4,14.3,34.2,15.7c4.7,0.2,9.3,0,13.9-0.5
	c5.9,0,2.3-7.8,1.5-11.1c-3.3-7.4-7.9-14.8-15.4-18.3c-2.9-1.7-6.8-1.2-9.2-3.8c8.1-2.5,19.8,6.2,24.4,13c3.3,5,5.5,10.7,6.6,16.5
	c0.3,1.5,0.9,1.8,2,1.6c10.1-1.1,20-3.5,29.4-7.3c3.9-1.6,3-5.3,1.2-8c-4.1-6.1-8.4-12.2-15-15.8c-4.2-2.9-9.8-3.8-13.6-7.4
	c10.2-0.1,19,7.5,26,14.3c2.5,1.9,3.2,5.9,6.1,7c2-3.1-1.7-12-3.5-14.9c-8-11.4-22.6-15.4-35.9-16.5c-14.9-1.1-29.9,0.7-41.9,10.3
	C525,823.1,519.7,829.5,516.6,837z M493,174.6c8.9-2.1,18.3-3.6,26.7,1.1c10,5.5,18.1,16.7,18,28.3c-1,20.1-20.5,31.9-29.5,48.3
	c28,3.3,16.5,7.1,30.8-7.5c9-7.9,19.9-13.2,28.8-21.2c1.6-1.5,3.1-3.9,6.1-3.3c2.6-1.4,2.6-5.9,5.5-7.2c0.7,1.9-0.4,3.3-0.9,4.9
	c0.1-0.2,0.3-0.4,0.5-0.4c2.5,0.1,3.1-2.3,4.5-3.6c6.2-5.2,7.6-13.4,10.2-20.5c2.1-3.2,1.2-6.6,2.2-9.9c0.8-1.9,1.2-4.4,1.8-6.3
	c3.8-4-1-11.1-1.8-15.2c3.2-3.7-6.5-5.5-7.2-8.7c1.8-0.6,3.1,1,4.8,1.1c-2.7-4.6-8.1-7.2-11.2-11.6c-4.4-5.3-8.4-11.1-12.5-16.8
	c-4.8-9.4-8.1-9.7-17.9-12.8c-0.7-0.3-1.3-0.4-0.7,1c4.1,9.4,3.7,19.6,4.1,29.5c-1.3,6.2-6.6,9.8-11.8,12.5
	c-15.6,7.4-32.5,11.5-49,16.2C493.7,173,491.3,174.3,493,174.6z M578.5,255.1c1.5-2.3,2-5.4,2.4-8.1c0.3-8.7,1.9-17.5,1-26.1
	c-1.8,0.3-3.1,1.8-3.1,3.6c-0.1,8,0,16,0,24.4c-0.2,1.7-0.3,3.3-0.5,5C578.3,254.4,578.3,254.8,578.5,255.1z M573.1,282.5
	c2.1-3.1,1-7.3,1.6-10.9c0.5-7.3,0.1-14.5,1.3-21.7c0.5-8.3,0.3-16.7,1-25c0.3-2.3-1.8-1.2-2.8-0.6c-2.3,2.4-8,3.6-6.5,8
	c1,10.6,1.8,21.5,3.3,32.1C572.2,270.3,570.3,277.2,573.1,282.5z M537.8,256.7c0-0.6,0.2-3.4,0.4-6c-1.2,1.1-2.5,2.2-3.8,3.2
	C529.3,256.7,538.1,260.9,537.8,256.7z M537.3,274.7v-1.2c-0.1-0.6-0.1-1.1-0.2-1.7c-4,2-3.1,7.8-4.2,11.7c-0.2,1.3,0.4,3,2,3.1
	C537.3,285.1,536.5,278,537.3,274.7z M487.8,492.6c9.8-8.8,19.4-18.1,31.2-24.4c5.3-2,4-5.8,2.6-10.5c-1.1-3.3-5.8-15.2-10.2-12.3
	c-5.7,3.6-12.4,4-18.8,3.1C497.9,468.1,483.1,474,487.8,492.6z M482.2,177.8c0.7-0.1,1.4-0.4,2-0.9c-3-3.3-5.9-9.5-7.7-12.5
	c-2.7-5.7-5.9-11.2-6.2-17.7c-1.4-14.7-5.1-30.2,0.8-44.3c-19.9,0.8-41,6.1-58.3,15.4c0.6,1.5,3.2,1.7,4,2.9
	c2.2,2.4,4.1,5.1,5.7,7.9c8.1,14.7,11.9,31.4,10.9,48.1c-0.5,4.4,5.8-4,13.2-2.6C471.9,175.6,459.5,186.6,482.2,177.8z M466.3,182
	c-2.4-0.1-3.5-1.4-5-2.8c-3.4-1-6.9-2.3-10.3-2.6c-11.5-3.6-16.7,8-23.9,10.5c-0.2,1.4-0.7,3.3-0.1,3.2c4.4-0.9,8.5,0,12.7,1.2
	c1.7,0.5,3.5,1.8,5.3,0.5l1.1-0.7c4.4-2.8,10-6.8,15.6-8.4c1.4-0.4,2.9-0.6,4.4-0.6C466.2,182.1,466.2,182,466.3,182z M411.9,205.9
	c3.5-4.7,12.2-8.9,13-14.4c-5.7-0.1-11.2,2.9-16.9,0.6c-3.8-1.2-7.8-2.6-9.2-7.1c-0.6-1.4-1.6-4.6-3.5-3.3
	c-3.6,10-14.2,22.4-9.9,33.2c-0.2,3.8,2.2,7.2,4.6,10c1.2,2,2.2,4.2,3,6.4c1.6,4.3,5.7,7,9.8,8C396.2,227.9,404.2,214.6,411.9,205.9
	z M374.5,489.1c-5,1.8-10.1,16.7-15.5,22.4c3,1.4,5.5,3.9,6.9,6.9c4.7,7.1,4.5,19.9,14.4,21.9c1.6-13,8.6-24.5,15.4-35.7
	c1-1.6-0.1-2.7-0.8-3.6C389.6,494.5,382.5,491,374.5,489.1z M333.2,546c11.8-2.2,8.3-11.5,10.2-19.8c1.6-5.2,8.5-10,13.6-8.9
	c1.6,0.1,3.4,0.8,5,0.1c-12.4-9.2-23.3-3.5-30.2,9.2c-4,5.8-1.6,12.6,0.1,18.8C332,545.7,332.8,546,333.2,546z M275.5,789.3
	c-10.3-1.1-20.7-2-31.1-1.6c-12.6,0.8-24.4,9.6-30.2,20.5c-2.3,3.9-5.9,9-2.9,13.5c0.6-0.3,1.4-0.6,1.8-1.2
	c3.6-6.1,7.8-11.8,13.4-16.4c7.8-6.1,21.2-15.5,31.2-11.4c-0.7,0.3-1.3,1.1-2,1.1c-7.2,0.1-13.5,3.1-19.4,6.8
	c-9,6.2-17.1,14.6-21.5,24.6c-1,3.2,2.6,5.4,4.6,7.2c3.1,2,19.2,13.5,19.9,6.1c2.4-14.3,20.6-37.1,36.4-32.6
	c-7.1,2.5-14.1,4.1-19.6,10.3c-3.9,2.6-17.9,24.7-12.2,27c8.9,1.3,18.6,1.9,27.4-0.4c13.2-5.5,24.6-14.5,38.2-19
	c6.6-2.7-6.3-19.3-9.4-22.3C293.5,795.5,285,789,275.5,789.3z"/>
</svg>
