<?xml version="1.0" encoding="utf-8"?>
<!-- Generator: Adobe Illustrator 25.2.3, SVG Export Plug-In . SVG Version: 6.00 Build 0)  -->
<svg version="1.1" id="Слой_1" xmlns="http://www.w3.org/2000/svg" xmlns:xlink="http://www.w3.org/1999/xlink" x="0px" y="0px"
	 viewBox="0 0 864 864" style="enable-background:new 0 0 864 864;" xml:space="preserve">
<style type="text/css">
	.st0{fill:none;}
	.st1{fill:#291F1D;}
	.st2{fill:#59A659;}
	.st3{fill:#745448;}
	.st4{fill:#B5A693;}
	.st5{fill:#C9734B;}
	.st6{fill:#520000;}
	.st7{fill:#BE6D47;}
	.st8{fill:#DA3341;}
	.st9{fill:#CF9B58;}
	.st10{fill:#EAAFAF;}
	.st11{fill:#B27C3E;}
	.st12{fill:#FFFFFF;}
	.st13{fill:#363233;}
	.st14{fill:#FFB2B2;}
	.st15{fill:#A3644B;}
	.st16{fill:#80776B;}
</style>
<path class="st0" d="M213.3,463.2c-3.4,11.5-9,22.4-11.3,34c6.1-2.9,11.5-7.4,17.4-10.8c6.5-2.4,9.6-7.1,11.5-13.4
	c0.6-3.6-2.6-3.8-0.3-8.7c6.4-17.3,11.1-35.2,13.9-53.4c2.6-8.8-20,3-24.1,3c-5.3,1.5-1,8.7-2,12.6
	C218.3,439.2,216.5,450.5,213.3,463.2z"/>
<path class="st0" d="M713.1,180c1.4-0.2,2.8-0.5,4.1-1C715.7,172.8,711.6,174.1,713.1,180z"/>
<path class="st0" d="M381.5,332.3c0.3-12.9-20.5-14-19.8,0.3C361.2,345.9,382.2,345.4,381.5,332.3z"/>
<path class="st0" d="M456.7,706.8c0.6,3.6,5.3,2.8,7.9,3.8c9.8,2.4,19.5,4.6,29.2,7c8.3,2.1,16.5,4.6,24.8,6.9
	c1.8,0.4,3.3,0.1,2.9-2.3c-0.9-9.3-4.8,5.9-7.5-13.2c-1,0.7-1.9,1.5-2.9,2.2c-0.7,0.2-1.4,0.3-2.2,0.3c2.8-6.5,4.5-13.4,5-20.5
	c1.5-12.4,0.1-25.3,0.7-37.9c0-2.4-0.7-3.2-3.2-3.2c-19.4,1.8-40.3-4-58.6,3.7c-9.1,5-19.4,6.3-29.5,7.9c-5.4,1.5-2.3,9.6-2.9,13.7
	c0.6,4.7,6.6,2.9,9.9,4.1c6.5,1.3,13,2.2,19.4,3.9C460.6,685.5,455.5,698.8,456.7,706.8z"/>
<path class="st1" d="M350.3,64.8c-1.2-1-0.4-2.3,0.6-3.7c0.7-0.3,1.5-0.6,2.2-0.8c-1,4.6-0.1,9.3,2.3,13.3c1.1-2.1-1-3.6,1.5-6.6
	c1.4-2.2,0.4-5.9,0.3-8.9c-0.7-1.1-0.6-2.5,0.3-3.5c0.2,4,3.7,7.6,2.9,11.2c1.5,4.4,1.4,11.8,2.2,15.5c4.3-10.2,6.6-22.4,15.1-30
	c1.6,4.5-7.4,15.8,3.6,10.2c0.2-4.7,1.6-7.3,7.5-9.6c-1.4,2.9-3.4,5.7-4.9,8.5c0.8,5.7-3.8,9.7-4.3,14.9
	c2.3-1.4,17.7-23.5,17.7-18.3c-1.2,3.6-8.6,10.5-6,13.5c5.7-3.7,6.9-12.6,13.5-15.3c0.5,5-6.9,9.1-5.2,14.7c5.9-2,8.4-9.4,14.1-11.3
	c-0.8,2.9-3.4,9.5-6.2,12.6c6-0.4,11.4-3.8,17.5-4.3c8.9-0.6,19.5-3.9,27.8,1h-0.5c1.8,0.9,3.8,1.3,5.7,1c0.5-0.1,1.1,0.4,1.7,0.6
	c-1.6,2.1-5.2,1.1-6.2,3.6c8.2,1,17.6-5.7,24.6,2.4c0.6-0.2,1.2-0.3,1.9-0.4c0.3,0.2,0.5,0.3,0.8,0.4c-0.4,0.4,3.7,2.9,6.5,4.7
	c1.3,0.3,2.5,0.9,3.5,1.7c1.2,1,3.1,1.1,4.5,1.8l3.7,2.1c2.6,0,5.3,1.8,8,1.9c0.2,0,0.6,0.6,0.6,0.8c0.2,2.5,0.5,2.7,3.7,2.5
	c0.2,0.1,0.5,0.2,0.8,0.2l-0.6-0.4c5.3-1.1,7.2,6.1,11.9,3.3c0.6-0.3,1.9,0.5,2.7,0.8c-0.6,0-1.1,0.2-1.6,0.5
	c-0.5,0.4-1,0.8-1.4,1.3c15.5,3.7,31.8,8,47.5,5.8c-11-4.6-23.5-5.2-34.5-10.3c-17.8-6.3-36.9-13.6-48.7-29
	C472,47,461.7,25.7,443.5,12.5c-15.2-11.3-37.4-11.7-53.3-1.3c-18.1,11.4-28.1,32.3-39.3,49.6c-2.2,3.1-5.8,3.9-3.2,8
	C348.5,67.4,349.3,66,350.3,64.8z"/>
<path class="st2" d="M707.7,157.5c3.6,0.4,7.3-0.8,10.9-1.1c3-0.8,3.1-7.5,2.8-10.1c-4.4,2.6-8,5.9-12.4,9.2
	C708.5,156.2,708.1,156.8,707.7,157.5z M707,159.3c2.3,6.4,8.6,10.8,12.1,16.7c0.5,0.5,1.1,0.9,1.8,1.2c-0.7-4.5,0.8-10.9,0.8-14.8
	c1.4-7.1,11.7-3,16.8-3.9c-4-4.9-8.7-9.2-14-12.8c-0.4,2.4-0.7,4.8-0.8,7.3C723,163.1,713.6,159.1,707,159.3z M722.7,177.4
	c5.4-0.4,10.3-12.1,14.2-15.2c0.1-0.2-0.2-1.2-0.4-1.2C718.8,159.3,726.3,167.9,722.7,177.4z"/>
<path class="st3" d="M285.4,132.2c1.3,2.1,2.4,2.4,4.3,1.1c5.6-4.1,11.2-8.3,16.8-12.4c2-1.5,2-2.7-1-3.3
	c-6.3-3.6-9.8-10.3-14.4-15.6c-5.1-7-11-3.6-11.9,2.9C277.9,114.5,280.1,124.1,285.4,132.2z M589.5,109.4
	c-9.5,2.9-16.9,8.7-25.5,13.9c-6.1,3.3-13,6.5-20.3,6.4c-0.5,0-1,0.7-1.7,1c6.6,3.6,43.1,23.7,45.9,12.6
	C592.3,135.8,602.2,112.3,589.5,109.4z"/>
<path class="st4" d="M308.5,233.5c59.1-5.5,126.9-29,179.9,9.4c-62.3-20.1-123.3,23.2-185.9,19.1c0.9,2.5,3.8,2.5,5.9,3.4
	c5.7,2.6,12.4,3.9,17.7,7.3l-0.4,2.6c19.9,2.7,40,3.5,60.1,2.2c38.9-2.9,77.7-8.2,114-22.6c2-0.8,4-1.5,5.9-2.4
	c4.8-2.5,9.5-5,14.2-7.5l-0.4-0.8C506.2,227.4,485,216.6,464,210c-15.3-4.9-30.9-10-46.8-10.7c-7.5-5.3-16.1-1.7-24.5-3.8
	c-10.2-2-20.7-2.2-31.1-2.1c-42.5-2.7-84,8.7-125.6,15.9c-14.8,1.6-30.5,5.8-45,1.3c-7-2.2-14-3.1-21.1-4.6
	c-12.7-1.4-22.7-8.5-32.4-16.2c-1.3-1-2.9-2.1-4.5-3.1c3.8,6.5,8.4,22.3,13.3,32c0.3,0.4,0.5,0.9,0.8,1.3c0.9,1.7,1.9,3.3,3.2,4.8
	c3,0.8,5.7,1.4,8,1.8C207.7,235.1,258.7,239.3,308.5,233.5z M497.5,235.6c3.6,1.1,6.3,5.5,6.9,9.4c0.1,4.3-2.5,6.1-5.7,7.1
	c-2.5,0.8-5.4,1.1-7.7,1.8c-2.8-0.2-5.2-0.4-7.7-0.6c-0.4-0.1-0.8-0.6-1.3-0.9c2.3-0.5,4.7-0.9,7-1.1
	C499,250.1,505.8,250,497.5,235.6L497.5,235.6z M469.3,218.6c-0.7,0.1-1.4,0.1-2.5,0.2c-14.9-3.7-29.9-5-45.1-7.2
	C437.7,209.6,454.1,214,469.3,218.6L469.3,218.6z M404.4,201.6c3-0.4,5.7-0.8,8.4-1.2c0.3-0.1,0.7,0.6,1.2,0.9
	c-3.8,0.8-8.2,1.8-12.1,1.2C402.8,202.5,403.7,202.2,404.4,201.6L404.4,201.6z M386.5,200.4c2.1-0.8,3.8-1.7,5.6-2.5
	c0.2-0.1,0.8,0.6,1.3,0.8c-2.5,1.2-5.5,3.4-8.1,2.6C385.7,200.9,386.1,200.6,386.5,200.4L386.5,200.4z M321.7,197.4
	c0.3-0.3,1.2,0,1.8,0c-1.2,2.9-3.8,4.7-5.9,7.3l-1,1c-0.4,0.3-0.7,0.6-1,0.9C315,203.2,320,200.4,321.7,197.4L321.7,197.4z
	 M303.3,199.3c0.5-0.3,1.1-0.4,1.7-0.5c-0.2,0.6-0.2,1.3-0.6,1.7c-2.8,2.9-5.8,5.8-8.9,8.7C297.4,205.4,299.7,201.9,303.3,199.3
	L303.3,199.3z M284,202c0.3-0.2,0.7-0.1,1-0.2c-0.1,0.3-0.2,0.7-0.4,1c-1.8,2.6-3.6,5.2-5.6,7.8C279.3,206.9,281.5,204.4,284,202z"
	/>
<path class="st5" d="M688.8,225.9c-4.8,23.4-9.6,46.5-13.6,70.4c-3.3,14.7-7.5,30-8.6,44.9c3.8-0.9,7.5-3.1,11.7-1.3
	c0.8,0.1,1.6-0.3,2-1c3.4-14.8,5.9-29.9,8.4-45c2.6-12.3,4.3-24.9,7.1-37.1c1.1-3.3,1.1-6.9-0.1-10.2
	C692.2,240.1,692.7,231.9,688.8,225.9z"/>
<path class="st6" d="M301.3,259l2.4-0.2c0.1,0.1,0.2,0.1,0.4,0.1c3.5,0.8,8.5,1.5,11.9-0.4c5.2,1.2,6.1-7.1,9.1-10.1
	c4.2-5.2,9.1-9.7,13.7-14.7c-6.4-0.4-12.8,1.7-19.2,2.3c-4.5-0.1-2.3,16-15.8,7.7C300.8,244.4,293.9,259.9,301.3,259z M445.5,233.4
	c6.4,0.3,13,1,19.3,0.5c-8.3-3.2-16-4.8-25.1-6.8c-9.6-2.2-19.9-1.3-29.6-1.6c1.8,1.5,5.8,4.6,8.2,3.8c6.4-2.4,7.2-0.8,11.1,5.4
	c0.8-2.5,0.4-6.2,3.4-6.8c2.6-0.6,5.8-0.9,8.2,1.8C442.3,231.2,443.9,233.2,445.5,233.4z"/>
<path class="st7" d="M231.6,264c0.7,1,8.4-1,10-2.5c1.3-6,1.2-12.6,2.2-18.7c0.4-2.9-0.6-4-3.4-4.2c-5.5-1-8.4-1.2-7.4,5.3
	C232.8,250.5,230.1,257.7,231.6,264z M553.2,75.5c51.2-1,102.5-1.2,153.6,1.3c8.7-0.1,5.6,9.5,4.8,15.1
	c-1.8,22.5-6.5,44.6-10.8,66.8c-1.3,6.9-2.6,13.9-3.8,20.8c-1.7,6.1,6,5.2,9.6,4.1c4-1.9,3.4-7,4.3-10.7c1-5.2-7.7-8.9-7.7-13.8
	c0-1,0.4-2,1-2.9c3.6-3.8,9.4-7.4,11.4-12c2.4-10.1,2.2-20.9,4.3-31.1c0.3-7,8.9-45,3.6-46.5c-76.6-3.8-154.7-3.3-231.2-2.4
	c5.6,4.8,10.9,11.4,19.1,11.3C525.2,75.3,538.9,75.5,553.2,75.5z M253,146.8c2,0,4.4-0.3,5-3.2c1.5-8.4,2.6-16.7,4.5-24.9
	c2.2-10.4,4.4-20.8,7.7-30.9c2.5-10.5,8-11,19.1-11.4c13.5-0.2,27.1-2,40.5-1c2.4,0.2,4.5,0.6,6.4-2c0.7-2,10.2-10.3,6.1-10.4
	c-22.7,0.5-45.4,0.6-68,1.9c-6.3,0.1-11.6,3.5-12.6,9.7c-7.4,21.1-10.9,43.2-14.8,65.1C245.4,148.1,244.2,146.9,253,146.8z"/>
<path class="st8" d="M508,317.5c2.9,6.4,13.6,1.1,7.6-6.9C510,307.9,506.3,312.2,508,317.5z M523.8,297.9c-3.2,0.2-6.8,4.5-9.4,0.8
	c-10-12.7-13.7-6.2-10.6,6.8c-0.1,2.9-3.5,1.6-5.5,1.8c-7.3,0.3-7.5,6.1-2.4,9.6c1.6,0.6,3.2,1.8,4.9,1.9c2.2,0.1,2,1.1,1.5,2.5
	c-4.6,8.4-0.5,15.7,7.9,8c4.9-7.7,11.5,10.7,15.5,1.9c1-3.1-0.8-5.6-1.5-8.2c-1.5-3.1,9.3-0.7,10-5.5c0.5-5.7-12.5-4.7-10-8.4
	C526.1,305.6,531.8,296.9,523.8,297.9z M506.2,320.4c-6.1-9.8,5.1-18.3,12.5-11C526.3,318,513.1,328.5,506.2,320.4z"/>
<path class="st9" d="M717.8,183.7c-1.5,4.8-1.3,11.2,4.8,12.2c0.1-1,0.3-1.9,0.3-3c0.5-3.9,0.6-7.8,0.3-11.6
	C721.5,181.6,718.6,182,717.8,183.7z"/>
<path class="st10" d="M735.2,178.9c-7.3-1.8-7.2,1.5-9.1,7.8c0.3,6.4-1.9,11,6.2,12.5c6.3,0.8,20.4,9.9,23.9,2.1c2-4,0.9-9.3-2.3-13
	C749,182.5,742.2,180.2,735.2,178.9z M271.8,654.7c2.4-9.1-4.3-16.8-4.5-25.6c0-0.8-1.5-2.1-2.6-2.4c-8.3-2.8-17.5-6.2-26.2-4.5
	c-2.4,0.5-4.7,1.3-6.8,2.5c-6.5,4.5-17.5,6.8-16,17c1,7.3,14.7,8.4,14.7,1.4c1.5-5.6,4.4-11.3,9.2-14.7c0.3,1.3-0.2,2.7-1.1,3.7
	c-4.1,6.7-7.5,13.5-5.6,21.8c0.7,8.1,14.2,18.7,19.3,7.9c1.1-2.2-0.3-3.4-1.3-4.9c-4-6-7.8-17.1-1.8-22.7c0.1,4,0.3,7.3,0.4,11.7
	C250,656.9,267.1,670,271.8,654.7z M152.7,334.5c-0.4,1.1-0.4,2.4-1.2,3.3c-11.1,12.9-12.5,35.9,2.3,46.4c9,4.1,17.4-1.6,18.1-11.4
	c0-0.5,0-1.1-0.1-1.6c-0.2-0.8-0.6-1.7-0.8-2.5c-2.7,0.7-3.6,2.7-5,4.8c-5.2,6.8-8.7-1.7-8.3-6.9c-0.1-1.1-0.1-2.5-0.8-3.4
	c-8.6-11.7-0.4-29,12.1-34.3c1.3-0.6,2.6-1,4-1.3c-9.1,6.7-17,14.1-16.5,26.3c0,4.5,2.2,6.9,6.3,7.9c2.7,0.6,5.9,3.9,8.6,3.6
	c5.6-2.1,10.9-4.7,13.6-10.4c1.5-2.9,1.6-6.3,2.7-9.4c2.4-5.6,7.7-11.8,14-11.8h0.4c-2.9,3-6.5,5.2-9.4,8.3
	c-5.3,6.4-7.3,20.5,3.6,22.3c2.9,0.1,5.9,2.5,8.8,2.3c7.9-1.9,14.4-10.8,13.7-18.8c-1.3-4-0.6-16-6.3-15.6c-1.5,0-3-0.4-4.2-1.3
	c-0.8-0.7-1.7-1.3-2.5-1.9c-11.1-7.6-25.2-7.1-37.5-2l-0.6,0.2c-2.9,1.2-5.6,3.3-9.1,2.6c-13.3,0.4-25.6-12.1-34.5,2.5
	c-4.4,7.8-3.7,25,8.7,21.6S143.5,339.4,152.7,334.5z M706.5,192.4c9,0.7,8.7,7.5,7.6-6.1c0.9-4.5-7.7,2-10.3,1.7
	c-3.4,0.6-2.6,4.5-5.2,6.1c-9.2,4.7-18.7-1.4-28.4-2.2c-1.7-0.2-3.3-0.1-5,0.1c-4.2-0.1-30.2,2.4-26.6,9.1c4.9,7.8,7.2,24,19.7,19
	c-1-2.8-4-4.4-4.6-7.5c5,1.5,7.2,7.2,11,10.6c2.9,4.2,17.2,7.1,16.3-0.8c-0.6-3.4,1-5.4,4.3-6.4c1-0.6,1.7-1.6,1.8-2.8
	c-0.8-10.3-10.9-15.1-19.4-18.4c0.7-0.5,1.5-0.8,2.4-0.8c1.4,0.1,2.8,0.5,4.1,1.1c10.9,2.8,15.3,10.8,16.4,21.3
	c8.9,2.2-0.3,8.7,3.8,15.2c2.9,9.4,5.2,25.7,17.7,25.9c9.6-2.7,8.5-16.5,6.4-23.8c-2-12-9.2-21.4-15.8-31.3
	c14.7,7,24.8,37.8,18.1,53c10-1.6,13-14.7,11.2-23.7C730.2,215,718,203.3,706.5,192.4z M363.6,555.3c2-4.1,2.7-4.7,7.1-3.5
	c2,0.6,3.2,0.1,3.1-2.2c-0.1-7.3,0.1-14.5-0.1-21.8c0.1-1.3-0.1-2.7-0.4-4c-1.4-7.4-7.3-13.2-11.4-19.4c-4.7-6-11.4-8.7-18.6-10.2
	c-13.4-2.1-18.4,12.7-8,20.9c6.4,6.1,17.8,0.4,23.1,8l-0.9-0.2c-8.2-1.5-16.1-4-24.1,0c-10.4,3.8-10,18.7,0.4,22.2
	c5.4,1.6,7,0.7,10.6-3.9c2.9-2.5,6.5-7.1,10.8-6.5c-5.3,5-11.9,8.5-11.5,17.7C342.4,565.2,359.6,566.5,363.6,555.3z"/>
<path class="st11" d="M212.8,586.5c14.6,1.5,29.2,3.7,43.9,4.3c10.4,1.8,10.5-3,13.4-11.7c3.2-7-7.5,3.3-10.4-5.8
	c-14.2-28.1-42.3-52.1-35.5-86.3c-33.4,16.3-51.7,46.3-46.5,83.8c1.5,4.8-0.4,12.8,6.8,12.4C193.9,584.5,203.2,586.2,212.8,586.5z
	 M655.4,247.1c2.4,9.5,4.2,14.9,4.2,18.6c0,6.3-5,7.6-19.4,15.3c-35.2,24.1-64.8,52.4-50.3,98.4c7.2-12.6,18.2-22.5,33-24.8
	c2.5-0.5,2.9-2,3.2-3.8c3.8-23.7,29.7-37.6,35.1-5.6c5-2.7,4.8-24.4,7.2-31.3c2.7-14.9,5.8-29.9,8.8-44.7c2.9-14.2,5.7-28.4,8-42.6
	c-9,5.5-17.2,5-24.4-3.1c0.2,1.5,0.1,3.1,0.7,4.4C668.2,245.3,651.5,236.5,655.4,247.1z M257,248.8c-14.2-21.7-9.4,0.4-12.5,11.8
	c-0.8,4.4,13.3-2.7,15.8-2.9C266.9,255.9,259.1,251.8,257,248.8z M642,518.5c-3,6.9-5.9,13.7-8.9,21.2
	c-5.9,15.8-11.8,32.5-13.5,49.1c9.4-5.2,18.7-11.7,28.3-17c1.4-0.9,2.4-2.2,2.8-3.8c1.8-21.7,2.1-43.8,3.6-65.4
	C647,505.3,644.6,511.7,642,518.5z M219.8,410.9c7.8-2.4,15.6-4.4,23.3-6.7c4-2.7,2-8.9,3.6-13.3c1.3-11.9,3-23.7,4.1-35.5
	c1.5-4.5-10.6,5.5-12.5,5.7c-7.3,3.9-14.9,6.9-23.3,7.5c-0.8,0.1-2.2,1.7-2.2,2.7c-0.5,7.2-1.1,14.7-0.6,22c2.1,5.2,3.8,10.6,5,16.1
	C217.5,411.2,218,411.5,219.8,410.9z M409.2,552.5c-6.1-30.2,5.2-27.5-24.6-28.8H384C391.9,533.5,399.7,544.3,409.2,552.5z
	 M678.2,376.5c-3.2,1.6-6.5,2.7-10,3.4c-5.3,0.6-0.9,6.8-1.4,10c0.3,7,0.5,14,0.7,21.7c-1.7,5.7-2.2,11.8-3.8,17.5
	c0,2.8-7.5,13.9-1,12.1c7.6-3.8,18.4-5.3,22-14c3.3-15.8,3.3-33.4-1.9-49C681.4,374.5,681.7,374.7,678.2,376.5z M448.4,561.9
	c-11.1,11.1-1.7,22.5-11.9,24.6c-0.7,0.2-1.4,0.3-2.2,0.3c-2.8,0-5.2-1.2-7.5-2.5c-18.4-9.8-36.5-19.9-55.1-29
	c-2.5-1.2-4.3-1-5.5,1.6c-2,4.3-5,8-9.7,9c-5.4,0.5-8.3,6.3-14,5.1c-4.3-2.7,3.1-25-6.6-22.1c-5.1-2.2-10.3-3.8-16-3.3
	c-3.1,0.2-5.1-3.8-3.4-6.3c2.1-2.9,6.1-4.3,7-8.2c-7.7,1-16.9,3-23.5,6.9c-7,7.2-6.3,20.4,2.9,25.9c14.5,7-2,20.7-6.8,29.4
	c46,2.6,92,4.3,138.1,5.2c27.6,0.5,55.3,0.7,82.9,0.8c5.9-0.5,0.6-13.9,1.5-17.7c0.6-3.7,1.8-7.2,1.2-11.1
	c3.9-21,18.6-39.9,30.9-57.1C513,519.4,473.5,530.7,448.4,561.9z M298.2,78.7c-7.2,0.6-13.9-0.5-20.9,1.9c-2.7,2.1-3.9,5.2-4.7,8.2
	c-5,18.6-8.7,37.4-12.6,56c8.5-0.3,16.3-5.7,24.4-8.4c-6.5-9.1-9.6-20.1-8.8-31.3c0.2-18.5,38.5-9.7,55.4-27
	C320.7,77.1,309,79.1,298.2,78.7z M636.7,180.6c-3.2-1.3-9.4,0.1-11.2,2.7c2,1.2,4.3-0.2,6.4-0.8c3.6-1.2,7.3,2.9,10.8,0.9
	c14.7-10,34.8-13.6,49.8-2.4c1.5,1.1,1.8,0.7,2-1.2c5-32.3,12.6-64.1,15.2-96.8c1.5-6.4-16.5-3.3-20.6-4.3
	c-59-0.5-118.6-1.2-177.4,0.1c25.8,14.7,57.2,15.4,83.1,29c9.2,11,1.2,28.6-5.6,39.2c-0.7,1-1.3,1.6,0.7,1.8
	c11,1.3,21.6,0.1,31.6-4.8c0.9-0.5,1.2-0.2,1.2,0.5c0,1.8-2.4,6.4-4.5,9.1c2,1.3,5.1,0.9,7.7,1.5c5.5,1.3,13.9,7.9,14.7,13.2
	c-3.3-0.6-11-7.6-13.5-4.1c2.9,1.8,7,5.6,7.6,8.7c0.1,2.6,4,4.4,4.1,7.4C638,180.5,637.2,180.8,636.7,180.6z M654.8,488
	c-1.5,3.7-3,7.4-4.5,11.1c-0.2,0.5,0.1,1.2,0.1,1.8C654.8,501.1,657.9,490.8,654.8,488z"/>
<path class="st12" d="M372.6,228.1c-2.5,0.1-4.8,0.2-7.2,0.4C363.6,232,370.9,234.6,372.6,228.1z M420.7,232.9
	c-0.9,1.7-1.8,3.4-2.6,5c2-0.3,4-0.6,6.1-0.6C427.2,235.4,424,231.7,420.7,232.9z M369,373.8c9.3-8.8,18.5-17.7,28.1-26.9
	c6-4.5,11.4-10,16.9-15.1c0.6-0.6,3.9-2.5,0.3-3.8c-8.4-3.2-15.9-8-23-13.5c-1.2-1-3.4-2-4.5-1.6c-8.9,3.6-18,3.4-27.2,2.2
	c-1.7-0.3-3.4,0.2-4.6,1.4c-3.4,4.4-17.6,10-13.3,15.8c6.9,14.2,15.3,27.5,23.1,41C366.2,375.9,367.3,375.4,369,373.8z M368.6,319.4
	c17.2-4.3,23.1,23,5.6,26.2C356.8,349.1,351.5,322.4,368.6,319.4L368.6,319.4z M631.1,186.9c-19.5-0.8-7.3,38.6-1.2,48.9
	c2.5,3,4.8,15.7,10,12.4c5-3.4,10.1-6.7,15.4-9.7c5-2.8,4.9-3.5,3.8-8.3c-1.4-6-2.7-7.1-7-6.7c-0.2,0-0.7,0.9-0.6,1.1
	c1.5,2.6,4.1,4.8,4.7,7.9C642,223,635,203,631.1,186.9z M416.6,278c-9,1.2-18.4,0.5-27.4,1.8c4.5,4.8,11.3,5.9,17.2,9.4
	c3.5,1.3,6.8,6.3,10.4,3.5c8.8-6.2,19.2-11,27-18.3C434.9,273,425.6,277.8,416.6,278z M633.8,186.1c0.1,1.2,0.5,2.4,0.9,3.5
	c4.1-2.2,2.4-3.8-0.8-5.5C633.8,184.7,633.8,185.4,633.8,186.1z M312.7,239.5c0.2-0.4,0.4-0.9,0.6-1.3c0.4-0.7,0.8-1.3,1.1-1.9
	c-3.4,0.6-7.3-0.4-10.4,1.2C304.5,242.3,309.6,244.4,312.7,239.5z M431.2,570c-0.6-0.6-1.1-1.3-1.8-1.4c-2.1-0.4-1.2,1.3-1.1,2.5
	C429.3,570.7,430.3,570.4,431.2,570z M433.1,235c1.6,0.3,3.2,0.5,4.8,0.4c1.2-0.3,2.3-0.5,3.5-0.8
	C438.4,231.7,434.3,229.3,433.1,235z M464.6,269.4c-3.4,3.3-0.4,11.7-0.9,16.4c0.2,2,1.5,1.5,2.7,0.8c8.9-8.2,31.2-18.5,34.1-29.2
	c-1.9,0.8-3.4,1.1-5.2,2.3C485.3,264,474.9,266.3,464.6,269.4z M220.7,357.1c9.4-3.4,7.7-22.1,5.9-30c-7.3-28-40.8-37.5-59.8-14.2
	c-0.6,0.9-1.1,1.9-1.6,2.9c-0.3,0.8-0.6,1.6-0.8,2.4C196.2,302.8,228,319.3,220.7,357.1z M377.1,532.1c0.3,6.5,0.6,13-0.3,19.5
	c-0.3,2.6,0.8,3.3,2.1,4.2c12,5.5,23.5,12,35.2,17.9c4.7,1.2,25.1,16.5,24.1,5.5c1.9-11.9-3.6-12.9-13-18.2
	c-6-3.8-13.7-2.3-18.9-6.8c-13.7-9.9-22.1-24.6-30.4-38.9C373.7,520.4,377.4,526.5,377.1,532.1z M425.9,568c2-2.4,6.6-1,7.5,2.1
	c0.3,2.9-4.5,5.7-6.8,3.1C426.2,571.4,425.4,569.3,425.9,568z M349.3,234.8c0.5-0.6,1-1.3,1.4-1.9c0.3-0.7,0.6-1.5,0.8-2.2
	c-3,0.4-5.9,1-8.9,1.7c1,1.1,2.1,2.2,3.4,3C346.7,235.8,348,235.2,349.3,234.8z M331.4,293.1c2.9,2,6.7-1.2,9.1-2.9
	c5-3.2,11-5.2,15.4-9.1c-5.9-1.3-11.2-0.1-17.5-1.2C315.7,277.2,318.6,275.3,331.4,293.1z M398.1,240.9c-0.5,0.7-0.8,1.3-1.2,2
	c2.7-0.2,5.3-1.1,7.5-2.6C401.9,239.3,399.7,237.3,398.1,240.9z M237.6,618c10.4,1.7,21.2,1,30.9,6.8c2.4,1.2,3.5,0.3,4.7-1.6
	c3.1-5.7,6.1-11.4,9.7-16.7c3.4-7.8,26.8-31.6,21.4-37.3c-9.8-8.9-8-4.7-18,0.6c-3.9,3.1-12.2,3.6-13,9.1
	C270.2,597.7,252.6,609,237.6,618z M278.9,242.8c1.8-0.8,4.7-1.1,4.9-3.4c-2-0.6-11-2.2-6.8,2.1
	C277.7,241.9,278.5,242.9,278.9,242.8z M396.8,228.1c0.5-0.4,0.9-0.8,1.3-1.3c0.4-0.6,0.8-1.3,1.1-1.9c-2.6-0.1-7.2-0.5-9,1.1
	C391.2,228.3,394,229.4,396.8,228.1z M293.6,272.1c2.2,2.5,4.3,5,7.1,6.7c0.2-0.5,0.4-1,0.4-1.6
	C301.3,273.5,299.1,271.8,293.6,272.1z"/>
<path class="st13" d="M379,386.7c-8,12.5,9.8,19.2,15.4,8.8C398.7,386.1,385.5,378.1,379,386.7z M384.3,395.9
	c-0.3,0.4-1.2,0.4-1.9,0.6c0.1-0.7,0.3-1.4,0.4-2.4c1.7-1.7,0.5-2.9-0.1-4.3c-0.2-0.4-0.3-0.9-0.4-1.4c3.1,2.2,3.8,2.1,7.1,0.6
	c0,0.2,0,0.4-0.1,0.6c-3.1,2.2,1,3.5,1,5.9C388.1,396,386,393.4,384.3,395.9L384.3,395.9z M456.6,335.8c-0.8,3.7-2.2,4.8-5.9,4.3
	c-8.9-1.3-17.6-3.8-25.9-7.5c-5.1-2.1-5.1-2.2-8.7,1.7c-12.5,12.1-25.5,22.6-37.8,35.2c-6.6,6.1-13.3,12.1-19.5,18.4
	c-7.7,6.2-0.7,14.7,5.9,18.8c22.6,16.2,46.2,30.8,69.4,46.1c4.6,3.3,5.4,3.6,10,0.1c5.9-5.6,24.9-15.6,26.5-22.1
	c-13.5-56.5-3.6-108.5,22.8-159.6c-8.9,4.4-16.1,12-24.5,17.4c-9.4,6.4-4.9,19.8-7.8,29.3C460,323.9,458,329.9,456.6,335.8z
	 M371.2,400.4c-10.2-16.1,12.4-33.1,25.7-21.1C415.5,397,386.4,422.1,371.2,400.4L371.2,400.4z M574.6,431c-5.7-1.6-11.3-3.5-17-5
	c-5.4-0.6-28.3-9.9-30.5-6.4c-0.5,2.2-2.7,6.7,1,7c17.1,2.4,32.8,13.2,50.2,12.4C580.5,433.3,580,432.5,574.6,431z M228.3,354.7
	c-2.1,6.4-10.5,5.1-13.8,10.4c7.8,0.7,34.2-10.2,36.9-17.5c4.4-32.9,9.4-38.1-2.2-70.8c5.6,4.8,7.6,13.3,8.6,20.6
	c0.2,0.6,0.5,1.2,1,1.7c4.2-7.9,4.2-18.5,9.3-25.8c0.2,0.8,0.8,1.6,0.8,2.2c-2.9,10.5-6.5,21-8.5,31.8
	c-6.5,41.9-8.1,84.6-16.8,126.1c-2.6,10.1-6,20.2-9.4,30.1c-1.8,5.2-1.8,5.4,2.8,8.8c14.5,10.2,51.2,25.9,67.2,17.7
	c34.6-60.6-18.5-108.3-31.6-165.8c-3.1-13.5-3.4-27.6-2.1-41.5c0.1-2.2,0.4-4.5,1-6.6c0.9-4.1,2.2-8.3,1.7-12.2
	c-2.2-1.8-4.5-3.5-6.8-5c-0.5-0.4-1.6-0.1-2.2,0.2c-10.4,6.4-22.7,5.9-34.3,8.1c-25,4.5-56,13-63.7,40.5
	C198.5,273.7,244.6,315.8,228.3,354.7z M278.5,408.2c4.2-2,6.3,2.9,8,5.7c1.2,2.2,1.1,4-1.5,5.7c-5,3.4-9.6,7.3-14.6,11.2
	c-4.7,2-16.8,15.4-20.2,9.5c-1.7-2.9-6.4-6.8-2.5-9.6C257.9,423,268,415.4,278.5,408.2L278.5,408.2z M293.4,561.3c2-2.5-0.6-6-1-8.8
	c-4.8-20,19.5-21.6,32.2-26.4c2.5-2.7,5.5-4.9,8.8-6.6c4.6-0.9-7.5-5.5-7.3-14.6c0-0.6-1-1.2-1.7-1.3c-6-1.5-7.1-3.8-4.2-9.1
	c-2.6-3.1-7.5-4.5-10.2-8c-1.2,1.7-2.1,3.5-2.9,5.4c-1.3,1.2-2.5,3.4-3.6,3.4c-24,0.9-48.1-5.5-67.6-19.8c-4-5-8.8,18.1-8.7,20.9
	c-1.8,30.1,23.7,50.3,35.4,75.6C264.7,579.5,289.4,564.7,293.4,561.3z M282,497c8.2,1.6,16.9,2.4,25,4.7c-2.5,3.2-7.7,0.4-11.4,0.6
	c-4.8-1.3-9.4-2.5-14.1-3.7c-0.2,0-0.4-0.7-0.6-1C281.3,497.3,281.7,496.9,282,497z M504.5,257.8c-9.1,16.1-16.9,33-23.2,50.4
	c-0.9,2.4-1.8,4.8-2.6,7.1c-8.8,23.9-11.6,49.4-11,74.7c1.5,15,3.8,29.9,6.8,44.6c1.4,4.4,0.4,10,3.4,13.6c0.3-29.8,7.6-59,16-87.6
	c0.8-5.9,9.2-20.8,6.7-25c-5.2-3.2-4.2-8.9-2.2-12.7c0.7-1.3,1.2-1.9-0.6-2c-4.6-0.6-10.5-5.1-9.1-10c0.2-0.5,0.4-1,0.7-1.5
	c4-8,11.9-3.1,10.6-6.7c-0.4-3-0.6-5.9-0.6-8.9c0.6-6.9,10.4-5.8,14-1.3c0.4,0.7,0.8,1.4,1.3,2c0.5,0.7,1,1.4,1.6,2.1
	c6.1-18.5,14-37,18.6-55.8C524.8,246.2,513.5,250.8,504.5,257.8z M375.8,382.5c-14.9,18.3,15.2,34.3,24.2,13.1
	C402.1,382.2,387.3,372.1,375.8,382.5z M396.6,396.5c-6.4,13.8-27.4,4.1-21.4-8.4C380.7,373.7,402,382.3,396.6,396.5L396.6,396.5z
	 M585.3,374.5c-2.3-11.2-3.3-24.9-0.4-36.8c1.1-5.1,3.1-9.9,5.9-14.3c15.7-23.1,37.5-41.5,63-53c0.4-0.3,0.7-0.7,1-1.1
	c3.6-5.4-2.4-16.8-2.9-22.9c-0.3-1-0.5-1.8-2-0.8c-2.5,2.7-12.1,4.6-8.4,9.4c3.6,4.3,9,7.5,11.3,12.7c-18.4-6.3-33.8-40.6-35-59.2
	c-0.6-21.1,0-13.2-16.3-5.5c-63.7,39.4-59.8,25.3-67.4,50.7c-2.5,8.5-6.3,21.4-14.3,42.1c10.5-3.4,14.9,1.7,9.1,11.2
	c-0.6,0.7-2.2,2.2,1,2.6s5.6,2.7,7,5.7c2.7,4.8-3.8,8.8-8.1,8.9c-0.3,0-1,0.5-1,0.7c4.5,11-5.5,16.5-12.5,7.6
	c-2.2-3.9-4.2,1.7-6.6,2.2c-6.7,2.8-11.2,32-15.1,40.3c-6.7,21.4-10,43.5-12.7,65.8c-0.4,3.4,0.5,6.8-1.2,10.1
	c-0.6,7.2,2.4,14.9,3.1,22.2c8,41-10.3,24.8,38.1,24.4c16.3-1.5,32.7-2.9,48.2-8.2c6.7-2.9,20.7-6.6,23.2-13.7
	c2.7-9.4,10.8-14.5,8.9-26.2c-7.3-24.6-17.7-32.5-14.6-60.4C589.4,382.3,587.5,380.3,585.3,374.5z M537.9,254.2
	c0.1-0.5,0.4-0.9,0.9-1.1c4,8.8,2.6,19.1,5.3,28.3c3.8,16.3,10.4,31.7,19.7,45.6c1.5,2.2,4.4,3.1,4.4,6.4
	c-18.8-14.5-25-39.6-28.6-61.9C539.6,268.6,536.8,257.7,537.9,254.2z M580.7,441.2c-2.4,6.3-46.1-10.6-54.1-12.1
	c-4.4-1.3-5.1-2.4-3.7-7.2c1-3.4,1.9-8.5,6.6-6.8c15.9,4.4,31.4,8.8,47.4,13.5C585.4,429.9,583.9,435.4,580.7,441.2z M315.2,277.4
	c-3.1,0.6-9.9-4.4-11.3-0.9c-2.3,18.6,3.1,37.2,6.4,55.5c0.2,0.8,0.1,3.8,3.1,2.9c14-2.9,26.3-10,37.3-19.2
	c5.9-3.6-5.2-5.2-2.9-20.7c0-0.8-0.1-1.6,0-2.5c0.1-0.7,0.2-1.5,0.4-2.2c-6.1,1-11.7,11.8-17.9,6.8
	C324.1,292.8,320.9,279.2,315.2,277.4z M385,281.3c-7.6,0-15.2,0-22.7,0.1c-4.4-0.3-6.9,4-10,6.5c-1.6,4.3-1.6,16.5,1.2,20.5
	c4.3,5.7,36.7,5.6,35.6-4.8C388.4,295.9,393.4,286.2,385,281.3z M294.4,277.6c3.1,54.4,33.6,106,27.4,161.2
	c-2.2,6.7,3.1,7.5,7.6,11.2c4.2,4,9.6-10.2,12.6-12.7c5.8-8,11.5-16.1,17.4-24c10-9.8-24.1-9.3,3.7-34.3c0.6-4.2-5.7-9.1-7.2-13.3
	c-4.1-7.1-8-14.3-12-21.5c-2.6-2.6-6.2-18.3-10.5-12.5c-6.4,2.2-12.8,4.3-19.3,6.4c-7.5,2-6.8-9.2-8.5-13.8c-2.2-11.6-4.4-23.2-5-35
	C301.7,284,298.1,280.7,294.4,277.6z M252.8,437.5c2.8,2.2,18.6-12.5,23.3-14.9c3.1-2.8,10.8-5.3,6.1-10c-1.4-2.1-2.3-1.7-4-0.4
	c-8.2,6.1-16.5,12.1-24.6,18.3C248.9,434.1,248.9,434.3,252.8,437.5z M455.5,271.9c-7.8,0.4-12.4,6.7-17.8,11.5
	c-6.6,5.8-14.1,10.5-22.3,13.9c-6.1,0.8-10.5-5.4-16.4-7.7c-11.4-9-3.4,1.3-7.3,17.7c-5,6.9,64.1,39,62.8,26.2
	C455.7,327.1,467,266.5,455.5,271.9z M582,487.2c-29.1,15-62,12-93.5,16.5c-8.2,2.2-4.1-9.1-5.9-13.8c-2.6-13.5-5.6-26.9-8.2-40.3
	c-1.3-3.3-1-12.2-4.2-13.3c-8.7,6.8-17.5,13.8-26.1,20.9c-1.3,1.1-2.9,1.8-4.6,1.8c-6.1,0-12.4-8-17.9-10.3
	c-18.4-11.8-36.9-23.7-54.5-36.7c-1.2-0.8-2.6-1.4-3.8,0.9c-9.3,13.8-19.4,27.1-29.4,40.4c-3.6,4-8.9-4.5-13-5.4
	c-2,11.6-4.6,22.8-9.3,33.7c-0.4,5.3,7,7.7,10.7,10.3c8,4.7,15.3-3.6,24.1-0.6c6.8,2,13.3,4.4,17.5,10c5,6.7,11.9,11.3,17.3,17.6
	c0.9,0.8,2,1.3,3.2,1.3c4.7-0.5,18.7,3.5,20.5-0.8c-1.2-10.6-0.2-21.6-0.5-32.5c0-0.8,0.6-1.6,1.3-2.8c3.8-10.3,20-17.4,34.9-19.8
	c7.9-1.3,15.4-1.3,20.5,0.3c-6.4,2.9-14,1.9-20.8,3.2c-7.9,1-15.1,3.9-22,7.7c-4.7,2.7-9.4,5.9-10.5,11.7c-2.5,20.7,1.4,41.5,4.3,62
	c0.1,6.8,8.5,3.9,12.4,7.3c5,3.1,9.6,6.6,14.4,9.8c0.8,0.6,1.5,1.3,2.6-0.6c17.6-25.5,46.9-42.9,77.1-48.9
	c11.9-3.5,32.3-3.6,40.8-11.6C565.7,497.9,575.7,494.1,582,487.2z M288.4,270.5c-2.5,0.1-13-7.2-12-2.5c-5.7,22.5-3.5,46.1,3,68.1
	c11.4,35.7,36.3,67.1,39.3,105c5.3-43.5-13.1-84.9-21.8-127c-2.4-10.9-5.2-21.6-5.2-32.9C291.1,277.4,293.3,271.9,288.4,270.5z"/>
<path class="st14" d="M129.9,207.6c4.1,4.6,9.1,7.8,14.5,10.3c-5-9.7-9.1-24.8-12-31.7c-8.4-5.7-19.3-11.6-26.1-2.1
	c-11,21.8,21.4,34.8,42.4,40.3c-1.3-1.4-2.4-3-3.3-4.7C138.8,218.2,133.2,214.6,129.9,207.6z M113.1,206c-0.2-0.2-0.3-0.5-0.4-1.1
	c0-2.3-0.1-4.3,0-6.4c0.1-0.4,0.6-0.8,0.9-1.3c0.3,0.4,0.9,0.7,0.9,1.1C114.6,200.9,115.1,203.7,113.1,206z M339.5,238.4
	c-6.6,5.2-12.1,11.8-15.9,19.3c0.2,2.7,6.8-0.1,8.6-0.1c17.4-2.8,34.6-6.7,51.5-11.5c16-1.6,11.1-16.1,20.6-10
	c4,7.8,16.5,1.7,8.7-4.5c-3.2-2.2-6.8-3.6-10.5-4.2c-4.3,1.5-7.2,8.9-12.8,2.5c-2.6-6.6-11.6-4.3-14.7,0.8c-1.5,2.9-3.3,5.9-7.1,4.6
	c-4.8-2.6-11-10.3-14.6-1.4C349.2,243.6,346,236.5,339.5,238.4z"/>
<path class="st15" d="M360.5,710.2c-0.1-2.7-1-3.3-3.8-2.6c-8.9,2.5-18,5.1-27.1,7.5c-38.7,9.3-77.3,19-115.9,28.7
	c-3.5,0.9-7.5,1.4-8.6,5.9c-0.4,1.3-0.6,3.1,1.5,2.9c50.9-8.6,102.6-16.2,153.2-25.1C361.2,722,360.2,716,360.5,710.2z M643.8,407.2
	c-8.4,1.7-11.4,10.8-11.4,19.1C637.1,444,653.9,411.3,643.8,407.2z M664.2,444.1c-2.6,0.7-3,2.3-3,4.5c-0.7,24.3-3.6,48.3-4.5,72.6
	c-0.4,15.3-2.8,30.6-2.4,46c-0.1,8.7-23.4,16.7-30.4,22.5c-11.2,5.6-5.2,32.5-6.6,43.9c0,0.2,0.8,0.6,0.9,0.6
	c15.1-9.9,31.7-17.4,45.3-29.3c3.4-3.8,4.5-8.3,4.9-13.2c0.3-2.5,0.4-5.1,0.3-7.6c-0.1-1-0.1-2.1-0.2-3.3c0-2.3,0.1-4.5,0.5-6.8
	c0.4-9.1,0.8-18.2,1.3-27.2c1.6-35,3.6-70.1,5.1-105.2C676,436.8,666.7,444.5,664.2,444.1z M208.1,389.5c0.3-2.9,4.3-21.3-0.4-20.1
	c-2,0.1-5-1-5.4,3.1s-2,4.9-6.1,4.4c-0.2-0.1-0.8,0.6-0.8,0.6c2.9,5,0.6,10-0.8,14.6c-2.2,13-23.4,36.9-33.8,19.3
	c-3.4-6,1.3-13.7-4.8-18.2c-0.8-0.5-0.9-2.1-1.4-3.8c-10.9-8.2-12.7-14-15-27c-10.1,13.9-0.9,31.6,1.6,46.8
	c4.2,12.6-0.8,23.7-10.1,32.3c-6.6,8.4,16.5,6.1,20.3,5C179.7,441.2,202,416.9,208.1,389.5z M141.1,446.3c0.7-4-4.7-4.4-7.3-5.5
	c2.8-2.7,5.7-1.2,8.4-0.6C144.6,441.3,143.7,445.6,141.1,446.3z M655.2,367.9c-1-5.9,7-16,11.7-19.7c2.8-2.3,6.9-2.9,8.9-6
	c-9.7-0.8-16.3,8.1-21.7,14.7c-3.8,4.9-4.5,6.4-10,2.7c-14.3-5.7-31.2-0.8-42.2,9.4c-22.5,20.6-9.8,51.2,1.6,74.1
	c8.7,19.6-18.5,33.9-2.7,35c35.1-1.3,61.2-36,63-69.4c0.5-7.6,0.2-15.3-0.9-22.8c-0.6-4.5-0.8-5.8,0.7-6.6c1.5-0.5,2.9-1,4.5-1.2
	C703.7,367.3,685,316.5,655.2,367.9z M607.8,475.6c-0.7-1.6-1.8-2.9-3.3-3.8c-2-0.5-3.5-1-5.1-1.5
	C604.3,466.9,613.4,469.7,607.8,475.6z M628.1,443.8c-16.1-14.2-4.2-48.6,16.6-50.9C672.3,396.5,653.2,457,628.1,443.8z
	 M632.8,402.3c-12.9,10.3-14.1,51.3,9.6,37.3c10.7-8.6,15.9-22.8,11.7-36C649.1,391.4,640.4,396,632.8,402.3z M633.9,434
	c-10.8-5.5-0.3-34.1,11.9-29.1C654.7,411.8,645.9,437.5,633.9,434z M552.4,740.3c-2.7-2.5-5.3,0.6-8.5-1c1.1-2.9-1.6-1.3-2.4-1.9
	c-3-0.5-5.9-1.8-8.4-3.6c-4-1.5-9.1-4.8-11.8-5.9c-14.8-3.4-29.6-6.9-44.3-10.9c-25.7-5.1-25.5-15.4-25.5,12.8
	c-0.9,4.3,27.4,4.5,32.1,6.3c31.4,5.3,62.9,10.4,94.4,15.3c3-0.5,32.8,7.7,28.3,2.4c-5.3-10.1-31.5-11.6-42.4-15.8
	C557,735.7,556.7,740.8,552.4,740.3z M174.2,388.4c-2.9,3.8-5.4,10.4-2.2,14.5C185.3,405.9,192.4,367.9,174.2,388.4z M513.5,646.2
	c0.3,0,1-0.8,1-1.2c0.5-7,0.8-13.9,1.3-20.8c0.8-6.8,2-13.5,2.5-20.3c-37.5-6.4-79.8,0.9-118.7-3.4c-34.8-0.6-69.4-3.1-104.3-3.5
	c-1.2,0-2.4,0.5-3.2,1.4c-4.5,6.6-8.9,13.5-13.3,20.3c-2.4,3.6-3.4,8-7.3,10.7c-1.1,1.2-0.9,7,1.7,7.9c11.7,2.7,23.4,1.7,35.8,2.7
	C377,645.8,445.4,648.8,513.5,646.2z M403.9,713.8c-2.4-0.1-2.8,0.6-2.7,2.7c0.6,11,0.9,21.9,1.4,32.9c0.6,23,1.8,45.4,1.9,68.5
	c0.8,12.6,0.9,25.1,1.3,37.6c0.1,1.9-0.8,5.5,2.2,4.7c5.4-1.4,3-17.5,4.2-22.6c0.8-16.7,1.4-33.4,2-50.2c1.2-23,2.4-46.1,3.2-69.3
	C419.4,709.8,408.3,714.5,403.9,713.8z M643,330.3c-7.7,5-13,12.4-14.2,21.6c-0.1,0.6,0.8,2,1.2,2c9.4-1.3,19.1,7.4,20.8,3.1
	c1.9-3.4,6.2-5.9,6.4-10C657.5,338.2,654.2,327,643,330.3z M262.3,594.4c-25.2-2-50.5-3.2-75.5-8c-7.1-1.5-4.2,8-4.7,12.1
	c-0.2,8.7-0.4,17.5-0.7,26.2c0.2,5.3,10.3,3,14.2,4.4c4.1,0.6,8.2,1.5,12.2,1.8c11.7,2.1,18.7-8.9,28.1-14.6
	C244.5,609,254.8,602.7,262.3,594.4z M187.2,368.2c1.5,0.8,2.9,1.6,4.3,2.5c0.6,0.5,1.2,1,1.8,1.5c-0.2-5.1-5.9-8-6.8-13.1
	c-3.6,4.6-11.2,5.4-11.4,12.1C179.3,370.3,182.3,367.1,187.2,368.2z M436.1,683.3c-4,0.1-16-5.7-15.1,1.4
	c-0.6,10.3-14.9,9.7-22.3,6.5c-7-1-0.4-11-7.8-9.8c-8.5,1.2-26,1.2-31.1,8.5C368.6,704,499.2,696.7,436.1,683.3z M437.2,655.9
	c5-1.9,11-2,15.4-4.9c-15.3-2.8-31.5-1.1-47.2-2.2c-17.6-0.6-35.4-1.3-52.6-2C373.4,661.3,413.2,661.7,437.2,655.9z M178.3,584.6
	c-3.2-6.1-3.1-12.4-4.5-19.5c-1.5-19.5,3.6-39,15.6-54.7c3.9-5.4,10.8-9.3,10.5-17.3c10.5-30.7,22.3-65.4,10.2-97.2
	c-2.3,4.2-5.4,9.8-4.1,14.7c2.9,7.6,1.1,15.4,1.3,23c-5.2,26.9-14.3,54.1-24.4,79.5c2.3-24.2,15.8-46.3,19.5-70.4
	c1.1-7.8,4.2-25.1,0.7-31.5c-5.3,10.4-13.1,18.9-22.1,26.2c-0.6,0.6-1.5,1.6-1.4,2.2c1.7,7.9,0.1,15.6-2.6,22.8
	c-11.4,30.4-34.6,56.7-35.5,90.5c-2.4,20.7-1,41.3-0.8,62c-0.5,6.3,2,6.6,7.4,7.2c9.6,1.3,19,2.7,28.4,4.5c1.3,0.3,1.9-0.1,1.8-1.6
	C176.8,611.5,182.2,597.7,178.3,584.6z M173.8,413.9c12.8-5.2,20.4-21.5,19.8-33.7c-0.4-12.8-16.1-10.2-19.8-2.1
	c-1,2.5-2.5,4.8-4.5,6.7c-4.7,3.6-1.8,7.4-4.1,11c-3.6,2.5-2.7,6-2.8,10C162.8,412.6,168.1,416.1,173.8,413.9z M168.1,395.3
	c1.2-6.1,4.6-10.5,8.9-14.4c12.9-7.8,13.2,11.9,6.5,18.2C177.4,408.7,164.8,409.7,168.1,395.3L168.1,395.3z M449.6,711.1
	c0.1-1,0.6-2.5,1.5-2.9c4.8-2.4,1.4-9.3,2.6-13.7c-14,5.6-28.6,6.6-43.3,6.3c-9.1-0.2-18.4-1-27.4-1.6c-7.6-0.4-15.1-2.1-22.1-5.1
	c-0.4-0.1-1.6,0.5-1.6,0.8c-1.6,13.8,4.2,5.6,4.3,16.2c0.2,4.9,0,9.8,0.1,14.7c0.3,4.3-1.5,4-4.5,6c11.2,6.2,24.4,7.6,36.9,9.4
	c4,0.7,2-23.2,2-26.7c0.1-1.5-0.1-3.8,2.7-3.8c3.1,0.1,6.1-0.1,9.3-0.1c2.1,0,4.2,0.1,6.3,0.2c5.9,1.4,3.4,7.4,3.3,12.3
	c1,4.3-2.4,17.2,1,18.6c2.2,0.2,36.9-4.3,29.9-7.5C446,731.7,450,716.4,449.6,711.1z M658,443.1c-7,6.8-8.7,17-9.6,26.3
	c-1.7,10.7-5.8,20.5-9.9,30.4c-10.1,22.4-20.7,44.7-27.6,68.5c-3.6,13.5-6.1,27.2-7.6,41.1c-1.4,6.3,1.3,13.8-2.7,19.1
	c-3-8.2,1.2-20.9,1.3-30.1c1.4-16.1,6.3-31.6,11.6-46.8c9.8-31.1,30.7-60.4,33.4-93.2c-7,10.3-25.8,15.5-27.7,24
	c-4.4,10.9-7,28.5-15.6,37.6c-0.2,0.5-0.4,0.9-0.6,1.3c-3.3,7.5-5.9,16.3-12.8,21.1c-0.8-2.2,0.6-4,0.7-6.2
	c-9.2,8-13.2,29.6-17.5,41.5c-6.6,21.5-6.2,44-6.4,66.2c-0.1,0.5,0.8,1.4,1.2,1.4c14.9-1.3,31.1,0.8,43.9-8.3c1-0.6,1.7-1.7,1.9-2.9
	c0.3-14.5-0.8-29.1,2-43.5c2.5-17.7,7.3-34.9,14.1-51.4C641.6,507.9,661.9,477.7,658,443.1z M417.2,664.5c0.1-1.9-0.9-1.7-2.1-1.7
	c-3.7,1-18.2-2.5-17.1,2.9c1.1,4.8-2.6,22.9,2.7,23.2c5,1.3,15.8,3.1,17.2-3.8c-0.1-2.5,0-4.9,0-8
	C417.4,673,417.1,668.8,417.2,664.5z"/>
<path class="st16" d="M718.3,260.8c1.9,0.2,3.3,0.2,3.9-1.1c0.1-0.4-0.3-0.8-0.5-1.3L718.3,260.8z M709.7,262.8
	c-0.3,0.6,0.4,1.6,0.7,2.4c0.7-0.7,1.4-1.5,2-2.4c0.5-0.6,0.5-1.4,0.1-2C711.3,261,710.2,261.7,709.7,262.8z M163.6,394.4
	c0.4-6.6-0.3-6.5-6.4-5c1.2,2,2.6,3.8,4.2,5.5C162.3,397.1,162.6,394.7,163.6,394.4z M328.4,496.5c-2.6-0.7-5.1-0.9-7.4,0.7
	c1.1,2,1.4,3.1,4.2,3.2C327.7,500.4,327.5,497.9,328.4,496.5z M320.4,538.9c-1,0.8-0.8,2.2-1.2,3.4c1.7,0.1,3.2,0.3,4.9,0.6
	c0-0.9,0-1.8,0.1-3.3C322.9,536.4,322.9,536.4,320.4,538.9z M299,263.5c-8.8-4.2-3.5-13.5-0.3-20c3.4-6.9,2.4-5.8-3.4-5.4
	c-3.6,0.3-7.6-0.3-10.1,4c-8.3,11.9-9.4-3.4-16.1-2.9c-5.3,0.2-10.9-1.5-16.1,0.1c13.9,20.5,31.1,27.9,54.6,32.9
	c6,1.1,12.1,2.1,18.1,2.9l0.4-2.6C316.5,271.4,307.3,268.3,299,263.5z M691.7,221.7c3.1-2.2-4.4-2.4-5.7-2.8
	C681.6,219.5,684.3,225.8,691.7,221.7z M214.9,647.7c-2,5.9,0.2,5.9,3.8,1.9c-0.3,0-0.6-0.1-0.8-0.2
	C216.8,648.8,215.8,648.2,214.9,647.7z M624.9,185c-2-1.9-5.3-0.8-7-2.8c5.4-0.1,9.6-5.5,15.5-3.6c0.4,0.1,1.2-0.5,1.5-0.8
	c-2.4-6.2-13.5-7.7-19.4-6.3c3.6-6.7,11.5-2.9,11-6.5c-0.5-0.2-1.1-0.3-1.6-0.4c-4.8-0.8-9.2-1.6-13.6-2.4c-0.6-0.1-1-0.1-1.6-0.3
	c4.4-2.9,16.1,0.3,21.6-0.8c-5.2-4.9-13.5-4.7-20.2-5.6c1.4-1.8,3.6-2.7,5.8-2.4c0.5-1.8,0.6-3.8-0.3-3.8
	c-5.4,2.2-11.2,3.3-17.1,3.3c-30.2-1.2-74.6-21.1-91.2-46.6c10.3,5.7,21.7,23.1,34.4,21.2c17-1.9,29.7-14.4,44.7-20.5
	c-9.3-3.9-20.5,1.5-30.4-1c-15-1.1-30.2-4.6-44.8-7.8c1.5-1.2,3.3-1,3.8-3c-6-1.5-12.6-1.3-18.6-3.7c-2.8-0.9-6.1-0.3-8.7-2.1
	c1.6-0.9,4-0.8,5.6-1.3c-7.7,0.3-17.2-1.8-23.7-2.3c3.8-1.5,8.2-4.3,12.6-5.2c-1.8-1.1-3.3-2.2-3.9-2.6l0.8,0.7
	c-0.5,5.2-20.7,2.7-25.4,4.4c1.4-2.4,5.4-2.9,7.8-4c3.6-1.2,8.1-0.1,11.2-2.6c-1.2-6.1-14.1,1-18.6-0.2c-8.3-0.3-16.3,2.2-24.4,2.7
	c3.1-3.8,12.1-6.6,17.3-6.3c2.4,0.3,2.6-1.8,2.7-4.5c-17.5,1-34.7,2.4-50.6,10.1c0.8-1.9,1.9-3.7,3.3-5.3c-2.7,0.3-4.5,1.3-7.6,1.6
	c0.2-0.6,0.3-1.2,0.4-1.8c0.2-1.5,0.4-2.9,0.5-4.3c-6.1,4-5,12.9-9.6,17.5c-1.5-5,2.2-10.6,1-15.8c-0.9,0.7-2.4,1.3-2.8,2.2
	c-2.5,6.7-8.2,10.9-12.4,16.2c-0.8,1.1-2.4,0.8-3.5,1c3.9-8.1,9.1-15.5,11.9-24.2v-1.3c-2.7,5.8-6,11.2-9.9,16.3
	c-2.2-5.5,4.6-11.9,1.2-17.7c-5.6,8.9-4.2,21.6-12.9,28.6c0.3-5.9-1.8-15.5-1-22.4c-0.1,0.1-0.2,0.3-0.4,0.3
	c-2.7,5.1,0.3,14.7-4,19.5c-1.1-7.4-1.7-14.9-3-22.2c-1,4.4-4.3,13.8-3.1,16.4c0.2,0.5-0.3,1.3-0.4,2c-0.5-0.3-1.3-0.5-1.5-1
	c-1.5-3.7-5-6.8-3-11.6c0.4,0.1,0.8,0.2,1.1,0.5c0.5-1.2,0.9-2.5,1.2-3.8c0.1-0.1-0.4-0.5-0.7-0.7c-0.4,0.8-0.9,1.5-1.3,2.4
	c-0.2,0.5-0.3,1-0.4,1.4c-6.4,5.9-11.4,10-16.2,13.1c-10.5,6.8-19.5,8.3-38.3,11.2c5.9,4.1,18.3,27.2,25.8,18
	c6.5-8.2,13.1-16.3,18.9-25.1c1-1.5,2-2.9,2.9-4.5c-3.2,7.8-7.4,15.1-12.4,21.9c-22.6,30.8-62.8,52.6-99.8,40.1
	c1,2.9,4.6,4.1,6.7,6.2c0.9,0.8,2.4,1.4,0.2,3c-3.1,2.8-6.8,5.8-8.7,9.5c3.6-0.4,7.9-3.2,11.1-1.6c-1.9,3.6-6.4,6.2-6.6,10.6
	c2.9-1.2,6.2-4.8,9.3-2.9c-1.6,0.9-3.1,2.1-4.3,3.6c0.6,1.1,1,2.3,1.2,3.6c-3.3,1.5-0.5,16.3,2.3,13.6c8.2-4.9,17.9-8.3,25.8-13.3
	c-4.2-1.4-8.8,1.4-13.2,0.6c6.7-6.3,16.5,0.2,23.9-2.6c-7.5-5.3-17.9-2.1-26-4.6c8-3.5,16.8-0.8,24.7,1.2c4.1,1.6,8.9,5.4,13.5,2.4
	c-10-9.7-22.1-15.9-35-20.8c12.9-0.5,25.2,8.7,34.4,17.3c0.2,0.2,0.6,0.4,0.7,0.7c1,4.8,5.6,3.5,8.8,3.1c-1.5-0.5-8.5-10.2-7.4-11.6
	c3.4,1.7,6.1,5.9,7.8,9.2c1.1,2.5,2.3,2.9,4.3,2.7c19.1-0.7,38.1-5.3,48.8-22.6c-8.6-1.3-16.7,5.4-23.9,9.3
	c-2.4,1.2-4.4,4.5-7.3,3.5c0.3-0.4,0.5-0.9,0.6-1.3c0.2-0.6,0.4-1.3,0.6-2c-7.8,4.2-15,6.6-22.9,1.1c-2.8-1.9-2.7-2.8,0-4.9
	c11-8.5,19.4-22,20.5-36c-0.1-0.7,1-1.7,1.6-2.5c3.9-3.8,7-8.4,10.4-12.8c2.6-3.6,5.7-6.8,9.3-9.4c1.5-1.3,1.8-3.9,4.7-3.9
	c14.3-0.6,28.1,16.8,22.5,30.1c-24.5,80.2-67.9,39.6-112.8,63.2c-12,6.9-24.4,13.1-37.1,18.6c4.1,4.1,9.1,2.4,14.1,1.6
	c12.8-1.8,25.3-4.3,37.9-7.1c13.5-1.8,26.4-6,39.9-7c7.8-1.1,11.9-10.3,19.4-12.6c-2.4,4.6-8.3,6.2-11.2,10.5
	c5.3,1.4,11-1.5,16.5-1.8c6.1,1.1,12.2-0.4,18.4-0.6c17.4,1.1,35.1,0.4,52.4,3.7c14.2-2.4,3.5,1.2,14.2,2c8.9,1.2,17.8,3.4,26.8,1.4
	c8.4,0.8,17.7,0,25.8,2.5c-8.6,1.9-18.8-2.1-27.4,0.5c12.1,5,26,7,38.2,12.7c15.1,7.8,35.5,14.4,41.9,31.8l0.4,0.8
	C555.3,226.1,590.6,206,624.9,185z M292.4,193c-0.3,0.2-0.7,0.3-1.1,0.4c-0.1-0.4-0.3-0.9-0.1-1.1c1.5-1.4,3.1-2.6,4.8-4
	C294.9,189.8,293.7,191.4,292.4,193z M338.9,185.4c-1.8,0.8-3.5,1.5-5.4,2.3c0.6-0.6,0.8-0.8,1.3-1.5c0.4-0.2,0.6-0.4,0.7-0.5
	c1.3-0.3,2.6-0.7,3.8-1C339.2,184.9,339.1,185.2,338.9,185.4L338.9,185.4z M369.2,115c-0.8,11.4-4.8,22.8-9.8,33
	C360.9,136.8,366.5,126.1,369.2,115z M365.6,146.5c-0.2,0.5-0.4,0.9-0.6,1.3c2.5-13.7,7.4-27.6,11.6-41.1c-0.1,10.6-5,20.9-7.8,31.3
	C367.6,141,366.7,143.8,365.6,146.5L365.6,146.5z M375.4,145.6c-1-3.6,1.2-7.3-0.2-10.8c-3.4,4.3-2.6,10.6-5.4,15.3
	c1-10.9,6.1-21.5,8.4-32.6c0.2-0.7,0-1.3,0.2-1.7c0.4-0.9,0.9-1.7,1.5-2.5C378.2,123.7,378.8,135.8,375.4,145.6L375.4,145.6z
	 M401.9,181.8c-6.7-5.8-10.6-13.6-13.9-21.8c-0.3-0.8,0.8-2.2,1.3-3.4c0.6,0.2,1.2,0.6,1.7,1c-4.2,1,6.7,14.5,7.7,17.6
	C399.3,177.4,403.1,179.9,401.9,181.8L401.9,181.8z M391.1,157.9c7.2,7.3,15.1,13.8,22.8,20.6c-0.9,0.1-2.2,0.6-2.6,0.1
	C403.1,173,395.8,167,391.1,157.9z M417.9,190.9c-2.7,0.5-5.4,0.8-8.2,1.1c2.6-0.8,5.3-1.8,8.2-2.4c1.4-0.2,2.8-0.2,4.2,0.1
	C420.7,190.2,419.3,190.6,417.9,190.9L417.9,190.9z M428.9,150.7c0.4,1.6,0.7,3.1,0.9,4.7c0.2,1.4,0.4,2.7,0.5,4.1
	c-5-5-8.8-10.8-15.4-13.9c-3.4-1.7-6.6-4.7-10.5-4.9c0.1,3.1,3.6,3.6,4.8,6c-0.6,0.2-1.5,0.8-1.9,0.7c-6.1-2.4-11.9-0.1-17.8,0.8
	c-3,1.7-5.4,0.8-6.2-2.6c-9.6-25.3,12.8-55.3,40.1-50c2.1,3.5,5.9,2.4,9,3.5c3.5,1.8,9.2,2,10.8,5.8c-2.1-0.1-4.1-0.3-6.1-0.7
	c2.6,3,8.2,3.8,11.5,6.3c6.7,4.4,12.2,10.9,14.6,18.4c-2-0.8-3.1-2.9-5.3-3.6c0.1,0.9-0.2,2.4,0.3,2.9c8.2,7.8,11.2,18.8,17.5,27.8
	c3.4,4.8,7.5,8.8,13.7,9.8c0.6,0.1,1,1.1,1.4,1.8c-2.4,0.1-4.7,0.1-7,0.1h-2.2c3.1,7.7,12.1,18.2,20.4,20.4c0.4,0,0.7,0.9,1,1.5
	C462,196.5,452.9,176.5,428.9,150.7L428.9,150.7z M162,373.7c1-1.4,1.9-2.8,3.2-4.5C165,361.8,158.6,362.9,162,373.7z M671.1,189.1
	c8.7-0.1,17.7,5.6,26.3,2.2c1.4-0.6,1.8-3.3,0.8-3.8c-6.5-3.5-12.9-7.3-19.9-9.4c-6.1-1.8-12.2-0.8-18.8,0.6
	c-8.1,3.1-16.1,6.6-22.8,12.3c-0.8,0.6-0.3,2.8-0.4,4.3c0.8-0.1,1.8,0.2,2.4-0.2C648.1,188.7,660.2,188.8,671.1,189.1z M197.7,375
	c3.1-2.1,3.4-8.2-1.4-7.6C194.3,369.1,197.1,372.4,197.7,375z M164.4,326.1c21.1-10,30.6-7,49.6,3.9c-3.2-8.9-12.9-12.9-22-14.3
	c-11.9,0.1-25.3,1.1-33.4,11.3C160.6,326.9,162.7,327.5,164.4,326.1z M591.9,536c5-3.1,7.8-17.8,8.3-23.9c0.5,0.8,1,1.6,1.5,2.4
	c1.3-4.6,4.8-9.8,5.7-13.2c2,2-1.1,6.5,0.2,9.1c5.2-6.6,2.8-18.8,3.6-27c-0.1-3.1-2.5-2.6-4.5-2.6c-12.8,1.5-9.8-4.5-14.9,3.8
	c-16.8,12.3-34.9,23.5-45.9,41.6c-8.5,13.6-19.5,27.5-23.1,43.1c0.7-0.6,1.4-1.3,2-2c1.8-2.4,3.4-5,5.2-7.3
	c-1.1,2.6-1.5,5.7-3.3,7.5c-4.1,5.1-6,11.7-5.1,18.3c3.1-6.2,3.5-13.8,9.4-18.4c0.1,1.2,0.3,2.4-0.4,3.4
	c-6.9,14.2-8.2,29.9-10.8,45.2c-3.9,28.4-0.5,57.2-3.7,85.6c0.3-0.4,0.7-0.9,1-1.3c0.3-0.2,0.6-0.4,0.9-0.6c0.8,4.5-3.6,9.7,0,14
	c2.1-2.3,0.5-5.9,3.2-8.2c0.3,1.2,1.2,2.3,1,3.6c-1.7,6.3,2.6,11.7,2.7,17.8c-0.1,2,2.4,3.1,5.2,4c-1.6-1.6-2.6-3.6-3-5.8
	c8.4,6.8,15,13,26.4,7.2c-0.5,1-1.2,2-1.6,3.1c-0.3,0.8-0.4,1.6-0.6,2.4c4-1,4.6-5.7,6.4-8.9c0.8,2.4-1.5,4.8-0.9,7.3
	c2.7-0.1,2.2-3,2.9-4.9c7-22.4,2.8-45.7,2.9-68.5c0.7,1.9,2,3.6,2.8,5.4c-0.8-22-4.5-44.5-0.3-66.7c4.1-26,10.6-53.8,28.3-74
	C594.5,530.7,591.6,533,591.9,536z M343.9,564.7c0,1.2,0.1,2.5,0.1,3.8c1-0.6,2-1,3.4-1.8c0.3-0.3,0.5-0.7,0.8-1
	c-1.3-0.9-2.6-1.8-4-2.7C344.1,563.5,344,564.1,343.9,564.7z M758.7,208.3c0.5-0.7,0.9-1.5,1.2-2.3c-0.1-1-0.3-1.9-0.6-2.8
	C757.7,203.4,757.5,207.4,758.7,208.3z M121,352c-0.6,1.3-1,2.6-1.3,4c-0.1,0.9,0.6,2,0.9,3c0.9-0.8,1.7-1.8,2.2-2.9
	C123,354.4,122.9,352.8,121,352z M270,662.6c-3.8,1.5,0.1,2,0.5,2.9c0.2,0.6,1.2,0.8,1.9,1.1C271.8,664.9,273.1,661,270,662.6z
	 M208.5,209.9c6.4,0.6,5.5-1.9,0.7-3.7c-7.1,0.6-14.4,0-21.1,1.9C194.2,210.9,201.2,209,208.5,209.9z M246.8,669.3
	c0.2,0.8,0.5,1.5,0.9,2.2c1,0.6,1.9,1,3,1.5c-0.1-0.9,0-2.3-0.6-2.7C249.3,669.6,248,669.6,246.8,669.3z"/>
<path d="M568.2,333.4c0-3.3-2.9-4.2-4.4-6.4c-9.3-13.9-15.9-29.4-19.7-45.6c-2.7-9.2-1.3-19.5-5.3-28.3c-0.5,0.2-0.8,0.6-0.9,1.1
	c-1.1,3.5,1.7,14.4,1.7,17.3C543.2,293.8,549.3,319,568.2,333.4z M760.6,196.4c-1.2-15.3-18.1-21.1-31.3-21.3
	c1.6-4.2,17.4-15.3,12-18.4c-6.6-4.3-14.5-19-22.7-11.8c2.2-19.5,6.4-38.9,8.1-58.6c-0.8-5.2,5.9-21.1-1.5-22.1
	c-76.3-4.5-153.1-2.8-229.6-3.2c-21.6,1.1-38.3-83-103.5-55.4c-20.3,10.3-30.6,31.4-42.5,49.7c-2,3.2-4.2,5.2-8.6,5.2
	c-23.2-0.2-46.5,0.3-69.6,1.7c-15.2,0.3-15.6,27.4-20,38.5c-3.4,14.1-6,28.6-8.9,42.8c-1.2,9.5-17-3.1-22.3-1.3
	c1.3,3.1,2.1,6.7,4.3,8.9c3.1,3.4,3.6,3.8,0,6.4c-5,3.7-7.8,10.1-6.1,16.1c3.1-2.9,4.6-8.2,9.1-8.9c1.4,5.2-7.4,8.5-1.3,12.8
	c0.6,5.2-3.2,11.7-0.3,16.5c0.4-0.8,1.3-1.7,1.3-2.4c-0.5-4.7,0.4-9.4,2.5-13.6c-0.3,2.8-0.4,5.7-0.1,8.5c0.4,2.1,0.7,4.2,0.8,6.3
	c0.1,2.7-7.4,7-9.7,5.7c-3.5-6.8-6.7-14.9-12.9-19.7c1.8,7.6,9.6,14,11.7,20.9c-2.6,1-5.2,1.8-7.9,2.4c-6-1.6-8.7-10-14.8-11.7
	c2,5.2,7.5,7.9,10.6,12.3c-13.1,2.4-27.5,1.7-40.8,0.1c-17.5-2.9-28-19.6-44.4-25c-9.6-3.1-17.4,0.2-20.2,8.7
	c-5.2,30.3,37.5,38.2,59.5,43.8c14.1,3.6,28.5,5.2,42.9,6.4c7.6,0.6,15.1,1,22.8,1.2c2.2,0.1,3.1,0.6,2.9,2.9
	c-2.4,39-2.7,17.4-34.4,32.5c-10.2,4.8-19.1,11.2-25.9,20.2c-7.4,7.8-5.4,19.3-10.1,28.3c-3.6,8-10.7,2.9-16.9,1.1
	c-17.8-6.1-25.8,11.2-24.3,26.2c0.2,4-2.3,9.5,1.7,12.1c0.8,0.4,2.6-0.5,3.3-1.4c4.5-4.5,12.4-2.6,17.9-7c-0.7,1.9-0.6,4.2-2,5.8
	c-23.5,23.2,16.6,58.8-10.1,80.3c-11.9,18.4,33.5,10.6,40.5,4.8c12.7-8,6.8-0.6,6.8,7.8c-3.4,20.7-17.1,37.5-26,56.1
	c-17,34.3-14.5,75.3-12.2,112.6c1.2,6.1,15,4.7,20.4,6.6c17.1,3.1,34.6,4.7,51.7,7.2c4.4,0.1,1.8,8.7,2.4,11.8
	c-1,3.7-3.1,11.7,3.8,9.1c3.8-2,7-4.4,11.3-5c4.4-2.2-0.3,8.2,7.8,14.9c5,3.2,10.7,12.2,16.8,10.5c1.7-1.1,2.3-3.4,1.2-5.1
	c0,0,0-0.1-0.1-0.1c-1.2-2.2,0.8-4.7,1.8-6.7c5.1-0.9,11.3,2.2,15.8,5c4.9,1.7,4.1-2.3,3.6-5.8c-2-6.6,3.4-10.6-0.1-18.7
	c-0.7-2.1,0.6-3.1,2.7-2.8c11.5,1.7,23.1,2.8,34.7,3.3c10.8,0.6,21.7,1.2,32.6,2c4.7,0.6,8,5,12.1,6.8c11.2,5,23.2,7.8,35.5,8.4
	c2,0.1,2.9,0.8,2.7,2.9c-0.9,4,2,11.2-1.9,13.5c-8.9,0.7-38,1.4-36.4,13.8c-0.9,4.7,1.8,12.9-4.5,14.4c-28.5,6.3-56.9,14-85.3,20.9
	c-18.9,4.2-37.6,9-56.2,14c-6.4,0.6-13.4,12.8-5.3,14.7c47.9-7.1,95.8-14.6,143.4-23.5c2.3-0.3,5.5-1,7,0.3c4.5,3.4,9.7,5.8,15.2,7
	c8.2,2,16.5,3.6,24.9,4.6c3.2,0.3,2.9,2.1,3.1,4c0.8,27.7,2.6,55.5,2.9,83.3c0.2,8.5,0.4,16.8,0.7,25.3c-0.1,2.1,1.5,5.9,2.9,6.5
	c5.9,2.4,8.5-2.1,8.5-7.5c1.5-24.4,2.7-48.8,3.8-73.3c0.4-11.2,0.4-22.5,0.7-33.8c0.1-3.3,0.9-4,4.2-4.3c6.9-0.8,13.8-1.3,20.6-2.7
	c5.5-0.4,10-6.1,15.3-6.2c32.4,5.7,64.8,10.8,97.2,15.9c10.6,1.3,21.2,3.2,31.6,5.1c4.2-0.5,24.3,6.7,22.8-1
	c-1-9.3-11.4-11.9-19.2-13.6c-8.7-2.4-17.4-4.7-26.1-6.8c-2.9-0.6-2.6-2-2-4.2c6.6-17.9,1-37.5,3.5-55.7c1.9,2,2.4,4.7,4.2,6.6
	c1.8-4.1-1.3-8.7-1.4-13.1c-3.7-28.9-2.8-18.2,29.9-22.3c24.7-10.3,48.1-23.6,68.7-40.8c5-6.1,2.7-26.5,4.3-35.5
	c2.5-43.1,5.7-86.3,5.8-129.6c0.1-1.3,1.3-3,2.5-4c9.9-5.5,8.7-17.7,10.1-27.5c0.9-10.4-1.3-20.5-4.2-30.4c-0.8-3.2-3.1-5.7-0.3-9.6
	c7.5-10.6,6.6-17.7-2-27.1c-2.5-4.9,3-18.3,3.4-24.4c4-21,9-41.8,11.9-62.9c3,3.4,8.7,4.8,8,10.5c0.5,3.4,3.7,3.8,6.2,1.3
	c0.7-0.6,1.1-1.4,1.3-2.3c-0.1-1.8,0.8-2.2,2.1-2.5c1.2,4,7.6-1.1,9.1-2.6c20.4-19.5,6.1-45.4-9.9-62.1c12.2,1.8,23.2,11.2,35.9,11
	c5.1-1.5,4.6,2.7,8.3,3.2C765.2,209.2,760.5,200.4,760.6,196.4z M722.7,177.4c3.6-9.5-3.9-18.1,13.8-16.5c0.2,0,0.6,1,0.4,1.2
	C733,165.3,728.1,177,722.7,177.4L722.7,177.4z M723.6,152.9c0.1-2.4,0.4-4.9,0.8-7.3c5.3,3.5,10,7.8,14,12.8
	c-5.2,0.9-15.4-3.1-16.8,3.9c0.1,3.9-1.5,10.3-0.8,14.8c-0.7-0.3-1.3-0.7-1.8-1.2c-3.5-5.9-9.8-10.3-12.1-16.7
	C713.6,159.1,723,163.1,723.6,152.9L723.6,152.9z M721.4,146.3c0.3,2.6,0.2,9.3-2.8,10.1c-3.6,0.3-7.3,1.5-10.9,1.1
	c0.4-0.6,0.8-1.3,1.2-2C713.4,152.2,717,148.9,721.4,146.3L721.4,146.3z M723.5,66.7c5.2,1.6-3.3,39.5-3.6,46.5
	c-2.1,10.2-1.9,21.1-4.3,31.1c-2,4.6-7.9,8.2-11.4,12c-0.6,0.8-1,1.8-1,2.9c0,4.9,8.7,8.5,7.7,13.8c-0.9,3.7-0.3,8.8-4.3,10.7
	c-3.6,1.1-11.3,2-9.6-4.1c1.2-6.9,2.4-13.9,3.8-20.8c4.3-22.2,9-44.3,10.8-66.8c0.8-5.7,3.9-15.2-4.8-15.1
	c-51.1-2.6-102.4-2.3-153.6-1.3c-14.3,0-28-0.2-41.7,0.1c-8.2,0.1-13.4-6.5-19.1-11.3C568.8,63.4,646.9,62.9,723.5,66.7L723.5,66.7z
	 M651.5,224.4c-0.1-0.1,0.4-1.1,0.6-1.1c4.3-0.4,5.6,0.7,7,6.7c1,4.8,1.1,5.5-3.8,8.3c-5.3,3-10.4,6.3-15.4,9.7
	c-5.2,3.4-7.5-9.4-10-12.4c-6.1-10.3-18.4-49.6,1.2-48.9c4,16.1,10.9,36.1,25.2,45.5C655.7,229.3,653.1,227.1,651.5,224.4
	L651.5,224.4z M661.4,227.8c-0.6-1.3-0.5-2.9-0.7-4.4c7.1,8.2,15.4,8.7,24.4,3.1c-2.3,14.2-5.1,28.4-8,42.6
	c-3,14.9-6.1,29.8-8.8,44.7c-2.4,6.9-2.2,28.6-7.2,31.3c-5.4-32-31.3-18.1-35.1,5.6c-0.3,1.7-0.7,3.3-3.2,3.8
	c-14.8,2.2-25.8,12.1-33,24.8c-14.5-46.1,15.1-74.3,50.3-98.4c14.5-7.7,19.4-9,19.4-15.3c0-3.7-1.8-9.1-4.2-18.6
	C651.5,236.5,668.2,245.3,661.4,227.8L661.4,227.8z M686.1,219c1.3,0.4,8.7,0.6,5.7,2.8C684.3,225.8,681.6,219.5,686.1,219z
	 M657.2,347c-0.2,4.1-4.5,6.6-6.4,10c-1.7,4.3-11.4-4.5-20.8-3.1c-0.5,0-1.4-1.3-1.2-2c1.2-9.1,6.6-16.5,14.2-21.6
	C654.2,327,657.5,338.2,657.2,347z M601.2,449.1c1.9,11.7-6.3,16.9-8.9,26.2c-2.4,7-16.5,10.8-23.2,13.7
	c-15.5,5.3-31.9,6.7-48.2,8.2c-48.4,0.4-30.1,16.6-38.1-24.4c-0.8-7.3-3.8-15-3.1-22.2c1.7-3.3,0.9-6.8,1.2-10.1
	c2.7-22.2,6-44.4,12.7-65.8c3.8-8.3,8.4-37.5,15.1-40.3c2.4-0.4,4.5-6.1,6.6-2.2c7,8.9,17,3.4,12.5-7.6c0-0.2,0.6-0.7,1-0.7
	c4.3-0.1,10.8-4,8.1-8.9c-1.5-3-3.8-5.4-7-5.7s-1.6-1.9-1-2.6c5.8-9.6,1.4-14.6-9.1-11.2c8-20.7,11.8-33.6,14.3-42.1
	c7.6-25.4,3.8-11.2,67.4-50.7c16.3-7.7,15.8-15.6,16.3,5.5c1.2,18.6,16.6,52.9,35,59.2c-2.3-5.2-7.8-8.4-11.3-12.7
	c-3.8-4.8,5.9-6.7,8.4-9.4c1.5-1,1.8-0.2,2,0.8c0.5,6.1,6.5,17.4,2.9,22.9c-0.3,0.4-0.6,0.8-1,1.1c-25.5,11.6-47.3,29.9-63,53
	c-2.8,4.4-4.8,9.2-5.9,14.3c-2.9,11.9-1.9,25.5,0.4,36.8c2.1,5.9,4,7.9,1.3,14.2C583.5,416.7,593.9,424.6,601.2,449.1L601.2,449.1z
	 M518.6,581.5c-0.8,3.8,4.5,17.2-1.5,17.7c-27.6,0-55.3-0.3-82.9-0.8c-46.1-0.9-92.1-2.7-138.1-5.2c4.7-8.7,21.3-22.3,6.8-29.4
	c-9.1-5.5-9.9-18.7-2.9-25.9c6.6-3.9,15.8-5.9,23.5-6.9c-0.8,3.9-4.9,5.2-7,8.2c-1.8,2.5,0.3,6.6,3.4,6.3c5.7-0.6,10.9,1.1,16,3.3
	c9.6-2.9,2.2,19.5,6.6,22.1c5.7,1.2,8.6-4.6,14-5.1c4.8-1,7.7-4.7,9.7-9c1.2-2.7,3-2.9,5.5-1.6c18.6,9.2,36.8,19.2,55.1,29
	c2.4,1.3,4.8,2.5,7.5,2.5c0.7,0,1.5-0.1,2.2-0.3c10.2-2,0.8-13.5,11.9-24.6c25.1-31.2,64.6-42.6,102.3-48.6
	c-12.3,17.2-27,36.1-30.9,57.1C520.4,574.4,519.2,577.8,518.6,581.5z M220.4,413.8c4.2,0,26.7-11.8,24.1-3
	c-2.8,18.2-7.5,36.1-13.9,53.4c-2.4,5,0.9,5.1,0.3,8.7c-2,6.3-5,11-11.5,13.4c-5.9,3.4-11.3,7.9-17.4,10.8c2.3-11.6,8-22.5,11.3-34
	c3.1-12.6,4.9-23.9,5-36.7C219.3,422.5,215.1,415.4,220.4,413.8z M217.1,409.5c-1.2-5.5-2.9-10.9-5-16.1c-0.5-7.3,0.1-14.8,0.6-22
	c0.1-1,1.4-2.7,2.2-2.7c8.4-0.6,16-3.7,23.3-7.5c1.9-0.2,14-10.3,12.5-5.7c-1.1,11.8-2.7,23.6-4.1,35.5c-1.6,4.5,0.4,10.6-3.6,13.3
	c-7.7,2.3-15.6,4.3-23.3,6.7C218,411.5,217.5,411.2,217.1,409.5z M227.1,496.3c-0.1-2.8,4.7-25.9,8.7-20.9
	c19.5,14.4,43.6,20.7,67.6,19.8c1.2,0,2.4-2.2,3.6-3.4c0.8-1.9,1.8-3.7,2.9-5.4c2.6,3.6,7.5,4.9,10.2,8c-2.9,5.4-1.8,7.7,4.2,9.1
	c0.6,0.1,1.7,0.8,1.7,1.3c-0.2,9.1,11.9,13.7,7.3,14.6c-3.3,1.6-6.3,3.8-8.8,6.6c-12.7,4.8-37,6.4-32.2,26.4c0.5,2.8,3.1,6.3,1,8.8
	c-4,3.3-28.7,18.2-30.9,10.6C250.8,546.6,225.3,526.4,227.1,496.3L227.1,496.3z M321,497.2c2.3-1.6,4.8-1.4,7.4-0.7
	c-0.9,1.4-0.6,3.9-3.2,3.9C322.4,500.3,322.1,499.2,321,497.2L321,497.2z M344,552.4c-0.5-9.2,6.1-12.8,11.5-17.7
	c-4.3-0.6-7.9,4-10.8,6.5c-3.6,4.6-5.2,5.5-10.6,3.9c-10.4-3.5-10.8-18.4-0.4-22.2c8-4,15.9-1.5,24.1,0l0.9,0.2
	c-5.3-7.6-16.7-2-23.1-8c-10.4-8.2-5.4-23,8-20.9c7.2,1.5,13.9,4.2,18.6,10.2c4,6.2,10,12,11.4,19.4c0.3,1.3,0.4,2.7,0.4,4
	c0.1,7.3,0,14.5,0.1,21.8c0.1,2.4-1.1,2.9-3.1,2.2c-4.4-1.2-5.1-0.6-7.1,3.5C359.6,566.5,342.4,565.2,344,552.4L344,552.4z
	 M348.2,565.6c-0.3,0.3-0.5,0.7-0.8,1c-1.3,0.8-2.4,1.3-3.4,1.8c-0.1-1.3-0.1-2.6-0.1-3.8c0.1-0.6,0.2-1.2,0.3-1.8
	C345.6,563.8,346.9,564.7,348.2,565.6L348.2,565.6z M286.3,569.9c10-5.3,8.2-9.6,18-0.6c5.4,5.7-18.1,29.5-21.4,37.3
	c-3.6,5.3-6.6,11-9.7,16.7c-1.2,2-2.3,2.8-4.7,1.6c-9.6-5.7-20.4-5.1-30.9-6.8c15-9,32.6-20.3,35.7-39.1
	C274,573.5,282.4,573,286.3,569.9L286.3,569.9z M324.2,539.6c-0.1,1.5-0.1,2.4-0.1,3.3c-1.7-0.2-3.2-0.4-4.9-0.6
	c0.4-1.2,0.1-2.7,1.2-3.4C322.9,536.4,322.9,536.4,324.2,539.6L324.2,539.6z M406.4,554.1c5.2,4.5,12.8,3.1,18.9,6.8
	c9.4,5.3,14.9,6.3,13,18.2c1,11-19.3-4.3-24.1-5.5c-11.8-5.9-23.2-12.4-35.2-17.9c-1.3-0.8-2.4-1.6-2.1-4.2c0.8-6.4,0.6-13,0.3-19.5
	c0.4-5.6-3.4-11.7-1.1-16.9C384.2,529.5,392.6,544.2,406.4,554.1L406.4,554.1z M384.1,523.7h0.6c29.7,1.3,18.5-1.3,24.6,28.8
	C399.7,544.3,391.9,533.5,384.1,523.7L384.1,523.7z M518.7,516.9c-30.2,6-59.5,23.4-77.1,48.9c-1,1.8-1.8,1.2-2.6,0.6
	c-4.9-3.2-9.5-6.7-14.4-9.8c-3.9-3.4-12.3-0.6-12.4-7.3c-2.9-20.5-6.8-41.3-4.3-62c1.2-5.7,5.8-9,10.5-11.7c6.9-3.8,14.1-6.8,22-7.7
	c6.8-1.3,14.5-0.3,20.8-3.2c-5.1-1.5-12.6-1.6-20.5-0.3c-14.9,2.4-31.1,9.4-34.9,19.8c-0.6,1.2-1.3,2-1.3,2.8
	c0.3,10.8-0.7,21.9,0.5,32.5c-1.8,4.3-15.8,0.3-20.5,0.8c-1.2-0.1-2.3-0.5-3.2-1.3c-5.4-6.3-12.4-10.9-17.3-17.6
	c-4.2-5.6-10.7-8-17.5-10c-8.8-3-16,5.4-24.1,0.6c-3.7-2.5-11-5-10.7-10.3c4.7-10.9,7.3-22.1,9.3-33.7c4.1,0.9,9.4,9.4,13,5.4
	c10-13.3,20.1-26.6,29.4-40.3c1.3-2.3,2.6-1.8,3.8-0.9c17.7,13,36.1,24.9,54.5,36.7c5.4,2.2,11.7,10.2,17.8,10.2
	c1.7,0,3.3-0.7,4.6-1.8c8.6-7,17.4-14,26.1-20.9c3.2,1,2.9,10,4.2,13.3c2.6,13.5,5.6,26.9,8.2,40.3c1.7,4.6-2.4,16,5.9,13.8
	c31.4-4.5,64.4-1.5,93.5-16.5c-6.3,6.9-16.3,10.8-22.5,18.1C550.9,513.3,530.5,513.4,518.7,516.9L518.7,516.9z M291.7,281.2
	c0,11.2,2.8,22,5.2,32.9c8.7,42.2,27.1,83.5,21.8,127c-3-38-27.9-69.3-39.3-105c-6.5-22.1-8.7-45.6-3-68.1c-1-4.7,9.5,2.6,12,2.5
	C293.3,271.9,291.1,277.4,291.7,281.2L291.7,281.2z M534.2,317.4c-0.8,4.8-11.5,2.4-10,5.5c0.7,2.6,2.6,5.1,1.5,8.2
	c-4,8.8-10.5-9.6-15.5-1.9c-8.4,7.8-12.5,0.4-7.9-8c0.4-1.4,0.7-2.4-1.5-2.5c-1.7-0.1-3.3-1.3-4.9-1.9c-5-3.5-4.8-9.3,2.4-9.6
	c2-0.2,5.3,1.1,5.5-1.8c-3.1-13.1,0.6-19.5,10.6-6.8c2.6,3.7,6.2-0.6,9.4-0.8c8-1,2.3,7.8,0.4,11.1
	C521.7,312.7,534.7,311.7,534.2,317.4L534.2,317.4z M516.3,296.6c-0.6-0.7-1.1-1.4-1.6-2.1c-0.5-0.6-0.9-1.3-1.3-2
	c-3.6-4.5-13.4-5.6-14,1.3c-0.1,3,0.1,6,0.6,8.9c1.3,3.6-6.6-1.2-10.6,6.7c-0.3,0.5-0.5,0.9-0.7,1.5c-1.4,4.9,4.5,9.4,9.1,10
	c1.8,0.1,1.3,0.8,0.6,2c-2,3.8-3.1,9.5,2.2,12.7c2.5,4.2-5.9,19-6.7,25c-8.4,28.6-15.7,57.8-16,87.6c-3-3.6-2-9.2-3.4-13.6
	c-3-14.7-5.3-29.6-6.8-44.6c-0.6-25.3,2.2-50.7,11-74.7c0.8-2.4,1.8-4.8,2.6-7.1c6.3-17.4,14.1-34.3,23.2-50.4
	c9.1-6.9,20.4-11.6,30.4-17C530.2,259.6,522.4,278.1,516.3,296.6L516.3,296.6z M466.4,286.6c-1.2,0.8-2.5,1.3-2.7-0.8
	c0.5-4.7-2.5-13.1,0.9-16.4c10.3-3.1,20.7-5.4,30.6-9.8c1.8-1.2,3.4-1.5,5.2-2.3C497.5,268.1,475.2,278.4,466.4,286.6L466.4,286.6z
	 M468.8,288.6c8.4-5.4,15.6-13,24.5-17.4c-26.3,51.1-36.3,103.1-22.8,159.6c-1.7,6.6-20.6,16.5-26.5,22.1c-4.6,3.4-5.4,3.1-10-0.1
	c-23.2-15.3-46.8-29.9-69.4-46.1c-6.6-4-13.5-12.6-5.9-18.8c6.3-6.3,13-12.3,19.5-18.4c12.2-12.6,25.3-23,37.8-35.2
	c3.6-3.9,3.6-3.8,8.7-1.7c8.3,3.6,17,6.1,25.9,7.5c3.7,0.5,5.1-0.6,5.9-4.3c1.4-5.9,3.4-11.9,4.3-17.9
	C463.9,308.3,459.4,294.9,468.8,288.6L468.8,288.6z M364.7,373.3c-7.8-13.5-16.2-26.9-23.1-41c-4.3-5.8,10-11.5,13.3-15.8
	c1.2-1.2,2.9-1.7,4.6-1.4c9.2,1.3,18.3,1.5,27.2-2.2c1.1-0.4,3.3,0.6,4.5,1.6c7.1,5.5,14.7,10.3,23,13.5c3.6,1.3,0.3,3.3-0.3,3.8
	c-5.5,5.2-10.9,10.6-16.9,15.1c-9.6,9.2-18.8,18.1-28.1,26.8C367.3,375.4,366.2,375.9,364.7,373.3z M454.4,333.5
	c1.4,12.8-67.8-19.3-62.8-26.2c4-16.4-4-26.7,7.3-17.7c5.9,2.3,10.3,8.5,16.4,7.7c8.1-3.4,15.7-8.1,22.3-13.9
	c5.4-4.8,10-11,17.8-11.5C467,266.5,455.7,327.1,454.4,333.5z M416.7,292.7c-3.6,2.8-6.9-2.2-10.4-3.5c-5.9-3.6-12.7-4.7-17.2-9.4
	c9.1-1.3,18.4-0.6,27.4-1.8c9.1-0.2,18.4-5,27.1-3.6C435.9,281.8,425.5,286.5,416.7,292.7z M389.1,303.5
	c1.1,10.5-31.3,10.5-35.6,4.8c-2.8-4-2.8-16.3-1.2-20.5c3.1-2.5,5.6-6.8,10-6.5c7.5-0.1,15.1-0.1,22.7-0.1
	C393.4,286.2,388.4,295.9,389.1,303.5z M340.6,290.3c-2.4,1.7-6.3,4.8-9.1,2.9c-12.8-17.8-15.7-15.9,7-13.1
	c6.4,1.1,11.6-0.1,17.5,1.2C351.5,285,345.6,287.1,340.6,290.3z M330.2,297.1c6.2,5,11.9-5.8,17.9-6.8c-0.1,0.7-0.3,1.5-0.4,2.2
	c-0.1,0.9,0,1.8,0,2.5c-2.3,15.5,8.8,17.1,2.9,20.7c-11,9.1-23.2,16.3-37.3,19.2c-3.1,0.8-2.9-2.1-3.1-2.9
	c-3.2-18.3-8.7-36.9-6.4-55.5c1.4-3.5,8.2,1.5,11.3,0.9C320.9,279.2,324.1,292.8,330.2,297.1z M305.5,324.1c1.8,4.6,1,15.9,8.5,13.8
	c6.5-2,12.9-4.2,19.3-6.4c4.3-5.8,7.9,9.9,10.5,12.5c4,7.2,7.9,14.4,12,21.5c1.5,4.1,7.9,9.1,7.2,13.3c-27.8,25.1,6.3,24.6-3.7,34.3
	c-5.9,8-11.6,16-17.4,24c-3.1,2.5-8.5,16.7-12.6,12.7c-4.5-3.7-9.8-4.5-7.6-11.2c6.2-55.2-24.3-106.7-27.4-161.1
	c3.6,3.1,7.3,6.4,6.1,11.6C301.1,301,303.3,312.5,305.5,324.1L305.5,324.1z M300.7,278.8c-2.8-1.7-5-4.2-7.1-6.7
	c5.5-0.3,7.7,1.4,7.5,5.1C301.1,277.7,301,278.3,300.7,278.8L300.7,278.8z M634.6,173c-0.6-3.1-4.8-6.9-7.6-8.7
	c2.6-3.5,10.2,3.6,13.5,4.1c-0.8-5.3-9.2-11.9-14.7-13.2c-2.6-0.6-5.7-0.2-7.7-1.5c2.1-2.7,4.5-7.3,4.5-9.1c0-0.7-0.3-1-1.2-0.5
	c-10,4.8-20.7,6-31.6,4.8c-2-0.2-1.4-0.8-0.7-1.8c6.8-10.6,14.8-28.2,5.6-39.2c-25.9-13.6-57.4-14.3-83.1-29
	c58.8-1.2,118.4-0.5,177.4,0c4.1,1,22.1-2.2,20.6,4.3c-2.6,32.7-10.2,64.5-15.2,96.8c-0.3,1.9-0.5,2.3-2,1.2
	c-14.9-11.2-35.1-7.7-49.8,2.4c-3.4,2-7.2-2.1-10.8-0.9c-2,0.6-4.3,2-6.4,0.8c1.8-2.6,8-4.1,11.2-2.7c0.6,0.3,1.4-0.1,2.1-0.1
	C638.7,177.4,634.8,175.6,634.6,173z M587.9,143.3c-2.9,11.2-39.3-8.9-45.9-12.6c0.6-0.3,1.2-1,1.7-1c7.3,0.1,14.2-3.2,20.3-6.4
	c8.7-5.2,16.1-11,25.5-13.9C602.2,112.3,592.3,135.8,587.9,143.3L587.9,143.3z M634.7,189.5c-0.5-1.1-0.8-2.3-0.9-3.5
	c0-0.7,0-1.3,0.1-2C637.1,185.7,638.8,187.4,634.7,189.5L634.7,189.5z M636.3,195.3c0.1-1.5-0.4-3.7,0.4-4.3
	c6.7-5.7,14.7-9.2,22.8-12.3c6.6-1.4,12.8-2.3,18.8-0.6c7,2.2,13.4,5.9,19.9,9.4c1,0.5,0.6,3.2-0.8,3.8c-8.6,3.4-17.6-2.3-26.3-2.2
	c-11-0.4-23-0.5-32.5,5.9C638.1,195.5,637.1,195.2,636.3,195.3L636.3,195.3z M350.9,60.7c11.2-17.2,21.2-38.2,39.3-49.6
	c15.9-10.4,38.1-10,53.3,1.3C461.7,25.7,472,47,487.3,63.2c11.9,15.4,30.9,22.8,48.7,29c11,5.1,23.5,5.7,34.5,10.3
	c-15.8,2.2-32-2.1-47.5-5.8c0.4-0.5,0.9-0.9,1.4-1.3c0.5-0.3,1-0.5,1.6-0.5c-0.8-0.3-2.2-1.2-2.7-0.8c-4.6,2.7-6.6-4.5-11.9-3.3
	l0.6,0.4c-0.3,0-0.5-0.1-0.8-0.2c-3.1,0.2-3.5,0-3.7-2.5c0-0.3-0.4-0.8-0.6-0.8c-2.7-0.1-5.4-1.9-8-1.9l-3.7-2.1
	c-1.4-0.7-3.3-0.8-4.5-1.8c-1-0.8-2.2-1.4-3.5-1.7c-2.8-1.8-6.8-4.3-6.5-4.7c-0.3-0.1-0.6-0.3-0.8-0.4c-0.6,0.1-1.3,0.2-1.9,0.4
	c-7-8.1-16.4-1.5-24.6-2.4c1-2.5,4.6-1.5,6.2-3.6c-0.5-0.2-1.2-0.7-1.7-0.6c-2,0.3-4-0.1-5.7-1h0.5c-8.3-4.9-18.9-1.5-27.8-1
	c-6,0.5-11.5,3.9-17.5,4.3c2.8-3.2,5.4-9.7,6.2-12.6c-5.7,1.9-8.2,9.4-14.1,11.3c-1.8-5.6,5.6-9.7,5.2-14.7
	c-6.6,2.7-7.8,11.6-13.5,15.3c-2.6-2.9,4.8-9.9,6-13.5c0-5.2-15.4,17-17.7,18.3c0.5-5.2,5.1-9.3,4.3-14.9c1.5-2.8,3.5-5.6,4.9-8.5
	c-5.9,2.2-7.3,4.9-7.5,9.6c-11,5.6-2-5.7-3.6-10.2c-8.6,7.5-10.8,19.8-15.1,30c-0.8-3.7-0.8-11.1-2.2-15.5c0.8-3.6-2.6-7.2-2.9-11.2
	c-0.9,1-1,2.4-0.3,3.5c0.1,3.1,1.1,6.8-0.3,8.9c-2.5,3.1-0.4,4.5-1.5,6.6c-2.5-4-3.3-8.8-2.3-13.3c-0.8,0.2-1.5,0.4-2.2,0.8
	c-1,1.4-1.9,2.7-0.6,3.7c-0.9,1.3-1.8,2.6-2.6,3.9C345.1,64.6,348.7,63.9,350.9,60.7z M247,139.6c3.9-21.9,7.4-44,14.8-65.1
	c1-6.2,6.4-9.6,12.6-9.7c22.6-1.2,45.3-1.4,68-1.9c4,0.1-5.4,8.4-6.1,10.4c-1.9,2.7-4,2.2-6.4,2c-13.5-1-27,0.8-40.5,1
	c-11.2,0.3-16.7,0.9-19.1,11.4c-3.3,10.1-5.4,20.5-7.7,30.9c-1.9,8.2-3.1,16.5-4.5,24.9c-0.6,2.9-3,3.2-5,3.2
	C244.2,146.9,245.4,148.1,247,139.6z M275.7,105.2c-0.9,11.1,2.3,22.2,8.8,31.3c-8.1,2.6-15.9,8.1-24.4,8.4
	c3.9-18.6,7.7-37.5,12.6-56c0.8-3.1,2-6.1,4.7-8.2c7-2.4,13.7-1.3,20.9-1.9c10.8,0.3,22.5-1.7,32.9-0.5
	C314.2,95.5,275.9,86.8,275.7,105.2L275.7,105.2z M291,102c4.6,5.4,8.1,12,14.4,15.6c3.1,0.7,3.1,1.8,1,3.3
	c-5.6,4-11.2,8.2-16.8,12.4c-1.8,1.2-2.9,1-4.3-1.1c-5.2-8.1-7.4-17.7-6.3-27.3C280,98.4,285.9,95,291,102z M209.2,206.3
	c4.8,1.8,5.6,4.3-0.7,3.7c-7.3-0.9-14.3,0.9-20.4-1.8C194.8,206.2,202.2,206.9,209.2,206.3L209.2,206.3z M106.3,184.1
	c6.8-9.5,17.7-3.6,26.1,2.1c2.9,6.9,7,22,12,31.7c-5.4-2.6-10.5-5.7-14.5-10.3c3.4,7.1,8.9,10.6,15.6,12.1c0.9,1.7,2,3.2,3.3,4.7
	C127.7,218.9,95.2,206,106.3,184.1z M158.3,226.6c-2.3-0.4-5-1-8-1.8c-1.3-1.4-2.3-3-3.2-4.8c-0.3-0.4-0.5-0.9-0.8-1.3
	c-4.9-9.8-9.4-25.6-13.3-32c1.6,1.1,3.1,2.2,4.5,3.1c9.8,7.7,19.8,14.8,32.4,16.2c7.1,1.5,14.1,2.4,21.1,4.6
	c14.5,4.5,30.2,0.3,45-1.3c41.5-7.2,83.1-18.6,125.6-15.9c10.4-0.1,20.9,0.1,31.1,2.1c8.4,2.2,17-1.5,24.5,3.8
	c16,0.6,31.5,5.8,46.8,10.7c21,6.6,42.2,17.4,55.5,34.2c-6.4-17.4-26.7-24-41.9-31.8c-12.1-5.7-26.1-7.7-38.2-12.7
	c8.5-2.6,18.7,1.4,27.4-0.5c-8-2.5-17.3-1.7-25.8-2.5c-9,2-17.9-0.2-26.8-1.4c-10.8-0.8,0-4.3-14.2-2c-17.2-3.4-35-2.6-52.4-3.7
	c-6.1,0.2-12.2,1.7-18.4,0.6c-5.4,0.2-11.2,3.1-16.5,1.8c2.9-4.3,8.8-5.9,11.2-10.5c-7.5,2.2-11.7,11.5-19.4,12.5
	c-13.5,1-26.5,5.2-39.9,7c-12.6,2.7-25.1,5.3-37.9,7.1c-5,0.8-10,2.5-14.1-1.6c12.7-5.5,25.1-11.8,37.1-18.6
	c45-23.6,88.3,17,112.8-63.2c5.5-13.3-8.2-30.7-22.5-30.1c-2.9,0-3.2,2.6-4.7,3.9c-3.6,2.6-6.7,5.8-9.3,9.4
	c-3.4,4.3-6.5,9-10.4,12.8c-0.6,0.8-1.7,1.8-1.6,2.5c-1,14-9.5,27.5-20.5,36c-2.7,2.1-2.8,3,0,4.9c7.9,5.5,15.1,3.1,22.9-1.1
	c-0.2,0.6-0.4,1.3-0.6,2c-0.2,0.5-0.4,0.9-0.6,1.3c2.9,1,4.9-2.3,7.3-3.5c7.3-3.9,15.3-10.5,23.9-9.3
	c-10.7,17.3-29.7,21.9-48.8,22.6c-2,0.2-3.2-0.2-4.3-2.7c-1.8-3.3-4.5-7.5-7.8-9.2c-1,1.5,5.9,11.2,7.4,11.6
	c-3.2,0.4-7.8,1.8-8.8-3.1c-0.1-0.3-0.5-0.5-0.7-0.7c-9.2-8.6-21.5-17.8-34.4-17.3c12.9,4.9,25,11.1,35,20.8
	c-4.7,3-9.4-0.8-13.5-2.4c-8-1.9-16.7-4.7-24.7-1.2c8.2,2.5,18.6-0.7,26,4.6c-7.5,2.8-17.2-3.7-23.9,2.6c4.4,0.8,9-1.9,13.2-0.6
	c-7.8,5-17.5,8.4-25.8,13.3c-2.8,2.7-5.6-12.1-2.3-13.6c-0.2-1.2-0.6-2.4-1.2-3.6c1.2-1.4,2.7-2.6,4.3-3.6c-3.1-1.9-6.4,1.7-9.3,2.9
	c0.3-4.4,4.7-7,6.6-10.6c-3.2-1.6-7.5,1.2-11.1,1.6c1.9-3.7,5.7-6.7,8.7-9.5c2.2-1.6,0.7-2.2-0.2-3c-2.1-2.2-5.7-3.3-6.7-6.2
	c37,12.5,77.2-9.4,99.8-40.1c5-6.8,9.1-14.1,12.4-21.9c-0.9,1.5-1.9,3-2.9,4.5c-5.7,8.7-12.4,16.9-18.9,25.1
	c-7.5,9.1-19.9-14-25.8-18c18.9-2.9,27.9-4.4,38.3-11.2c4.8-3.1,9.8-7.3,16.2-13.1c0.1-0.4,0.2-0.9,0.4-1.4c0.4-0.8,0.9-1.6,1.3-2.4
	c0.3,0.2,0.8,0.6,0.7,0.7c-0.3,1.3-0.7,2.5-1.2,3.8c-0.3-0.2-0.7-0.4-1.1-0.5c-2,4.8,1.5,7.9,3,11.6c0.2,0.5,1,0.6,1.5,1
	c0.1-0.6,0.6-1.5,0.4-2c-1.2-2.7,2-12,3.1-16.4c1.3,7.3,1.9,14.8,3,22.2c4.3-4.9,1.3-14.4,4-19.6c0.1-0.1,0.3-0.2,0.4-0.3
	c-0.8,6.9,1.3,16.5,1,22.4c8.7-7,7.3-19.8,12.9-28.6c3.4,5.9-3.4,12.2-1.2,17.7c3.9-5,7.2-10.5,9.9-16.3V65
	c-2.8,8.7-8,16.1-11.9,24.2c1.1-0.3,2.7,0.1,3.5-1c4.2-5.3,9.9-9.5,12.4-16.2c0.4-0.9,1.9-1.5,2.8-2.2c1.2,5.2-2.5,10.9-1,15.8
	c4.6-4.6,3.5-13.5,9.6-17.5c-0.1,1.4-0.3,2.9-0.5,4.3c-0.1,0.6-0.2,1.2-0.4,1.8c3.1-0.3,4.9-1.3,7.6-1.6c-1.3,1.6-2.4,3.4-3.1,5.4
	c15.9-7.7,33.1-9.2,50.6-10.1c-0.1,2.7-0.3,4.7-2.7,4.5c-5.2-0.3-14.2,2.6-17.3,6.3c8.2-0.4,16.1-3,24.4-2.7
	c4.5,1.2,17.5-5.9,18.6,0.2c-3.1,2.4-7.7,1.3-11.2,2.6c-2.5,1-6.4,1.6-7.8,4c4.8-1.7,24.9,0.8,25.4-4.4l-0.8-0.7
	c0.6,0.4,2.2,1.5,3.9,2.6c-4.3,0.8-8.8,3.7-12.6,5.2c6.4,0.5,15.9,2.7,23.7,2.3c-1.7,0.5-4,0.4-5.6,1.3c2.6,1.8,5.9,1.2,8.7,2.1
	c5.9,2.4,12.6,2.2,18.6,3.7c-0.5,2-2.4,1.8-3.8,3c14.6,3.1,29.8,6.6,44.8,7.8c9.9,2.6,21.1-2.9,30.4,1c-15,6.1-27.7,18.6-44.7,20.5
	c-12.7,1.9-24.2-15.6-34.4-21.2c16.6,25.6,61,45.4,91.2,46.6c5.9,0,11.7-1.1,17.1-3.3c0.9,0,0.8,2,0.3,3.8c-2.2-0.3-4.4,0.7-5.8,2.4
	c6.8,0.8,15.1,0.7,20.2,5.6c-5.5,1.1-17.2-2.1-21.6,0.8c0.6,0.1,1,0.1,1.6,0.3c4.5,0.8,8.8,1.6,13.6,2.4c0.5,0.1,1.1,0.2,1.6,0.4
	c0.4,3.6-7.4-0.2-11,6.5c5.9-1.4,17,0.1,19.4,6.3c-0.3,0.4-1,1-1.5,0.8c-5.9-1.9-10,3.4-15.5,3.6c1.7,2,5,0.9,7,2.8
	c-34.3,20.9-69.6,41-104.9,59.9c-4.7,2.5-9.4,5-14.2,7.5c-2,0.8-3.9,1.6-5.9,2.4c-36.4,14.3-75.2,19.7-114,22.6
	c-20.1,1.2-40.2,0.5-60.1-2.2c-6.1-0.8-12.1-1.8-18.1-2.9c-23.5-5-40.7-12.4-54.6-32.9c5.2-1.6,10.8,0.1,16.1-0.1
	c6.7-0.6,7.8,14.7,16.1,2.9c2.5-4.3,6.6-3.7,10.1-4c5.9-0.4,6.8-1.5,3.4,5.4c-3.2,6.4-8.5,15.8,0.3,20c8.3,4.9,17.5,8,27.1,9.1
	c-5.2-3.4-11.9-4.7-17.7-7.3c-2.1-1-5-0.9-5.9-3.4c62.6,4.2,123.6-39.1,185.9-19.1c-53-38.3-120.8-14.9-179.9-9.4
	C258.7,239.3,207.7,235.1,158.3,226.6L158.3,226.6z M260.3,257.7c-2.5,0.2-16.6,7.3-15.8,2.9c3.1-11.4-1.8-33.5,12.5-11.8
	C259.1,251.8,266.9,255.9,260.3,257.7L260.3,257.7z M283.8,239.4c-0.2,2.3-3.1,2.6-4.9,3.4c-0.5,0.1-1.3-0.8-1.9-1.3
	C272.8,237.2,281.8,238.8,283.8,239.4L283.8,239.4z M319.5,236c6.4-0.6,12.8-2.7,19.2-2.3c-4.5,5-9.5,9.5-13.7,14.7
	c-3,3-3.9,11.3-9.1,10.1c-3.4,1.9-8.4,1.3-11.9,0.4c-0.1-0.1-0.2-0.1-0.4-0.1l-2.4,0.2c-7.5,0.9-0.5-14.7,2.4-15.3
	C317.3,252.1,315,235.9,319.5,236L319.5,236z M304,237.6c3.1-1.6,7-0.6,10.4-1.2c-0.4,0.6-0.8,1.2-1.1,1.9c-0.2,0.4-0.4,0.8-0.6,1.3
	C309.6,244.4,304.5,242.3,304,237.6L304,237.6z M353.3,233.9c3.6-8.9,9.8-1.2,14.6,1.4c3.8,1.3,5.6-1.7,7.1-4.6
	c3.1-5,12.1-7.3,14.7-0.8c5.6,6.4,8.5-1,12.8-2.5c3.8,0.6,7.4,2,10.6,4.2c7.8,6.2-4.6,12.4-8.7,4.5c-9.6-6.1-4.7,8.4-20.6,10
	c-16.9,4.8-34.1,8.7-51.5,11.5c-1.9-0.1-8.4,2.7-8.6,0.1c3.8-7.5,9.3-14.1,15.9-19.3C346,236.5,349.2,243.6,353.3,233.9L353.3,233.9
	z M342.6,232.3c2.9-0.7,5.9-1.3,8.9-1.7c-0.3,0.7-0.6,1.5-0.8,2.2c-0.4,0.7-0.9,1.3-1.4,1.9c-1.3,0.4-2.6,1-3.3,0.6
	C344.7,234.5,343.6,233.5,342.6,232.3L342.6,232.3z M365.4,228.5c2.4-0.2,4.7-0.3,7.2-0.4C370.9,234.6,363.6,232,365.4,228.5
	L365.4,228.5z M390.2,225.9c1.8-1.6,6.4-1.2,9-1.1c-0.3,0.7-0.7,1.3-1.1,1.9c-0.4,0.5-0.8,0.9-1.3,1.3
	C394,229.4,391.2,228.3,390.2,225.9L390.2,225.9z M441.1,229.7c-2.4-2.7-5.5-2.3-8.2-1.8c-3,0.6-2.6,4.3-3.4,6.8
	c-3.9-6.1-4.7-7.8-11.1-5.4c-2.4,0.8-6.4-2.3-8.2-3.8c9.7,0.3,20-0.6,29.6,1.6c9,2,16.8,3.6,25.1,6.8c-6.4,0.5-13-0.1-19.3-0.5
	C443.9,233.2,442.3,231.2,441.1,229.7L441.1,229.7z M441.3,234.7c-1.2,0.3-2.3,0.5-3.5,0.8c-1.6,0-3.2-0.1-4.8-0.4
	C434.3,229.3,438.4,231.7,441.3,234.7L441.3,234.7z M424.1,237.3c-2,0.1-4.1,0.3-6.1,0.6c0.8-1.7,1.7-3.4,2.6-5
	C424,231.7,427.2,235.4,424.1,237.3L424.1,237.3z M404.3,240.2c-2.2,1.5-4.8,2.5-7.5,2.6c0.4-0.6,0.8-1.3,1.2-2
	C399.7,237.3,401.9,239.3,404.3,240.2L404.3,240.2z M240.4,238.7c2.9,0.1,3.8,1.3,3.4,4.2c-1,6.1-0.9,12.7-2.2,18.7
	c-1.6,1.5-9.4,3.5-10,2.5c-1.5-6.4,1.2-13.5,1.5-20.1C232.1,237.4,235,237.6,240.4,238.7L240.4,238.7z M230,267.4
	c11.6-2.2,23.9-1.8,34.3-8.1c0.6-0.3,1.7-0.6,2.2-0.2c2.4,1.5,4.7,3.2,6.8,5c0.5,3.9-0.8,8.1-1.7,12.2c-0.6,2.2-0.9,4.4-1,6.6
	c-1.2,13.9-1,28,2.1,41.5c13.2,57.4,66.3,105.1,31.7,165.7c-16,8.2-52.7-7.5-67.2-17.7c-4.5-3.4-4.5-3.6-2.8-8.8
	c3.4-10,6.7-20,9.4-30.1c8.7-41.5,10.2-84.2,16.7-126.1c2-10.8,5.6-21.3,8.5-31.8c0.1-0.6-0.6-1.5-0.8-2.2c-5,7.3-5,17.9-9.3,25.8
	c-0.5-0.5-0.8-1.1-1-1.7c-1-7.3-3-15.8-8.6-20.6c11.6,32.7,6.6,38,2.2,70.8c-2.7,7.3-29.2,18.1-36.9,17.5c3.2-5.3,11.7-4,13.8-10.4
	c16.3-38.9-29.9-81-62-46.8C174.1,280.4,205.1,271.9,230,267.4L230,267.4z M165.2,315.7c0.5-1,1-2,1.6-2.9
	c19-23.2,52.5-13.8,59.8,14.2c1.9,8,3.5,26.7-5.9,30c7.3-37.8-24.6-54.3-56.3-39C164.6,317.3,164.9,316.5,165.2,315.7L165.2,315.7z
	 M191.9,315.7c9.1,1.5,18.8,5.4,22,14.3c-19-10.9-28.5-13.9-49.6-3.9c-1.7,1.4-3.8,0.8-5.8,0.9C166.7,316.8,180,315.8,191.9,315.7
	L191.9,315.7z M122.8,356.2c-0.6,1.1-1.3,2-2.2,2.9c-0.3-1-1-2.1-0.9-3c0.3-1.4,0.7-2.7,1.3-4C122.9,352.8,123,354.4,122.8,356.2
	L122.8,356.2z M133.1,353.9c-12.4,3.4-13.1-13.8-8.7-21.6c8.9-14.7,21.1-2.1,34.5-2.5c3.4,0.7,6.1-1.4,9.1-2.6l0.6-0.2
	c12.3-5.1,26.4-5.6,37.5,2c0.8,0.6,1.7,1.2,2.5,1.9c1.2,0.9,2.7,1.4,4.2,1.3c5.6-0.4,5,11.7,6.3,15.6c0.8,8-5.8,16.9-13.7,18.8
	c-2.9,0.2-5.9-2.2-8.8-2.3c-10.8-1.8-8.9-15.9-3.6-22.3c2.9-3.1,6.5-5.3,9.4-8.3h-0.4c-6.4,0-11.6,6.2-14,11.8
	c-1.1,3.1-1.2,6.5-2.7,9.4c-2.7,5.7-8,8.3-13.6,10.4c-2.7,0.3-5.9-3-8.6-3.6c-4.1-1-6.3-3.4-6.3-7.9c-0.6-12.2,7.4-19.6,16.5-26.3
	c-1.4,0.3-2.7,0.7-4,1.3c-12.5,5.3-20.7,22.6-12.1,34.3c0.7,0.9,0.7,2.3,0.8,3.4c-0.4,5.2,3.1,13.8,8.3,6.9c1.3-2,2.2-4,5-4.8
	c0.2,0.8,0.6,1.7,0.8,2.5c0.1,0.5,0.1,1.1,0.1,1.6c-0.8,9.8-9.1,15.5-18.1,11.4c-14.8-10.5-13.4-33.5-2.3-46.4
	c0.8-0.9,0.9-2.2,1.2-3.3C143.5,339.4,145.6,350.5,133.1,353.9L133.1,353.9z M197.7,375c-0.6-2.6-3.4-5.8-1.4-7.6
	C201.1,366.8,200.8,372.9,197.7,375z M165.2,395.9c2.2-3.6-0.6-7.5,4.1-11c1.9-1.9,3.4-4.2,4.5-6.7c3.8-8.1,19.5-10.8,19.8,2.1
	c0.6,12.2-7,28.5-19.8,33.7c-5.6,2.2-11-1.2-11.4-8C162.4,401.8,161.5,398.3,165.2,395.9L165.2,395.9z M161.5,394.9
	c-1.6-1.7-3-3.6-4.2-5.5c6.1-1.5,6.8-1.5,6.4,5C162.6,394.7,162.3,397.1,161.5,394.9L161.5,394.9z M175.1,371.4
	c0.2-6.8,7.8-7.5,11.4-12.1c1,5.2,6.6,8,6.8,13.1c-0.5-0.6-1.1-1.1-1.8-1.5c-1.4-0.9-2.9-1.7-4.3-2.5
	C182.3,367.1,179.3,370.3,175.1,371.4L175.1,371.4z M165.2,369.2c-1.3,1.7-2.2,3.1-3.2,4.5C158.6,362.9,165,361.8,165.2,369.2
	L165.2,369.2z M151.6,446.3c-3.8,1.2-26.9,3.4-20.3-5c9.3-8.6,14.3-19.8,10.1-32.3c-2.5-15.1-11.7-32.9-1.6-46.8
	c2.3,13,4.1,18.8,15,27c0.5,1.8,0.6,3.4,1.4,3.8c6.1,4.5,1.4,12.2,4.8,18.2c10.3,17.6,31.6-6.3,33.8-19.3c1.4-4.5,3.6-9.6,0.8-14.6
	c0-0.1,0.6-0.7,0.8-0.6c4.1,0.5,5.6-0.2,6.1-4.4s3.4-2.9,5.4-3.1c4.7-1.2,0.6,17.2,0.4,20.1C202,416.9,179.7,441.2,151.6,446.3
	L151.6,446.3z M178.3,625c0.1,1.5-0.5,1.9-1.8,1.6c-9.4-1.8-18.9-3.2-28.4-4.5c-5.4-0.6-7.9-0.9-7.4-7.2c-0.1-20.7-1.6-41.4,0.8-62
	c1-33.8,24.1-60,35.5-90.5c2.7-7.3,4.3-14.9,2.6-22.8c-0.1-0.6,0.8-1.6,1.4-2.2c9-7.3,16.8-15.8,22.1-26.2
	c3.5,6.4,0.4,23.7-0.7,31.5c-3.6,24.1-17.2,46.2-19.5,70.4c10.1-25.4,19.3-52.6,24.4-79.5c-0.2-7.6,1.6-15.4-1.3-23
	c-1.3-4.9,1.7-10.5,4.1-14.7c12.1,31.8,0.3,66.4-10.2,97.2c0.4,8-6.6,11.9-10.5,17.3c-12.1,15.7-17.2,35.1-15.6,54.7
	c1.4,7.1,1.3,13.5,4.5,19.5C182.2,597.7,176.8,611.5,178.3,625z M177.7,570.8c-5.2-37.5,13.1-67.4,46.5-83.8
	c-6.8,34.3,21.3,58.3,35.5,86.3c2.9,9.1,13.6-1.2,10.4,5.8c-2.9,8.7-3,13.5-13.4,11.7c-14.7-0.6-29.3-2.9-43.9-4.3
	c-9.6-0.3-18.9-2-28.3-3.3C177.3,583.6,179.2,575.6,177.7,570.8L177.7,570.8z M207.8,631c-4-0.3-8.1-1.2-12.2-1.8
	c-3.8-1.4-14,0.9-14.2-4.4c0.3-8.7,0.5-17.5,0.7-26.2c0.6-4.1-2.4-13.6,4.7-12.1c24.9,4.8,50.3,5.9,75.5,8
	c-7.5,8.3-17.8,14.6-26.4,22C226.5,622,219.5,633.1,207.8,631z M214.9,647.7c1,0.5,2,1.1,3,1.7c0.3,0.1,0.5,0.2,0.8,0.2
	C215.1,653.5,212.8,653.6,214.9,647.7L214.9,647.7z M247.7,671.5c-0.4-0.7-0.7-1.4-0.9-2.2c1.1,0.3,2.5,0.3,3.4,0.9
	c0.6,0.4,0.4,1.8,0.6,2.7C249.7,672.4,248.7,672,247.7,671.5L247.7,671.5z M249.6,646c-0.1-4.5-0.3-7.8-0.4-11.7
	c-5.9,5.6-2.2,16.7,1.8,22.7c1,1.5,2.4,2.7,1.3,4.9c-5.2,10.8-18.6,0.2-19.3-7.9c-1.9-8.3,1.5-15.1,5.6-21.8c1-1,1.4-2.4,1.1-3.7
	c-4.8,3.3-7.7,9.1-9.2,14.7c-0.1,7-13.7,5.9-14.7-1.4c-1.5-10.2,9.5-12.6,16-17c2.1-1.2,4.4-2.1,6.8-2.5c8.7-1.7,17.9,1.7,26.2,4.5
	c1,0.3,2.6,1.6,2.6,2.4c0.2,8.8,6.8,16.5,4.5,25.6C267.1,670,250,656.9,249.6,646z M270.5,665.5c-0.4-0.8-4.3-1.4-0.5-2.9
	c3.1-1.6,1.8,2.3,2.4,4C271.7,666.3,270.7,666,270.5,665.5L270.5,665.5z M309.2,640c-12.4-1-24.1,0.1-35.8-2.7
	c-2.6-0.8-2.9-6.7-1.7-7.9c4-2.7,5-7.1,7.3-10.7c4.4-6.8,8.7-13.7,13.3-20.3c0.8-0.9,2-1.4,3.2-1.4c34.8,0.3,69.5,2.9,104.3,3.5
	c39,4.3,81.2-3,118.7,3.4c-0.5,6.8-1.7,13.5-2.5,20.3c-0.5,6.9-0.8,13.8-1.3,20.8c-0.1,0.4-0.7,1.2-1,1.2
	C445.4,648.8,377,645.8,309.2,640z M449.7,683.4c-6.4-1.7-12.9-2.7-19.4-3.9c-3.3-1.2-9.4,0.6-9.9-4.1c0.6-4.1-2.4-12.2,2.9-13.7
	c10.1-1.6,20.5-2.9,29.5-7.9c18.3-7.7,39.2-1.9,58.6-3.7c2.5,0,3.2,0.8,3.2,3.2c-0.6,12.6,0.8,25.5-0.7,37.9c-0.5,7-2.2,13.9-5,20.5
	c0.7,0,1.5-0.1,2.2-0.3c1-0.6,1.9-1.5,2.9-2.2c2.7,19.1,6.6,3.9,7.5,13.2c0.3,2.4-1.1,2.7-2.9,2.3c-8.2-2.3-16.5-4.8-24.8-6.9
	c-9.7-2.4-19.5-4.7-29.2-7c-2.6-1-7.3-0.3-7.9-3.8C455.5,698.8,460.6,685.5,449.7,683.4L449.7,683.4z M352.9,646.9
	c17.2,0.6,35,1.4,52.6,2c15.6,1,31.9-0.6,47.2,2.2c-4.5,2.9-10.4,3-15.4,4.9C413.2,661.7,373.4,661.3,352.9,646.9L352.9,646.9z
	 M417.9,685.2c-1.4,6.8-12.1,5.1-17.2,3.8c-5.2-0.3-1.5-18.4-2.7-23.2c-1.1-5.4,13.4-1.9,17.1-2.9c1.2,0,2.2-0.2,2.1,1.7
	c-0.1,4.2,0.1,8.5,0.6,12.7C417.8,680.3,417.8,682.8,417.9,685.2L417.9,685.2z M390.9,681.4c7.4-1.1,0.8,8.8,7.8,9.8
	c7.3,3.2,21.6,3.8,22.3-6.5c-0.8-7.1,11.2-1.3,15.1-1.4c63.1,13.4-67.5,20.7-76.3,6.6C364.9,682.5,382.4,682.5,390.9,681.4
	L390.9,681.4z M206.6,752.6c-2,0.2-1.8-1.6-1.5-2.9c1.1-4.5,5.1-5,8.6-5.9c38.5-9.7,77.2-19.4,115.9-28.7c9.1-2.4,18.1-5,27.1-7.5
	c2.7-0.8,3.7-0.1,3.8,2.6c-0.3,5.7,0.8,11.7-0.6,17.3C309.2,736.4,257.6,744,206.6,752.6z M417.2,718.2c-0.8,23.2-2,46.3-3.2,69.3
	c-0.6,16.8-1.1,33.5-2,50.2c-1.2,5.1,1.2,21.2-4.2,22.6c-2.9,0.8-2-2.8-2.2-4.7c-0.4-12.6-0.4-25-1.3-37.6
	c-0.1-23.1-1.2-45.6-1.9-68.5c-0.5-11-0.8-22-1.4-32.9c-0.1-2.2,0.4-2.8,2.7-2.7C408.3,714.5,419.4,709.8,417.2,718.2L417.2,718.2z
	 M420.7,741.7c-3.4-1.5,0.1-14.4-1-18.6c0.1-4.9,2.6-10.9-3.3-12.3c-2.1-0.1-4.2-0.2-6.3-0.2c-3.1,0-6.2,0.1-9.3,0.1
	c-2.9,0-2.6,2.4-2.7,3.8c-0.1,3.4,2,27.4-2,26.7c-12.6-1.8-25.7-3.2-36.9-9.4c2.9-2,4.7-1.7,4.5-6c-0.1-4.8,0.1-9.8-0.1-14.7
	c-0.1-10.6-5.9-2.4-4.3-16.2c0-0.3,1.2-0.8,1.6-0.8c7,3,14.5,4.7,22.1,5.1c9,0.6,18.2,1.4,27.4,1.6c14.7,0.3,29.4-0.7,43.3-6.3
	c-1.2,4.4,2.2,11.2-2.6,13.7c-0.8,0.3-1.4,1.9-1.5,2.9c0.4,5.3-3.6,20.6,1,23.1C457.6,737.4,422.9,741.9,420.7,741.7L420.7,741.7z
	 M564,738.1c10.9,4.2,37.1,5.7,42.4,15.8c4.5,5.4-25.3-2.9-28.3-2.4c-31.5-4.9-62.9-10-94.4-15.3c-4.8-1.8-33-2.1-32.1-6.3
	c0-28.3-0.1-17.9,25.5-12.8c14.7,4,29.5,7.5,44.3,10.9c2.7,1.2,7.8,4.5,11.8,5.9c2.5,1.9,5.3,3.1,8.4,3.6c0.8,0.6,3.5-1,2.4,1.9
	c3.1,1.6,5.7-1.5,8.5,1C556.7,740.8,557,735.7,564,738.1z M564.9,601.8c-4.2,22.2-0.5,44.7,0.3,66.7c-0.8-1.8-2.1-3.5-2.8-5.4
	c-0.1,22.8,4.1,46.1-2.9,68.5c-0.6,1.9-0.2,4.8-2.9,4.9c-0.6-2.5,1.8-4.9,0.9-7.3c-1.8,3.1-2.4,7.8-6.4,8.9c0.1-0.8,0.3-1.6,0.6-2.4
	c0.4-1,1.1-2.1,1.6-3.1c-11.4,5.9-18-0.3-26.4-7.2c0.4,2.2,1.5,4.1,3.1,5.7c-2.7-0.9-5.2-2-5.2-4c-0.1-6.1-4.3-11.5-2.7-17.8
	c0.2-1.3-0.7-2.5-1-3.6c-2.7,2.2-1.1,5.9-3.2,8.2c-3.6-4.2,0.8-9.5,0-14c-0.3,0.1-0.6,0.3-0.9,0.6c-0.3,0.3-0.7,0.8-1,1.3
	c3.2-28.4-0.2-57.2,3.7-85.6c2.6-15.3,3.8-31.1,10.8-45.2c0.8-1,0.6-2.2,0.4-3.4c-5.9,4.6-6.3,12.2-9.4,18.4
	c-0.9-6.5,1-13.1,5.1-18.3c1.8-1.9,2.2-5,3.3-7.5c-1.7,2.2-3.3,4.8-5.2,7.3c-0.6,0.7-1.3,1.4-2,2c3.6-15.6,14.6-29.5,23.1-43.1
	c11-18.1,29.2-29.3,45.9-41.6c5.1-8.4,2.1-2.3,14.9-3.8c2.1,0,4.4-0.5,4.5,2.6c-0.8,8.2,1.7,20.4-3.6,27c-1.3-2.6,1.7-7-0.2-9.1
	c-0.9,3.4-4.3,8.6-5.7,13.2c-0.5-0.8-1-1.5-1.5-2.4c-0.6,6.1-3.3,20.8-8.3,23.9c-0.3-2.9,2.6-5.2,1.3-8.2
	C575.5,548,569,575.8,564.9,601.8L564.9,601.8z M613.9,634.1c-0.2,1.2-0.9,2.3-1.9,2.9c-12.8,9.1-29,7-43.9,8.3
	c-0.4,0-1.3-0.9-1.2-1.4c0.3-22.2-0.1-44.7,6.4-66.2c4.3-11.9,8.3-33.4,17.5-41.5c-0.1,2.2-1.5,4-0.7,6.2
	c6.9-4.8,9.5-13.5,12.8-21.1c0.3-0.4,0.5-0.9,0.6-1.3c8.6-9.1,11.2-26.7,15.6-37.6c1.9-8.5,20.7-13.8,27.7-24
	c-2.7,32.7-23.7,62-33.4,93.2c-5.2,15.2-10.2,30.7-11.6,46.8c-0.1,9.1-4.3,21.9-1.3,30.1c4-5.3,1.3-12.8,2.7-19.1
	c1.5-13.9,4.1-27.6,7.6-41.1c6.9-23.7,17.5-46.1,27.6-68.5c4.1-9.8,8.2-19.7,9.9-30.4c0.9-9.4,2.5-19.5,9.6-26.3
	c3.9,34.6-16.4,64.8-28.1,96c-6.8,16.5-11.6,33.8-14.1,51.4C613.1,605,614.2,619.6,613.9,634.1L613.9,634.1z M650.5,500.9
	c-0.1-0.6-0.3-1.3-0.1-1.8c1.5-3.7,2.9-7.4,4.5-11.1C657.9,490.8,654.8,501.1,650.5,500.9L650.5,500.9z M654.4,502.5
	c-1.5,21.6-1.8,43.7-3.6,65.4c-0.4,1.6-1.4,3-2.8,3.8c-9.6,5.3-18.9,11.7-28.3,17c1.7-16.6,7.6-33.2,13.5-49.1
	c2.9-7.5,5.9-14.2,8.9-21.2C644.6,511.7,647,505.3,654.4,502.5L654.4,502.5z M670.1,546.9c-0.4,9.1-0.8,18.1-1.3,27.2
	c-0.3,2.2-0.5,4.5-0.5,6.8c0.1,1.2,0.1,2.3,0.2,3.3c0.1,2.5,0,5.1-0.3,7.6c-0.3,4.9-1.5,9.4-4.9,13.2
	c-13.6,11.9-30.2,19.4-45.3,29.3c-0.1,0-0.9-0.4-0.9-0.6c1.4-11.4-4.5-38.3,6.6-43.9c7-5.9,30.3-13.8,30.4-22.5
	c-0.3-15.4,2-30.7,2.4-46c0.8-24.3,3.8-48.3,4.5-72.6c0-2.2,0.4-3.8,3-4.5c2.5,0.4,11.8-7.3,11-2.5
	C673.7,476.7,671.7,511.8,670.1,546.9L670.1,546.9z M684.7,427.2c-3.6,8.7-14.4,10.1-22,14c-6.5,1.8,1-9.3,1-12.1
	c1.6-5.7,2.1-11.8,3.8-17.5c-0.2-7.7-0.3-14.7-0.7-21.7c0.5-3.2-3.9-9.4,1.4-10c3.5-0.7,6.8-1.8,10-3.4c3.4-1.8,3.1-2.1,4.5,1.7
	C688,393.8,688,411.4,684.7,427.2L684.7,427.2z M668.1,378.1c-1.5,0.3-3,0.7-4.5,1.2c-1.5,0.8-1.2,2.1-0.7,6.6
	c1.1,7.6,1.4,15.2,0.9,22.8c-1.8,33.4-27.9,68-63,69.4c-15.8-1.2,11.4-15.4,2.7-35c-11.5-22.9-24.1-53.5-1.6-74.1
	c11-10.2,27.8-15.1,42.2-9.4c5.6,3.7,6.3,2.2,10-2.7c5.4-6.6,12-15.6,21.7-14.7c-2,3.1-6.1,3.7-8.9,6c-4.7,3.7-12.8,13.8-11.7,19.7
	C685,316.5,703.7,367.3,668.1,378.1L668.1,378.1z M695.7,256.8c-2.9,12.2-4.5,24.9-7.1,37.1c-2.4,15.1-5,30.1-8.4,45
	c-0.4,0.7-1.2,1.1-2,1c-4.2-1.8-7.8,0.4-11.7,1.3c1.1-14.9,5.2-30.1,8.6-44.9c4-23.9,8.8-47,13.6-70.4c3.9,6.1,3.4,14.2,6.8,20.7
	C696.7,249.9,696.8,253.5,695.7,256.8z M712.3,262.9c-0.6,0.8-1.2,1.6-2,2.4c-0.3-0.8-1-1.8-0.7-2.4c0.6-1,1.6-1.7,2.8-1.9
	C712.8,261.5,712.7,262.3,712.3,262.9z M718.3,260.8l3.4-2.4c0.2,0.4,0.6,0.9,0.5,1.3C721.7,261,720.2,261,718.3,260.8L718.3,260.8z
	 M731.8,231.9c1.7,9.1-1.2,22.1-11.2,23.7c6.7-15.2-3.3-46-18.1-53c6.6,9.9,13.8,19.3,15.8,31.3c2.1,7.3,3.2,21.1-6.4,23.8
	c-12.5-0.2-14.7-16.6-17.7-25.9c-4.2-6.6,5-13-3.8-15.2c-1.1-10.6-5.5-18.6-16.4-21.3c-1.3-0.6-2.7-1-4.1-1.1
	c-0.9,0-1.7,0.3-2.4,0.8c8.5,3.2,18.6,8,19.4,18.4c-0.1,1.2-0.8,2.2-1.8,2.8c-3.2,1-4.9,3-4.3,6.4c0.8,7.9-13.4,5-16.3,0.8
	c-3.8-3.4-5.9-9.1-11-10.6c0.6,3.1,3.6,4.7,4.6,7.5c-12.5,5-14.8-11.3-19.7-19c-3.6-6.8,22.4-9.2,26.6-9.1c1.7-0.3,3.3-0.3,5-0.1
	c9.7,0.8,19.2,6.8,28.4,2.2c2.7-1.6,1.8-5.4,5.2-6.1c2.7,0.3,11.2-6.2,10.3-1.7c1,13.5,1.4,6.8-7.6,6.1
	C718,203.3,730.2,215,731.8,231.9L731.8,231.9z M713.1,180c-1.5-5.9,2.6-7.2,4.1-1C715.9,179.5,714.5,179.8,713.1,180z M722.9,192.9
	c-0.1,1.1-0.2,2-0.3,3c-6.1-1-6.3-7.4-4.8-12.2c0.8-1.8,3.7-2.1,5.5-2.4C723.5,185.1,723.4,189,722.9,192.9L722.9,192.9z
	 M756.2,201.3c-3.5,7.8-17.5-1.3-23.9-2.1c-8-1.5-5.9-6.1-6.2-12.5c1.9-6.3,1.8-9.6,9.1-7.8c7,1.3,13.8,3.6,18.6,9.4
	C757,192,758.1,197.2,756.2,201.3L756.2,201.3z M758.7,208.3c-1.1-1-1-5,0.6-5.1c0.3,0.9,0.5,1.8,0.6,2.8
	C759.6,206.8,759.2,207.6,758.7,208.3L758.7,208.3z M291.3,193.3c0.4,0,0.8-0.1,1.1-0.4c1.3-1.5,2.4-3.1,3.6-4.7
	c-1.7,1.3-3.3,2.6-4.8,4C291,192.4,291.2,193,291.3,193.3z M633.9,434c11.9,3.6,20.8-22.2,11.9-29.1
	C633.6,399.9,623.1,428.5,633.9,434z M632.5,426.3c0-8.2,2.9-17.4,11.4-19.1C653.9,411.3,637.1,444,632.5,426.3L632.5,426.3z
	 M364.9,147.8c0.3-0.4,0.5-0.9,0.6-1.3c1.1-2.7,2.1-5.5,3.2-8.5c2.8-10.4,7.7-20.7,7.8-31.3C372.3,120.2,367.4,134.1,364.9,147.8z
	 M285.1,201.8c-0.4,0.1-0.8,0-1,0.2c-2.6,2.4-4.7,4.9-5,8.6c2-2.6,3.8-5.2,5.6-7.8C284.8,202.4,285,202.1,285.1,201.8z M113.6,197.2
	c-0.3,0.5-0.8,0.8-0.9,1.3c-0.1,2,0,4,0,6.4c0.1,0.6,0.2,0.9,0.4,1.1c2-2.2,1.5-5,1.4-7.6C114.5,197.9,113.9,197.7,113.6,197.2z
	 M576.9,428.6c-16-4.7-31.5-9.1-47.4-13.5c-4.7-1.8-5.6,3.4-6.6,6.8c-1.4,4.8-0.7,5.9,3.7,7.2c8,1.5,51.7,18.4,54.1,12.1
	C583.9,435.4,585.4,429.9,576.9,428.6z M578.4,439c-17.5,0.8-33.2-10-50.2-12.4c-3.7-0.3-1.5-4.8-1-7c2.2-3.6,25.1,5.7,30.5,6.4
	c5.7,1.5,11.3,3.4,17,5C580,432.5,580.5,433.3,578.4,439z M371.2,400.4c15.1,21.8,44.3-3.4,25.7-21.1
	C383.6,367.3,361,384.2,371.2,400.4z M400,395.6c-9,21.1-39.1,5.2-24.1-13.1C387.3,372.1,402.1,382.2,400,395.6z M393.5,198.6
	c-0.4-0.2-1-0.8-1.3-0.8c-1.8,0.8-3.6,1.7-5.6,2.5c-0.4,0.2-0.8,0.5-1.2,0.9C388,202.1,391,199.8,393.5,198.6z M250.3,440.4
	c3.4,5.9,15.5-7.5,20.2-9.5c5-3.8,9.6-7.8,14.6-11.2c2.6-1.8,2.7-3.5,1.5-5.7c-1.8-2.8-3.8-7.7-8-5.7c-10.5,7.1-20.7,14.7-30.7,22.5
	C243.9,433.6,248.6,437.5,250.3,440.4z M253.7,430.5c8.1-6.1,16.4-12.1,24.6-18.3c1.7-1.3,2.6-1.7,4,0.4c4.7,4.7-3.1,7.3-6.1,10
	c-4.7,2.4-20.5,17.1-23.3,14.9C248.9,434.3,248.9,434.1,253.7,430.5L253.7,430.5z M489.2,251.3c-2.4,0.3-4.7,0.6-7,1.1
	c0.5,0.3,0.8,0.8,1.3,0.9c2.4,0.2,4.9,0.4,7.7,0.6c2.3-0.6,5.2-1,7.7-1.8c3.3-1,5.9-2.9,5.7-7.1c-0.6-3.9-3.3-8.3-6.9-9.4
	C505.8,250,499,250.1,489.2,251.3z M378.1,117.5c-2.2,11.1-7.4,21.7-8.4,32.6c2.8-4.7,2-11,5.4-15.3c1.4,3.5-0.8,7.3,0.2,10.8
	c3.4-9.8,2.8-21.8,4.5-32.4c-0.6,0.8-1.1,1.6-1.5,2.5C378.1,116.1,378.3,116.8,378.1,117.5z M295.6,502.2c3.7-0.1,8.9,2.6,11.4-0.6
	c-8.1-2.3-16.8-3.1-25-4.7c-0.4-0.1-0.7,0.4-1.1,0.6c0.2,0.3,0.4,1,0.6,1C286.2,499.7,290.9,500.9,295.6,502.2z M389.4,389.7
	c0.1-0.2,0.1-0.4,0.1-0.6c-3.3,1.5-4,1.5-7.1-0.6c0,0.5,0.2,0.9,0.4,1.4c0.6,1.3,1.8,2.5,0.1,4.3c-0.1,1-0.3,1.8-0.4,2.4
	c0.6-0.1,1.6-0.1,1.9-0.6c1.8-2.6,3.8,0,6.1-0.3C390.3,393.2,386.2,391.9,389.4,389.7z M433.4,570.1c-0.9-3.1-5.4-4.5-7.5-2.1
	c-0.6,1.3,0.3,3.3,0.6,5.2C428.9,575.8,433.7,573,433.4,570.1z M429.4,568.6c0.6,0.1,1.2,0.8,1.8,1.4c-0.9,0.3-1.9,0.7-2.9,1.1
	C428.2,569.9,427.3,568.2,429.4,568.6L429.4,568.6z M374.2,345.6c17.5-3.1,11.6-30.4-5.6-26.2C351.5,322.4,356.8,349.1,374.2,345.6z
	 M361.7,332.6c-0.7-14.3,20-13.2,19.8-0.3C382.2,345.4,361.2,345.9,361.7,332.6L361.7,332.6z M413.9,178.5
	c-7.6-6.8-15.6-13.3-22.8-20.6c4.7,9,12,15,20.1,20.7C411.7,179.1,413,178.6,413.9,178.5z M359.4,148c5-10.3,9-21.6,9.8-33
	C366.5,126.1,360.9,136.8,359.4,148z M599.4,470.3c1.6,0.5,3.1,1,5.1,1.5c1.5,0.9,2.6,2.2,3.3,3.8
	C613.4,469.7,604.3,466.9,599.4,470.3z M183.5,399.2c6.7-6.3,6.4-26-6.5-18.2c-4.3,3.8-7.7,8.2-8.9,14.4
	C164.8,409.7,177.4,408.7,183.5,399.2z M174.2,388.4c18.2-20.5,11.2,17.6-2.2,14.5C168.7,398.8,171.2,392.1,174.2,388.4z
	 M334.8,186.2c-0.6,0.6-0.8,0.8-1.3,1.5c1.9-0.8,3.6-1.5,5.4-2.3c0.2-0.1,0.3-0.5,0.4-0.7c-1.2,0.4-2.5,0.8-3.8,1
	C335.3,185.8,335.1,186,334.8,186.2z M417.8,189.6c-2.9,0.6-5.6,1.7-8.2,2.4c2.9-0.4,5.6-0.6,8.2-1.1c1.4-0.3,2.8-0.8,4.1-1.3
	C420.6,189.5,419.2,189.4,417.8,189.6z M305,198.9c-0.6,0-1.2,0.2-1.7,0.5c-3.7,2.5-5.9,6.1-7.8,10c3.1-2.9,6.1-5.8,8.9-8.7
	C304.8,200.2,304.8,199.4,305,198.9z M391,157.6c-0.5-0.4-1.1-0.8-1.7-1c-0.5,1.1-1.5,2.6-1.3,3.4c3.2,8.2,7.1,16,13.8,21.8
	c1.3-1.9-2.5-4.5-3.1-6.6C397.7,172.1,386.8,158.6,391,157.6z M317.6,204.7c2-2.6,4.7-4.4,5.9-7.3c-0.6,0-1.5-0.3-1.8,0
	c-1.7,2.9-6.7,5.8-6.2,9.2c0.3-0.3,0.7-0.6,1-0.9L317.6,204.7z M133.8,440.8c2.6,1.1,8,1.5,7.3,5.5c2.6-0.6,3.6-5,1.2-6.1
	C139.6,439.6,136.6,438.1,133.8,440.8z M469.3,218.7c-15.1-4.7-31.6-9.1-47.6-7c15.2,2.2,30.2,3.5,45.1,7.2
	C467.9,218.8,468.6,218.7,469.3,218.7z M414,201.4c-0.5-0.4-0.9-1-1.2-0.9c-2.7,0.4-5.4,0.8-8.4,1.2c-0.7,0.5-1.6,0.9-2.5,0.9
	C405.8,203.2,410.2,202.1,414,201.4z M502.1,188.4c-8.3-2.2-17.3-12.7-20.4-20.4h2.2c2.3,0,4.5,0,7-0.1c-0.3-0.7-0.8-1.6-1.4-1.8
	c-6.2-1-10.3-5.1-13.7-9.8c-6.3-9-9.3-20-17.5-27.8c-0.5-0.6-0.2-2-0.3-2.9c2.2,0.6,3.3,2.7,5.3,3.6c-2.4-7.5-8-14-14.6-18.4
	c-3.4-2.5-8.9-3.3-11.5-6.3c2,0.4,4.1,0.6,6.1,0.7c-1.5-3.8-7.3-4-10.8-5.8c-3.1-1-6.9,0-9-3.5c-27.3-5.4-49.7,24.6-40.1,50
	c0.8,3.4,3.2,4.3,6.2,2.6c5.9-0.9,11.7-3.1,17.8-0.8c0.4,0.1,1.2-0.5,1.9-0.7c-1.2-2.4-4.8-2.9-4.8-6c3.8,0.2,7,3.2,10.5,4.9
	c6.6,3.1,10.4,8.9,15.4,13.9c-0.1-1.4-0.3-2.8-0.5-4.1c-0.2-1.6-0.6-3.1-0.9-4.7c24,25.8,33,45.8,74.3,39.2
	C502.9,189.3,502.6,188.4,502.1,188.4z M375.2,388.1c-5.9,12.5,15,22.1,21.4,8.4C402,382.3,380.7,373.7,375.2,388.1z M394.4,395.5
	c-5.6,10.4-23.5,3.7-15.4-8.8C385.5,378.1,398.7,386.1,394.4,395.5z M506.2,320.4c6.9,8.1,20.1-2.4,12.5-11
	C511.3,302.1,500.1,310.5,506.2,320.4z M508,317.5c-1.7-5.3,2-9.6,7.6-6.9C521.6,318.6,511,323.9,508,317.5z M644.7,392.9
	c-20.8,2.2-32.7,36.6-16.6,50.9C653.2,457,672.3,396.5,644.7,392.9z M642.5,439.6c-23.7,14-22.5-27.1-9.6-37.3
	c7.6-6.4,16.3-11,21.3,1.3C658.4,416.9,653.1,431.1,642.5,439.6z"/>
</svg>
