<?xml version="1.0" encoding="utf-8"?>
<!-- Generator: Adobe Illustrator 25.2.3, SVG Export Plug-In . SVG Version: 6.00 Build 0)  -->
<svg version="1.1" id="Слой_1" xmlns="http://www.w3.org/2000/svg" xmlns:xlink="http://www.w3.org/1999/xlink" x="0px" y="0px"
	 viewBox="0 0 864 864" style="enable-background:new 0 0 864 864;" xml:space="preserve">
<style type="text/css">
	.st0{fill:none;}
	.st1{fill:#976944;}
	.st2{fill:#765D49;}
	.st3{fill:#5B6064;}
	.st4{fill:#FFB1B1;}
	.st5{fill:#3E8A5C;}
	.st6{fill:#C32727;}
	.st7{fill:#F1964B;}
	.st8{fill:#D36446;}
	.st9{fill:#F0954B;}
	.st10{fill:#98816A;}
	.st11{fill:#6E5B49;}
	.st12{fill:#735136;}
	.st13{fill:#FFFFFF;}
	.st14{fill:#6E6E69;}
</style>
<path class="st0" d="M670.9,322.6c-0.1,0.3,0,0.6-0.1,0.8c2-0.3,4.7,0.9,6-0.7c1-1.2,1-2-1.6-1.8C673.5,321,671.7,320.5,670.9,322.6
	z"/>
<path class="st0" d="M414.6,19.8c-5.9,1.1-11.7,2.4-18,3.8c-19.5,4.2-20.2,23.9,2.1,19.1C414,41.3,423.6,17.4,414.6,19.8z"/>
<path class="st0" d="M507.1,3.8c-0.8,2.6,1.5,3.6,3.6,2.7C511.4,4.3,508.7,1.6,507.1,3.8z"/>
<path class="st0" d="M201.1,495.7c12.2,8.7,29.5-3.8,36.9-14.1c6.6-7.2-12.9-7.9-17.4-8.5C208.9,472.2,191.3,483.2,201.1,495.7z"/>
<path class="st0" d="M242.5,536c-0.4,0.7,0.1,2.2,0.1,3.3c9-0.4,14.7-9.2,17.8-16.6c-5,0.2-8.1,4.8-13,7
	C245.7,531.7,244,533.8,242.5,536z"/>
<path class="st0" d="M228.9,760.6c8.9-0.9,18.1-4,27.3-5.5c1.1-0.2,2.7-0.7,3.1-1.6c4-10.7,15-16.3,25.5-18.8
	c8.9-1.5,17.4,1,24.5,5.9c5.4,3.8,12.5,2.6,16.9-1c1.7-3.4,2.6-7.1,3.8-10.7c-0.2-1.4-1.5-0.2-2.2-0.2s-1.6-0.2-2.5-0.3
	c2.3-2.1,5.9-1.2,7.7-3.9c5.7-9.4,12.3-18.2,18.8-27.1c27.1-35.8,33.9-34.9,26.2-82.4c-9.8,14.7-22.4,33-15.9,51.5
	c2,5.4-1,7.4-5.6,5.1c-2.1-1.7-3.5-4.1-5.4-5.9c-1.1,4.2,3.7,34.1-5.4,26.2c-2.4-3.7-3.4-8.2-6.4-11.6c-1.2,2.1-2.3,3.9-1.2,6.2
	c-1,9.6,4.4,32.7-9.2,13.1c-0.9,2.1-0.4,4.5-0.6,6.6c-2.6,8-6.4-3-8.2-5.9c-0.4,0.3-1.2,0.5-1.2,0.9c-1.4,5.4-5.4,8.9-9.2,12.3
	c-3.5,2.3-7.2,6.2-11.5,6c0.3-2.7,3.1-4,2.7-6.9C277.6,728.4,251.6,743.6,228.9,760.6z"/>
<path class="st0" d="M129.1,790.1c6.2-2.2,18.1-10.5,12.6-17.5c-2.3-2.7-4.2-6.4-7.8-7.5c-0.3,0.8-0.5,1.6-0.6,2.3
	c0.9,8.3-2.9,15.5-4.9,23.2C128.6,790.4,128.8,790.2,129.1,790.1z"/>
<path class="st0" d="M490.7,89c4.6-0.1,9.2,0.4,14.2,0.2c0.4-1.6,0.6-3.4,1.4-4.9c1-1.8-0.4-1.3-1.1-1.2c-9.5,2-20.2,2-28.7,6.4
	C481,91,486,88.7,490.7,89z"/>
<path class="st0" d="M577.1,744.2c3.8,0.2,7.9,0,11.7,0c4.2,2.3,8.7,1,13.1,1.2c7.5-0.1,15.3,1.4,22.6,0.2
	c-4.1-5.3-11.1-8.1-16.8-12.8c-51.1-36.7-15.1-16.6-60.8,7c1,1.3,2,2.1,3.7,1.8c7,0.7,13.9,2.1,20.9,2.5c4.3-0.5,6.1-6.5,10.1-7.5
	C582.8,739.7,574,742.5,577.1,744.2z"/>
<path class="st0" d="M522.4,725.5c1.3,3.8,5.6,2.3,8.5,2c8.3-1.2,13.6-6.8,18.3-13.7c2-5.1,7.2-11.8,7.2-17c-2.9-2.3-6.7-7-10.5-6.7
	c0.4,3.7,4.5,5.5,5.6,9.1c-6.2,0.7-8.7-6.1-12.9-9.6c-6.2-6.5-2.3,2.1-2.2,5.5c-5.9-2.6-9.3-8.7-11.9-14.3c-1.4-2.6-2.1-6.2-4.9-7.7
	c-2.1,2.8,6.9,15.3-0.1,12.8c-8.4-10.3-9.8-24.6-15.2-36.6c-5-13.5-10.3-26.9-15.5-40.4c-1.1-1.8-3.6-2.3-4.8,0.2
	c-1.1,5.9,3.4,13.4,1.4,19.3C480.7,664.5,512.5,692.6,522.4,725.5z"/>
<path class="st0" d="M725.6,769.3c-0.4,5.6-1.4,12.6,4.8,15.2c7.5,4.4,2.9-12.5,7.5-17.8C737.8,761.6,727.5,764.4,725.6,769.3z"/>
<path class="st1" d="M569.9,313.2c-3.9,9.2,8.2,13.9,13.3,19.6c2.1,1.8,5.3,2.4,6.2,5.5c-6.7,1-14.7-7.9-19.5-12.2
	c-0.2,5.4,0.3,12.4,4.8,16c5.3,2.4,9.8,6.5,15,9c15.8,9.4,48,4.5,44.3-19.3C626.3,313.3,589.8,338.4,569.9,313.2z"/>
<path class="st2" d="M582.8,646.8c1,0.6,2.1,1.7,2.1,2.5c-1.1,5.6-8.4,2.8-12,5.3c1,5.1,21,8.5,9.5,13.4c1.9,1.8,5.8,1.9,7,4.5
	c1.1,3.5-3.7,3.2-5.5,5c9.8,10,1-16.6,37.6-38.6c21.4-12.1,46-5.3,38.1,23.2c3.8-4.4,6.6-9.6,8.2-15.2c0.1-0.7,1.2-1.3,1.8-1.9
	c1.8,7.6-1.3,15.9-0.2,23.6c4.5-5.9,5.4-13.5,6.6-20.5c1.8-8.7-2.2-16.9-2.8-25.4c1.2,1.3,3.7,2,3.5,3.9c3.2,6.3,2.7,13.6,4.8,19.9
	c6.1-16.4-10.6-46.7-27.4-51.2c-3.8-1.1-8.2-0.1-11.6-2.6c5.5-3.4,13-0.7,18.6,1.8c3.4,1.6,6.5,5.1,10.4,5.2
	c-10-10-26.5-15-40.2-11.4c-5.4,1.8-10.3,5.7-16,6.2c1-5.3,18.6-12.4,23.9-15.4c-30.2,3.9-50.1,32.6-60,59.4
	C576.4,644,577.6,644.6,582.8,646.8z M378.6,485.1c0.9-1.3,2.2-2.2,3.7-2.6c8-1.1,15.5,4.2,17.2,12.1c0.3,4.5,4.8,2.7,7.8,4.4
	c8.5,3.2,13,12.1,8.7,20.7c-0.8,1.7-0.6,2.3,1.3,3c10,2.3,16.8,15.6,10.1,24.5c-0.7,0.8-1.5,2,0.5,3.1c8.5,3,12.9,12.4,9.9,20.9
	c-1.1,3-2.9,5.6-5.4,7.5c12.6,4,19,17.4,9.9,28.5c-0.9,1.1-0.7,1.5,0.4,1.9c11.8,5.1,11.8,17.3,6,25.7c1.8-0.5,9,2,6.7-1.8
	c-7.1-13.9,6.1-30,21.2-23.2c0.8,0.1,1.6,0,2.4-0.2c-0.3-2.3-1.3-2.8-3.5-2.4c-19.9,0.3-18.1-30.7,0.2-32.5
	c-11.8-5.2-18.2-20.2-7-29.7c2.2-1.8,1.4-2.7-0.1-4.2c-9-10.9-3.5-22.7,6.6-28.6c-3.7-3.6-3.8-8.1-4-13c-0.4-6.7,6.7-13.7,13.3-14.1
	c2.1-0.1,2.4-0.8,2.4-2.5c-1.1-10,2.4-18.6,7.2-27.1c0.3-0.4,1-0.6,1.5-0.8c0.2,0.2,0.4,0.4,0.5,0.7c-1.2,4.6,0.8,9.2,3.4,12.8
	c0.1-6.8,0.7-13.3,5.4-18.8c5.4-7.5,8.5,3.2,9.1,8c2.9,9.8,0.5,19.3-0.4,28.9c10.7-13.3,17.4-29.2,23-45.2
	c2.3-6.2-0.2-13.7,3.6-19.3c2.1,5.9,0.5,12.5,1,18.6c-0.1,0.9,0.1,1.9,0.4,2.7c2.8,3.5,0.7,7.3,0.6,10.9
	c15.2-17.7,17.6-42.9,22.1-65.1c0.1-3.1-1.8-6.2,0.3-9.2c6.7,9.9,6.1,22.9,7.3,34.2c1.8-5.5,3.1-11.2,4-16.9
	c0.6-5.8,0.9-11.7,0.7-17.5c0.1-2.4,1.5-1.8,2.4-1.4c5,2.5,9.8,6.4,15.5,6.7c-18.8-15.1-26.5-36.4-28.2-60c-4.6,6.6-1.6,19-7,25.1
	c-3-11.4,3.7-23.8,6.1-34.9c0.9-3,1.8-6.1,2.7-9.1c2.7-9,5.7-18,7.2-27.3c0.9-9.5,5.3-18.5,4-28c-0.5-2.4-2.1-7.1,1.2-8.3
	c2.2,5.4,1.5,12,6.8,15.8c-0.3-8.4-3.2-16.8-3.5-25.1c-1.4-13.6,2.6-28,0.4-41.3c-2.3,1.5-3.5,3.7-1.9,6.4c1.6,2.9,1.3,7.7-2.5,7.6
	c-2.6,0-1.9,1.1-1.6,2.7c3.3,13.1-8.1,17.6-12.2,3.8c-3.2,3-10,7.5-11.7,1.8c-1.1-2.8,0.7-7-1.8-9.2c-5.4,0.1-11.4-2.9-7.5-8.9
	c1.6-2.2,4.9-3.2,7-4.9c-3.3-2.9-9.8-6.4-6.3-11.4c2.6-4.7,7.9-2.5,11.9-1c0-11.4,9.2-13.6,12.2-1.9c3.2-5.1,11.4-7.3,10.6,1.1
	c-0.6,5-2.1,6.9,2.9,9.9c0.4-33.3-19.2-68.6-48.6-84.5c3.2,9.2-2.6,4.6-4.6,8.1c3.1,10.7-8.1,10.9-11.7,2.6
	c-2.3-4.6-5.1,2.3-8.4,2.8c-4.9,2.6-8.1-3-6.5-7.3c1.4-4.1,1.6-4.1-2.6-5.3c-7.8-0.4-12.4-8.1-3.3-11c-9.4-2.7-20.6,1.4-30.3-0.1
	c6.8-7.5,17.5-9.6,27.1-10.8c-4-1.9-13.2,0.7-17.6,1.7c-6.7,2.3-12.2,7.3-19.1,8.8c5.1-6.9,13.9-9.3,19.9-15.1
	c-3.8-0.4-7,2.8-10.3,4.4c-12,6.4-19,18.2-27.6,28.4c-3.4-8.9,1.5-19.1,4-27.8c-4.7,1.2-10.5,26.1-14,21.8
	c-6.7-13.2-18.2-27.6-32.8-31.9c5.8,4.6,12.2,9,14.1,16.8c-42.9-11.3-82.8-8.7-119.5,19c7.6-0.4,13.6-7.5,21.8-5.4
	c-7.5,6.5-12.5,3.5-17.7,15.2c-1,1-3.7,0.6-4.6,1.5c-17.9,18-31.1,40.5-33.9,66c-0.3,3.7,19.9-0.1,23.5,0.5c3-0.2,6.2-1.3,8,2.6
	c5.2,8.1,7.6,17.7,5.4,27.3c-2.2,6.7-1.9,16.3-8.5,20.1c-1.8-2.6,3.1-6,0.1-7.6c-8.4,0.6-16.8,1.5-25.3,2.1c-4.2,0-3.8,2.8-2.6,5.9
	c0,18,2,36.7-6.2,52.9c3.2-3.2,7.7-5.8,8.3-10.9c0-0.4,1-0.9,1.5-1.2c5.4,11.7-2.9,25.8-7.9,36.8c0.2-0.3,0.4-0.5,0.7-0.7
	c4.8-3.3,8.6-7.3,9.2-13.4c0-0.4,0.5-0.8,0.9-1s1.1,0,1.1,0.1c3.5,11.2,0.6,22.3,0.3,33.6c14.4-7.5,27.6-20.5,33.9-35.5
	c0.1-11.9-1.3-24.3,0.1-36.1c3.1,1.5,2.1,4.6,2,7.3c0.4,6.8,0.7,13.7,1.3,20.5c1.8,15.8,5.9,31.3,9.7,46.8c1,3.6,3.4,6.9,2.3,10.9
	c-3.5-2.7-3.2-7.3-4.9-11c-4.5,12.7-7.5,26.4-16.6,37.2c-1.4,1.9-2.1,4.2-2,6.6c1.2,16,5.6,31-8.5,43c17.1,2.9,20.7-2.2,28.6-15.8
	c2.8,4.4-2.7,8.5-4.1,12.7c-0.7,1.2-1.8,2.6-1.8,3.7c-1.5,16.2-10.9,30.4-20.7,42.8c12.2-1.5,22.1-6.2,30.3-15.6
	c1.8,4.2-3.9,7-4.4,10.9c-0.5,5.8-1.4,12,0.1,17.7c0.5-1.2,0.9-2.4,1-3.7c0.2-6.2,4.5-10.4,7-15.5c0.8-1.7,2.5-2.7,4.4-2.6
	c-1.4,4.5-4.7,8.3-1.7,13.2c0.7,5,2.3,10.8,4.8,15.1c3.2-16.5,14.7-34.4,31.2-39.6c1,1.4,2.6,2.9,2.6,4.3
	c2.5,16.3-0.1,32.7-10.5,45.8c4.6-0.8,9.2-3.7,12.9-7c3.8-3.8,6.9-8.2,9.2-13c0.3-0.7,1.5-0.9,2.3-1.3c-0.4,7.4-5.3,14.1-11.5,18.3
	c-0.4,0.2-0.6,1-0.9,1.5C368.3,494.1,374.6,489.9,378.6,485.1z M397,388.1c-4.7-1.9-12.2-1.5-14.9-5.4c7.5-0.9,15.5,2.2,23.2,2.7
	c4,1.3,10.5-1.2,12.9,2.9C411.3,389.3,404.3,388,397,388.1L397,388.1z M394.8,367.5c5.8,0.2,10.5,4.7,16,7
	c3.8,1.8,12.5,2.4,14.6,5.1C423.3,383.9,394.4,372.6,394.8,367.5L394.8,367.5z M454.6,474.6c3-1.5,5.1-4,8.9-3.8
	c-2.6,7-32.7,18.4-39.1,14.1C434,480.7,444.7,478.3,454.6,474.6z M456.9,424.4c-0.3-0.7,0.3-1.2,1-0.9c4.2,2.6,7.4,15.7,4.7,20.1
	c-7.5,9.6-25.3,6.9-35.8,4c-0.6-0.9-1-1.9-1.2-2.9c9.2,1.8,18.4,2.9,27.6,0.9C464.5,444.7,459,432.5,456.9,424.4z M425.5,494.5
	c3.1-3.2,8.2-2.9,12.4-4.7c9.4-3.2,18.3-7.7,26.4-13.4c0.7-0.6,2-0.6,3-0.8C463.6,484.1,434.3,497.8,425.5,494.5L425.5,494.5z
	 M519.1,247.2c6.7,10.9,11.9,23.2,19.1,34.1c2.7,5.7,9.4,9.7,9.9,16.2c-3.3-2.1-6.2-4.8-8.6-7.9c-5.1-6.2-8.9-13.9-13-20.6
	C524.5,262.6,516.8,253.3,519.1,247.2L519.1,247.2z M522.2,275.1c4.6,5.8,11,10.3,15,16.5c-2.9-0.4-6.4-2.5-10-5.9
	c-13.4-12.1-29.4-39.7-28.7-50C507.4,248.2,511.2,263.8,522.2,275.1L522.2,275.1z M496,258.6c5.9,10.7,14,20,23.8,27.3
	c-1-0.1-2-0.2-2.9-0.5c-13.9-4.5-31.5-33.3-30.9-45.2C491.6,244.4,492.2,252.8,496,258.6z M498.3,281.3c-14.9-6.4-35-43.6-33.2-59.2
	c3.2,2.3,3.1,7,4.8,10.5c5.6,17,14.3,33.6,27.5,46.2C497.7,279.7,498,280.6,498.3,281.3L498.3,281.3z M482.3,136.4
	c-3.1,2-5.9,1.6-9.7,1.5c-2.4,0.2-4.6,0.6-6.8,0.6c-0.8,0-1.5-1-2.3-1.5c4.2-2.3,9.5-1.5,14-2.3
	C479.3,134.5,480.7,135.9,482.3,136.4z M475.8,116.9l-1.3,1.5c-7.7,3-15.4,4.9-22.6,8.6c-0.6,0-1.2-0.1-1.8-0.3
	C453.6,121.4,469.7,114.7,475.8,116.9z M464.2,107.2c-5.7,4-11.4,9.3-17.9,12C450.1,113.1,456.3,106.5,464.2,107.2z M449.9,237.5
	c5.6-20.2,3.7-41.4,2.7-61.7c6.2,10.5,3.4,24,5.2,35.8c7,23.7,7.7,56.1,31.5,69.4c3.7,1.5,7.1,6.7,11.2,4c5.3-1.7,11.1-0.5,15.3,3.1
	c4.9,4.2,6.5,11.3,0.7,17.2c-7.3,9-6,13.5,1,22.1c5,7.5-7,13.4-13.1,15c-3,0.4-5.6,5.1-5.4,8.2c3,17.8-16.5,26-12.1,30.9
	c2.6,3.4,11,5.2,8.8,10.4c-20.5-18.8-16.1-8,0.6,2.4c5.6,9.7-9.7,1.9-13.9-0.8c2.4,3.7,20.7,16,11.1,18c-5.8,0.7-9-5.3-13.7-6.8
	c2.1,4.5,8,7.2,10.7,11.5c1.5,3.8-2.2,5.1-5,3.8c-2.9-1.5-5.1-4.4-8.1-5.7c0.1,3,4.9,5.8,3.1,9c-7.4,3.4-12-6.5-16.7-10.3
	c1.6,3.4,3.8,6.5,3.2,10.4c-5.9,1.2-8.4-5.3-11.7-8.9c-2.9-4.2-5.6-8.6-5.9-14c-0.1-0.4-0.6-1.2-1-1.2c-4.6-0.7,1.7-15.8-2.5-18.8
	c-3.6,4.4-1,11.1-1.7,16.5c0.1,1.5,2,2.8,2.5,4c-0.1,0.7-0.6,1.3-1.2,1.5c-7-1.2-2.8-11.2-3.5-16c-1.8,3.2-9.5,22.5-12.5,11.6
	c1.5-6.4,2.6-13.1,4.5-19.4c1.2-3.4-1.3-4.1-3-5c-10.7-5.5-20.6-12.2-29-20.9c-1.5-1.5-2-1.2-3,0.3c-3.5,4.9-7.1,9.7-10.8,14.6
	c0.4-2.6,1.3-5.2,2.6-7.5c2.2-3.9,5.3-7.4,7.2-11.4c3.5-8.9,8.4-17.5,11.5-26.5c5.1-15.8,6.9-32.6,11.1-48.5c2.9,2.1,1,6,1,9
	c-1.6,12.5-4.3,24.8-8,36.9C430.5,295.1,442.6,266.4,449.9,237.5z M435.2,119c1.2,1.1,2.9,2.3,1.8,4.5c-8.7-6.3-17.1-13-25.1-20.2
	C420.3,102.4,428.3,114.4,435.2,119z M417,114.4c-5.7,0.1-10-3.5-15.5-5.5c-7.6-1.5-14.7-4.8-22.4-5.1
	C380.2,96.6,415.6,108.9,417,114.4z M345.2,157.1c-4.9-2.6-9.2-5.4-5.9-10.3c1.2-2.1,5.4-3.9,8-2.7c2.6,1,5.3,2.5,8.1,2.8
	c-1.7-17.3,10.3-21.1,13.9-2.6c12-8.9,18.3,3.7,7.5,11.4c-2.5,1.6,1,1,0.7,1.7c3.7,4,11.1,8.6,6.5,14.4c-2.1,3.4-5.4,0.9-8.4,0.5
	c-2.7,1.1,0.1,5.1-0.9,7.2c-2.3,9.9-10.1,3.6-12.5-2.7c-7.6,12.5-19.9,10.7-13.2-4.9C332.5,174.4,329.1,163.2,345.2,157.1
	L345.2,157.1z M322.8,300.8c4.5-0.5,4.6-0.5,3.8-5.3c-1.8-11.1,10.4-15.7,14.3-5.1c2-4.4,3.8-10.1,8.9-9.7c5.9,0.4,4.8,7.5,4.2,11.7
	c0.1-0.2,0.2-0.4,0.4-0.7c11.4-4.8,13.5,6,4.6,11.6c-4.3,2.2,5.4,5.1,3.1,10.6c-2.4,7.5-9.3,0.7-9.2,5.9c0,3-0.4,5.9-1.2,8.8
	c-2.3,7.1-13.6,5.7-14.6-2c-0.2-2.5-1-1.2-2-0.4c-10.3,8.8-19.1-0.8-10-10.5C316.3,314.9,312.4,303.3,322.8,300.8z M352.6,345
	c2.3-3.5,4.5-6.8,6.8-10c0.7-0.7,1.5-1.4,2.4-1.9c-0.4,11.9-30,46.1-41.7,46.9C330.9,369.1,344,358.7,352.6,345z M320.9,397
	c14.4-9.2,26.8-20.9,39.1-32.2c0.8,1.2-0.3,3.5-2.5,6.4C349.2,381.9,325.2,400.7,320.9,397z M342.1,399.4c2.6-5.6,9-8.3,12.8-12.9
	c4.5-4.6,8.7-9.5,12.4-14.8c6.2-8.6,11.8-17.9,18.3-26.2c0.1,3.3-2.1,8.1-5,13.3c-4.8,7.8-10.2,15.2-16.1,22.1
	C357.6,387.5,352.1,397.6,342.1,399.4L342.1,399.4z M367.6,385.4c1.9-6.2,7.1-11.1,10.5-16.9c1.6-2.8,3.3-5.6,4.9-8.4
	c2.3-3.7,4.5-7.5,6.4-11.4c4.5-7.5,5.2-17.7,11.2-23.9c2,4-5.1,20.3-13.6,35C379.6,372.7,371.3,384.4,367.6,385.4L367.6,385.4z
	 M561,700.2c-1.6-1.5-1.2-1-1.8,0.4c-4.7,12.5-10.8,25-24.9,29.3c-2.6,0.4-5.2,0.8-7.8,1.3c-0.7,0.3-1.4,0.8-2,1.4
	c1.8,3.4,15.5,6.5,19.2,5.7c11.7-5.1,21.3-14.6,27.8-25.6C576.8,706.9,564,704.4,561,700.2z"/>
<path class="st3" d="M474.4,296.5c-11.1-7.3-27.2-14.9-34.8,1.4c-5.3,12,2,25.3,8.6,35.2c5,7.7,20.2-1,28.1-1.2
	c12-3.3,24.4-4.7,36.9-4.2c-17.4-20.3,17.8-28.2-3.1-39.4C497.1,283.4,487.3,304,474.4,296.5z M455.7,325.1
	c-25.3-7.3-13.3-45,6.5-27.3C472.1,305.7,471.9,327,455.7,325.1z M511.7,292.6c1.9,1.5,2.4,4,1.4,6.1c-2.5,5.4-5,10.9-8.4,15.8
	c-3.9,4.8-12,6.6-14-1.5C491.8,303.6,500.9,287.2,511.7,292.6L511.7,292.6z M504.9,338.2c3.9,0.7,6.9-4.3,9.6-6.7
	c-1.5-0.3-3.1-0.7-5.4-1C505.8,332,506.7,335.8,504.9,338.2z"/>
<path class="st4" d="M455.5,340.9c-4.8-1-11.2-0.7-14.6,3.5c9.3,7.2,22.6,8.9,33.4,13.9c1,0.4,2.3-0.1,3.5-0.1
	C478.7,342,466.1,359.7,455.5,340.9z"/>
<path class="st5" d="M466.5,664.6c2.3-6.9-0.7-15.2-0.3-22.5c-0.3-4.2-1.6-5.1-5.6-4.6c-4.8,0.4-9.5,0.4-14.3,0
	c-3.7-0.4-4.8,0.1-4.8,4c0.2,6.2,0.4,12.2,0.7,19.1c-0.2,3.6,1.1,5.4,4.8,5.4c2.9-5-1.4-12.5,3-17.4c3.5,4.2-2,18,4,18.2
	c5.1-0.1,5.1,0,4.9-4.8c0.4-5.1-2.1-10.9,0.8-15.4c3.9,4.4,1.8,11.4,3.2,16.9C463.2,665.5,465.1,666.1,466.5,664.6z"/>
<path class="st6" d="M457.4,690c4.1,9.5,5.1,20.2,9.8,29.6c-0.8-10.8-4.3-21.3-7-31.8c-1.2-4.2-4.2-7.9-0.5-12.1
	c-0.3-4-3.1-6.8-6.7-4.3c-1,1.7-1.2,3.6-0.7,5.5c4.2,12.2,0.8,25.9-5.4,36.7c-0.2,0.3,0,1,0.1,1.5c4.7-1.7,4.2-6.5,7.3-9.5
	c2.3,3.9-2.8,15.2-4,19.9c5.1-2,4.8-9.5,8.6-12.8c2.1,3.2-0.5,6.9,0.5,10.3c0.4-0.4,0.8-0.7,1.2-1c2.4-2.8,1.8-6.1,2.1-9.3
	c-0.2-0.3-0.3-0.7-0.4-1c-8,0.1-2-4.2-6.5-7.2c-1.4-0.5-1.1-0.5-0.7-1.8C456.1,698.4,456.9,694.2,457.4,690z"/>
<path class="st7" d="M493.3,591.4c-0.9-16.6-26.9-19.5-28.4-0.7C463.2,610.1,493.3,609.8,493.3,591.4z M484,488.9
	c-12,0.2-12,24-3.1,20.6c5.4-4.5,5.9,2.9,10.8,1.4C501.8,504.4,495.1,486.9,484,488.9z M491.1,536.7c6.3-7.5-1.2-25.9-15.2-20.6
	c-9.8,4-11.4,19.6-1,24.5C482.3,528.8,484.7,547.7,491.1,536.7z M478.8,569c4.6,1,8.1,1,11.2-3.5c9.4-10.2-2.5-25.4-14.1-21.3
	C462.6,547.5,464.2,572.2,478.8,569z M480.4,632.1c5-7.9,0.6-21-10.6-20.5c-12.3-0.8-19.1,21.8-5,22.9
	C472.2,635.1,467.1,643.2,480.4,632.1z M415.4,607.8c13.3,10.8,7.5-7,18.1-2.6c3.6,2.9,3.7,2.9,6.5-0.7c4.9-6.2,4.1-15.2-3.9-20.1
	C421.7,574.1,400.3,595.4,415.4,607.8z M433.2,637c22.9,0.3,20.4-29.6-2-25.6c-7,1.7-11.3,8.7-9.6,15.7
	C423,632.6,427.6,636.5,433.2,637z M414.1,579.3c4.6-1.1,6.2-6.2,11.1-2.6c8.4,3.2,12.2-11.2,8.7-17
	C420.8,538.9,389.6,567,414.1,579.3z M406.4,550.9c6.6,4.2,2.7-10.4,12.5-3.7c1.1,0.7,3.7,1,4.3,0.2c9.8-10.2-2.6-25-15.1-21.6
	C396.1,528.3,394,546,406.4,550.9z M394.2,529c4,0.4,4.6-0.2,5.4-4.2c1.9-6.6,8.4,0.1,11.9-3.4c12.6-25.4-30-26.8-28-1.8
	C385.1,525,388.4,528.4,394.2,529z M395.7,498.8c2.1-3.8-1.8-9.3-5.8-11.5c-7.1-4.6-10.3,1.6-15.5,5.9c-4.1,3.7-1.4,13.9,4.8,16.5
	c3.6,1.4,5-2.6,4.2-5.4c-1.1-2.1-0.3-3.7,1.2-5.2C387.8,496.3,391.9,500.1,395.7,498.8z"/>
<path class="st8" d="M582.4,190c-2.4-1.1-9.4,0-7-4.6c1-2.6,3.7-6.9,1.9-9.5c-4-0.4-4.5,5.6-7.5,7.4c-3.3-2.9-2.6-10.7-8-9.6
	c-1.6,9.2,5.4,14.1-6.9,7.7c-6.2-2.3-8.7,1.5-3.6,5.4c2.2,1.6,4.2,3.4,5.9,5.5c-10.5,6-16.8,8.7,0.4,9.2c1.1,0.1,2.3-0.4,1,1.7
	c-1.6,2.2-2.1,8-0.6,9.8c3.3,1.5,5-4.8,8.8-4c2.6,2.3,3.8,9.7,8.2,7.1c1.6-3.6-0.4-7.9-1.1-11.5c-0.4-3.1,4.9-1.4,7-2.4
	C577,192.8,574,197,582.4,190z M568.3,201.4c-9.6,3.2-13.3-11.9-3.5-13.6C574.6,186.7,577.1,198.3,568.3,201.4L568.3,201.4z
	 M498.3,96.1c-5.8,3.5,5.3,5.2,7.7,5.7c6.6,0.3-1.3,7.9,0.9,11.2c3,1.5,5.4-1.8,7.5-3.5c5.6-5.7,7,6.8,12.1,7.2
	c0.2-0.6,0.3-1.2,0.4-1.8c-0.6-2.9-1.3-5.7-1.6-8.6c1,0.2,2,0.4,3,0.4c1.5,0,2.9-0.2,4.4-0.4c-1.8-3.4-4-4.3-7.1-6.1
	c2.1-2.6,5-3.9,6.5-6.9c-3.7-1-9.2-0.1-7.5-5.8c1.5-7.6-3.5-5.8-5.1-0.7c-1.9,5.1-7-0.9-10.4-1.2c-1,4,1.8,7.6,2,11.6
	C507,96.1,502.6,96.3,498.3,96.1z M518.5,91.4c8.9,1.4,4.8,15.8-2.3,12.8C511,101.3,511.8,92.5,518.5,91.4z M350.6,178.9
	c-0.1,1.8,1.8,4,3.7,2c13.9-15.4,4.8-6.1,16.6,0.4c2.7-3.7-2.2-10.9,0.4-13.6c3,0.4,7,2.9,9.9,1.8c3.5-8.7-12.7-9.9-8.4-13.4
	c2.8-3.2,6.3-6.2,5.7-10.9c-3.7-0.9-5.4,1-9,2.6c-5.6,5.3-0.8-8.8-8.2-12.3c-4.2,4.3-2.4,10.8-4,16.1c-4-1.3-7.8-3.7-12-4.3
	c-9.5,2,3.7,9.4,7.5,10.2c-4.2,4.7-12.6,2.4-14.7,9.5C347.7,174.4,358.4,159,350.6,178.9z M369.4,158.5c2.2,8.5-9.2,13.3-14.4,7.6
	C349.3,158.2,365.8,149.1,369.4,158.5z M325,321.5c-1.4,2.8,0.6,5.6,3.7,4.4c2.7-1.4,5.2-3.2,7.5-5.2c1.5-1.5,2-1.4,2.6,0.4
	c1.5,3.2,1.2,8.8,5.9,8.9c9.4-0.2,0-18,7.3-16.2c11.9,2.7,6.2-5.3-0.2-8.4c3.2-3.5,8.9-6.2,9-11.3c-4.6,0.1-8.1,4-12,6.1
	c0.3-4.8,2-9.5,2.3-14.4c0.1-1.8-1.2-2.4-2.7-1.2c-4.4,3.3-3.5,9.7-5.9,14.3c-3.1-2.2-3.5-6.2-5.6-9.2c-7.4-5.9-6.8,5-5.4,9.8
	c4,6.2-4.3,2.9-7.5,4.6c-8.1,3.2-1.7,8.9,4.2,8.9C333.2,313,325.3,319.3,325,321.5z M333,306.4c3.4-7.5,9.5-5.3,14.1-0.2
	C349.3,318,330.7,317.5,333,306.4z"/>
<path class="st9" d="M568.3,191.3c-7.5-2.1-8.8,7.5-2.4,7.2C569.7,198.4,573.8,193.6,568.3,191.3z M520.3,97.4
	c0.2-1-1.2-2.3-1.9-3.4c-1,1.3-1.8,2.8-2.5,4.2c0.7,1.2,1.2,2.3,1.8,3.5C518.6,100.4,520,99,520.3,97.4z M365.6,158.2
	c-3.4-2.1-8.4,1.2-8.3,5.6C361.6,167.6,368.8,163,365.6,158.2z M343.1,306c-5-3.6-8.7,1.2-6,4.8C340.4,312.2,346.7,310.8,343.1,306z
	"/>
<path class="st1" d="M306.5,335.5c2-2,0.6-21.3-2.5-17c-5.9,29.8-40.4,39.8-66.9,36.4c-13.6-1-32.7-1.2-28.7,17.6
	c3.8,32.5,43.8,26.2,63.9,14.2c16.3-9.5,26-25,31.7-43C304.8,341,305.4,338.2,306.5,335.5z M298,345.3c-6.3,10-14,18-25,22.3
	c-1.2,0.4-2.9-0.1-4.3-0.2c18.7-10.3,23.8-19.9,34.3-37.4C303.5,335.7,300.3,340.2,298,345.3L298,345.3z"/>
<path class="st10" d="M738.3,784.5c-1,6,3.2,12,2.1,17.8c-3.2-1.8-3.3-6.7-4.8-9.9c-0.6-2.3-0.5-4.8-4.1-4.4
	c-6.5-1.1-9.8-7.4-9.6-13.8c-0.1-17.2,11.5-4.9,3.5-22.1c-0.4-2.3-1.7-2.4-3.1-2.1c-4.6,1.4-8.9,0.3-13.3-1
	c-11.7-3.7-15.2,10.5-20.8,17.6c-4,7.5-23.5-11.5-29.1-14.2c-29.8-21.8-52.6-51.7-80.2-75.4c0.3,0.9,0.8,1.7,1.2,2.5
	c2.3,4.8,15.7,19.6,11.6,23.6c-5.7,2.3-8.4-8.1-12.8-10c4.2,11.7-13.3-0.1-17.7,3.6c32.4,20.6,63,44.1,94,66.8
	c14,8.6,25,20.5,37.8,30.4c4.4,3.1,9.1,5.5,12.3,10c5.4,7.8,8,16.6,10.3,25.5c0.4,1.5,1,3.4,3.5,2.2c3.9-2.9,12.4-3.6,11.7-9.8
	c-2.1-8.5-7-15.9-10.4-23.9c5.6,3,6.6,10.8,13.5,11.3c17.1,6,31.1-6.7,32-23.5C757.8,792.6,745.6,792.3,738.3,784.5z M716.2,787.3
	c-9.8-8.7-9.9-15-25-12.2c5.3-5.9,13.3-5,20.5,2.3c1.7,2.8,3.2,5.3,4.6,7.9C716.5,785.8,716.2,786.6,716.2,787.3L716.2,787.3z
	 M539.2,856.6c14.3-2,30.1,0.8,43.9-4c-0.6-0.4-1.1-1-1.7-1c-11.7,1-23.7,1.5-34.9-2.6c-6.5-4.5,15.8-5.8,17.2-8.3
	c-7.5-4.7-18.9,4-27,5.3c-13.6,4.6-28.4,7.3-41.4,12.5c3.7,0.7,7.5,0,11.9,0.2c9.7,1.1,19.6,0.8,29.3,1.4c2.2,0.4,4.3,0.8,6.5-0.3
	c-0.7-0.3-1.3-0.7-1.9-1.1C540.4,858,539.7,857.3,539.2,856.6z M574.1,828.5c2.3-0.8,3.7-2.1,2.6-4.5c-3.2-6.6-6.6-13.2-10.1-19.7
	c-1.5-2.7-2.9-2.7-5.3-0.5c-2.1,1.6-3.9,4.7-6.7,4.5c-0.3-4.9,10.5-7.6,5.9-12.2c-7.1-5.5-11.4-15-19.7-5.9
	c-30,25.9-63.3,53.5-105.1,52.8c-39.5,0.4-78.9-2-117.3-12c-18.9-6.3-40.3-8.9-56.1-22.2c-3.7-2.9-7.1-7-11.4-8.5
	c0.5,4.5,6.2,7.3,6.3,12.3c-6.5-1.4-12.3-6.5-19.1-6.6c0.6,0.7,1,1.7,1.8,2c3,0.5,20.8,15.2,16.5,16.9c-7.9-3.4-16.1-8.1-24.6-8.9
	c4.5,4,11.4,4.7,15.4,9.1c-4,0.1-7.6-2.8-11.6-1.2c8.7,5.8,20.4,8.3,27.1,16.9c-16.1-1.9-32.9-8.8-49.1-8.8c2.9,3.7,8.4,3.5,12.5,5
	c5.3,1.3,10.1,4.3,15.8,4.1c0.7,0,1.4,0.9,2.1,1.3c-5.5,4-13.7,1.1-20.1,1.8c-2.3,0.3-5-1.5-6.8,0.2c11.1,7.1,25.3,8.4,38.3,8.8
	c27.7,1,55.3,1.4,83,2c43.3,0.1,86.5,5.8,129.9,3.2c26.8-0.9,52.2-11.5,77.6-19.3C555.2,835.9,564.7,832,574.1,828.5z M403.4,344.4
	c-4.7,5.6,12.1,14.1,15.7,17.7c16.7,10.3,47.9,31.5,64.9,13.5c6.5-5.5,14.9-16.9,11.4-25.7c-1.6,1.2-1.6,3-2,4.8
	c-1.3,11.2-13.5,8.2-21.7,6.2c-21-4.9-40.3-15.2-55.9-30.1C408.5,323.7,407,340.6,403.4,344.4z M448.1,336.9
	c-9.9-8.4-14.7-23.5-13-36.4c3.8-17.3,23.8-19.3,35.9-10c8.6,6.5,15.2,3,23-2.3c0.1-3.1-7.8-4.5-10-6.8
	c-21.1-12.2-20.4-40-27.4-60.7c-4.8,32.6-17,63.3-33.7,92.1c-1.7,3.9-11.1,10.9-6.2,14.6C425.2,333.3,438.1,340.5,448.1,336.9z
	 M457.9,268.7c2.9-1,7.9-1.5,7.9,2.6c-0.1,0.6-1.8,1.2-2.6,1.1c-6.5-1.5-11.6,3.3-17.7,2.4C445.3,270,454.3,270.3,457.9,268.7z
	 M442.8,281.3c8.1-1.1,26.3-11.1,31.7-5.2c-11.4,3.5-23.5,5.3-34.7,9.6C440.7,284.1,441.1,282.5,442.8,281.3z M478.7,383
	c-0.4,3.5,1.8,5.5,4.2,7.3c3.5,2,6.6,6.5,11,5.2c-0.6-0.6-1.2-1.2-1.8-1.8c-0.3-0.2-0.7-0.4-1.1-0.4c-3.4-2.9-6.8-5.9-10.2-8.8
	C480.2,383.9,479.5,383.4,478.7,383z M472.7,385.5c-1.7,4,2.9,7.4,4.5,11.4c3.5,5.1,8.5,8.6,13.9,11.3c0.9,0.3,1.9,0.4,2.9,0.4
	c-4-5.1-9.8-8.8-14.1-13.7C476.9,392.3,476.5,387.1,472.7,385.5z M467.6,386.2c-3.1,8.3,4.8,19.2,11.1,25.1c2.2,2,4.3,4.1,6.6,5.9
	c0.7,0.5,1.9,0.2,2.8,0.3c-0.7-3.2-4.1-4-6.1-6.2c-5.7-6.2-10.6-12.8-12-21.5C469.7,388.7,469.1,386.6,467.6,386.2z M460.4,385.5
	c-3.7,6.2,0.5,13.6,3.1,19.7c4.3,5.4,7,15,14.7,15.8c-6.7-10.2-14.7-20.1-14.8-33.1C463.4,387,461.5,386.3,460.4,385.5z
	 M452.6,383.3c-5.6-3.4-0.5,14.1-0.6,16.6c2.3,7.5,5.4,16.9,12.5,21.1c-0.4-5.4-4.9-9.5-6.8-14.6
	C451.7,395.1,457.6,388.8,452.6,383.3z M434.8,396.5c1.2-5.4,7.8-14.9,3.6-19.4C436.5,377.8,429,403.8,434.8,396.5z M297,821.7
	c40.9,12.3,83.4,18.5,126.2,18.2h1.2c0-1.4-2-1.5-3-1.9c-30.1-3.8-57-21.5-74-46.4c-1.5-2.1-3-2.4-4.8-2.1
	c-8.8,2.1-17.4,5.2-25.6,9.2c-5.6,2.8,3.4,6.9,3.7,10.5c-3.9-0.8-7.5-8.8-11.4-6.7c-6.1,4.4-12.3,8.8-18.4,13.3
	C286.7,819.5,294.6,820.9,297,821.7z M191.7,783.3c32.7-26.2,69.1-47.2,103.7-70.7c-2.6-1.1-16.2,6.2-12.4-0.6
	c1.7-2.2,5.5-2.7,6-5.6c-0.5,0.2-1,0.3-1.5,0.3c-1.2-0.1-2.3-0.3-3.5-0.4l1.8-2.9c0.4-0.7,0.9-1.5,1.4-2.3c-5.7,1-10.3,4.9-16.5,4.3
	c-7.5-1.6,0.3-6.5,2.7-9c-5.1-1.2-7.9,2.8-10.5,6.5c-15.9,13.6-64.4,73-84.4,64.7c-7.7-10.1-12.5-24-27.6-22.8
	c-3.7-1-0.4,7.6-6.7,14.7c-6.1,5.8-4.1,5.6,0.3,11.1c7.2,9.1-5.9,19.4-14.2,22c-5.6,1.7-5.9,9.2-11.6,11.5
	c1.5-5.5,4.5-10.2,6.7-15.3c-0.1,0.3-0.4,0.5-0.7,0.6c-10.9,4.2-22.4-2.7-26.7-13c-0.7,1.2-1.2,2.6-1.4,4
	c1.3,11.6,0.8,24.6,9.4,33.6c4.5,6.4,11.7,1,17.2-1.1c4.6-1.9,9-3.7,13.5-5.7c6.8-1.7,11.7-9.2,18.6-9.1
	c-4.7,6.1-12.8,8.9-16.9,15.9c-3.1,4.8-7.5,9.2-9.5,14.5c9.4-3.4,18.6,1.5,22,10C163,809.6,165.4,803.4,191.7,783.3z M152,777
	c2.7-1.7,5.3-0.6,8.4-0.6c2.9-0.4,5.3-0.9,7.8-1.1c0.6-0.1,1.2,0.7,1.8,1.1C166,779.8,156.4,781.5,152,777z M162.7,790.1
	c-0.6,0.5-1.3,0.9-2.1,1.2c0.7-8.1,10.6-12.2,17.9-12.8c0.7-0.3,1.5-0.5,2.3-0.6c1.4,0.3,2.8,0.7,4.2,1.2
	C177,781.9,168.5,783.1,162.7,790.1L162.7,790.1z"/>
<path class="st11" d="M588.3,200.8c0.9,2.4-1.8,15.8,1.8,13.9c15.5-6.2,35.4-14.4,46.5-26.8c25.8-35.6,30.6-101.4-24.8-109.4
	c-7.1,0.7-16.7-3.4-22.1,2.3c15.4-0.2,29.6,8.9,39.3,20.5c10.5,13.6,8,32.2,4.6,48c-1.8,6.1-3.7,12-9.5,15
	c-10.4,5.4-21.1,10.3-33,11.8c-4,0.4-4.5,1.2-3.5,5.5C587.8,188,588.2,194.4,588.3,200.8z M287.6,224.5c3.6-1.8,2.3-7.4,3.5-10.8
	c1.8-8.4-1-15.9-4.8-23.2c-4.2-3.4-12.2,0.4-17.5-0.2c-17.5,0.9-56.3-1.2-64.1-20c-4.4-15.6-11.3-31.8-6.6-48.1
	c5.6-29.9,34.3-49.7,63.8-49.9c-15.2-10.3-38.3-5.8-53.8,3c-48.1,28.9-53.3,113-0.3,139.6C232.1,227.5,261,228.7,287.6,224.5z"/>
<path class="st12" d="M698.2,802c-15-8.6-25.2-22.9-40-31.9c-8.4-4.5-27.2-24.4-35.5-20.8c-3.5,0.2-7,0.2-10.5-0.1
	c-11.7-0.7-27.5-2.2-31.7,2.3c-1,0.7-4.2,2.5-5.1,0.9c1.7-1.4,4.1-1.9,5.2-3.7c-9.8-2-20.5-1.6-30.3-3.9c-7.8-1.8-15.5-4.3-23.2-6.6
	c-1.6-0.6-1.4-0.1-1.5,1c-1,20.4-3.4,42.1-16.9,58.6c-3.8,3.7-8.4,12.4-13.9,12.1c0.1-4,4.1-5.9,6.5-8.8
	c16.6-16.4,20.2-41.1,20-63.5c-5.1-35.8-37-62.2-39.7-98.9c-0.1-0.7-0.2-2.4-2.1-0.9s-4.8,2-7.2,2.9c-4.5-0.6-1.1,19.6-1.5,23.2
	c0.2,2.8-1.6,3.5-3.2,4.5c-1.5,1.4-6.3-1.2-5.6,2.2c0.9,3.7-0.4,8,0.2,11.9c4.3,14.1,12.1,34.9,5.9,48.7c-3.5-2.3-1.5-6.8-3.5-10.1
	c-2.5,2-4.8,11.7-8.9,8.5c0.4-1.2,1-2.6,1.4-4c0-0.7-0.1-1.3-0.2-2c-0.6,0.3-1.6,0.4-1.8,0.9c-1.8,5-9.2,9-14.1,8.6
	c3.8-4.7,8.5-10.7,8.6-16.7c-2.7,2.9-5.6,5.9-9.8,6.4c3.9-12.6,15.2-31.8,8.8-45c-0.8-1.6-0.9-3.4-0.4-5.1c0.8-2.3,0.4-2.9-2-2.8
	c-4.3,0-7.1-2.1-7.3-5.4c-0.3-6.3-0.4-12.5-0.6-18.8c0.7-6.2-3.4-4-7.8-5.4c-9.8-1.7-17.2-14.2-10.8-24c0-0.8-0.3-1.5-0.9-2
	c-13.6-4.6-16.7-21.8-5.5-30c2.4-1.9,0-1.6-0.4-1.9c-10.2-3.8-15.9-16.1-7.9-25.4c1.7-2,1-2-0.8-2.9c-15.8-8.1-6.6-18.1-11.1-21.7
	c-7.8-1.6-13.8-7.2-13.7-15.3c0.4-3.5-4.5-7.5-7.8-4.5c-13,13-14.4,32.5-20.5,49c-10.3,33.1-27.6,68-59.5,84.3
	c6,1.7,8.8-2.6,13.9-4.2c-0.4,1.1-0.6,2.3-1.3,3.1c-5.8,6.2-12.9,10.4-20.3,13.9c3.4,0.7,7.1-1.8,10.8-0.7c-4.2,5.4-12.2,5.1-17.4,9
	c3.9,1,8.3-1,12.2-0.6c-2.9,4.4-8.1,5.1-11.6,8.4c2.2,1,4.4-1,6.5,0.1c-4.1,6.4-12.8,7-19.3,9.8c6.3,2.4,13.6-3.1,19.9-0.2
	c-6,5.6-14.3,4.6-21.3,7.7c2.7,2,6.3,0.7,9.5,1.1c3.1,0.1,6-0.3,8.4-2.6c0.2-0.2,1-0.2,1-0.1c1.8,4-9.6,8.1-11.7,11.5
	c9.1-1.2,17.7-4.5,25.1-9.8c0.9-0.7,2.5-0.6,3.7-0.9c-1.8,5.6-9.8,7.1-10.9,13c4-1.1,7-4.5,10.8-6c0.1,5.4-7.2,7.8-10,11.9
	c6,0.2,11.4-4.9,17.2-6.7c1.5,4.1-3.1,6.3-2.8,10c5.6-2.9,7.6-10.1,12.4-13.9c3.8-3.2,1.2-8.4,4.6-11.7c3.2,4.2,0.1,10.8,3.8,15.2
	c2.5-4.2-0.5-10.3,3.2-14.2c0.5,0.8,1.5,1.5,1.5,2.3c-0.1,4.3,2.5,7.5,4.8,10.7c1.6-10-2.6-23,5.9-31.2c2.5,5.9,3.1,12.8,7.2,18.1
	c0.7-12-2.5-24.3,5.4-34.5c0.9,4.9,0.4,10.6,5.1,13.7c-2.5-12-1.3-24.1,4.7-35c5.7-11.2,12.3-23.5,22.7-30.7
	c2.8,5.8-9.1,7.8-3.8,13.5c1.9,15.9,6.2,33.8-1.6,48.8c-10.3,16.2-23,30.9-34.1,46.6c-6.5,9-13.1,17.9-16.2,28.8
	c-1.5,4.4-7.5,3.7-11,5.5c21.6,19.5,29.9,49.3,53.4,67c15.1,12.9,33.9,18.5,52.8,23.3c29.5,8.1,60.4-6.1,83.1-24.3
	c29.8-22.5,57.7-52.5,95.5-60.2c2.8-0.4,5.7-0.7,8.5-0.7c18.8,0,35,10.1,27.4,32.6c5.6-2.1,14.4-9.2,20.5-6.6
	c-0.3,0.5-0.4,1.2-0.9,1.5c-8.3,3.4-17.8,6.4-24,13.1c-11,15.8-28.2,24.8-44.8,33.5c-5.9,3.1-12.2,5.6-18.3,8.2
	c-2,1.2-13.4,3.4-7.3,5.9c3.2-0.4,6.1-1.9,9.3-0.9c-5.4,6.3-15,6.6-22.5,9.1c10,2.5,21.1,0.8,31.5,1.7c4.6,2.2,7.6-1.5,11.7,0.2
	c-10.3,11.1-32.2,7.5-45.9,10.3c9.3,3,19.1,0.7,28.6,0.6c30.7,0.2,61.6-3.4,90.7-13.1c8.4-2.2,1-4.2,3.4-10.3c1,0.8,2.6,0.4,2.9,2.7
	c0.4,4.3,2.3,4.9,5.7,2.4c1.1-1,0.7-3.7,1.8-5.1c3.1,5.4,6.4,0.2,9.4-2.6c6.7-1.5,11-8,16.4-12C710.1,816.4,702.9,805.3,698.2,802z
	 M502,756.6c3.5,4.4,1,10.5,1.6,16c0,1-0.2,2-0.7,2.9c-0.4,0.6-1.5,0.7-2.1,1c-0.9-2.9,0.4-6.1,0.1-9.2
	C501.2,763.6,499.3,759.8,502,756.6z M323.9,625.5c-0.4,3.6-4.5,4.6-6.8,7.1c-0.4,0.4-0.7,0.8-0.8,0.8c-1,0.1-2.1,0.1-3.1,0.1
	C315,630.1,320.1,626.3,323.9,625.5z M307,644.2c6.2-2.1,13.1-8.4,19.6-7.4c-1.4,3.7-5,4.2-8.4,5.9C315.5,643,304.6,650.2,307,644.2
	z M316.8,651.8c-4.2,4.5-13,10.8-19.2,10C299.7,659,313.5,650.8,316.8,651.8z M292.3,671.8c15.3-7.3,2.9,4.2-3.5,5.8
	C283.6,676.8,290.3,673,292.3,671.8L292.3,671.8z M283.3,695.4c2.6-5.7,9.5-8.3,14-12.8c1.4-1.2,2.6-2.2,3.7-3.1
	c0.6-0.3,1.3-0.5,2-0.5C302.9,684.5,288.3,694.1,283.3,695.4L283.3,695.4z M302.9,701.4c-1-2.7,1.5-4.2,2.9-6.5
	c1.8-2.7,3.4-5.3,5.1-7.7c0.5-0.6,1.5-0.7,2.3-1C312.6,692.4,308.5,699.3,302.9,701.4L302.9,701.4z M313.8,664.2
	c-2.7,2.7-5.2,5.3-7.8,7.8c-0.4,0.4-1.1,0.3-1.7,0.4c-0.1-3.5,16.2-23,19.5-21.8C322.3,656.3,318,660.2,313.8,664.2L313.8,664.2z
	 M323.9,680.3c-1.8-0.5-0.7-2.2-0.4-3.2c1.8-3.9,2.5-8.8,6.5-11.2c0.1,1,0.4,1.9,0.5,3.2C328.5,672.9,327.8,678.8,323.9,680.3
	L323.9,680.3z M318.5,673.7c-1.6-5.4,7.1-17,12-19.4c0,0.4,0,0.8,0.1,1.2C326.8,661.7,324.5,669.4,318.5,673.7L318.5,673.7z
	 M331.6,679.5c-2.8-3.7,3.1-17.1,3.5-22.5c0.3-0.1,0.3,0.1,0.7,0.4C340.4,660.8,335.5,677.1,331.6,679.5L331.6,679.5z M348.4,649
	c-1.3,4.2,0.6,9.8-3.7,12.2c-1-5.5-0.3-11.2,1.8-16.3C347.2,646.3,349.1,647.4,348.4,649L348.4,649z M388.4,752.5
	c0.1-0.7,0.9-1.2,1.2-1.8c0.8,0.8,2.2,1.8,2,2.5c-1.2,5.7-0.6,12.5-4,17.3c-0.4-0.6-1-1.2-1.5-2
	C386.8,763.2,387.5,757.9,388.4,752.5L388.4,752.5z M382.1,736.3c0.3-0.8,1.8-1.2,2.6-1.8c1.2,3.1-0.2,5.4-1.4,8.3
	c-2.3,5.1-2,11.5-6.7,15C374.4,751.7,380.6,742.7,382.1,736.3L382.1,736.3z M363,737.7c-0.1-1.6-0.7-2.9,0.6-4.3
	c4-3.8,7.8-7.5,11.7-11.1c0.6-0.5,1.8-0.4,2.8-0.5C377.2,727,367.3,734.2,363,737.7z M375.1,735.4c-2.9,4.5-4,12.6-8.4,15.2
	c-2.4-4.2,3.8-10.6,5.1-15.5C372.5,732.9,376.1,732.7,375.1,735.4L375.1,735.4z M366.8,710.8c2.4-1.9,4.8-3.7,7.4-5.3
	c0.9-0.6,2.2-0.3,3.4-0.4c0.2,3.9-17.5,14.7-21.1,14.4C359.3,715.9,362.8,713,366.8,710.8L366.8,710.8z M364,720.9
	c0,4.9-6.2,7.8-8.8,11.8c-1.6,1.7-2.6,4-5.1,4.3C350.1,731.8,359.2,720.4,364,720.9z M403.1,797.8c-16-10.4-28.9-26.2-46.3-35.2
	c-6.8-5.2-18-7.7-22.4-14.7c1.2-0.1,2.9-0.6,3.8-0.1c14.7,9,29.9,17.1,43.5,27.9C385.1,779.2,405.8,794.6,403.1,797.8L403.1,797.8z
	 M403.4,780.6c-0.3,0.7-1.5,1.2-2.4,1.7c-1.8-4.7,3.7-12.5,4.9-17.6c0.2-0.5,1.3-0.8,2.1-1.2c1.5,2.7-0.7,4.9-1.3,7.8
	C405.8,774.5,404.7,777.6,403.4,780.6L403.4,780.6z M411.2,778.6c-1,3.5,0.3,8.5-2.8,10.8c-2.6-4.5-1-10.7,0.7-15.7
	C412.8,770.6,411.8,777,411.2,778.6L411.2,778.6z M424.4,799.8c-3.5-3.2-4.6-8.1-6.5-12.4c-0.2-0.8,0.9-2.1,1.3-3.1
	c1.8,1.8,2.2,3.9,3.1,6.3c1.1,1.7,2,3.6,2.8,5.5C425.5,797.2,424.7,798.5,424.4,799.8L424.4,799.8z M490.8,783.4
	c-2.1-4.1-2.6-10,0.8-13.3c0.5,1,0.9,2,1.2,3.1c0.3,2.7,0.4,5.5,0.4,8.5C492.5,782.4,491.7,783,490.8,783.4L490.8,783.4z
	 M682.3,764.2c4.2,1.2,5-2.9,6.7-5.8c-0.2-3.4-21.8-7.5-25.1-6.7c0.2,0.3,0.2,0.7,0.6,0.9C670.3,756.4,676.2,760.1,682.3,764.2z
	 M572.4,311c5.4,6.3,12.5,8.9,20.8,10.5c3.2,0.2,6.5,0.5,9.8,0.6c0.5-0.1,1.1-0.2,1.5-0.5c-16.8-3.4-23-13.3-28.4-28.5
	C574.4,298.4,570.5,305.6,572.4,311z M491.6,545.1c6,4.9,6.3,15,3.1,20.7c-1.2,4.7-14,8.2-7.9,10.3c10.5,4.8,13.1,19.5,4.9,27.8
	c-0.5,0.8-0.7,1.7-0.4,2.6c10.2,21.7,17.3,44.6,25.1,67.1c1.7-5.4-4-12,0.8-16.2c1.8,5.3,3,10.8,7.1,15.3c3.5,4,4.1,10.4,8.4,13.7
	c-0.7-5.1-4.5-9.5-3.8-14.8c4.2,3.8,5.8,10,10.1,13.6c0.2-0.2,0.3-0.5,0.3-0.7c0-0.9-0.1-1.6-0.1-2.5c5.5,2.4,10.1,6.4,15.9,8.4
	c2.1,1.5,4,2.6,6.6,1.9c-0.6-0.7-1.1-1.5-1.7-2.2c-0.7-0.9-1.2-1.6-1.9-2.5c1.1,0.3,2.6,0.1,3.2,0.7c1.8,2.6,12.8,6.7,15.6,6.3
	c-3.2-5.9-14.2-12.8-12.8-20.2c0.9,0.3,2.3,0.4,2.3,0.9c1.2,4.5,5.4,6.4,8.4,9.4c4.2,4.3,8.3,8.8,12.9,12.7c-1.3-5.6-5.8-9.7-8.9-15
	c-1.9-2.8-3.2-6-6.7-7.5c-0.7-0.3-1.1-1.8-1.6-2.8c5.1-0.7,10.5,2.3,15.5,1.1c-3.4-4.9-13.7-3.1-15.4-9.7c4-0.2,7.5,2.5,11.5,2
	c-1-1-1.8-2.2-3.1-2.7c-7.9-3.4-17.6-8.3-20.8-16.5c7.3,2.2,15,6.3,22.5,3.4c-52.2-17.1-65.5-78.4-83.7-123.9
	C498.2,540.8,487.1,541.5,491.6,545.1z M543.7,673.8c-2.6-4.9-5.3-9.5-7.9-14.1c-0.4-0.6,0.2-1.6,0.3-2.4
	c2.7,0.1,12.1,16.3,11.2,19.1C546,675.5,544.4,675.4,543.7,673.8z M555.8,681.4c-3.2-1.8-4-5-5.6-8.3
	C541.5,649.5,558.2,675.1,555.8,681.4L555.8,681.4z M563,661.7c0.7,1.1,1.2,2,1.8,3c-1.4-0.1-3.3,0.4-4.1-0.3
	c-3.5-4.5-13.6-11.5-13.8-16.6c2.6-0.1,3.8,2.5,5.6,4L563,661.7z M556,645.7c-5.1,1.9-19.7-11.2-19.4-16.3
	C543.9,633.6,550,639.6,556,645.7L556,645.7z M543,627c0.5,0.6,0.4,1.8,0.5,2.8c-4.7-4.8-10.6-8.3-13.3-14.7
	C536.2,616.2,538.9,623,543,627z M540,645.8c1.6,2.9,3.1,5.6,4.4,8.3c0.2,0.8,0.1,1.6-0.1,2.4c-3.6-5-15.1-19-14.4-24.3
	C535.3,635.1,536.6,641.1,540,645.8z M529.7,652.4c0.7,0.8,2,1.6,2.3,2.5c1,5.3,1.8,10.6,2.6,16.1c-0.3,0.5-0.6,1-1,1.4
	C529.1,668,528,658.2,529.7,652.4L529.7,652.4z M521.1,644c1,7.1,5.2,14.5,3.2,21.1C522.5,662.8,513.8,640,521.1,644z M264,350.1
	c19.9-3.8,35-18,39.3-37.9c-0.4-2.9-0.8-5.9-1.2-8.8c-0.1-0.7-0.4-1.2-0.6-1.9c-9.2,17.4-24.9,33.2-44.4,38.1
	c-14.2,4.3-31.1,3.5-42.9,13.2C230.6,348.9,247.4,353.4,264,350.1z M228.9,840.9c-6.1-3.6-15-1.8-19.5-8.2c-1.1-1.4-0.8-3.2,1.6-3.2
	c13.3-0.7,25.8,2.6,38.6,5.5c-0.6-0.5-1.1-1.3-1.8-1.6c-8.5-2.6-15.6-9.1-25-9.2c-1,0-2-1.4-2.9-2.2c4.2-4,10.6,1.8,15.5-1.3
	c-5.4-4.6-14.4-2.4-19.4-7.6c3.3-2.9,7.6-1.2,11.5-1c7-0.2,12.8,4.1,19.4,4.9c-4.7-4.8-11-8-16.4-12.1c-5.1-6.1,18.9,0.9,20.7,1.3
	c-8.3-13.4-22.4-22.1-38.3-22.1c-1-0.2-1.6-1.6-2.4-2.4c15-4.6,29.3,7.3,41.2,15c10,5.1,18.9,17.7,30.1,19
	c-15.6-14.3-27.6-35.5-24.8-57.3c-0.2,0.3-0.4,0.5-0.7,0.6c-12.1,2.9-25.3,2.9-36.6,8.3c-19.9,14.5-42.8,27.9-55.3,49.9
	c-1.7,4.5-9.5,18-7.8,21.5c1,0.4,3.1,1.5,3.5-0.1c-3.6-1.2,0.2-3.5,0.2-3.5c2.6,2.1,5.2,4,8,5.8c1.1,2.4,6.4,4.1,8.8,4.3
	c0-0.1,0-0.1-0.1-0.2c0.8,0,1.5-0.2,2.2-0.4c2.2,0.1,4.9,1,7.4,1.2c0.8,0.7,1.8,1.2,2.9,1.4c3.5,1.2,6.9,3.4,10.7,3.4
	c-15.7-13.1,17.1,1.5,22.1-0.8c-6-3.8-13.3-5.9-18.6-10.8C212,837.1,220.9,843.1,228.9,840.9z"/>
<path d="M770.5,771.8c-0.2-14.2-12.2-12.2-10.2-18.5c2.3-8.7,2.9-20.5-5.7-26c-6.3-4-16.9-4.2-21,5c-12.1,29.7-25.5,4.2-37.6,16.7
	c-2.9,4.5-5.3,5.5-10.5,3.2c-30.9-9.5-21.3,3.7-49-23.6c-14.7-13.9-28.9-28.3-43.6-42.2c-1.8-1.7-1.6-3.6-1-5.5
	c4.7-12.5,11.2-24.3,22.1-32.5c11.5-12,47.3-20.5,43.1,6.2c-0.4,4.5-2.1,9.4,0.9,13.3c5-1.4,4.8-7.3,8.5-10.3
	c1.3,4.6-3.9,19.6,5.8,13.3c3.1-4.8,5.5-10,6.1-15.9c0.1-1.1,1.7-3,2.5-3c7.4-0.4,5.1-15.5,4.7-20.7c-1.5-9.4-4.5-17.7-11.7-24.3
	c-0.7-0.7-0.9-1.9-1.3-2.9c3.7-0.2,5.6,3.4,9.3,3.6c-5.9-16.3-28.3-23.8-44.5-24.2c2.8-3.4,7.5-3,11.2-4.9c4.9-3.7-3.6-5.4-6.5-4.4
	c-34.1,5.3-56.5,34.2-67.4,65.1c-1.5,3.4-2,3.8-5.5,2c-36.1-20.2-48.7-63.6-63-99.8c-1-5.9-13.9-28.2-9.7-31.1
	c5.5-6.1,4-18.1-3.6-22.4c-2-1.2-3.3-2.9-2.9-5.5c1.3-6.5,0.4-13.6,3.1-19.7c2.9,4.3,5,10.8,11,10.9c-1.5-8-2.3-17.3,4.5-23.2
	c2.9-0.6,3,13.9,3.3,16.3c-0.1,8.4-0.6,16.9-4.3,24.7c-0.3,0.6,0,1.4,0.1,2.1c14.4-7.3,21.5-23.8,26.9-38.1
	c1.5-4.1,1.2-8.7,4.3-12.1c2.1,6.5-1.6,13.3-1.9,19.9c9.6-5.6,13.6-17.7,19-26.9c7.3-13,7.1-28.1,10.3-42c4.2,10.1,1,21.7,0.4,32.1
	c1.3,0,2.4-0.8,2.9-2c8.7-12.5,9.6-27.6,10.4-42.3c7.7,3.2,15.5,8.6,24.3,5.4c-12.9-9.6-24.1-21-29.5-36.5c-0.3-1.2-3.8-9.5-0.8-7.2
	c38.6,37,86.4-4.4,53.6-22.8c-12.8-4.6-29.2-0.2-38.8-11.7c-14.8-17.9-11.1-31.4-6-52.3c3.4,2.9,5.9,7,9.8,9
	c-2.7-14.7-5.5-30.1-4.9-45.2c-0.1-2.1,0.9-3.1,2.7-3.6c12.5-3.2,24-9.4,35-15.9c29-15.6,41.5-69.8,27.8-98.7
	C633.1,58.2,551.5,77.7,602.8,87c27,9.6,35,32.3,28.3,58.8c-2.3,19.6-24.6,20.8-39.4,27.1c-5.3,2.4-5.9-2.8-6.7-6.9
	c-2.4-9-5.8-17.7-10.1-26c-8.9-17-22.1-31.7-39.2-40.7c-1.8-1-1.8-1.9-1.1-3.4c1.8-4.2-0.3-7.2-4.7-6.3c-3.2,0.7-2.2-0.5-1.8-2.2
	c1.4-4.8-1.2-8.9-5.3-8.1c-3.6,0-5.1,8.5-8.5,5.3c-2.1-2.8-5.2-1.6-7.8-3.2c-4.3-3.4-9.5-3.8-14.7-3.5c-4.2-0.1-8.4,3.2-12.7,2.1
	c0.5-0.6,1-1.3,1.4-2.1c0.7-1.2,1.3-2.4,1.9-3.7c-5.6-2.6-11.2,2.3-16.3,4.6c-7.9,5-16,10-19.9,19.2c-1,1.5-2.1,3.2-3.9,3.9
	c-0.3-7.9,7.5-17.6,4.8-25.2c-5.9-2.2-13.6,15.8-14.4,20.7c-0.1,0.6-0.9,1.1-1.3,1.5c-5.7-10.6-13.3-20.1-24-26.1
	c-4.5-1.8-11.1-6.5-15.8-3.6c2.5,6.9,11,8.9,14.5,15.2c-34.2-9.7-72.4-7-103.3,12c-7.9,5.1-17.7,9.7-21.8,18.6
	c5.9,1.5,9.2-5,15.2-4.2c-22.3,17.6-38.3,42.9-42,71.8c-0.2,2.1-0.4,5-4.1,4.3c-12.7-2.3-36.8-5.3-42.3-18.6
	c-5.5-14.9-9.7-31.1-5.6-46.9c5.5-26.8,32-46,59.2-45.8c5,0.4,6.3-5,1.8-7.2c-5.2-3.2-10.9-4.4-16.9-5.3
	c-50.4-6-85.7,49.8-79.1,95.5c2.9,40.8,41.1,69.9,80.6,70.1c5.8,0.1,6.5,1.2,6.5,7c1.1,19.4,3.8,42.4-10.8,57.5
	c7.2,2.3,11.6-4.1,16.4-8.1c-0.1,7-3.8,13.8-5.9,20.4c-1.8,4.6-5.8,8.1-7.5,12.8c7.6,0.2,13.1-5.6,18-10.6
	c1.8,6.5-0.7,13.6-1.2,20.2c0.6,7.6-5,8.1-11.2,9.4c-15.4,4.1-37,2-44.9,19.1c-4.7,10.7-2.9,24.4,4.8,33.3c2.7,2.7,5.9,4.9,9.4,6.6
	c21.6,10.6,50.7-2.1,67.2-17.8c0.4,10.5,4.4,22.6-1.3,32c-2.4,4-5.7,7.4-8.9,10.9c-1.2,1.4-0.8,1.8,0.5,2.3c7.8,3.6,16,2.3,23.9-0.4
	c0.1-0.2,0.2-0.4,0.4-0.6c-2.6,13.1-8.5,25.3-16.9,35.5c-2.7,3.2-6.4,5.6-8.6,9.3c10,2,19.8-1.2,28.8-6.1c0.7-0.4,1.8-1,1.5,0.9
	c-1.9,9.5-0.4,20.5,6.5,27.5c2-7-1.3-15.8,3.2-22c1.5,1.9,1.5,4.3,1.7,6.6c1.2,6.4,4.3,12.8,9.6,16.6c2.8-10.3,4.4-21.3,12.2-29.4
	c2.6-2.2,16.9-19.3,17.2-9.6c1.1,17.1-3.4,35-16.5,46.8c4.6,1.5,9.5-1.9,14.2-2.5c3.7-0.2,7.5,0.1,11.2-0.4c1.5-0.2,2-0.4,2.1,1.3
	c0.1,3.5,2.8,8.6,1,11.7c-4.7,3.7-8.4,10-11.7,17.7c-8.3,19.4-13.2,47.4-22,62.7c-7.8,17.2-18.8,33-33.8,44.7
	c-2.4,2.7-24.4,13.1-11.5,14.2c1.3-0.4,2.8,0.1,3.7,1.1c-4.5,4.4-16.7,3.2-16.3,11.7c-0.6,1.5-3.4,2-4.9,2.9c-8.1,4.6,2.5,5,6.2,5.9
	c-2.6,2.8-9.3,2.9-5,7.5c-0.6,3.4-12.3,1.5-16.3,7.3c2.1,1,4.8,1.1,6.5,2.8c-2,2.3-5.6,1.3-7.8,3.4c2.2,4.5,9.5,3.2,5.6,6.4
	c-23.8,23.7-46.1,50.4-76,66.7c-7.5,6.2-10.6-5.6-14.3-10.8c-12.2-21.8-22.7,1-34.4-29.5c-3.4-6.2-9.5-10.3-16.2-6.2
	c-11.2,4-14.5,19.6-6.2,28.2c2,2.2,1.5,3.4-1,4c-18.5,4.6-23.5,25.7-21.3,42.3c1.7,10.9,5.9,28.9,19.8,28c8.7-1.3,15.5-9,24.1-10
	c-36.7,35.5,2.8,69,15,33.7c2.1-7,7.6,6,10-4.8c4.5,4.5,9.7,12.5,17.1,8.7c1.3-0.5,2.6-0.5,3.9,0c5.1,1.1,16.8,10.1,20.5,4.9
	c0.9-2.5,2.3-2.2,3.7-2c54.7,10.8,110.8,5.9,166.2,9.1c37,1.9,74.1,6.1,111,0.6c45.4,4.4,91.2,4.6,136.6,0.6
	c16.9-1.4,33.2-7,49.4-11.7c4.7-2.2,5.7,2.6,8.6,5.2c1.4-1.1-0.8-3.4-1.5-4.5c-1.8-2-1.5-3,1-4.2c5.5-2.6,10.5-5.8,16.3-7.6
	c2.4-6.2,11.9-8.6,13.9-16c6.5,10.6,2.3,26.8,11.3,36.1c25.8,8.2,15.1-33.1,10.3-45.9c-0.5-1.6-0.6-1.2,0.9-0.8
	C759.1,821.9,772.8,795.2,770.5,771.8z M730.7,744.1c7-7.2,4.5-15.3,16.3-16.1c12,2.2,12.7,14.2,10,24c-2.1,8.6-10.6,10.1-17.2,9.5
	c-0.3,0-0.7-0.5-1-0.4C730.6,763.2,724.8,748.7,730.7,744.1z M737.9,766.7c-4.5,5.4,0.1,22.2-7.5,17.8c-6.2-2.6-5.1-9.6-4.8-15.2
	C727.5,764.4,737.8,761.6,737.9,766.7z M689.1,758.4c-1.7,2.9-2.5,7-6.7,5.8c-6.2-4.1-12-7.8-17.8-11.7c-0.4-0.2-0.4-0.6-0.6-0.9
	C667.3,751,688.9,755.1,689.1,758.4z M579.3,638.4c9.9-26.8,29.8-55.5,60-59.4c-5.3,3-22.9,10-23.9,15.4c5.7-0.5,10.6-4.4,16-6.2
	c13.8-3.5,30.3,1.5,40.2,11.4c-4-0.1-7-3.6-10.4-5.2c-5.6-2.5-13.1-5.2-18.6-1.8c3.4,2.6,7.8,1.5,11.6,2.6
	c16.8,4.5,33.5,34.8,27.4,51.2c-2.1-6.4-1.7-13.6-4.8-19.9c0.2-1.9-2.3-2.6-3.5-3.9c0.6,8.4,4.5,16.7,2.8,25.4
	c-1.2,7-2.1,14.5-6.6,20.5c-1.2-7.7,2-16,0.2-23.6c-0.6,0.6-1.7,1.2-1.8,1.9c-1.6,5.6-4.4,10.8-8.2,15.2
	c7.9-28.5-16.7-35.3-38.1-23.2c-36.7,22-27.9,48.7-37.6,38.6c1.8-1.8,6.6-1.5,5.5-5c-1.2-2.6-5.1-2.8-7-4.5
	c11.4-4.9-8.5-8.3-9.5-13.4c3.6-2.5,10.9,0.3,12-5.3c0-0.8-1.2-1.9-2.1-2.5C577.6,644.6,576.4,644,579.3,638.4z M496.7,525.8
	c18.2,45.5,31.5,106.8,83.7,123.9c-7.5,2.9-15.2-1.2-22.5-3.4c3.2,8.2,12.9,13,20.8,16.5c1.3,0.5,2.1,1.8,3.1,2.7
	c-4,0.5-7.5-2.2-11.5-2c1.7,6.6,12,4.8,15.4,9.7c-5,1.2-10.3-1.8-15.5-1.1c0.5,1,0.9,2.5,1.6,2.8c3.5,1.5,4.8,4.8,6.7,7.5
	c3.1,5.3,7.5,9.5,8.9,15c-4.6-3.9-8.7-8.4-12.9-12.7c-2.9-3-7.1-4.9-8.4-9.4c-0.1-0.5-1.5-0.6-2.3-0.9c-1.4,7.4,9.6,14.2,12.8,20.2
	c-2.9,0.4-13.8-3.7-15.6-6.3c-0.5-0.7-2-0.4-3.2-0.7c0.7,0.9,1.2,1.6,1.9,2.5c0.6,0.7,1.1,1.5,1.7,2.2c-2.6,0.7-4.5-0.4-6.6-1.9
	c-5.8-2-10.4-5.9-15.9-8.4c0.1,0.9,0.1,1.6,0.1,2.5c0,0.3-0.1,0.5-0.3,0.7c-4.3-3.5-5.9-9.8-10.1-13.6c-0.7,5.3,3.2,9.7,3.8,14.8
	c-4.2-3.3-4.8-9.8-8.4-13.7c-4.1-4.5-5.3-10-7.1-15.3c-4.8,4.2,0.9,10.8-0.8,16.2c-7.8-22.6-14.9-45.4-25.1-67.1
	c-0.2-0.9-0.1-1.8,0.4-2.6c8.2-8.3,5.6-23.1-4.9-27.8c-6.1-2.1,6.8-5.7,7.9-10.3c3.2-5.7,2.9-15.8-3.1-20.7
	C487.1,541.5,498.2,540.8,496.7,525.8z M571.6,744.1c-7-0.4-13.9-1.8-20.9-2.5c-1.8,0.4-2.7-0.4-3.7-1.8c45.7-23.7,9.7-43.8,60.8-7
	c5.7,4.8,12.7,7.5,16.8,12.8c-7.3,1.2-15.1-0.3-22.6-0.2c-4.4-0.2-8.9,1.1-13.1-1.2c-3.7,0-7.8,0.2-11.7,0c-3.2-1.7,5.6-4.5,4.5-7.6
	C577.6,737.6,575.9,743.6,571.6,744.1z M571.6,712.8c-6.5,11-16.1,20.5-27.8,25.6c-3.7,0.7-17.4-2.3-19.2-5.7c0.6-0.6,1.3-1,2-1.4
	c2.6-0.5,5.2-0.9,7.8-1.3c14.1-4.3,20.2-16.9,24.9-29.3c0.5-1.4,0.2-2,1.8-0.4C564,704.4,576.8,706.9,571.6,712.8z M484,609.1
	c1.2-2.5,3.7-1.9,4.8-0.2c5.3,13.5,10.6,26.9,15.5,40.4c5.4,11.9,6.8,26.3,15.3,36.6c7,2.5-2-10,0.1-12.8c2.8,1.5,3.5,5,4.9,7.7
	c2.6,5.6,6,11.7,11.9,14.3c-0.1-3.4-4-12,2.2-5.5c4.2,3.5,6.7,10.3,12.9,9.6c-1.2-3.6-5.3-5.4-5.6-9.1c3.9-0.4,7.6,4.3,10.5,6.7
	c0.1,5.2-5.1,12-7.2,17c-4.7,7-10,12.5-18.3,13.7c-2.9,0.4-7.2,1.8-8.5-2c-9.9-32.9-41.8-61-37.1-97.1
	C487.4,622.5,482.9,615,484,609.1z M455.8,704.3c4.5,3-1.5,7.3,6.5,7.2c0.1,0.3,0.2,0.7,0.4,1c-0.4,3.2,0.2,6.5-2.1,9.3
	c-0.4,0.3-0.8,0.6-1.2,1c-1-3.5,1.5-7.2-0.5-10.3c-3.8,3.3-3.5,10.8-8.6,12.8c1.2-4.8,6.2-16,4-19.9c-3,3-2.6,7.8-7.3,9.5
	c-0.1-0.5-0.3-1.2-0.1-1.5c6.2-10.8,9.7-24.4,5.4-36.7c-0.5-1.9-0.2-3.8,0.7-5.5c3.5-2.5,6.4,0.4,6.7,4.3c-3.7,4.2-0.7,7.9,0.5,12.1
	c2.7,10.5,6.2,21,7,31.8c-4.8-9.5-5.7-20.1-9.8-29.6c-0.6,4.2-1.4,8.4-2.5,12.6C454.6,703.8,454.3,703.8,455.8,704.3L455.8,704.3z
	 M459.9,646.6c-2.9,4.5-0.4,10.3-0.8,15.4c0.1,4.8,0.1,4.7-4.9,4.8c-6.1-0.2-0.6-13.9-4-18.2c-4.4,4.8-0.1,12.4-3,17.4
	c-3.7,0-5.1-1.8-4.8-5.4c-0.2-6.8-0.4-12.9-0.7-19.1c-0.1-3.9,1-4.3,4.8-4c4.8,0.4,9.5,0.4,14.3,0c4-0.4,5.3,0.4,5.6,4.6
	c-0.4,7.3,2.6,15.6,0.3,22.5c-1.4,1.5-3.3,1-3.5-1.1C461.6,658,463.7,651,459.9,646.6L459.9,646.6z M383.4,504.3
	c0.7,2.8-0.6,6.7-4.2,5.4c-6.1-2.6-8.9-12.8-4.8-16.5c5.3-4.3,8.4-10.5,15.5-5.9c4,2.2,7.9,7.7,5.8,11.5c-3.8,1.3-7.9-2.5-11.1,0.3
	C383.1,500.5,382.3,502.2,383.4,504.3z M411.5,521.4c-3.5,3.4-10-3.2-11.9,3.4c-0.8,4-1.4,4.6-5.4,4.2c-5.7-0.6-9-4-10.7-9.4
	C381.4,494.5,424.1,495.9,411.5,521.4z M408.2,525.8c12.5-3.4,24.9,11.4,15.1,21.6c-0.7,0.7-3.2,0.5-4.3-0.2
	c-9.8-6.7-5.9,7.9-12.5,3.7C394,546,396.1,528.3,408.2,525.8L408.2,525.8z M433.9,559.8c3.5,5.8-0.4,20.2-8.7,17
	c-4.9-3.7-6.5,1.5-11.1,2.6C389.6,567,420.8,538.9,433.9,559.8L433.9,559.8z M436.1,584.5c8,4.8,8.8,13.9,3.9,20.1
	c-2.8,3.6-2.9,3.5-6.5,0.7c-10.5-4.4-4.8,13.4-18.1,2.6C400.3,595.4,421.7,574.1,436.1,584.5L436.1,584.5z M431.3,611.4
	c22.4-4,24.9,25.9,2,25.6c-7.2-0.6-12.5-6.9-11.9-14C421.8,617.4,425.8,612.7,431.3,611.4L431.3,611.4z M464.8,634.5
	c-14.1-1.2-7.3-23.8,5-22.9c11.2-0.5,15.6,12.6,10.6,20.5C467.1,643.2,472.2,635.1,464.8,634.5L464.8,634.5z M464.8,590.7
	c1.5-18.8,27.6-15.9,28.4,0.7C493.3,609.8,463.2,610.1,464.8,590.7L464.8,590.7z M475.9,544.2c11.7-4.1,23.5,11.1,14.1,21.3
	c-3,4.5-6.6,4.5-11.2,3.5C464.2,572.2,462.6,547.5,475.9,544.2z M475.9,516.1c13.9-5.3,21.5,13.1,15.2,20.6
	c-6.4,11-8.7-7.8-16.2,3.9C464.5,535.7,466.1,520.1,475.9,516.1L475.9,516.1z M491.6,510.9c-4.9,1.5-5.4-5.9-10.8-1.4
	c-8.9,3.4-8.8-20.4,3.1-20.6C495.1,486.9,501.8,504.4,491.6,510.9L491.6,510.9z M633.9,331.9c3.7,23.8-28.4,28.7-44.3,19.3
	c-5.1-2.6-9.7-6.7-15-9c-4.5-3.7-4.9-10.7-4.8-16c4.8,4.3,12.8,13.2,19.5,12.2c-0.8-3.1-4-3.7-6.2-5.5c-5.1-5.8-17.2-10.4-13.3-19.6
	C589.8,338.4,626.3,313.3,633.9,331.9L633.9,331.9z M604.5,321.6c-0.5,0.3-1,0.4-1.5,0.5c-3.2-0.1-6.5-0.4-9.8-0.6
	c-8.3-1.6-15.3-4.2-20.8-10.5c-1.9-5.4,2-12.6,3.6-17.9C581.5,308.4,587.7,318.2,604.5,321.6z M591.2,176.2
	c11.9-1.5,22.6-6.4,33-11.8c5.8-3,7.7-8.9,9.5-15c3.4-15.8,5.9-34.4-4.6-48c-9.7-11.7-23.9-20.7-39.3-20.5c5.4-5.8,15-1.7,22.1-2.3
	c55.3,8,50.6,73.7,24.8,109.4c-11.1,12.5-31.1,20.6-46.5,26.8c-3.7,1.9-1-11.5-1.8-13.9c-0.1-6.4-0.4-12.8-0.6-19.1
	C586.7,177.4,587.2,176.6,591.2,176.2z M509.1,85.7c3.4,0.4,8.5,6.4,10.4,1.2c1.6-5.1,6.6-6.8,5.1,0.7c-1.7,5.7,3.7,4.8,7.5,5.8
	c-1.5,3-4.4,4.3-6.5,6.9c3.2,1.8,5.3,2.6,7.1,6.1c-1.5,0.2-2.9,0.3-4.4,0.4c-1-0.1-2-0.2-3-0.4c0.3,2.9,1,5.7,1.6,8.6
	c0,0.6-0.1,1.2-0.4,1.8c-5.1-0.4-6.5-12.9-12.1-7.2c-2.1,1.7-4.5,5.1-7.5,3.5c-2.2-3.3,5.7-10.9-0.9-11.2c-2.4-0.5-13.5-2.2-7.7-5.7
	c4.3,0.3,8.7,0,12.8,1.2C510.9,93.3,508.1,89.6,509.1,85.7z M505.2,83.1c0.7-0.2,2-0.7,1.1,1.2c-0.8,1.5-1,3.3-1.4,4.9
	c-5,0.2-9.6-0.3-14.2-0.2c-4.7-0.3-9.7,2-14.2,0.6C485.1,85.1,495.8,85.1,505.2,83.1z M207.8,215c-53-26.7-47.8-110.8,0.3-139.6
	c15.5-8.8,38.6-13.3,53.8-3c-29.5,0.2-58.2,20-63.8,49.9c-4.7,16.3,2.2,32.5,6.6,48.1c7.8,18.8,46.6,21,64.1,20
	c5.3,0.6,13.2-3.1,17.5,0.2c3.9,7.2,6.6,14.7,4.8,23.2c-1.2,3.4,0.1,9-3.5,10.8C261,228.7,232.1,227.5,207.8,215z M257.1,339.6
	c19.5-4.9,35.2-20.7,44.4-38.1c0.1,0.7,0.4,1.2,0.6,1.9c0.4,2.9,0.9,5.9,1.2,8.8c-4.3,19.9-19.4,34-39.3,37.9
	c-16.6,3.4-33.4-1.2-49.8,2.7C225.9,343,242.9,343.8,257.1,339.6L257.1,339.6z M272.3,386.8c-20.1,12-60.1,18.2-63.9-14.2
	c-4-18.8,15.2-18.6,28.7-17.6c26.5,3.4,61-6.6,66.9-36.4c3.1-4.3,4.5,15,2.5,17c-1.1,2.6-1.7,5.5-2.6,8.3
	C298.3,361.8,288.6,377.2,272.3,386.8L272.3,386.8z M362.1,493.8c0.3-0.5,0.5-1.3,0.9-1.5c6.2-4.1,11.1-10.9,11.5-18.3
	c-0.8,0.4-2,0.7-2.3,1.3c-2.3,4.8-5.4,9.3-9.2,13c-3.7,3.3-8.3,6.2-12.9,7c10.4-13.1,13-29.5,10.5-45.8c-0.1-1.5-1.6-2.9-2.6-4.3
	c-16.6,5.2-28.1,23.1-31.2,39.7c-2.6-4.3-4.1-10.1-4.8-15.1c-3-4.9,0.3-8.7,1.7-13.2c-1.9-0.2-3.6,0.9-4.4,2.6
	c-2.4,5-6.7,9.3-7,15.5c-0.1,1.3-0.5,2.6-1,3.7c-1.5-5.7-0.6-12-0.1-17.7c0.5-3.9,6.2-6.6,4.4-10.9c-8.1,9.4-18.1,14.1-30.3,15.6
	c9.8-12.4,19.2-26.6,20.7-42.8c-0.1-1.1,1-2.5,1.8-3.7c1.4-4.2,6.9-8.3,4.1-12.7c-7.9,13.6-11.5,18.7-28.6,15.8
	c14.1-12,9.8-27,8.5-43c-0.1-2.4,0.6-4.7,2-6.6c9.2-10.9,12.1-24.6,16.6-37.2c1.7,3.7,1.5,8.3,4.9,11c1.1-4-1.3-7.3-2.3-10.9
	c-3.7-15.5-7.8-30.9-9.7-46.8c-0.7-6.7-0.9-13.6-1.3-20.5c0.1-2.6,1.2-5.8-2-7.3c-1.5,11.8,0,24.2-0.1,36.1
	c-6.3,15-19.4,28.1-33.9,35.5c0.3-11.3,3.2-22.4-0.3-33.6c0-0.1-0.7-0.2-1.1-0.1s-0.9,0.7-0.9,1c-0.7,6.1-4.5,10.1-9.2,13.4
	c-0.3,0.2-0.5,0.4-0.7,0.7c5-11,13.2-25.1,7.9-36.8c-0.6,0.4-1.5,0.8-1.5,1.2c-0.6,5.1-5.1,7.7-8.3,10.9c8.2-16.2,6.2-35,6.2-52.9
	c-1.2-3.1-1.7-5.9,2.6-5.9c8.5-0.6,16.9-1.5,25.3-2.1c3.1,1.6-1.8,5.1-0.1,7.6c6.6-3.8,6.3-13.4,8.5-20.1c2.2-9.5-0.2-19.1-5.4-27.3
	c-1.8-3.9-5-2.8-8-2.6c-3.6-0.6-23.8,3.1-23.5-0.5c2.8-25.6,16-48.1,33.9-66c1-1,3.6-0.5,4.6-1.5c5.2-11.7,10.1-8.7,17.7-15.2
	c-8.3-2.1-14.2,5.1-21.8,5.4c36.7-27.7,76.6-30.3,119.5-19c-1.9-7.8-8.4-12.2-14.1-16.8c14.6,4.2,26.2,18.7,32.8,31.9
	c3.5,4.3,9.3-20.6,14-21.8c-2.5,8.7-7.4,18.9-4,27.8c8.6-10.1,15.5-21.9,27.6-28.4c3.3-1.6,6.5-4.8,10.3-4.4
	c-5.9,5.8-14.7,8.2-19.9,15.1c6.9-1.5,12.5-6.5,19.1-8.8c4.4-0.9,13.6-3.6,17.6-1.7c-9.7,1.2-20.4,3.4-27.1,10.8
	c9.7,1.5,20.9-2.6,30.3,0.1c-9.1,2.9-4.5,10.6,3.3,11c4.2,1.2,4,1.2,2.6,5.3c-1.6,4.2,1.6,9.9,6.5,7.3c3.3-0.5,6.1-7.4,8.4-2.8
	c3.6,8.4,14.7,8.1,11.7-2.6c2-3.4,7.8,1.1,4.6-8.1c29.4,15.9,49,51.2,48.6,84.5c-5-3-3.4-4.9-2.9-9.9c0.7-8.4-7.5-6.2-10.6-1.1
	c-3-11.7-12.2-9.5-12.2,1.9c-4-1.5-9.3-3.7-11.9,1c-3.5,5.1,3,8.6,6.3,11.4c-2.1,1.7-5.4,2.7-7,4.9c-3.8,5.9,2.1,8.9,7.5,8.9
	c2.5,2.2,0.7,6.4,1.8,9.2c1.7,5.7,8.5,1.2,11.7-1.8c4.2,13.8,15.5,9.3,12.2-3.8c-0.3-1.6-1-2.7,1.6-2.7c3.8,0.1,4.1-4.8,2.5-7.6
	c-1.5-2.7-0.4-4.9,1.9-6.4c2.2,13.3-1.8,27.6-0.4,41.3c0.2,8.4,3.2,16.7,3.5,25.1c-5.3-3.8-4.6-10.4-6.8-15.8
	c-3.3,1.2-1.7,5.9-1.2,8.3c1.2,9.4-3.2,18.5-4,28c-1.5,9.3-4.5,18.2-7.2,27.3c-1,3-1.8,6.1-2.7,9.1c-2.4,11.1-9.1,23.5-6.1,34.9
	c5.4-6.2,2.4-18.5,7-25.1c1.7,23.6,9.4,44.9,28.2,60c-5.7-0.4-10.5-4.2-15.5-6.7c-1-0.4-2.3-1-2.4,1.4c0.2,5.8-0.1,11.7-0.7,17.5
	c-0.9,5.7-2.2,11.4-4,16.9c-1.2-11.3-0.6-24.3-7.3-34.2c-2.1,3-0.2,6.1-0.3,9.2c-4.5,22.2-6.9,47.4-22.1,65.1
	c0.1-3.7,2.2-7.4-0.6-10.9c-0.3-0.9-0.5-1.8-0.4-2.7c-0.4-6.2,1.2-12.8-1-18.6c-3.7,5.6-1.3,13.1-3.6,19.3c-5.7,16-12.3,32-23,45.2
	c1-9.6,3.4-19.1,0.4-28.9c-0.6-4.8-3.7-15.5-9.1-8c-4.6,5.5-5.2,12-5.4,18.8c-2.6-3.6-4.6-8.1-3.4-12.8c-0.1-0.3-0.3-0.5-0.5-0.7
	c-0.5,0.2-1.2,0.4-1.5,0.8c-4.8,8.5-8.3,17.1-7.2,27.1c0,1.7-0.2,2.4-2.4,2.5c-6.7,0.4-13.7,7.4-13.3,14.1c0.2,4.8,0.3,9.4,4,13
	c-10,5.9-15.6,17.7-6.6,28.6c1.5,1.5,2.3,2.4,0.1,4.2c-11.2,9.5-4.8,24.5,7,29.7c-18.3,1.8-20.1,32.8-0.2,32.5
	c2.2-0.4,3.2,0.1,3.5,2.4c-0.8,0.2-1.6,0.2-2.4,0.2c-15.1-6.8-28.3,9.3-21.2,23.2c2.3,3.9-4.8,1.3-6.7,1.8c5.8-8.4,5.8-20.5-6-25.7
	c-1.1-0.4-1.2-0.8-0.4-1.9c9.1-11.1,2.7-24.5-9.9-28.5c7.2-5.5,8.5-15.7,3-22.9c-1.9-2.5-4.5-4.4-7.5-5.4c-2-1.1-1.2-2.3-0.5-3.1
	c6.7-8.9-0.1-22.1-10.1-24.5c-1.9-0.7-2.1-1.3-1.3-3c4.2-8.6-0.2-17.5-8.7-20.8c-3-1.7-7.5,0.1-7.8-4.4c-1.7-7.9-9.2-13.2-17.2-12.1
	c-1.5,0.4-2.9,1.3-3.7,2.6C374.6,489.9,368.3,494.1,362.1,493.8L362.1,493.8z M581,201.9c-2,1-7.3-0.7-7,2.4
	c0.7,3.7,2.7,7.9,1.1,11.5c-4.4,2.6-5.7-4.8-8.2-7.1c-3.8-0.7-5.5,5.5-8.8,4c-1.5-1.8-1-7.6,0.6-9.8c1.3-2,0.1-1.6-1-1.7
	c-17.2-0.4-11-3.1-0.4-9.2c-1.7-2.1-3.7-3.9-5.9-5.5c-5.1-3.8-2.6-7.6,3.6-5.4c12.3,6.4,5.3,1.5,6.9-7.7c5.4-1.1,4.7,6.8,8,9.6
	c2.9-1.8,3.4-7.8,7.5-7.4c1.8,2.6-1,6.9-1.9,9.5c-2.3,4.6,4.6,3.5,7,4.6C574,197,577,192.8,581,201.9z M128.4,719.7
	c6,1.8,6.8,7.2,9.4,11.2c8.4,13,12.3,15.1,1.7,29.5c-6.3,5.7-6.4-8.1-11.7-9.7C111.4,745.9,109.8,721.8,128.4,719.7z M133.4,767.5
	c0.1-0.8,0.3-1.6,0.6-2.3c3.6,1.1,5.4,4.8,7.8,7.5c5.5,7-6.4,15.2-12.6,17.5c-0.3,0.1-0.5,0.3-0.6,0.6
	C130.4,783,134.2,775.8,133.4,767.5z M112.1,754.9c20.8-11.2,20,15.9,15,28.7c-8.4,8.7-20.5,1.6-26-6.7
	C94.7,769.9,105.5,757.5,112.1,754.9L112.1,754.9z M138.3,855.4c-13,1.8-17-23.5-7.3-24C150.1,828.4,155.8,849.6,138.3,855.4
	L138.3,855.4z M150.8,838.6c-3.4-8.5-12.6-13.4-22-10c2-5.3,6.4-9.7,9.5-14.5c4.1-7,12.2-9.8,16.9-15.9c-6.9-0.1-11.8,7.4-18.6,9.1
	c-4.5,2-8.9,3.8-13.5,5.7c-5.5,2.1-12.7,7.5-17.2,1.1c-8.6-9-8.1-22-9.4-33.6c0.2-1.4,0.7-2.8,1.4-4c4.2,10.3,15.8,17.2,26.7,13
	c0.3-0.1,0.5-0.3,0.7-0.6c-2.2,5.1-5.2,9.8-6.7,15.3c5.7-2.3,5.9-9.8,11.6-11.5c8.3-2.6,21.4-12.9,14.2-22
	c-4.4-5.6-6.4-5.3-0.3-11.1c6.2-7.1,2.9-15.8,6.7-14.7c15.1-1.2,19.9,12.7,27.6,22.8c19.9,8.3,68.5-51.2,84.4-64.7
	c2.6-3.7,5.4-7.7,10.5-6.5c-2.4,2.5-10.3,7.4-2.7,9c6.2,0.6,10.8-3.4,16.5-4.3c-0.5,0.8-1,1.5-1.4,2.3l-1.8,2.9
	c1.2,0.2,2.4,0.4,3.5,0.4c0.5,0,1.1-0.1,1.5-0.3c-0.5,2.9-4.3,3.4-6,5.6c-3.8,6.8,9.8-0.5,12.4,0.6c-34.6,23.5-71,44.4-103.6,70.7
	C165.4,803.4,163,809.6,150.8,838.6L150.8,838.6z M309.8,713.4c3.8-3.4,7.8-6.9,9.2-12.3c0-0.4,0.7-0.6,1.2-0.9
	c1.8,2.9,5.6,13.9,8.2,5.9c0.2-2.1-0.3-4.5,0.6-6.6c13.6,19.6,8.1-3.5,9.2-13.1c-1.1-2.3,0-4.1,1.2-6.2c3,3.4,4,7.9,6.4,11.6
	c9,7.9,4.2-22,5.4-26.2c2,1.8,3.4,4.2,5.4,5.9c4.5,2.3,7.6,0.3,5.6-5.1c-6.5-18.4,6.1-36.7,15.9-51.4c7.6,47.6,0.9,46.6-26.2,82.4
	c-6.5,8.9-13.1,17.7-18.8,27.1c-1.8,2.7-5.4,1.8-7.7,3.9c0.9,0.1,1.7,0.3,2.5,0.3s2-1.2,2.2,0.2c-1.2,3.6-2.1,7.3-3.8,10.7
	c-4.4,3.7-11.4,4.8-16.9,1c-7.1-4.9-15.6-7.4-24.5-5.9c-10.5,2.6-21.5,8.1-25.5,18.8c-0.4,0.9-2,1.4-3.1,1.6
	c-9.2,1.5-18.4,4.6-27.3,5.5c22.7-17,48.7-32.2,72.1-48.1c0.4,2.9-2.4,4.2-2.7,6.9C302.6,719.7,306.3,715.8,309.8,713.4L309.8,713.4
	z M290.9,815.9c6.1-4.5,12.3-8.9,18.4-13.3c3.9-2.1,7.5,5.9,11.4,6.7c-0.2-3.7-9.2-7.8-3.7-10.5c8.2-4,16.7-7.1,25.6-9.2
	c1.8-0.4,3.3-0.1,4.8,2.1c17,24.8,43.9,42.6,74,46.4c1,0.4,3,0.5,3,1.9h-1.2c-42.7,0.2-85.2-5.9-126.1-18.3
	C294.6,820.9,286.7,819.5,290.9,815.9z M276.8,805.3c-12.6-16-24.1-39.3-10.1-57.8c3.2-4.4,3.7-4.2,6.6,0.5
	c9.7,15.7,20.1,30.8,31.3,45.5c0.9,2,5.1,4,3.5,6.4C281.3,813.8,292.9,822.9,276.8,805.3z M342.1,786.8c-8.9,2.2-17.8,4.5-25.9,8.9
	c-3.4,1.6-4.3,1.3-6.4-1.8c-10.8-14-21.3-28.2-30.6-43.1c-1-3.6-8.3-9.3-1.5-10.5c0.3-0.1,0.5-0.4,0.7-0.7
	c30.7-9.2,51.1,22.5,64.7,44.6C344.2,785.8,343.6,786.5,342.1,786.8L342.1,786.8z M200.4,850.7c-3.8,0-7.2-2.2-10.7-3.4
	c-1.1-0.2-2-0.7-2.9-1.4c-2.5-0.2-5.2-1.2-7.4-1.2c-0.7,0.3-1.4,0.4-2.2,0.4c0.1,0.1,0.1,0.1,0.1,0.2c-2.4-0.2-7.7-1.8-8.8-4.3
	c-2.8-1.8-5.4-3.7-8-5.8c0,0-3.8,2.2-0.2,3.5c-0.4,1.6-2.5,0.6-3.5,0.1c-1.7-3.6,6.1-17.1,7.8-21.5c12.5-22,35.4-35.4,55.3-49.9
	c11.3-5.4,24.5-5.5,36.6-8.3c0.3-0.1,0.6-0.3,0.7-0.6c-2.9,21.8,9.2,43,24.8,57.3c-11.2-1.4-20.1-13.9-30.1-19
	c-11.9-7.7-26.2-19.6-41.2-15c0.8,0.8,1.5,2.3,2.4,2.4c15.9,0,30,8.7,38.3,22.1c-1.8-0.4-25.8-7.4-20.7-1.3
	c5.5,4.1,11.7,7.2,16.5,12.1c-6.6-0.8-12.5-5.1-19.4-4.9c-4-0.2-8.2-1.8-11.5,1c5.1,5.2,14.1,3,19.4,7.6c-4.8,3.1-11.2-2.7-15.5,1.3
	c0.9,0.8,1.8,2.2,2.9,2.2c9.4,0.1,16.5,6.5,25,9.2c0.7,0.3,1.2,1.1,1.8,1.6c-12.8-2.9-25.4-6.2-38.6-5.5c-2.4-0.1-2.7,1.8-1.6,3.2
	c4.5,6.5,13.4,4.6,19.5,8.2c-7.9,2.2-16.9-3.8-25.1-1.8c5.4,4.8,12.6,7,18.6,10.8C217.5,852.2,184.7,837.6,200.4,850.7z
	 M468.1,858.5c-43.4,2.6-86.6-3-129.9-3.2c-27.7-0.6-55.3-1-83-2c-13.1-0.4-27.3-1.7-38.3-8.8c1.8-1.8,4.5,0.1,6.8-0.2
	c6.4-0.7,14.7,2.1,20.1-1.8c-0.6-0.4-1.4-1.3-2.1-1.3c-5.7,0.2-10.6-2.8-15.8-4.1c-4.1-1.5-9.6-1.3-12.5-5c16.2,0,33,6.9,49.1,8.8
	c-6.7-8.6-18.4-11.1-27.1-16.9c4-1.6,7.6,1.2,11.6,1.2c-4-4.4-10.9-5.1-15.4-9.1c8.6,0.7,16.8,5.4,24.6,8.9
	c4.2-1.6-13.5-16.3-16.5-16.9c-0.7-0.4-1.2-1.3-1.8-2c6.8,0.1,12.5,5.2,19.1,6.6c-0.1-5.1-5.8-7.8-6.3-12.3
	c4.3,1.5,7.7,5.6,11.4,8.5c15.8,13.3,37.2,15.9,56.1,22.2c38.4,10,77.8,12.3,117.3,12c41.9,0.7,75.1-26.9,105.1-52.8
	c8.4-9,12.6,0.4,19.7,5.9c4.7,4.5-6.2,7.3-5.9,12.2c2.9,0.2,4.6-2.9,6.7-4.5c2.4-2.2,3.8-2.2,5.3,0.5c3.5,6.5,6.9,13.1,10.1,19.7
	c1.1,2.3-0.3,3.7-2.6,4.5c-9.5,3.5-18.9,7.4-28.4,10.7C520.2,847,494.9,857.6,468.1,858.5L468.1,858.5z M631.4,760.9
	c-23.5,6.4-43.1,21-63.4,33.7c-5.3,4.9-8.4-8.8-18.5-10.4c-0.1,0,0-0.7,0-1c20.8-13.7,48.8-35.8,74.7-28.1
	C625.8,756.2,634.1,758.7,631.4,760.9z M636.9,767.1c5.6,18.4-12.4,31.7-25,41.6c-43.7,22.4-22.7,22.7-43-6.7
	c-3.8-7.6,41-27.4,48.4-32C621.8,769,635,759.8,636.9,767.1L636.9,767.1z M536.5,860c-9.8-0.6-19.7-0.3-29.3-1.4
	c-4.5-0.2-8.2,0.5-11.9-0.2c13-5.2,27.9-7.8,41.4-12.5c8.1-1.3,19.5-10,27-5.3c-1.4,2.5-23.7,3.8-17.2,8.3
	c11.2,4.1,23.2,3.6,34.9,2.6c0.6,0,1.1,0.7,1.7,1c-13.8,4.8-29.6,2-43.9,4c0.6,0.7,1.2,1.4,1.9,2c0.6,0.4,1.2,0.8,1.9,1.1
	C540.8,860.8,538.7,860.3,536.5,860z M707.8,822c-5.4,4-9.8,10.6-16.4,12c-3,2.7-6.3,8-9.4,2.6c-1.1,1.5-0.7,4.2-1.8,5.1
	c-3.4,2.5-5.3,1.9-5.7-2.4c-0.4-2.3-1.9-1.9-2.9-2.7c-2.4,6.2,5.1,8.1-3.4,10.3c-29.1,9.8-60,13.3-90.7,13.1
	c-9.5,0.2-19.3,2.4-28.6-0.6c13.7-2.7,35.6,0.9,45.9-10.3c-4.1-1.8-7.1,2-11.7-0.2c-10.4-0.9-21.5,0.8-31.5-1.7
	c7.5-2.5,17.1-2.8,22.5-9.1c-3.2-1-6.2,0.4-9.3,0.9c-6.1-2.5,5.3-4.7,7.3-5.9c6.2-2.6,12.4-5.1,18.3-8.2
	c16.6-8.7,33.8-17.7,44.8-33.5c6.2-6.8,15.7-9.8,24-13.1c0.4-0.2,0.6-1,0.9-1.5c-6.1-2.6-15,4.5-20.5,6.6
	c7.5-22.5-8.6-32.6-27.4-32.6c-2.8,0-5.7,0.2-8.5,0.7c-37.8,7.8-65.7,37.8-95.5,60.2c-22.8,18.2-53.7,32.4-83.1,24.3
	c-18.8-4.8-37.6-10.3-52.8-23.1c-23.5-17.7-31.7-47.5-53.4-67c3.5-1.8,9.5-1.1,11-5.5c3.1-10.9,9.8-19.8,16.2-28.8
	c11.1-15.7,23.8-30.4,34.1-46.6c7.8-15,3.5-32.9,1.6-48.8c-5.3-5.7,6.6-7.7,3.8-13.5c-10.4,7.3-17,19.5-22.7,30.7
	c-6,10.9-7.2,23-4.7,35c-4.6-3.1-4.2-8.8-5.1-13.7c-7.9,10.1-4.8,22.5-5.4,34.5c-4.1-5.3-4.8-12.2-7.2-18.1
	c-8.5,8.2-4.3,21.1-5.9,31.2c-2.3-3.2-4.8-6.5-4.8-10.7c0-0.7-1-1.5-1.5-2.3c-3.7,3.8-0.7,9.9-3.2,14.2c-3.7-4.4-0.6-11-3.8-15.2
	c-3.4,3.4-0.8,8.6-4.6,11.7c-4.8,3.7-6.8,11-12.4,13.9c-0.3-3.7,4.3-5.9,2.8-10c-5.8,1.8-11.2,6.9-17.2,6.7
	c2.9-4.2,10.1-6.5,10-11.9c-3.8,1.5-6.8,4.9-10.8,6c1-5.9,9-7.4,10.9-13c-1.2,0.3-2.8,0.1-3.7,0.9c-7.5,5.2-16.1,8.6-25.2,9.7
	c2.1-3.4,13.5-7.5,11.7-11.5c0-0.2-0.8-0.2-1,0.1c-2.3,2.3-5.3,2.7-8.4,2.6c-3.2-0.4-6.8,0.9-9.5-1.1c7-3.1,15.2-2.1,21.3-7.7
	c-6.3-2.8-13.6,2.6-19.9,0.2c6.5-2.8,15.2-3.4,19.3-9.8c-2.1-1.1-4.3,0.8-6.5-0.1c3.6-3.3,8.8-4,11.6-8.4c-4-0.4-8.4,1.6-12.2,0.6
	c5.1-4,13.1-3.6,17.4-9c-3.7-1.1-7.4,1.4-10.8,0.7c7.4-3.5,14.5-7.8,20.3-13.9c0.7-0.7,0.9-2,1.3-3.1c-5.1,1.7-7.8,5.9-13.9,4.2
	c31.9-16.3,49.3-51.2,59.5-84.3c6.1-16.6,7.5-36.1,20.5-49c3.3-2.9,8.1,1,7.8,4.5c-0.1,8.1,5.9,13.7,13.7,15.3
	c4.5,3.6-4.8,13.6,11.1,21.7c1.8,0.9,2.5,1,0.8,2.9c-8,9.2-2.3,21.5,7.9,25.4c0.4,0.3,2.8,0,0.4,1.9c-11.2,8.1-8.1,25.4,5.5,30
	c0.6,0.5,0.9,1.3,0.9,2c-6.4,9.8,1,22.3,10.8,24c4.4,1.4,8.5-0.8,7.8,5.4c0.1,6.3,0.3,12.5,0.6,18.8c0.1,3.3,2.9,5.4,7.3,5.4
	c2.4-0.1,2.9,0.4,2,2.8c-0.5,1.7-0.4,3.5,0.4,5.1c6.5,13.2-4.9,32.4-8.8,45c4.2-0.4,7.1-3.5,9.8-6.4c-0.1,6-4.8,12-8.6,16.7
	c4.9,0.4,12.2-3.6,14.1-8.6c0.1-0.5,1.2-0.6,1.8-0.9c0.1,0.7,0.2,1.3,0.2,2c-0.4,1.4-1,2.7-1.4,4c4.1,3.2,6.5-6.5,8.9-8.5
	c1.9,3.3-0.1,7.8,3.5,10.1c6.2-13.8-1.5-34.6-5.9-48.7c-0.7-3.9,0.7-8.1-0.2-11.9c-0.7-3.5,4.1-0.8,5.6-2.2c1.5-1,3.4-1.6,3.2-4.5
	c0.4-3.7-3.1-23.8,1.5-23.2c2.4-0.9,5.2-1.3,7.2-2.9s2,0.2,2.1,0.9c2.7,36.7,34.5,63.1,39.7,98.9c0.2,22.3-3.4,47.1-20,63.5
	c-2.4,2.9-6.4,4.8-6.5,8.8c5.5,0.3,10.1-8.4,13.9-12.1c13.4-16.5,15.8-38.3,16.9-58.6c0.1-1.1-0.1-1.6,1.5-1
	c7.7,2.3,15.3,4.8,23.2,6.6c9.9,2.3,20.5,1.8,30.3,3.9c-1.1,1.8-3.5,2.3-5.2,3.7c0.9,1.6,4.2-0.2,5.1-0.9c4.2-4.5,19.9-3,31.7-2.3
	c3.5,0.3,7,0.3,10.5,0.1c8.3-3.6,27,16.3,35.5,20.8c14.8,9,25.1,23.3,40,31.9C702.9,805.3,710.1,816.4,707.8,822z M732.8,829
	c0.4,7.3,3.2,14.7,0.2,22c-2.9,8.3-10.6,6.8-12.7,0.3c-1.3-4.4-1.5-9.2-2.7-13.7c1.2-4.8,8.7-2.6,13.5-9
	C732.2,827.3,732.8,828.1,732.8,829L732.8,829z M733.8,809.2c-6.9-0.5-7.9-8.3-13.5-11.3c3.4,8,8.3,15.4,10.4,23.9
	c0.7,6.2-7.8,6.8-11.7,9.8c-2.5,1.2-3.1-0.7-3.5-2.2c-2.3-8.9-4.9-17.7-10.3-25.5c-3.2-4.5-7.9-6.9-12.3-10
	c-12.8-10-23.8-21.8-37.8-30.4c-31-22.7-61.7-46.2-94-66.8c4.5-3.7,22,8.1,17.7-3.6c4.4,2,7.1,12.3,12.8,10
	c4.1-4-9.2-18.8-11.6-23.6c-0.5-0.8-0.9-1.6-1.2-2.5c27.6,23.7,50.4,53.5,80.2,75.4c5.6,2.7,25.1,21.8,29.1,14.2
	c5.6-7.1,9.2-21.3,20.8-17.6c4.3,1.3,8.7,2.4,13.3,1c1.4-0.4,2.7-0.2,3.1,2.1c8.1,17.2-3.5,5-3.5,22.1c-0.2,6.4,3.2,12.7,9.6,13.8
	c3.6-0.4,3.5,2,4.1,4.4c1.5,3.2,1.6,8.1,4.8,9.9c1.1-5.8-3.2-11.8-2.1-17.8c7.3,7.8,19.5,8.1,27.6,1.2
	C764.9,802.6,750.9,815.2,733.8,809.2L733.8,809.2z M757.6,786.4c-6.5,2.4-12.6,0.7-17.7-4.1c-1.9-6.3-0.9-17.4,7-17.6
	c5.2,0.1,10-7.5,14.9-3.2c3.9,2.9,5,7.8,5.6,12.2C767.4,783.1,767.9,782.6,757.6,786.4L757.6,786.4z M711.6,777.3
	c-7.1-7.2-15.2-8.1-20.5-2.3c15.1-2.8,15.2,3.6,25,12.2c0-0.7,0.4-1.5,0.1-2C714.9,782.6,713.3,780.1,711.6,777.3z M692.1,185.6
	c2-1,2.6,0,3.5,1.3c2.7,3.5,4.5,3.1,6.9-0.6c1.3-7.9-8.4-11.7-13.8-6.3c-1.6,0.8-2.2,2.8-1.3,4.4c0.8,1.6,2.8,2.2,4.4,1.3
	C691.9,185.7,692,185.6,692.1,185.6z M699,180.6c0.1,0,0.4,0.2,0.5,0.3c0.2,1.2,0.7,1.8,0.6,2.3c-0.2,1.3-0.5,2.6-0.9,3.8
	c-0.6-0.5-1.5-1-1.5-1.5C697.9,184,696.3,181.7,699,180.6L699,180.6z M696.9,180.4c-0.5,0.5-1.1,1-1.6,1.5c-1.2,0.4-2.5,0.8-3.7,1.3
	c-0.6,0-1.3-0.1-1.8-0.3C690.9,180.4,694.3,179.6,696.9,180.4z M630.9,266.6c18-7.2,41.6,1,49,19.5c0.9,1.9-0.7,2.2-1.6,2.5
	c-14.3,4-55.3,1.4-48.1-21.1c-5.3,1.8-4.5,9.5-0.7,13.6c12.8,13.8,32.1,11.8,49,10.1c6.2-1.5,1.6,20.6,1.5,24.6
	c-1.1,5.7-7.2-0.9-10,8c2.9,5.6,8.1-1.8,11.3-3.1c3.4-0.3,8.2,4.5,8.6,8.1c0.7,19.7-22.3,33.9-39.9,35.3c-4.6-1-11.4-7.6-15.1-1.3
	c3,0.6,7.7-1,10.2,1.1c1.2,1.1,2.3,2.3,4,2.8c5.3,0.7,6.8,6.5,10.8,9.2c0.5-3.1-1.9-6.2-4.8-7.6c-0.4-0.1-1.1-1-1-1.2
	c15.2-5.4,33.1-13,37.8-31c3.2-18-12.4-15.5-9.3-19.2c3-7.9,0.4-17.2,0.7-25.4c0-1,0-1.5,1.5-2c8.3-3.1,13.7-9.4,15.2-18
	c2.9-16.1-11.1-37.5-23.2-47.4c2.3,5.6,7.5,9.8,10.5,15c10.6,13.5,17.6,39.1-2.9,47.3c-3.4,2.2-1.9-8.1-14.1-16.2
	C660.1,262.8,640.7,256.1,630.9,266.6z M676.8,322.7c-1.3,1.6-4,0.4-6,0.7c0.1-0.2,0-0.5,0.1-0.8c0.8-2.1,2.6-1.7,4.3-1.8
	C677.8,320.7,677.8,321.5,676.8,322.7z M654.4,223.4c-4.5,8.8,10.6,12.2,14.9,2.6c0.9-5.1-2.9-6.8-6.2-3.3c-1.5,1.5-2.7,1.2-4.4,0.7
	C657.3,223,654.9,222.7,654.4,223.4z M667.1,223.8c-0.8,1.5-1.7,2.9-2.6,4.3c-0.7,0.4-1.5,0.8-2.3,1
	C661.9,227.6,666,223.2,667.1,223.8z M657.8,228.4c-0.6-0.9-1.1-1.9-1.5-2.9c0.5,0.1,1.2,0,1.5,0.4c0.9,0.9,1.6,1.8,2.3,2.8
	L657.8,228.4z M640.9,383.1c-1.2,1.8-3.5,2.6-5.6,1.8c-7.3-1-7.2,7.6,3.2,8.8c3.2-0.5,6.2-2.3,8.1-4.9
	C650.5,383.6,645,377.4,640.9,383.1z M637.4,391c-0.4-0.3-1-0.1-1.2-0.3c-1.1-0.9-2.2-1.9-3.2-2.9c0.5-0.2,1.1-0.3,1.7-0.3
	c2-0.1,3.1,0.7,2.7,2.9c0.1,0.3,0.3,0.5,0.6,0.7C637.8,391.1,637.6,391.1,637.4,391z M640.4,390.7c-0.2-0.7-0.6-1.5-0.3-2
	c0.9-1.5,2.1-2.7,3.2-4.2C648.2,380.6,642.7,391.2,640.4,390.7L640.4,390.7z M639.2,57.7c2.4-2.9,8.7-5.3,6.3-9.5
	c-1.2-1.8-3.4-0.8-5.2-0.8c-2.1,0.4-5-1.4-6.7-1.3C627.9,50.8,631.2,58.9,639.2,57.7z M639.1,51.3c1.3-0.5,2.6-0.8,4-1.1
	c-0.8,1-1.3,2.3-2.3,3.2c-1.3,0.8-2.7,1.5-4.2,2C637.4,54.1,638.3,52.7,639.1,51.3z M635.3,48.9c0.1,0.3,0.1,0.5,0.2,0.8
	c0.2,2-0.4,2.6-1,4.2c-0.3-1-0.9-2-0.8-2.8S634.7,49.7,635.3,48.9z M633.1,256.5c5.3,3.5,7.9-3.1,4.9-7.2c-3.3-4.4-9.8-7.1-12.4-2.1
	c-1.2,3.7-5.9,9.5-1.6,12.8C630,264.3,628.7,251.8,633.1,256.5z M627.7,255.9c-0.5,0.9-1.3,1.7-2.2,2.3c-0.7-3.2-0.2-6.8,2.3-9.1
	c0.4,0.9,1.2,2,1.2,2.9C628.7,253.4,628.3,254.7,627.7,255.9z M635.3,254.4c-1.9-2.2-3.8-4.6-5.6-6.9
	C632.4,246.3,640.1,254.8,635.3,254.4z M576.2,23.5c2.5-4-1.8-8-5.9-5.5c-1.8,1-3.1,0.7-4-1.4c-1.5-3.2-4-0.3-4.9,2
	C559.4,27.5,571.3,31,576.2,23.5z M574.7,20.7c-0.7,1-1.5,1.9-2.3,2.9c-1,0.4-1.3,1.1-1.7,1.1c-1.6,0.1-3.2,0.1-4.9,0.1
	C567.9,22.1,571.3,20.5,574.7,20.7z M563.7,20.1c0.5-0.3,1-0.7,1.5-1.1c0,1-0.1,2-0.2,2.9C562.5,22.8,564.4,20.8,563.7,20.1z
	 M564.7,187.8c-9.8,1.7-6.1,16.7,3.5,13.6C577.1,198.3,574.6,186.7,564.7,187.8z M565.8,198.5c-6.4,0.3-5.1-9.3,2.4-7.2
	C573.8,193.6,569.7,198.4,565.8,198.5L565.8,198.5z M546.8,647.7c0.2,5.1,10.3,12.2,13.8,16.6c0.8,0.7,2.7,0.2,4.1,0.3
	c-0.5-1-1.1-1.9-1.8-3l-10.6-10C550.6,650.2,549.4,647.6,546.8,647.7z M550.2,673.1c1.7,3.3,2.5,6.5,5.6,8.3
	C558.2,675.1,541.5,649.5,550.2,673.1z M556,645.7c-6-6.1-12.1-12.1-19.4-16.3C536.4,634.5,551,647.6,556,645.7z M545.2,16
	c2.2-1.6,4.6-2.8,6.4-4.5c4.7-4.8-3.1-8.4-7-5.6c-4.4,2.9-2.6-4.6-6.4-5.4C529.9,0,532.6,19,545.2,16z M540.2,13.2
	c0.4-0.3,0.7-0.6,1-1c13.5-11.8,8.8,2.8-1.4,1.7C540,13.7,540.1,13.5,540.2,13.2L540.2,13.2z M538,3c1.7,2.8,2,6.3,0.6,9.3
	C536.8,11.1,535.1,3.7,538,3z M536.1,657.2c-0.2,0.8-0.7,1.8-0.3,2.4c2.6,4.6,5.3,9.2,7.9,14.1c0.7,1.6,2.3,1.7,3.6,2.6
	C548.2,673.5,538.8,657.3,536.1,657.2z M544.4,654.2c-1.3-2.8-2.8-5.5-4.4-8.3c-3.4-4.8-4.8-10.8-10.1-13.5
	c-0.7,5.3,10.8,19.3,14.4,24.3C544.6,655.8,544.6,655,544.4,654.2z M543.5,629.8c-0.2-1,0-2.2-0.5-2.8c-4.1-4-6.8-10.8-12.8-11.9
	C532.8,621.5,538.8,625,543.5,629.8z M539.5,289.6c2.4,3.1,5.3,5.8,8.6,7.9c-0.5-6.5-7.2-10.5-9.9-16.2
	c-7.3-10.9-12.5-23.2-19.1-34.1c-2.3,6.1,5.4,15.4,7.4,21.9C530.6,275.8,534.4,283.4,539.5,289.6z M534.7,671
	c-0.9-5.5-1.6-10.8-2.6-16.1c-0.2-0.9-1.5-1.7-2.3-2.5c-1.8,5.8-0.7,15.6,3.9,20C534,672,534.4,671.5,534.7,671z M537.2,291.6
	c-4-6.1-10.4-10.7-15-16.5c-11-11.4-14.8-27-23.8-39.4c-0.7,10.3,15.3,37.9,28.7,50C530.9,289.1,534.4,291.3,537.2,291.6z
	 M521.1,644c-7.3-4,1.4,18.8,3.2,21.1C526.3,658.5,522.1,651.1,521.1,644z M516.1,104.2c7.1,3.1,11.2-11.4,2.3-12.8
	C511.8,92.5,511,101.3,516.1,104.2z M518.4,94c0.7,1.2,2.1,2.5,1.9,3.4c-0.3,1.5-1.7,2.9-2.6,4.3c-0.6-1.2-1.2-2.3-1.8-3.5
	C516.6,96.8,517.4,95.3,518.4,94z M421.6,282.7c0.1-3,2-6.9-1-9c-4.2,15.8-6.1,32.6-11.1,48.5c-3.1,9-8,17.6-11.5,26.5
	c-1.9,4-5,7.5-7.2,11.4c-1.4,2.3-2.3,4.8-2.6,7.5c3.7-4.9,7.3-9.7,10.8-14.6c1-1.5,1.5-1.8,3-0.3c8.4,8.7,18.3,15.4,29,20.9
	c1.7,0.9,4.2,1.6,3,5c-1.9,6.3-3.1,13-4.5,19.4c3,10.9,10.8-8.4,12.5-11.6c0.7,4.8-3.4,14.8,3.5,16c0.7-0.2,1.1-0.8,1.2-1.5
	c-0.4-1.2-2.4-2.5-2.5-4c0.7-5.4-1.9-12.1,1.7-16.5c4.2,2.9-2.1,18.1,2.5,18.8c0.4,0.1,0.9,0.8,1,1.2c0.3,5.4,3,9.8,5.9,14
	c3.3,3.6,5.9,10.1,11.7,8.9c0.6-3.9-1.6-7-3.2-10.4c4.8,3.8,9.3,13.6,16.7,10.3c1.8-3.1-3-5.9-3.1-9c3.1,1.3,5.2,4.3,8.1,5.7
	c2.9,1.2,6.6,0,5-3.8c-2.7-4.3-8.6-7-10.7-11.5c4.7,1.5,7.9,7.5,13.7,6.8c9.5-1.9-8.7-14.3-11.1-18c4.2,2.7,19.5,10.5,13.9,0.8
	c-16.7-10.4-21-21.3-0.6-2.4c2.2-5.2-6.2-7-8.8-10.4c-4.4-4.9,15.1-13,12.1-30.9c-0.3-3.1,2.3-7.8,5.4-8.2c6.1-1.6,18.1-7.5,13.1-15
	c-7-8.6-8.3-13-1-22.1c5.9-5.9,4.2-13-0.7-17.2c-4.2-3.6-10-4.8-15.3-3.1c-4.1,2.7-7.5-2.6-11.2-4c-23.8-13.2-24.5-45.7-31.5-69.4
	c-1.8-11.7,1-25.3-5.2-35.8c1,20.3,2.9,41.5-2.7,61.7c-7.3,29-19.4,57.7-36.4,82.1C417.2,307.5,419.9,295.2,421.6,282.7z
	 M434.8,396.5c-5.8,7.3,1.6-18.7,3.6-19.4C442.6,381.6,436,391,434.8,396.5z M464.5,421c-7.1-4.2-10.2-13.6-12.5-21.1
	c0.1-2.5-5-20,0.6-16.6c5.1,5.5-0.9,11.9,5.1,23.2C459.6,411.5,464.2,415.6,464.5,421z M478.2,420.9c-7.6-0.8-10.3-10.3-14.7-15.8
	c-2.6-6.2-6.8-13.5-3.1-19.7c1,0.8,3,1.5,3,2.4C463.6,400.9,471.5,410.8,478.2,420.9L478.2,420.9z M482,411.3c2,2.2,5.4,2.9,6.1,6.2
	c-0.9-0.1-2.1,0.2-2.8-0.3c-2.3-1.8-4.4-3.9-6.6-5.9c-6.4-5.9-14.3-16.9-11.1-25.1c1.5,0.4,2,2.5,2.4,3.7
	C471.4,398.6,476.3,405.2,482,411.3L482,411.3z M493.9,408.5c-1,0.1-1.9-0.1-2.9-0.4c-5.4-2.7-10.4-6.1-13.9-11.3
	c-1.5-4-6.2-7.4-4.5-11.4c3.9,1.6,4.2,6.8,7.2,9.3C484.2,399.7,489.9,403.4,493.9,408.5L493.9,408.5z M491.1,393.2
	c0.4,0.1,0.8,0.2,1.1,0.4c0.6,0.7,1.2,1.2,1.8,1.8c-4.4,1.2-7.5-3.2-11-5.2c-2.4-1.8-4.6-3.9-4.2-7.3c0.8,0.4,1.5,0.9,2.2,1.5
	C484.3,387.4,487.7,390.4,491.1,393.2L491.1,393.2z M489.8,346.7c-2.6-3.6-5-11.3-0.4-13.4c2.6,0,14.3-4.6,14.2-1
	C499.7,337.7,498.3,348.5,489.8,346.7L489.8,346.7z M504.9,338.2c1.8-2.4,0.9-6.2,4.2-7.6c2.3,0.3,3.9,0.7,5.4,1
	C511.8,333.9,508.8,338.8,504.9,338.2L504.9,338.2z M510.1,288.3c21,11.2-14.2,19.1,3.2,39.4c-12.4-0.5-24.9,0.9-36.9,4.2
	c-7.9,0.1-23.1,8.9-28.1,1.2c-6.7-9.9-13.9-23.2-8.6-35.2c7.5-16.3,23.7-8.6,34.8-1.4C487.3,304,497.1,283.4,510.1,288.3
	L510.1,288.3z M460,339.1c7-1.5,14-3,21-4.5c1.1-0.2,2.8-0.6,1.4,1.8c-1.7,2.9-2.8,6-4.2,9.1C470,351.2,454.7,341.4,460,339.1z
	 M477.8,358.1c-1.2,0.1-2.5,0.6-3.5,0.1c-10.8-5-24.1-6.8-33.4-13.9c3.4-4.1,9.8-4.4,14.6-3.5C466.1,359.7,478.7,342,477.8,358.1
	L477.8,358.1z M422.8,312.8c16.7-28.8,28.9-59.5,33.7-92.1c7,20.7,6.3,48.4,27.4,60.7c2.2,2.3,10,3.7,10,6.8
	c-7.8,5.3-14.4,8.7-23,2.3c-12.2-9.2-32.1-7.3-35.9,10c-1.6,12.8,3.2,27.9,13,36.4c-10,3.7-22.9-3.6-31.5-9.5
	C411.8,323.7,421.1,316.7,422.8,312.8L422.8,312.8z M415.7,330.8c15.6,14.8,34.9,25.2,55.9,30.1c8.2,2.1,20.4,5,21.6-6.2
	c0.4-1.8,0.4-3.6,2-4.8c3.5,8.7-4.8,20.2-11.4,25.7c-16.9,18-48.2-3.1-64.9-13.5c-3.6-3.7-20.4-12.2-15.7-17.7
	C407,340.6,408.5,323.7,415.7,330.8L415.7,330.8z M516.9,285.3c1,0.3,1.9,0.4,2.9,0.5c-9.8-7.3-17.9-16.6-23.8-27.3
	c-3.8-5.8-4.4-14.2-10-18.5C485.4,252,503,280.9,516.9,285.3z M504.7,314.6c3.4-4.9,5.9-10.5,8.4-15.8c1.1-2.1,0.5-4.7-1.4-6.1
	c-10.8-5.4-19.9,11-21,20.5C492.7,321.2,500.8,319.4,504.7,314.6z M367.7,9.7c14.7-7.7,39.9-13.2,49,4.8c0.6,1.5,0.4,2.4-1.3,2.6
	c-49.4,3.1-43.8,38.4-9,25.8c8.8-4.2,13.3-11.6,14.6-21.2c0.1-0.8,1.4-2,2.1-1.9c16.3,0.7,23.8,6.8,32.9,19.9
	c20.8,19.3,52-4.8,56.7-28.2c0.3-3.2,1.6-13.1-4.1-11c-3.8,1.4-6.6,7.2-1,8.1c4,0.5,2.7,2.8,2,4.8c-5.2,15.2-18.2,29.6-35,30.8
	c-22,1.2-18-23.4-44.7-26.4c-6.9-1.8-9.3,2.4-11.6-6.2c-16.4-25.4-68.7-4.5-74.7,20.4C350.6,23.4,357.5,14.8,367.7,9.7z M507.1,3.8
	c1.6-2.1,4.2,0.5,3.6,2.7C508.7,7.4,506.3,6.3,507.1,3.8z M398.8,42.7c-22.3,4.8-21.6-15-2.1-19.1c6.2-1.5,12-2.7,18-3.8
	C423.6,17.4,414,41.3,398.8,42.7z M500.8,776.5c0.7-0.2,1.7-0.4,2.1-1c0.4-0.9,0.6-1.9,0.7-2.9c-0.6-5.6,1.8-11.7-1.6-16
	c-2.7,3.2-0.8,7-1,10.7C501.2,770.4,499.9,773.5,500.8,776.5z M465.1,222.1c-1.8,15.6,18.3,52.9,33.2,59.2c-0.3-0.7-0.6-1.6-1-2.6
	c-13.2-12.6-21.8-29.2-27.5-46.2C468.2,229.1,468.3,224.3,465.1,222.1z M491.6,770.1c-3.4,3.4-2.9,9.2-0.8,13.3
	c0.9-0.5,1.7-1,2.4-1.8c-0.1-3-0.1-5.8-0.4-8.5C492.6,772.1,492.2,771.1,491.6,770.1z M465.9,138.6c2.1,0,4.3-0.4,6.8-0.6
	c3.7,0.1,6.6,0.4,9.7-1.5c-1.5-0.6-2.9-2-4.7-1.6c-4.5,0.8-9.8,0-14,2.3C464.3,137.6,465,138.6,465.9,138.6z M450.1,126.7
	c0.6,0.2,1.2,0.3,1.8,0.3c7.2-3.7,14.9-5.6,22.6-8.6l1.3-1.5C469.7,114.7,453.6,121.4,450.1,126.7z M442.8,281.3
	c-1.6,1.2-2,2.8-3,4.4c11.2-4.3,23.3-6.2,34.7-9.6C469.1,270.2,450.8,280.2,442.8,281.3z M437.9,489.8c-4.2,1.8-9.3,1.5-12.4,4.7
	c8.8,3.4,38-10.4,41.8-18.9c-1,0.2-2.3,0.2-3,0.8C456.2,482.1,447.3,486.6,437.9,489.8z M446.3,119.2c6.5-2.7,12.2-8,17.9-12
	C456.3,106.5,450.1,113.1,446.3,119.2z M463.3,272.4c0.8,0.1,2.4-0.5,2.6-1.1c-0.1-4-5.1-3.5-7.9-2.6c-3.6,1.6-12.6,1.3-12.4,6
	C451.7,275.6,456.8,270.8,463.3,272.4z M462.1,297.8c-19.7-17.7-31.7,19.9-6.5,27.3C471.9,327,472.1,305.7,462.1,297.8z
	 M463.4,470.8c-3.7-0.1-5.9,2.3-8.9,3.8c-9.9,3.7-20.5,6.1-30.3,10.3C430.7,489.2,460.9,477.8,463.4,470.8z M453.1,445.5
	c-9.2,2-18.4,0.9-27.6-0.9c0.2,1,0.6,2,1.2,2.9c10.5,2.9,28.3,5.6,35.8-4c2.7-4.4-0.5-17.4-4.7-20.1c-0.7-0.4-1.2,0.1-1,0.9
	C459,432.5,464.5,444.7,453.1,445.5z M435.2,119c-6.9-4.6-14.9-16.6-23.3-15.8c8,7.2,16.3,14,25.1,20.2
	C438.1,121.3,436.4,120.1,435.2,119z M422.4,790.6c-0.9-2.4-1.2-4.5-3.1-6.3c-0.4,1-1.5,2.3-1.3,3.1c1.8,4.2,2.9,9.2,6.5,12.4
	c0.3-1.2,1.1-2.6,0.7-3.7C424.4,794.2,423.5,792.4,422.4,790.6z M410.8,374.4c-5.5-2.3-10.3-6.7-16-7c-0.4,5.2,28.6,16.5,30.6,12.1
	C423.3,376.7,414.6,376.1,410.8,374.4z M417,114.4c-1.5-5.5-36.9-17.8-37.9-10.6c7.6,0.2,14.7,3.6,22.4,5.1
	C407,110.9,411.3,114.5,417,114.4z M405.3,385.5c-7.7-0.5-15.6-3.6-23.2-2.7c2.7,3.8,10.2,3.5,14.9,5.4c7.3-0.1,14.3,1.2,21.2,0.2
	C415.8,384.2,409.3,386.8,405.3,385.5z M409.1,773.8c-1.6,5-3.2,11.2-0.7,15.7c3.1-2.3,1.8-7.3,2.8-10.8
	C411.8,777,412.8,770.6,409.1,773.8z M408,763.6c-0.7,0.4-1.8,0.7-2.1,1.2c-1.2,5.1-6.7,12.9-4.9,17.6c0.8-0.5,2-1,2.4-1.7
	c1.3-3,2.4-6.1,3.3-9.3C407.4,768.5,409.5,766.3,408,763.6z M381.7,775.7c-13.6-10.8-28.8-18.9-43.5-27.9c-1-0.5-2.6,0-3.8,0.1
	c4.4,7,15.7,9.5,22.4,14.7c17.4,9.1,30.3,24.8,46.3,35.2C405.8,794.6,385.1,779.2,381.7,775.7z M400.6,324.8
	c-6,6.2-6.7,16.4-11.2,23.9c-1.9,3.9-4.1,7.7-6.4,11.4c-1.6,2.8-3.3,5.6-4.9,8.4c-3.4,5.9-8.6,10.8-10.5,16.9
	c3.7-1,12-12.8,19.4-25.6C395.5,345.1,402.7,328.9,400.6,324.8z M391.7,753.3c0.1-0.7-1.2-1.7-2-2.5c-0.4,0.5-1.2,1.1-1.2,1.8
	c-0.9,5.3-1.6,10.6-2.2,16c0.6,0.7,1.1,1.4,1.5,2C391.1,765.8,390.4,759,391.7,753.3z M385.7,345.5c-6.5,8.4-12.1,17.6-18.3,26.2
	c-3.7,5.3-7.8,10.2-12.4,14.8c-3.9,4.6-10.3,7.3-12.8,12.9c10-1.8,15.5-12,22.4-18.6c6-6.9,11.4-14.3,16.1-22.1
	C383.6,353.6,385.7,348.8,385.7,345.5z M376.6,757.8c4.7-3.5,4.4-9.9,6.7-15c1.2-2.9,2.6-5.2,1.4-8.3c-0.9,0.7-2.3,1-2.6,1.8
	C380.6,742.7,374.4,751.7,376.6,757.8z M349.1,171.9c-6.7,15.6,5.6,17.4,13.2,4.9c2.4,6.3,10.2,12.6,12.5,2.7c1-2.1-1.8-6.1,0.9-7.2
	c3,0.4,6.2,2.9,8.4-0.5c4.5-5.8-2.8-10.4-6.5-14.4c0.3-0.7-3.1-0.1-0.7-1.7c10.7-7.7,4.4-20.3-7.5-11.4
	c-3.7-18.5-15.6-14.7-13.9,2.6c-2.9-0.3-5.5-1.8-8.1-2.8c-2.6-1.2-6.7,0.7-8,2.7c-3.2,4.8,1,7.6,5.9,10.3
	C329.1,163.2,332.5,174.4,349.1,171.9z M352.8,157.3c-3.7-0.8-16.9-8.1-7.5-10.2c4.2,0.7,8,3,12,4.3c1.5-5.4-0.3-11.8,4-16.1
	c7.4,3.5,2.6,17.6,8.2,12.3c3.6-1.5,5.4-3.5,9-2.6c0.6,4.7-2.9,7.7-5.7,10.9c-4.2,3.5,12,4.7,8.4,13.4c-2.9,1.1-6.9-1.3-9.9-1.8
	c-2.6,2.6,2.3,9.9-0.4,13.6c-11.8-6.4-2.6-15.8-16.6-0.4c-2,2-3.8-0.2-3.7-2c7.8-19.9-2.9-4.5-12.5-12.1
	C340.2,159.7,348.6,162,352.8,157.3z M377.6,705.1c-1.2,0.1-2.5-0.2-3.4,0.4c-2.6,1.6-5,3.4-7.4,5.3c-4,2.2-7.5,5.2-10.3,8.7
	C360.1,719.8,377.8,709,377.6,705.1z M363.6,733.4c-1.2,1.5-0.7,2.7-0.6,4.3c4.2-3.5,14.2-10.7,15.1-15.9c-1,0.2-2.2,0-2.8,0.5
	C371.4,725.8,367.6,729.5,363.6,733.4z M371.8,735.1c-1.3,4.9-7.5,11.3-5.1,15.5c4.5-2.6,5.6-10.8,8.4-15.2
	C376.1,732.7,372.5,732.9,371.8,735.1z M369.4,158.5c-3.6-9.4-20.1-0.3-14.4,7.6C360.2,171.8,371.6,167,369.4,158.5z M365.6,158.2
	c3.2,4.8-4,9.4-8.3,5.6C357.2,159.4,362.1,156.1,365.6,158.2z M361.1,39.3c-3.2,2.7-6.8-4-8.9,1c-2.6,7,4.5,12.2,11.7,7
	C366.8,44.5,366.2,37.5,361.1,39.3z M356.8,46.3c-1.6-0.3-2.7-1.8-2.5-3.4c0-0.1,0-0.2,0.1-0.3c0-0.6,0.2-1.1,0.5-1.6
	c0.4,0.4,1.1,0.4,1.2,0.9c0.6,1.5,1,3,1.5,4.5C357.3,46.4,357,46.4,356.8,46.3L356.8,46.3z M361.1,46.2c-1.1-1.1-1.2-2.8-0.1-4
	c0.3-0.4,0.8-0.6,1.2-0.8C364.5,42.7,362.2,44.8,361.1,46.2L361.1,46.2z M355.2,732.7c2.6-4,8.8-6.9,8.8-11.8
	c-4.8-0.5-13.9,10.8-13.9,16.1C352.7,736.7,353.6,734.4,355.2,732.7z M335.1,326.2c1.1-0.8,1.8-2.1,2,0.4c1,7.8,12.3,9.2,14.6,2
	c0.8-2.9,1.2-5.8,1.2-8.8c-0.1-5.1,6.8,1.6,9.2-5.9c2.3-5.6-7.5-8.4-3.1-10.6c8.9-5.6,6.7-16.4-4.6-11.6c-0.1,0.2-0.3,0.4-0.4,0.7
	c0.6-4.2,1.6-11.3-4.2-11.7c-5.1-0.4-6.8,5.3-8.9,9.7c-3.9-10.6-16.1-6-14.3,5.1c0.8,4.8,0.7,4.8-3.8,5.3c-10.4,2.5-6.5,14.1,2.3,15
	C316,325.4,324.7,335,335.1,326.2z M323.9,304.2c3.1-1.8,11.5,1.5,7.5-4.6c-1.3-4.8-2-15.7,5.4-9.8c2.1,2.9,2.5,7,5.6,9.2
	c2.4-4.6,1.5-11,5.9-14.3c1.5-1.2,2.9-0.6,2.7,1.2c-0.3,4.8-2,9.5-2.3,14.4c3.9-2.1,7.4-6,12-6.1c-0.1,5.1-5.7,7.8-9,11.3
	c6.5,3.1,12.1,11.1,0.2,8.4c-7.3-1.8,2.1,16-7.3,16.2c-4.8-0.1-4.4-5.6-5.9-8.9c-0.6-1.8-1.1-1.8-2.6-0.4c-2.3,2-4.8,3.8-7.5,5.2
	c-3,1.2-5.1-1.6-3.7-4.4c0.2-2.2,8.2-8.5,3.1-8.5C322.2,313.1,315.8,307.4,323.9,304.2L323.9,304.2z M361.8,333.1
	c-0.9,0.5-1.7,1.2-2.4,1.9c-2.3,3.1-4.5,6.5-6.8,10c-8.6,13.7-21.7,24.1-32.5,35C331.8,379.2,361.4,345,361.8,333.1z M357.5,371.2
	c2.2-2.9,3.3-5.2,2.5-6.4c-12.3,11.4-24.7,23.1-39.1,32.2C325.2,400.7,349.2,381.9,357.5,371.2z M344.7,661.2
	c4.3-2.3,2.4-8,3.7-12.2c0.7-1.7-1.2-2.7-1.9-4.2C344.3,650,343.7,655.7,344.7,661.2z M347.1,306.2c-4.5-5.1-10.6-7.3-14.1,0.2
	C330.7,317.5,349.3,318,347.1,306.2z M343.1,306c3.7,4.8-2.7,6.2-6,4.8C334.3,307.2,338.1,302.4,343.1,306L343.1,306z M335.1,657
	c-0.4,5.4-6.3,18.8-3.5,22.5c3.9-2.5,8.7-18.8,4.2-22.1C335.4,657.1,335.4,657,335.1,657z M204.7,500.5c14.7,2.4,29.1-7.1,36.6-19.5
	c0.8-1.3,1.7-1.8,3-0.5c10.1,9,17.2,21,17.2,34.9c0.1,2.7-0.7,3.7-3.1,4.6c-5.9,1.8-22.4,13.3-18.2,20c9.3,4.7,19.9-8.6,21.9-17.1
	c12.5-10.7,38.6,8.1,51.2,13.5c4.8,2.3,10.2,3.4,15.3,0.9c5.6-3.5,13.4-5.4,17.4-10.6c-5,1.1-9.1,4.6-13.7,6.7
	c-20.7,10.9-42-21.8-67.8-15.5c-3-16.1-3-27.3-18.1-39.1c-2.2-1.6-2-3.1-1.2-4.9c9.6-23.2-8.4-55.1-32.8-59
	c22.1,9,38.6,34.3,30.4,58.1c-0.3,7-13-7.7-32.2-0.7C197.1,474.4,190.3,495.6,204.7,500.5z M242.7,539.3c-0.1-1.1-0.6-2.6-0.1-3.3
	c1.5-2.2,3.1-4.4,4.9-6.4c5-2.2,8.1-6.7,13-7C257.3,530.2,251.6,539,242.7,539.3L242.7,539.3z M220.6,473.1c4.5,0.6,24,1.2,17.4,8.5
	c-7.4,10.3-24.6,22.9-36.9,14.1C191.3,483.2,208.9,472.2,220.6,473.1L220.6,473.1z M318.5,673.8c5.9-4.3,8.3-12,12.1-18.2
	c-0.1-0.4-0.1-0.8-0.1-1.2C325.6,656.8,316.9,668.3,318.5,673.8z M323.5,677.1c-0.3,1-1.4,2.7,0.4,3.2c3.8-1.6,4.5-7.5,6.5-11.1
	c-0.1-1.3-0.4-2.3-0.5-3.2C326,668.3,325.3,673.2,323.5,677.1z M318.1,642.7c3.5-1.7,7-2.2,8.4-5.9c-6.5-1-13.4,5.3-19.6,7.4
	C304.6,650.2,315.5,643,318.1,642.7z M304.3,672.5c0.6-0.2,1.3-0.1,1.7-0.4c2.6-2.5,5.1-5.1,7.8-7.8c4.2-4,8.5-7.9,10-13.6
	C320.5,649.4,304.1,668.9,304.3,672.5z M319,20.3c2.7-3.1,3.8-9.5,0-12c-1.1-0.4-2.9,0.7-4,1.5c-0.9,0.6-1.1,1.9-1.7,2.8
	c-1.5,4.6-2.1-4.1-6.8-2.6C296.1,15.7,313.2,30.4,319,20.3z M316.9,11.2c3.4-1.8,0.8,5.4,0.6,6.9c-0.2,0.2-0.3,0.4-0.5,0.6
	c-0.7,0.8-1.5,1.5-2.2,2.4C313.5,17.5,315.9,14.4,316.9,11.2L316.9,11.2z M307.4,13.2c2.7,0.7,6.7,6.8,2.7,7.9
	C308.3,18.9,304.7,15.2,307.4,13.2L307.4,13.2z M317,632.6c2.3-2.5,6.5-3.5,6.8-7.1c-3.7,0.8-8.9,4.6-10.7,8.1c1-0.1,2-0.1,3.1-0.1
	C316.4,633.4,316.7,632.9,317,632.6z M313,50.7c-8-2-14.1,9.5-5.4,8.8c3.9-3.1,5,3,8.8,2.1C320.1,58.3,317.9,52.2,313,50.7z
	 M309.3,55.9c-0.6,0.4-1.4,0.8-2.1,1c-2.3-0.9,2.8-4.1,3.8-3.3C310.4,54.4,309.9,55.2,309.3,55.9L309.3,55.9z M314.1,58.5
	c-0.4-1.5-0.5-3-0.8-4.5c2.9,0.6,2.1,2.7,2.3,4.6C315.1,58.5,314.1,58.7,314.1,58.5L314.1,58.5z M297.5,661.8
	c6.2,0.8,15-5.5,19.2-10C313.5,650.8,299.7,659,297.5,661.8z M305.8,695c-1.4,2.3-3.8,3.8-2.9,6.5c5.6-2.2,9.8-9.1,10.3-15.2
	c-0.7,0.3-1.8,0.4-2.3,1C309.2,689.7,307.6,692.2,305.8,695z M301.1,679.6c-1.2,0.9-2.4,1.9-3.7,3.1c-4.5,4.5-11.4,7.1-14,12.8
	c5-1.3,19.6-11,19.8-16.4C302.4,679.1,301.7,679.3,301.1,679.6z M268.7,367.4c1.4,0.1,3.1,0.7,4.3,0.2c11-4.3,18.7-12.3,25-22.3
	c2.3-5.1,5.5-9.6,5-15.3C292.5,347.4,287.4,357.1,268.7,367.4z M288.8,677.6c6.3-1.6,18.8-13,3.5-5.8
	C290.3,673,283.6,676.8,288.8,677.6z M228.2,317.5c5.9-6.2,1-17.5-5.8-8.4c-1.5,4.5-5.1,0.3-7.7,1.3
	C210.8,318,222.4,323.9,228.2,317.5z M218.1,316.8c-0.3-1.3-1.8-2.9-1-4.2c0.9,1,1.9,2,2.9,2.9c0.1,0.9,0.4,1.8,0.7,2.6
	C219.8,317.7,218.6,317.6,218.1,316.8z M227.7,310.8c0.1,3.7-2.1,5.3-3.8,7.1c-0.4-0.4-1.1-0.8-1.1-1
	C223.4,315.4,226.7,305.1,227.7,310.8z M217.4,439.3c1.8-1,2.2-4.8,5.1-3.3c1.7,0.8,3.9,1.5,5.3-0.7c3.1-9.7-10.8-13.4-14.9-1.4
	C212.5,437.7,213.1,441.2,217.4,439.3z M224.1,430.2c0.7,1.2,0.7,2.7,1,4.1c-0.4-0.1-1-0.1-1.2-0.4c-1.1-1.4-2.2-2.8-3.3-4.2
	C221.9,427.9,223.4,428.9,224.1,430.2z M217.1,431.4c0.3-0.5,0.7-0.8,1-1.2c0.4,0.5,1.2,1.2,1,1.3c-1,2-2.2,3.8-3.4,5.7
	c-0.3-0.5-0.7-1-1.1-1.5C215.8,434,216.4,432.6,217.1,431.4L217.1,431.4z M193.7,400c-7.2,10,0.2,8.9-12,4
	c-10.6,1,2.7,13.9,9.6,11.1c0.2-0.1,0.4-0.2,0.5-0.4l2.5-1.3C199.8,410.9,201.9,395.9,193.7,400z M187.7,413
	c-2.4-1.7-4.8-3.5-7.2-5.2c0.8-0.5,2.1-1.2,2.9-0.9c2.1,1.8,5.9,3.1,6,6.2C188.8,413.1,188.1,413.3,187.7,413L187.7,413z
	 M192.3,411.5c0-3-0.2-7.1,3.5-9.8C197.1,404.5,194.1,408.3,192.3,411.5L192.3,411.5z M180.9,777.9c-0.8,0.1-1.5,0.3-2.3,0.6
	c-7.2,0.6-17.1,4.8-17.9,12.8c0.7-0.3,1.4-0.7,2.1-1.2c5.7-7,14.3-8.2,22.3-11C183.7,778.6,182.3,778.2,180.9,777.9z M168.3,775.4
	c-2.6,0.2-5,0.7-7.8,1.1c-3.1,0-5.7-1.1-8.4,0.6c4.4,4.4,13.9,2.8,18.1-0.6C169.6,776,168.9,775.3,168.3,775.4z M162.3,285.8
	c8.5-7.1,2-18.5-5.6-7.8c-2,4-1.9-5.6-9.7-0.7C143.8,286.1,155.5,291.7,162.3,285.8z M156.9,284.1c1-1.8,2-3.7,2.9-5.6
	c1.4-0.7,2.5-1.1,3.6-1.5c0.2,3.2-3.7,8-6.6,8.9C156.7,285.3,156.7,284.7,156.9,284.1z M154,281.7c-0.1,1.6-0.4,2.6-0.4,3.6
	c-1-0.7-2.1-1.2-2.6-2.1c-0.5-1.4-0.9-2.8-1.2-4.3C152.1,278.6,153.2,279.9,154,281.7z"/>
<path class="st13" d="M637.4,390.4c0.4-2.2-0.7-3-2.7-2.9c-0.6,0-1.1,0.1-1.7,0.3c1,1,2.1,2,3.2,2.9c0.2,0.2,0.8,0,1.2,0.3
	c0.2,0.1,0.4,0.1,0.6,0.1C637.7,390.9,637.5,390.7,637.4,390.4z M640.1,388.7c-0.3,0.4,0.2,1.3,0.3,2c2.3,0.5,7.8-10,2.9-6.2
	C642.2,386,641,387.2,640.1,388.7z M629.7,247.5c1.8,2.4,3.7,4.7,5.6,6.9C640.1,254.8,632.4,246.3,629.7,247.5z M625.5,258.2
	c0.9-0.6,1.7-1.4,2.2-2.3c0.6-1.2,1-2.5,1.2-3.9c0.1-1-0.7-2-1.2-2.9C625.3,251.4,624.8,255.1,625.5,258.2z M656.2,225.5
	c0.4,1,0.9,2,1.5,2.9l2.3,0.2c-0.7-1-1.5-1.9-2.3-2.8C657.4,225.5,656.7,225.7,656.2,225.5z M667.1,223.8c-1.1-0.6-5.3,3.8-4.8,5.3
	c0.8-0.2,1.6-0.6,2.3-1C665.5,226.7,666.3,225.3,667.1,223.8z M695.3,181.9c0.5-0.5,1.1-1,1.6-1.5c-2.6-0.7-6,0-7.1,2.6
	c0.6,0.2,1.2,0.3,1.8,0.3C692.8,182.7,694,182.3,695.3,181.9z M699.2,187.1c0.4-1.3,0.7-2.5,0.9-3.8c0.1-0.5-0.4-1.1-0.6-2.3
	c-0.2-0.1-0.4-0.3-0.5-0.3c-2.6,1-1.1,3.3-1.2,4.9C697.6,186.1,698.6,186.6,699.2,187.1z M635.5,49.7c-0.1-0.3-0.2-0.5-0.2-0.8
	c-0.6,0.7-1.5,1.4-1.6,2.2s0.5,1.8,0.8,2.8C635,52.3,635.7,51.8,635.5,49.7z M643.1,50.2c-1.4,0.3-2.7,0.6-4,1.1
	c-0.8,1.4-1.7,2.7-2.4,4.1c1.4-0.6,2.8-1.3,4.2-2C641.8,52.6,642.3,51.3,643.1,50.2z M572.4,23.6c0.8-0.9,1.6-1.9,2.3-2.9
	c-3.5-0.2-6.8,1.4-8.9,4.1c1.7-0.1,3.3,0,4.9-0.1C571.1,24.7,571.4,23.9,572.4,23.6z M565.2,19c-0.5,0.4-0.9,0.8-1.5,1.1
	c0.7,0.7-1.2,2.7,1.3,1.8C565.1,21,565.2,20,565.2,19z M541.1,12.3c-0.3,0.4-0.6,0.7-1,1c-0.1,0.2-0.2,0.5-0.4,0.7
	C550,15,554.7,0.5,541.1,12.3z M538,3c-2.9,0.7-1.2,8.1,0.6,9.3C540,9.3,539.7,5.8,538,3z M489.3,333.3c-4.5,2.1-2.1,9.8,0.4,13.4
	c8.6,1.8,10-8.9,13.8-14.4C503.6,328.6,491.9,333.3,489.3,333.3z M482.3,336.4c1.4-2.4-0.3-2-1.4-1.8c-7,1.5-13.9,3-21,4.5
	c-5.3,2.4,10,12.1,18.1,6.4C479.6,342.4,480.7,339.2,482.3,336.4z M361.1,46.2c1.1-1.5,3.5-3.5,1.1-4.8c-1.5,0.5-2.3,2-1.9,3.5
	C360.5,45.4,360.7,45.9,361.1,46.2z M354.9,41c-0.3,0.5-0.5,1-0.5,1.6c-0.4,1.6,0.5,3.2,2.1,3.7c0.1,0,0.2,0,0.3,0.1
	c0.3,0,0.5,0,0.8,0c-0.4-1.5-0.9-3-1.5-4.5C356,41.5,355.3,41.4,354.9,41z M317,18.6c0.2-0.2,0.4-0.4,0.5-0.6
	c0.2-1.5,2.8-8.6-0.6-6.9c-1,3.2-3.5,6.3-2.1,9.8C315.5,20.2,316.2,19.5,317,18.6z M313.3,54c0.3,1.5,0.4,3,0.8,4.5
	c0,0.1,1,0,1.5,0.1C315.4,56.7,316.2,54.6,313.3,54z M307.1,56.8c0.8-0.2,1.5-0.6,2.1-1c0.6-0.7,1.2-1.5,1.7-2.3
	C309.9,52.7,304.9,56,307.1,56.8z M307.4,13.1c-2.6,2.1,1,5.7,2.7,7.9C314.1,20,310.1,13.9,307.4,13.1z M223.9,318
	c1.7-1.8,4-3.5,3.8-7.1c-0.9-5.7-4.3,4.5-4.9,6.1C222.8,317.1,223.5,317.6,223.9,318z M225.1,434.4c-0.4-1.4-0.3-2.9-1-4.1
	c-0.7-1.4-2.2-2.4-3.5-0.5c1.1,1.5,2.2,2.9,3.3,4.2C224.1,434.2,224.7,434.2,225.1,434.4z M217.1,312.5c-0.8,1.4,0.7,2.9,1,4.2
	c0.5,0.8,1.7,0.9,2.5,1.2c-0.3-0.9-0.5-1.7-0.7-2.6C219,314.5,218,313.5,217.1,312.5z M219.2,431.4c0.1-0.1-0.7-0.8-1-1.3
	c-0.3,0.4-0.7,0.7-1,1.2c-0.7,1.2-1.3,2.6-2.4,4.2c0.4,0.5,0.8,1,1.1,1.5C217,435.2,218.2,433.4,219.2,431.4z M192.3,411.6
	c1.8-3.3,4.8-7,3.5-9.8C192.1,404.5,192.3,408.5,192.3,411.6z M183.4,406.9c-0.8-0.4-2.1,0.4-2.9,0.9c2.4,1.7,4.8,3.5,7.2,5.2
	c0.4,0.3,1.2,0.1,1.8,0.1C189.4,410,185.5,408.7,183.4,406.9z M163.4,277c-1.1,0.4-2.2,0.9-3.6,1.5c-0.9,1.9-2,3.7-2.9,5.6
	c-0.1,0.6-0.2,1.2-0.1,1.8C159.7,285,163.6,280.2,163.4,277z M153.6,285.3c0.1-1,0.3-2,0.4-3.6c-0.8-1.8-1.9-3.1-4.2-2.9
	c0.2,1.5,0.6,2.9,1.2,4.3C151.4,284.1,152.6,284.7,153.6,285.3z"/>
<path class="st14" d="M761.8,761.6c-4.8-4.3-9.7,3.2-14.9,3.2c-7.9,0.2-9,11.3-7,17.6c5.1,4.8,11.2,6.5,17.7,4.1
	c10.3-3.8,9.8-3.3,9.8-12.7C766.8,769.3,765.7,764.4,761.8,761.6z M738.7,761.1c0.3-0.1,0.7,0.4,1,0.4c6.7,0.6,15.1-1,17.2-9.5
	c2.7-9.8,2-21.8-10-24c-11.7,0.8-9.3,8.9-16.3,16.1C724.8,748.7,730.6,763.2,738.7,761.1z M717.6,837.6c1.2,4.5,1.4,9.3,2.7,13.7
	c2,6.5,9.8,8,12.7-0.3c3.1-7.2,0.3-14.7-0.2-22c0-0.9-0.7-1.7-1.8-0.4C726.2,835,718.8,832.8,717.6,837.6z M568.9,802
	c20.2,29.5-0.7,29.2,43,6.7c12.6-10,30.6-23.2,25-41.6c-1.8-7.3-15,1.8-19.6,2.9C609.9,774.6,565.1,794.4,568.9,802z M624.2,755.2
	c-25.9-7.7-54,14.4-74.7,28.1c0,0.3-0.1,1,0,1c10,1.6,13.2,15.3,18.5,10.4c20.3-12.8,40-27.3,63.4-33.7
	C634.1,758.7,625.8,756.2,624.2,755.2z M278.4,739.7c-0.2,0.2-0.4,0.6-0.7,0.7c-6.8,1.2,0.5,6.9,1.5,10.5
	c9.3,15,19.9,29.1,30.6,43.1c2.1,3.1,3,3.4,6.4,1.8c8.1-4.4,17-6.7,25.9-8.9c1.5-0.3,2.1-1,1-2.5
	C329.5,762.2,309.1,730.4,278.4,739.7z M304.6,793.5c-11.2-14.6-21.6-29.8-31.3-45.5c-2.9-4.7-3.4-4.9-6.6-0.5
	c-14,18.5-2.5,41.8,10.1,57.8c16.1,17.7,4.5,8.6,31.3-5.4C309.7,797.5,305.5,795.5,304.6,793.5z M127.8,750.7
	c5.2,1.6,5.3,15.4,11.7,9.7c10.6-14.4,6.8-16.6-1.7-29.5c-2.6-4-3.4-9.3-9.4-11.2C109.8,721.8,111.4,745.9,127.8,750.7z
	 M131.1,831.4c-9.8,0.4-5.7,25.8,7.3,24C155.8,849.6,150.1,828.4,131.1,831.4z M127,783.6c5.1-12.8,5.9-39.9-15-28.7
	c-6.6,2.6-17.4,15-11.1,21.9C106.6,785.2,118.6,792.2,127,783.6z"/>
</svg>
